<svg width="93" height="31" viewBox="0 0 93 31" fill="none" xmlns="http://www.w3.org/2000/svg">
<path d="M76.9158 27.368V23.8516L85.0752 15.4532C86.896 13.5414 87.8064 11.9482 87.8064 10.6736C87.8064 9.74049 87.5105 8.98941 86.9188 8.42042C86.3498 7.85142 85.6101 7.56692 84.6997 7.56692C82.9017 7.56692 81.5702 8.50007 80.7053 10.3664L76.7451 8.04488C77.4962 6.40617 78.5773 5.15437 79.9884 4.2895C81.3995 3.42462 82.9472 2.99219 84.6314 2.99219C86.7936 2.99219 88.6485 3.67498 90.1962 5.04057C91.7439 6.38341 92.5177 8.2042 92.5177 10.5029C92.5177 12.9838 91.209 15.5329 88.5916 18.1503L83.9145 22.8274H92.8932V27.368H76.9158Z" fill="white"/>
<path d="M65.8441 27.846C62.8625 27.846 60.5182 26.7193 58.8113 24.4661C57.127 22.1901 56.2849 19.1744 56.2849 15.4191C56.2849 11.6637 57.127 8.65939 58.8113 6.40617C60.5182 4.13018 62.8625 2.99219 65.8441 2.99219C68.8484 2.99219 71.1926 4.13018 72.8769 6.40617C74.5611 8.65939 75.4032 11.6637 75.4032 15.4191C75.4032 19.1744 74.5611 22.1901 72.8769 24.4661C71.1926 26.7193 68.8484 27.846 65.8441 27.846ZM62.2252 21.257C63.0446 22.577 64.2509 23.2371 65.8441 23.2371C67.4372 23.2371 68.6435 22.5657 69.4629 21.2228C70.305 19.88 70.726 17.9454 70.726 15.4191C70.726 12.87 70.305 10.924 69.4629 9.58117C68.6435 8.23834 67.4372 7.56692 65.8441 7.56692C64.2509 7.56692 63.0446 8.23834 62.2252 9.58117C61.4059 10.924 60.9962 12.87 60.9962 15.4191C60.9962 17.9682 61.4059 19.9141 62.2252 21.257Z" fill="white"/>
<path d="M48.5379 13.1644C50.1538 13.6424 51.4625 14.4845 52.4639 15.6908C53.4881 16.8743 54.0002 18.3082 54.0002 19.9924C54.0002 22.4505 53.1695 24.3737 51.508 25.762C49.8693 27.1504 47.8551 27.8446 45.4653 27.8446C43.599 27.8446 41.9261 27.4235 40.4467 26.5814C38.9901 25.7165 37.9318 24.4533 37.2717 22.7919L41.3002 20.4704C41.892 22.3139 43.2803 23.2357 45.4653 23.2357C46.6715 23.2357 47.6047 22.9512 48.2647 22.3822C48.9475 21.7904 49.2889 20.9938 49.2889 19.9924C49.2889 19.0137 48.9475 18.2285 48.2647 17.6368C47.6047 17.045 46.6715 16.7491 45.4653 16.7491H44.4411L42.6317 14.0179L47.343 7.87278H37.9887V3.46875H53.0102V7.36069L48.5379 13.1644Z" fill="white"/>
<path d="M19.605 27.368V23.8516L27.7644 15.4532C29.5852 13.5414 30.4956 11.9482 30.4956 10.6736C30.4956 9.74049 30.1997 8.98941 29.608 8.42042C29.039 7.85142 28.2993 7.56692 27.3889 7.56692C25.5909 7.56692 24.2594 8.50007 23.3945 10.3664L19.4343 8.04488C20.1854 6.40617 21.2665 5.15437 22.6776 4.2895C24.0887 3.42462 25.6364 2.99219 27.3206 2.99219C29.4828 2.99219 31.3377 3.67498 32.8854 5.04057C34.4331 6.38341 35.2069 8.2042 35.2069 10.5029C35.2069 12.9838 33.8982 15.5329 31.2808 18.1503L26.6037 22.8274H35.5824V27.368H19.605Z" fill="white"/>
<path d="M17.8356 20.6751C17.8356 22.678 17.1983 24.3053 15.9237 25.5571C14.6492 26.7861 12.9877 27.5258 10.9393 27.7762V30.7805H8.65196V27.8103C6.74013 27.6738 5.10142 27.1389 3.73583 26.2058C2.37024 25.2726 1.39156 24.0094 0.799805 22.4162L4.86244 20.0606C5.59075 21.8814 6.85393 22.917 8.65196 23.1673V17.2611C8.6292 17.2611 8.61782 17.2611 8.61782 17.2611L8.54954 17.227C7.75294 16.9311 7.10429 16.6694 6.60357 16.4418C6.10285 16.2142 5.5111 15.8842 4.8283 15.4517C4.16826 15.0193 3.64479 14.5755 3.25787 14.1203C2.89371 13.6423 2.56369 13.0392 2.26782 12.3109C1.9947 11.5826 1.85814 10.786 1.85814 9.92108C1.85814 7.91822 2.50679 6.31365 3.80411 5.10738C5.12418 3.9011 6.74013 3.20693 8.65196 3.02485V0.0546875H10.9393V3.09313C14.0347 3.45728 16.2196 5.06185 17.4942 7.90684L13.5339 10.2283C12.9877 8.86275 12.1228 8.03202 10.9393 7.73614V13.4375C13.056 14.2796 14.4785 14.951 15.2068 15.4517C16.9593 16.7035 17.8356 18.4447 17.8356 20.6751ZM6.53529 9.95522C6.53529 10.4559 6.69461 10.8998 7.01325 11.2867C7.33188 11.6508 7.87812 12.0264 8.65196 12.4133V7.63372C7.96916 7.77028 7.44568 8.0434 7.08153 8.45307C6.71737 8.86275 6.53529 9.36347 6.53529 9.95522ZM10.9393 23.099C12.396 22.7804 13.1243 21.9838 13.1243 20.7093C13.1243 20.1403 12.9422 19.6623 12.578 19.2754C12.2366 18.8885 11.6904 18.5243 10.9393 18.1829V23.099Z" fill="white"/>
</svg>
