<svg width="298" height="300" viewBox="0 0 298 300" fill="none" xmlns="http://www.w3.org/2000/svg">
<path d="M164.896 299.078C152.703 293.303 147.834 279.582 146.115 266.794C145.824 264.671 145.216 262.464 145.909 260.425C146.603 258.387 148.74 256.717 150.792 257.291C152.498 257.765 153.495 259.484 154.635 260.829C156.154 262.653 158.159 264.009 160.416 264.742C161.881 265.216 163.629 265.358 164.839 264.403C166.495 263.079 166.255 260.51 165.915 258.409C165.221 254.474 164.53 250.544 163.841 246.619C163.362 244.532 163.221 242.382 163.424 240.25C163.742 238.127 164.875 236.004 166.785 235.127C168.696 234.249 171.378 234.957 172.149 236.952C172.38 237.812 172.551 238.687 172.659 239.571C172.864 240.441 173.437 241.34 174.308 241.439C175.178 241.538 175.935 240.802 176.466 240.08C178.285 237.582 179.297 234.589 180.217 231.624C181.137 228.659 182 225.637 183.585 222.976C185.17 220.315 187.591 218.023 190.584 217.315C193.577 216.607 197.116 217.952 198.368 220.797C199.621 223.641 198.411 226.953 196.953 229.678C194.753 233.725 191.981 237.433 188.723 240.689C188.068 241.222 187.602 241.951 187.392 242.769C187.166 244.255 188.737 245.423 190.223 245.65C191.879 245.911 193.563 245.458 195.24 245.374C196.917 245.289 198.828 245.713 199.713 247.164C200.937 249.174 199.515 251.743 197.993 253.533C194.942 257.105 191.296 260.122 187.215 262.449C185.758 263.284 184.208 264.056 183.139 265.358C182.071 266.66 181.639 268.691 182.644 270.05C183.649 271.408 185.68 271.557 187.251 270.977C188.822 270.396 190.131 269.271 191.589 268.422C194.299 266.837 198.078 266.405 200.364 268.599C201.077 269.366 201.603 270.288 201.898 271.292C202.194 272.297 202.253 273.357 202.069 274.388C201.693 276.442 200.906 278.398 199.755 280.141C196.092 286.44 190.822 291.654 184.484 295.249C178.115 298.724 172.022 300.408 164.924 299.092" fill="#F5F5F5"/>
<path d="M166.828 290.554C167.766 283.271 169.122 276.048 170.89 268.921L172.248 263.302C172.694 261.462 173.14 259.636 173.664 257.874C174.717 254.506 175.958 251.198 177.379 247.967C178.717 244.861 180.096 241.966 181.406 239.27C182.715 236.574 183.996 234.083 185.255 231.861C187.225 228.35 189.468 224.999 191.964 221.84C192.848 220.722 193.563 219.88 194.051 219.314L194.611 218.677C194.745 218.536 194.809 218.465 194.816 218.465C194.769 218.552 194.712 218.633 194.646 218.705C194.511 218.868 194.335 219.088 194.115 219.371C193.641 219.951 192.948 220.786 192.084 221.939C189.642 225.126 187.44 228.49 185.496 232.002C184.257 234.224 182.998 236.715 181.696 239.419C180.394 242.122 179.035 245.016 177.712 248.109C176.304 251.341 175.075 254.648 174.032 258.016C173.487 259.764 173.048 261.554 172.616 263.422L171.258 269.034C169.499 276.148 168.136 283.353 167.175 290.618" fill="#E0E0E0"/>
<path d="M173.798 257.839C173.642 257.568 173.521 257.278 173.437 256.976C173.232 256.41 172.956 255.561 172.631 254.563C171.972 252.51 171.166 249.609 170.288 246.488C169.411 243.368 168.569 240.48 167.882 238.442C167.543 237.423 167.259 236.602 167.061 236.036C166.942 235.748 166.85 235.45 166.785 235.145C166.961 235.403 167.101 235.684 167.203 235.98C167.451 236.532 167.776 237.338 168.144 238.35C168.901 240.367 169.793 243.212 170.67 246.375C171.548 249.538 172.298 252.319 172.892 254.478C173.168 255.454 173.402 256.268 173.6 256.926C173.701 257.222 173.768 257.528 173.798 257.839Z" fill="#E0E0E0"/>
<path d="M200.074 248.18C199.733 248.317 199.38 248.421 199.019 248.491C198.312 248.675 197.335 248.93 196.118 249.284C193.676 249.991 190.343 251.039 186.713 252.383C183.083 253.728 179.849 255.086 177.513 256.141C176.353 256.657 175.426 257.103 174.782 257.4C174.462 257.584 174.123 257.732 173.77 257.839C174.068 257.62 174.386 257.428 174.718 257.266C175.334 256.919 176.247 256.438 177.393 255.851C179.679 254.726 182.906 253.324 186.543 251.973C189.649 250.813 192.811 249.811 196.019 248.972C197.25 248.654 198.255 248.442 198.956 248.307C199.324 248.23 199.698 248.188 200.074 248.18Z" fill="#E0E0E0"/>
<path d="M167.075 289.996C166.983 289.907 166.903 289.807 166.835 289.698L166.205 288.793C165.66 288.007 164.903 286.846 163.99 285.403C162.15 282.516 159.744 278.447 157.147 273.925C154.55 269.403 152.193 265.312 150.403 262.39L148.28 258.936L147.714 257.995C147.642 257.887 147.582 257.771 147.537 257.648C147.537 257.648 147.629 257.748 147.778 257.953C147.926 258.158 148.16 258.491 148.407 258.851C148.952 259.637 149.71 260.798 150.629 262.241C152.462 265.128 154.875 269.197 157.473 273.726C160.07 278.255 162.426 282.332 164.209 285.254L166.332 288.708C166.559 289.09 166.75 289.415 166.906 289.656C166.977 289.761 167.034 289.875 167.075 289.996Z" fill="#E0E0E0"/>
<path d="M201.17 272.277C201.17 272.277 201.064 272.362 200.838 272.483L199.854 273.013L196.203 274.917C193.117 276.523 188.893 278.795 184.222 281.286C179.551 283.777 175.291 286.034 172.192 287.584C170.628 288.355 169.361 288.999 168.484 289.374L167.458 289.834C167.342 289.896 167.218 289.941 167.09 289.969C167.192 289.887 167.303 289.818 167.422 289.764L168.413 289.233L172.064 287.329C175.143 285.723 179.375 283.451 184.045 280.96C188.716 278.469 192.976 276.212 196.075 274.662C197.632 273.891 198.906 273.282 199.783 272.872L200.803 272.412C200.919 272.351 201.042 272.306 201.17 272.277Z" fill="#E0E0E0"/>
<path d="M76.4102 147.184C76.4102 147.184 68.0032 148.352 72.7232 166.765C77.4433 185.178 81.4487 194.675 81.4487 194.675C81.4487 194.675 82.0785 198.843 78.7171 198.716C75.3557 198.589 68.4985 195.885 66.1774 199.487C63.7643 203.245 65.8731 207.781 71.131 212.529C76.3889 217.278 87.577 228.098 88.5819 229.075C89.5868 230.051 90.3227 232.082 88.0158 232.365C85.7088 232.648 69.3477 230.723 68.909 238.543C68.4702 246.363 85.3267 257.169 87.1453 258.358C88.964 259.546 89.2683 260.53 88.8437 261.584C88.4191 262.639 82.9985 261.478 78.3208 261.124C73.6432 260.771 68.1588 261.174 68.2791 265.71C68.3994 270.246 77.2523 281.703 103.089 290.216L115.317 293.38L124.354 284.477C142.541 264.252 144.529 249.908 142.385 245.917C140.241 241.926 135.309 244.289 131.388 246.929C127.468 249.568 123.363 253.298 122.486 252.555C121.608 251.812 121.382 250.87 122.358 248.91C123.335 246.95 132.598 229.195 128.324 222.628C124.05 216.061 110.802 225.862 108.658 226.768C106.514 227.673 106.16 225.522 106.535 224.199C106.91 222.875 111.241 207.923 113.456 201.157C115.671 194.392 115.254 189.439 111.291 187.372C107.469 185.377 102.877 191.151 100.018 192.934C97.1587 194.718 95.6443 190.811 95.6443 190.811C95.6443 190.811 94.4059 180.586 89.3462 162.264C84.2864 143.943 76.2332 147.22 76.2332 147.22" fill="#EBEBEB"/>
<path d="M115.31 296.451C111.652 283.005 105.552 258.945 100.202 238.295C94.8518 217.646 90.0043 199.034 86.4165 185.518C84.6119 178.788 83.1542 173.332 82.1705 169.546C81.6751 167.671 81.2859 166.213 81.017 165.201C80.8896 164.72 80.7906 164.338 80.7269 164.069C80.6632 163.8 80.6349 163.68 80.6349 163.68C80.6349 163.68 80.6844 163.807 80.7623 164.062C80.8401 164.317 80.9533 164.699 81.0949 165.18C81.3779 166.185 81.8025 167.643 82.3191 169.504C83.3806 173.261 84.8808 178.703 86.7066 185.447C90.3723 198.893 95.2693 217.575 100.612 238.196C105.955 258.817 112.013 282.892 115.607 296.38" fill="#E0E0E0"/>
<path d="M75.5822 203.691C75.8657 203.806 76.1361 203.951 76.3889 204.123C76.8913 204.42 77.6131 204.873 78.5119 205.439C80.2739 206.579 82.6729 208.206 85.2842 210.06L91.9574 214.816L93.9813 216.231C94.236 216.39 94.4732 216.575 94.689 216.783C94.4029 216.677 94.1317 216.534 93.8822 216.359C93.3727 216.061 92.658 215.608 91.7593 215.028C90.0113 213.875 87.6336 212.197 85.0223 210.365L78.3208 205.659L76.2827 204.243C76.0301 204.085 75.7952 203.9 75.5822 203.691Z" fill="#E0E0E0"/>
<path d="M95.7434 216.201C95.6514 216.137 98.8005 211.049 102.77 204.829C106.74 198.609 110.045 193.62 110.137 193.676C110.229 193.733 107.08 198.821 103.103 205.041C99.126 211.262 95.8354 216.258 95.7434 216.201Z" fill="#E0E0E0"/>
<path d="M102.523 248.236C102.731 247.993 102.969 247.777 103.23 247.592L105.134 245.922C106.747 244.507 108.955 242.554 111.319 240.304C113.683 238.053 115.763 235.951 117.249 234.409L119.011 232.59C119.225 232.355 119.462 232.141 119.719 231.953C119.555 232.22 119.362 232.469 119.146 232.696C118.764 233.156 118.19 233.807 117.476 234.6C116.06 236.192 113.987 238.336 111.609 240.587C109.231 242.837 106.995 244.776 105.339 246.135C104.504 246.807 103.825 247.352 103.344 247.706C103.093 247.916 102.818 248.095 102.523 248.236Z" fill="#E0E0E0"/>
<path d="M81.8237 240.934C82.1096 240.963 82.3904 241.029 82.6588 241.132L84.902 241.839C86.7844 242.441 89.3815 243.297 92.2405 244.267C95.0994 245.236 97.6824 246.135 99.5435 246.8L101.744 247.614C102.021 247.694 102.285 247.81 102.53 247.961C102.244 247.926 101.964 247.858 101.695 247.755L99.4586 247.048C97.5692 246.446 94.972 245.59 92.1131 244.628C89.2542 243.665 86.6712 242.759 84.81 242.087L82.6092 241.28C82.3352 241.195 82.0717 241.078 81.8237 240.934Z" fill="#E0E0E0"/>
<path d="M84.2156 269.977C84.5789 270.035 84.9364 270.125 85.2842 270.245L88.1573 271.123C90.5775 271.88 93.9106 272.956 97.5904 274.159C101.27 275.362 104.589 276.48 106.988 277.301L109.819 278.299C110.174 278.404 110.517 278.543 110.845 278.716C110.481 278.658 110.124 278.568 109.776 278.447L106.903 277.584C104.483 276.827 101.143 275.751 97.463 274.548C93.7832 273.345 90.4713 272.227 88.0724 271.406L85.2417 270.408C84.8856 270.3 84.5417 270.156 84.2156 269.977Z" fill="#E0E0E0"/>
<path d="M110.258 278.329C110.507 278.023 110.784 277.741 111.085 277.487L113.428 275.286C115.402 273.418 118.127 270.835 121.042 267.898C123.958 264.961 126.548 262.237 128.402 260.263L130.596 257.913C130.854 257.613 131.135 257.334 131.438 257.078C131.229 257.409 130.993 257.722 130.73 258.012C130.249 258.6 129.527 259.428 128.607 260.447C126.803 262.485 124.255 265.237 121.325 268.181C118.396 271.125 115.664 273.673 113.619 275.484C112.6 276.39 111.772 277.112 111.192 277.607C110.902 277.875 110.589 278.116 110.258 278.329Z" fill="#E0E0E0"/>
<path d="M39.8949 37.3762L32.9882 35.2179C32.9882 35.2179 31.1836 41.0136 25.119 39.2374C23.9463 38.9167 22.9026 38.2388 22.1328 37.2978C21.363 36.3569 20.9054 35.1995 20.8235 33.9865C20.7412 32.9674 20.9008 31.9433 21.2894 30.9976C21.6781 30.0519 22.2846 29.2114 23.0597 28.5446C24.8359 26.9807 27.9496 26.0254 32.3442 28.297L37.2058 12.7284L30.3769 10.6055L27.5463 19.7272C27.5463 19.7272 17.1791 19.2035 13.8884 29.7618C10.7394 39.8601 19.0614 45.026 22.9394 46.2361C25.9045 47.1632 36.2222 49.5975 39.8949 37.3762Z" fill="#F5F5F5"/>
<path d="M31.2917 7.35679L38.2227 9.51953L40.2421 3.0479L33.3111 0.885157L31.2917 7.35679Z" fill="#F5F5F5"/>
<path d="M58.9592 19.7902L61.7191 19.0826C61.6346 18.7679 61.6141 18.4394 61.6588 18.1167C61.7036 17.7939 61.8127 17.4835 61.9796 17.2036C62.1466 16.9238 62.368 16.6804 62.6308 16.4877C62.8936 16.2951 63.1924 16.1571 63.5095 16.0821C63.9704 15.9419 64.4636 15.949 64.9203 16.1025C65.377 16.256 65.7744 16.5482 66.0571 16.9384C66.2977 17.263 66.4584 17.6398 66.526 18.0382C66.5936 18.4366 66.5663 18.8453 66.4463 19.2312C66.1844 20.1299 65.3423 21.0994 63.3892 21.2693L65.038 27.5037L67.7696 26.7961L66.8072 23.1092C67.8436 22.4832 68.6455 21.5337 69.0892 20.4072C69.5329 19.2806 69.5939 18.0393 69.2627 16.8747C68.2013 12.834 64.3091 12.8481 62.7735 13.2585C61.5846 13.5699 57.6147 14.9286 58.9592 19.7902Z" fill="#EBEBEB"/>
<path d="M68.5282 27.7257L65.7413 28.4727L66.4387 31.0742L69.2256 30.3272L68.5282 27.7257Z" fill="#EBEBEB"/>
<path d="M287.392 91.4152L290.081 92.3918C290.191 92.0848 290.361 91.8029 290.582 91.5628C290.803 91.3228 291.07 91.1295 291.367 90.9942C291.664 90.859 291.985 90.7846 292.311 90.7755C292.637 90.7664 292.961 90.8227 293.265 90.9411C293.717 91.0886 294.113 91.3713 294.399 91.751C294.685 92.1307 294.847 92.589 294.865 93.0641C294.883 93.4702 294.804 93.8748 294.634 94.2442C294.464 94.6135 294.208 94.9368 293.888 95.1871C293.18 95.7744 291.914 96.1 290.215 95.1234L288.014 101.188L290.675 102.15L291.963 98.6121C293.171 98.6858 294.369 98.3616 295.375 97.6894C296.381 97.0171 297.139 96.0338 297.532 94.8899C298.948 90.9553 295.763 88.7615 294.249 88.2166C293.095 87.7991 289.062 86.6527 287.392 91.4152Z" fill="#EBEBEB"/>
<path d="M290.273 103.404L287.572 102.426L286.658 104.947L289.36 105.926L290.273 103.404Z" fill="#EBEBEB"/>
<path d="M1.98559 122.219L7.64686 120.025C7.64686 120.025 5.80695 115.249 10.7393 113.246C11.6833 112.846 12.728 112.75 13.7293 112.969C14.7306 113.188 15.6392 113.713 16.3298 114.47C16.9175 115.1 17.3481 115.859 17.5866 116.687C17.8252 117.515 17.865 118.387 17.7027 119.233C17.3489 121.2 15.792 123.479 11.6947 124.257L16.6483 137.094L22.2742 134.921L19.3799 127.406C19.3799 127.406 26.4565 122.325 23.1305 113.628C19.9248 105.306 11.7159 106.247 8.52436 107.478C6.1254 108.455 -1.97023 112.22 1.98559 122.219Z" fill="#F5F5F5"/>
<path d="M23.4096 137.542L17.6976 139.742L19.7532 145.078L25.4652 142.877L23.4096 137.542Z" fill="#F5F5F5"/>
<path d="M289.607 143.836L285.573 145.393C285.573 145.393 286.882 148.783 283.386 150.198C282.718 150.484 281.976 150.554 281.265 150.398C280.555 150.242 279.911 149.868 279.423 149.328C279.006 148.882 278.7 148.344 278.53 147.757C278.36 147.17 278.332 146.552 278.447 145.952C278.702 144.537 279.806 142.959 282.693 142.414L279.19 133.32L275.199 134.856L277.251 140.185C275.8 141.295 274.754 142.852 274.273 144.615C273.792 146.378 273.904 148.25 274.59 149.943C276.862 155.845 282.679 155.173 284.943 154.302C286.691 153.581 292.423 150.913 289.607 143.836Z" fill="#F5F5F5"/>
<path d="M274.447 132.954L278.495 131.395L277.04 127.617L272.992 129.177L274.447 132.954Z" fill="#F5F5F5"/>
</svg>
