<svg width="80" height="277" viewBox="0 0 80 277" fill="none" xmlns="http://www.w3.org/2000/svg">
<path d="M4.051 86.1633C3.34334 87.5787 5.98289 88.7321 7.50436 89.1921C9.05565 89.5791 10.6627 89.6916 12.2528 89.5247C14.3757 89.4115 16.5483 89.2133 18.3811 88.166C19.9881 87.1707 21.2714 85.73 22.0751 84.0191C22.8719 82.3179 23.5 80.5426 23.9504 78.7188C23.9504 78.7188 7.22839 79.8369 4.051 86.1633Z" fill="#FF5811"/>
<g opacity="0.4">
<path d="M4.051 86.1633C3.34334 87.5787 5.98289 88.7321 7.50436 89.1921C9.05565 89.5791 10.6627 89.6916 12.2528 89.5247C14.3757 89.4115 16.5483 89.2133 18.3811 88.166C19.9881 87.1707 21.2714 85.73 22.0751 84.0191C22.8719 82.3179 23.5 80.5426 23.9504 78.7188C23.9504 78.7188 7.22839 79.8369 4.051 86.1633Z" fill="black"/>
</g>
<path d="M51.2802 81.6466C54.0346 83.6076 57.3394 84.6456 60.7203 84.6117C62.3267 84.6117 64.0322 84.2791 65.214 83.1964C65.7589 82.701 66.1693 82.0641 66.7284 81.5829C67.1105 81.2574 67.5563 81.0097 67.9173 80.6559C68.1082 80.4938 68.2554 80.2865 68.3457 80.0529C68.4359 79.8192 68.4662 79.5668 68.4338 79.3184C68.2956 78.7012 67.9511 78.1496 67.4573 77.7545C65.5395 76.6647 63.2467 76.7001 61.0388 76.7496C58.8288 76.8476 56.6461 77.277 54.5637 78.0234C52.8512 78.5966 51.0608 79.4387 50.1904 80.9956" fill="#FF5811"/>
<g opacity="0.4">
<path d="M68.4338 79.3214C68.1855 78.7233 67.7447 78.2253 67.1813 77.9061C65.2635 76.8163 63.2467 76.7101 61.0388 76.7597C58.8288 76.8577 56.6461 77.2871 54.5637 78.0335C52.8512 78.6067 51.0608 79.4488 50.1904 81.0056L51.2802 81.6567C54.0346 83.6177 57.3394 84.6557 60.7203 84.6218C62.3267 84.6218 64.0322 84.2892 65.214 83.2065C65.7589 82.7111 66.1693 82.0742 66.7284 81.593C67.1105 81.2675 67.5563 81.0198 67.9173 80.666C68.1092 80.5032 68.2572 80.2947 68.3474 80.0597C68.4377 79.8248 68.4674 79.5709 68.4338 79.3214Z" fill="black"/>
</g>
<path d="M18.6429 107.055L53.9198 107.515C53.9913 107.516 54.062 107.5 54.1261 107.468C54.1903 107.437 54.2461 107.39 54.2889 107.333C54.3317 107.276 54.3603 107.209 54.3724 107.139C54.3845 107.068 54.3797 106.996 54.3585 106.927L50.2187 94.0197C50.2187 94.0197 50.8273 87.5659 51.6765 79.8029C52.9502 68.0274 54.6557 53.2161 54.6769 53.2586C52.2638 46.4933 38.0257 45.3398 38.0257 45.3398L21.7991 46.3093L21.233 45.354L16.5624 47.5265C15.5453 48.0008 14.5659 48.552 13.6327 49.1754C10.5473 51.2417 3.11686 55.9689 1.75816 61.248C-1.3697 73.4269 3.93068 87.0705 3.93068 87.0705L7.3416 84.4097C8.20021 83.7469 9.10344 83.144 10.0449 82.6052L16.8808 100.919C16.4742 101.178 16.13 101.523 15.873 101.931C15.616 102.338 15.4527 102.798 15.3948 103.276C15.3382 104.755 16.1024 106.545 18.6429 107.055Z" fill="#FF5811"/>
<g opacity="0.3">
<path d="M33.7656 85.4539C34.8837 79.4388 34.2963 73.2538 33.7019 67.168C31.7417 72.1216 31.8124 77.7829 29.739 82.694C29.4827 83.2118 29.297 83.7616 29.187 84.3287C29.1333 84.6138 29.1483 84.9075 29.2308 85.1857C29.3132 85.4638 29.4607 85.7183 29.6611 85.928C30.2202 86.4375 31.0765 86.1615 31.8195 86.0695C32.4915 85.9471 33.1454 85.7402 33.7656 85.4539Z" fill="black"/>
</g>
<g opacity="0.4">
<path d="M20.773 99.3754C23.6036 100.366 26.6182 98.5333 29.6116 98.2078C31.5931 97.9955 33.5745 98.4484 35.5418 98.7668C39.5199 99.4115 43.5675 99.5091 47.572 99.057C48.1862 99.0265 48.7879 98.8725 49.3412 98.6041C49.627 98.4092 49.8608 98.1474 50.0224 97.8416C50.184 97.5357 50.2684 97.195 50.2682 96.8491C43.6021 96.1414 36.943 95.7522 30.2768 95.0728C28.6178 94.7908 26.9191 94.8438 25.2808 95.2285C23.271 95.8513 21.7425 97.4364 20.3271 98.9933" fill="black"/>
</g>
<path d="M67.4218 76.9636C64.5346 70.4814 54.3797 52.5352 54.3797 52.5352L46.5176 62.3929L48.3504 81.7473C48.3504 81.7473 52.5044 77.1122 64.1171 77.0202C64.961 77.0539 65.7867 77.2761 66.5336 77.6704C67.2806 78.0647 67.9298 78.6211 68.4338 79.2988L67.4218 76.9636Z" fill="#FF5811"/>
<path d="M20.2068 73.5612C19.6465 72.1858 19.2038 70.7654 18.8835 69.3153C18.4386 67.9016 18.1143 66.4528 17.914 64.9844C18.4705 66.3611 18.9131 67.7812 19.2373 69.2303C19.6781 70.6451 20.0024 72.0935 20.2068 73.5612Z" fill="#874F38"/>
<path d="M45.9231 61.1055C46.18 61.2853 46.4172 61.4916 46.6308 61.7211C47.255 62.3238 47.8389 62.9668 48.3787 63.646C50.2165 65.8698 51.5104 68.4915 52.1576 71.3028C52.4929 72.8601 52.5694 74.462 52.3841 76.0442C52.2001 77.4595 51.9241 78.7616 51.7472 79.8443C51.5703 80.927 51.45 81.7904 51.3934 82.3989C51.383 82.717 51.3499 83.0339 51.2943 83.3472C51.2388 83.032 51.2221 82.7111 51.2447 82.3919C51.2756 81.5246 51.3559 80.6599 51.4854 79.8018C51.634 78.712 51.8816 77.4312 52.0444 76.0017C52.2079 74.458 52.1243 72.8981 51.7967 71.3807C51.1659 68.6145 49.9364 66.0202 48.1947 63.7804C46.8856 62.0608 45.8665 61.155 45.9231 61.1055Z" fill="#874F38"/>
<path d="M38.7192 105.509C38.4719 105.615 38.213 105.691 37.9479 105.736C37.645 105.813 37.3378 105.872 37.0279 105.913C36.667 105.962 36.2566 106.04 35.7966 106.061C34.7185 106.16 33.6336 106.16 32.5555 106.061C29.9058 105.812 27.3368 105.014 25.0119 103.719C24.0653 103.194 23.1677 102.585 22.3298 101.9C22.0041 101.643 21.6923 101.369 21.3957 101.079C21.1625 100.857 20.9427 100.62 20.7376 100.372C20.5469 100.186 20.3783 99.9799 20.2352 99.756C20.2847 99.7064 21.049 100.556 22.4926 101.66C23.3384 102.307 24.2353 102.884 25.1746 103.386C26.3268 103.994 27.5297 104.501 28.7695 104.901C30.0184 105.273 31.2969 105.538 32.5909 105.693C33.6483 105.808 34.7131 105.839 35.7754 105.785C37.5941 105.707 38.7051 105.438 38.7192 105.509Z" fill="#874F38"/>
<path d="M49.61 101.477C49.7782 101.796 49.8725 102.149 49.886 102.51C49.999 103.372 49.9339 104.249 49.695 105.086C49.448 105.94 48.9559 106.702 48.2797 107.279C47.7631 107.711 47.3668 107.845 47.3455 107.81C47.3243 107.775 47.664 107.541 48.1027 107.102C48.6742 106.505 49.0898 105.776 49.3128 104.979C49.879 103.147 49.4756 101.484 49.61 101.477Z" fill="#874F38"/>
<path d="M47.6923 103.969C47.8459 104.697 47.7845 105.453 47.5156 106.147C47.2467 106.84 46.782 107.441 46.178 107.875C46.1001 107.797 46.7653 107.097 47.1687 106.014C47.572 104.931 47.5862 103.969 47.6923 103.969Z" fill="#874F38"/>
<path d="M41.38 80.6797C41.007 81.3149 40.5859 81.9205 40.1204 82.4913C39.7566 83.1318 39.3425 83.7423 38.882 84.3171C39.2723 82.8538 40.1544 81.5694 41.38 80.6797Z" fill="#874F38"/>
<path d="M17.1639 63.5168C17.1285 63.5593 16.5694 63.1064 15.6 62.4766C13.0807 60.8281 10.2256 59.7619 7.2425 59.3558C6.61815 59.31 5.99682 59.2296 5.38135 59.1152C6.00787 59.0241 6.64428 59.0241 7.27081 59.1152C10.3366 59.3768 13.2729 60.4706 15.7627 62.2784C16.2887 62.6193 16.761 63.0367 17.1639 63.5168Z" fill="#874F38"/>
<path d="M54.3868 52.3164C53.1069 53.3361 51.9096 54.4553 50.806 55.6636C49.8026 56.9546 48.9057 58.3249 48.124 59.761C48.2056 59.2784 48.3709 58.8138 48.6123 58.3881C49.1216 57.3237 49.7662 56.3295 50.5301 55.4301C51.2866 54.527 52.1545 53.7233 53.113 53.0382C53.4949 52.729 53.9253 52.4851 54.3868 52.3164Z" fill="#874F38"/>
<path d="M39.8161 46.4844C39.8809 46.5887 39.9332 46.7004 39.9717 46.817C40.1109 47.137 40.2222 47.4685 40.3043 47.8077C40.6027 49.0664 40.6027 50.3774 40.3043 51.6361C39.8657 53.5214 38.8577 55.2261 37.4171 56.519C35.6018 58.0585 33.2864 58.8815 30.9066 58.833C28.5362 58.8285 26.2306 58.0591 24.3325 56.6393C22.8093 55.4706 21.5726 53.9701 20.7163 52.2518C20.141 51.1041 19.7358 49.8788 19.5133 48.6144C19.4518 48.2703 19.4093 47.923 19.3859 47.5742C19.3657 47.4547 19.3657 47.3327 19.3859 47.2133C19.4213 47.2133 19.4638 47.7086 19.6619 48.5861C19.9368 49.8172 20.3722 51.0068 20.9569 52.1244C21.8181 53.7917 23.0446 55.2431 24.5448 56.3704C26.3876 57.7381 28.6189 58.4818 30.9137 58.4934C33.2081 58.5387 35.4419 57.7547 37.2048 56.2855C38.5971 55.0463 39.5836 53.4162 40.0354 51.6078C40.3504 50.3842 40.3939 49.1065 40.1628 47.8643C40.0213 46.9585 39.7736 46.5339 39.8161 46.4844Z" fill="#874F38"/>
<g opacity="0.3">
<path d="M42.2929 81.9185C42.2929 81.5647 42.2363 81.1472 41.9249 80.9702C41.8261 80.9205 41.717 80.8945 41.6064 80.8945C41.4958 80.8945 41.3868 80.9205 41.288 80.9702C41.0916 81.0794 40.9165 81.2233 40.7714 81.3948C39.9409 82.2617 39.2977 83.2903 38.882 84.4165L42.3495 84.1193C42.3283 83.4187 42.3141 82.6686 42.2929 81.9185Z" fill="black"/>
</g>
<g opacity="0.3">
<path d="M53.8065 74.6438C53.4574 72.6611 52.5908 70.8058 51.2943 69.2656C52.7875 74.1626 52.2851 76.9296 51.4429 80.2768L51.6269 79.8098C52.5893 77.8495 54.0754 76.6253 53.8065 74.6438Z" fill="black"/>
</g>
<path d="M46.8785 239.145L44.7627 270.884L30.9633 270.721L28.7908 237.723L46.8785 239.145Z" fill="#FFBE9D"/>
<path d="M45.1518 266.71V267.623C45.1518 267.623 60.7203 273.886 60.869 276.822L29.9725 276.646L30.4538 266.363C35.0677 268.536 39.8515 268.798 45.1518 266.71Z" fill="#FF5811"/>
<path d="M33.5674 269.679C33.2748 269.769 33.0247 269.962 32.8634 270.223C32.7021 270.483 32.6405 270.793 32.6899 271.095C32.7687 271.395 32.959 271.653 33.2221 271.818C33.4851 271.982 33.801 272.04 34.1052 271.979C34.4201 271.885 34.6887 271.677 34.8588 271.396C35.0288 271.115 35.0882 270.78 35.0252 270.458C34.9131 270.152 34.6864 269.902 34.3931 269.761C34.0999 269.62 33.7631 269.598 33.4542 269.701" fill="white"/>
<path d="M29.9796 276.656L30.0928 274.18L59.6659 275.262C59.6659 275.262 61.0388 275.864 60.876 276.833L29.9796 276.656Z" fill="#874F38"/>
<path d="M45.2651 267.714C45.2651 267.863 44.5079 267.926 43.7577 268.422C43.0076 268.917 42.6184 269.533 42.4769 269.469C42.3353 269.405 42.5689 268.542 43.4818 267.976C44.3946 267.41 45.3004 267.572 45.2651 267.714Z" fill="#874F38"/>
<path d="M48.5132 269.072C48.5132 269.213 47.8905 269.468 47.3739 270.105C46.8573 270.742 46.7087 271.414 46.56 271.407C46.4114 271.4 46.3124 270.544 46.9705 269.765C47.6286 268.987 48.5132 268.923 48.5132 269.072Z" fill="#874F38"/>
<path d="M50.3178 272.987C50.1762 273.022 49.971 272.279 50.3673 271.444C50.7636 270.609 51.4642 270.29 51.5279 270.418C51.5916 270.545 51.1528 270.984 50.8202 271.663C50.4876 272.343 50.4664 272.944 50.3178 272.987Z" fill="#874F38"/>
<path d="M44.3592 7.0256C45.1589 5.04415 44.1894 2.63811 42.4698 1.36432C40.665 0.172276 38.4629 -0.259996 36.3414 0.1613C34.2418 0.588795 32.2075 1.29068 30.2909 2.2489C29.3999 1.35431 28.2781 0.724562 27.0504 0.429749C25.8227 0.134936 24.5373 0.186628 23.3372 0.579072C22.1371 0.971516 21.0695 1.68931 20.2532 2.65256C19.4369 3.6158 18.9039 4.78669 18.7136 6.03488C17.9522 5.84246 17.1528 5.8607 16.401 6.08765C15.6491 6.3146 14.9732 6.74171 14.4454 7.32328C13.9176 7.90485 13.5579 8.61898 13.4048 9.38925C13.2517 10.1595 13.3108 10.9569 13.576 11.6962L23.1365 15.0505L33.5816 33.4496C35.1252 34.7666 37.0953 35.477 39.1243 35.4482C41.1532 35.4195 43.1024 34.6536 44.6081 33.2934C46.1139 31.9332 47.0733 30.0716 47.3075 28.056C47.5416 26.0404 47.0345 24.0085 45.8807 22.3394C46.4677 21.8179 46.965 21.2035 47.3526 20.5207C48.1876 20.0291 48.9161 19.376 49.4957 18.5996C50.0753 17.8232 50.4943 16.939 50.7281 15.9987C51.641 11.9792 48.4707 7.50681 44.3592 7.0256Z" fill="#874F38"/>
<path d="M38.0257 45.339C37.4384 42.3527 37.0208 40.3004 37.0279 40.3217C37.035 40.3429 42.6892 38.1279 42.2788 30.2446C42.0877 26.3312 40.5875 20.1534 39.2075 15.1361C37.955 10.6283 33.7515 5.64636 29.3003 7.08998L15.8548 13.6712C14.4961 14.1029 14.2625 15.3767 14.581 16.7637V17.4713L19.8247 39.1611L22.0397 48.8631C22.5235 50.8411 23.7265 52.568 25.4141 53.7075C27.1017 54.8469 29.1531 55.3173 31.1685 55.0268C32.2672 54.8674 33.322 54.4863 34.2688 53.9065C35.2155 53.3267 36.0345 52.5605 36.6759 51.6543C37.3173 50.7482 37.7677 49.721 37.9998 48.6354C38.2318 47.5497 38.2406 46.4282 38.0257 45.339Z" fill="#FFBE9D"/>
<path d="M39.1155 20.3507C39.172 20.6009 39.1301 20.8633 38.9983 21.0833C38.8665 21.3034 38.6551 21.4643 38.4078 21.5325C38.2856 21.5681 38.1576 21.5791 38.0311 21.5648C37.9046 21.5506 37.7822 21.5114 37.671 21.4495C37.5598 21.3877 37.462 21.3044 37.3831 21.2044C37.3043 21.1045 37.2461 20.9899 37.2119 20.8673C37.1569 20.6163 37.1994 20.3538 37.3308 20.1331C37.4622 19.9123 37.6727 19.7498 37.9195 19.6785C38.0422 19.643 38.1707 19.6323 38.2975 19.647C38.4244 19.6617 38.547 19.7015 38.6583 19.7641C38.7696 19.8267 38.8674 19.9108 38.9459 20.0115C39.0244 20.1122 39.082 20.2275 39.1155 20.3507Z" fill="#874F38"/>
<path d="M38.5352 18.8699C38.4362 19.0256 37.587 18.6293 36.5326 18.8699C35.4782 19.1105 34.82 19.7828 34.6785 19.6767C34.537 19.5705 34.6785 19.3724 34.9686 19.061C35.3532 18.6381 35.8605 18.3461 36.4193 18.226C36.9662 18.1097 37.5358 18.1692 38.0469 18.3958C38.422 18.594 38.606 18.7992 38.5352 18.8699Z" fill="#874F38"/>
<path d="M28.8757 22.7293C28.9322 22.9794 28.8903 23.2418 28.7585 23.4619C28.6267 23.6819 28.4152 23.8428 28.168 23.911C28.043 23.947 27.9119 23.9571 27.7828 23.9406C27.6537 23.9241 27.5294 23.8814 27.4174 23.8151C27.3055 23.7489 27.2082 23.6604 27.1316 23.5552C27.055 23.45 27.0007 23.3303 26.9721 23.2034C26.9173 22.9533 26.96 22.6918 27.0915 22.4722C27.2231 22.2525 27.4334 22.0914 27.6797 22.0216C27.8048 21.9856 27.9358 21.9756 28.0649 21.9921C28.194 22.0086 28.3183 22.0513 28.4303 22.1175C28.5423 22.1838 28.6395 22.2722 28.7161 22.3774C28.7927 22.4826 28.847 22.6023 28.8757 22.7293Z" fill="#874F38"/>
<path d="M28.3591 21.3681C28.2671 21.5167 27.4108 21.1275 26.3564 21.3681C25.302 21.6087 24.6439 22.281 24.5023 22.1749C24.3608 22.0687 24.5023 21.8776 24.7995 21.5592C25.1792 21.1552 25.6729 20.8763 26.2149 20.7595C26.7616 20.6398 27.3323 20.6993 27.8425 20.9294C28.2459 21.0567 28.4086 21.2974 28.3591 21.3681Z" fill="#874F38"/>
<path d="M33.6878 28.0201C34.2057 27.7319 34.7571 27.5085 35.3295 27.3549C35.5985 27.2699 35.8391 27.1638 35.8461 26.9727C35.8105 26.6888 35.6896 26.4223 35.4994 26.2085C35.1102 25.614 34.6997 24.9913 34.2751 24.3332C32.5626 21.6511 31.2605 19.422 31.3667 19.3795C31.4728 19.3371 32.9518 21.4247 34.6714 24.1067C35.0819 24.7719 35.4852 25.4017 35.8603 26.0032C36.1001 26.2908 36.2282 26.655 36.2212 27.0293C36.2011 27.1324 36.1582 27.2297 36.0958 27.3142C36.0334 27.3986 35.9529 27.4681 35.8603 27.5176C35.7208 27.587 35.5735 27.6392 35.4215 27.6733C34.8603 27.8604 34.2778 27.9769 33.6878 28.0201Z" fill="#874F38"/>
<path d="M37.0279 40.3225C33.4486 41.1314 29.715 40.9305 26.2432 39.7422C26.2432 39.7422 29.9513 44.5826 37.4313 42.2685L37.0279 40.3225Z" fill="#EB996E"/>
<path d="M28.5572 19.8695C28.4865 20.1667 27.4037 20.1597 26.1724 20.464C24.9411 20.7683 23.9645 21.2353 23.7735 20.9947C23.6815 20.8815 23.823 20.5843 24.1981 20.287C24.6989 19.8723 25.2905 19.5814 25.9247 19.4379C26.5544 19.2811 27.2129 19.2811 27.8425 19.4379C28.3308 19.5228 28.5855 19.7209 28.5572 19.8695Z" fill="#874F38"/>
<path d="M38.1318 15.5238C37.9691 15.8069 37.0562 15.7432 36.0088 15.9484C34.9615 16.1536 34.1406 16.5075 33.8859 16.2952C33.7726 16.1961 33.8859 15.9272 34.1902 15.5875C34.6574 15.1945 35.2223 14.9353 35.8249 14.8374C36.4197 14.7148 37.0368 14.7589 37.6082 14.9648C38.0328 15.17 38.2097 15.3964 38.1318 15.5238Z" fill="#874F38"/>
<path d="M19.1312 8.59633C19.2869 9.36355 19.6098 10.087 20.0768 10.7153C20.5439 11.3436 21.1436 11.8613 21.8334 12.2315C22.5232 12.6018 23.2861 12.8155 24.0678 12.8574C24.8496 12.8994 25.631 12.7686 26.3564 12.4743C27.4816 12.0214 28.6351 11.1651 29.7673 11.5756C30.8996 11.986 31.3454 13.5995 32.4564 14.2222C34.0416 15.1139 35.9523 13.5712 37.7639 13.7269C39.1792 13.8401 40.2478 14.9299 41.3446 15.8074C42.4415 16.6849 43.963 17.4208 45.1943 16.7556C44.9108 15.5761 44.4905 14.4337 43.9418 13.3518C43.3868 12.2595 42.472 11.3922 41.3517 10.8962C40.7117 10.7183 40.0811 10.5081 39.4623 10.2664C38.1885 9.60828 37.6153 8.14343 36.6812 7.0324C36.0719 6.33235 35.3052 5.78702 34.4439 5.4413C33.5827 5.09558 32.6517 4.95937 31.7275 5.04388C30.1919 5.20664 28.7412 5.97799 27.1985 5.90722C26.0592 5.86476 24.9694 5.35525 23.8372 5.37648C21.6151 5.37648 19.9521 7.35085 18.7208 9.19784" fill="#874F38"/>
<path d="M26.5757 10.2186C25.5638 10.1478 23.4762 9.93553 22.7898 9.20664C22.093 8.42617 21.2028 7.84318 20.2089 7.51643C19.2149 7.18968 18.1524 7.13072 17.1285 7.34549C16.1118 7.6486 15.2192 8.27013 14.5822 9.11858C13.9452 9.96704 13.5975 10.9976 13.5902 12.0585C12.352 12.3607 11.2184 12.9916 10.3091 13.8847C9.39984 14.7778 8.74863 15.8999 8.42428 17.1324C8.09488 18.4216 8.0838 19.7715 8.39199 21.0659C8.70019 22.3604 9.31841 23.5604 10.1934 24.5628C10.6192 25.0965 11.007 25.6592 11.354 26.2471C10.8741 26.8423 10.4523 27.4822 10.0943 28.1578C8.48088 31.7385 12.8684 33.1114 12.8684 33.1114C12.8684 35.5245 15.0975 35.5103 16.5199 35.5033C17.9423 35.4962 18.7278 39.2892 19.8388 39.1406L18.6853 27.4289C18.8497 27.4937 19.0253 27.525 19.2019 27.5209C21.8839 27.5704 21.1834 22.4965 20.32 21.1519C21.1225 20.1673 21.7977 19.0855 22.3298 17.9321C22.8179 16.1601 22.8544 14.2941 22.4359 12.5043C23.37 12.3699 27.0357 10.254 26.5757 10.2186Z" fill="#874F38"/>
<path d="M19.0887 28.0361C18.9979 27.6623 18.8136 27.3176 18.5532 27.0345C18.2927 26.7514 17.9647 26.539 17.5997 26.4174C17.2347 26.2957 16.8448 26.2687 16.4666 26.339C16.0884 26.4092 15.7342 26.5744 15.4372 26.8189C14.7295 27.4275 14.3545 28.4465 14.7791 30.152C15.9255 34.7093 20.2634 32.6217 20.2351 32.4873C20.2068 32.3528 19.577 29.9185 19.0887 28.0361Z" fill="#FFBE9D"/>
<path d="M18.4094 31.1162C18.4094 31.1162 18.3457 31.187 18.2254 31.286C18.0581 31.4143 17.8475 31.4727 17.638 31.4488C17.1144 31.3922 16.5129 30.7411 16.2864 29.9132C16.1784 29.5239 16.1566 29.1158 16.2227 28.7172C16.2304 28.5644 16.275 28.4157 16.3526 28.2839C16.4303 28.152 16.5387 28.0409 16.6686 27.96C16.754 27.9143 16.8526 27.8992 16.9479 27.9172C17.0431 27.9352 17.1294 27.9853 17.1922 28.0591C17.2842 28.1723 17.2771 28.2714 17.3054 28.2714C17.3338 28.2714 17.3833 28.1723 17.3054 27.9954C17.2534 27.8888 17.1658 27.8038 17.0578 27.7548C16.9839 27.7233 16.9045 27.707 16.8242 27.707C16.744 27.707 16.6645 27.7233 16.5907 27.7548C16.4131 27.8385 16.26 27.9664 16.146 28.1262C16.032 28.2861 15.9609 28.4725 15.9397 28.6677C15.8412 29.11 15.8558 29.57 15.9821 30.0052C16.2369 30.9181 16.9233 31.6611 17.631 31.6823C17.7647 31.6922 17.8988 31.6696 18.022 31.6167C18.1452 31.5637 18.2538 31.4819 18.3386 31.378C18.4306 31.2294 18.4306 31.1162 18.4094 31.1162Z" fill="#EB996E"/>
<path d="M43.5596 21.6752C43.5596 21.6752 43.97 21.3568 44.5503 20.642C45.3538 19.624 45.8454 18.3951 45.9656 17.1037C46.0498 16.2185 45.9535 15.3253 45.6826 14.4783C45.3772 13.5108 44.8175 12.6432 44.062 11.9661C43.1836 11.2045 42.1207 10.6867 40.9795 10.4644C39.8383 10.2421 38.6587 10.3232 37.5586 10.6994C37.3463 10.7702 37.1482 10.8763 36.95 10.9612C36.7519 11.0462 36.575 11.1735 36.391 11.2726L36.1079 11.4354V11.1523C36.101 10.6022 35.8977 10.0726 35.5347 9.65915C35.1709 9.25695 34.7242 8.93828 34.2255 8.72504C33.2628 8.33032 32.1992 8.25346 31.1897 8.50567C29.2365 8.95149 27.5806 9.84315 26.0167 10.0201C24.7903 10.2325 23.5287 9.9802 22.4784 9.3124C22.2024 9.12042 21.9627 8.88079 21.7707 8.60474C21.7072 8.5097 21.655 8.40758 21.6151 8.30045C21.8737 8.64794 22.1867 8.95142 22.5421 9.19918C23.5752 9.79557 24.7889 9.9991 25.9601 9.77238C26.7749 9.61906 27.5717 9.38191 28.3378 9.06472C29.237 8.70274 30.1589 8.40016 31.0977 8.15892C31.6219 8.03825 32.1594 7.98592 32.697 8.00323C33.2641 8.03282 33.8218 8.15969 34.3459 8.37829C34.8874 8.61195 35.3707 8.96232 35.7612 9.4044C36.2077 9.87899 36.4645 10.5009 36.483 11.1523L36.1999 10.9966C36.391 10.8834 36.5821 10.7631 36.7873 10.657C36.9925 10.5508 37.2189 10.4517 37.4454 10.381C38.5994 9.9858 39.837 9.9007 41.0342 10.1342C42.2314 10.3677 43.3463 10.9115 44.2672 11.7114C45.0591 12.4368 45.6388 13.3639 45.9444 14.3934C46.2078 15.2809 46.2849 16.2133 46.1708 17.132C46.0229 18.4651 45.4724 19.7215 44.5928 20.734C44.359 20.9994 44.0955 21.2368 43.8073 21.4417C43.732 21.5269 43.649 21.605 43.5596 21.6752Z" fill="#455A64"/>
<path d="M42.5972 5.6751C42.1383 5.43186 41.644 5.26231 41.1323 5.17266C40.5455 5.08981 39.9474 5.14308 39.3844 5.32835C38.6616 5.55556 38.0329 6.01281 37.5941 6.63044L37.4171 6.8852L37.311 6.60213C36.9415 5.73222 36.3467 4.97658 35.5879 4.4131C34.8292 3.84961 33.9338 3.49867 32.9943 3.39644C31.5197 3.34188 30.0664 3.76099 28.8474 4.59238C27.8091 5.26749 26.7069 5.83873 25.5568 6.29784C24.7627 6.59683 23.9074 6.69646 23.0658 6.58798C22.841 6.55165 22.6204 6.49237 22.4077 6.41106C22.3322 6.38293 22.2608 6.34485 22.1954 6.29784C22.1954 6.29784 22.5138 6.38983 23.087 6.44645C23.9018 6.49779 24.7175 6.36224 25.4718 6.05016C26.5994 5.56897 27.6797 4.9838 28.6988 4.30224C29.3258 3.91471 29.9895 3.58998 30.6802 3.33275C31.4403 3.05561 32.2526 2.95165 33.058 3.02845C34.0619 3.13729 35.0174 3.51669 35.8225 4.12615C36.6276 4.7356 37.2522 5.55224 37.6294 6.48891H37.3535C37.8387 5.81937 38.5376 5.33515 39.3349 5.11605C39.9343 4.93772 40.5678 4.90617 41.1819 5.02405C41.5745 5.09842 41.9507 5.2422 42.2929 5.44865C42.4981 5.56187 42.6043 5.66095 42.5972 5.6751Z" fill="#455A64"/>
<path d="M33.2773 30.1168C33.1096 29.97 32.9119 29.8617 32.698 29.7993C32.4841 29.737 32.2591 29.7222 32.0389 29.7559C31.7857 29.8059 31.5461 29.9095 31.3362 30.0596C31.1263 30.2097 30.9509 30.4029 30.8217 30.6263L30.7792 30.6829C30.6755 30.8421 30.6282 31.0315 30.6448 31.2208C30.6767 31.4253 30.7578 31.6191 30.8811 31.7855C31.0043 31.9519 31.1661 32.0859 31.3525 32.1761C31.6516 32.3277 31.9902 32.3833 32.322 32.3352C32.6539 32.287 32.9628 32.1376 33.2065 31.9072C33.4407 31.672 33.5779 31.3574 33.591 31.0258C33.6041 30.6942 33.4921 30.3698 33.2773 30.1168Z" fill="#FF5811"/>
<path d="M33.6524 32.3174C33.6028 32.3174 33.5321 32.1051 33.341 31.8079C33.0933 31.437 32.7446 31.1448 32.3361 30.9658C31.9252 30.784 31.4698 30.7274 31.0269 30.803C30.6802 30.8525 30.4679 30.9445 30.4396 30.895C30.4113 30.8455 30.5882 30.6756 30.9633 30.5483C31.4574 30.3773 31.9978 30.3981 32.4774 30.6065C32.957 30.8148 33.3409 31.1956 33.5533 31.6734C33.7019 32.0626 33.6524 32.3103 33.6524 32.3174Z" fill="#874F38"/>
<path d="M19.1878 33.1887C19.2232 33.1887 19.393 33.5426 19.1241 34.0804C18.9853 34.3562 18.76 34.579 18.4826 34.7149C18.2053 34.8508 17.8912 34.8922 17.5881 34.8329C17.285 34.7735 17.0097 34.6167 16.804 34.3863C16.5984 34.1559 16.4738 33.8645 16.4492 33.5567C16.4266 33.207 16.5294 32.8607 16.7393 32.5801C17.1073 32.106 17.5248 32.0989 17.5177 32.1414C17.5107 32.1838 17.2064 32.2971 16.9587 32.7217C16.8163 32.9625 16.7566 33.2434 16.7889 33.5213C16.8162 33.6825 16.8777 33.836 16.9692 33.9715C17.0608 34.107 17.1802 34.2213 17.3196 34.3068C17.4575 34.3957 17.6131 34.4537 17.7755 34.4769C17.9379 34.5001 18.1035 34.488 18.2608 34.4413C18.5213 34.3501 18.7466 34.1793 18.9048 33.953C19.0355 33.7132 19.1308 33.4558 19.1878 33.1887Z" fill="#FF5811"/>
<path d="M16.803 32.9172C16.8384 32.9172 16.803 33.1578 16.4704 33.3064C16.2869 33.3919 16.0795 33.4119 15.883 33.363C15.7093 33.3207 15.5519 33.2283 15.4302 33.0973C15.3085 32.9663 15.228 32.8025 15.1986 32.6261C15.1692 32.4497 15.1922 32.2686 15.2648 32.1053C15.3375 31.9419 15.4564 31.8034 15.607 31.7071C15.8972 31.5301 16.1236 31.6009 16.1166 31.6504C16.1095 31.7 15.9396 31.7424 15.7627 31.9123C15.6565 32.0174 15.5863 32.1534 15.5621 32.3009C15.538 32.4483 15.5612 32.5997 15.6283 32.7332C15.7037 32.861 15.8173 32.9619 15.9532 33.0216C16.0891 33.0813 16.2403 33.0967 16.3855 33.0658C16.6261 33.0092 16.7535 32.8818 16.803 32.9172Z" fill="#FF5811"/>
<path d="M24.5802 95.7676C24.5802 95.7676 42.1018 96.7867 52.462 96.8787C60.4797 96.9565 64.0605 94.8194 65.6598 89.6676C67.0115 85.3438 64.1171 77.043 64.1171 77.043C58.6894 77.043 55.3421 77.8143 51.8534 79.4561L52.7804 83.2491L24.5306 85.6835L24.5802 95.7676Z" fill="#FFBE9D"/>
<path d="M58.6752 87.2964C57.9134 86.3077 57.0234 85.4248 56.0285 84.671C54.9642 84.0198 53.8169 83.5151 52.6176 83.1708C52.9948 83.1159 53.3795 83.1474 53.7428 83.2627C54.6323 83.4793 55.4759 83.8532 56.2338 84.3667C56.9913 84.8827 57.6484 85.5326 58.1727 86.2844C58.4127 86.5807 58.5842 86.9262 58.6752 87.2964Z" fill="#EB996E"/>
<path d="M18.1688 79.4265C18.1688 79.4265 12.7481 80.7286 8.77106 83.3894L13.017 94.896C14.4323 98.6749 18.7561 100.557 22.2166 98.5687C27.5453 95.5258 29.4276 86.6376 29.4276 86.6376L35.28 61.2468L25.578 55.168L18.2112 79.4265" fill="#FFBE9D"/>
<path d="M25.5355 55.1665L25.9318 46.8161L23.7664 38.3242C23.6461 37.8571 23.5824 37.2698 23.9645 36.9867C24.154 36.8414 24.388 36.7662 24.6267 36.774C24.8654 36.7817 25.094 36.8719 25.2737 37.0292C25.8681 37.6661 28.6988 45.1177 28.6988 45.1177C28.6988 45.1177 32.9942 42.5348 33.7585 42.4145C34.5228 42.2942 35.4852 44.5941 35.5418 44.7781C35.5699 45.2943 35.5699 45.8116 35.5418 46.3278C35.5418 46.3278 38.1956 46.4128 38.4362 46.7737C38.629 47.5086 38.7312 48.2643 38.7404 49.024C38.7404 49.024 39.8656 49.3849 40.0425 50.2412C40.2194 51.0975 40.5874 52.4915 40.0425 52.7958C39.4976 53.1001 38.3937 53.7229 38.3937 53.7229C38.3937 53.7229 37.9479 58.0538 37.8276 58.443C37.7073 58.8322 35.2234 61.2736 35.2234 61.2736L25.5355 55.1665Z" fill="#FFBE9D"/>
<path d="M16.5128 98.7441C16.5128 98.7441 16.7817 98.8927 17.3266 99.0696C18.1354 99.3269 18.9926 99.3947 19.8317 99.2677C21.1749 99.0778 22.4324 98.497 23.4479 97.5977C24.7937 96.3746 25.9315 94.9405 26.8163 93.3517C27.3359 92.4086 27.7762 91.4239 28.1326 90.4078C28.5015 89.2945 28.8039 88.1602 29.0384 87.0111C29.5904 84.6239 30.1872 82.0645 30.8288 79.333L35.0747 61.1956V61.1461H35.1101C35.5984 60.672 36.0867 60.1766 36.575 59.6742C36.8156 59.4194 37.0562 59.1647 37.2826 58.9028C37.3888 58.7684 37.5091 58.6339 37.6011 58.4995C37.6931 58.365 37.686 58.2447 37.7214 58.0607C37.9124 56.6454 38.0611 55.1805 38.2167 53.7086V53.6095L38.3017 53.56L39.6533 52.8028C39.7524 52.7462 39.908 52.6683 39.9717 52.6188C40.0403 52.5583 40.0854 52.4757 40.0991 52.3853C40.1353 52.1508 40.1353 51.9121 40.0991 51.6776C40.0305 51.1587 39.9241 50.6454 39.7807 50.142C39.6627 49.9231 39.5025 49.7297 39.3094 49.573C39.1163 49.4163 38.894 49.2994 38.6555 49.2291L38.5352 49.1867V49.0593C38.5352 48.6488 38.4927 48.2313 38.4432 47.8138C38.4239 47.6047 38.3933 47.3968 38.3512 47.1911C38.3345 47.1013 38.3084 47.0136 38.2733 46.9292C38.2733 46.8797 38.2733 46.9292 38.2238 46.8868C38.1873 46.8677 38.1494 46.8511 38.1106 46.8372C37.2573 46.6498 36.3871 46.5502 35.5135 46.54H35.3295V46.356C35.3295 45.9244 35.3295 45.4361 35.3295 44.9407C35.3003 44.7741 35.2428 44.6138 35.1597 44.4666C35.0889 44.2967 35.004 44.1269 34.919 43.9641C34.7637 43.6241 34.5765 43.2994 34.36 42.9946C34.264 42.8566 34.1442 42.7368 34.0062 42.6408C33.9533 42.5977 33.8892 42.5707 33.8214 42.5631C33.7536 42.5556 33.685 42.5678 33.624 42.5984C33.283 42.73 32.9498 42.8812 32.6262 43.0513C31.31 43.7589 30.022 44.4666 28.7695 45.2379L28.5784 45.3511L28.5006 45.153C27.8354 43.4759 27.1702 41.8199 26.5191 40.1994C26.1936 39.3856 25.8751 38.5788 25.5496 37.7721C25.4972 37.5941 25.3969 37.434 25.2596 37.3092C25.1223 37.1844 24.9534 37.0997 24.7712 37.0645C24.602 37.0096 24.4193 37.0133 24.2524 37.0749C24.0855 37.1365 23.9442 37.2525 23.8512 37.4041C23.764 37.5563 23.7268 37.7321 23.7451 37.9066C23.7451 38.0693 23.8442 38.3029 23.8937 38.501L24.2122 39.7182C24.4245 40.5249 24.6367 41.3316 24.842 42.1242C25.2618 43.7094 25.6699 45.2662 26.0662 46.7948V46.8443C25.9247 49.7504 25.7902 52.5339 25.6629 55.1947V55.2301C22.9879 63.9343 20.7729 71.1524 19.2161 76.2122L17.3974 82.0504L16.9091 83.5789C16.7959 83.9257 16.7251 84.1026 16.7251 84.1026C16.7251 84.1026 16.7676 83.9186 16.8596 83.5648L17.3054 82.0221C17.7158 80.6563 18.3032 78.6748 19.0462 76.1626L25.3727 55.1452C25.4954 52.4938 25.6204 49.7103 25.7478 46.7948V46.8443C25.342 45.3252 24.9292 43.7683 24.5094 42.1738C24.2971 41.3812 24.0848 40.5815 23.8725 39.7748L23.554 38.5505C23.4865 38.3424 23.4344 38.1295 23.3984 37.9136C23.3723 37.668 23.4242 37.4204 23.547 37.206C23.6738 36.9817 23.8773 36.8108 24.1202 36.7248C24.3515 36.6594 24.5965 36.6594 24.8278 36.7248C25.0679 36.7733 25.2904 36.8857 25.4718 37.0503C25.6494 37.2169 25.781 37.4265 25.8539 37.6589C26.1795 38.4656 26.4979 39.2724 26.8305 40.0862C27.4815 41.7232 28.142 43.3744 28.8119 45.0398L28.5501 44.9549C29.8168 44.2047 31.0977 43.4546 32.4352 42.754C32.7735 42.5711 33.1233 42.4104 33.4825 42.2728C33.5959 42.2326 33.7163 42.2158 33.8363 42.2233C33.9583 42.2418 34.0744 42.2878 34.176 42.3577C34.3462 42.4775 34.4966 42.6232 34.6218 42.7894C34.8585 43.1015 35.0647 43.4357 35.2375 43.7872C35.3295 43.9571 35.4144 44.134 35.4923 44.3109C35.593 44.4983 35.66 44.7018 35.6904 44.9124C35.6904 45.4148 35.6904 45.8819 35.6904 46.3277L35.5135 46.1367C36.4234 46.1448 37.3298 46.2516 38.2167 46.4551C38.28 46.4763 38.3415 46.5023 38.4007 46.5329C38.475 46.5775 38.536 46.641 38.5776 46.7169C38.6346 46.831 38.6751 46.9525 38.6979 47.0778C38.7475 47.2972 38.7687 47.5166 38.797 47.736C38.8465 48.1676 38.8749 48.5922 38.889 49.0097L38.7616 48.847C39.051 48.9319 39.3201 49.0748 39.5525 49.267C39.7848 49.4592 39.9756 49.6968 40.1133 49.9651C40.2683 50.5004 40.3819 51.047 40.4529 51.5998C40.5022 51.8855 40.5022 52.1775 40.4529 52.4631C40.4145 52.6335 40.3228 52.7872 40.1911 52.9019C40.0753 52.98 39.9548 53.0509 39.8302 53.1142L38.4786 53.8714L38.5706 53.7298C38.4078 55.2088 38.2592 56.6666 38.0611 58.1032L38.0186 58.3721C38.0018 58.4846 37.9581 58.5914 37.8912 58.6835C37.7824 58.8346 37.6643 58.9788 37.5374 59.1151C37.3038 59.3911 37.0562 59.6459 36.8297 59.9006C36.3344 60.4101 35.8461 60.9055 35.3578 61.3867L35.4003 61.3018C33.8434 67.8689 32.3998 73.9689 31.1048 79.4249C30.4584 82.1518 29.8522 84.7088 29.2861 87.096C29.0416 88.2509 28.7273 89.39 28.3449 90.5069C27.9824 91.5274 27.5325 92.5147 27.0003 93.4578C26.0945 95.0645 24.9301 96.511 23.554 97.7392C22.5052 98.6454 21.2134 99.2237 19.8388 99.4022C18.9832 99.5152 18.1129 99.4255 17.2983 99.1403C17.0902 99.0688 16.8889 98.9789 16.6968 98.8714L16.5128 98.7441Z" fill="#EB996E"/>
<path d="M35.5419 46.2939C35.5419 46.3505 35.3012 46.3788 34.9262 46.393C34.4499 46.402 33.9757 46.4589 33.5109 46.5628C33.064 46.6741 32.6511 46.8927 32.3078 47.1997C32.0531 47.4403 31.9399 47.6455 31.8832 47.6243C31.8266 47.6031 31.8832 47.3554 32.1168 47.0299C32.4474 46.6176 32.9053 46.3265 33.4189 46.2019C33.9153 46.0877 34.4283 46.0637 34.9333 46.1311C35.3154 46.1807 35.5419 46.2444 35.5419 46.2939Z" fill="#EB996E"/>
<path d="M33.4683 46.3706C33.3693 46.3706 33.3622 46.1158 33.4683 45.8823C33.5745 45.6487 33.7019 45.4931 33.7939 45.5284C33.8859 45.5638 33.9 45.7832 33.7939 46.0167C33.6877 46.2503 33.5603 46.4059 33.4683 46.3706Z" fill="#EB996E"/>
<path d="M38.8607 48.9488C38.1726 49.156 37.4562 49.2539 36.7377 49.2389C36.5127 49.2325 36.2893 49.2799 36.0863 49.3771C35.8832 49.4743 35.7062 49.6186 35.5701 49.798C35.379 50.0881 35.4427 50.3287 35.3861 50.3428C35.3295 50.357 35.1597 50.1022 35.3366 49.6847C35.4337 49.4437 35.6112 49.2436 35.839 49.1186C36.1031 48.9812 36.3917 48.897 36.6882 48.8709C37.4109 48.7615 38.1477 48.7879 38.8607 48.9488Z" fill="#EB996E"/>
<path d="M38.3866 51.4883C38.4856 51.4883 38.5493 52.019 38.514 52.6559C38.4786 53.2928 38.3795 53.8165 38.2804 53.8094C38.1814 53.8023 38.1177 53.2857 38.146 52.6418C38.1743 51.9978 38.2804 51.4883 38.3866 51.4883Z" fill="#EB996E"/>
<path d="M41.3304 70.5519L41.9532 68.3794C41.9822 68.2795 42.037 68.1889 42.112 68.1168C42.1871 68.0446 42.2798 67.9935 42.3808 67.9684C42.4818 67.9433 42.5876 67.9452 42.6877 67.9739C42.7878 68.0025 42.8786 68.057 42.951 68.1317L43.7719 68.9668L44.2814 66.9287C44.3113 66.8106 44.3769 66.7045 44.4692 66.6249C44.5615 66.5452 44.676 66.4959 44.7973 66.4835C44.9186 66.4712 45.0407 66.4964 45.1471 66.5558C45.2536 66.6152 45.3392 66.7058 45.3924 66.8155L46.553 69.2357L41.3304 70.5519Z" fill="white"/>
<path d="M46.5601 70.1641C45.769 70.5481 44.9282 70.8196 44.062 70.9708C43.2236 71.2402 42.352 71.3926 41.472 71.4237C42.264 71.0406 43.1043 70.7668 43.97 70.6099C44.8083 70.3411 45.6801 70.191 46.5601 70.1641Z" fill="white"/>
<path d="M4.47556 58.0625C4.47556 58.0625 4.21374 58.3385 3.84575 58.9046C3.3519 59.7235 3.02706 60.6331 2.89041 61.5796C2.6886 62.9856 2.64588 64.4099 2.76304 65.8255C2.84088 67.4248 2.96826 69.1869 3.16641 71.0268C3.49484 74.1663 3.98613 77.2865 4.63833 80.375C4.88601 81.5568 5.11246 82.498 5.27522 83.2056C5.34599 83.4958 5.4026 83.7505 5.45213 83.9628C5.50167 84.1751 5.50876 84.2318 5.50876 84.2318C5.50876 84.2318 5.47336 84.1397 5.42382 83.9699L5.21862 83.2198C5.0417 82.5617 4.8011 81.6063 4.51096 80.3892C3.82367 77.2997 3.31098 74.174 2.97533 71.0268C2.77718 69.1798 2.65689 67.4178 2.58612 65.8184C2.47941 64.4018 2.53163 62.9776 2.74181 61.5725C2.89302 60.6178 3.23996 59.7047 3.76084 58.8905C3.9632 58.5854 4.20334 58.3072 4.47556 58.0625Z" fill="white"/>
<path d="M19.3718 48.4453L19.209 48.5302L18.7419 48.7567C18.3386 48.9478 17.7512 49.2308 17.0506 49.62C15.2212 50.6334 13.4472 51.7436 11.7361 52.946C9.71221 54.3613 7.92184 55.6422 6.61267 56.5763L5.06289 57.6803L4.63121 57.9704C4.53214 58.0341 4.4826 58.0695 4.47552 58.0624L4.61707 57.9492L5.0275 57.6307L6.55605 56.4985C7.84399 55.5361 9.6273 54.2127 11.6512 52.8186C13.3686 51.6181 15.155 50.5194 17.0011 49.528C17.7088 49.153 18.3032 48.877 18.7207 48.7001L19.2019 48.5019C19.255 48.4738 19.3124 48.4547 19.3718 48.4453Z" fill="white"/>
<path d="M53.1201 53.0431C53.1201 53.0431 53.0776 53.0431 52.9998 52.9582L52.6813 52.6822C52.2888 52.347 51.8751 52.0373 51.4429 51.7551C50.0095 50.8337 48.4847 50.0629 46.8927 49.4552C45.3081 48.8276 43.6898 48.2889 42.0452 47.8418C41.4154 47.6649 40.8988 47.5375 40.545 47.4455L40.1345 47.3464C40.0854 47.3362 40.0378 47.3196 39.993 47.2969C39.993 47.2969 40.0425 47.2969 40.1416 47.2969L40.552 47.3676C40.9129 47.4384 41.4366 47.5516 42.0664 47.7144C43.726 48.1358 45.357 48.6629 46.9493 49.2925C48.5482 49.9079 50.0743 50.6982 51.4995 51.649C52.0934 52.0473 52.6375 52.5154 53.1201 53.0431Z" fill="white"/>
<path d="M19.57 107.069C19.4748 107.046 19.3823 107.012 19.294 106.97C19.0473 106.866 18.8104 106.741 18.5863 106.595C17.818 106.132 17.2636 105.384 17.0436 104.514C16.8488 103.644 16.9458 102.734 17.3196 101.924C17.4257 101.672 17.5636 101.434 17.73 101.217C17.8433 101.068 17.9211 100.997 17.9282 101.004C17.7342 101.304 17.5638 101.619 17.4187 101.946C17.0828 102.739 17.0036 103.617 17.1922 104.458C17.4038 105.293 17.9216 106.018 18.6429 106.489C19.1949 106.885 19.5841 107.041 19.57 107.069Z" fill="white"/>
<path d="M17.3196 99.4023C17.4763 99.6779 17.5885 99.9764 17.6522 100.287C17.7639 100.587 17.8307 100.902 17.8503 101.221C17.5769 100.647 17.3976 100.033 17.3196 99.4023Z" fill="white"/>
<path d="M26.8872 258.06L48.4708 257.954L48.0816 183.324L47.8764 107.392L18.6429 107.031L13.385 116.938C11.2347 120.924 9.86333 125.283 9.34428 129.782C8.9763 133.208 11.5451 144.396 12.4438 147.24L20.4899 172.78L26.8872 258.06Z" fill="#874F38"/>
<path d="M54.2099 107.522L77.9306 172.181C79.3355 176.347 79.802 180.772 79.2967 185.14C78.7915 189.507 77.327 193.709 75.008 197.444L47.4659 251.191L31.9823 231.823L55.0237 183.702L34.7139 150.789L38.1318 107.621L47.6994 107.473L54.2099 107.522Z" fill="#874F38"/>
<path d="M45.9091 129.184C45.9091 129.184 45.909 129.297 45.9444 129.516C45.9798 129.736 45.9798 130.075 46.0011 130.486C46.0506 131.363 46.1143 132.609 46.1992 134.236C46.362 137.513 46.5884 142.219 46.8715 148.029C47.1545 153.838 47.4588 160.766 47.8127 168.48C47.9825 172.33 48.1665 176.37 48.3505 180.56C48.492 182.683 48.4283 184.806 48.4496 186.929C48.4708 189.052 48.4496 191.295 48.4496 193.517C48.4496 211.3 48.5062 227.4 48.5274 239.069C48.5274 244.886 48.5274 249.599 48.5274 252.875C48.5274 254.489 48.5274 255.756 48.5274 256.626C48.5274 257.044 48.5274 257.334 48.5274 257.603C48.5274 257.871 48.5274 257.935 48.5274 257.935C48.5274 257.935 48.5274 257.822 48.5274 257.603V256.626C48.5274 255.756 48.5274 254.503 48.4849 252.875C48.4849 249.599 48.4283 244.886 48.3859 239.069C48.3363 227.4 48.2726 211.307 48.2019 193.524C48.2019 191.302 48.2019 189.101 48.2019 186.936C48.2019 184.77 48.2373 182.64 48.1028 180.567C47.9259 176.377 47.749 172.337 47.5862 168.487C47.2607 160.795 46.9705 153.86 46.7229 148.036C46.4752 142.212 46.3053 137.52 46.1709 134.243C46.1143 132.63 46.0718 131.363 46.0435 130.493C46.0435 130.075 46.0435 129.785 46.0435 129.516C46.0435 129.247 45.9091 129.184 45.9091 129.184Z" fill="#455A64"/>
<path d="M45.3641 108.809C45.4478 109.036 45.5002 109.274 45.5198 109.516C45.5906 109.976 45.6755 110.634 45.7746 111.455C45.9586 113.09 46.1567 115.362 46.277 117.874C46.3973 120.386 46.3903 122.665 46.3549 124.313C46.3549 125.134 46.3053 125.8 46.2699 126.259C46.2759 126.498 46.2473 126.737 46.185 126.967C46.1049 126.083 46.0741 125.194 46.093 124.306C46.093 122.657 46.0152 120.386 45.909 117.881C45.8029 115.376 45.6331 113.111 45.5128 111.469C45.4135 110.586 45.3639 109.698 45.3641 108.809Z" fill="#455A64"/>
<path d="M40.6087 110.223C40.3776 110.441 40.2132 110.721 40.1346 111.029C40.0998 111.184 40.1064 111.346 40.1536 111.497C40.2008 111.649 40.2869 111.785 40.4035 111.893C40.5456 112.019 40.72 112.104 40.9073 112.138C41.0946 112.172 41.2876 112.153 41.465 112.084C41.635 111.997 41.7771 111.864 41.8748 111.7C41.9725 111.536 42.0217 111.348 42.0169 111.157C42.0104 110.998 41.9635 110.844 41.8804 110.709C41.7974 110.574 41.6812 110.463 41.5428 110.385C41.2548 110.246 40.9344 110.187 40.6158 110.216C40.6158 110.216 40.6865 110.124 40.8705 110.074C41.1354 110.003 41.4172 110.03 41.6631 110.152C41.8593 110.236 42.0289 110.372 42.1536 110.545C42.2782 110.719 42.3533 110.923 42.3708 111.136C42.399 111.4 42.3434 111.667 42.2117 111.898C42.08 112.129 41.879 112.312 41.6371 112.423C41.3952 112.533 41.1247 112.565 40.8639 112.513C40.6031 112.461 40.3653 112.328 40.1841 112.133C40.0343 111.983 39.9282 111.796 39.877 111.59C39.8259 111.384 39.8318 111.168 39.894 110.966C39.967 110.704 40.1266 110.474 40.3468 110.315C40.4955 110.223 40.6016 110.223 40.6087 110.223Z" fill="#455A64"/>
<path d="M29.2861 108.973C29.3926 109.195 29.4574 109.435 29.4771 109.68C29.5946 110.315 29.6161 110.964 29.5408 111.605C29.4435 112.563 29.1675 113.495 28.727 114.351C28.1971 115.413 27.4161 116.329 26.4517 117.021C25.4874 117.713 24.3689 118.159 23.1931 118.321C22.251 118.458 21.2917 118.422 20.3625 118.215C19.7322 118.067 19.1267 117.829 18.565 117.507C18.3488 117.409 18.1521 117.272 17.9847 117.104C18.7643 117.464 19.5805 117.739 20.4191 117.925C21.4257 118.135 22.465 118.134 23.4712 117.922C24.4775 117.71 25.4287 117.291 26.2649 116.693C27.101 116.094 27.8037 115.328 28.3286 114.444C28.8536 113.56 29.1892 112.576 29.3144 111.556C29.3955 110.696 29.386 109.83 29.2861 108.973Z" fill="#455A64"/>
<path d="M57.0547 115.178C56.5953 115.235 56.1287 115.179 55.696 115.015C54.6229 114.686 53.6593 114.072 52.9078 113.239C52.1515 112.409 51.631 111.393 51.4005 110.295C51.2901 109.844 51.2901 109.373 51.4005 108.922C51.4712 108.922 51.4713 109.446 51.6836 110.231C51.9745 111.255 52.4948 112.198 53.205 112.991C53.9216 113.778 54.8105 114.388 55.8021 114.774C56.5381 115.043 57.0618 115.1 57.0547 115.178Z" fill="#455A64"/>
<path d="M65.497 184.876C65.1428 185.279 64.7184 185.615 64.2445 185.867C63.7491 186.185 63.2071 186.424 62.6381 186.575C61.9234 186.764 61.1694 186.744 60.4656 186.518C59.2324 186.047 58.1746 185.207 57.4368 184.112C57.0987 183.697 56.8201 183.238 56.6088 182.746C56.9896 183.114 57.3354 183.517 57.642 183.949C58.3968 184.945 59.4135 185.712 60.5788 186.164C61.1729 186.324 61.7937 186.36 62.4024 186.27C63.0111 186.18 63.5947 185.966 64.1171 185.64C64.5629 185.361 65.0236 185.106 65.497 184.876Z" fill="#455A64"/>
<path d="M60.0835 189C58.4919 187.199 57.0948 185.235 55.9153 183.141C57.4965 184.95 58.8929 186.913 60.0835 189Z" fill="#455A64"/>
<path d="M23.8159 131.686C23.7168 131.728 23.4691 131.318 23.2497 130.78C23.0304 130.242 22.9384 129.768 23.0304 129.733C23.1224 129.697 23.3771 130.101 23.5965 130.638C23.8159 131.176 23.9079 131.65 23.8159 131.686Z" fill="#FAFAFA"/>
<path d="M37.5162 133.646C37.4171 133.646 37.3322 133.299 37.3322 132.86C37.3322 132.422 37.4171 132.082 37.5162 132.082C37.6153 132.082 37.7002 132.429 37.7002 132.86C37.7002 133.292 37.6153 133.646 37.5162 133.646Z" fill="#FAFAFA"/>
<path d="M31.8832 141.086C31.7841 141.086 31.6709 140.661 31.6355 140.124C31.6002 139.586 31.6355 139.14 31.7488 139.133C31.862 139.126 31.9681 139.557 32.0035 140.095C32.0389 140.633 31.9894 141.079 31.8832 141.086Z" fill="#FAFAFA"/>
<path d="M21.6221 146.569C21.5372 146.626 21.2471 146.371 20.8649 146.095C20.4828 145.819 20.1573 145.621 20.1573 145.522C20.1573 145.423 20.6314 145.522 21.056 145.798C21.4806 146.074 21.6788 146.513 21.6221 146.569Z" fill="#FAFAFA"/>
<path d="M39.7312 153.483C39.6462 153.426 39.7312 153.115 39.9718 152.775C40.2124 152.435 40.4318 152.23 40.5167 152.287C40.6016 152.343 40.5167 152.655 40.2761 152.994C40.0355 153.334 39.8161 153.539 39.7312 153.483Z" fill="#FAFAFA"/>
<path d="M28.5147 155.443C28.4086 155.443 28.3237 154.856 28.3237 154.134C28.3237 153.412 28.4086 152.832 28.5147 152.832C28.6209 152.832 28.6987 153.412 28.6987 154.134C28.6987 154.856 28.6138 155.443 28.5147 155.443Z" fill="#FAFAFA"/>
<path d="M24.8703 163.375C24.8137 163.46 24.4457 163.29 24.0494 163.007C23.6531 162.724 23.3772 162.419 23.4408 162.334C23.5045 162.249 23.8654 162.419 24.2617 162.709C24.658 163 24.934 163.297 24.8703 163.375Z" fill="#FAFAFA"/>
<path d="M36.2141 166.128C36.2495 166.22 36.023 166.411 35.6975 166.553C35.372 166.695 35.0748 166.744 35.0394 166.652C35.004 166.56 35.2234 166.362 35.5489 166.22C35.8744 166.079 36.1716 166.051 36.2141 166.128Z" fill="#FAFAFA"/>
<path d="M28.5148 179.056C28.4228 179.106 28.0548 178.554 27.6939 177.839C27.333 177.125 27.1136 176.495 27.2056 176.424C27.2976 176.353 27.6656 176.919 28.0265 177.641C28.3006 178.067 28.4681 178.552 28.5148 179.056Z" fill="#FAFAFA"/>
<path d="M41.0403 177.883C40.9483 177.841 41.1111 177.359 41.4012 176.822C41.6914 176.284 41.9957 175.88 42.1089 175.93C42.2221 175.979 42.0381 176.454 41.7551 176.991C41.472 177.529 41.1252 177.933 41.0403 177.883Z" fill="#FAFAFA"/>
<path d="M35.556 188.843C35.4569 188.843 35.464 188.27 35.3508 187.605C35.2375 186.94 35.0748 186.416 35.1668 186.367C35.2588 186.317 35.6055 186.82 35.7188 187.548C35.832 188.277 35.6551 188.865 35.556 188.843Z" fill="#FAFAFA"/>
<path d="M29.6824 195.141C29.6116 195.205 29.2578 194.943 28.8969 194.547C28.536 194.151 28.3024 193.769 28.3803 193.705C28.4581 193.641 28.812 193.903 29.1729 194.299C29.5338 194.696 29.7602 195.042 29.6824 195.141Z" fill="#FAFAFA"/>
<path d="M43.9417 197.486C43.8639 197.415 44.1257 197.033 44.522 196.637C44.9183 196.241 45.2934 195.972 45.3641 196.043C45.4349 196.113 45.1731 196.495 44.7839 196.899C44.3946 197.302 44.0125 197.564 43.9417 197.486Z" fill="#FAFAFA"/>
<path d="M35.7754 206.861C35.6763 206.861 35.6763 206.309 35.7754 205.658C35.8744 205.007 36.0301 204.498 36.1363 204.512C36.2424 204.526 36.2353 205.064 36.1363 205.715C36.0372 206.366 35.839 206.883 35.7754 206.861Z" fill="#FAFAFA"/>
<path d="M30.2273 211.418C30.1353 211.474 29.831 211.106 29.5196 210.604C29.2083 210.101 29.0597 209.656 29.1446 209.606C29.2295 209.557 29.5479 209.917 29.8522 210.42C30.1565 210.922 30.3122 211.361 30.2273 211.418Z" fill="#FAFAFA"/>
<path d="M43.51 217.156C43.5737 217.241 43.2128 217.595 42.7104 217.956C42.208 218.317 41.748 218.543 41.6843 218.465C41.6206 218.388 41.9886 218.02 42.491 217.659C42.9935 217.298 43.4534 217.078 43.51 217.156Z" fill="#FAFAFA"/>
<path d="M32.4423 224.612C32.3432 224.576 32.4423 224.003 32.5343 223.302C32.6263 222.602 32.5696 222.014 32.6758 222C32.7819 221.986 32.9659 222.573 32.9023 223.338C32.8386 224.102 32.5343 224.647 32.4423 224.612Z" fill="#FAFAFA"/>
<path d="M36.8651 235.303C36.7802 235.366 36.483 235.126 36.1999 234.765C35.9169 234.404 35.7399 234.057 35.8178 234.001C35.8956 233.944 36.1999 234.178 36.483 234.538C36.7661 234.899 36.943 235.239 36.8651 235.303Z" fill="#FAFAFA"/>
<path d="M32.0318 242.484C31.954 242.54 31.5647 242.116 31.1685 241.543C30.7722 240.969 30.5174 240.453 30.6023 240.389C30.6873 240.325 31.0694 240.757 31.4657 241.33C31.862 241.903 32.1167 242.42 32.0318 242.484Z" fill="#FAFAFA"/>
<path d="M45.3429 233.478C45.2509 233.443 45.258 233.181 45.3429 232.891C45.4278 232.6 45.6118 232.402 45.7109 232.438C45.81 232.473 45.7958 232.735 45.7109 233.025C45.626 233.315 45.442 233.513 45.3429 233.478Z" fill="#FAFAFA"/>
<path d="M39.4764 250.572C39.3773 250.523 39.5542 250.02 39.6958 249.39C39.8373 248.761 39.8868 248.23 39.993 248.223C40.0991 248.216 40.2053 248.782 40.0567 249.468C39.908 250.155 39.5613 250.622 39.4764 250.572Z" fill="#FAFAFA"/>
<path d="M43.2907 141.203C43.1987 141.246 42.9722 140.956 42.7882 140.566C42.6042 140.177 42.5264 139.816 42.6184 139.774C42.7104 139.731 42.9368 140.014 43.1208 140.411C43.3048 140.807 43.3827 141.154 43.2907 141.203Z" fill="#FAFAFA"/>
<path d="M33.4684 119.162C33.525 119.254 33.0297 119.651 32.4989 120.217C31.9682 120.783 31.6073 121.3 31.5153 121.25C31.4233 121.201 31.6639 120.542 32.2229 119.962C32.782 119.382 33.4189 119.078 33.4684 119.162Z" fill="#FAFAFA"/>
<path d="M42.215 118.898C42.1089 118.898 41.9461 118.502 41.6984 118.014C41.4508 117.525 41.2243 117.143 41.3021 117.072C41.38 117.002 41.7621 117.313 42.0098 117.851C42.2575 118.389 42.3141 118.884 42.215 118.898Z" fill="#FAFAFA"/>
<path d="M14.9701 126.087C14.8781 126.087 14.9701 125.585 15.1895 125.04C15.4089 124.495 15.6566 124.092 15.7486 124.127C15.8406 124.163 15.7486 124.637 15.5292 125.175C15.3098 125.712 15.0692 126.13 14.9701 126.087Z" fill="#FAFAFA"/>
<path d="M15.8548 136.783C15.7911 136.861 15.3877 136.628 14.9489 136.267C14.5102 135.906 14.2413 135.559 14.2837 135.474C14.3262 135.389 14.7579 135.63 15.1895 135.984C15.6212 136.337 15.9184 136.705 15.8548 136.783Z" fill="#FAFAFA"/>
<path d="M33.7302 110.682C33.6382 110.682 33.4401 110.455 33.2986 110.094C33.157 109.733 33.1146 109.387 33.2066 109.387C33.2986 109.387 33.4967 109.613 33.6382 109.974C33.7798 110.335 33.8222 110.639 33.7302 110.682Z" fill="#FAFAFA"/>
<path d="M50.8485 115.885C50.7494 115.885 50.7565 115.439 50.8485 114.93C50.9405 114.42 51.1245 114.038 51.2235 114.059C51.3226 114.081 51.3155 114.505 51.2235 115.008C51.1315 115.51 50.9475 115.928 50.8485 115.885Z" fill="#FAFAFA"/>
<path d="M54.8822 123.986C54.7831 123.986 54.8822 123.42 55.1652 122.812C55.4483 122.203 55.696 121.736 55.7951 121.771C55.8941 121.807 55.795 122.338 55.5049 122.953C55.2148 123.569 54.9671 124.029 54.8822 123.986Z" fill="#FAFAFA"/>
<path d="M52.0019 130.52C51.91 130.562 51.5703 130.074 51.2518 129.423C50.9334 128.772 50.7352 128.213 50.8272 128.171C50.9192 128.128 51.2518 128.609 51.5773 129.26C51.9029 129.911 52.0939 130.47 52.0019 130.52Z" fill="#FAFAFA"/>
<path d="M58.1374 137.045C58.0383 137.002 58.1373 136.599 58.286 136.125C58.4346 135.651 58.6893 135.311 58.7884 135.346C58.8875 135.382 58.7884 135.792 58.6327 136.259C58.477 136.726 58.2293 137.115 58.1374 137.045Z" fill="#FAFAFA"/>
<path d="M52.653 143.435C52.5681 143.492 52.3488 143.301 52.1718 143.01C51.9949 142.72 51.9171 142.444 52.002 142.395C52.0869 142.345 52.3063 142.529 52.4832 142.819C52.6601 143.109 52.7592 143.385 52.653 143.435Z" fill="#FAFAFA"/>
<path d="M53.8207 156.616C53.7499 156.687 53.3111 156.333 52.837 155.831C52.3629 155.328 52.0515 154.861 52.1293 154.79C52.2072 154.719 52.6389 155.073 53.113 155.576C53.5871 156.078 53.8985 156.545 53.8207 156.616Z" fill="#FAFAFA"/>
<path d="M61.0034 149.044C60.9255 149.108 60.5363 148.747 60.14 148.244C59.7438 147.742 59.489 147.282 59.5668 147.218C59.6447 147.155 60.0339 147.515 60.4302 148.018C60.8265 148.52 61.0883 148.98 61.0034 149.044Z" fill="#FAFAFA"/>
<path d="M64.9451 159.499C64.8531 159.457 65.0159 158.926 65.306 158.31C65.5961 157.694 65.9004 157.242 66.0137 157.284C66.1269 157.326 65.95 157.857 65.6598 158.473C65.3697 159.089 65.0371 159.541 64.9451 159.499Z" fill="#FAFAFA"/>
<path d="M56.5664 168.097C56.4814 168.154 56.1488 167.764 55.6959 167.347C55.243 166.929 54.8255 166.639 54.875 166.533C54.9246 166.427 55.4483 166.611 55.9436 167.071C56.439 167.531 56.6513 168.055 56.5664 168.097Z" fill="#FAFAFA"/>
<path d="M57.09 176.969C57.09 177.075 56.7362 177.153 56.3046 177.153C55.8729 177.153 55.5261 177.075 55.5261 176.969C55.5261 176.863 55.8729 176.785 56.3046 176.785C56.7362 176.785 57.09 176.87 57.09 176.969Z" fill="#FAFAFA"/>
<path d="M65.7023 174.494C65.6103 174.437 65.7943 173.999 65.9287 173.439C66.0632 172.88 66.1198 172.413 66.2259 172.406C66.3321 172.399 66.4453 172.909 66.2896 173.531C66.1339 174.154 65.7872 174.551 65.7023 174.494Z" fill="#FAFAFA"/>
<path d="M74.2579 177.45C74.1659 177.486 73.9041 176.99 73.6776 176.346C73.4512 175.702 73.345 175.15 73.437 175.115C73.529 175.08 73.7979 175.582 74.0244 176.226C74.2508 176.87 74.357 177.45 74.2579 177.45Z" fill="#FAFAFA"/>
<path d="M72.8992 189.636C72.8072 189.594 73.0266 188.999 73.3804 188.313C73.7342 187.627 74.088 187.11 74.1942 187.16C74.3003 187.209 74.0668 187.796 73.713 188.483C73.3591 189.169 72.9841 189.686 72.8992 189.636Z" fill="#FAFAFA"/>
<path d="M65.0866 196.791C64.9946 196.833 64.7044 196.338 64.4355 195.694C64.1666 195.05 64.0322 194.498 64.1312 194.463C64.2303 194.427 64.5134 194.916 64.7823 195.56C65.0512 196.204 65.1786 196.756 65.0866 196.791Z" fill="#FAFAFA"/>
<path d="M56.439 199.551C56.439 199.65 56.1488 199.735 55.7879 199.735C55.427 199.735 55.1298 199.65 55.1298 199.551C55.1298 199.452 55.427 199.367 55.7879 199.367C56.1488 199.367 56.439 199.445 56.439 199.551Z" fill="#FAFAFA"/>
<path d="M61.3997 210.903C61.3006 210.903 61.1025 210.514 60.9609 209.969C60.8194 209.424 60.7769 208.971 60.876 208.943C60.9751 208.914 61.1662 209.332 61.3148 209.877C61.4634 210.422 61.4917 210.875 61.3997 210.903Z" fill="#FAFAFA"/>
<path d="M55.1298 207.115C55.0449 207.065 55.1298 206.725 55.3634 206.371C55.5969 206.018 55.8304 205.756 55.9153 205.812C56.0003 205.869 55.9153 206.195 55.6818 206.555C55.4483 206.916 55.2218 207.171 55.1298 207.115Z" fill="#FAFAFA"/>
<path d="M55.0025 219.641C54.9034 219.641 54.7619 219.167 54.6911 218.558C54.6203 217.95 54.6415 217.44 54.7406 217.426C54.8397 217.412 54.9812 217.9 55.052 218.516C55.1227 219.132 55.1015 219.634 55.0025 219.641Z" fill="#FAFAFA"/>
</svg>
