<svg width="466" height="47" viewBox="0 0 466 47" fill="none" xmlns="http://www.w3.org/2000/svg">
<path d="M411.219 42.5212C411.001 42.7397 410.734 42.8489 410.42 42.8489C410.106 42.8489 409.84 42.7397 409.621 42.5212C409.403 42.3027 409.294 42.0364 409.294 41.7223C409.294 41.4082 409.403 41.1419 409.621 40.9234C409.84 40.705 410.106 40.5957 410.42 40.5957C410.734 40.5957 411.001 40.705 411.219 40.9234C411.438 41.1419 411.547 41.4082 411.547 41.7223C411.547 42.0364 411.438 42.3027 411.219 42.5212Z" fill="#E5E1FF"/>
<path d="M405.287 32.4023H406.639V42.6443H405.287V41.0465C404.522 42.2756 403.375 42.8901 401.845 42.8901C400.603 42.8901 399.619 42.5145 398.896 41.7635C398.186 40.9987 397.831 39.9745 397.831 38.6909V32.4023H399.182V38.6909C399.182 39.6058 399.422 40.3159 399.899 40.8212C400.391 41.3265 401.081 41.5791 401.968 41.5791C402.952 41.5791 403.75 41.2719 404.365 40.6573C404.979 40.0292 405.287 39.0664 405.287 37.7691V32.4023Z" fill="#E5E1FF"/>
<path d="M394.237 41.3535C393.199 42.3777 391.929 42.8898 390.427 42.8898C388.925 42.8898 387.648 42.3777 386.597 41.3535C385.559 40.3157 385.04 39.0388 385.04 37.523C385.04 36.0072 385.559 34.7372 386.597 33.713C387.648 32.6752 388.925 32.1562 390.427 32.1562C391.929 32.1562 393.199 32.6752 394.237 33.713C395.289 34.7372 395.814 36.0072 395.814 37.523C395.814 39.0388 395.289 40.3157 394.237 41.3535ZM387.559 40.4113C388.338 41.1896 389.294 41.5788 390.427 41.5788C391.561 41.5788 392.516 41.1896 393.295 40.4113C394.073 39.6192 394.462 38.6565 394.462 37.523C394.462 36.3896 394.073 35.4337 393.295 34.6553C392.516 33.8632 391.561 33.4672 390.427 33.4672C389.294 33.4672 388.338 33.8632 387.559 34.6553C386.781 35.4337 386.392 36.3896 386.392 37.523C386.392 38.6565 386.781 39.6192 387.559 40.4113Z" fill="#E5E1FF"/>
<path d="M382.986 32.4023H384.42L380.037 43.5865C379.641 44.5971 379.074 45.3891 378.337 45.9627C377.613 46.5499 376.8 46.8093 375.899 46.7411V45.4711C377.128 45.6076 378.063 44.8975 378.705 43.3407L378.972 42.7057L374.383 32.4023H375.817L379.668 40.9851L382.986 32.4023Z" fill="#E5E1FF"/>
<path d="M363.862 32.1562C365.105 32.1562 366.082 32.5386 366.792 33.3033C367.515 34.0544 367.877 35.0718 367.877 36.3554V42.644H366.525V36.3554C366.525 35.4405 366.28 34.7304 365.788 34.2251C365.31 33.7199 364.627 33.4672 363.74 33.4672C362.756 33.4672 361.957 33.7813 361.343 34.4095C360.728 35.024 360.421 35.9799 360.421 37.2772V42.644H359.069V32.4021H360.421V33.9998C361.186 32.7708 362.333 32.1562 363.862 32.1562Z" fill="#E5E1FF"/>
<path d="M356.221 29.9434C356.029 30.1345 355.797 30.2301 355.524 30.2301C355.251 30.2301 355.019 30.1345 354.828 29.9434C354.637 29.7522 354.541 29.52 354.541 29.2469C354.541 28.9738 354.637 28.7416 354.828 28.5504C355.019 28.3593 355.251 28.2637 355.524 28.2637C355.797 28.2637 356.029 28.3593 356.221 28.5504C356.412 28.7416 356.507 28.9738 356.507 29.2469C356.507 29.52 356.412 29.7522 356.221 29.9434ZM354.848 42.6434V32.4014H356.2V42.6434H354.848Z" fill="#E5E1FF"/>
<path d="M347.474 33.7119H344.525V39.9185C344.525 40.4784 344.634 40.8813 344.852 41.1271C345.071 41.3592 345.399 41.4821 345.836 41.4958C346.273 41.4958 346.819 41.4821 347.474 41.4548V42.6429C346.04 42.8614 344.962 42.759 344.238 42.3356C343.528 41.9123 343.173 41.1066 343.173 39.9185V33.7119H341.022V32.4009H343.173V29.9429L344.525 29.5332V32.4009H347.474V33.7119Z" fill="#E5E1FF"/>
<path d="M334.21 35.0854C334.21 35.5497 334.414 35.9185 334.824 36.1916C335.234 36.4647 335.732 36.6764 336.319 36.8266C336.907 36.9768 337.494 37.1475 338.081 37.3387C338.668 37.5162 339.167 37.8235 339.576 38.2604C339.986 38.6838 340.191 39.2437 340.191 39.9401C340.191 40.8141 339.843 41.5242 339.146 42.0704C338.463 42.6167 337.576 42.8898 336.483 42.8898C335.5 42.8898 334.66 42.6713 333.964 42.2343C333.281 41.7973 332.803 41.2306 332.53 40.5342L333.677 39.8582C333.868 40.3908 334.21 40.8141 334.701 41.1282C335.206 41.4286 335.8 41.5788 336.483 41.5788C337.152 41.5788 337.712 41.4491 338.163 41.1896C338.614 40.9165 338.839 40.5 338.839 39.9401C338.839 39.4758 338.634 39.1071 338.224 38.834C337.815 38.5609 337.316 38.3492 336.729 38.199C336.142 38.0488 335.555 37.8849 334.967 37.7074C334.38 37.5162 333.882 37.2089 333.472 36.7856C333.062 36.3486 332.858 35.7819 332.858 35.0854C332.858 34.2524 333.185 33.556 333.841 32.9961C334.51 32.4362 335.35 32.1562 336.36 32.1562C337.193 32.1562 337.924 32.3474 338.552 32.7298C339.18 33.0985 339.645 33.6038 339.945 34.2456L338.818 34.9011C338.422 33.9452 337.603 33.4672 336.36 33.4672C335.773 33.4672 335.268 33.6106 334.845 33.8974C334.421 34.1705 334.21 34.5665 334.21 35.0854Z" fill="#E5E1FF"/>
<path d="M328.932 32.4023H330.284V42.6443H328.932V41.0465C328.167 42.2756 327.02 42.8901 325.491 42.8901C324.248 42.8901 323.265 42.5145 322.541 41.7635C321.831 40.9987 321.476 39.9745 321.476 38.6909V32.4023H322.828V38.6909C322.828 39.6058 323.067 40.3159 323.545 40.8212C324.037 41.3265 324.726 41.5791 325.614 41.5791C326.597 41.5791 327.396 41.2719 328.01 40.6573C328.625 40.0292 328.932 39.0664 328.932 37.7691V32.4023Z" fill="#E5E1FF"/>
<path d="M316.633 34.1023C317.261 32.8596 318.34 32.2383 319.869 32.2383V33.5493C318.941 33.5493 318.169 33.8224 317.555 34.3686C316.94 34.9148 316.633 35.7752 316.633 36.9496V42.6441H315.281V32.4022H316.633V34.1023Z" fill="#E5E1FF"/>
<path d="M313.028 33.7119H310.078V39.9185C310.078 40.4784 310.187 40.8813 310.406 41.1271C310.624 41.3592 310.952 41.4821 311.389 41.4958C311.826 41.4958 312.372 41.4821 313.028 41.4548V42.6429C311.594 42.8614 310.515 42.759 309.791 42.3356C309.081 41.9123 308.726 41.1066 308.726 39.9185V33.7119H306.575V32.4009H308.726V29.9429L310.078 29.5332V32.4009H313.028V33.7119Z" fill="#E5E1FF"/>
<path d="M297.389 34.1023C298.017 32.8596 299.096 32.2383 300.626 32.2383V33.5493C299.697 33.5493 298.926 33.8224 298.311 34.3686C297.697 34.9148 297.389 35.7752 297.389 36.9496V42.6441H296.037V32.4022H297.389V34.1023Z" fill="#E5E1FF"/>
<path d="M293.189 29.9434C292.998 30.1345 292.766 30.2301 292.492 30.2301C292.219 30.2301 291.987 30.1345 291.796 29.9434C291.605 29.7522 291.509 29.52 291.509 29.2469C291.509 28.9738 291.605 28.7416 291.796 28.5504C291.987 28.3593 292.219 28.2637 292.492 28.2637C292.766 28.2637 292.998 28.3593 293.189 28.5504C293.38 28.7416 293.476 28.9738 293.476 29.2469C293.476 29.52 293.38 29.7522 293.189 29.9434ZM291.816 42.6434V32.4014H293.168V42.6434H291.816Z" fill="#E5E1FF"/>
<path d="M284.586 32.1562C286.102 32.1562 287.324 32.6957 288.253 33.7745C289.195 34.8396 289.666 36.1028 289.666 37.564C289.666 37.7142 289.652 37.9259 289.625 38.199H280.633C280.769 39.2368 281.206 40.063 281.943 40.6775C282.695 41.2784 283.616 41.5788 284.709 41.5788C285.487 41.5788 286.156 41.4218 286.716 41.1077C287.29 40.78 287.72 40.3566 288.007 39.8377L289.195 40.5342C288.744 41.2579 288.13 41.8315 287.351 42.2548C286.573 42.6781 285.685 42.8898 284.688 42.8898C283.077 42.8898 281.766 42.3845 280.755 41.374C279.745 40.3635 279.24 39.0798 279.24 37.523C279.24 35.9936 279.738 34.7167 280.735 33.6925C281.732 32.6683 283.015 32.1562 284.586 32.1562ZM284.586 33.4672C283.521 33.4672 282.626 33.7881 281.903 34.43C281.192 35.0581 280.769 35.8775 280.633 36.888H288.273C288.136 35.8092 287.72 34.9694 287.023 34.3685C286.327 33.7676 285.515 33.4672 284.586 33.4672Z" fill="#E5E1FF"/>
<path d="M273.225 32.1557C274.468 32.1557 275.444 32.538 276.154 33.3028C276.878 34.0538 277.24 35.0712 277.24 36.3548V42.6434H275.888V36.3548C275.888 35.4399 275.642 34.7298 275.151 34.2245C274.673 33.7193 273.99 33.4666 273.102 33.4666C272.119 33.4666 271.32 33.7807 270.706 34.4089C270.091 35.0234 269.784 35.9793 269.784 37.2766V42.6434H268.432V28.3047H269.784V33.9992C270.549 32.7702 271.696 32.1557 273.225 32.1557Z" fill="#E5E1FF"/>
<path d="M266.179 33.7119H263.229V39.9185C263.229 40.4784 263.338 40.8813 263.557 41.1271C263.775 41.3592 264.103 41.4821 264.54 41.4958C264.977 41.4958 265.523 41.4821 266.179 41.4548V42.6429C264.745 42.8614 263.666 42.759 262.942 42.3356C262.232 41.9123 261.877 41.1066 261.877 39.9185V33.7119H259.726V32.4009H261.877V29.9429L263.229 29.5332V32.4009H266.179V33.7119Z" fill="#E5E1FF"/>
<path d="M247.393 35.0854C247.393 35.5497 247.598 35.9185 248.008 36.1916C248.417 36.4647 248.916 36.6764 249.503 36.8266C250.09 36.9768 250.677 37.1475 251.264 37.3387C251.852 37.5162 252.35 37.8235 252.76 38.2604C253.169 38.6838 253.374 39.2437 253.374 39.9401C253.374 40.8141 253.026 41.5242 252.33 42.0704C251.647 42.6167 250.759 42.8898 249.667 42.8898C248.684 42.8898 247.844 42.6713 247.147 42.2343C246.464 41.7973 245.986 41.2306 245.713 40.5342L246.86 39.8582C247.052 40.3908 247.393 40.8141 247.885 41.1282C248.39 41.4286 248.984 41.5788 249.667 41.5788C250.336 41.5788 250.896 41.4491 251.346 41.1896C251.797 40.9165 252.022 40.5 252.022 39.9401C252.022 39.4758 251.818 39.1071 251.408 38.834C250.998 38.5609 250.5 38.3492 249.913 38.199C249.325 38.0488 248.738 37.8849 248.151 37.7074C247.564 37.5162 247.065 37.2089 246.656 36.7856C246.246 36.3486 246.041 35.7819 246.041 35.0854C246.041 34.2524 246.369 33.556 247.024 32.9961C247.693 32.4362 248.533 32.1562 249.544 32.1562C250.377 32.1562 251.107 32.3474 251.736 32.7298C252.364 33.0985 252.828 33.6038 253.129 34.2456L252.002 34.9011C251.606 33.9452 250.787 33.4672 249.544 33.4672C248.957 33.4672 248.451 33.6106 248.028 33.8974C247.605 34.1705 247.393 34.5665 247.393 35.0854Z" fill="#E5E1FF"/>
<path d="M244.695 33.7119H241.745V39.9185C241.745 40.4784 241.854 40.8813 242.073 41.1271C242.291 41.3592 242.619 41.4821 243.056 41.4958C243.493 41.4958 244.039 41.4821 244.695 41.4548V42.6429C243.261 42.8614 242.182 42.759 241.458 42.3356C240.748 41.9123 240.393 41.1066 240.393 39.9185V33.7119H238.242V32.4009H240.393V29.9429L241.745 29.5332V32.4009H244.695V33.7119Z" fill="#E5E1FF"/>
<path d="M231.43 35.0854C231.43 35.5497 231.635 35.9185 232.045 36.1916C232.454 36.4647 232.953 36.6764 233.54 36.8266C234.127 36.9768 234.714 37.1475 235.301 37.3387C235.889 37.5162 236.387 37.8235 236.797 38.2604C237.206 38.6838 237.411 39.2437 237.411 39.9401C237.411 40.8141 237.063 41.5242 236.367 42.0704C235.684 42.6167 234.796 42.8898 233.704 42.8898C232.721 42.8898 231.881 42.6713 231.184 42.2343C230.501 41.7973 230.023 41.2306 229.75 40.5342L230.897 39.8582C231.089 40.3908 231.43 40.8141 231.922 41.1282C232.427 41.4286 233.021 41.5788 233.704 41.5788C234.373 41.5788 234.933 41.4491 235.383 41.1896C235.834 40.9165 236.059 40.5 236.059 39.9401C236.059 39.4758 235.855 39.1071 235.445 38.834C235.035 38.5609 234.537 38.3492 233.95 38.199C233.362 38.0488 232.775 37.8849 232.188 37.7074C231.601 37.5162 231.102 37.2089 230.693 36.7856C230.283 36.3486 230.078 35.7819 230.078 35.0854C230.078 34.2524 230.406 33.556 231.061 32.9961C231.73 32.4362 232.57 32.1562 233.581 32.1562C234.414 32.1562 235.144 32.3474 235.773 32.7298C236.401 33.0985 236.865 33.6038 237.166 34.2456L236.039 34.9011C235.643 33.9452 234.824 33.4672 233.581 33.4672C232.994 33.4672 232.488 33.6106 232.065 33.8974C231.642 34.1705 231.43 34.5665 231.43 35.0854Z" fill="#E5E1FF"/>
<path d="M226.725 41.3535C225.687 42.3777 224.417 42.8898 222.915 42.8898C221.413 42.8898 220.136 42.3777 219.085 41.3535C218.047 40.3157 217.528 39.0388 217.528 37.523C217.528 36.0072 218.047 34.7372 219.085 33.713C220.136 32.6752 221.413 32.1562 222.915 32.1562C224.417 32.1562 225.687 32.6752 226.725 33.713C227.777 34.7372 228.302 36.0072 228.302 37.523C228.302 39.0388 227.777 40.3157 226.725 41.3535ZM220.047 40.4113C220.826 41.1896 221.782 41.5788 222.915 41.5788C224.049 41.5788 225.005 41.1896 225.783 40.4113C226.561 39.6192 226.951 38.6565 226.951 37.523C226.951 36.3896 226.561 35.4337 225.783 34.6553C225.005 33.8632 224.049 33.4672 222.915 33.4672C221.782 33.4672 220.826 33.8632 220.047 34.6553C219.269 35.4337 218.88 36.3896 218.88 37.523C218.88 38.6565 219.269 39.6192 220.047 40.4113Z" fill="#E5E1FF"/>
<path d="M214.303 41.3535C213.265 42.3777 211.995 42.8898 210.493 42.8898C208.991 42.8898 207.714 42.3777 206.662 41.3535C205.625 40.3157 205.106 39.0388 205.106 37.523C205.106 36.0072 205.625 34.7372 206.662 33.713C207.714 32.6752 208.991 32.1562 210.493 32.1562C211.995 32.1562 213.265 32.6752 214.303 33.713C215.354 34.7372 215.88 36.0072 215.88 37.523C215.88 39.0388 215.354 40.3157 214.303 41.3535ZM207.625 40.4113C208.404 41.1896 209.36 41.5788 210.493 41.5788C211.626 41.5788 212.582 41.1896 213.361 40.4113C214.139 39.6192 214.528 38.6565 214.528 37.523C214.528 36.3896 214.139 35.4337 213.361 34.6553C212.582 33.8632 211.626 33.4672 210.493 33.4672C209.36 33.4672 208.404 33.8632 207.625 34.6553C206.847 35.4337 206.458 36.3896 206.458 37.523C206.458 38.6565 206.847 39.6192 207.625 40.4113Z" fill="#E5E1FF"/>
<path d="M198.187 32.1557C199.648 32.1557 200.891 32.6746 201.915 33.7124C202.953 34.7503 203.472 36.0203 203.472 37.5224C203.472 39.0246 202.953 40.2946 201.915 41.3324C200.891 42.3703 199.648 42.8892 198.187 42.8892C196.371 42.8892 194.992 42.1381 194.05 40.636V42.6434H192.698V28.3047H194.05V34.4089C194.992 32.9067 196.371 32.1557 198.187 32.1557ZM195.217 40.4107C195.996 41.189 196.951 41.5782 198.085 41.5782C199.218 41.5782 200.174 41.189 200.953 40.4107C201.731 39.6186 202.12 38.6559 202.12 37.5224C202.12 36.389 201.731 35.4331 200.953 34.6547C200.174 33.8626 199.218 33.4666 198.085 33.4666C196.951 33.4666 195.996 33.8626 195.217 34.6547C194.439 35.4331 194.05 36.389 194.05 37.5224C194.05 38.6559 194.439 39.6186 195.217 40.4107Z" fill="#E5E1FF"/>
<path d="M179.34 35.0854C179.34 35.5497 179.545 35.9185 179.955 36.1916C180.364 36.4647 180.863 36.6764 181.45 36.8266C182.037 36.9768 182.624 37.1475 183.212 37.3387C183.799 37.5162 184.297 37.8235 184.707 38.2604C185.117 38.6838 185.321 39.2437 185.321 39.9401C185.321 40.8141 184.973 41.5242 184.277 42.0704C183.594 42.6167 182.706 42.8898 181.614 42.8898C180.631 42.8898 179.791 42.6713 179.094 42.2343C178.412 41.7973 177.934 41.2306 177.661 40.5342L178.808 39.8582C178.999 40.3908 179.34 40.8141 179.832 41.1282C180.337 41.4286 180.931 41.5788 181.614 41.5788C182.283 41.5788 182.843 41.4491 183.294 41.1896C183.744 40.9165 183.97 40.5 183.97 39.9401C183.97 39.4758 183.765 39.1071 183.355 38.834C182.945 38.5609 182.447 38.3492 181.86 38.199C181.273 38.0488 180.685 37.8849 180.098 37.7074C179.511 37.5162 179.012 37.2089 178.603 36.7856C178.193 36.3486 177.988 35.7819 177.988 35.0854C177.988 34.2524 178.316 33.556 178.971 32.9961C179.641 32.4362 180.48 32.1562 181.491 32.1562C182.324 32.1562 183.055 32.3474 183.683 32.7298C184.311 33.0985 184.775 33.6038 185.076 34.2456L183.949 34.9011C183.553 33.9452 182.734 33.4672 181.491 33.4672C180.904 33.4672 180.399 33.6106 179.975 33.8974C179.552 34.1705 179.34 34.5665 179.34 35.0854Z" fill="#E5E1FF"/>
<path d="M174.635 41.3535C173.598 42.3777 172.328 42.8898 170.825 42.8898C169.323 42.8898 168.046 42.3777 166.995 41.3535C165.957 40.3157 165.438 39.0388 165.438 37.523C165.438 36.0072 165.957 34.7372 166.995 33.713C168.046 32.6752 169.323 32.1562 170.825 32.1562C172.328 32.1562 173.598 32.6752 174.635 33.713C175.687 34.7372 176.213 36.0072 176.213 37.523C176.213 39.0388 175.687 40.3157 174.635 41.3535ZM167.958 40.4113C168.736 41.1896 169.692 41.5788 170.825 41.5788C171.959 41.5788 172.915 41.1896 173.693 40.4113C174.472 39.6192 174.861 38.6565 174.861 37.523C174.861 36.3896 174.472 35.4337 173.693 34.6553C172.915 33.8632 171.959 33.4672 170.825 33.4672C169.692 33.4672 168.736 33.8632 167.958 34.6553C167.179 35.4337 166.79 36.3896 166.79 37.523C166.79 38.6565 167.179 39.6192 167.958 40.4113Z" fill="#E5E1FF"/>
<path d="M158.822 32.1562C160.338 32.1562 161.56 32.6957 162.489 33.7745C163.431 34.8396 163.902 36.1028 163.902 37.564C163.902 37.7142 163.889 37.9259 163.861 38.199H154.869C155.005 39.2368 155.442 40.063 156.18 40.6775C156.931 41.2784 157.853 41.5788 158.945 41.5788C159.723 41.5788 160.393 41.4218 160.953 41.1077C161.526 40.78 161.956 40.3566 162.243 39.8377L163.431 40.5342C162.98 41.2579 162.366 41.8315 161.588 42.2548C160.809 42.6781 159.921 42.8898 158.925 42.8898C157.313 42.8898 156.002 42.3845 154.992 41.374C153.981 40.3635 153.476 39.0798 153.476 37.523C153.476 35.9936 153.974 34.7167 154.971 33.6925C155.968 32.6683 157.252 32.1562 158.822 32.1562ZM158.822 33.4672C157.757 33.4672 156.863 33.7881 156.139 34.43C155.429 35.0581 155.005 35.8775 154.869 36.888H162.509C162.373 35.8092 161.956 34.9694 161.26 34.3685C160.563 33.7676 159.751 33.4672 158.822 33.4672Z" fill="#E5E1FF"/>
<path d="M149.876 28.3047H151.228V42.6434H149.876V40.636C148.934 42.1381 147.555 42.8892 145.738 42.8892C144.277 42.8892 143.028 42.3703 141.99 41.3324C140.966 40.2946 140.453 39.0246 140.453 37.5224C140.453 36.0203 140.966 34.7503 141.99 33.7124C143.028 32.6746 144.277 32.1557 145.738 32.1557C147.555 32.1557 148.934 32.9067 149.876 34.4089V28.3047ZM142.973 40.4107C143.751 41.189 144.707 41.5782 145.841 41.5782C146.974 41.5782 147.93 41.189 148.708 40.4107C149.487 39.6186 149.876 38.6559 149.876 37.5224C149.876 36.389 149.487 35.4331 148.708 34.6547C147.93 33.8626 146.974 33.4666 145.841 33.4666C144.707 33.4666 143.751 33.8626 142.973 34.6547C142.195 35.4331 141.805 36.389 141.805 37.5224C141.805 38.6559 142.195 39.6186 142.973 40.4107Z" fill="#E5E1FF"/>
<path d="M138.22 29.9434C138.028 30.1345 137.796 30.2301 137.523 30.2301C137.25 30.2301 137.018 30.1345 136.827 29.9434C136.635 29.7522 136.54 29.52 136.54 29.2469C136.54 28.9738 136.635 28.7416 136.827 28.5504C137.018 28.3593 137.25 28.2637 137.523 28.2637C137.796 28.2637 138.028 28.3593 138.22 28.5504C138.411 28.7416 138.506 28.9738 138.506 29.2469C138.506 29.52 138.411 29.7522 138.22 29.9434ZM136.847 42.6434V32.4014H138.199V42.6434H136.847Z" fill="#E5E1FF"/>
<path d="M133.779 32.4023H135.213L131.014 42.6443H129.375L125.176 32.4023H126.61L130.195 41.2309L133.779 32.4023Z" fill="#E5E1FF"/>
<path d="M114.054 32.1562C115.57 32.1562 116.792 32.6957 117.72 33.7745C118.663 34.8396 119.134 36.1028 119.134 37.564C119.134 37.7142 119.12 37.9259 119.093 38.199H110.1C110.237 39.2368 110.674 40.063 111.411 40.6775C112.162 41.2784 113.084 41.5788 114.177 41.5788C114.955 41.5788 115.624 41.4218 116.184 41.1077C116.758 40.78 117.188 40.3566 117.475 39.8377L118.663 40.5342C118.212 41.2579 117.597 41.8315 116.819 42.2548C116.041 42.6781 115.153 42.8898 114.156 42.8898C112.545 42.8898 111.234 42.3845 110.223 41.374C109.213 40.3635 108.707 39.0798 108.707 37.523C108.707 35.9936 109.206 34.7167 110.203 33.6925C111.2 32.6683 112.483 32.1562 114.054 32.1562ZM114.054 33.4672C112.989 33.4672 112.094 33.7881 111.37 34.43C110.66 35.0581 110.237 35.8775 110.1 36.888H117.741C117.604 35.8092 117.188 34.9694 116.491 34.3685C115.795 33.7676 114.982 33.4672 114.054 33.4672Z" fill="#E5E1FF"/>
<path d="M105.108 28.3047H106.46V42.6434H105.108V40.636C104.165 42.1381 102.786 42.8892 100.97 42.8892C99.5087 42.8892 98.2591 42.3703 97.2213 41.3324C96.1971 40.2946 95.685 39.0246 95.685 37.5224C95.685 36.0203 96.1971 34.7503 97.2213 33.7124C98.2591 32.6746 99.5087 32.1557 100.97 32.1557C102.786 32.1557 104.165 32.9067 105.108 34.4089V28.3047ZM98.2045 40.4107C98.9829 41.189 99.9388 41.5782 101.072 41.5782C102.206 41.5782 103.162 41.189 103.94 40.4107C104.718 39.6186 105.108 38.6559 105.108 37.5224C105.108 36.389 104.718 35.4331 103.94 34.6547C103.162 33.8626 102.206 33.4666 101.072 33.4666C99.9388 33.4666 98.9829 33.8626 98.2045 34.6547C97.4261 35.4331 97.0369 36.389 97.0369 37.5224C97.0369 38.6559 97.4261 39.6186 98.2045 40.4107Z" fill="#E5E1FF"/>
<path d="M92.0851 32.4021H93.4371V42.644H92.0851V40.6366C91.1429 42.1387 89.7636 42.8898 87.9474 42.8898C86.4862 42.8898 85.2367 42.3709 84.1988 41.333C83.1746 40.2952 82.6625 39.0252 82.6625 37.523C82.6625 36.0209 83.1746 34.7509 84.1988 33.713C85.2367 32.6752 86.4862 32.1562 87.9474 32.1562C89.7636 32.1562 91.1429 32.9073 92.0851 34.4095V32.4021ZM85.1821 40.4113C85.9604 41.1896 86.9164 41.5788 88.0498 41.5788C89.1832 41.5788 90.1391 41.1896 90.9175 40.4113C91.6959 39.6192 92.0851 38.6565 92.0851 37.523C92.0851 36.3896 91.6959 35.4337 90.9175 34.6553C90.1391 33.8632 89.1832 33.4672 88.0498 33.4672C86.9164 33.4672 85.9604 33.8632 85.1821 34.6553C84.4037 35.4337 84.0145 36.3896 84.0145 37.523C84.0145 38.6565 84.4037 39.6192 85.1821 40.4113Z" fill="#E5E1FF"/>
<path d="M76.8316 32.1562C77.9787 32.1562 78.9005 32.525 79.5969 33.2624C80.307 33.9998 80.6621 34.9967 80.6621 36.253V42.644H79.3102V36.253C79.3102 35.3654 79.078 34.6826 78.6137 34.2046C78.1631 33.713 77.5622 33.4672 76.8111 33.4672C75.9645 33.4672 75.2748 33.754 74.7422 34.3275C74.2233 34.8874 73.9639 35.7682 73.9639 36.97V42.644H72.6119V36.253C72.6119 35.3517 72.3934 34.6621 71.9564 34.1842C71.5331 33.7062 70.9527 33.4672 70.2153 33.4672C69.396 33.4672 68.6995 33.754 68.126 34.3275C67.5524 34.9011 67.2656 35.7819 67.2656 36.97V42.644H65.9137V32.4021H67.2656V33.8974C68.0031 32.7366 69.0477 32.1562 70.3997 32.1562C71.8745 32.1562 72.9124 32.7776 73.5132 34.0203C74.2506 32.7776 75.3568 32.1562 76.8316 32.1562Z" fill="#E5E1FF"/>
<path d="M55.4766 36.9692V35.6582H62.8508V36.9692H55.4766Z" fill="#E5E1FF"/>
<path d="M52.6041 32.4023H54.0379L49.6544 43.5865C49.2584 44.5971 48.6917 45.3891 47.9542 45.9627C47.2305 46.5499 46.4179 46.8093 45.5167 46.7411V45.4711C46.7457 45.6076 47.6811 44.8975 48.3229 43.3407L48.5892 42.7057L44.0009 32.4023H45.4347L49.2857 40.9851L52.6041 32.4023Z" fill="#E5E1FF"/>
<path d="M41.0155 28.3047H42.3674V42.6434H41.0155V40.636C40.0732 42.1381 38.694 42.8892 36.8777 42.8892C35.4166 42.8892 34.167 42.3703 33.1292 41.3324C32.105 40.2946 31.5929 39.0246 31.5929 37.5224C31.5929 36.0203 32.105 34.7503 33.1292 33.7124C34.167 32.6746 35.4166 32.1557 36.8777 32.1557C38.694 32.1557 40.0732 32.9067 41.0155 34.4089V28.3047ZM34.1124 40.4107C34.8908 41.189 35.8467 41.5782 36.9802 41.5782C38.1136 41.5782 39.0695 41.189 39.8479 40.4107C40.6263 39.6186 41.0155 38.6559 41.0155 37.5224C41.0155 36.389 40.6263 35.4331 39.8479 34.6547C39.0695 33.8626 38.1136 33.4666 36.9802 33.4666C35.8467 33.4666 34.8908 33.8626 34.1124 34.6547C33.334 35.4331 32.9448 36.389 32.9448 37.5224C32.9448 38.6559 33.334 39.6186 34.1124 40.4107Z" fill="#E5E1FF"/>
<path d="M27.993 32.4021H29.3449V42.644H27.993V40.6366C27.0508 42.1387 25.6715 42.8898 23.8553 42.8898C22.3941 42.8898 21.1446 42.3709 20.1067 41.333C19.0825 40.2952 18.5704 39.0252 18.5704 37.523C18.5704 36.0209 19.0825 34.7509 20.1067 33.713C21.1446 32.6752 22.3941 32.1562 23.8553 32.1562C25.6715 32.1562 27.0508 32.9073 27.993 34.4095V32.4021ZM21.0899 40.4113C21.8683 41.1896 22.8243 41.5788 23.9577 41.5788C25.0911 41.5788 26.047 41.1896 26.8254 40.4113C27.6038 39.6192 27.993 38.6565 27.993 37.523C27.993 36.3896 27.6038 35.4337 26.8254 34.6553C26.047 33.8632 25.0911 33.4672 23.9577 33.4672C22.8243 33.4672 21.8683 33.8632 21.0899 34.6553C20.3116 35.4337 19.9224 36.3896 19.9224 37.523C19.9224 38.6565 20.3116 39.6192 21.0899 40.4113Z" fill="#E5E1FF"/>
<path d="M11.9544 32.1562C13.4703 32.1562 14.6925 32.6957 15.6211 33.7745C16.5633 34.8396 17.0344 36.1028 17.0344 37.564C17.0344 37.7142 17.0208 37.9259 16.9935 38.199H8.00106C8.13762 39.2368 8.57461 40.063 9.31203 40.6775C10.0631 41.2784 10.9849 41.5788 12.0773 41.5788C12.8557 41.5788 13.5249 41.4218 14.0848 41.1077C14.6583 40.78 15.0885 40.3566 15.3753 39.8377L16.5633 40.5342C16.1127 41.2579 15.4982 41.8315 14.7198 42.2548C13.9414 42.6781 13.0537 42.8898 12.0569 42.8898C10.4455 42.8898 9.1345 42.3845 8.12396 41.374C7.11342 40.3635 6.60815 39.0798 6.60815 37.523C6.60815 35.9936 7.1066 34.7167 8.10348 33.6925C9.10036 32.6683 10.384 32.1562 11.9544 32.1562ZM11.9544 33.4672C10.8893 33.4672 9.99482 33.7881 9.27106 34.43C8.56095 35.0581 8.13762 35.8775 8.00106 36.888H15.6415C15.505 35.8092 15.0885 34.9694 14.392 34.3685C13.6956 33.7676 12.883 33.4672 11.9544 33.4672Z" fill="#E5E1FF"/>
<path d="M2.75343 34.1023C3.3816 32.8596 4.46041 32.2383 5.98988 32.2383V33.5493C5.06127 33.5493 4.28972 33.8224 3.6752 34.3686C3.06068 34.9148 2.75343 35.7752 2.75343 36.9496V42.6441H1.40149V32.4022H2.75343V34.1023Z" fill="#E5E1FF"/>
<path d="M461.884 4.84375C463.032 4.84375 463.953 5.21246 464.65 5.94988C465.36 6.6873 465.715 7.68418 465.715 8.94052V15.3315H464.363V8.94052C464.363 8.05289 464.131 7.37009 463.667 6.89214C463.216 6.40052 462.615 6.15472 461.864 6.15472C461.017 6.15472 460.328 6.44149 459.795 7.01504C459.276 7.57493 459.017 8.45574 459.017 9.65746V15.3315H457.665V8.94052C457.665 8.03923 457.446 7.34961 457.009 6.87165C456.586 6.3937 456.006 6.15472 455.268 6.15472C454.449 6.15472 453.752 6.44149 453.179 7.01504C452.605 7.58859 452.319 8.4694 452.319 9.65746V15.3315H450.967V5.08956H452.319V6.58488C453.056 5.42413 454.101 4.84375 455.453 4.84375C456.927 4.84375 457.965 5.46509 458.566 6.70778C459.303 5.46509 460.41 4.84375 461.884 4.84375Z" fill="#E5E1FF"/>
<path d="M443.736 4.84375C445.252 4.84375 446.474 5.38316 447.403 6.46198C448.345 7.52714 448.816 8.79031 448.816 10.2515C448.816 10.4017 448.802 10.6134 448.775 10.8865H439.783C439.919 11.9243 440.356 12.7505 441.094 13.365C441.845 13.9659 442.767 14.2663 443.859 14.2663C444.637 14.2663 445.307 14.1093 445.867 13.7952C446.44 13.4675 446.87 13.0441 447.157 12.5252L448.345 13.2217C447.894 13.9454 447.28 14.519 446.502 14.9423C445.723 15.3656 444.835 15.5773 443.839 15.5773C442.227 15.5773 440.916 15.072 439.906 14.0615C438.895 13.051 438.39 11.7673 438.39 10.2105C438.39 8.68106 438.888 7.40423 439.885 6.38004C440.882 5.35585 442.166 4.84375 443.736 4.84375ZM443.736 6.15472C442.671 6.15472 441.777 6.47563 441.053 7.11746C440.343 7.74563 439.919 8.56499 439.783 9.57552H447.423C447.287 8.49671 446.87 7.65687 446.174 7.05601C445.477 6.45515 444.665 6.15472 443.736 6.15472Z" fill="#E5E1FF"/>
<path d="M432.376 4.84511C433.618 4.84511 434.595 5.22747 435.305 5.99221C436.028 6.74328 436.39 7.76065 436.39 9.0443V15.3329H435.038V9.0443C435.038 8.12936 434.793 7.41925 434.301 6.91398C433.823 6.40871 433.14 6.15608 432.253 6.15608C431.269 6.15608 430.471 6.47016 429.856 7.09833C429.241 7.71285 428.934 8.66877 428.934 9.96608V15.3329H427.582V0.994141H428.934V6.68866C429.699 5.45962 430.846 4.84511 432.376 4.84511Z" fill="#E5E1FF"/>
<path d="M425.329 6.40137H422.379V12.608C422.379 13.1679 422.489 13.5707 422.707 13.8165C422.926 14.0487 423.253 14.1716 423.69 14.1852C424.127 14.1852 424.674 14.1716 425.329 14.1443V15.3323C423.895 15.5508 422.816 15.4484 422.093 15.0251C421.382 14.6017 421.027 13.796 421.027 12.608V6.40137H418.877V5.0904H421.027V2.63233L422.379 2.22266V5.0904H425.329V6.40137Z" fill="#E5E1FF"/>
<path d="M410.565 5.08956H411.917V14.9218C411.917 16.3967 411.412 17.5574 410.402 18.4041C409.391 19.2507 408.182 19.6741 406.776 19.6741C404.372 19.6741 402.754 18.8411 401.921 17.175L403.109 16.4991C403.724 17.7418 404.946 18.3631 406.776 18.3631C407.95 18.3631 408.872 18.049 409.541 17.4208C410.224 16.8063 410.565 15.9733 410.565 14.9218V13.3241C409.623 14.8262 408.244 15.5773 406.428 15.5773C404.966 15.5773 403.717 15.0584 402.679 14.0205C401.655 12.9827 401.143 11.7127 401.143 10.2105C401.143 8.70837 401.655 7.43837 402.679 6.40052C403.717 5.36267 404.966 4.84375 406.428 4.84375C408.244 4.84375 409.623 5.59483 410.565 7.09698V5.08956ZM403.662 13.0988C404.441 13.8771 405.397 14.2663 406.53 14.2663C407.664 14.2663 408.619 13.8771 409.398 13.0988C410.176 12.3067 410.565 11.344 410.565 10.2105C410.565 9.07708 410.176 8.12117 409.398 7.34278C408.619 6.55074 407.664 6.15472 406.53 6.15472C405.397 6.15472 404.441 6.55074 403.662 7.34278C402.884 8.12117 402.495 9.07708 402.495 10.2105C402.495 11.344 402.884 12.3067 403.662 13.0988Z" fill="#E5E1FF"/>
<path d="M395.128 4.84375C396.371 4.84375 397.348 5.22612 398.058 5.99085C398.781 6.74192 399.143 7.75929 399.143 9.04294V15.3315H397.791V9.04294C397.791 8.128 397.546 7.41789 397.054 6.91262C396.576 6.40735 395.893 6.15472 395.006 6.15472C394.022 6.15472 393.223 6.4688 392.609 7.09698C391.994 7.71149 391.687 8.66741 391.687 9.96472V15.3315H390.335V5.08956H391.687V6.6873C392.452 5.45827 393.599 4.84375 395.128 4.84375Z" fill="#E5E1FF"/>
<path d="M387.487 2.6328C387.295 2.82399 387.063 2.91958 386.79 2.91958C386.517 2.91958 386.285 2.82399 386.094 2.6328C385.903 2.44162 385.807 2.20947 385.807 1.93635C385.807 1.66323 385.903 1.43108 386.094 1.2399C386.285 1.04872 386.517 0.953125 386.79 0.953125C387.063 0.953125 387.295 1.04872 387.487 1.2399C387.678 1.43108 387.773 1.66323 387.773 1.93635C387.773 2.20947 387.678 2.44162 387.487 2.6328ZM386.114 15.3328V5.09087H387.466V15.3328H386.114Z" fill="#E5E1FF"/>
<path d="M381.025 6.78981C381.653 5.54713 382.732 4.92578 384.262 4.92578V6.23675C383.333 6.23675 382.561 6.50987 381.947 7.0561C381.332 7.60234 381.025 8.46266 381.025 9.63707V15.3316H379.673V5.08965H381.025V6.78981Z" fill="#E5E1FF"/>
<path d="M372.443 4.84375C373.959 4.84375 375.181 5.38316 376.109 6.46198C377.052 7.52714 377.523 8.79031 377.523 10.2515C377.523 10.4017 377.509 10.6134 377.482 10.8865H368.489C368.626 11.9243 369.063 12.7505 369.8 13.365C370.551 13.9659 371.473 14.2663 372.566 14.2663C373.344 14.2663 374.013 14.1093 374.573 13.7952C375.147 13.4675 375.577 13.0441 375.864 12.5252L377.052 13.2217C376.601 13.9454 375.986 14.519 375.208 14.9423C374.43 15.3656 373.542 15.5773 372.545 15.5773C370.934 15.5773 369.623 15.072 368.612 14.0615C367.602 13.051 367.096 11.7673 367.096 10.2105C367.096 8.68106 367.595 7.40423 368.592 6.38004C369.589 5.35585 370.872 4.84375 372.443 4.84375ZM372.443 6.15472C371.378 6.15472 370.483 6.47563 369.759 7.11746C369.049 7.74563 368.626 8.56499 368.489 9.57552H376.13C375.993 8.49671 375.577 7.65687 374.88 7.05601C374.184 6.45515 373.371 6.15472 372.443 6.15472Z" fill="#E5E1FF"/>
<path d="M366.9 1.85366C365.903 1.77173 365.159 1.94243 364.668 2.36576C364.19 2.78909 363.951 3.49237 363.951 4.4756V5.09012H366.9V6.40108H363.951V15.3321H362.599V6.40108H358.42V15.3321H357.068V6.40108H355.327V5.09012H357.068V4.68044C357.068 3.34216 357.437 2.33162 358.174 1.64883C358.925 0.952374 359.99 0.651944 361.37 0.747535V2.0585C360.373 1.97657 359.629 2.14727 359.137 2.5706C358.659 2.99393 358.42 3.69721 358.42 4.68044V5.09012H362.599V4.4756C362.599 3.13732 362.967 2.12678 363.705 1.44399C364.456 0.747535 365.521 0.447105 366.9 0.542696V1.85366Z" fill="#E5E1FF"/>
<path d="M351.851 13.4256C350.417 14.8595 348.662 15.5764 346.586 15.5764C344.511 15.5764 342.756 14.8595 341.322 13.4256C339.888 11.9781 339.171 10.2233 339.171 8.16126C339.171 6.09921 339.888 4.35125 341.322 2.91738C342.756 1.46986 344.511 0.746094 346.586 0.746094C348.662 0.746094 350.417 1.46986 351.851 2.91738C353.285 4.35125 354.001 6.09921 354.001 8.16126C354.001 10.2233 353.285 11.9781 351.851 13.4256ZM342.326 12.4424C343.473 13.6031 344.893 14.1835 346.586 14.1835C348.28 14.1835 349.7 13.6031 350.847 12.4424C351.994 11.268 352.568 9.84093 352.568 8.16126C352.568 6.48158 351.994 5.06136 350.847 3.90061C349.7 2.7262 348.28 2.139 346.586 2.139C344.893 2.139 343.473 2.7262 342.326 3.90061C341.179 5.06136 340.605 6.48158 340.605 8.16126C340.605 9.84093 341.179 11.268 342.326 12.4424Z" fill="#E5E1FF"/>
<path d="M331.664 15.2087C331.446 15.4272 331.179 15.5364 330.865 15.5364C330.551 15.5364 330.285 15.4272 330.067 15.2087C329.848 14.9902 329.739 14.7239 329.739 14.4098C329.739 14.0957 329.848 13.8294 330.067 13.6109C330.285 13.3925 330.551 13.2832 330.865 13.2832C331.179 13.2832 331.446 13.3925 331.664 13.6109C331.883 13.8294 331.992 14.0957 331.992 14.4098C331.992 14.7239 331.883 14.9902 331.664 15.2087Z" fill="#E5E1FF"/>
<path d="M323.534 4.84375C325.049 4.84375 326.272 5.38316 327.2 6.46198C328.142 7.52714 328.614 8.79031 328.614 10.2515C328.614 10.4017 328.6 10.6134 328.573 10.8865H319.58C319.717 11.9243 320.154 12.7505 320.891 13.365C321.642 13.9659 322.564 14.2663 323.656 14.2663C324.435 14.2663 325.104 14.1093 325.664 13.7952C326.237 13.4675 326.668 13.0441 326.954 12.5252L328.142 13.2217C327.692 13.9454 327.077 14.519 326.299 14.9423C325.52 15.3656 324.633 15.5773 323.636 15.5773C322.025 15.5773 320.714 15.072 319.703 14.0615C318.693 13.051 318.187 11.7673 318.187 10.2105C318.187 8.68106 318.686 7.40423 319.683 6.38004C320.679 5.35585 321.963 4.84375 323.534 4.84375ZM323.534 6.15472C322.468 6.15472 321.574 6.47563 320.85 7.11746C320.14 7.74563 319.717 8.56499 319.58 9.57552H327.221C327.084 8.49671 326.668 7.65687 325.971 7.05601C325.275 6.45515 324.462 6.15472 323.534 6.15472Z" fill="#E5E1FF"/>
<path d="M312.372 15.5773C310.829 15.5773 309.546 15.0652 308.521 14.041C307.497 13.0032 306.985 11.7263 306.985 10.2105C306.985 8.69472 307.497 7.42472 308.521 6.40052C309.546 5.36267 310.829 4.84375 312.372 4.84375C313.383 4.84375 314.291 5.08956 315.097 5.58117C315.902 6.05913 316.49 6.70778 316.858 7.52714L315.752 8.16214C315.479 7.54762 315.035 7.06284 314.421 6.70778C313.82 6.33907 313.137 6.15472 312.372 6.15472C311.239 6.15472 310.283 6.55074 309.505 7.34278C308.726 8.12117 308.337 9.07708 308.337 10.2105C308.337 11.344 308.726 12.3067 309.505 13.0988C310.283 13.8771 311.239 14.2663 312.372 14.2663C313.137 14.2663 313.82 14.0888 314.421 13.7338C315.022 13.365 315.493 12.8734 315.834 12.2589L316.961 12.9144C316.537 13.7338 315.916 14.3824 315.097 14.8604C314.277 15.3383 313.369 15.5773 312.372 15.5773Z" fill="#E5E1FF"/>
<path d="M300.971 4.84375C302.213 4.84375 303.19 5.22612 303.9 5.99085C304.624 6.74192 304.985 7.75929 304.985 9.04294V15.3315H303.633V9.04294C303.633 8.128 303.388 7.41789 302.896 6.91262C302.418 6.40735 301.735 6.15472 300.848 6.15472C299.864 6.15472 299.066 6.4688 298.451 7.09698C297.837 7.71149 297.529 8.66741 297.529 9.96472V15.3315H296.177V5.08956H297.529V6.6873C298.294 5.45827 299.441 4.84375 300.971 4.84375Z" fill="#E5E1FF"/>
<path d="M288.947 4.84375C290.463 4.84375 291.685 5.38316 292.613 6.46198C293.556 7.52714 294.027 8.79031 294.027 10.2515C294.027 10.4017 294.013 10.6134 293.986 10.8865H284.993C285.13 11.9243 285.567 12.7505 286.304 13.365C287.055 13.9659 287.977 14.2663 289.07 14.2663C289.848 14.2663 290.517 14.1093 291.077 13.7952C291.651 13.4675 292.081 13.0441 292.368 12.5252L293.556 13.2217C293.105 13.9454 292.49 14.519 291.712 14.9423C290.934 15.3656 290.046 15.5773 289.049 15.5773C287.438 15.5773 286.127 15.072 285.116 14.0615C284.106 13.051 283.6 11.7673 283.6 10.2105C283.6 8.68106 284.099 7.40423 285.096 6.38004C286.093 5.35585 287.376 4.84375 288.947 4.84375ZM288.947 6.15472C287.882 6.15472 286.987 6.47563 286.263 7.11746C285.553 7.74563 285.13 8.56499 284.993 9.57552H292.634C292.497 8.49671 292.081 7.65687 291.384 7.05601C290.688 6.45515 289.875 6.15472 288.947 6.15472Z" fill="#E5E1FF"/>
<path d="M276.278 7.77294C276.278 8.23725 276.483 8.60595 276.893 8.87907C277.303 9.15219 277.801 9.36386 278.388 9.51407C278.975 9.66429 279.563 9.83499 280.15 10.0262C280.737 10.2037 281.236 10.511 281.645 10.9479C282.055 11.3713 282.26 11.9312 282.26 12.6276C282.26 13.5016 281.911 14.2117 281.215 14.7579C280.532 15.3042 279.645 15.5773 278.552 15.5773C277.569 15.5773 276.729 15.3588 276.033 14.9218C275.35 14.4848 274.872 13.9181 274.599 13.2217L275.746 12.5457C275.937 13.0783 276.278 13.5016 276.77 13.8157C277.275 14.1161 277.869 14.2663 278.552 14.2663C279.221 14.2663 279.781 14.1366 280.232 13.8771C280.682 13.604 280.908 13.1875 280.908 12.6276C280.908 12.1633 280.703 11.7946 280.293 11.5215C279.884 11.2484 279.385 11.0367 278.798 10.8865C278.211 10.7363 277.624 10.5724 277.036 10.3949C276.449 10.2037 275.951 9.89644 275.541 9.47311C275.131 9.03612 274.926 8.4694 274.926 7.77294C274.926 6.93993 275.254 6.24348 275.91 5.68359C276.579 5.1237 277.419 4.84375 278.429 4.84375C279.262 4.84375 279.993 5.03493 280.621 5.4173C281.249 5.78601 281.713 6.29128 282.014 6.9331L280.887 7.58859C280.491 6.63268 279.672 6.15472 278.429 6.15472C277.842 6.15472 277.337 6.29811 276.913 6.58488C276.49 6.858 276.278 7.25402 276.278 7.77294Z" fill="#E5E1FF"/>
<path d="M268.383 4.84375C269.899 4.84375 271.121 5.38316 272.05 6.46198C272.992 7.52714 273.463 8.79031 273.463 10.2515C273.463 10.4017 273.449 10.6134 273.422 10.8865H264.43C264.566 11.9243 265.003 12.7505 265.74 13.365C266.492 13.9659 267.413 14.2663 268.506 14.2663C269.284 14.2663 269.953 14.1093 270.513 13.7952C271.087 13.4675 271.517 13.0441 271.804 12.5252L272.992 13.2217C272.541 13.9454 271.927 14.519 271.148 14.9423C270.37 15.3656 269.482 15.5773 268.485 15.5773C266.874 15.5773 265.563 15.072 264.552 14.0615C263.542 13.051 263.037 11.7673 263.037 10.2105C263.037 8.68106 263.535 7.40423 264.532 6.38004C265.529 5.35585 266.812 4.84375 268.383 4.84375ZM268.383 6.15472C267.318 6.15472 266.423 6.47563 265.7 7.11746C264.989 7.74563 264.566 8.56499 264.43 9.57552H272.07C271.933 8.49671 271.517 7.65687 270.82 7.05601C270.124 6.45515 269.312 6.15472 268.383 6.15472Z" fill="#E5E1FF"/>
<path d="M259.182 6.78981C259.81 5.54713 260.889 4.92578 262.418 4.92578V6.23675C261.49 6.23675 260.718 6.50987 260.104 7.0561C259.489 7.60234 259.182 8.46266 259.182 9.63707V15.3316H257.83V5.08965H259.182V6.78981Z" fill="#E5E1FF"/>
<path d="M250.297 4.84375C251.758 4.84375 253.001 5.36267 254.025 6.40052C255.063 7.43837 255.582 8.70837 255.582 10.2105C255.582 11.7127 255.063 12.9827 254.025 14.0205C253.001 15.0584 251.758 15.5773 250.297 15.5773C248.481 15.5773 247.102 14.8262 246.159 13.3241V19.4283H244.807V5.08956H246.159V7.09698C247.102 5.59483 248.481 4.84375 250.297 4.84375ZM247.327 13.0988C248.105 13.8771 249.061 14.2663 250.195 14.2663C251.328 14.2663 252.284 13.8771 253.062 13.0988C253.841 12.3067 254.23 11.344 254.23 10.2105C254.23 9.07708 253.841 8.12117 253.062 7.34278C252.284 6.55074 251.328 6.15472 250.195 6.15472C249.061 6.15472 248.105 6.55074 247.327 7.34278C246.549 8.12117 246.159 9.07708 246.159 10.2105C246.159 11.344 246.549 12.3067 247.327 13.0988Z" fill="#E5E1FF"/>
<path d="M235.847 14.041C234.809 15.0652 233.539 15.5773 232.037 15.5773C230.535 15.5773 229.258 15.0652 228.207 14.041C227.169 13.0032 226.65 11.7263 226.65 10.2105C226.65 8.69472 227.169 7.42472 228.207 6.40052C229.258 5.36267 230.535 4.84375 232.037 4.84375C233.539 4.84375 234.809 5.36267 235.847 6.40052C236.899 7.42472 237.424 8.69472 237.424 10.2105C237.424 11.7263 236.899 13.0032 235.847 14.041ZM229.169 13.0988C229.948 13.8771 230.904 14.2663 232.037 14.2663C233.17 14.2663 234.126 13.8771 234.905 13.0988C235.683 12.3067 236.072 11.344 236.072 10.2105C236.072 9.07708 235.683 8.12117 234.905 7.34278C234.126 6.55074 233.17 6.15472 232.037 6.15472C230.904 6.15472 229.948 6.55074 229.169 7.34278C228.391 8.12117 228.002 9.07708 228.002 10.2105C228.002 11.344 228.391 12.3067 229.169 13.0988Z" fill="#E5E1FF"/>
<path d="M220.034 4.84375C221.55 4.84375 222.772 5.38316 223.7 6.46198C224.643 7.52714 225.114 8.79031 225.114 10.2515C225.114 10.4017 225.1 10.6134 225.073 10.8865H216.08C216.217 11.9243 216.654 12.7505 217.391 13.365C218.142 13.9659 219.064 14.2663 220.157 14.2663C220.935 14.2663 221.604 14.1093 222.164 13.7952C222.738 13.4675 223.168 13.0441 223.455 12.5252L224.643 13.2217C224.192 13.9454 223.577 14.519 222.799 14.9423C222.021 15.3656 221.133 15.5773 220.136 15.5773C218.525 15.5773 217.214 15.072 216.203 14.0615C215.193 13.051 214.688 11.7673 214.688 10.2105C214.688 8.68106 215.186 7.40423 216.183 6.38004C217.18 5.35585 218.463 4.84375 220.034 4.84375ZM220.034 6.15472C218.969 6.15472 218.074 6.47563 217.35 7.11746C216.64 7.74563 216.217 8.56499 216.08 9.57552H223.721C223.584 8.49671 223.168 7.65687 222.471 7.05601C221.775 6.45515 220.962 6.15472 220.034 6.15472Z" fill="#E5E1FF"/>
<path d="M211.088 0.994141H212.44V15.3329H211.088V13.3254C210.145 14.8276 208.766 15.5787 206.95 15.5787C205.489 15.5787 204.239 15.0597 203.201 14.0219C202.177 12.984 201.665 11.714 201.665 10.2119C201.665 8.70973 202.177 7.43973 203.201 6.40188C204.239 5.36403 205.489 4.84511 206.95 4.84511C208.766 4.84511 210.145 5.59618 211.088 7.09833V0.994141ZM204.185 13.1001C204.963 13.8785 205.919 14.2677 207.052 14.2677C208.186 14.2677 209.142 13.8785 209.92 13.1001C210.698 12.3081 211.088 11.3453 211.088 10.2119C211.088 9.07844 210.698 8.12253 209.92 7.34414C209.142 6.5521 208.186 6.15608 207.052 6.15608C205.919 6.15608 204.963 6.5521 204.185 7.34414C203.406 8.12253 203.017 9.07844 203.017 10.2119C203.017 11.3453 203.406 12.3081 204.185 13.1001Z" fill="#E5E1FF"/>
<path d="M199.431 2.6328C199.24 2.82399 199.008 2.91958 198.735 2.91958C198.462 2.91958 198.229 2.82399 198.038 2.6328C197.847 2.44162 197.751 2.20947 197.751 1.93635C197.751 1.66323 197.847 1.43108 198.038 1.2399C198.229 1.04872 198.462 0.953125 198.735 0.953125C199.008 0.953125 199.24 1.04872 199.431 1.2399C199.622 1.43108 199.718 1.66323 199.718 1.93635C199.718 2.20947 199.622 2.44162 199.431 2.6328ZM198.059 15.3328V5.09087H199.411V15.3328H198.059Z" fill="#E5E1FF"/>
<path d="M194.991 5.08984H196.425L192.225 15.3318H190.587L186.388 5.08984H187.821L191.406 13.9184L194.991 5.08984Z" fill="#E5E1FF"/>
<path d="M178.281 5.08956H179.633V14.9218C179.633 16.3967 179.128 17.5574 178.118 18.4041C177.107 19.2507 175.898 19.6741 174.492 19.6741C172.088 19.6741 170.47 18.8411 169.637 17.175L170.825 16.4991C171.44 17.7418 172.662 18.3631 174.492 18.3631C175.666 18.3631 176.588 18.049 177.257 17.4208C177.94 16.8063 178.281 15.9733 178.281 14.9218V13.3241C177.339 14.8262 175.96 15.5773 174.144 15.5773C172.682 15.5773 171.433 15.0584 170.395 14.0205C169.371 12.9827 168.859 11.7127 168.859 10.2105C168.859 8.70837 169.371 7.43837 170.395 6.40052C171.433 5.36267 172.682 4.84375 174.144 4.84375C175.96 4.84375 177.339 5.59483 178.281 7.09698V5.08956ZM171.378 13.0988C172.157 13.8771 173.113 14.2663 174.246 14.2663C175.38 14.2663 176.335 13.8771 177.114 13.0988C177.892 12.3067 178.281 11.344 178.281 10.2105C178.281 9.07708 177.892 8.12117 177.114 7.34278C176.335 6.55074 175.38 6.15472 174.246 6.15472C173.113 6.15472 172.157 6.55074 171.378 7.34278C170.6 8.12117 170.211 9.07708 170.211 10.2105C170.211 11.344 170.6 12.3067 171.378 13.0988Z" fill="#E5E1FF"/>
<path d="M162.844 4.84375C164.087 4.84375 165.063 5.22612 165.774 5.99085C166.497 6.74192 166.859 7.75929 166.859 9.04294V15.3315H165.507V9.04294C165.507 8.128 165.261 7.41789 164.77 6.91262C164.292 6.40735 163.609 6.15472 162.721 6.15472C161.738 6.15472 160.939 6.4688 160.325 7.09698C159.71 7.71149 159.403 8.66741 159.403 9.96472V15.3315H158.051V5.08956H159.403V6.6873C160.168 5.45827 161.315 4.84375 162.844 4.84375Z" fill="#E5E1FF"/>
<path d="M154.212 14.041C153.174 15.0652 151.904 15.5773 150.402 15.5773C148.899 15.5773 147.623 15.0652 146.571 14.041C145.533 13.0032 145.014 11.7263 145.014 10.2105C145.014 8.69472 145.533 7.42472 146.571 6.40052C147.623 5.36267 148.899 4.84375 150.402 4.84375C151.904 4.84375 153.174 5.36267 154.212 6.40052C155.263 7.42472 155.789 8.69472 155.789 10.2105C155.789 11.7263 155.263 13.0032 154.212 14.041ZM147.534 13.0988C148.312 13.8771 149.268 14.2663 150.402 14.2663C151.535 14.2663 152.491 13.8771 153.269 13.0988C154.048 12.3067 154.437 11.344 154.437 10.2105C154.437 9.07708 154.048 8.12117 153.269 7.34278C152.491 6.55074 151.535 6.15472 150.402 6.15472C149.268 6.15472 148.312 6.55074 147.534 7.34278C146.755 8.12117 146.366 9.07708 146.366 10.2105C146.366 11.344 146.755 12.3067 147.534 13.0988Z" fill="#E5E1FF"/>
<path d="M141.16 6.78981C141.788 5.54713 142.867 4.92578 144.396 4.92578V6.23675C143.467 6.23675 142.696 6.50987 142.081 7.0561C141.467 7.60234 141.16 8.46266 141.16 9.63707V15.3316H139.808V5.08965H141.16V6.78981Z" fill="#E5E1FF"/>
<path d="M137.554 6.40137H134.605V12.608C134.605 13.1679 134.714 13.5707 134.932 13.8165C135.151 14.0487 135.479 14.1716 135.916 14.1852C136.353 14.1852 136.899 14.1716 137.554 14.1443V15.3323C136.121 15.5508 135.042 15.4484 134.318 15.0251C133.608 14.6017 133.253 13.796 133.253 12.608V6.40137H131.102V5.0904H133.253V2.63233L134.605 2.22266V5.0904H137.554V6.40137Z" fill="#E5E1FF"/>
<path d="M124.29 7.77294C124.29 8.23725 124.495 8.60595 124.904 8.87907C125.314 9.15219 125.812 9.36386 126.4 9.51407C126.987 9.66429 127.574 9.83499 128.161 10.0262C128.748 10.2037 129.247 10.511 129.657 10.9479C130.066 11.3713 130.271 11.9312 130.271 12.6276C130.271 13.5016 129.923 14.2117 129.226 14.7579C128.544 15.3042 127.656 15.5773 126.563 15.5773C125.58 15.5773 124.74 15.3588 124.044 14.9218C123.361 14.4848 122.883 13.9181 122.61 13.2217L123.757 12.5457C123.948 13.0783 124.29 13.5016 124.781 13.8157C125.287 14.1161 125.881 14.2663 126.563 14.2663C127.233 14.2663 127.792 14.1366 128.243 13.8771C128.694 13.604 128.919 13.1875 128.919 12.6276C128.919 12.1633 128.714 11.7946 128.305 11.5215C127.895 11.2484 127.396 11.0367 126.809 10.8865C126.222 10.7363 125.635 10.5724 125.048 10.3949C124.46 10.2037 123.962 9.89644 123.552 9.47311C123.143 9.03612 122.938 8.4694 122.938 7.77294C122.938 6.93993 123.266 6.24348 123.921 5.68359C124.59 5.1237 125.43 4.84375 126.441 4.84375C127.274 4.84375 128.004 5.03493 128.632 5.4173C129.26 5.78601 129.725 6.29128 130.025 6.9331L128.899 7.58859C128.503 6.63268 127.683 6.15472 126.441 6.15472C125.853 6.15472 125.348 6.29811 124.925 6.58488C124.501 6.858 124.29 7.25402 124.29 7.77294Z" fill="#E5E1FF"/>
<path d="M113.889 5.08956H115.241V15.3315H113.889V13.3241C112.947 14.8262 111.568 15.5773 109.751 15.5773C108.29 15.5773 107.041 15.0584 106.003 14.0205C104.979 12.9827 104.467 11.7127 104.467 10.2105C104.467 8.70837 104.979 7.43837 106.003 6.40052C107.041 5.36267 108.29 4.84375 109.751 4.84375C111.568 4.84375 112.947 5.59483 113.889 7.09698V5.08956ZM106.986 13.0988C107.765 13.8771 108.72 14.2663 109.854 14.2663C110.987 14.2663 111.943 13.8771 112.722 13.0988C113.5 12.3067 113.889 11.344 113.889 10.2105C113.889 9.07708 113.5 8.12117 112.722 7.34278C111.943 6.55074 110.987 6.15472 109.854 6.15472C108.72 6.15472 107.765 6.55074 106.986 7.34278C106.208 8.12117 105.819 9.07708 105.819 10.2105C105.819 11.344 106.208 12.3067 106.986 13.0988Z" fill="#E5E1FF"/>
<path d="M98.1137 15.3329H96.3111L91.1901 10.3962V15.3329H89.8382V0.994141H91.1901V9.61785L96.0653 5.09092H97.9088L92.624 10.007L98.1137 15.3329Z" fill="#E5E1FF"/>
<path d="M83.3089 15.5773C81.7658 15.5773 80.4821 15.0652 79.4579 14.041C78.4337 13.0032 77.9216 11.7263 77.9216 10.2105C77.9216 8.69472 78.4337 7.42472 79.4579 6.40052C80.4821 5.36267 81.7658 4.84375 83.3089 4.84375C84.3194 4.84375 85.2275 5.08956 86.0332 5.58117C86.8389 6.05913 87.4262 6.70778 87.7949 7.52714L86.6887 8.16214C86.4156 7.54762 85.9718 7.06284 85.3573 6.70778C84.7564 6.33907 84.0736 6.15472 83.3089 6.15472C82.1754 6.15472 81.2195 6.55074 80.4411 7.34278C79.6628 8.12117 79.2736 9.07708 79.2736 10.2105C79.2736 11.344 79.6628 12.3067 80.4411 13.0988C81.2195 13.8771 82.1754 14.2663 83.3089 14.2663C84.0736 14.2663 84.7564 14.0888 85.3573 13.7338C85.9581 13.365 86.4293 12.8734 86.7707 12.2589L87.8973 12.9144C87.4739 13.7338 86.8526 14.3824 86.0332 14.8604C85.2139 15.3383 84.3058 15.5773 83.3089 15.5773Z" fill="#E5E1FF"/>
<path d="M74.3218 5.08956H75.6737V15.3315H74.3218V13.3241C73.3795 14.8262 72.0002 15.5773 70.184 15.5773C68.7228 15.5773 67.4733 15.0584 66.4355 14.0205C65.4113 12.9827 64.8992 11.7127 64.8992 10.2105C64.8992 8.70837 65.4113 7.43837 66.4355 6.40052C67.4733 5.36267 68.7228 4.84375 70.184 4.84375C72.0002 4.84375 73.3795 5.59483 74.3218 7.09698V5.08956ZM67.4187 13.0988C68.1971 13.8771 69.153 14.2663 70.2864 14.2663C71.4199 14.2663 72.3758 13.8771 73.1542 13.0988C73.9326 12.3067 74.3218 11.344 74.3218 10.2105C74.3218 9.07708 73.9326 8.12117 73.1542 7.34278C72.3758 6.55074 71.4199 6.15472 70.2864 6.15472C69.153 6.15472 68.1971 6.55074 67.4187 7.34278C66.6403 8.12117 66.2511 9.07708 66.2511 10.2105C66.2511 11.344 66.6403 12.3067 67.4187 13.0988Z" fill="#E5E1FF"/>
<path d="M61.2928 15.3321V0.378906H62.6448V15.3321H61.2928Z" fill="#E5E1FF"/>
<path d="M53.9186 6.40137H50.9689V12.608C50.9689 13.1679 51.0782 13.5707 51.2967 13.8165C51.5152 14.0487 51.8429 14.1716 52.2799 14.1852C52.7169 14.1852 53.2631 14.1716 53.9186 14.1443V15.3323C52.4847 15.5508 51.4059 15.4484 50.6822 15.0251C49.972 14.6017 49.617 13.796 49.617 12.608V6.40137H47.4662V5.0904H49.617V2.63233L50.9689 2.22266V5.0904H53.9186V6.40137Z" fill="#E5E1FF"/>
<path d="M41.8615 4.84375C43.1042 4.84375 44.0806 5.22612 44.7907 5.99085C45.5144 6.74192 45.8763 7.75929 45.8763 9.04294V15.3315H44.5244V9.04294C44.5244 8.128 44.2786 7.41789 43.7869 6.91262C43.309 6.40735 42.6262 6.15472 41.7386 6.15472C40.7553 6.15472 39.9565 6.4688 39.3419 7.09698C38.7274 7.71149 38.4202 8.66741 38.4202 9.96472V15.3315H37.0682V5.08956H38.4202V6.6873C39.1849 5.45827 40.332 4.84375 41.8615 4.84375Z" fill="#E5E1FF"/>
<path d="M29.8378 4.84375C31.3536 4.84375 32.5758 5.38316 33.5044 6.46198C34.4467 7.52714 34.9178 8.79031 34.9178 10.2515C34.9178 10.4017 34.9042 10.6134 34.8768 10.8865H25.8844C26.021 11.9243 26.458 12.7505 27.1954 13.365C27.9465 13.9659 28.8682 14.2663 29.9607 14.2663C30.7391 14.2663 31.4082 14.1093 31.9681 13.7952C32.5417 13.4675 32.9718 13.0441 33.2586 12.5252L34.4467 13.2217C33.996 13.9454 33.3815 14.519 32.6031 14.9423C31.8247 15.3656 30.9371 15.5773 29.9402 15.5773C28.3288 15.5773 27.0179 15.072 26.0073 14.0615C24.9968 13.051 24.4915 11.7673 24.4915 10.2105C24.4915 8.68106 24.99 7.40423 25.9868 6.38004C26.9837 5.35585 28.2674 4.84375 29.8378 4.84375ZM29.8378 6.15472C28.7726 6.15472 27.8782 6.47563 27.1544 7.11746C26.4443 7.74563 26.021 8.56499 25.8844 9.57552H33.5249C33.3883 8.49671 32.9718 7.65687 32.2754 7.05601C31.5789 6.45515 30.7664 6.15472 29.8378 6.15472Z" fill="#E5E1FF"/>
<path d="M22.2576 2.6328C22.0664 2.82399 21.8343 2.91958 21.5612 2.91958C21.288 2.91958 21.0559 2.82399 20.8647 2.6328C20.6735 2.44162 20.5779 2.20947 20.5779 1.93635C20.5779 1.66323 20.6735 1.43108 20.8647 1.2399C21.0559 1.04872 21.288 0.953125 21.5612 0.953125C21.8343 0.953125 22.0664 1.04872 22.2576 1.2399C22.4488 1.43108 22.5444 1.66323 22.5444 1.93635C22.5444 2.20947 22.4488 2.44162 22.2576 2.6328ZM20.8852 15.3328V5.09087H22.2371V15.3328H20.8852Z" fill="#E5E1FF"/>
<path d="M16.6644 15.3321V0.378906H18.0163V15.3321H16.6644Z" fill="#E5E1FF"/>
<path d="M8.30463 15.5764C6.13334 15.5764 4.33759 14.8595 2.91737 13.4256C1.49716 11.9917 0.787048 10.237 0.787048 8.16126C0.787048 6.08556 1.49716 4.33077 2.91737 2.8969C4.33759 1.46303 6.13334 0.746094 8.30463 0.746094C9.62925 0.746094 10.8446 1.06701 11.9508 1.70884C13.0569 2.33701 13.9104 3.1905 14.5112 4.26932L13.2412 5.00674C12.7906 4.13276 12.1215 3.43631 11.2338 2.91738C10.3462 2.39846 9.36979 2.139 8.30463 2.139C6.5157 2.139 5.05452 2.71937 3.92108 3.88013C2.78764 5.04088 2.22092 6.46792 2.22092 8.16126C2.22092 9.85459 2.78764 11.2816 3.92108 12.4424C5.05452 13.6031 6.5157 14.1835 8.30463 14.1835C9.36979 14.1835 10.3462 13.9241 11.2338 13.4051C12.1215 12.8862 12.7906 12.1897 13.2412 11.3158L14.5112 12.0327C13.924 13.1115 13.0705 13.9718 11.9508 14.6137C10.8446 15.2555 9.62925 15.5764 8.30463 15.5764Z" fill="#E5E1FF"/>
</svg>
