<svg width="262" height="18" viewBox="0 0 262 18" fill="none" xmlns="http://www.w3.org/2000/svg">
<path d="M260.808 7.64511C260.56 7.89273 260.258 8.01655 259.902 8.01655C259.546 8.01655 259.244 7.89273 258.997 7.64511C258.749 7.39748 258.625 7.09568 258.625 6.73972C258.625 6.38376 258.749 6.08196 258.997 5.83433C259.244 5.5867 259.546 5.46289 259.902 5.46289C260.258 5.46289 260.56 5.5867 260.808 5.83433C261.055 6.08196 261.179 6.38376 261.179 6.73972C261.179 7.09568 261.055 7.39748 260.808 7.64511ZM260.808 17.1633C260.56 17.4109 260.258 17.5347 259.902 17.5347C259.546 17.5347 259.244 17.4109 258.997 17.1633C258.749 16.9157 258.625 16.6139 258.625 16.2579C258.625 15.9019 258.749 15.6001 258.997 15.3525C259.244 15.1049 259.546 14.9811 259.902 14.9811C260.258 14.9811 260.56 15.1049 260.808 15.3525C261.055 15.6001 261.179 15.9019 261.179 16.2579C261.179 16.6139 261.055 16.9157 260.808 17.1633Z" fill="#FF5811"/>
<path d="M250.663 5.41797C252.381 5.41797 253.766 6.0293 254.818 7.25196C255.886 8.45914 256.42 9.89074 256.42 11.5467C256.42 11.717 256.405 11.9569 256.374 12.2664H246.182C246.337 13.4426 246.832 14.379 247.668 15.0754C248.519 15.7564 249.564 16.0969 250.802 16.0969C251.684 16.0969 252.443 15.9189 253.077 15.5629C253.727 15.1915 254.215 14.7117 254.54 14.1236L255.886 14.9129C255.375 15.7332 254.679 16.3832 253.797 16.863C252.915 17.3428 251.909 17.5827 250.779 17.5827C248.953 17.5827 247.467 17.01 246.322 15.8647C245.176 14.7195 244.604 13.2647 244.604 11.5003C244.604 9.76692 245.169 8.31985 246.298 7.1591C247.428 5.99835 248.883 5.41797 250.663 5.41797ZM250.663 6.90373C249.456 6.90373 248.442 7.26743 247.622 7.99484C246.817 8.70677 246.337 9.63537 246.182 10.7806H254.841C254.687 9.55799 254.215 8.60617 253.425 7.9252C252.636 7.24422 251.715 6.90373 250.663 6.90373Z" fill="#FF5811"/>
<path d="M238.014 17.5827C236.265 17.5827 234.81 17.0023 233.649 15.8415C232.488 14.6653 231.908 13.2182 231.908 11.5003C231.908 9.7824 232.488 8.34307 233.649 7.18231C234.81 6.00608 236.265 5.41797 238.014 5.41797C239.159 5.41797 240.188 5.69655 241.101 6.25371C242.014 6.7954 242.68 7.53054 243.098 8.45914L241.844 9.17881C241.534 8.48236 241.031 7.93293 240.335 7.53054C239.654 7.11267 238.88 6.90373 238.014 6.90373C236.729 6.90373 235.646 7.35256 234.763 8.25021C233.881 9.13238 233.44 10.2157 233.44 11.5003C233.44 12.7849 233.881 13.876 234.763 14.7736C235.646 15.6558 236.729 16.0969 238.014 16.0969C238.88 16.0969 239.654 15.8957 240.335 15.4933C241.016 15.0754 241.55 14.5183 241.937 13.8218L243.214 14.5647C242.734 15.4933 242.03 16.2284 241.101 16.7701C240.173 17.3118 239.143 17.5827 238.014 17.5827Z" fill="#FF5811"/>
<path d="M229.376 2.90949C229.16 3.12617 228.897 3.23451 228.587 3.23451C228.277 3.23451 228.014 3.12617 227.798 2.90949C227.581 2.69282 227.473 2.42972 227.473 2.12018C227.473 1.81065 227.581 1.54754 227.798 1.33087C228.014 1.1142 228.277 1.00586 228.587 1.00586C228.897 1.00586 229.16 1.1142 229.376 1.33087C229.593 1.54754 229.701 1.81065 229.701 2.12018C229.701 2.42972 229.593 2.69282 229.376 2.90949ZM227.821 17.3028V5.6953H229.353V17.3028H227.821Z" fill="#FF5811"/>
<path d="M224.344 5.69531H225.969L221.21 17.3028H219.353L214.594 5.69531H216.219L220.281 15.701L224.344 5.69531Z" fill="#FF5811"/>
<path d="M210.219 7.62234C210.931 6.21396 212.153 5.50977 213.887 5.50977V6.99553C212.834 6.99553 211.96 7.30506 211.263 7.92413C210.567 8.5432 210.219 9.51823 210.219 10.8492V17.303H208.687V5.69549H210.219V7.62234Z" fill="#FF5811"/>
<path d="M200.492 5.41797C202.21 5.41797 203.595 6.0293 204.648 7.25196C205.715 8.45914 206.249 9.89074 206.249 11.5467C206.249 11.717 206.234 11.9569 206.203 12.2664H196.011C196.166 13.4426 196.662 14.379 197.497 15.0754C198.348 15.7564 199.393 16.0969 200.631 16.0969C201.513 16.0969 202.272 15.9189 202.906 15.5629C203.556 15.1915 204.044 14.7117 204.369 14.1236L205.715 14.9129C205.205 15.7332 204.508 16.3832 203.626 16.863C202.744 17.3428 201.738 17.5827 200.608 17.5827C198.782 17.5827 197.296 17.01 196.151 15.8647C195.006 14.7195 194.433 13.2647 194.433 11.5003C194.433 9.76692 194.998 8.31985 196.128 7.1591C197.257 5.99835 198.712 5.41797 200.492 5.41797ZM200.492 6.90373C199.285 6.90373 198.271 7.26743 197.451 7.99484C196.646 8.70677 196.166 9.63537 196.011 10.7806H204.671C204.516 9.55799 204.044 8.60617 203.255 7.9252C202.465 7.24422 201.544 6.90373 200.492 6.90373Z" fill="#FF5811"/>
<path d="M186.866 17.5811C185.38 17.5811 184.104 17.2329 183.036 16.5365C181.983 15.8245 181.248 14.8495 180.83 13.6114L182.223 12.7988C182.517 13.8048 183.059 14.5941 183.848 15.1668C184.638 15.7239 185.651 16.0025 186.889 16.0025C188.097 16.0025 189.033 15.7394 189.698 15.2132C190.379 14.6715 190.72 13.9596 190.72 13.0774C190.72 12.2262 190.41 11.5839 189.791 11.1506C189.172 10.7172 188.151 10.2684 186.727 9.80409C185.04 9.24693 183.926 8.79811 183.384 8.45762C182.146 7.71474 181.527 6.63911 181.527 5.23073C181.527 3.8533 182.007 2.76993 182.966 1.98062C183.926 1.17583 185.11 0.773438 186.518 0.773438C187.787 0.773438 188.886 1.10619 189.815 1.77168C190.743 2.42171 191.432 3.25745 191.881 4.27891L190.511 5.04501C189.768 3.24971 188.437 2.35206 186.518 2.35206C185.512 2.35206 184.7 2.59969 184.08 3.09494C183.461 3.5902 183.152 4.27891 183.152 5.16108C183.152 5.96587 183.43 6.56946 183.988 6.97186C184.545 7.37425 185.466 7.78438 186.75 8.20225C187.338 8.40345 187.756 8.55048 188.004 8.64334C188.267 8.72072 188.638 8.86001 189.118 9.06121C189.613 9.24693 189.977 9.41718 190.209 9.57194C190.441 9.71123 190.72 9.91243 191.045 10.1755C191.385 10.4232 191.625 10.6785 191.765 10.9416C191.919 11.1893 192.051 11.4988 192.159 11.8702C192.283 12.2262 192.345 12.6131 192.345 13.031C192.345 14.4084 191.842 15.515 190.836 16.3507C189.83 17.171 188.507 17.5811 186.866 17.5811Z" fill="#FF5811"/>
<path d="M169.955 7.62234C170.667 6.21396 171.89 5.50977 173.623 5.50977V6.99553C172.571 6.99553 171.696 7.30506 171 7.92413C170.303 8.5432 169.955 9.51823 169.955 10.8492V17.303H168.423V5.69549H169.955V7.62234Z" fill="#FF5811"/>
<path d="M164.071 15.8415C162.895 17.0023 161.456 17.5827 159.753 17.5827C158.051 17.5827 156.604 17.0023 155.412 15.8415C154.236 14.6653 153.648 13.2182 153.648 11.5003C153.648 9.7824 154.236 8.34307 155.412 7.18231C156.604 6.00608 158.051 5.41797 159.753 5.41797C161.456 5.41797 162.895 6.00608 164.071 7.18231C165.263 8.34307 165.859 9.7824 165.859 11.5003C165.859 13.2182 165.263 14.6653 164.071 15.8415ZM156.503 14.7736C157.385 15.6558 158.469 16.0969 159.753 16.0969C161.038 16.0969 162.121 15.6558 163.003 14.7736C163.886 13.876 164.327 12.7849 164.327 11.5003C164.327 10.2157 163.886 9.13238 163.003 8.25021C162.121 7.35256 161.038 6.90373 159.753 6.90373C158.469 6.90373 157.385 7.35256 156.503 8.25021C155.621 9.13238 155.18 10.2157 155.18 11.5003C155.18 12.7849 155.621 13.876 156.503 14.7736Z" fill="#FF5811"/>
<path d="M149.993 15.8415C148.816 17.0023 147.377 17.5827 145.675 17.5827C143.972 17.5827 142.525 17.0023 141.333 15.8415C140.157 14.6653 139.569 13.2182 139.569 11.5003C139.569 9.7824 140.157 8.34307 141.333 7.18231C142.525 6.00608 143.972 5.41797 145.675 5.41797C147.377 5.41797 148.816 6.00608 149.993 7.18231C151.184 8.34307 151.78 9.7824 151.78 11.5003C151.78 13.2182 151.184 14.6653 149.993 15.8415ZM142.425 14.7736C143.307 15.6558 144.39 16.0969 145.675 16.0969C146.959 16.0969 148.043 15.6558 148.925 14.7736C149.807 13.876 150.248 12.7849 150.248 11.5003C150.248 10.2157 149.807 9.13238 148.925 8.25021C148.043 7.35256 146.959 6.90373 145.675 6.90373C144.39 6.90373 143.307 7.35256 142.425 8.25021C141.542 9.13238 141.101 10.2157 141.101 11.5003C141.101 12.7849 141.542 13.876 142.425 14.7736Z" fill="#FF5811"/>
<path d="M130.057 1.05273C132.271 1.05273 134.097 1.84205 135.536 3.42067C136.991 4.98382 137.718 6.90293 137.718 9.178C137.718 11.4531 136.991 13.3799 135.536 14.9586C134.097 16.5217 132.271 17.3033 130.057 17.3033H123.789V1.05273H130.057ZM130.057 15.7711C131.837 15.7711 133.292 15.1365 134.422 13.8674C135.567 12.5984 136.14 11.0352 136.14 9.178C136.14 7.3208 135.567 5.75765 134.422 4.48856C133.292 3.21947 131.837 2.58493 130.057 2.58493H125.414V15.7711H130.057Z" fill="#FF5811"/>
<path d="M109.559 5.41797C111.277 5.41797 112.662 6.0293 113.714 7.25196C114.782 8.45914 115.316 9.89074 115.316 11.5467C115.316 11.717 115.301 11.9569 115.27 12.2664H105.078C105.233 13.4426 105.728 14.379 106.564 15.0754C107.415 15.7564 108.46 16.0969 109.698 16.0969C110.58 16.0969 111.339 15.9189 111.973 15.5629C112.623 15.1915 113.111 14.7117 113.436 14.1236L114.782 14.9129C114.271 15.7332 113.575 16.3832 112.693 16.863C111.811 17.3428 110.805 17.5827 109.675 17.5827C107.849 17.5827 106.363 17.01 105.218 15.8647C104.072 14.7195 103.5 13.2647 103.5 11.5003C103.5 9.76692 104.065 8.31985 105.194 7.1591C106.324 5.99835 107.779 5.41797 109.559 5.41797ZM109.559 6.90373C108.352 6.90373 107.338 7.26743 106.518 7.99484C105.713 8.70677 105.233 9.63537 105.078 10.7806H113.738C113.583 9.55799 113.111 8.60617 112.321 7.9252C111.532 7.24422 110.611 6.90373 109.559 6.90373Z" fill="#FF5811"/>
<path d="M96.6834 5.41716C98.0917 5.41716 99.1983 5.85051 100.003 6.71721C100.823 7.56843 101.234 8.72144 101.234 10.1763V17.3033H99.7013V10.1763C99.7013 9.13931 99.4227 8.33452 98.8656 7.76189C98.3239 7.18925 97.5501 6.90293 96.5441 6.90293C95.4297 6.90293 94.5244 7.25889 93.8279 7.97082C93.1315 8.66727 92.7832 9.75064 92.7832 11.2209V17.3033H91.251V1.05273H92.7832V7.50652C93.6499 6.11362 94.95 5.41716 96.6834 5.41716Z" fill="#FF5811"/>
<path d="M89.1608 1.05273V2.58493H84.1696V17.3033H82.5445V2.58493H77.5533V1.05273H89.1608Z" fill="#FF5811"/>
<path d="M65.3975 5.41797C66.8059 5.41797 67.9124 5.85132 68.7172 6.71801C69.5375 7.56923 69.9476 8.72225 69.9476 10.1771V17.3041H68.4154V10.1771C68.4154 9.14012 68.1368 8.33533 67.5797 7.76269C67.038 7.19005 66.2642 6.90373 65.2582 6.90373C64.1439 6.90373 63.2385 7.2597 62.542 7.97162C61.8456 8.66808 61.4973 9.75145 61.4973 11.2217V17.3041H59.9651V5.69655H61.4973V7.50732C62.364 6.11442 63.6641 5.41797 65.3975 5.41797Z" fill="#FF5811"/>
<path d="M54.847 1.05273H56.472V17.3033H54.847V1.05273Z" fill="#FF5811"/>
<path d="M46.2574 7.18118H42.9144V14.2153C42.9144 14.8499 43.0382 15.3065 43.2859 15.585C43.5335 15.8481 43.9049 15.9874 44.4002 16.0029C44.8954 16.0029 45.5145 15.9874 46.2574 15.9565V17.3029C44.6323 17.5506 43.4097 17.4345 42.5894 16.9547C41.7846 16.4749 41.3822 15.5618 41.3822 14.2153V7.18118H38.9446V5.69542H41.3822V2.90961L42.9144 2.44531V5.69542H46.2574V7.18118Z" fill="#FF5811"/>
<path d="M35.9805 15.8415C34.8043 17.0023 33.3649 17.5827 31.6625 17.5827C29.9601 17.5827 28.513 17.0023 27.3213 15.8415C26.1451 14.6653 25.5569 13.2182 25.5569 11.5003C25.5569 9.7824 26.1451 8.34307 27.3213 7.18231C28.513 6.00608 29.9601 5.41797 31.6625 5.41797C33.3649 5.41797 34.8043 6.00608 35.9805 7.18231C37.1722 8.34307 37.7681 9.7824 37.7681 11.5003C37.7681 13.2182 37.1722 14.6653 35.9805 15.8415ZM28.4124 14.7736C29.2946 15.6558 30.3779 16.0969 31.6625 16.0969C32.9471 16.0969 34.0304 15.6558 34.9126 14.7736C35.7948 13.876 36.2359 12.7849 36.2359 11.5003C36.2359 10.2157 35.7948 9.13238 34.9126 8.25021C34.0304 7.35256 32.9471 6.90373 31.6625 6.90373C30.3779 6.90373 29.2946 7.35256 28.4124 8.25021C27.5302 9.13238 27.0891 10.2157 27.0891 11.5003C27.0891 12.7849 27.5302 13.876 28.4124 14.7736Z" fill="#FF5811"/>
<path d="M21.9018 15.8415C20.7256 17.0023 19.2863 17.5827 17.5838 17.5827C15.8814 17.5827 14.4343 17.0023 13.2426 15.8415C12.0664 14.6653 11.4783 13.2182 11.4783 11.5003C11.4783 9.7824 12.0664 8.34307 13.2426 7.18231C14.4343 6.00608 15.8814 5.41797 17.5838 5.41797C19.2863 5.41797 20.7256 6.00608 21.9018 7.18231C23.0935 8.34307 23.6894 9.7824 23.6894 11.5003C23.6894 13.2182 23.0935 14.6653 21.9018 15.8415ZM14.3337 14.7736C15.2159 15.6558 16.2993 16.0969 17.5838 16.0969C18.8684 16.0969 19.9518 15.6558 20.8339 14.7736C21.7161 13.876 22.1572 12.7849 22.1572 11.5003C22.1572 10.2157 21.7161 9.13238 20.8339 8.25021C19.9518 7.35256 18.8684 6.90373 17.5838 6.90373C16.2993 6.90373 15.2159 7.35256 14.3337 8.25021C13.4516 9.13238 13.0105 10.2157 13.0105 11.5003C13.0105 12.7849 13.4516 13.876 14.3337 14.7736Z" fill="#FF5811"/>
<path d="M9.6293 2.58493H2.0844V8.57441H9.28107V10.1066H2.0844V17.3033H0.459351V1.05273H9.6293V2.58493Z" fill="#FF5811"/>
</svg>
