<svg width="429" height="292" viewBox="0 0 429 292" fill="none" xmlns="http://www.w3.org/2000/svg">
<path d="M389.73 289.839C387.94 281.929 385.93 258.309 373.14 255.779C358.9 252.959 360.21 276.939 350.78 270.039C335.42 258.779 331.06 278.539 325.19 276.939C301.19 270.399 281.11 289.839 281.11 289.839H389.73Z" stroke="#0B29B9" stroke-miterlimit="10"/>
<path d="M380.27 290.229C380.27 290.229 378.11 267.519 388.72 267.449C397.17 267.389 401.4 284.749 401.4 284.749C401.4 284.749 408.16 280.009 414.58 282.489C421 284.969 421.68 290.229 421.68 290.229H380.27Z" fill="white" stroke="#0B29B9" stroke-miterlimit="10"/>
<path d="M388.39 272.691L393.46 290.231" stroke="#0B29B9" stroke-miterlimit="10"/>
<path d="M120.75 290.231C123.983 285.81 128.265 282.264 133.21 279.911C142.42 275.571 138.55 257.091 149.15 258.911C157.39 260.291 159.83 290.251 159.83 290.251L120.75 290.231Z" fill="white" stroke="#0B29B9" stroke-miterlimit="10"/>
<path d="M118.12 290.681C118.12 290.681 119.2 278.851 107.26 276.681C95.32 274.511 97.53 250.541 79.37 252.191C61.21 253.841 47.72 285.731 26 290.681" stroke="#0B29B9" stroke-miterlimit="10"/>
<path d="M347.75 1H67.92C61.06 1 55.45 7 55.45 14.38V226.76C55.45 234.12 61.06 240.14 67.92 240.14H347.75C354.61 240.14 360.23 234.14 360.23 226.76V14.38C360.23 7.02 354.61 1 347.75 1ZM347.91 211.13H67.77V13.84H347.91V211.13Z" fill="#A6BBFF"/>
<path d="M213.3 231.81C216.63 231.81 219.33 229.11 219.33 225.78C219.33 222.45 216.63 219.75 213.3 219.75C209.97 219.75 207.27 222.45 207.27 225.78C207.27 229.11 209.97 231.81 213.3 231.81Z" fill="#0B29B9"/>
<path d="M286.7 289.74L299.94 236C300.378 234.22 301.449 232.662 302.952 231.614C304.456 230.567 306.289 230.103 308.11 230.31C310.026 230.529 311.786 231.472 313.03 232.946C314.274 234.42 314.907 236.314 314.8 238.24L311.69 289.84L286.7 289.74Z" fill="white" stroke="#0B29B9" stroke-miterlimit="10"/>
<path d="M307.45 235.742L298.41 289.792" stroke="#0B29B9" stroke-miterlimit="10"/>
<path d="M300.39 246.711C300.39 246.711 300.58 252.381 304.1 255.781" stroke="#0B29B9" stroke-miterlimit="10"/>
<path d="M310.79 263.141C310.79 263.141 307.23 269.751 302.17 269.141" stroke="#0B29B9" stroke-miterlimit="10"/>
<path d="M293.49 274.039C293.49 274.039 294.66 279.579 299.72 281.969" stroke="#0B29B9" stroke-miterlimit="10"/>
<path d="M311.77 240.16C311.77 240.16 310.4 245.23 306.52 243.99" stroke="#0B29B9" stroke-miterlimit="10"/>
<path d="M124.42 290.23L117.42 236.46C117.187 234.68 116.315 233.045 114.967 231.86C113.618 230.676 111.885 230.021 110.09 230.02C108.198 230.022 106.379 230.749 105.007 232.051C103.634 233.352 102.812 235.131 102.71 237.02L99.77 290.24L124.42 290.23Z" fill="white" stroke="#0B29B9" stroke-miterlimit="10"/>
<path d="M110.15 235.379L113.08 290.229" stroke="#0B29B9" stroke-miterlimit="10"/>
<path d="M115.82 246.828C115.82 246.828 115.01 252.328 111.21 255.248L115.82 246.828Z" fill="white"/>
<path d="M115.82 246.828C115.82 246.828 115.01 252.328 111.21 255.248" stroke="#0B29B9" stroke-miterlimit="10"/>
<path d="M103.9 261.691C103.9 261.691 106.63 268.521 111.62 268.521L103.9 261.691Z" fill="white"/>
<path d="M103.9 261.691C103.9 261.691 106.63 268.521 111.62 268.521" stroke="#0B29B9" stroke-miterlimit="10"/>
<path d="M119.53 274.199C119.53 274.199 117.79 279.469 112.6 281.199L119.53 274.199Z" fill="white"/>
<path d="M119.53 274.199C119.53 274.199 117.79 279.469 112.6 281.199" stroke="#0B29B9" stroke-miterlimit="10"/>
<path d="M105.46 239.211C105.46 239.211 106.24 244.291 110.15 243.511L105.46 239.211Z" fill="white"/>
<path d="M105.46 239.211C105.46 239.211 106.24 244.291 110.15 243.511" stroke="#0B29B9" stroke-miterlimit="10"/>
<path d="M27 290.229C27 290.229 24.84 267.519 35.45 267.449C43.9 267.389 48.13 284.749 48.13 284.749C48.13 284.749 54.89 280.009 61.31 282.489C67.73 284.969 68.41 290.229 68.41 290.229H27Z" fill="white" stroke="#0B29B9" stroke-miterlimit="10"/>
<path d="M250.74 240.141H175.86V290.691H250.74V240.141Z" fill="#0B29B9"/>
<path d="M257.52 278.41H169.08C165.683 278.41 162.93 281.161 162.93 284.555C162.93 287.949 165.683 290.7 169.08 290.7H257.52C260.917 290.7 263.67 287.949 263.67 284.555C263.67 281.161 260.917 278.41 257.52 278.41Z" fill="#A6BBFF"/>
<path d="M153.93 39.3516H84.12V109.162H153.93V39.3516Z" fill="#E1F0FF"/>
<path d="M84.12 109.158H153.93V73.3984L123.08 93.7884L102.57 82.2584L84.12 99.6084V109.158Z" fill="#0B29B9"/>
<path d="M122.25 81.1692C128.248 81.1692 133.11 76.307 133.11 70.3092C133.11 64.3114 128.248 59.4492 122.25 59.4492C116.252 59.4492 111.39 64.3114 111.39 70.3092C111.39 76.307 116.252 81.1692 122.25 81.1692Z" fill="#DB4800"/>
<path d="M154.13 126.898H84.19V196.838H154.13V126.898Z" fill="#DB4800"/>
<path d="M347.92 13.8398H67.77V25.9598H347.92V13.8398Z" fill="#E1F0FF"/>
<path d="M426.6 290.23H0" stroke="#0B29B9" stroke-miterlimit="10"/>
<path d="M167.72 62.1602H255.74" stroke="#0B29B9" stroke-width="0.85" stroke-miterlimit="10"/>
<path d="M167.72 68.8711H255.74" stroke="#0B29B9" stroke-width="0.85" stroke-miterlimit="10"/>
<path d="M167.72 75.5898H255.74" stroke="#0B29B9" stroke-width="0.85" stroke-miterlimit="10"/>
<path d="M167.72 82.3008H255.74" stroke="#0B29B9" stroke-width="0.85" stroke-miterlimit="10"/>
<path d="M167.72 89.0195H255.74" stroke="#0B29B9" stroke-width="0.85" stroke-miterlimit="10"/>
<path d="M167.72 95.7305H255.74" stroke="#0B29B9" stroke-width="0.85" stroke-miterlimit="10"/>
<path d="M167.72 102.441H255.74" stroke="#0B29B9" stroke-width="0.85" stroke-miterlimit="10"/>
<path d="M167.72 109.16H255.74" stroke="#0B29B9" stroke-width="0.85" stroke-miterlimit="10"/>
<path d="M256.97 126.969H167.93V196.779H256.97V126.969Z" stroke="#A6BBFF" stroke-width="1.13" stroke-miterlimit="10"/>
<path d="M256.98 126.969L167.93 196.769" stroke="#A6BBFF" stroke-width="1.13" stroke-miterlimit="10"/>
<path d="M256.98 196.769L167.93 126.969" stroke="#A6BBFF" stroke-width="1.13" stroke-miterlimit="10"/>
<path d="M337.68 39.3516H267.8V196.562H337.68V39.3516Z" fill="#E1F0FF"/>
<path d="M283.34 1L338.69 290.23" stroke="#0B29B9" stroke-miterlimit="10"/>
<path d="M320.24 1L375.59 290.23" stroke="#0B29B9" stroke-miterlimit="10"/>
<path d="M323.85 19.8984H286.95" stroke="#0B29B9" stroke-miterlimit="10"/>
<path d="M330.21 53.0703H293.34" stroke="#0B29B9" stroke-miterlimit="10"/>
<path d="M336.57 86.2422H299.73" stroke="#0B29B9" stroke-miterlimit="10"/>
<path d="M342.93 119.41H306.12" stroke="#0B29B9" stroke-miterlimit="10"/>
<path d="M349.29 152.57H312.5" stroke="#0B29B9" stroke-miterlimit="10"/>
<path d="M355.65 185.742H318.89" stroke="#0B29B9" stroke-miterlimit="10"/>
<path d="M362.01 218.91H325.28" stroke="#0B29B9" stroke-miterlimit="10"/>
<path d="M368.37 252.078H331.67" stroke="#0B29B9" stroke-miterlimit="10"/>
<path d="M314.47 69.3494C303.682 65.3807 293.504 59.921 284.23 53.1294C272.75 44.6294 265.52 34.3994 262.68 33.7394C261.46 33.4494 258.55 36.2794 259.21 38.4594C260.44 42.5094 269.35 52.9494 279.41 60.5494C290.12 68.6594 304.87 76.0194 304.87 76.0194L314.47 69.3494Z" fill="#DB4800"/>
<path d="M260.55 37.481C260.55 37.481 257.55 36.821 255.81 36.241C254.07 35.661 253.04 32.991 253.87 31.031C254.7 29.071 257.4 28.811 259.21 30.291C260.615 31.6038 261.848 33.0889 262.88 34.711L260.55 37.481Z" fill="#F6DECD"/>
<path d="M177.28 20.798L179.182 13.246L176.213 12.4979L176.567 11.0898L184.171 13.0053L183.816 14.4133L180.846 13.6652L178.944 21.2172L177.28 20.798Z" fill="#A6BBFF"/>
<path d="M183.162 22.2799L185.419 13.3199L187.083 13.7391L184.826 22.6991L183.162 22.2799Z" fill="#A6BBFF"/>
<path d="M189.067 23.7676L190.97 16.2156L188 15.4674L188.355 14.0594L195.958 15.9749L195.603 17.3829L192.634 16.6348L190.731 24.1868L189.067 23.7676Z" fill="#A6BBFF"/>
<path d="M194.95 25.2495L197.207 16.2895L198.871 16.7087L196.968 24.2607L201.653 25.4409L201.298 26.8489L194.95 25.2495Z" fill="#A6BBFF"/>
<path d="M205.467 22.3316L209.922 23.4538L209.576 24.8234L205.122 23.7012L205.467 22.3316ZM204.628 26.2039L209.684 27.4776L209.332 28.8728L202.612 27.1799L204.869 18.2199L211.41 19.8677L211.059 21.2629L206.182 20.0343L204.628 26.2039Z" fill="#A6BBFF"/>
<path d="M223.28 22.8578L224.944 23.277L222.686 32.2371L221.022 31.8179L223.28 22.8578ZM216.389 30.6506L214.725 30.2314L216.982 21.2713L218.646 21.6905L216.389 30.6506ZM222.118 28.0101L217.215 26.7751L217.573 25.3543L222.476 26.5893L222.118 28.0101Z" fill="#A6BBFF"/>
<path d="M227.942 27.9937L232.397 29.1159L232.052 30.4855L227.597 29.3633L227.942 27.9937ZM227.103 31.8659L232.159 33.1397L231.807 34.5349L225.087 32.8419L227.345 23.8819L233.885 25.5297L233.534 26.9249L228.657 25.6963L227.103 31.8659Z" fill="#A6BBFF"/>
<path d="M233.662 35.0022L235.92 26.0422L239.606 26.9709C240.4 27.1708 241.046 27.4697 241.544 27.8676C242.052 28.2676 242.399 28.7453 242.586 29.3005C242.772 29.8558 242.783 30.462 242.618 31.119C242.452 31.7761 242.155 32.3049 241.728 32.7053C241.302 33.0973 240.772 33.3492 240.135 33.4612C239.51 33.5668 238.8 33.5196 238.007 33.3197L235.242 32.6232L236.174 32.055L235.326 35.4214L233.662 35.0022ZM239.525 36.4791L238.078 32.6571L239.857 33.1053L241.317 36.9306L239.525 36.4791ZM236.129 32.2342L235.587 31.2536L238.275 31.9307C239.009 32.1156 239.599 32.0964 240.045 31.8731C240.5 31.652 240.799 31.2598 240.941 30.6966C241.085 30.1249 241.008 29.6381 240.71 29.2363C240.42 28.8367 239.908 28.5444 239.175 28.3595L236.487 27.6823L237.435 27.0502L236.129 32.2342Z" fill="#A6BBFF"/>
<path d="M245.88 32.5126L250.334 33.6348L249.989 35.0044L245.535 33.8822L245.88 32.5126ZM245.04 36.3849L250.096 37.6586L249.745 39.0538L243.025 37.3609L245.282 28.4008L251.823 30.0486L251.471 31.4438L246.595 30.2152L245.04 36.3849Z" fill="#A6BBFF"/>
<path d="M259.67 24.9025L171.117 2.59375L165.476 24.9842L254.029 47.2929L259.67 24.9025Z" stroke="#0B29B9" stroke-width="1.03" stroke-miterlimit="10"/>
<path d="M301.39 59.6992L306.36 60.5692L306.66 74.8492L297.82 74.1292L298.18 69.6792L298.88 60.9792L301.39 59.6992Z" fill="#F6DECD"/>
<path d="M249 43.4918C249 43.4918 248.7 40.4918 248.33 38.6418C247.96 36.7918 245.44 35.5018 243.39 36.1018C241.34 36.7018 240.77 39.3318 242.02 41.3118C243.17 42.8634 244.515 44.2615 246.02 45.4718L249 43.4918Z" fill="#F6DECD"/>
<path d="M358.08 115.199C359.39 117.559 368.57 133.919 369.79 138.429C371.4 144.429 376.41 151.769 377.09 153.609C378.28 156.839 390.75 150.609 403.97 155.729C410.39 158.249 424.64 170.309 424.97 171.459C425.3 172.609 422.21 172.679 421.66 172.369C421.37 172.199 389.04 169.089 373.55 164.369C363.4 161.269 354.39 149.499 349.83 143.949L342.57 135.099L358.08 115.199Z" fill="#F6DECD"/>
<path d="M347.06 142.112C346.4 144.732 344.38 148.862 342.18 152.982C339.26 158.452 337.89 167.242 337.12 169.052C335.78 172.222 349.17 176.172 355.27 188.982C358.27 195.212 360.37 213.762 359.81 214.822C359.25 215.882 356.97 213.822 356.81 213.212C356.71 212.892 335.26 188.502 327.2 174.462C321.92 165.262 323.4 150.462 323.88 143.342C324.33 136.422 324.63 131.922 324.63 131.922L347.06 142.112Z" fill="#F6DECD"/>
<path d="M306.32 70.9129C306.32 70.9129 284.62 73.7029 273.69 68.9129C262.24 63.9129 253.44 53.7029 250 44.1429C249.852 43.7202 249.559 43.3641 249.172 43.1386C248.785 42.9132 248.331 42.8331 247.89 42.9129C246.915 43.4421 246.002 44.0794 245.17 44.8129C243.94 45.6929 246.34 62.6229 258.95 73.4829C274.69 87.0429 286.19 80.0629 292.64 85.3029C299.09 90.5429 302.14 92.7229 303.77 97.0529C305.4 101.383 311.77 126.053 318.41 146.543C324 163.673 350.89 143.263 358.69 137.083C369.16 128.793 366.36 117.483 356.15 107.763C345.94 98.0429 311.88 65.2729 310.15 66.7629C308.79 68.0671 307.511 69.453 306.32 70.9129Z" fill="#DB4800"/>
<path d="M300.86 68.4819C305.985 68.4819 310.14 64.3271 310.14 59.2019C310.14 54.0767 305.985 49.9219 300.86 49.9219C295.735 49.9219 291.58 54.0767 291.58 59.2019C291.58 64.3271 295.735 68.4819 300.86 68.4819Z" fill="#F6DECD"/>
<path d="M419.56 165L414 172.34C413.74 172.58 422.14 173.82 422 174.15C421.53 175.442 420.891 176.666 420.1 177.79C418.75 179.71 414.34 181.4 414.39 185.55C414.388 185.716 414.435 185.88 414.526 186.019C414.616 186.159 414.745 186.269 414.897 186.337C415.05 186.404 415.218 186.425 415.382 186.397C415.546 186.369 415.698 186.294 415.82 186.18L428.82 173.79L419.56 165Z" fill="#0B29B9"/>
<path d="M360.82 208.102L352.9 209.752C352.55 209.752 356.13 214.592 355.82 214.752C354.613 215.372 353.328 215.829 352 216.112C349.69 216.582 345.33 214.802 342.52 217.852C342.405 217.973 342.328 218.126 342.299 218.291C342.27 218.456 342.289 218.626 342.355 218.78C342.421 218.934 342.53 219.065 342.67 219.158C342.809 219.25 342.973 219.3 343.14 219.302L361.14 219.182L360.82 208.102Z" fill="#0B29B9"/>
<path d="M303.67 62.0688C303.67 62.0688 297.87 78.2788 308.38 92.2088C318.89 106.139 326.76 104.749 330.54 103.469C330.54 103.469 339.38 112.149 348.84 107.659C358.68 102.989 357.58 95.0988 357.58 95.0988C357.58 95.0988 369.19 91.0988 366.09 83.6888C361.82 73.4188 347.09 80.8688 332.09 69.2588C317.09 57.6488 320.19 52.5788 313.77 48.5088C307.35 44.4388 296.44 43.3088 294.07 47.3088C291.7 51.3088 294.82 57.4088 303.67 62.0688Z" fill="#0B29B9"/>
</svg>
