<svg width="320" height="238" viewBox="0 0 320 238" fill="none" xmlns="http://www.w3.org/2000/svg">
<g clip-path="url(#clip0_2_3852)">
<path d="M319.369 208.742H0.631226V208.902H319.369V208.742Z" fill="#EBEBEB"/>
<path d="M287.431 219H266.318V219.159H287.431V219Z" fill="#EBEBEB"/>
<path d="M211.776 220.73H206.236V220.89H211.776V220.73Z" fill="#EBEBEB"/>
<path d="M265.681 213.082H253.448V213.241H265.681V213.082Z" fill="#EBEBEB"/>
<path d="M61.6057 214.152H34.0732V214.312H61.6057V214.152Z" fill="#EBEBEB"/>
<path d="M71.3209 214.152H67.2856V214.312H71.3209V214.152Z" fill="#EBEBEB"/>
<path d="M144.159 216.844H84.4401V217.003H144.159V216.844Z" fill="#EBEBEB"/>
<path d="M151.713 180.31H28.6227C27.6585 180.308 26.7343 179.924 26.053 179.241C25.3718 178.559 24.9891 177.634 24.9891 176.67V3.63998C24.9891 2.6757 25.3718 1.75082 26.053 1.06838C26.7343 0.385931 27.6585 0.00168876 28.6227 0L151.713 0C152.678 0 153.604 0.383497 154.287 1.06613C154.969 1.74876 155.353 2.6746 155.353 3.63998V176.67C155.353 177.148 155.259 177.621 155.076 178.063C154.893 178.504 154.625 178.906 154.287 179.244C153.949 179.582 153.547 179.85 153.106 180.033C152.664 180.216 152.191 180.31 151.713 180.31ZM28.6227 0.159369C27.7007 0.161057 26.8171 0.528509 26.1657 1.18107C25.5143 1.83363 25.1485 2.71797 25.1485 3.63998V176.67C25.1485 177.592 25.5143 178.476 26.1657 179.129C26.8171 179.781 27.7007 180.149 28.6227 180.15H151.713C152.635 180.149 153.52 179.782 154.172 179.129C154.825 178.477 155.192 177.592 155.193 176.67V3.63998C155.192 2.71738 154.825 1.83306 154.172 1.18068C153.52 0.528302 152.635 0.161054 151.713 0.159369H28.6227Z" fill="#EBEBEB"/>
<path d="M289.605 180.31H166.509C165.544 180.308 164.619 179.924 163.937 179.242C163.254 178.56 162.87 177.635 162.869 176.67V3.63998C162.87 2.67512 163.254 1.75025 163.937 1.06799C164.619 0.385724 165.544 0.00168536 166.509 0L289.605 0C290.568 0.00337366 291.491 0.38836 292.171 1.07062C292.851 1.75289 293.232 2.6768 293.232 3.63998V176.67C293.232 177.633 292.851 178.557 292.171 179.239C291.491 179.922 290.568 180.306 289.605 180.31ZM166.509 0.159369C165.586 0.161054 164.702 0.528302 164.049 1.18068C163.397 1.83306 163.03 2.71738 163.028 3.63998V176.67C163.03 177.592 163.397 178.477 164.049 179.129C164.702 179.782 165.586 180.149 166.509 180.15H289.605C290.528 180.149 291.412 179.782 292.064 179.129C292.717 178.477 293.084 177.592 293.086 176.67V3.63998C293.084 2.71738 292.717 1.83306 292.064 1.18068C291.412 0.528302 290.528 0.161054 289.605 0.159369H166.509Z" fill="#EBEBEB"/>
<path d="M88.0674 22.9062H56.7992V61.142H88.0674V22.9062Z" fill="#F0F0F0"/>
<path d="M94.78 22.9062H58.8136V61.142H94.78V22.9062Z" fill="#F5F5F5"/>
<path d="M91.7647 58.1296V25.918L61.8225 25.918V58.1296H91.7647Z" fill="white"/>
<path d="M84.5102 50.3161V33.7227H69.0833V50.3161H84.5102Z" fill="#F5F5F5"/>
<path d="M140.825 40.6758H109.557V78.9115H140.825V40.6758Z" fill="#F0F0F0"/>
<path d="M147.544 40.6758H111.577V78.9115H147.544V40.6758Z" fill="#F5F5F5"/>
<path d="M144.529 75.903V43.6914H114.586V75.903H144.529Z" fill="white"/>
<path d="M137.274 61.9188V57.6669C137.274 54.2588 134.511 51.4961 131.103 51.4961H128.018C124.61 51.4961 121.847 54.2588 121.847 57.6669V61.9188C121.847 65.3268 124.61 68.0896 128.018 68.0896H131.103C134.511 68.0896 137.274 65.3268 137.274 61.9188Z" fill="#F5F5F5"/>
<path d="M283.919 176.281H266.586V208.741H283.919V176.281Z" fill="#E6E6E6"/>
<path d="M280.623 208.736H283.919V196.535H277.174L280.623 208.736Z" fill="#F0F0F0"/>
<path d="M185.027 176.281H167.694V208.741H185.027V176.281Z" fill="#E6E6E6"/>
<path d="M283.913 176.281H182.152V205.407H283.913V176.281Z" fill="#F0F0F0"/>
<path d="M185.448 208.736H182.152V196.535H188.897L185.448 208.736Z" fill="#F0F0F0"/>
<path d="M185.537 181.318V199.926H215.703V181.318H185.537Z" fill="#E6E6E6"/>
<path d="M203.603 187.745H197.611C195.017 187.745 192.511 185.131 190.758 180.516H210.431C208.678 185.131 206.198 187.745 203.603 187.745Z" fill="#F0F0F0"/>
<path d="M217.953 181.318V199.926H248.118V181.318H217.953Z" fill="#E6E6E6"/>
<path d="M236.325 187.745H230.358C227.764 187.745 225.258 185.131 223.505 180.516H243.178C241.393 185.131 238.92 187.745 236.325 187.745Z" fill="#F0F0F0"/>
<path d="M250.369 181.322V199.93H280.534V181.322H250.369Z" fill="#E6E6E6"/>
<path d="M268.741 187.745H262.774C260.179 187.745 257.674 185.131 255.921 180.516H275.593C273.808 185.131 271.329 187.745 268.741 187.745Z" fill="#F0F0F0"/>
<path d="M278.857 18.6328H179.653V103.073H278.857V18.6328Z" fill="#E6E6E6"/>
<path d="M282.102 18.6328H181.171V103.073H282.102V18.6328Z" fill="#F0F0F0"/>
<path d="M278.857 103.074H179.653V109.092H278.857V103.074Z" fill="#E6E6E6"/>
<path d="M287.495 103.074H186.564V109.092H287.495V103.074Z" fill="#F0F0F0"/>
<path d="M277.563 98.5391V23.1641L185.697 23.1641V98.5391H277.563Z" fill="#FAFAFA"/>
<path d="M244.185 98.5391L251.44 23.1641H264.004L256.743 98.5391H244.185Z" fill="white"/>
<path d="M187.8 72.9916C187.708 72.9916 187.62 72.9556 187.555 72.8912C187.489 72.8268 187.451 72.7393 187.45 72.6474V26.1372C187.451 26.0453 187.489 25.9578 187.555 25.8934C187.62 25.829 187.708 25.793 187.8 25.793C187.892 25.793 187.979 25.8292 188.044 25.8938C188.108 25.9584 188.145 26.0459 188.145 26.1372V72.6729C188.138 72.7597 188.099 72.8408 188.035 72.9C187.971 72.9591 187.887 72.9919 187.8 72.9916Z" fill="#F0F0F0"/>
<path d="M259.44 98.5391L266.701 23.1641H271.596L264.336 98.5391H259.44Z" fill="white"/>
<path d="M277.563 98.5391V23.1641H276.99V98.5391H277.563Z" fill="#E6E6E6"/>
<path opacity="0.5" d="M283.173 31.3848H183.963L183.548 24.9336H282.752L283.173 31.3848Z" fill="#E0E0E0"/>
<path opacity="0.5" d="M283.173 41.9981H183.963L183.548 35.5469H282.752L283.173 41.9981Z" fill="#E0E0E0"/>
<path opacity="0.5" d="M283.173 52.6114H183.963L183.548 46.1602H282.752L283.173 52.6114Z" fill="#E0E0E0"/>
<path opacity="0.5" d="M283.173 63.2247H183.963L183.548 56.7734H282.752L283.173 63.2247Z" fill="#E0E0E0"/>
<path opacity="0.5" d="M283.173 73.8404H183.963L183.548 67.3828H282.752L283.173 73.8404Z" fill="#E0E0E0"/>
<path opacity="0.5" d="M283.173 84.4512H183.963L183.548 78H282.752L283.173 84.4512Z" fill="#E0E0E0"/>
<path d="M155.276 131.449H125.047V208.743H155.276V131.449Z" fill="#E6E6E6"/>
<path d="M152.236 208.742H155.276V198.211H149.048L152.236 208.742Z" fill="#F0F0F0"/>
<path d="M107.899 131.449H77.6701V208.743H107.899V131.449Z" fill="#E6E6E6"/>
<path d="M155.276 131.449H105.247V202.285H155.276V131.449Z" fill="#F0F0F0"/>
<path d="M152.918 134.582H107.606V154.006H152.918V134.582Z" fill="#E6E6E6"/>
<path d="M134.699 140.622H127.865C124.901 140.622 122.064 138.225 120.024 133.992H142.54C140.5 138.225 137.688 140.622 134.699 140.622Z" fill="#F0F0F0"/>
<path d="M108.288 208.742H105.247V198.211H111.475L108.288 208.742Z" fill="#F0F0F0"/>
<path d="M152.918 157.148H107.606V176.572H152.918V157.148Z" fill="#E6E6E6"/>
<path d="M134.699 163.192H127.865C124.901 163.192 122.064 160.795 120.024 156.562H142.54C140.5 160.789 137.688 163.192 134.699 163.192Z" fill="#F0F0F0"/>
<path d="M152.918 179.719H107.606V199.143H152.918V179.719Z" fill="#E6E6E6"/>
<path d="M134.699 185.755H127.865C124.901 185.755 122.064 183.358 120.024 179.125H142.54C140.5 183.358 137.688 185.755 134.699 185.755Z" fill="#F0F0F0"/>
<path d="M191.855 176.203H209.729C211.951 176.203 213.752 174.402 213.752 172.181V142.621C213.752 140.399 211.951 138.598 209.729 138.598H191.855C189.633 138.598 187.832 140.399 187.832 142.621V172.181C187.832 174.402 189.633 176.203 191.855 176.203Z" fill="#F5F5F5"/>
<path d="M255.099 155.281C255.099 155.281 254.461 176.203 229.957 176.203C205.452 176.203 204.815 155.281 204.815 155.281H255.099Z" fill="#F0F0F0"/>
<path d="M58.6414 191.957H59.9164C59.9164 186.634 59.9164 184.849 60.0503 153.9C60.2734 97.8021 60.6877 94.3789 60.6877 94.3789L57.7107 120.28C55.8429 148.953 58.2781 166.05 58.6414 191.957Z" fill="#F0F0F0"/>
<path d="M58.3865 208.742C54.5022 208.743 50.7343 207.416 47.7079 204.981C44.6816 202.546 42.5788 199.15 41.7484 195.355C41.3486 193.311 40.7684 191.305 40.0145 189.363L39.887 189.051H76.8605L76.733 189.363C75.9791 191.305 75.3989 193.311 74.9991 195.355C74.1697 199.146 72.0706 202.539 69.0495 204.973C66.0284 207.408 62.2664 208.738 58.3865 208.742Z" fill="#FAFAFA"/>
<path d="M79.2766 190.904H37.4901L36.298 181.852H80.475L79.2766 190.904Z" fill="#F0F0F0"/>
<path d="M57.596 141.674C64.8951 128.963 45.9685 124.405 39.8296 113.07C32.4604 122.027 49.0411 156.578 57.596 141.674Z" fill="#F0F0F0"/>
<path d="M59.0048 131.229C56.1872 124.816 69.7399 117.045 72.6659 106.629C78.0717 112.64 67.3366 150.2 59.0048 131.229Z" fill="#F0F0F0"/>
<path d="M58.8964 150.557C61.1914 142.481 74.3106 148.307 81.0041 133.129C88.1247 154.561 52.5344 172.997 58.8964 150.557Z" fill="#F0F0F0"/>
<path d="M59.4765 160.209C59.3235 152.559 50.9854 159.342 35.89 145.668C33.1424 159.782 60.0566 189.851 59.4765 160.209Z" fill="#F0F0F0"/>
<path d="M160 237.53C228.262 237.53 283.6 234.299 283.6 230.314C283.6 226.328 228.262 223.098 160 223.098C91.7376 223.098 36.4 226.328 36.4 230.314C36.4 234.299 91.7376 237.53 160 237.53Z" fill="#F5F5F5"/>
<path d="M173.567 49.8404C175.33 38.143 167.277 27.2313 155.579 25.4685C143.882 23.7057 132.97 31.7593 131.207 43.4567C129.445 55.1541 137.498 66.0658 149.196 67.8286C160.893 69.5914 171.805 61.5378 173.567 49.8404Z" fill="#FF5811"/>
<path d="M169.052 52.5585C167.879 55.8503 165.756 58.7204 162.952 60.8061C160.148 62.8919 156.788 64.0997 153.298 64.2769C149.808 64.4542 146.343 63.5929 143.342 61.802C140.341 60.011 137.939 57.3708 136.438 54.2148C134.937 51.0589 134.405 47.5288 134.909 44.0707C135.414 40.6126 136.932 37.3816 139.272 34.7859C141.612 32.1903 144.669 30.3466 148.057 29.4876C151.444 28.6286 155.01 28.793 158.304 29.96C160.504 30.7232 162.531 31.9163 164.265 33.4699C166 35.0234 167.409 36.9065 168.409 39.0095C169.409 41.1124 169.981 43.3933 170.091 45.7194C170.202 48.0454 169.849 50.3702 169.052 52.5585Z" fill="white"/>
<path opacity="0.4" d="M164.22 59.7843C161.855 61.9255 158.954 63.3865 155.826 64.0123C152.698 64.6381 149.458 64.4052 146.452 63.3385C143.445 62.2718 140.783 60.411 138.749 57.9535C136.714 55.4961 135.383 52.5337 134.896 49.3807C140.265 48.0209 145.916 48.2834 151.136 50.1352C156.356 51.9871 160.909 55.3449 164.22 59.7843Z" fill="#FF5811"/>
<path opacity="0.4" d="M161.836 43.5802C161.315 45.0476 160.371 46.3276 159.123 47.2583C157.875 48.1891 156.378 48.7289 154.823 48.8093C153.268 48.8898 151.725 48.5074 150.387 47.7104C149.049 46.9135 147.978 45.7378 147.309 44.332C146.639 42.9262 146.402 41.3535 146.626 39.8127C146.85 38.2719 147.526 36.8322 148.569 35.6757C149.611 34.5192 150.974 33.6978 152.483 33.3154C153.992 32.933 155.581 33.0067 157.049 33.5272C158.023 33.8729 158.92 34.4071 159.688 35.0994C160.456 35.7917 161.08 36.6285 161.525 37.5621C161.969 38.4956 162.225 39.5076 162.279 40.5402C162.332 41.5727 162.182 42.6058 161.836 43.5802Z" fill="#FF5811"/>
<path d="M73.5027 69.427C83.4838 69.3974 91.551 61.2821 91.5214 51.301C91.4918 41.32 83.3765 33.2527 73.3955 33.2823C63.4144 33.3119 55.3471 41.4272 55.3767 51.4083C55.4064 61.3894 63.5216 69.4566 73.5027 69.427Z" fill="#FF5811"/>
<path opacity="0.6" d="M73.5027 69.427C83.4838 69.3974 91.551 61.2821 91.5214 51.301C91.4918 41.32 83.3765 33.2527 73.3955 33.2823C63.4144 33.3119 55.3471 41.4272 55.3767 51.4083C55.4064 61.3894 63.5216 69.4566 73.5027 69.427Z" fill="#FAFAFA"/>
<path d="M87.4298 46.1653C88.8052 49.8739 88.6511 53.9769 87.0013 57.5717C85.3515 61.1666 82.3412 63.9588 78.6327 65.3342C74.9242 66.7096 70.8212 66.5554 67.2263 64.9056C63.6314 63.2558 60.8392 60.2456 59.4638 56.5371C58.0884 52.8285 58.2426 48.7255 59.8924 45.1307C61.5422 41.5358 64.5524 38.7435 68.261 37.3682C71.9695 35.9928 76.0725 36.147 79.6674 37.7967C83.2622 39.4465 86.0545 42.4568 87.4298 46.1653Z" fill="white"/>
<path d="M88.2139 53.4517C87.8357 56.1113 86.7459 58.6193 85.0599 60.7106C83.3738 62.802 81.1541 64.399 78.6353 65.3328C76.1165 66.2667 73.3922 66.5027 70.7503 66.016C68.1085 65.5292 65.6471 64.3378 63.6265 62.5676C66.3668 58.7902 70.1641 55.9086 74.5398 54.2863C78.9154 52.6641 83.6735 52.3736 88.2139 53.4517Z" fill="#263238"/>
<path d="M77.906 44.2619C78.362 45.4937 78.4427 46.833 78.1377 48.1106C77.8327 49.3881 77.1559 50.5466 76.1926 51.4396C75.2294 52.3325 74.0231 52.9199 72.7261 53.1274C71.4291 53.3349 70.0997 53.1532 68.906 52.6053C67.7123 52.0574 66.7077 51.168 66.0194 50.0493C65.3311 48.9306 64.9899 47.633 65.0389 46.3205C65.0879 45.0079 65.5249 43.7394 66.2947 42.6752C67.0645 41.6109 68.1325 40.7988 69.3638 40.3415C70.1821 40.0375 71.0522 39.8978 71.9245 39.9304C72.7968 39.963 73.6541 40.1671 74.4475 40.5312C75.2408 40.8953 75.9546 41.4122 76.548 42.0524C77.1415 42.6925 77.6029 43.4433 77.906 44.2619Z" fill="#263238"/>
<path d="M121.829 37.6017C129.883 29.5482 129.883 16.4909 121.829 8.43734C113.776 0.383824 100.719 0.383826 92.665 8.43734C84.6115 16.4909 84.6115 29.5482 92.665 37.6017C100.719 45.6552 113.776 45.6552 121.829 37.6017Z" fill="#263238"/>
<path d="M124.11 20.7262C124.565 24.0634 124.019 27.4604 122.542 30.4873C121.065 33.5142 118.724 36.0348 115.813 37.7303C112.903 39.4257 109.556 40.2196 106.194 40.0116C102.832 39.8035 99.6082 38.6029 96.9293 36.5616C94.2504 34.5203 92.2374 31.7301 91.1449 28.5442C90.0525 25.3583 89.9298 21.9199 90.7924 18.6643C91.655 15.4086 93.4641 12.4821 95.9907 10.2551C98.5172 8.02802 101.648 6.60062 104.986 6.15353C107.2 5.84163 109.455 5.97214 111.618 6.53753C113.782 7.10291 115.812 8.09193 117.59 9.4473C119.369 10.8027 120.861 12.4975 121.98 14.4335C123.099 16.3696 123.823 18.5084 124.11 20.7262Z" fill="white"/>
<path d="M123.16 29.0368C122.076 31.9035 120.237 34.4242 117.839 36.3324C115.44 38.2406 112.571 39.4654 109.534 39.8774C106.497 40.2895 103.404 39.8735 100.584 38.6733C97.764 37.4732 95.3203 35.5335 93.5114 33.0592C97.5036 29.5356 102.45 27.2731 107.727 26.5573C113.003 25.8414 118.374 26.7042 123.16 29.0368Z" fill="#FF5811"/>
<path d="M112.492 21.8357C115.027 18.5045 114.382 13.7489 111.05 11.214C107.719 8.67899 102.964 9.32449 100.429 12.6557C97.8937 15.987 98.5393 20.7425 101.871 23.2775C105.202 25.8125 109.957 25.1669 112.492 21.8357Z" fill="#FF5811"/>
<path d="M133.277 224.68H100.791V230.315H133.277V224.68Z" fill="#FF5811"/>
<path opacity="0.2" d="M103.698 224.68H102.398V230.315H103.698V224.68Z" fill="black"/>
<path opacity="0.2" d="M107.192 224.68H105.891V230.315H107.192V224.68Z" fill="black"/>
<path opacity="0.2" d="M110.691 224.68H109.391V230.315H110.691V224.68Z" fill="black"/>
<path opacity="0.2" d="M114.191 224.68H112.891V230.315H114.191V224.68Z" fill="black"/>
<path opacity="0.2" d="M117.684 224.68H116.384V230.315H117.684V224.68Z" fill="black"/>
<path opacity="0.2" d="M121.184 224.68H119.884V230.315H121.184V224.68Z" fill="black"/>
<path opacity="0.2" d="M124.678 224.68H123.377V230.315H124.678V224.68Z" fill="black"/>
<path opacity="0.2" d="M128.177 224.68H126.877V230.315H128.177V224.68Z" fill="black"/>
<path opacity="0.2" d="M131.677 224.68H130.377V230.315H131.677V224.68Z" fill="black"/>
<path d="M132.13 219.043H99.6439V224.678H132.13V219.043Z" fill="#FF5811"/>
<path opacity="0.2" d="M102.551 219.043H101.25V224.678H102.551V219.043Z" fill="black"/>
<path opacity="0.2" d="M106.044 219.043H104.744V224.678H106.044V219.043Z" fill="black"/>
<path opacity="0.2" d="M109.544 219.043H108.243V224.678H109.544V219.043Z" fill="black"/>
<path opacity="0.2" d="M113.044 219.043H111.743V224.678H113.044V219.043Z" fill="black"/>
<path opacity="0.2" d="M116.537 219.043H115.237V224.678H116.537V219.043Z" fill="black"/>
<path opacity="0.2" d="M120.037 219.043H118.736V224.678H120.037V219.043Z" fill="black"/>
<path opacity="0.2" d="M123.536 219.043H122.236V224.678H123.536V219.043Z" fill="black"/>
<path opacity="0.2" d="M127.03 219.043H125.729V224.678H127.03V219.043Z" fill="black"/>
<path opacity="0.2" d="M130.53 219.043H129.229V224.678H130.53V219.043Z" fill="black"/>
<path d="M133.041 213.406H100.555V219.042H133.041V213.406Z" fill="#FF5811"/>
<path opacity="0.2" d="M103.462 213.406H102.162V219.042H103.462V213.406Z" fill="black"/>
<path opacity="0.2" d="M106.962 213.406H105.662V219.042H106.962V213.406Z" fill="black"/>
<path opacity="0.2" d="M110.455 213.406H109.155V219.042H110.455V213.406Z" fill="black"/>
<path opacity="0.2" d="M113.955 213.406H112.655V219.042H113.955V213.406Z" fill="black"/>
<path opacity="0.2" d="M117.455 213.406H116.154V219.042H117.455V213.406Z" fill="black"/>
<path opacity="0.2" d="M120.948 213.406H119.648V219.042H120.948V213.406Z" fill="black"/>
<path opacity="0.2" d="M124.448 213.406H123.148V219.042H124.448V213.406Z" fill="black"/>
<path opacity="0.2" d="M127.941 213.406H126.641V219.042H127.941V213.406Z" fill="black"/>
<path opacity="0.2" d="M131.441 213.406H130.141V219.042H131.441V213.406Z" fill="black"/>
<path d="M118.908 210.328C127.721 208.295 133.218 199.502 131.185 190.689C129.152 181.876 120.359 176.38 111.546 178.413C102.733 180.446 97.2363 189.238 99.2693 198.051C101.302 206.865 110.095 212.361 118.908 210.328Z" fill="#FF5811"/>
<path opacity="0.2" d="M126.902 201.653C125.461 203.96 123.369 205.787 120.889 206.904C118.409 208.021 115.654 208.378 112.972 207.929C110.289 207.48 107.8 206.246 105.819 204.383C103.838 202.519 102.455 200.11 101.843 197.46C101.231 194.81 101.419 192.038 102.383 189.495C103.347 186.952 105.043 184.751 107.257 183.172C109.471 181.593 112.104 180.706 114.823 180.624C117.541 180.541 120.223 181.266 122.529 182.708C125.621 184.64 127.819 187.722 128.639 191.275C129.459 194.828 128.834 198.561 126.902 201.653Z" fill="black"/>
<path d="M118.498 208.1C125.771 206.423 130.307 199.167 128.629 191.894C126.951 184.621 119.696 180.085 112.423 181.763C105.15 183.441 100.614 190.697 102.292 197.969C103.97 205.242 111.225 209.778 118.498 208.1Z" fill="#FF5811"/>
<path d="M119.973 197.32L117.946 200.571C117.868 200.694 117.766 200.8 117.645 200.883C117.524 200.965 117.388 201.021 117.245 201.049C117.101 201.084 116.952 201.089 116.806 201.065C116.661 201.041 116.521 200.988 116.397 200.908L113.541 199.124L112.113 201.406C112.037 201.531 111.937 201.64 111.817 201.724C111.697 201.809 111.562 201.867 111.418 201.897C111.278 201.931 111.132 201.937 110.99 201.914C110.848 201.891 110.711 201.84 110.589 201.763C110.462 201.686 110.351 201.584 110.263 201.464C110.175 201.344 110.113 201.207 110.079 201.061C110.041 200.92 110.032 200.771 110.055 200.626C110.079 200.481 110.132 200.343 110.213 200.22L111.654 197.912L108.824 196.14C108.7 196.064 108.593 195.963 108.509 195.845C108.425 195.727 108.365 195.593 108.333 195.452C108.297 195.31 108.291 195.163 108.315 195.019C108.339 194.876 108.393 194.738 108.473 194.617C108.546 194.491 108.646 194.382 108.764 194.297C108.883 194.212 109.018 194.154 109.161 194.126C109.303 194.09 109.45 194.084 109.594 194.108C109.737 194.132 109.875 194.186 109.996 194.266L116.626 198.41L117.468 197.058L110.863 192.927C110.738 192.854 110.629 192.755 110.544 192.638C110.458 192.521 110.398 192.387 110.366 192.245C110.329 192.103 110.322 191.955 110.347 191.81C110.371 191.665 110.425 191.526 110.506 191.404L112.534 188.165C112.608 188.04 112.708 187.932 112.826 187.848C112.945 187.763 113.08 187.704 113.222 187.674C113.364 187.64 113.51 187.635 113.654 187.659C113.798 187.683 113.935 187.736 114.057 187.815L116.868 189.574L118.296 187.286C118.447 187.037 118.69 186.858 118.972 186.788C119.123 186.752 119.28 186.748 119.433 186.777C119.586 186.805 119.731 186.866 119.858 186.954C119.98 187.03 120.085 187.129 120.167 187.246C120.249 187.363 120.307 187.496 120.336 187.636C120.373 187.778 120.379 187.925 120.355 188.069C120.33 188.212 120.276 188.35 120.196 188.471L118.768 190.76L121.643 192.558C121.897 192.715 122.079 192.968 122.147 193.259C122.186 193.4 122.194 193.548 122.173 193.693C122.151 193.838 122.098 193.977 122.019 194.1C121.941 194.226 121.837 194.335 121.716 194.421C121.594 194.506 121.457 194.566 121.312 194.597C121.169 194.628 121.021 194.629 120.877 194.6C120.734 194.572 120.597 194.514 120.477 194.432L113.847 190.288L113.012 191.627L119.622 195.758C119.748 195.835 119.857 195.937 119.942 196.058C120.028 196.178 120.088 196.315 120.12 196.459C120.16 196.604 120.168 196.757 120.142 196.906C120.117 197.054 120.059 197.196 119.973 197.32Z" fill="#FAFAFA"/>
<path opacity="0.4" d="M123.919 180.484C121.555 179.009 118.854 178.161 116.072 178.021C113.289 177.88 110.516 178.451 108.016 179.68C105.515 180.909 103.369 182.755 101.781 185.044C100.192 187.333 99.213 189.989 98.9363 192.761H131.537C131.293 190.268 130.479 187.864 129.158 185.735C127.837 183.606 126.045 181.809 123.919 180.484Z" fill="black"/>
<path opacity="0.2" d="M174.917 50.1758H56.0405C55.0498 50.1749 54.0777 50.4454 53.2297 50.9579C52.3818 51.4704 51.6904 52.2053 51.2306 53.083C50.7708 53.9606 50.5601 54.9473 50.6214 55.9362C50.6826 56.9251 51.0136 57.8783 51.5782 58.6925L64.8504 77.855C65.3496 78.5768 66.0163 79.1667 66.7935 79.5742C67.5708 79.9817 68.4352 80.1945 69.3128 80.1945H161.645C162.522 80.1951 163.387 79.9825 164.164 79.5749C164.942 79.1674 165.608 78.5772 166.107 77.855L179.379 58.6925C179.944 57.8783 180.275 56.9251 180.336 55.9362C180.397 54.9473 180.187 53.9606 179.727 53.083C179.267 52.2053 178.576 51.4704 177.728 50.9579C176.88 50.4454 175.908 50.1749 174.917 50.1758Z" fill="#FF5811"/>
<path d="M175.586 73.7383H55.3776L94.4675 157.949H136.49L175.586 73.7383Z" fill="#FF5811"/>
<path d="M68.8716 106.603L68.2934 106.871L72.2738 115.446L72.852 115.178L68.8716 106.603Z" fill="#FF5811"/>
<path d="M74.0267 117.72L73.4485 117.988L75.3112 122.001L75.8894 121.733L74.0267 117.72Z" fill="#FF5811"/>
<path opacity="0.2" d="M90.4642 73.7383H67.7191L102.168 157.949H109.525L90.4642 73.7383Z" fill="black"/>
<path d="M179.316 57.5391H51.6484C49.969 57.5391 48.6076 58.9005 48.6076 60.5798V70.6965C48.6076 72.3759 49.969 73.7373 51.6484 73.7373H179.316C180.995 73.7373 182.356 72.3759 182.356 70.6965V60.5798C182.356 58.9005 180.995 57.5391 179.316 57.5391Z" fill="#FF5811"/>
<path d="M130.319 188.491H100.645C99.5798 188.49 98.5543 188.087 97.774 187.363C96.9937 186.638 96.5162 185.645 96.4374 184.583L94.4676 157.949H136.49L134.501 184.583C134.424 185.641 133.951 186.631 133.175 187.356C132.4 188.08 131.38 188.485 130.319 188.491Z" fill="#FF5811"/>
<path opacity="0.2" d="M130.319 188.491H100.645C99.5798 188.49 98.5543 188.087 97.774 187.363C96.9937 186.638 96.5162 185.645 96.4374 184.583L94.4676 157.949H136.49L134.501 184.583C134.424 185.641 133.951 186.631 133.175 187.356C132.4 188.08 131.38 188.485 130.319 188.491Z" fill="black"/>
<path d="M211.61 224.985H206.389L206.045 212.898H211.266L211.61 224.985Z" fill="#FFB573"/>
<path opacity="0.2" d="M206.045 212.898L206.223 219.127H211.444L211.266 212.898H206.045Z" fill="black"/>
<path d="M251.962 206.012L247.391 208.53L240.099 198.745L244.669 196.227L251.962 206.012Z" fill="#FFB573"/>
<path opacity="0.2" d="M244.676 196.234L240.099 198.746L243.86 203.788L248.437 201.277L244.676 196.234Z" fill="black"/>
<path d="M232.098 76.9886C227.432 73.8012 225.322 70.5182 224.914 66.5595C225.698 70.7477 228.204 74.0817 233.801 76.893C233.849 76.9054 233.899 76.9054 233.947 76.893C234.005 76.8925 234.062 76.8762 234.111 76.8459C234.161 76.8156 234.201 76.7723 234.228 76.7208C234.247 76.6837 234.259 76.6431 234.263 76.6013C234.266 76.5595 234.261 76.5174 234.248 76.4775C234.235 76.4376 234.214 76.4008 234.187 76.3693C234.159 76.3377 234.125 76.312 234.087 76.2937C226.215 72.335 224.691 67.503 225.411 60.2931C225.615 59.3496 225.87 58.3807 226.176 57.3416C228.726 48.6273 214.523 46.8806 210.08 48.6974C199.16 53.1598 202.513 65.5523 205.618 70.2313C208.722 74.9104 198.338 78.0404 204.139 91.4083C209.94 104.776 229.236 104.438 234.738 97.4962C240.239 90.5541 239.914 82.3752 232.098 76.9886Z" fill="#263238"/>
<path d="M203.603 82.3747C203.54 83.248 203.469 84.0002 203.361 84.7971C203.253 85.5939 203.138 86.3716 203.01 87.1494C202.755 88.7112 202.373 90.2539 202.035 91.7902C201.287 94.8903 200.248 97.9126 198.931 100.817L198.682 101.365C198.586 101.563 198.548 101.677 198.351 102.054C197.973 102.734 197.432 103.31 196.776 103.73C196.169 104.106 195.489 104.347 194.781 104.438C194.218 104.508 193.648 104.508 193.085 104.438C191.33 104.155 189.638 103.566 188.087 102.697C185.298 101.173 182.695 99.3314 180.329 97.2087L181.904 95.0923C183.179 95.8127 184.498 96.5457 185.811 97.2023C187.097 97.8769 188.421 98.475 189.776 98.9936C190.951 99.4924 192.196 99.8064 193.467 99.9244C193.965 99.9244 194.264 99.7841 194.175 99.7841C194.086 99.7841 194.105 99.8287 194.111 99.7841L194.436 98.9235C195.458 96.2059 196.278 93.4168 196.891 90.579C197.209 89.151 197.464 87.7103 197.707 86.2696C197.949 84.829 198.14 83.3373 198.28 81.9922L203.603 82.3747Z" fill="#FFB573"/>
<path d="M199.976 75.9882C197.821 76.5364 196.336 85.4228 196.336 85.4228L202.265 89.4517C202.265 89.4517 207.951 80.527 206.293 78.1556C204.636 75.7842 203.112 75.2232 199.976 75.9882Z" fill="#FF5811"/>
<path opacity="0.2" d="M199.976 75.9882C197.821 76.5364 196.336 85.4228 196.336 85.4228L202.265 89.4517C202.265 89.4517 207.951 80.527 206.293 78.1556C204.636 75.7842 203.112 75.2232 199.976 75.9882Z" fill="black"/>
<path opacity="0.2" d="M200.167 77.9648L198.516 86.8895L201.844 89.1462L200.167 77.9648Z" fill="black"/>
<path d="M182.783 95.4431L179.596 90.4453L177.798 95.4431C177.798 95.4431 180.01 97.9548 182.12 97.4639L182.783 95.4431Z" fill="#FFB573"/>
<path d="M176.192 88.5781L174.069 92.4859L177.792 95.4437L179.59 90.4459L176.192 88.5781Z" fill="#FFB573"/>
<path d="M246.403 207.914L251.07 204.363C251.144 204.295 251.24 204.258 251.341 204.258C251.441 204.258 251.538 204.295 251.612 204.363L254.958 207.652C255.044 207.738 255.11 207.842 255.152 207.956C255.194 208.07 255.211 208.192 255.201 208.313C255.191 208.434 255.155 208.552 255.096 208.658C255.036 208.764 254.955 208.856 254.856 208.927C253.205 210.138 252.351 210.642 250.298 212.204C249.023 213.167 247.296 214.703 245.549 216.029C243.802 217.355 242.406 215.704 242.999 214.996C245.715 211.809 245.498 210.457 245.893 208.704C245.963 208.388 246.144 208.108 246.403 207.914Z" fill="#263238"/>
<path d="M206.211 224.391H212.075C212.177 224.388 212.276 224.423 212.354 224.489C212.431 224.555 212.482 224.647 212.496 224.748L213.134 229.382C213.146 229.499 213.134 229.618 213.098 229.73C213.061 229.842 213.002 229.946 212.923 230.033C212.844 230.121 212.748 230.191 212.64 230.24C212.533 230.288 212.416 230.313 212.298 230.313C210.252 230.313 209.27 230.16 206.689 230.16C205.108 230.16 200.55 230.326 198.357 230.326C196.164 230.326 196.049 228.158 196.961 227.961C201.053 227.081 203.935 225.87 205.318 224.71C205.567 224.499 205.884 224.386 206.211 224.391Z" fill="#263238"/>
<path d="M199.976 75.989C199.976 75.989 197.49 76.8687 202.469 107.493H223.665C223.308 98.8616 223.301 93.5451 227.419 75.8424C224.452 75.2276 221.444 74.8313 218.418 74.6567C215.216 74.4269 212.001 74.4269 208.799 74.6567C204.662 75.0328 199.976 75.989 199.976 75.989Z" fill="#FF5811"/>
<path opacity="0.2" d="M199.976 75.989C199.976 75.989 197.49 76.8687 202.469 107.493H223.665C223.308 98.8616 223.301 93.5451 227.419 75.8424C224.452 75.2276 221.444 74.8313 218.418 74.6567C215.216 74.4269 212.001 74.4269 208.799 74.6567C204.662 75.0328 199.976 75.989 199.976 75.989Z" fill="black"/>
<path d="M218.418 74.6567C215.216 74.4269 212.001 74.4269 208.799 74.6567C207.638 74.7587 206.44 74.9117 205.318 75.071C204.821 76.9325 204.923 79.5334 206.816 82.9375L207.913 84.8945L209.997 84.0594C211.54 83.422 219.349 80.139 221.854 76.0719L222.492 75.02C221.242 74.8607 219.846 74.7268 218.418 74.6567Z" fill="white"/>
<path d="M218.418 74.6535C216.257 72.5817 216.863 66.9082 217.468 63.8164L211.559 68.8461C212.158 71.2494 212.247 73.812 208.799 74.6407L208.161 74.6981C207.39 76.1579 207.199 78.3955 209.041 81.7103C209.041 81.7103 217.481 78.3126 219.68 74.7555C219.285 74.6981 218.845 74.6726 218.418 74.6535Z" fill="#FFB573"/>
<path opacity="0.2" d="M215.059 65.8711L211.559 68.8481C211.71 69.4074 211.81 69.9792 211.859 70.5565C213.178 70.3653 214.989 68.9182 215.129 67.5413C215.207 66.9849 215.184 66.4189 215.059 65.8711Z" fill="black"/>
<path d="M221.37 58.8698C219.821 63.8102 219.272 65.9394 216.104 67.89C211.336 70.8224 205.599 67.8454 205.637 62.5416C205.669 57.7606 208.187 50.4806 213.599 49.6965C214.79 49.5164 216.008 49.6442 217.136 50.0675C218.264 50.4908 219.265 51.1956 220.044 52.115C220.823 53.0343 221.353 54.1376 221.585 55.3199C221.817 56.5022 221.743 57.7242 221.37 58.8698Z" fill="#FFB573"/>
<path d="M222.358 51.6759C220.664 50.1123 218.466 49.2076 216.162 49.126C215.843 48.8397 215.445 48.6573 215.021 48.6033C212.617 48.1124 209.921 48.7563 208.69 50.2862C207.588 51.6759 211.342 52.4919 214.039 51.3827C214.428 55.6537 218.01 64.3872 221.453 63.6158C225.934 62.5831 225.972 55.0099 222.358 51.6759Z" fill="#263238"/>
<path d="M202.469 107.493C202.469 107.493 198.351 147.699 198.695 163.591C199.052 180.165 205.114 217.904 205.114 217.904H212.171C212.171 217.904 211.055 181.115 211.68 164.853C212.362 147.131 217.991 107.48 217.991 107.48L202.469 107.493Z" fill="#263238"/>
<path d="M212.783 218.175H204.502L203.896 215.536L213.172 215.211L212.783 218.175Z" fill="#FF5811"/>
<path opacity="0.2" d="M211.635 117.493C206.427 127.967 210.59 147.072 212.432 154.18C213.376 143.502 214.982 130.453 216.206 120.872C215.397 115.447 214.013 112.661 211.635 117.493Z" fill="black"/>
<path d="M208.066 107.492C208.066 107.492 212.866 149.285 216.493 162.704C220.796 178.641 242.177 203.343 242.177 203.343L248.411 199.913C248.411 199.913 233.584 172.183 230.288 163.788C223.276 145.875 229.281 119.164 223.665 107.492H208.066Z" fill="#263238"/>
<path d="M249.31 199.842L241.571 204.094L239.41 202.118L248.284 196.699L249.31 199.842Z" fill="#FF5811"/>
<path d="M213.032 58.2259C212.936 58.6339 212.636 58.9144 212.394 58.8634C212.152 58.8124 211.992 58.4108 212.094 58.0028C212.196 57.5948 212.49 57.3144 212.732 57.3654C212.974 57.4164 213.134 57.818 213.032 58.2259Z" fill="#263238"/>
<path d="M208.448 57.0919C208.346 57.4999 208.046 57.774 207.779 57.7294C207.511 57.6848 207.377 57.2768 207.479 56.8688C207.581 56.4608 207.874 56.1867 208.117 56.2313C208.359 56.2759 208.512 56.6839 208.448 57.0919Z" fill="#263238"/>
<path d="M208.225 56.2844L207.313 55.7617C207.313 55.7617 207.626 56.6478 208.225 56.2844Z" fill="#263238"/>
<path d="M209.659 58.1758C209.066 59.02 208.358 59.7773 207.556 60.4261C207.726 60.6276 207.94 60.7892 208.18 60.8993C208.42 61.0095 208.681 61.0655 208.945 61.0635L209.659 58.1758Z" fill="#ED893E"/>
<path d="M210.781 63.2129C210.566 63.1958 210.353 63.1595 210.144 63.1045C210.128 63.1017 210.113 63.0954 210.099 63.0862C210.086 63.0771 210.075 63.0652 210.066 63.0513C210.058 63.0374 210.052 63.022 210.05 63.0059C210.048 62.9898 210.05 62.9734 210.054 62.9579C210.058 62.9424 210.065 62.9278 210.074 62.9149C210.084 62.902 210.096 62.8911 210.109 62.8828C210.123 62.8746 210.138 62.869 210.154 62.8666C210.17 62.8642 210.186 62.8649 210.201 62.8687C210.708 63.0032 211.24 63.0156 211.754 62.9048C212.267 62.7939 212.746 62.5631 213.153 62.2312C213.164 62.2198 213.177 62.2108 213.192 62.2046C213.207 62.1985 213.223 62.1953 213.239 62.1953C213.255 62.1953 213.271 62.1985 213.285 62.2046C213.3 62.2108 213.313 62.2198 213.325 62.2312C213.348 62.255 213.361 62.2871 213.361 62.3205C213.361 62.3538 213.348 62.3859 213.325 62.4097C212.616 63.0027 211.702 63.2914 210.781 63.2129Z" fill="#263238"/>
<path d="M221.593 63.8066C221.313 64.217 220.956 64.5679 220.54 64.8393C220.124 65.1106 219.659 65.2969 219.17 65.3875C217.864 65.6234 217.335 64.425 217.806 63.2584C218.227 62.2065 219.413 60.8168 220.675 61.1101C220.949 61.1804 221.201 61.3178 221.408 61.5098C221.616 61.7019 221.772 61.9426 221.863 62.2102C221.954 62.4778 221.977 62.7638 221.93 63.0426C221.883 63.3213 221.767 63.5839 221.593 63.8066Z" fill="#FFB573"/>
<path d="M215.123 57.7429C215.069 57.7399 215.019 57.7195 214.979 57.685C214.938 57.6504 214.91 57.6036 214.899 57.5517C214.644 56.4425 213.287 55.8751 213.274 55.8687C213.243 55.8568 213.215 55.8389 213.191 55.816C213.168 55.7931 213.149 55.7658 213.136 55.7355C213.123 55.7053 213.116 55.6727 213.115 55.6398C213.115 55.6068 213.121 55.5741 213.134 55.5436C213.159 55.4828 213.207 55.4345 213.268 55.4094C213.329 55.3842 213.398 55.3844 213.459 55.4097C213.522 55.4097 215.071 56.0472 215.371 57.4433C215.379 57.4751 215.38 57.5081 215.375 57.5404C215.37 57.5727 215.358 57.6036 215.341 57.6315C215.324 57.6593 215.301 57.6835 215.275 57.7026C215.248 57.7217 215.218 57.7354 215.186 57.7429C215.165 57.7474 215.144 57.7474 215.123 57.7429Z" fill="#263238"/>
<path d="M207.549 54.6128C207.507 54.6095 207.466 54.5947 207.431 54.57C207.396 54.5453 207.369 54.5116 207.352 54.4726C207.338 54.4437 207.329 54.4124 207.328 54.3804C207.326 54.3483 207.33 54.3163 207.341 54.286C207.352 54.2558 207.368 54.228 207.39 54.2042C207.411 54.1804 207.437 54.1611 207.466 54.1475C207.818 53.9723 208.207 53.8843 208.599 53.891C208.992 53.8976 209.378 53.9987 209.723 54.1857C209.769 54.2237 209.8 54.277 209.81 54.3359C209.82 54.3947 209.808 54.4552 209.777 54.5062C209.746 54.5573 209.698 54.5955 209.641 54.6139C209.585 54.6323 209.523 54.6296 209.468 54.6064C209.193 54.4613 208.887 54.3854 208.576 54.3854C208.265 54.3854 207.958 54.4613 207.683 54.6064C207.64 54.6208 207.594 54.623 207.549 54.6128Z" fill="#263238"/>
<path d="M229.861 81.918C230.498 85.0735 230.97 88.1907 231.334 91.3717C231.525 92.9527 231.665 94.5591 231.773 96.1528C231.831 96.9496 231.863 97.7592 231.895 98.5624L231.926 99.78V100.277C231.926 100.424 231.926 100.577 231.926 100.73C231.846 101.445 231.537 102.116 231.047 102.642C230.667 103.034 230.206 103.336 229.695 103.528C229.362 103.656 229.016 103.748 228.663 103.802C228.131 103.882 227.593 103.908 227.056 103.879C226.166 103.832 225.28 103.723 224.404 103.554C222.795 103.231 221.205 102.818 219.642 102.317C218.112 101.826 216.608 101.297 215.116 100.736C213.624 100.175 212.165 99.5697 210.705 98.8939L211.591 96.4078C213.083 96.7648 214.6 97.1536 216.111 97.4915C217.621 97.8293 219.126 98.1863 220.624 98.4732C222.122 98.7601 223.62 99.0278 225.086 99.1744C225.759 99.2547 226.436 99.2866 227.113 99.27C227.36 99.2654 227.606 99.2355 227.847 99.1808C227.936 99.1808 227.961 99.1362 227.942 99.1426C227.797 99.1879 227.669 99.2743 227.572 99.3912C227.353 99.627 227.212 99.9257 227.171 100.245C227.161 100.3 227.161 100.356 227.171 100.411C227.171 100.411 227.171 100.335 227.171 100.303V100.022L227.069 98.8939L226.82 96.6181C226.635 95.101 226.425 93.5838 226.183 92.0602C225.94 90.5366 225.711 89.0131 225.456 87.4895C225.201 85.9659 224.94 84.4296 224.685 82.9443L229.861 81.918Z" fill="#FFB573"/>
<path d="M227.419 75.8615C229.549 76.499 232.098 83.8172 232.098 83.8172L223.856 89.7075C223.856 89.7075 220.853 83.6005 221.746 80.8594C222.677 77.978 225.022 75.103 227.419 75.8615Z" fill="#FF5811"/>
<path opacity="0.2" d="M227.419 75.8615C229.549 76.499 232.098 83.8172 232.098 83.8172L223.856 89.7075C223.856 89.7075 220.853 83.6005 221.746 80.8594C222.677 77.978 225.022 75.103 227.419 75.8615Z" fill="black"/>
<path d="M244.644 210.112H244.58C244.461 210.101 244.346 210.058 244.248 209.989C244.149 209.919 244.071 209.826 244.019 209.717C243.984 209.652 243.965 209.578 243.965 209.503C243.965 209.429 243.984 209.355 244.019 209.29C244.338 208.703 246.219 208.557 246.435 208.544C246.459 208.541 246.483 208.545 246.503 208.557C246.524 208.568 246.541 208.586 246.55 208.608C246.564 208.627 246.572 208.651 246.572 208.675C246.572 208.699 246.564 208.722 246.55 208.742C246.091 209.258 245.294 210.112 244.644 210.112ZM246.129 208.837C245.383 208.914 244.389 209.118 244.217 209.424C244.198 209.452 244.188 209.485 244.188 209.519C244.188 209.553 244.198 209.587 244.217 209.615C244.248 209.689 244.298 209.753 244.362 209.801C244.425 209.849 244.501 209.88 244.58 209.889C244.956 209.889 245.517 209.507 246.129 208.812V208.837Z" fill="#FF5811"/>
<path d="M246.244 208.793C245.607 208.793 244.408 208.487 244.172 207.996C244.13 207.908 244.118 207.808 244.14 207.713C244.162 207.618 244.216 207.533 244.293 207.473C244.36 207.406 244.441 207.354 244.531 207.322C244.62 207.29 244.715 207.279 244.81 207.288C245.568 207.339 246.48 208.531 246.518 208.563C246.529 208.582 246.534 208.603 246.534 208.624C246.534 208.645 246.529 208.666 246.518 208.684C246.51 208.704 246.497 208.722 246.48 208.735C246.463 208.748 246.444 208.757 246.422 208.761L246.244 208.793ZM244.752 207.518C244.699 207.517 244.646 207.528 244.596 207.548C244.547 207.569 244.502 207.6 244.465 207.639C244.351 207.747 244.37 207.824 244.395 207.875C244.555 208.206 245.536 208.512 246.174 208.512C245.849 208.13 245.243 207.531 244.791 207.492L244.752 207.518Z" fill="#FF5811"/>
<path d="M204.254 225.289C203.804 225.332 203.353 225.217 202.979 224.964C202.892 224.893 202.826 224.8 202.787 224.694C202.747 224.589 202.737 224.476 202.756 224.365C202.759 224.297 202.78 224.231 202.815 224.173C202.851 224.115 202.901 224.067 202.96 224.033C203.597 223.689 205.682 224.747 205.917 224.868C205.94 224.881 205.958 224.9 205.97 224.923C205.982 224.946 205.986 224.972 205.982 224.997C205.979 225.023 205.968 225.047 205.951 225.066C205.933 225.085 205.911 225.098 205.886 225.104C205.348 225.213 204.802 225.275 204.254 225.289ZM203.323 224.205C203.244 224.204 203.166 224.219 203.093 224.25C203.069 224.264 203.048 224.285 203.034 224.309C203.019 224.334 203.011 224.362 203.011 224.39C203.001 224.463 203.008 224.536 203.033 224.605C203.057 224.674 203.098 224.736 203.151 224.786C203.47 225.066 204.33 225.117 205.484 224.926C204.818 224.567 204.096 224.323 203.348 224.205H203.323Z" fill="#FF5811"/>
<path d="M205.898 225.105H205.847C205.21 224.825 203.992 223.703 204.094 223.11C204.094 222.97 204.215 222.798 204.553 222.759C204.677 222.746 204.802 222.758 204.92 222.795C205.039 222.832 205.148 222.894 205.242 222.976C205.879 223.518 206.019 224.927 206.019 224.984C206.022 225.005 206.019 225.027 206.01 225.046C206.001 225.065 205.987 225.082 205.968 225.093C205.947 225.106 205.922 225.11 205.898 225.105ZM204.623 222.989H204.547C204.324 222.989 204.311 223.097 204.305 223.129C204.247 223.486 205.082 224.404 205.713 224.755C205.671 224.165 205.449 223.602 205.076 223.142C204.951 223.034 204.788 222.979 204.623 222.989Z" fill="#FF5811"/>
<path d="M212.847 57.4236L211.935 56.8945C211.935 56.8945 212.273 57.787 212.847 57.4236Z" fill="#263238"/>
<path d="M223.983 106.25L224.525 108.163C224.595 108.309 224.423 108.462 224.181 108.462H202.36C202.169 108.462 202.016 108.367 202.003 108.246L201.812 106.333C201.812 106.199 201.965 106.091 202.169 106.091H223.639C223.705 106.086 223.772 106.098 223.832 106.126C223.892 106.154 223.944 106.197 223.983 106.25Z" fill="#FF5811"/>
<path d="M221.102 108.646H221.676C221.791 108.646 221.873 108.589 221.867 108.519L221.599 106.052C221.599 105.975 221.491 105.918 221.376 105.918H220.802C220.688 105.918 220.598 105.975 220.605 106.052L220.879 108.519C220.885 108.589 220.987 108.646 221.102 108.646Z" fill="#263238"/>
<path d="M203.986 108.646H204.56C204.674 108.646 204.764 108.589 204.751 108.519L204.483 106.052C204.483 105.975 204.375 105.918 204.26 105.918H203.686C203.571 105.918 203.482 105.975 203.495 106.052L203.763 108.519C203.763 108.589 203.865 108.646 203.986 108.646Z" fill="#263238"/>
<path d="M212.541 108.646H213.114C213.229 108.646 213.318 108.589 213.306 108.519L213.038 106.052C213.038 105.975 212.93 105.918 212.815 105.918H212.273C212.158 105.918 212.069 105.975 212.082 106.052L212.35 108.519C212.324 108.589 212.426 108.646 212.541 108.646Z" fill="#263238"/>
<path d="M192.422 114.694C201.903 114.694 209.589 107.008 209.589 97.5266C209.589 88.0454 201.903 80.3594 192.422 80.3594C182.941 80.3594 175.255 88.0454 175.255 97.5266C175.255 107.008 182.941 114.694 192.422 114.694Z" fill="#FF5811"/>
<path opacity="0.4" d="M192.422 114.694C201.903 114.694 209.589 107.008 209.589 97.5266C209.589 88.0454 201.903 80.3594 192.422 80.3594C182.941 80.3594 175.255 88.0454 175.255 97.5266C175.255 107.008 182.941 114.694 192.422 114.694Z" fill="black"/>
<path d="M178.385 95.6207C177.884 99.3392 178.877 103.105 181.148 106.092C183.418 109.079 186.78 111.045 190.497 111.558C193.275 111.94 196.104 111.489 198.626 110.263C201.147 109.036 203.249 107.089 204.663 104.668C206.078 102.247 206.743 99.4606 206.573 96.6615C206.404 93.8625 205.407 91.1767 203.711 88.9441C202.014 86.7115 199.693 85.0324 197.041 84.1196C194.39 83.2067 191.527 83.101 188.816 83.8158C186.104 84.5307 183.666 86.0339 181.809 88.1353C179.952 90.2367 178.76 92.8418 178.385 95.6207Z" fill="#FF5811"/>
<path d="M179.175 102.539C180.078 104.926 181.608 107.025 183.604 108.614C185.601 110.203 187.99 111.223 190.518 111.566C193.047 111.91 195.621 111.564 197.969 110.565C200.317 109.567 202.352 107.952 203.858 105.892C200.536 102.956 196.418 101.07 192.025 100.474C187.632 99.8768 183.16 100.596 179.175 102.539Z" fill="white"/>
<path d="M199.03 94.8204C200.189 91.533 198.463 87.9291 195.175 86.7708C191.888 85.6125 188.284 87.3384 187.126 90.6258C185.967 93.9132 187.693 97.5171 190.981 98.6754C194.268 99.8337 197.872 98.1078 199.03 94.8204Z" fill="white"/>
<path d="M212.184 96.5225L208.238 92.5L207.734 97.7847C207.734 97.7847 210.507 99.6971 212.432 98.6644L212.184 96.5225Z" fill="#FFB573"/>
<path d="M203.884 91.9258L203.705 96.3754L207.734 97.7842L208.238 92.4995L203.884 91.9258Z" fill="#FFB573"/>
</g>
<defs>
<clipPath id="clip0_2_3852">
<rect width="318.738" height="237.53" fill="white" transform="translate(0.631226)"/>
</clipPath>
</defs>
</svg>
