<svg width="328" height="284" viewBox="0 0 328 284" fill="none" xmlns="http://www.w3.org/2000/svg">
<g clip-path="url(#clip0_2_3284)">
<path d="M239.274 276.515C238.122 275.523 235.558 272.393 237.536 268.757C238.26 267.424 239.803 266.764 241.201 266.178C242.639 265.689 243.995 264.986 245.222 264.091C247.395 262.237 247.996 259.158 249.445 256.688C251.104 253.848 254.205 251.725 257.479 251.87C261.224 252.044 264.354 255.101 265.774 258.593C267.194 262.085 267.223 265.96 267.266 269.735C267.266 271.821 267.194 274.168 265.658 275.574C264.253 276.877 262.123 276.892 260.21 276.834L239.723 276.204" fill="#F5F5F5"/>
<path d="M278.459 220.176H224.583L234.29 278.043C234.491 279.25 235.03 280.375 235.844 281.288C236.658 282.201 237.714 282.864 238.89 283.201L239.079 283.252C239.238 283.288 239.39 283.346 239.557 283.375C239.918 283.445 240.283 283.486 240.651 283.498V283.556L240.919 283.512H264.934C265.376 283.513 265.818 283.469 266.252 283.382C267.652 283.159 268.94 282.486 269.923 281.465C270.906 280.445 271.53 279.131 271.7 277.724L276.38 237.881L276.59 236.294L278.444 220.502L278.459 220.176ZM268.317 257.085H262.789L263.347 240.293H269.751L268.317 257.085ZM270.294 240.293H275.583L273.612 257.085H268.831L270.294 240.293ZM254.495 275.71L254.161 261.113H262.13L261.645 275.71H254.495ZM245.867 261.113H253.604L253.937 275.71H246.997L245.867 261.113ZM246.461 275.71H239.977C239.361 271.769 238.528 266.648 237.688 261.113H245.331L246.461 275.71ZM245.548 257.085L244.244 240.293H253.118L253.509 257.085H245.548ZM254.045 257.085L253.654 240.293H262.789L262.231 257.085H254.045ZM253.567 236.265L253.205 220.712H263.441L262.927 236.265H253.567ZM253.031 236.265H243.932L242.723 220.712H252.669L253.031 236.265ZM243.396 236.265H233.776C233.435 234.092 233.11 232.085 232.82 230.253C231.813 223.965 231.436 221.603 231.226 220.712H242.187L243.396 236.265ZM243.708 240.293L245.012 257.085H237.043C236.775 255.383 236.5 253.659 236.232 251.935C235.609 247.972 234.986 244.009 234.399 240.293H243.708ZM236.514 257.085H231.313L228.495 240.293H233.87C234.689 245.48 235.602 251.261 236.514 257.085ZM237.145 261.113C237.941 266.184 238.717 271.146 239.434 275.71H234.421L231.979 261.113H237.145ZM262.152 275.71L262.637 261.113H267.954L266.708 275.71H262.152ZM263.463 236.265L263.977 220.712H271.403L270.077 236.265H263.463ZM230.719 220.712C230.929 221.835 231.914 227.956 233.233 236.265H227.821L225.213 220.712H230.719ZM271.41 275.71H267.244L268.469 261.113H273.098L271.41 275.71ZM276.039 236.265H270.642L271.975 220.712H277.886L276.039 236.265Z" fill="#E0E0E0"/>
<path d="M66.1944 97.5656L65.8611 96.9208L64.9049 95.0518L61.3842 87.9452L48.8081 62.3729L49.011 62.4454L0.771389 86.0834L0.85832 85.8299L18.0924 121.102L17.8679 121.023L52.6983 104.078L62.6229 99.2463L65.2671 97.9785L65.9915 97.6525L66.2306 97.5438C66.1627 97.5863 66.0926 97.625 66.0205 97.6598L65.354 98.0002L62.7316 99.3114L52.8721 104.187L18.0127 121.334L17.8534 121.406L17.7809 121.254C12.5795 110.634 6.71169 98.645 0.510595 85.9965L0.430908 85.8299L0.597526 85.7429L48.8806 62.1629L49.0182 62.0977L49.0834 62.2353L61.5798 87.9669C63.0286 91.0313 64.2239 93.4291 65.0135 95.0808C65.4047 95.8849 65.7017 96.5296 65.9046 96.9353C66.1074 97.341 66.1944 97.5656 66.1944 97.5656Z" fill="#E0E0E0"/>
<path d="M48.9675 62.3008C48.9638 62.3679 48.9491 62.434 48.924 62.4964C48.8757 62.6316 48.8178 62.8127 48.7501 63.0397C48.5763 63.5395 48.3445 64.235 48.0257 65.1188L45.3961 72.7398L36.5725 97.8339C36.0944 98.073 36.4277 97.8991 36.319 97.9498H36.2755H36.2176H36.1017L35.8698 97.8774L35.4135 97.718L34.479 97.3413L32.6679 96.74L29.1254 95.5592L22.4245 93.3207L11.0872 89.5175L3.46625 86.9313L1.39439 86.2069L0.858311 86.0113C0.798084 85.99 0.739895 85.9633 0.684448 85.9316C0.749076 85.9364 0.81259 85.9511 0.872799 85.975L1.42336 86.1344L3.50971 86.7936L11.1814 89.2784L22.5476 93.0092L29.2558 95.226L32.7983 96.3995L34.6166 97.0008L35.5294 97.3051L35.993 97.4572L36.2248 97.5369H36.3407H36.3987H36.4421C36.3407 97.5876 36.6884 97.421 36.2176 97.6528C39.6948 87.8803 42.8461 79.0278 45.1425 72.5949L47.8881 65.0101L48.656 63.0252C48.7429 62.8079 48.8081 62.634 48.8661 62.4964C48.8878 62.4256 48.9222 62.3594 48.9675 62.3008Z" fill="#E0E0E0"/>
<path d="M24.4674 93.8126C24.5688 93.8126 23.1852 100.021 21.3813 107.627C19.5775 115.234 18.0345 121.391 17.9331 121.391C17.8316 121.391 19.208 115.183 21.0191 107.577C22.8302 99.9702 24.337 93.7908 24.4674 93.8126Z" fill="#E0E0E0"/>
<path d="M66.7087 97.7959C66.6652 97.8901 60.8626 95.0504 53.7632 91.4572C46.6638 87.864 40.9336 84.9011 40.9988 84.807C41.064 84.7128 46.8377 87.5525 53.9443 91.1457C61.0509 94.7389 66.7594 97.7307 66.7087 97.7959Z" fill="#E0E0E0"/>
<path d="M304.886 101.709L305.219 101.231L306.182 99.8614L309.884 94.6817L323.257 76.0639L323.293 76.274L286.051 49.3761L286.311 49.3326L267.81 74.8904L267.744 74.6151L294.548 94.1022L302.184 99.6802L304.212 101.18L304.741 101.571L304.915 101.709L304.741 101.6L304.219 101.231L302.198 99.7817C300.409 98.4994 297.852 96.6376 294.534 94.2977L267.592 74.9121L267.455 74.8107L267.556 74.673L286.036 49.0935L286.145 48.9414L286.297 49.0501L323.489 75.9987L323.612 76.0929L323.525 76.2161C317.867 83.9819 313.209 90.3641 309.964 94.8266L306.226 99.8976L305.248 101.223C305.002 101.571 304.886 101.709 304.886 101.709Z" fill="#E0E0E0"/>
<path d="M323.38 76.1463C323.176 76.2015 322.968 76.2402 322.757 76.2622L320.953 76.5085L314.31 77.3633L292.375 80.0292C291.962 79.7322 292.259 79.9422 292.165 79.8698V79.7829V79.6815L292.121 79.4859L292.042 79.0947L291.882 78.305C291.781 77.7835 291.672 77.2691 291.571 76.7475C291.361 75.7188 291.158 74.7046 290.955 73.7122C290.554 71.7128 290.17 69.7954 289.803 67.9602L287.876 58.2167C287.34 55.4711 286.913 53.2326 286.601 51.6461C286.471 50.9217 286.355 50.2915 286.275 49.8496C286.231 49.6443 286.202 49.4361 286.188 49.2266C286.264 49.4232 286.32 49.6271 286.355 49.8351C286.447 50.2794 286.577 50.8734 286.746 51.6172C287.087 53.1964 287.557 55.4277 288.137 58.137L290.144 67.8588C290.52 69.6916 290.912 71.6186 291.317 73.6108L291.94 76.6461C292.042 77.1605 292.15 77.682 292.252 78.2036L292.411 78.986L292.491 79.3844L292.534 79.58V79.6815V79.7684C292.44 79.7032 292.744 79.9278 292.331 79.6235L314.274 77.0663L320.924 76.3418L322.743 76.1607C322.955 76.1378 323.168 76.1329 323.38 76.1463Z" fill="#E0E0E0"/>
<path d="M290.288 69.6168C290.288 69.7182 285.218 70.9714 278.951 72.4131C272.685 73.8547 267.556 74.9558 267.534 74.8544C267.513 74.753 272.605 73.4924 278.872 72.0508C285.138 70.6092 290.267 69.5443 290.288 69.6168Z" fill="#E0E0E0"/>
<path d="M304.915 102.181C304.806 102.181 304.451 96.8926 304.118 90.3511C303.785 83.8095 303.596 78.4994 303.698 78.4922C303.799 78.485 304.161 83.7878 304.494 90.3293C304.828 96.8709 305.016 102.181 304.915 102.181Z" fill="#E0E0E0"/>
<path d="M231.863 234.395C231.863 234.395 232.066 234.467 232.429 234.619L234.037 235.279L240.136 237.829L262.108 247.072L261.905 247.152C267.071 234.974 273.532 219.718 280.53 203.194L280.632 203.44L250.452 190.611L250.677 190.516C245.157 203.44 240.477 214.422 237.166 222.13L233.283 231.157C232.834 232.2 232.486 233.004 232.24 233.562L231.965 234.185C231.936 234.257 231.902 234.327 231.863 234.395C231.863 234.395 231.863 234.33 231.943 234.192C232.023 234.054 232.081 233.844 232.189 233.583C232.421 233.026 232.747 232.229 233.182 231.193C234.066 229.085 235.355 226.028 236.963 222.167L250.358 190.386L250.423 190.227L250.583 190.292L280.784 203.092L280.958 203.165L280.885 203.339L262.195 247.261L262.137 247.406L261.992 247.34L239.999 237.923L233.964 235.322L232.392 234.634C232.037 234.482 231.863 234.395 231.863 234.395Z" fill="#E0E0E0"/>
<path d="M262.05 247.209C262.005 247.156 261.97 247.095 261.949 247.028L261.768 246.572C261.601 246.137 261.377 245.55 261.101 244.804L258.696 238.284L250.923 216.689C251.119 216.211 250.981 216.552 251.032 216.45H251.075L251.177 216.407L251.365 216.32L251.749 216.153L252.473 215.806L253.98 215.132L256.921 213.806L262.478 211.307L271.895 207.091L278.263 204.28L280.002 203.555L280.458 203.367L280.617 203.316C280.574 203.354 280.525 203.383 280.472 203.403L280.031 203.621L278.321 204.432L272.011 207.33L262.594 211.611L257.045 214.132L254.103 215.465L252.604 216.146L251.843 216.486L251.459 216.66L251.271 216.747L251.177 216.791H251.126H251.09C251.133 216.689 250.981 217.03 251.184 216.559L258.856 238.198L261.145 244.768C261.398 245.493 261.594 246.123 261.746 246.565L261.891 247.028C261.951 247.082 262.005 247.143 262.05 247.209Z" fill="#E0E0E0"/>
<path d="M261 212.17C260.906 212.221 258.464 207.367 255.545 201.34C252.626 195.313 250.329 190.38 250.423 190.336C250.517 190.293 252.966 195.139 255.885 201.203C258.805 207.266 261.094 212.127 261 212.17Z" fill="#E0E0E0"/>
<path d="M231.393 234.526C231.393 234.432 236.652 232.845 243.201 230.991C249.75 229.136 255.089 227.716 255.118 227.818C255.147 227.919 249.858 229.498 243.302 231.353C236.746 233.207 231.422 234.627 231.393 234.526Z" fill="#E0E0E0"/>
<path d="M278.683 0H62.0869V182.085H278.683V0Z" fill="#EBEBEB"/>
<path d="M62.4998 12.5673C62.4998 12.4658 110.805 12.3789 170.374 12.3789C229.944 12.3789 278.263 12.4658 278.263 12.5673C278.263 12.6687 229.965 12.7556 170.374 12.7556C110.783 12.7556 62.4998 12.6759 62.4998 12.5673Z" fill="#E0E0E0"/>
<path d="M69.0993 8.3668C70.3796 8.3668 71.4175 7.32892 71.4175 6.04863C71.4175 4.76835 70.3796 3.73047 69.0993 3.73047C67.819 3.73047 66.7811 4.76835 66.7811 6.04863C66.7811 7.32892 67.819 8.3668 69.0993 8.3668Z" fill="#E0E0E0"/>
<path d="M75.5394 8.3668C76.8197 8.3668 77.8576 7.32892 77.8576 6.04863C77.8576 4.76835 76.8197 3.73047 75.5394 3.73047C74.2592 3.73047 73.2213 4.76835 73.2213 6.04863C73.2213 7.32892 74.2592 8.3668 75.5394 8.3668Z" fill="#E0E0E0"/>
<path d="M82.6823 8.3668C83.9626 8.3668 85.0005 7.32892 85.0005 6.04863C85.0005 4.76835 83.9626 3.73047 82.6823 3.73047C81.402 3.73047 80.3641 4.76835 80.3641 6.04863C80.3641 7.32892 81.402 8.3668 82.6823 8.3668Z" fill="#E0E0E0"/>
<path d="M270.345 201.392C270.345 200.067 270.28 127.117 270.186 14.5628L270.345 14.7149H48.1199L48.3083 14.5266C48.3083 82.2242 48.3083 146.082 48.3083 201.356L48.1417 201.19L270.388 201.356L48.1417 201.523H47.975V201.392C47.975 146.119 47.975 82.2604 47.975 14.5628V14.3672H48.1851L270.41 14.4034H270.57V14.5628C270.403 127.146 270.345 200.096 270.345 201.392Z" fill="#FAFAFA"/>
<path d="M270.345 14.5898H48.0982V201.419H270.345V14.5898Z" fill="#FAFAFA"/>
<path d="M128.328 27.4883H48.5256V45.7801H128.328V27.4883Z" fill="#EBEBEB"/>
<path d="M68.6574 42.2281C68.6313 42.0045 68.6192 41.7795 68.6212 41.5544C68.6212 41.0835 68.6212 40.475 68.6212 39.7071C68.6212 38.0917 68.5705 35.8459 68.5415 33.1293L68.6936 33.2815L55.4149 33.3249C55.3714 33.3249 55.7699 32.9627 55.6033 33.1366V37.8453C55.6033 39.3666 55.6033 40.83 55.6033 42.1919L55.4294 42.018L64.9049 42.1412L67.6432 42.1847H68.3676H68.6357C68.3251 42.2134 68.0131 42.2255 67.7012 42.2209L64.9991 42.2716L55.3932 42.3585H55.2193V42.1847C55.2193 40.801 55.2193 39.3377 55.2193 37.8381C55.2193 37.1137 55.2193 36.3023 55.2193 35.5127V33.1511C55.0527 33.3177 55.4511 32.9192 55.4077 32.9555L68.6502 32.9989H68.8023V33.1438C68.8023 35.8966 68.7371 38.2148 68.7226 39.8158C68.7226 40.5402 68.7226 41.1705 68.6791 41.6269C68.6846 41.8275 68.6774 42.0284 68.6574 42.2281Z" fill="#263238"/>
<path d="M68.6574 33.1289C68.5251 33.3278 68.3667 33.5081 68.1866 33.665C67.8678 33.991 67.3969 34.4546 66.8101 35.0197C65.6293 36.1498 63.9921 37.6855 62.1666 39.3662H61.8985V39.3228L61.8116 39.2431L61.6377 39.0909L61.3045 38.7794L60.5583 38.1419L59.3268 36.9901L57.2477 35.0197C56.6609 34.4546 56.19 33.991 55.8713 33.665C55.6912 33.5081 55.5328 33.3278 55.4004 33.1289C55.6076 33.248 55.7997 33.3915 55.9727 33.5563C56.3204 33.8533 56.8203 34.2807 57.4216 34.8241L59.5514 36.7293L60.8046 37.8667L61.4639 38.4752L61.8044 38.7867L61.971 38.9388L62.0579 39.0185H62.1014H61.8623C63.6951 37.3306 65.3613 35.8238 66.5856 34.7444C67.1941 34.2011 67.6939 33.7736 68.0344 33.4766C68.2261 33.3342 68.4356 33.2173 68.6574 33.1289Z" fill="#263238"/>
<path d="M59.8339 37.1992C59.2379 38.1528 58.5409 39.0393 57.7548 39.8434C57.0607 40.7337 56.2685 41.5429 55.3932 42.2557C55.986 41.2975 56.6807 40.4061 57.465 39.5971C58.1606 38.7101 58.9554 37.9055 59.8339 37.1992Z" fill="#263238"/>
<path d="M68.7371 42.3284C67.885 41.5655 67.1175 40.713 66.4479 39.7857C65.6848 38.9335 65.0168 38.0008 64.4557 37.0039C65.31 37.7647 66.0778 38.6174 66.7449 39.5466C67.5109 40.3965 68.1791 41.3296 68.7371 42.3284Z" fill="#263238"/>
<path d="M119.164 36.3173C119.164 36.4187 109.827 36.5056 98.3082 36.5056C86.7898 36.5056 77.4447 36.4187 77.4447 36.3173C77.4447 36.2158 86.7826 36.1289 98.3082 36.1289C109.834 36.1289 119.164 36.2231 119.164 36.3173Z" fill="#263238"/>
<path d="M270.345 108.738H127.321V140.077H270.345V108.738Z" fill="#FF5811"/>
<g opacity="0.8">
<path d="M270.345 108.738H127.321V140.077H270.345V108.738Z" fill="white"/>
</g>
<path d="M146.635 118.539H138.152C137.251 118.539 136.522 119.269 136.522 120.169V128.652C136.522 129.552 137.251 130.282 138.152 130.282H146.635C147.535 130.282 148.265 129.552 148.265 128.652V120.169C148.265 119.269 147.535 118.539 146.635 118.539Z" fill="#FF5811"/>
<path d="M141.506 127.024C141.349 127.024 141.196 126.973 141.071 126.879L138.695 125.097C138.619 125.04 138.555 124.968 138.506 124.887C138.458 124.805 138.426 124.714 138.412 124.62C138.399 124.526 138.404 124.43 138.428 124.338C138.451 124.246 138.493 124.159 138.55 124.083C138.607 124.007 138.679 123.943 138.761 123.894C138.842 123.846 138.933 123.814 139.027 123.8C139.121 123.787 139.217 123.792 139.309 123.816C139.402 123.839 139.488 123.881 139.564 123.938L141.419 125.322L145.121 121.301C145.183 121.224 145.26 121.16 145.348 121.114C145.436 121.068 145.532 121.041 145.631 121.033C145.729 121.026 145.829 121.039 145.922 121.071C146.016 121.104 146.102 121.155 146.175 121.222C146.248 121.289 146.306 121.37 146.346 121.461C146.387 121.551 146.408 121.649 146.409 121.748C146.41 121.847 146.391 121.945 146.352 122.037C146.314 122.128 146.257 122.211 146.186 122.279L142.035 126.778C141.968 126.853 141.887 126.914 141.796 126.956C141.705 126.999 141.606 127.022 141.506 127.024Z" fill="white"/>
<path d="M270.345 77.2383H127.321V108.577H270.345V77.2383Z" fill="#FF5811"/>
<path d="M269.476 108.7C269.476 108.801 237.876 108.888 198.909 108.888C159.942 108.888 128.336 108.801 128.336 108.7C128.336 108.599 159.928 108.512 198.909 108.512C237.891 108.512 269.476 108.591 269.476 108.7Z" fill="#263238"/>
<path d="M270.417 171.395H127.394V201.422H270.417V171.395Z" fill="#FF5811"/>
<g opacity="0.8">
<path d="M270.417 171.395H127.394V201.422H270.417V171.395Z" fill="white"/>
</g>
<path d="M146.707 181.188H138.224C137.324 181.188 136.594 181.917 136.594 182.817V191.3C136.594 192.201 137.324 192.93 138.224 192.93H146.707C147.607 192.93 148.337 192.201 148.337 191.3V182.817C148.337 181.917 147.607 181.188 146.707 181.188Z" fill="#FF5811"/>
<path d="M141.578 189.669C141.421 189.669 141.269 189.618 141.144 189.524L138.796 187.75C138.72 187.693 138.656 187.621 138.608 187.539C138.559 187.457 138.527 187.367 138.514 187.273C138.5 187.178 138.506 187.082 138.529 186.99C138.553 186.898 138.594 186.812 138.651 186.735C138.709 186.659 138.78 186.595 138.862 186.547C138.944 186.498 139.034 186.466 139.129 186.453C139.223 186.439 139.319 186.445 139.411 186.468C139.503 186.492 139.59 186.533 139.666 186.591L141.52 187.974L145.222 183.946C145.353 183.804 145.534 183.72 145.727 183.712C145.92 183.703 146.109 183.772 146.251 183.903C146.393 184.034 146.477 184.215 146.485 184.408C146.494 184.601 146.425 184.789 146.294 184.932L142.136 189.438C142.065 189.514 141.979 189.574 141.882 189.614C141.786 189.654 141.682 189.673 141.578 189.669Z" fill="white"/>
<g opacity="0.8">
<path d="M270.345 77.2383H127.321V108.577H270.345V77.2383Z" fill="white"/>
</g>
<path d="M146.635 87.0352H138.152C137.251 87.0352 136.522 87.7649 136.522 88.6651V97.1482C136.522 98.0484 137.251 98.7781 138.152 98.7781H146.635C147.535 98.7781 148.265 98.0484 148.265 97.1482V88.6651C148.265 87.7649 147.535 87.0352 146.635 87.0352Z" fill="#FF5811"/>
<path d="M141.506 95.524C141.349 95.524 141.196 95.4732 141.071 95.3791L138.695 93.5971C138.619 93.54 138.555 93.4685 138.506 93.3866C138.458 93.3047 138.426 93.2141 138.412 93.12C138.399 93.0258 138.404 92.9299 138.428 92.8377C138.451 92.7456 138.493 92.659 138.55 92.5829C138.607 92.5068 138.679 92.4426 138.761 92.3942C138.842 92.3457 138.933 92.3138 139.027 92.3004C139.121 92.2869 139.217 92.2921 139.309 92.3158C139.402 92.3394 139.488 92.3809 139.564 92.438L141.419 93.8216L145.121 89.8011C145.183 89.7239 145.26 89.6604 145.348 89.6143C145.436 89.5683 145.532 89.5407 145.631 89.5333C145.729 89.5259 145.829 89.5388 145.922 89.5713C146.016 89.6038 146.102 89.6551 146.175 89.7221C146.248 89.7891 146.306 89.8704 146.346 89.9609C146.387 90.0514 146.408 90.1492 146.409 90.2482C146.41 90.3473 146.391 90.4455 146.352 90.5368C146.314 90.6281 146.257 90.7105 146.186 90.779L142.035 95.285C141.968 95.3591 141.886 95.4186 141.795 95.4598C141.704 95.5009 141.606 95.5228 141.506 95.524Z" fill="white"/>
<path d="M270.345 201.392C270.345 200.067 270.28 127.117 270.186 14.5628L270.345 14.7149H48.1199L48.3083 14.5266C48.3083 82.2242 48.3083 146.082 48.3083 201.356L48.1417 201.19L270.388 201.356L48.1417 201.523H47.975V201.392C47.975 146.119 47.975 82.2604 47.975 14.5628V14.3672H48.1851L270.41 14.4034H270.57V14.5628C270.403 127.146 270.345 200.096 270.345 201.392Z" fill="#FF5811"/>
<path d="M48.5256 27.4852C48.5256 27.3838 98.0909 27.2969 159.218 27.2969C220.345 27.2969 269.91 27.3838 269.91 27.4852C269.91 27.5866 220.36 27.6736 159.218 27.6736C98.0764 27.6736 48.5256 27.5939 48.5256 27.4852Z" fill="#FF5811"/>
<path d="M55.2917 23.1702C56.604 23.1702 57.6679 22.1064 57.6679 20.7941C57.6679 19.4818 56.604 18.418 55.2917 18.418C53.9794 18.418 52.9156 19.4818 52.9156 20.7941C52.9156 22.1064 53.9794 23.1702 55.2917 23.1702Z" fill="#FF5811"/>
<path d="M61.9058 23.1702C63.218 23.1702 64.2819 22.1064 64.2819 20.7941C64.2819 19.4818 63.218 18.418 61.9058 18.418C60.5935 18.418 59.5296 19.4818 59.5296 20.7941C59.5296 22.1064 60.5935 23.1702 61.9058 23.1702Z" fill="#FF5811"/>
<path d="M70.9176 19.1213C71.2498 19.4537 71.476 19.8771 71.5675 20.338C71.6591 20.7989 71.612 21.2765 71.4321 21.7106C71.2522 22.1447 70.9476 22.5158 70.5569 22.7768C70.1662 23.0378 69.7069 23.1771 69.237 23.1771C68.7671 23.1771 68.3077 23.0378 67.917 22.7768C67.5263 22.5158 67.2217 22.1447 67.0418 21.7106C66.862 21.2765 66.8148 20.7989 66.9064 20.338C66.998 19.8771 67.2241 19.4537 67.5563 19.1213C67.7765 18.8997 68.0383 18.7238 68.3268 18.6037C68.6152 18.4837 68.9245 18.4219 69.237 18.4219C69.5494 18.4219 69.8587 18.4837 70.1472 18.6037C70.4356 18.7238 70.6975 18.8997 70.9176 19.1213Z" fill="#FF5811"/>
<path d="M77.6258 53.1443C77.7949 53.1094 77.9676 53.0949 78.1402 53.1009L79.6397 53.0574L85.1599 52.9922H85.2395L85.283 53.0501L87.7098 56.2521V56.2956V56.3535C87.7098 57.8024 87.7098 59.4178 87.7098 61.0768V61.2651H85.3047H75.3656H75.2062V61.1058C75.2062 59.4758 75.2062 58.0197 75.2062 56.7592L76.8942 54.1078C77.0807 53.7943 77.2889 53.4941 77.5172 53.2095C77.4863 53.3045 77.4424 53.3947 77.3868 53.4776L76.9738 54.202L75.4091 56.8751V56.8172C75.4091 58.0487 75.4091 59.5048 75.4525 61.1637L75.2932 61.0043H85.2323H87.449L87.2607 61.1927C87.2607 59.5338 87.2607 57.94 87.2607 56.4694V56.5781L84.8701 53.3472L84.986 53.4051L79.5311 53.3399L78.0025 53.2964C77.8751 53.2506 77.7494 53.1998 77.6258 53.1443Z" fill="#263238"/>
<path d="M87.5722 56.5805C87.2321 56.6733 86.8815 56.722 86.529 56.7254C85.8553 56.7906 84.9063 56.8558 83.7617 56.9282L83.9211 56.7688C83.8901 57.3736 83.692 57.9578 83.3488 58.4567C83.1569 58.7254 82.9099 58.9501 82.6244 59.116C82.3076 59.2681 81.9616 59.3497 81.6102 59.355C81.2375 59.373 80.8655 59.3068 80.5218 59.1613C80.1782 59.0158 79.8718 58.7948 79.6252 58.5147C79.2058 58.0227 78.9256 57.4274 78.8139 56.7906L78.966 56.921C77.9084 56.921 77.0318 56.921 76.416 56.8558C76.0921 56.8676 75.768 56.8359 75.4525 56.7616C75.768 56.6872 76.0921 56.6555 76.416 56.6674C77.0318 56.6674 77.9084 56.6167 78.966 56.6022H79.0964V56.7398C79.2206 57.3099 79.4845 57.8401 79.8643 58.2829C80.0781 58.5224 80.3423 58.7116 80.6379 58.8369C80.9335 58.9621 81.2532 59.0203 81.574 59.0073C81.869 58.9991 82.1595 58.9326 82.4288 58.8117C82.6787 58.6797 82.8964 58.4942 83.0663 58.2684C83.3677 57.8408 83.5502 57.3408 83.5951 56.8195V56.6674H83.74C84.8846 56.6312 85.8408 56.6095 86.5073 56.6095C86.8595 56.5534 87.2175 56.5436 87.5722 56.5805Z" fill="#263238"/>
<path d="M114.803 53.5215C115.007 53.4722 115.217 53.4527 115.426 53.4636V53.6085C113.978 53.6809 109.493 53.7388 104.234 53.7388C100.974 53.7388 98.0184 53.7388 95.8814 53.6809L93.3531 53.6085C93.0424 53.6148 92.7318 53.5906 92.4258 53.536C92.7312 53.4763 93.0421 53.4496 93.3531 53.4563L95.8814 53.3984C98.0546 53.3984 100.952 53.3477 104.234 53.3477C109.493 53.3477 113.949 53.3984 115.426 53.4781V53.6085C115.216 53.6008 115.008 53.5716 114.803 53.5215Z" fill="#263238"/>
<path d="M114.803 58.2587C115.008 58.2135 115.217 58.1941 115.426 58.2007V58.3166C113.978 58.3963 109.493 58.447 104.234 58.447C100.974 58.447 98.0184 58.447 95.8814 58.3963L93.3531 58.3311C93.0423 58.3421 92.7312 58.3178 92.4258 58.2587C92.7318 58.2041 93.0424 58.1798 93.3531 58.1862L95.8814 58.1283C98.0546 58.1283 100.952 58.0703 104.234 58.0703C109.493 58.0703 113.949 58.1283 115.426 58.2007V58.3166C115.217 58.3274 115.007 58.3079 114.803 58.2587Z" fill="#263238"/>
<path d="M114.803 63.0282C115.007 62.9789 115.217 62.9594 115.426 62.9702V63.0862C113.978 63.1586 109.493 63.2165 104.234 63.2165C100.974 63.2165 98.0184 63.2165 95.8814 63.1586L93.3531 63.1006C93.0448 63.1065 92.7367 63.0823 92.4331 63.0282C92.7385 62.969 93.0495 62.9447 93.3604 62.9558L95.8886 62.8906C98.0619 62.8906 100.96 62.8398 104.241 62.8398C109.501 62.8398 113.956 62.8906 115.434 62.9702V63.0862C115.222 63.0885 115.011 63.0691 114.803 63.0282Z" fill="#263238"/>
<path d="M77.6258 87.0785C77.7949 87.0436 77.9676 87.029 78.1401 87.035L79.6397 86.9915L85.1888 86.9336H85.2685L85.312 86.9988L87.7388 90.2008V90.2442V90.3022C87.7388 91.751 87.7388 93.3665 87.7388 95.0254V95.2138H85.3337H75.3946H75.2352V95.0544C75.2352 93.4245 75.2352 91.9684 75.2352 90.7079L76.9231 88.0565C77.1096 87.7429 77.3178 87.4427 77.5461 87.1582C77.5153 87.2531 77.4714 87.3433 77.4157 87.4262L77.0028 88.1506L75.438 90.8238V90.7658C75.438 91.9973 75.438 93.4534 75.4815 95.1124L75.3221 94.953H85.2613H87.478L87.2897 95.1413C87.2897 93.4824 87.2897 91.8887 87.2897 90.4181V90.5267L84.899 87.2958L85.015 87.3538L79.56 87.2886L78.0315 87.2451C77.894 87.1952 77.7587 87.1396 77.6258 87.0785Z" fill="#263238"/>
<path d="M87.5722 90.5102C87.2321 90.6029 86.8815 90.6516 86.529 90.655C85.8553 90.7202 84.9063 90.7854 83.7617 90.8579L83.9211 90.6985C83.8901 91.3032 83.692 91.8875 83.3488 92.3864C83.1569 92.6551 82.9099 92.8798 82.6244 93.0457C82.3076 93.1978 81.9616 93.2794 81.6102 93.2847C81.2375 93.3027 80.8655 93.2365 80.5218 93.091C80.1782 92.9455 79.8718 92.7245 79.6252 92.4444C79.2058 91.9524 78.9256 91.3571 78.8139 90.7202L78.966 90.8506C77.9084 90.8506 77.0318 90.8072 76.416 90.7854C76.0921 90.7973 75.768 90.7656 75.4525 90.6913C75.768 90.6169 76.0921 90.5852 76.416 90.5971C77.0318 90.5971 77.9084 90.5464 78.966 90.5319H79.0964V90.6695C79.2206 91.2396 79.4845 91.7698 79.8643 92.2126C80.0781 92.4521 80.3423 92.6413 80.6379 92.7666C80.9335 92.8918 81.2532 92.95 81.574 92.937C81.869 92.9288 82.1595 92.8623 82.4288 92.7414C82.6787 92.6094 82.8964 92.4239 83.0663 92.1981C83.3677 91.7704 83.5502 91.2705 83.5951 90.7492V90.5971H83.74C84.8846 90.5971 85.8408 90.5391 86.5073 90.5391C86.8595 90.483 87.2175 90.4733 87.5722 90.5102Z" fill="#263238"/>
<path d="M114.803 87.454C115.007 87.4047 115.217 87.3852 115.426 87.396V87.5119C113.978 87.5844 109.493 87.6423 104.234 87.6423C100.974 87.6423 98.0184 87.6423 95.8814 87.5844L93.3531 87.5264C93.0424 87.5328 92.7318 87.5085 92.4258 87.454C92.7312 87.3943 93.0421 87.3676 93.3531 87.3743L95.8814 87.3163C98.0546 87.3163 100.952 87.2656 104.234 87.2656C109.493 87.2656 113.949 87.3163 115.426 87.396V87.5119C115.217 87.5138 115.009 87.4944 114.803 87.454Z" fill="#263238"/>
<path d="M114.803 92.1923C115.008 92.1471 115.217 92.1277 115.426 92.1343V92.2502C113.978 92.3299 109.493 92.3806 104.234 92.3806C100.974 92.3806 98.0184 92.3806 95.8814 92.3299L93.3531 92.2647C93.0423 92.2757 92.7312 92.2514 92.4258 92.1923C92.7318 92.1377 93.0424 92.1134 93.3531 92.1198L95.8814 92.0619C98.0546 92.0619 100.952 92.0039 104.234 92.0039C109.493 92.0039 113.949 92.0619 115.426 92.1343V92.2502C115.217 92.261 115.007 92.2415 114.803 92.1923Z" fill="#263238"/>
<path d="M114.803 96.9383C115.007 96.8891 115.217 96.8696 115.426 96.8804V96.9963C113.978 97.0687 109.493 97.1267 104.234 97.1267C100.974 97.1267 98.0184 97.1267 95.8814 97.0687L93.3531 97.0108C93.0424 97.0172 92.7318 96.9929 92.4258 96.9383C92.7312 96.8792 93.0423 96.8549 93.3531 96.8659L95.8814 96.8007C98.0546 96.8007 100.952 96.75 104.234 96.75C109.493 96.75 113.949 96.8007 115.426 96.8804V96.9963C115.217 96.9981 115.009 96.9787 114.803 96.9383Z" fill="#263238"/>
<path d="M77.6258 120.98C77.7949 120.945 77.9676 120.931 78.1402 120.937L79.6397 120.893L85.1599 120.828H85.2395L85.283 120.893L87.7098 124.095V124.139V124.197C87.7098 125.646 87.7098 127.261 87.7098 128.92V129.108H85.3047H75.3656H75.2062V128.949C75.2062 127.319 75.2062 125.863 75.2062 124.602L76.8942 121.951C77.0807 121.637 77.2889 121.337 77.5172 121.053C77.4863 121.148 77.4424 121.238 77.3868 121.321L76.9738 122.045L75.4091 124.718V124.66C75.4091 125.892 75.4091 127.348 75.4525 129.007L75.2932 128.848H85.2323H87.449L87.3621 128.949C87.3621 127.29 87.3621 125.696 87.3621 124.226V124.334L84.9715 121.103L85.0874 121.161L79.6325 121.096L78.1039 121.053C77.9435 121.036 77.784 121.012 77.6258 120.98Z" fill="#263238"/>
<path d="M87.5722 124.444C87.2321 124.537 86.8815 124.585 86.529 124.589C85.8553 124.654 84.9063 124.719 83.7617 124.791L83.9211 124.632C83.8901 125.237 83.692 125.821 83.3488 126.32C83.1569 126.589 82.9099 126.813 82.6244 126.979C82.3064 127.128 81.9611 127.209 81.6102 127.218C81.2375 127.236 80.8655 127.17 80.5218 127.025C80.1782 126.879 79.8718 126.658 79.6252 126.378C79.2058 125.886 78.9256 125.291 78.8139 124.654L78.966 124.784C77.9084 124.784 77.0318 124.741 76.416 124.719C76.0921 124.731 75.768 124.699 75.4525 124.625C75.768 124.55 76.0921 124.519 76.416 124.531C77.0318 124.531 77.9084 124.48 78.966 124.465H79.0964V124.603C79.2206 125.173 79.4845 125.703 79.8643 126.146C80.0781 126.386 80.3423 126.575 80.6379 126.7C80.9335 126.825 81.2532 126.884 81.574 126.871C81.869 126.862 82.1595 126.796 82.4288 126.675C82.6771 126.541 82.8944 126.356 83.0663 126.132C83.3677 125.704 83.5502 125.204 83.5951 124.683V124.531H83.74C84.8846 124.494 85.8408 124.473 86.5073 124.473C86.8595 124.417 87.2175 124.407 87.5722 124.444Z" fill="#263238"/>
<path d="M114.803 121.388C115.007 121.338 115.217 121.319 115.426 121.33V121.446C113.978 121.518 109.493 121.576 104.234 121.576C100.974 121.576 98.0184 121.576 95.8814 121.518L93.3531 121.46C93.0424 121.466 92.7318 121.442 92.4258 121.388C92.7312 121.328 93.0421 121.301 93.3531 121.308L95.8814 121.25C98.0546 121.214 100.952 121.199 104.234 121.199C109.493 121.199 113.949 121.25 115.426 121.33V121.446C115.217 121.447 115.009 121.428 114.803 121.388Z" fill="#263238"/>
<path d="M114.803 126.126C115.008 126.081 115.217 126.061 115.426 126.068V126.184C113.978 126.263 109.493 126.314 104.234 126.314C100.974 126.314 98.0184 126.314 95.8814 126.263L93.3531 126.198C93.0423 126.209 92.7312 126.185 92.4258 126.126C92.7318 126.071 93.0424 126.047 93.3531 126.053L95.8814 125.995C98.0546 125.995 100.952 125.938 104.234 125.938C109.493 125.938 113.949 125.995 115.426 126.068V126.184C115.217 126.195 115.007 126.175 114.803 126.126Z" fill="#263238"/>
<path d="M114.803 130.868C115.007 130.819 115.217 130.799 115.426 130.81V130.926C113.978 130.998 109.493 131.056 104.234 131.056C100.974 131.056 98.0184 131.056 95.8814 130.998L93.3531 130.94C93.0424 130.947 92.7318 130.923 92.4258 130.868C92.7312 130.809 93.0423 130.785 93.3531 130.796L95.8814 130.73C98.0546 130.73 100.952 130.68 104.234 130.68C109.493 130.68 113.949 130.73 115.426 130.81V130.926C115.217 130.928 115.009 130.908 114.803 130.868Z" fill="#263238"/>
<path d="M258.805 99.162H253.292C252.713 99.1602 252.157 98.9318 251.744 98.5256C251.331 98.1195 251.094 97.5678 251.083 96.9887V87.7812H251.807V96.9525C251.816 97.34 251.977 97.7085 252.255 97.9793C252.532 98.25 252.904 98.4015 253.292 98.4013H258.805C259.186 98.3922 259.549 98.2366 259.819 97.9668C260.089 97.6971 260.245 97.3339 260.254 96.9525V88.1H260.978V96.9525C260.976 97.5317 260.748 98.0872 260.342 98.5001C259.936 98.9131 259.384 99.1506 258.805 99.162Z" fill="#FF5811"/>
<path d="M261.927 87.832H250.177V88.5565H261.927V87.832Z" fill="#FF5811"/>
<path d="M253.908 88.1944H253.183V87.3903C253.183 87.006 253.336 86.6375 253.608 86.3658C253.879 86.0941 254.248 85.9414 254.632 85.9414H257.53C257.914 85.9414 258.283 86.0941 258.554 86.3658C258.826 86.6375 258.979 87.006 258.979 87.3903V88.0422H258.254V87.3903C258.254 87.1981 258.178 87.0139 258.042 86.878C257.906 86.7422 257.722 86.6658 257.53 86.6658H254.632C254.44 86.6658 254.256 86.7422 254.12 86.878C253.984 87.0139 253.908 87.1981 253.908 87.3903V88.1944Z" fill="#FF5811"/>
<path d="M254.342 96.4527C254.157 95.4254 254.094 94.3798 254.154 93.3377C254.094 92.2955 254.157 91.2499 254.342 90.2227C254.528 91.2499 254.591 92.2955 254.531 93.3377C254.591 94.3798 254.528 95.4254 254.342 96.4527Z" fill="#FF5811"/>
<path d="M256.081 96.4527C255.896 95.4254 255.832 94.3798 255.893 93.3377C255.832 92.2955 255.896 91.2499 256.081 90.2227C256.267 91.2499 256.33 92.2955 256.269 93.3377C256.33 94.3798 256.267 95.4254 256.081 96.4527Z" fill="#FF5811"/>
<path d="M257.798 96.4527C257.608 95.426 257.545 94.3798 257.61 93.3377C257.545 92.2955 257.608 91.2494 257.798 90.2227C257.983 91.2499 258.047 92.2955 257.986 93.3377C258.047 94.3798 257.983 95.4254 257.798 96.4527Z" fill="#FF5811"/>
<path d="M258.805 128.857H253.292C253.004 128.862 252.717 128.809 252.449 128.702C252.181 128.595 251.937 128.436 251.732 128.234C251.526 128.031 251.363 127.79 251.251 127.524C251.14 127.258 251.082 126.972 251.083 126.684V117.477H251.807V126.655C251.816 127.043 251.977 127.411 252.255 127.682C252.532 127.953 252.904 128.104 253.292 128.104H258.805C259.186 128.095 259.549 127.939 259.819 127.669C260.089 127.4 260.245 127.036 260.254 126.655V117.803H260.978V126.655C260.982 126.943 260.929 127.229 260.821 127.496C260.714 127.763 260.554 128.006 260.352 128.211C260.15 128.415 259.909 128.578 259.643 128.689C259.378 128.8 259.093 128.857 258.805 128.857Z" fill="#FF5811"/>
<path d="M261.927 117.527H250.177V118.252H261.927V117.527Z" fill="#FF5811"/>
<path d="M253.908 117.886H253.183V117.082C253.183 116.697 253.336 116.329 253.608 116.057C253.879 115.785 254.248 115.633 254.632 115.633H257.53C257.914 115.633 258.283 115.785 258.554 116.057C258.826 116.329 258.979 116.697 258.979 117.082V117.734H258.254V117.082C258.254 116.89 258.178 116.705 258.042 116.569C257.906 116.434 257.722 116.357 257.53 116.357H254.632C254.44 116.357 254.256 116.434 254.12 116.569C253.984 116.705 253.908 116.89 253.908 117.082V117.886Z" fill="#FF5811"/>
<path d="M254.342 126.148C254.157 125.121 254.094 124.075 254.154 123.033C254.094 121.991 254.157 120.945 254.342 119.918C254.528 120.945 254.591 121.991 254.531 123.033C254.591 124.075 254.528 125.121 254.342 126.148Z" fill="#FF5811"/>
<path d="M256.081 126.148C255.896 125.121 255.832 124.075 255.893 123.033C255.832 121.991 255.896 120.945 256.081 119.918C256.267 120.945 256.33 121.991 256.269 123.033C256.33 124.075 256.267 125.121 256.081 126.148Z" fill="#FF5811"/>
<path d="M257.798 126.148C257.608 125.121 257.545 124.075 257.61 123.033C257.545 121.991 257.608 120.945 257.798 119.918C257.983 120.945 258.047 121.991 257.986 123.033C258.047 124.075 257.983 125.121 257.798 126.148Z" fill="#FF5811"/>
<path d="M258.805 194.15H253.292C252.707 194.148 252.146 193.914 251.732 193.5C251.318 193.086 251.084 192.526 251.083 191.94V182.762H251.807V191.933C251.807 192.327 251.963 192.705 252.242 192.983C252.52 193.262 252.898 193.418 253.292 193.418H258.805C259.192 193.409 259.561 193.248 259.832 192.97C260.102 192.693 260.254 192.321 260.254 191.933V183.08H260.978V191.933C260.978 192.513 260.751 193.071 260.344 193.485C259.938 193.9 259.385 194.138 258.805 194.15Z" fill="#FF5811"/>
<path d="M261.927 182.812H250.177V183.537H261.927V182.812Z" fill="#FF5811"/>
<path d="M253.908 183.175H253.183V182.371C253.183 181.986 253.336 181.618 253.608 181.346C253.879 181.075 254.248 180.922 254.632 180.922H257.53C257.914 180.922 258.283 181.075 258.554 181.346C258.826 181.618 258.979 181.986 258.979 182.371V183.023H258.254V182.371C258.254 182.179 258.178 181.994 258.042 181.858C257.906 181.723 257.722 181.646 257.53 181.646H254.632C254.44 181.646 254.256 181.723 254.12 181.858C253.984 181.994 253.908 182.179 253.908 182.371V183.175Z" fill="#FF5811"/>
<path d="M254.342 191.433C254.091 189.364 254.091 187.272 254.342 185.203C254.594 187.272 254.594 189.364 254.342 191.433Z" fill="#FF5811"/>
<path d="M256.081 191.433C255.83 189.364 255.83 187.272 256.081 185.203C256.332 187.272 256.332 189.364 256.081 191.433Z" fill="#FF5811"/>
<path d="M257.798 191.433C257.547 189.364 257.547 187.272 257.798 185.203C258.049 187.272 258.049 189.364 257.798 191.433Z" fill="#FF5811"/>
<path d="M261.804 64.925C261.792 64.7006 261.792 64.4757 261.804 64.2513C261.804 63.7877 261.804 63.1719 261.761 62.4112C261.761 60.7885 261.717 58.55 261.681 55.8334L261.833 55.9856H248.598L248.786 55.7972V56.9925C248.786 57.391 248.786 57.7894 248.786 58.1806V60.564C248.786 62.0852 248.786 63.5413 248.786 64.9105L248.619 64.7439L258.109 64.8236L260.848 64.8743H261.572C261.661 64.864 261.751 64.864 261.84 64.8743C261.53 64.9088 261.218 64.9233 260.906 64.9178L258.211 64.9612L248.605 65.0482H248.431V64.8743C248.431 63.4906 248.431 62.0345 248.431 60.5277V55.8479C248.257 56.0146 248.656 55.6161 248.619 55.6596H261.855H261.949V55.8117C261.949 58.5645 261.891 60.8392 261.869 62.4837C261.869 63.2081 261.869 63.8311 261.869 64.2948C261.866 64.5064 261.845 64.7173 261.804 64.925Z" fill="#263238"/>
<path d="M261.804 55.832C261.804 55.832 261.652 56.0421 261.333 56.3681C261.014 56.6941 260.544 57.1505 259.957 57.7155C258.783 58.8456 257.139 60.3887 255.313 62.0621C254.799 62.0621 255.168 62.0621 255.052 62.0621H255.009L254.922 61.9824L254.755 61.823L254.415 61.5115L253.763 60.903L252.524 59.7512L250.452 57.7807C249.865 57.2157 249.395 56.7593 249.076 56.4333C248.757 56.1073 248.583 55.919 248.605 55.8972C248.813 56.0112 249.004 56.1552 249.17 56.3246C249.525 56.6144 250.018 57.0491 250.619 57.5851L252.727 59.4035L253.98 60.5698L254.639 61.1711L254.973 61.4826L255.139 61.6419L255.226 61.7144L255.27 61.7578H255.038C256.878 60.1279 258.559 58.5993 259.776 57.5199C260.384 56.9839 260.884 56.5492 261.224 56.2594C261.395 56.0889 261.591 55.9448 261.804 55.832Z" fill="#263238"/>
<path d="M252.973 59.8984C252.386 60.8607 251.691 61.7527 250.901 62.5571C250.21 63.445 249.42 64.2519 248.547 64.9622C249.137 64.002 249.832 63.1103 250.619 62.3035C251.314 61.4191 252.104 60.6127 252.973 59.8984Z" fill="#263238"/>
<path d="M261.891 65.0349C261.037 64.2741 260.269 63.4214 259.602 62.4922C258.837 61.6372 258.167 60.7021 257.602 59.7031C258.458 60.4654 259.226 61.3207 259.892 62.2531C260.658 63.1041 261.329 64.037 261.891 65.0349Z" fill="#263238"/>
<path d="M269.476 45.7782C269.476 45.8869 237.876 45.9738 198.909 45.9738C159.942 45.9738 128.336 45.8869 128.336 45.7782C128.336 45.6695 159.928 45.5898 198.909 45.5898C237.891 45.5898 269.476 45.6768 269.476 45.7782Z" fill="#263238"/>
<path d="M269.476 77.2391C269.476 77.3478 237.876 77.4275 198.909 77.4275C159.942 77.4275 128.336 77.3478 128.336 77.2391C128.336 77.1305 159.928 77.0508 198.909 77.0508C237.891 77.0508 269.476 77.1377 269.476 77.2391Z" fill="#263238"/>
<path d="M269.476 139.513C269.476 139.621 237.876 139.701 198.909 139.701C159.942 139.701 128.336 139.621 128.336 139.513C128.336 139.404 159.928 139.324 198.909 139.324C237.891 139.324 269.476 139.411 269.476 139.513Z" fill="#263238"/>
<path d="M269.476 171.395C269.476 171.497 237.876 171.584 198.909 171.584C159.942 171.584 128.336 171.497 128.336 171.395C128.336 171.294 159.928 171.207 198.909 171.207C237.891 171.207 269.476 171.294 269.476 171.395Z" fill="#263238"/>
<path d="M146.642 67.607C146.642 67.607 146.794 67.607 147.069 67.5056C147.468 67.3746 147.802 67.0976 148.004 66.7305C148.279 66.2596 148.142 65.5496 148.163 64.76C148.185 63.9704 148.163 63.0576 148.163 62.0652C148.163 61.0727 148.163 59.9643 148.163 58.7907C148.163 58.501 148.163 58.1967 148.163 57.8997C148.183 57.6075 148.156 57.3141 148.084 57.0304C147.991 56.7504 147.815 56.5054 147.579 56.3281C147.344 56.1508 147.06 56.0495 146.765 56.0379H138.181C137.84 56.0317 137.507 56.146 137.242 56.3607C136.977 56.5754 136.797 56.8766 136.732 57.2115C136.681 57.8852 136.732 58.6603 136.732 59.3848C136.732 60.8336 136.732 62.21 136.732 63.5285C136.732 64.195 136.732 64.8397 136.732 65.4627C136.712 65.758 136.727 66.0546 136.775 66.3465C136.838 66.6206 136.976 66.8716 137.174 67.0709C137.36 67.2551 137.593 67.3853 137.847 67.4476C138.111 67.4909 138.378 67.5079 138.644 67.4984H140.216L144.947 67.5636H146.236C146.387 67.56 146.538 67.5746 146.685 67.607C146.537 67.6342 146.387 67.6463 146.236 67.6432H144.947L140.216 67.7012H138.644C138.356 67.7182 138.067 67.7036 137.782 67.6577C137.467 67.5833 137.178 67.4248 136.946 67.199C136.713 66.9731 136.547 66.6885 136.464 66.3755C136.404 66.0581 136.382 65.7346 136.399 65.412C136.399 64.789 136.399 64.1443 136.399 63.4778C136.399 62.1593 136.399 60.7684 136.399 59.3341C136.399 58.9719 136.399 58.6096 136.399 58.2474C136.377 57.8686 136.377 57.4889 136.399 57.1101C136.476 56.6925 136.698 56.3154 137.025 56.0441C137.352 55.7729 137.763 55.6246 138.188 55.625H146.794C147.151 55.6514 147.493 55.7832 147.775 56.0037C148.058 56.2242 148.268 56.5235 148.381 56.8638C148.458 57.1812 148.487 57.5084 148.468 57.8345C148.468 58.1315 148.468 58.4358 148.468 58.7255C148.468 59.8991 148.468 60.993 148.468 62C148.468 63.0069 148.468 63.8907 148.468 64.6948C148.468 65.086 148.468 65.4192 148.468 65.8032C148.475 66.1275 148.395 66.448 148.236 66.7305C148.127 66.9254 147.978 67.0956 147.8 67.2303C147.621 67.365 147.417 67.4612 147.2 67.5128C147.025 67.5913 146.833 67.6237 146.642 67.607Z" fill="#263238"/>
<path d="M146.642 161.622C146.642 161.622 146.794 161.622 147.069 161.52C147.469 161.388 147.804 161.108 148.004 160.738C148.279 160.274 148.142 159.564 148.163 158.775C148.185 157.985 148.163 157.072 148.163 156.072C148.163 155.073 148.163 153.979 148.163 152.805C148.163 152.515 148.163 152.211 148.163 151.907C148.182 151.617 148.155 151.326 148.084 151.045C147.993 150.769 147.821 150.527 147.591 150.351C147.361 150.174 147.084 150.07 146.794 150.052H138.152C137.81 150.047 137.477 150.162 137.211 150.378C136.946 150.594 136.766 150.897 136.703 151.233C136.652 151.907 136.703 152.682 136.703 153.407C136.703 154.855 136.703 156.232 136.703 157.55C136.703 158.209 136.703 158.854 136.703 159.484C136.683 159.777 136.698 160.072 136.746 160.361C136.808 160.635 136.946 160.886 137.145 161.085C137.331 161.27 137.564 161.4 137.818 161.462C138.082 161.505 138.349 161.522 138.615 161.513H140.187L144.918 161.571H146.207C146.358 161.567 146.509 161.582 146.656 161.614C146.508 161.637 146.358 161.649 146.207 161.65H144.918L140.187 161.708H138.615C138.327 161.725 138.038 161.711 137.753 161.665C137.438 161.591 137.149 161.432 136.917 161.206C136.684 160.98 136.518 160.696 136.435 160.383C136.375 160.065 136.353 159.742 136.37 159.419C136.37 158.789 136.37 158.144 136.37 157.485C136.37 156.167 136.37 154.776 136.37 153.341C136.37 152.979 136.37 152.617 136.37 152.255C136.348 151.876 136.348 151.496 136.37 151.117C136.447 150.699 136.669 150.321 136.995 150.049C137.322 149.776 137.734 149.626 138.159 149.625H146.765C147.123 149.649 147.465 149.781 147.748 150.001C148.031 150.222 148.241 150.522 148.352 150.864C148.429 151.179 148.458 151.504 148.439 151.827C148.439 152.132 148.439 152.436 148.439 152.726C148.439 153.899 148.439 154.993 148.439 155.993C148.439 156.992 148.439 157.891 148.439 158.695C148.439 159.086 148.439 159.455 148.439 159.803C148.446 160.128 148.366 160.448 148.207 160.73C148.098 160.925 147.949 161.096 147.771 161.23C147.592 161.365 147.388 161.461 147.171 161.513C147.006 161.592 146.824 161.629 146.642 161.622Z" fill="#263238"/>
<path d="M127.278 198.699C127.278 198.699 127.278 198.547 127.278 198.257C127.278 197.968 127.278 197.533 127.278 196.961C127.278 195.809 127.278 194.128 127.278 191.969V173.627C127.314 158.131 127.466 136.732 127.684 113.101C127.901 89.4702 128.068 68.0634 128.198 52.5607C128.249 44.8238 128.292 38.5648 128.321 34.2182C128.321 32.0449 128.321 30.386 128.357 29.2269C128.357 28.6691 128.357 28.2344 128.357 27.9302C128.357 27.6259 128.357 27.4883 128.357 27.4883C128.357 27.4883 128.357 27.6404 128.357 27.9302C128.357 28.22 128.357 28.6546 128.357 29.2269C128.357 30.386 128.357 32.0594 128.357 34.2182V52.5607C128.357 68.0562 128.169 89.4557 127.952 113.101C127.734 136.746 127.568 158.124 127.437 173.627C127.387 181.364 127.343 187.63 127.321 191.969C127.321 194.143 127.285 195.809 127.278 196.961C127.278 197.518 127.278 197.953 127.278 198.257C127.278 198.562 127.278 198.699 127.278 198.699Z" fill="#263238"/>
<path d="M207.95 89.829C207.95 89.9376 197.084 90.0173 183.638 90.0173C170.193 90.0173 159.327 89.9376 159.327 89.829C159.327 89.7203 170.193 89.6406 183.638 89.6406C197.084 89.6406 207.95 89.7565 207.95 89.829Z" fill="#263238"/>
<path d="M238.34 95.2274C238.34 95.3288 220.649 95.4158 198.837 95.4158C177.024 95.4158 159.327 95.3288 159.327 95.2274C159.327 95.126 177.01 95.0391 198.837 95.0391C220.664 95.0391 238.34 95.1187 238.34 95.2274Z" fill="#263238"/>
<path d="M207.95 152.966C207.95 153.074 197.084 153.154 183.638 153.154C170.193 153.154 159.327 153.074 159.327 152.966C159.327 152.857 170.193 152.777 183.638 152.777C197.084 152.777 207.95 152.857 207.95 152.966Z" fill="#263238"/>
<path d="M238.34 158.333C238.34 158.434 220.649 158.521 198.837 158.521C177.024 158.521 159.327 158.434 159.327 158.333C159.327 158.231 177.01 158.145 198.837 158.145C220.664 158.145 238.34 158.224 238.34 158.333Z" fill="#263238"/>
<path d="M207.95 59.5438C207.95 59.6452 197.084 59.7322 183.638 59.7322C170.193 59.7322 159.327 59.6452 159.327 59.5438C159.327 59.4424 170.193 59.3555 183.638 59.3555C197.084 59.3555 207.95 59.4424 207.95 59.5438Z" fill="#263238"/>
<path d="M238.34 64.9032C238.34 65.0119 220.649 65.0915 198.837 65.0915C177.024 65.0915 159.327 65.0119 159.327 64.9032C159.327 64.7945 177.01 64.7148 198.837 64.7148C220.664 64.7148 238.34 64.8018 238.34 64.9032Z" fill="#263238"/>
<path d="M207.95 120.778C207.95 120.887 197.084 120.967 183.638 120.967C170.193 120.967 159.327 120.887 159.327 120.778C159.327 120.67 170.193 120.59 183.638 120.59C197.084 120.59 207.95 120.677 207.95 120.778Z" fill="#263238"/>
<path d="M238.34 126.145C238.34 126.247 220.649 126.334 198.837 126.334C177.024 126.334 159.327 126.247 159.327 126.145C159.327 126.044 177.01 125.957 198.837 125.957C220.664 125.957 238.34 126.051 238.34 126.145Z" fill="#263238"/>
<path d="M207.95 182.903C207.95 183.005 197.084 183.092 183.638 183.092C170.193 183.092 159.327 183.005 159.327 182.903C159.327 182.802 170.193 182.715 183.638 182.715C197.084 182.715 207.95 182.802 207.95 182.903Z" fill="#263238"/>
<path d="M238.34 188.274C238.34 188.375 220.649 188.462 198.837 188.462C177.024 188.462 159.327 188.375 159.327 188.274C159.327 188.172 177.01 188.078 198.837 188.078C220.664 188.078 238.34 188.165 238.34 188.274Z" fill="#263238"/>
<path d="M263.115 31.4414H253.546V41.0111H263.115V31.4414Z" fill="#E0E0E0"/>
<path d="M247.54 31.4414H237.97V41.0111H247.54V31.4414Z" fill="#E0E0E0"/>
<path d="M231.958 31.4414H222.388V41.0111H231.958V31.4414Z" fill="#E0E0E0"/>
<path d="M58.2619 56.4922L62.3332 61.8022L65.8104 56.4922H58.2619Z" fill="#263238"/>
<path d="M49.4528 125.273C58.8704 112.842 68.8457 114.603 75.7495 117.602C79.1898 119.174 82.0825 121.738 84.057 124.964C86.0316 128.191 86.9983 131.933 86.8332 135.712C86.7101 137.697 86.2899 139.791 87.094 141.609C88.3908 144.507 92.165 145.354 94.3383 147.687C97.3302 150.875 96.6637 155.931 95.6568 160.183C94.6498 164.436 93.5849 169.297 96.0842 172.883C98.3806 176.172 102.749 177.055 106.349 178.801C108.746 179.941 110.875 181.574 112.597 183.594C114.319 185.614 115.594 187.975 116.339 190.522C117.04 193.084 117.095 195.779 116.5 198.366C115.904 200.954 114.677 203.354 112.927 205.351C109.421 209.169 104.162 210.864 99.0326 211.618C91.544 212.72 83.9041 212.148 76.6634 209.942C69.4226 207.736 62.7615 203.951 57.1599 198.86C51.5583 193.769 47.1559 187.499 44.2698 180.502C41.3837 173.504 40.086 165.954 40.47 158.394" fill="#263238"/>
<path d="M76.2421 118.139C75.1211 118.123 74.0003 118.186 72.888 118.327C70.2255 118.838 67.6161 119.595 65.0932 120.587C62.0796 121.638 59.1819 122.224 57.0593 122.087C56.2271 122.054 55.4022 121.917 54.6035 121.681C54.3081 121.606 54.0233 121.494 53.7559 121.348C54.8437 121.614 55.955 121.772 57.0738 121.819C59.7777 121.743 62.4485 121.204 64.97 120.225C67.9692 119.175 70.7655 118.269 72.8518 118.052C73.676 117.949 74.5085 117.93 75.3366 117.994C75.6434 118.004 75.9476 118.052 76.2421 118.139Z" fill="#455A64"/>
<path d="M97.9387 217.016C98.3009 218.095 105.82 253.599 105.82 253.599L162.963 275.571L159.747 283.909L110.747 279.563C82.1535 275.332 80.5597 261.293 82.2911 245.58L85.254 218.696L97.9387 217.016Z" fill="#FFBE9D"/>
<path d="M15.8032 197.87C21.6928 188.959 30.6322 183.816 38.8183 180.969L68.882 183.142C72.2432 182.851 75.6272 183.305 78.7928 184.473C81.9583 185.64 84.8274 187.491 87.1955 189.894L89.9918 264.394L96.8955 283.953H25.3657L15.8032 197.87Z" fill="#FF5811"/>
<path d="M88.2893 220.457L88.1155 220.341L87.6373 219.972C87.42 219.819 87.1737 219.595 86.8477 219.385L85.7176 218.66C85.2757 218.428 84.7831 218.16 84.2688 217.885C83.7544 217.61 83.1097 217.349 82.4215 217.161C80.891 216.629 79.2988 216.296 77.6837 216.168C75.7302 216.001 73.7627 216.123 71.8449 216.53C69.6293 216.992 67.5206 217.867 65.6293 219.109C63.5293 220.43 61.8523 222.326 60.7973 224.572C60.2637 225.757 60.037 227.057 60.1381 228.353C60.264 229.685 60.7665 230.954 61.587 232.011C62.3887 233.083 63.5813 233.793 64.9048 233.989C65.5241 234.091 66.1596 234.008 66.7318 233.75C67.304 233.493 67.7873 233.072 68.1213 232.54C68.388 231.988 68.5314 231.385 68.5414 230.772C68.5514 230.159 68.4278 229.551 68.1793 228.991C67.9658 228.426 67.6783 227.893 67.3244 227.404C66.9678 226.928 66.565 226.489 66.1219 226.093C64.4319 224.61 62.3887 223.587 60.1888 223.123C58.2728 222.7 56.3011 222.59 54.3499 222.797C51.5245 223.148 48.7472 223.813 46.0698 224.782L43.8965 225.506L43.3242 225.694C43.2584 225.718 43.1905 225.735 43.1213 225.745C43.1796 225.707 43.2431 225.678 43.3097 225.658L43.8675 225.434C44.3674 225.238 45.099 224.956 46.0408 224.615C48.7234 223.604 51.5141 222.906 54.3572 222.536C56.3376 222.313 58.341 222.411 60.2902 222.826C62.5406 223.294 64.6302 224.34 66.3537 225.861C66.5869 226.059 66.8049 226.275 67.0057 226.506C67.2259 226.73 67.427 226.973 67.607 227.23C67.9922 227.746 68.3019 228.315 68.527 228.918C68.7979 229.528 68.9318 230.19 68.9193 230.857C68.9068 231.524 68.7481 232.18 68.4545 232.779C68.1006 233.388 67.5519 233.86 66.897 234.12C66.2421 234.37 65.5353 234.455 64.8396 234.366C63.4234 234.162 62.145 233.407 61.2827 232.265C60.4282 231.148 59.9059 229.812 59.7759 228.411C59.6826 227.05 59.9317 225.688 60.5003 224.448C61.5947 222.141 63.3299 220.197 65.4989 218.849C67.4112 217.59 69.5449 216.705 71.7869 216.241C73.7371 215.835 75.7375 215.728 77.72 215.922C79.3533 216.063 80.9609 216.418 82.5012 216.98C83.2256 217.19 83.7834 217.523 84.3557 217.755C84.928 217.987 85.3989 218.32 85.8046 218.566L86.9202 219.327C87.1864 219.519 87.4427 219.724 87.6881 219.943L88.1517 220.341C88.2459 220.399 88.2966 220.45 88.2893 220.457Z" fill="#FAFAFA"/>
<path d="M87.1955 189.863L104.937 221.774L85.254 227.823L87.1955 189.863Z" fill="#FF5811"/>
<path d="M89.5788 264.603C89.5392 264.42 89.5198 264.233 89.5209 264.046C89.5209 263.647 89.4629 263.111 89.4267 262.445C89.3615 260.996 89.2673 259.011 89.1586 256.555C88.9486 251.578 88.695 244.703 88.4777 237.111C88.2604 229.519 88.1155 222.623 88.0648 217.661C88.0648 215.168 88.0648 213.155 88.0648 211.764C88.0648 211.09 88.0648 210.561 88.0648 210.155C88.0448 209.97 88.0448 209.783 88.0648 209.598C88.0801 209.783 88.0801 209.97 88.0648 210.155L88.1082 211.756C88.1082 213.205 88.1879 215.197 88.2386 217.653C88.3763 222.666 88.5574 229.519 88.7602 237.104C88.963 244.689 89.1804 251.535 89.3253 256.548C89.3905 259.004 89.4412 261.01 89.4774 262.437C89.4774 263.104 89.4774 263.64 89.4774 264.046C89.527 264.228 89.5609 264.415 89.5788 264.603Z" fill="#263238"/>
<path d="M92.4331 199.586C92.3075 199.693 92.1716 199.788 92.0274 199.868C91.6253 200.123 91.2066 200.35 90.7741 200.549C88.7689 201.43 86.5751 201.796 84.3924 201.613C82.2097 201.429 80.1077 200.702 78.2778 199.499C77.6348 199.097 77.0498 198.61 76.5391 198.05C75.9856 197.441 75.6163 196.687 75.4742 195.876C75.3941 195.452 75.4097 195.016 75.52 194.598C75.6303 194.181 75.8325 193.793 76.1117 193.464C76.4249 193.141 76.8164 192.905 77.2479 192.778C77.6795 192.651 78.1366 192.638 78.5748 192.74C79.0096 192.821 79.4228 192.992 79.7882 193.241C80.1536 193.491 80.4632 193.813 80.6974 194.189C81.1127 194.938 81.2488 195.811 81.0813 196.652C80.9316 197.449 80.5855 198.195 80.0744 198.825C79.5805 199.419 78.9751 199.912 78.2923 200.274C77.0371 200.899 75.6757 201.282 74.2789 201.404C73.0745 201.523 71.8613 201.523 70.6568 201.404C68.915 201.25 67.2058 200.838 65.5858 200.18C65.0135 199.948 64.5861 199.738 64.2963 199.586C64.1446 199.518 64.0012 199.433 63.8689 199.332C64.0299 199.374 64.1855 199.435 64.3326 199.513C64.6296 199.644 65.057 199.832 65.6438 200.042C68.3923 201.065 71.3463 201.413 74.2572 201.056C75.6108 200.926 76.9279 200.542 78.1401 199.926C78.7799 199.589 79.3463 199.129 79.8063 198.571C80.2783 197.985 80.597 197.29 80.7336 196.55C80.8812 195.796 80.7581 195.013 80.3859 194.341C80.1793 194.011 79.9064 193.729 79.5846 193.51C79.2629 193.292 78.8992 193.143 78.5168 193.073C78.1447 192.979 77.7547 192.984 77.385 193.087C77.0154 193.19 76.6789 193.387 76.4087 193.66C76.167 193.949 75.9917 194.287 75.8954 194.652C75.799 195.016 75.7838 195.397 75.8509 195.768C75.9848 196.504 76.3238 197.187 76.8289 197.738C77.3116 198.296 77.87 198.784 78.4879 199.187C80.6152 200.619 83.1245 201.376 85.6887 201.36C87.4267 201.37 89.1497 201.037 90.7596 200.382C91.8463 199.941 92.4331 199.542 92.4331 199.586Z" fill="#FAFAFA"/>
<path d="M88.6516 263.971C88.5769 263.932 88.5065 263.886 88.4415 263.833L87.8619 263.413C87.107 262.892 86.318 262.423 85.5003 262.007C82.4623 260.508 79.1077 259.762 75.7205 259.834C70.7007 260.027 65.8123 261.493 61.5145 264.094C60.2613 264.802 59.084 265.637 58.0011 266.586C56.8705 267.566 55.9321 268.747 55.2338 270.07C54.5257 271.436 54.2962 273 54.5818 274.511C54.7476 275.263 55.1334 275.949 55.6901 276.481C55.9642 276.739 56.3006 276.922 56.6663 277.011C57.032 277.1 57.4146 277.092 57.7765 276.989C58.5017 276.742 59.1021 276.222 59.4499 275.54C59.8227 274.858 60.0311 274.099 60.0584 273.323C60.0382 271.78 59.5562 270.279 58.6748 269.013C57.84 267.778 56.7538 266.734 55.4873 265.948C54.2588 265.203 52.9109 264.677 51.503 264.391C48.8712 263.902 46.1744 263.878 43.5343 264.318C41.227 264.65 38.9465 265.146 36.7102 265.803C33.4685 266.772 30.3346 268.071 27.3578 269.679C26.3074 270.259 25.5033 270.73 24.9672 271.063L24.3515 271.432C24.2839 271.479 24.2109 271.518 24.1341 271.548C24.194 271.493 24.2595 271.444 24.3297 271.403L24.9237 270.998C25.4526 270.643 26.2422 270.15 27.2854 269.549C32.3005 266.719 37.794 264.838 43.4908 264C46.1628 263.543 48.894 263.558 51.5609 264.043C53.0094 264.334 54.3967 264.873 55.6612 265.637C56.9803 266.446 58.1135 267.525 58.9863 268.803C59.9089 270.134 60.4133 271.71 60.4351 273.33C60.4037 274.164 60.1806 274.98 59.7832 275.714C59.3921 276.494 58.7106 277.089 57.8852 277.373C57.4622 277.494 57.0149 277.504 56.587 277.401C56.1591 277.299 55.7652 277.086 55.4438 276.786C54.8255 276.202 54.3987 275.444 54.2196 274.612C53.9202 273.011 54.1758 271.355 54.944 269.918C55.6641 268.556 56.632 267.34 57.7982 266.332C58.8989 265.364 60.0984 264.514 61.3769 263.797C66.3175 260.95 71.4319 259.566 75.7568 259.573C79.1768 259.515 82.5584 260.301 85.6017 261.863C86.707 262.427 87.7325 263.136 88.6516 263.971Z" fill="#FAFAFA"/>
<path d="M37.6157 206.114C35.4424 194.979 19.6862 194.574 16.9189 205.57C16.8826 205.744 16.8392 205.911 16.7957 206.085C12.7462 223.42 26.4668 274.652 30.1324 277.6C33.798 280.549 37.4708 283.91 43.7806 281.288C47.4679 279.759 85.7539 245.921 85.7539 245.921C85.7539 245.921 94.6064 254.411 97.5548 253.672C100.503 252.933 106.154 244.255 106.154 244.255C106.154 244.255 111.623 252.47 112.311 252.593C112.688 252.664 113.078 252.628 113.436 252.489C113.793 252.35 114.105 252.114 114.336 251.807C114.566 251.501 114.706 251.136 114.74 250.753C114.774 250.371 114.701 249.987 114.528 249.645C113.804 248.536 106.813 233.265 106.813 233.265C106.813 233.265 112.311 232.671 111.203 230.831C111.203 230.831 111.065 229.136 107.356 229.462C103.647 229.788 103.64 225.528 96.7507 225.963C89.8614 226.398 75.5539 228.136 55.4584 243.559L46.164 250.115L37.6157 206.114Z" fill="#FFBE9D"/>
<path d="M55.4873 243.528L55.7119 243.34L56.4363 242.811L59.1094 240.776C62.5539 238.3 66.1438 236.033 69.8599 233.988C75.5467 230.834 81.6409 228.479 87.9706 226.99C89.7961 226.606 91.6869 226.265 93.6501 226.033C94.6281 225.932 95.6278 225.838 96.6347 225.773C97.6676 225.692 98.7064 225.739 99.728 225.91C100.783 226.094 101.792 226.483 102.698 227.055C103.618 227.62 104.386 228.395 105.313 228.866C105.777 229.102 106.286 229.235 106.806 229.257C107.32 229.257 107.885 229.192 108.45 229.214C109.025 229.212 109.595 229.307 110.138 229.496C110.439 229.584 110.712 229.748 110.93 229.973C111.149 230.198 111.305 230.475 111.384 230.778V230.699C111.532 230.931 111.584 231.211 111.529 231.481C111.446 231.739 111.287 231.967 111.073 232.133C110.674 232.426 110.228 232.649 109.754 232.792C108.811 233.093 107.84 233.299 106.856 233.408L107.001 233.155L111.92 243.782C112.775 245.593 113.63 247.462 114.572 249.266C114.717 249.493 114.836 249.736 114.926 249.99C114.981 250.27 114.981 250.558 114.926 250.838C114.834 251.403 114.544 251.916 114.108 252.287C113.888 252.47 113.634 252.607 113.36 252.689C113.086 252.771 112.798 252.797 112.514 252.765H112.304C112.251 252.751 112.2 252.732 112.152 252.707L112.051 252.634C111.945 252.545 111.845 252.448 111.754 252.345C111.575 252.142 111.401 251.939 111.232 251.736C109.348 249.317 107.675 246.81 106.009 244.347H106.32C105.01 246.343 103.588 248.264 102.061 250.099C101.313 251.007 100.496 251.857 99.6194 252.642C99.3948 252.83 99.1557 253.011 98.8949 253.192C98.6611 253.358 98.4193 253.513 98.1705 253.656C97.8894 253.79 97.5886 253.878 97.2795 253.917C96.9738 253.919 96.6692 253.88 96.3739 253.801C95.2774 253.45 94.2396 252.938 93.2951 252.279C92.3389 251.671 91.4406 251.004 90.5713 250.323C88.8327 248.954 87.1954 247.527 85.6524 246.071H85.9132C73.7718 256.756 63.3691 265.725 55.9437 271.933C52.2201 275.041 49.25 277.46 47.1636 279.054C46.1205 279.851 45.3019 280.438 44.7296 280.807C44.4456 281.004 44.1421 281.172 43.824 281.307C43.824 281.307 44.1428 281.155 44.6933 280.757C45.2439 280.358 46.0625 279.771 47.0912 278.96C49.1558 277.345 52.1115 274.903 55.7843 271.774C63.1735 265.515 73.54 256.517 85.6597 245.818L85.7828 245.709L85.8987 245.818C87.4345 247.266 89.0717 248.715 90.7958 250.041C91.6652 250.722 92.5562 251.374 93.4907 251.975C94.4092 252.602 95.4148 253.09 96.4754 253.424C97.5547 253.83 98.5327 253.055 99.3731 252.345C100.234 251.57 101.035 250.732 101.771 249.838C103.288 248.016 104.698 246.108 105.994 244.122L106.154 243.891L106.313 244.122C107.972 246.578 109.653 249.092 111.522 251.483C111.681 251.685 111.848 251.881 112.022 252.069C112.101 252.161 112.188 252.246 112.282 252.323L112.34 252.366C112.34 252.366 112.34 252.366 112.34 252.432C112.34 252.497 112.34 252.54 112.34 252.366H112.521C112.756 252.395 112.994 252.375 113.221 252.307C113.448 252.24 113.658 252.127 113.84 251.975C114.214 251.678 114.46 251.249 114.527 250.776C114.594 250.303 114.478 249.822 114.202 249.432C113.239 247.585 112.398 245.745 111.536 243.92L106.632 233.285L106.523 233.06H106.777C107.733 232.951 108.677 232.75 109.595 232.459C110.027 232.328 110.433 232.125 110.797 231.858C110.956 231.746 111.075 231.586 111.138 231.401C111.155 231.313 111.154 231.222 111.135 231.133C111.116 231.045 111.08 230.961 111.029 230.887V230.836C110.953 230.602 110.82 230.389 110.642 230.219C110.463 230.048 110.245 229.924 110.008 229.858C109.502 229.682 108.971 229.591 108.436 229.59C107.9 229.59 107.371 229.648 106.791 229.634C106.223 229.614 105.666 229.468 105.161 229.206C104.162 228.692 103.401 227.91 102.517 227.374C101.648 226.824 100.682 226.448 99.6701 226.265C97.6634 225.903 95.635 226.207 93.6863 226.381C91.7376 226.555 89.8468 226.939 88.0285 227.316C81.7062 228.777 75.6131 231.095 69.9179 234.205C66.1957 236.231 62.5897 238.463 59.1167 240.891L56.3711 242.876L55.6467 243.383C55.5525 243.478 55.4873 243.528 55.4873 243.528Z" fill="#EB996E"/>
<path d="M42.7301 262.553C42.6556 262.38 42.6068 262.197 42.5853 262.01C42.4858 261.51 42.4228 261.004 42.3969 260.495C42.2095 257.106 43.1467 253.75 45.0628 250.948C45.3486 250.528 45.6633 250.128 46.0046 249.752C46.2509 249.484 46.3885 249.354 46.4102 249.368C46.432 249.383 45.9538 250.02 45.2874 251.092C43.5305 253.916 42.6204 257.185 42.6649 260.51C42.6794 261.756 42.7953 262.538 42.7301 262.553Z" fill="#EB996E"/>
<path d="M26.8725 186.855C26.5247 187.087 13.7748 190.898 11.7682 203.974C9.7615 217.05 10.9641 239.782 10.9641 239.782L45.5482 237.406L35.638 191.463L26.8725 186.855Z" fill="#FF5811"/>
<path d="M100.402 251.858C100.38 251.462 100.38 251.065 100.402 250.67C100.368 249.732 100.123 248.814 99.6852 247.983C99.2475 247.153 98.6282 246.432 97.8735 245.874C97.2867 245.447 96.8593 245.273 96.8883 245.215C97.2957 245.262 97.6845 245.411 98.0184 245.65C98.8685 246.181 99.5593 246.931 100.018 247.823C100.491 248.713 100.716 249.714 100.67 250.72C100.677 251.116 100.585 251.507 100.402 251.858Z" fill="#EB996E"/>
<path d="M103.568 247.985C103.347 246.881 102.951 245.819 102.394 244.841C101.737 243.925 100.94 243.118 100.032 242.45C100.032 242.407 100.431 242.523 100.974 242.863C101.669 243.327 102.261 243.931 102.711 244.635C103.161 245.34 103.46 246.13 103.589 246.956C103.673 247.295 103.666 247.65 103.568 247.985Z" fill="#EB996E"/>
<path d="M103.568 239.724C103.568 239.688 103.893 239.833 104.292 240.188C104.804 240.662 105.213 241.237 105.494 241.876C105.782 242.511 105.932 243.2 105.936 243.897C105.936 244.433 105.842 244.752 105.791 244.744C105.688 243.817 105.474 242.905 105.154 242.028C104.717 241.2 104.185 240.427 103.568 239.724Z" fill="#EB996E"/>
<path d="M41.3393 215.733H41.1582L40.6366 215.675C39.9686 215.589 39.2961 215.543 38.6227 215.537C36.144 215.511 33.6837 215.966 31.3784 216.877C27.9517 218.212 25.006 220.547 22.9243 223.578C21.6668 225.327 21.0133 227.438 21.0626 229.591C21.1312 230.714 21.4799 231.803 22.0768 232.757C22.6788 233.739 23.6072 234.477 24.6992 234.843C25.7912 235.206 26.9792 235.149 28.0315 234.684C28.5296 234.449 28.9698 234.107 29.3204 233.683C29.6711 233.258 29.9236 232.761 30.0599 232.228C30.3063 231.174 30.2637 230.073 29.9368 229.041C29.6416 228.035 29.1734 227.089 28.5531 226.244C27.4604 224.782 26.0885 223.55 24.5167 222.621C22.945 221.693 21.2046 221.085 19.3964 220.833C16.9383 220.509 14.4384 220.844 12.1521 221.803C11.5345 222.069 10.9322 222.369 10.3483 222.702L9.89915 222.977L9.73978 223.064C10.4621 222.498 11.2562 222.03 12.1014 221.673C14.9702 220.385 18.1923 220.114 21.2361 220.904C24.2798 221.694 26.963 223.499 28.8429 226.02C29.4875 226.896 29.9775 227.876 30.2918 228.917C30.6389 230.013 30.6864 231.181 30.4294 232.3C30.2766 232.886 29.9977 233.431 29.6123 233.898C29.2269 234.365 28.7443 234.742 28.1982 235.003C27.0553 235.513 25.7625 235.575 24.576 235.176C23.3994 234.787 22.3985 233.994 21.7508 232.938C21.1387 231.942 20.7828 230.809 20.7148 229.642C20.6623 227.409 21.3444 225.22 22.6563 223.412C24.7713 220.316 27.7816 217.94 31.2842 216.602C33.6237 215.705 36.1181 215.281 38.6227 215.356C39.5387 215.389 40.4489 215.515 41.3393 215.733Z" fill="#FAFAFA"/>
<path d="M40.1512 196.968C39.8743 197.134 39.5804 197.27 39.2747 197.374C38.9285 197.525 38.5727 197.653 38.2097 197.758C37.7896 197.881 37.3115 198.055 36.7609 198.164C36.1707 198.306 35.5735 198.417 34.9716 198.497C34.2824 198.598 33.5884 198.664 32.8925 198.692C31.292 198.749 29.6899 198.643 28.1112 198.374C26.5367 198.086 24.9955 197.639 23.5111 197.041C22.8684 196.768 22.2397 196.464 21.6276 196.128C21.0892 195.847 20.569 195.532 20.0701 195.186C19.6493 194.916 19.243 194.623 18.8531 194.31C18.5474 194.088 18.257 193.846 17.9838 193.585C17.7345 193.379 17.5064 193.148 17.3028 192.897C17.3607 192.839 18.346 193.803 20.2005 194.969C20.7018 195.296 21.2219 195.594 21.758 195.86C22.3231 196.171 22.9678 196.432 23.6343 196.729C25.0985 197.307 26.6146 197.744 28.1619 198.033C29.7145 198.299 31.2886 198.418 32.8635 198.388C33.5879 198.345 34.3123 198.323 34.9208 198.222C35.5149 198.161 36.105 198.066 36.6884 197.939C38.8617 197.446 40.1222 196.889 40.1512 196.968Z" fill="#FAFAFA"/>
<path d="M43.0055 219.129C43.0512 219.24 43.0782 219.357 43.0851 219.477C43.1286 219.737 43.1866 220.071 43.259 220.484C43.3966 221.404 43.5922 222.657 43.8385 224.272C44.3094 227.554 44.9686 232.111 45.7293 237.399V237.587H45.5337L37.4563 238.152L18.7082 239.384L13.0214 239.717L11.4784 239.782C11.2978 239.801 11.1157 239.801 10.9351 239.782C11.1112 239.742 11.2907 239.718 11.4712 239.71L13.0142 239.565L18.6937 239.116L37.4346 237.776L45.512 237.225L45.3454 237.435C44.6209 232.14 44.0269 227.576 43.585 224.287C43.3894 222.693 43.2228 221.389 43.1069 220.484C43.0634 220.071 43.0272 219.759 42.9982 219.469C42.9917 219.356 42.9941 219.242 43.0055 219.129Z" fill="#263238"/>
<g opacity="0.2">
<path d="M26.2422 186.496C25.8945 187.713 26.858 188.864 27.4882 189.958C28.7053 192.081 28.7777 194.638 28.8864 197.079C28.9635 201.557 29.6532 206.003 30.9365 210.293C32.3274 214.538 34.718 218.552 38.246 221.297C41.7739 224.043 46.5334 225.376 50.8582 224.245C55.1831 223.115 58.8269 219.29 59.1891 214.828C59.5513 210.365 56.871 206.403 55.3352 202.245C54.1544 199.035 53.6255 195.631 52.9446 192.284C52.2636 188.937 51.3943 185.561 49.6122 182.642C47.8301 179.722 45.0193 177.274 41.6435 176.658C38.2677 176.042 34.4355 177.636 33.0808 180.773" fill="black"/>
</g>
<path d="M42.9475 127.996V131.843L42.6939 189.515C42.6939 196.208 48.3952 201.562 55.567 201.54C62.8113 201.54 68.7878 196.02 68.9254 189.225C69.0703 182.126 69.3601 174.657 69.3601 174.657C69.3601 174.657 78.5313 173.295 80.6394 161.4C81.6826 155.481 81.5594 145.752 81.1972 137.791C81.1225 136.092 80.7047 134.426 79.969 132.893C79.2332 131.36 78.1948 129.992 76.9162 128.871C75.6375 127.75 74.1452 126.899 72.5292 126.371C70.9131 125.842 69.2067 125.646 67.5128 125.794L42.9475 127.996Z" fill="#FFBE9D"/>
<path d="M78.4009 145.092C78.3972 145.49 78.2385 145.871 77.9585 146.153C77.6784 146.436 77.2992 146.599 76.9013 146.606C76.7063 146.62 76.5106 146.594 76.3258 146.53C76.141 146.466 75.9711 146.366 75.8263 146.234C75.6814 146.103 75.5647 145.944 75.483 145.766C75.4013 145.588 75.3565 145.396 75.3511 145.201C75.3529 144.801 75.5108 144.419 75.791 144.135C76.0712 143.85 76.4515 143.687 76.8506 143.679C77.0462 143.666 77.2426 143.692 77.4278 143.756C77.6131 143.82 77.7833 143.922 77.9283 144.054C78.0732 144.186 78.1898 144.346 78.2711 144.524C78.3523 144.703 78.3965 144.896 78.4009 145.092Z" fill="#263238"/>
<path d="M79.0095 142.856C78.8139 143.052 77.6693 142.175 76.0248 142.132C74.3804 142.088 73.1271 142.914 72.9822 142.704C72.8953 142.617 73.0909 142.262 73.627 141.885C74.3466 141.398 75.1993 141.145 76.0683 141.161C76.9245 141.17 77.755 141.455 78.4372 141.972C78.937 142.407 79.1036 142.769 79.0095 142.856Z" fill="#263238"/>
<path d="M62.804 144.812C62.8021 145.215 62.6412 145.601 62.3563 145.886C62.0715 146.17 61.6856 146.331 61.2827 146.333C61.0871 146.347 60.8907 146.321 60.7055 146.257C60.5203 146.192 60.35 146.091 60.2051 145.959C60.0601 145.827 59.9435 145.667 59.8623 145.488C59.781 145.31 59.7369 145.117 59.7325 144.921C59.7438 144.519 59.9129 144.138 60.203 143.86C60.4931 143.582 60.881 143.43 61.2827 143.435C61.473 143.426 61.6634 143.454 61.8429 143.518C62.0225 143.581 62.1876 143.68 62.3289 143.808C62.4703 143.936 62.585 144.09 62.6665 144.263C62.748 144.435 62.7947 144.622 62.804 144.812Z" fill="#263238"/>
<path d="M62.8185 142.876C62.6229 143.072 61.4783 142.195 59.8339 142.151C58.1894 142.108 56.9362 142.927 56.7913 142.724C56.7043 142.637 56.8999 142.275 57.436 141.905C58.154 141.414 59.0078 141.161 59.8773 141.181C60.7337 141.196 61.5633 141.482 62.2462 141.999C62.7316 142.42 62.9127 142.789 62.8185 142.876Z" fill="#263238"/>
<path d="M68.5777 155.193C69.4493 154.936 70.3499 154.79 71.2581 154.758C71.6782 154.758 72.0767 154.65 72.1564 154.36C72.1972 153.925 72.1063 153.489 71.8956 153.107C71.5189 152.085 71.1277 151.013 70.7075 149.883C69.0631 145.297 67.8822 141.523 68.0633 141.458C68.2445 141.393 69.7368 145.08 71.3812 149.651L72.5186 152.897C72.7703 153.409 72.8368 153.992 72.7069 154.548C72.6403 154.697 72.5404 154.829 72.4148 154.933C72.2892 155.038 72.1413 155.112 71.9825 155.15C71.746 155.211 71.5024 155.24 71.2581 155.236C70.3663 155.333 69.4659 155.319 68.5777 155.193Z" fill="#263238"/>
<path d="M69.3673 174.702C63.7362 174.689 58.219 173.114 53.4299 170.152C53.4299 170.152 57.1969 178.418 69.1572 177.484L69.3673 174.702Z" fill="#EB996E"/>
<path d="M67.8026 159.149C67.4941 158.75 67.0902 158.435 66.628 158.234C66.1659 158.033 65.6604 157.951 65.1584 157.997C64.7954 158.024 64.4417 158.124 64.1181 158.291C63.7945 158.458 63.5078 158.688 63.2749 158.967C63.0489 159.238 62.9118 159.572 62.8819 159.923C62.8521 160.274 62.9312 160.626 63.1083 160.931C63.3697 161.235 63.7169 161.454 64.1045 161.559C64.4921 161.664 64.9023 161.649 65.2815 161.517C66.0635 161.255 66.7851 160.838 67.4041 160.293C67.5928 160.166 67.7551 160.004 67.8822 159.815C67.9439 159.726 67.977 159.619 67.977 159.511C67.977 159.402 67.9439 159.296 67.8822 159.207" fill="#EB996E"/>
<path d="M63.7095 156.242C63.9776 156.242 63.9486 158.024 65.4554 159.314C66.9622 160.603 68.8675 160.451 68.882 160.698C68.882 160.813 68.4473 161.038 67.6432 161.045C66.5978 161.042 65.5871 160.67 64.7889 159.995C64.0307 159.341 63.5534 158.42 63.456 157.423C63.3836 156.67 63.5864 156.235 63.7095 156.242Z" fill="#263238"/>
<path d="M63.3546 136.429C63.188 136.871 61.5435 136.632 59.6093 136.835C57.6751 137.038 56.1031 137.559 55.8568 137.125C55.7409 136.929 56.0234 136.516 56.6609 136.089C57.5119 135.575 58.4682 135.26 59.4581 135.169C60.448 135.077 61.4458 135.211 62.3766 135.56C63.0793 135.857 63.456 136.19 63.3546 136.429Z" fill="#263238"/>
<path d="M78.4878 138.082C78.1908 138.452 77.039 138.039 75.6988 137.995C74.3586 137.952 73.1778 138.205 72.917 137.807C72.8011 137.619 72.9894 137.249 73.5038 136.902C74.1887 136.49 74.9806 136.29 75.7789 136.329C76.5772 136.368 77.3461 136.643 77.988 137.119C78.4661 137.51 78.6182 137.901 78.4878 138.082Z" fill="#263238"/>
<path d="M57.9069 124.077C61.1378 128.278 57.9069 134.313 54.2413 138.174C50.5757 142.035 46.1784 146.52 47.2288 151.721C48.4531 157.741 56.7478 161.53 55.5815 167.564C55.1541 169.774 53.4082 171.664 53.4517 173.903C53.4517 177.96 58.7327 179.872 60.283 183.617C62.3983 188.746 56.7623 193.941 56.7333 199.49C56.7333 202.641 58.5299 205.568 58.6531 208.719C58.9138 215.166 51.3291 219.969 45.0483 218.441C38.7675 216.912 34.4282 210.849 33.0301 204.553C31.6319 198.258 32.552 191.688 33.4937 185.298C32.8997 188.029 28.7705 188.573 26.7276 186.667C24.6847 184.762 24.4167 181.596 24.8441 178.851C25.9235 171.94 30.4004 166.05 32.494 159.371C34.3268 153.539 34.2761 147.309 35.044 141.26C35.8119 135.211 37.6229 128.865 42.2086 124.823C46.7942 120.781 54.8064 120.208 58.5951 125.004" fill="#263238"/>
<path d="M41.5494 216.138C41.5998 216.046 41.658 215.959 41.7232 215.877L42.1868 215.203C42.7401 214.312 43.2036 213.368 43.5705 212.385C44.1462 210.831 44.4714 209.195 44.534 207.539C44.6231 205.346 44.2222 203.16 43.3604 201.142C42.4042 198.896 40.738 196.795 38.9704 194.506C38.0388 193.335 37.1823 192.106 36.4059 190.826C35.6061 189.44 35.0361 187.933 34.718 186.364C34.3665 184.696 34.5048 182.963 35.1164 181.372C35.4627 180.566 35.9538 179.829 36.5653 179.199C37.2029 178.588 37.8858 178.026 38.6082 177.518C40.057 176.497 41.5494 175.461 42.3317 173.846C43.0619 172.18 43.1799 170.309 42.665 168.565C41.7957 164.942 39.2747 162.124 37.6592 158.966C36.8011 157.426 36.287 155.718 36.1524 153.96C36.0848 152.27 36.4071 150.587 37.0941 149.041C38.4159 146.234 40.3315 143.748 42.7084 141.753C44.8817 139.819 46.9826 138.175 48.7212 136.465C50.3397 134.979 51.6857 133.221 52.6983 131.271C53.4516 129.808 53.9072 128.21 54.0385 126.57C54.1282 125.526 54.0225 124.474 53.727 123.469C53.5314 122.745 53.3575 122.433 53.3792 122.426C53.5537 122.751 53.6945 123.093 53.7994 123.447C54.127 124.456 54.2574 125.519 54.1833 126.577C54.0756 128.255 53.6296 129.893 52.8721 131.394C51.8656 133.378 50.5196 135.17 48.895 136.69C47.1492 138.421 45.0338 140.087 42.904 142.014C40.5749 143.987 38.6972 146.438 37.3984 149.201C36.736 150.699 36.4286 152.33 36.5001 153.967C36.6289 155.673 37.123 157.331 37.949 158.828C38.7531 160.378 39.7673 161.856 40.7235 163.414C41.7394 164.975 42.5045 166.686 42.991 168.485C43.5258 170.314 43.4001 172.273 42.636 174.019C41.7884 175.744 40.1947 176.808 38.7893 177.83C38.0807 178.322 37.4122 178.87 36.7899 179.467C36.1973 180.057 35.7205 180.752 35.3845 181.517C34.795 183.042 34.6591 184.705 34.9933 186.306C35.2988 187.834 35.8518 189.302 36.6305 190.652C37.3919 191.913 38.2339 193.123 39.1515 194.274C40.9046 196.549 42.5853 198.701 43.5415 200.997C44.4036 203.058 44.7923 205.286 44.6789 207.517C44.6019 209.192 44.252 210.844 43.6429 212.407C43.2651 213.392 42.7791 214.332 42.1941 215.21C41.9913 215.507 41.8174 215.725 41.7087 215.877C41.6001 216.029 41.5566 216.145 41.5494 216.138Z" fill="#455A64"/>
<path d="M130.386 229.807L102.93 277.742L64.05 279.089V283.371H177.633L208.544 232.733C208.796 232.297 208.93 231.802 208.933 231.298C208.935 230.794 208.806 230.297 208.558 229.859C208.31 229.42 207.952 229.053 207.518 228.795C207.085 228.537 206.592 228.396 206.088 228.387H132.878C132.375 228.387 131.881 228.518 131.444 228.767C131.007 229.016 130.642 229.374 130.386 229.807Z" fill="#263238"/>
<path d="M164.774 255.404C163.05 258.084 160.391 259.446 158.841 258.454C157.291 257.461 157.429 254.477 159.153 251.789C160.877 249.101 163.536 247.747 165.086 248.739C166.636 249.732 166.498 252.723 164.774 255.404Z" fill="#E0E0E0"/>
<path d="M301.749 261.749C301.713 261.618 301.662 261.491 301.597 261.372L301.097 260.307C300.494 258.921 300.009 257.487 299.648 256.019C298.67 252.208 298.33 246.391 299.771 239.473C300.555 235.707 301.581 231.995 302.843 228.36C304.139 224.419 305.654 220.232 306.885 215.712C308.277 210.988 308.949 206.082 308.877 201.158C308.689 196.015 307.168 190.878 305.494 185.764C303.821 180.65 302.089 175.622 301.575 170.609C300.998 165.765 301.97 160.864 304.35 156.606C306.566 152.52 309.363 149.021 311.449 145.406C313.4 142.051 314.839 138.422 315.716 134.641C316.969 129.167 317.06 123.491 315.984 117.979C315.598 115.964 315.016 113.992 314.245 112.09C314.261 112.224 314.295 112.356 314.347 112.481C314.434 112.756 314.549 113.133 314.694 113.611C315.137 115.058 315.5 116.529 315.781 118.016C316.775 123.507 316.627 129.144 315.346 134.576C314.454 138.311 313.012 141.893 311.065 145.203C308.986 148.782 306.182 152.259 303.922 156.396C301.47 160.732 300.456 165.733 301.024 170.681C301.546 175.796 303.292 180.823 304.958 185.952C306.624 191.081 308.138 196.145 308.327 201.165C308.402 206.036 307.745 210.891 306.378 215.567C305.168 220.066 303.676 224.26 302.394 228.208C301.144 231.864 300.137 235.598 299.38 239.386C297.975 246.355 298.373 252.237 299.416 256.048C299.812 257.52 300.34 258.953 300.995 260.329C301.227 260.771 301.416 261.119 301.546 261.38C301.605 261.508 301.672 261.631 301.749 261.749Z" fill="#263238"/>
<path d="M308.58 148.977C308.58 148.977 312.825 135.415 305.219 127.476C305.16 127.413 305.084 127.368 305.001 127.345C304.917 127.322 304.829 127.323 304.746 127.347C304.663 127.37 304.588 127.417 304.53 127.48C304.471 127.544 304.432 127.623 304.415 127.707C304.002 129.946 303.495 136.77 308.58 148.977Z" fill="#FF5811"/>
<path d="M306.045 131.996C306.055 132.837 306.15 133.674 306.327 134.495C306.61 136.219 306.936 138.241 307.298 140.479C307.66 142.718 307.972 144.732 308.247 146.456C308.32 147.294 308.47 148.123 308.696 148.933C308.768 148.093 308.741 147.247 308.616 146.412C308.479 144.862 308.204 142.732 307.82 140.392C307.436 138.052 307.03 135.944 306.697 134.43C306.569 133.597 306.351 132.781 306.045 131.996Z" fill="#263238"/>
<path d="M303.603 180.954C303.603 180.954 301.01 166.987 290.564 163.524C290.481 163.494 290.391 163.488 290.305 163.506C290.219 163.525 290.14 163.567 290.077 163.628C290.013 163.689 289.968 163.767 289.947 163.852C289.925 163.937 289.928 164.027 289.955 164.111C290.658 166.277 293.404 172.543 303.603 180.954Z" fill="#FF5811"/>
<path d="M293.418 167.133C293.828 167.874 294.314 168.571 294.867 169.212L298.489 174.044L302.111 178.883C302.566 179.59 303.088 180.252 303.669 180.861C303.342 180.089 302.923 179.359 302.423 178.687C301.575 177.383 300.336 175.623 298.902 173.74C297.468 171.856 296.12 170.175 295.12 168.995C294.622 168.314 294.051 167.69 293.418 167.133Z" fill="#263238"/>
<path d="M306.421 215.989C306.421 215.989 308.001 201.877 299.018 195.531C298.948 195.486 298.867 195.461 298.783 195.457C298.7 195.454 298.617 195.473 298.544 195.512C298.47 195.551 298.408 195.609 298.364 195.68C298.32 195.751 298.296 195.832 298.293 195.915C298.301 198.19 299.105 205.014 306.421 215.989Z" fill="#FF5811"/>
<path d="M300.691 199.812C300.851 200.634 301.093 201.438 301.416 202.21L303.509 207.897L305.581 213.584C305.816 214.392 306.121 215.177 306.494 215.931C306.408 215.09 306.221 214.263 305.936 213.468C305.509 211.976 304.828 209.933 304.009 207.709C303.19 205.485 302.386 203.5 301.771 202.073C301.495 201.282 301.133 200.524 300.691 199.812Z" fill="#263238"/>
<path d="M298.561 251.229C298.561 251.229 299.619 237.066 290.426 231.09C290.354 231.044 290.271 231.018 290.186 231.016C290.101 231.013 290.017 231.034 289.942 231.076C289.868 231.117 289.806 231.178 289.764 231.252C289.722 231.326 289.7 231.41 289.702 231.495C289.803 233.734 290.853 240.507 298.561 251.229Z" fill="#FF5811"/>
<path d="M292.252 235.266C292.455 236.074 292.739 236.861 293.099 237.613L295.388 243.22C296.236 245.313 297.011 247.211 297.663 248.827C297.921 249.628 298.256 250.402 298.663 251.138C298.546 250.303 298.33 249.486 298.018 248.704C297.533 247.255 296.787 245.212 295.845 243.017C294.903 240.822 294.07 238.866 293.404 237.461C293.1 236.69 292.713 235.954 292.252 235.266Z" fill="#263238"/>
<path d="M314.673 137.061C314.673 137.061 327.27 130.49 327.517 119.494C327.516 119.409 327.493 119.327 327.45 119.254C327.407 119.182 327.346 119.122 327.272 119.08C327.199 119.039 327.116 119.018 327.031 119.02C326.947 119.021 326.865 119.044 326.792 119.088C324.909 120.385 319.722 124.84 314.673 137.061Z" fill="#FF5811"/>
<path d="M324.902 123.273C324.31 123.871 323.784 124.529 323.33 125.237L319.78 130.148L316.223 135.045C315.675 135.685 315.189 136.377 314.774 137.11C315.417 136.567 315.996 135.952 316.498 135.277C317.498 134.082 318.816 132.379 320.2 130.46C321.584 128.54 322.786 126.758 323.627 125.454C324.127 124.774 324.555 124.043 324.902 123.273Z" fill="#263238"/>
<path d="M301.155 166.184C301.155 166.184 314.122 160.388 315.035 149.428C315.048 149.338 315.035 149.246 314.997 149.164C314.959 149.081 314.898 149.012 314.821 148.964C314.744 148.916 314.654 148.892 314.563 148.895C314.473 148.897 314.385 148.926 314.31 148.978C312.383 150.152 306.936 154.303 301.155 166.184Z" fill="#FF5811"/>
<path d="M312.195 153.035C311.576 153.602 311.013 154.228 310.514 154.904L306.668 159.591L302.821 164.264C302.239 164.868 301.717 165.528 301.263 166.234C301.942 165.736 302.557 165.157 303.096 164.51C304.168 163.38 305.581 161.764 307.081 159.924C308.58 158.084 309.891 156.389 310.811 155.136C311.348 154.488 311.812 153.784 312.195 153.035Z" fill="#263238"/>
<path d="M308.616 198.66C308.616 198.66 317.52 187.626 313.383 177.419C313.35 177.339 313.295 177.27 313.226 177.218C313.156 177.167 313.073 177.135 312.987 177.127C312.901 177.119 312.814 177.134 312.735 177.172C312.657 177.209 312.591 177.267 312.543 177.34C311.311 179.281 308.348 185.453 308.616 198.66Z" fill="#FF5811"/>
<path d="M312.463 181.926C312.163 182.713 311.944 183.528 311.811 184.36L310.529 190.278C310.036 192.452 309.594 194.487 309.225 196.19C308.986 196.997 308.821 197.823 308.732 198.66C309.114 197.906 309.402 197.108 309.587 196.284C310.022 194.792 310.551 192.712 311.036 190.394C311.521 188.076 311.927 185.968 312.173 184.432C312.362 183.61 312.459 182.769 312.463 181.926Z" fill="#263238"/>
<path d="M299.8 236.888C299.8 236.888 312.659 230.86 313.383 219.893C313.39 219.805 313.373 219.717 313.333 219.639C313.293 219.561 313.232 219.495 313.156 219.45C313.081 219.405 312.994 219.381 312.906 219.383C312.818 219.384 312.733 219.41 312.659 219.458C310.754 220.668 305.414 224.891 299.8 236.888Z" fill="#FF5811"/>
<path d="M310.616 223.551C310.003 224.126 309.449 224.762 308.964 225.449L305.204 230.194L301.43 234.932C300.86 235.549 300.348 236.218 299.902 236.931C300.575 236.423 301.183 235.835 301.713 235.178C302.763 234.026 304.154 232.389 305.617 230.527C307.081 228.665 308.37 226.905 309.239 225.673C309.776 225.019 310.238 224.307 310.616 223.551Z" fill="#263238"/>
<path d="M274.163 181.027C274.152 181.131 274.152 181.235 274.163 181.339C274.163 181.592 274.163 181.889 274.163 182.252C274.199 183.106 274.25 184.258 274.315 185.693C274.481 188.721 274.713 192.937 274.989 198.008C275.909 203.151 278.524 208.874 282.037 214.38C284.616 218.451 287.326 222.16 289.658 225.601C291.774 228.606 293.681 231.753 295.367 235.019C296.469 237.239 297.361 239.558 298.033 241.944C298.264 242.792 298.431 243.458 298.532 243.908C298.569 244.143 298.632 244.374 298.721 244.596C298.713 244.352 298.684 244.11 298.634 243.871C298.569 243.415 298.431 242.741 298.235 241.879C297.636 239.453 296.786 237.096 295.7 234.845C294.059 231.528 292.175 228.336 290.064 225.297C287.746 221.827 285.058 218.111 282.486 214.061C278.995 208.556 276.387 202.941 275.438 197.885C275.083 192.814 274.786 188.627 274.576 185.57C274.46 184.121 274.366 182.983 274.293 182.136C274.257 181.774 274.228 181.476 274.206 181.23C274.2 181.161 274.185 181.093 274.163 181.027Z" fill="#263238"/>
<path d="M281.827 213.334C281.827 213.334 276.379 200.215 283.232 191.601C283.286 191.532 283.357 191.479 283.439 191.448C283.52 191.418 283.609 191.41 283.695 191.426C283.78 191.443 283.859 191.483 283.924 191.542C283.988 191.601 284.035 191.677 284.058 191.761C284.667 193.97 285.79 200.714 281.827 213.334Z" fill="#FF5811"/>
<path d="M282.82 196.195C282.584 197.005 282.438 197.838 282.385 198.68C282.197 200.216 281.979 202.353 281.813 204.715C281.646 207.076 281.559 209.228 281.559 210.785C281.513 211.626 281.564 212.47 281.711 213.299C281.864 212.475 281.939 211.638 281.936 210.8C282.052 209.054 282.189 207.011 282.341 204.758C282.494 202.505 282.638 200.455 282.762 198.709C282.864 197.875 282.883 197.033 282.82 196.195Z" fill="#263238"/>
<g opacity="0.3">
<path d="M281.827 213.334C281.827 213.334 276.379 200.215 283.232 191.601C283.286 191.532 283.357 191.479 283.439 191.448C283.52 191.418 283.609 191.41 283.695 191.426C283.78 191.443 283.859 191.483 283.924 191.542C283.988 191.601 284.035 191.677 284.058 191.761C284.667 193.97 285.79 200.714 281.827 213.334Z" fill="black"/>
</g>
<path d="M298.706 244.948C298.706 244.948 294.36 231.43 301.872 223.418C301.931 223.356 302.006 223.31 302.089 223.287C302.172 223.264 302.259 223.264 302.342 223.287C302.425 223.31 302.5 223.355 302.559 223.418C302.618 223.481 302.658 223.559 302.676 223.643C303.104 225.881 303.676 232.691 298.706 244.948Z" fill="#FF5811"/>
<path d="M301.068 227.949C300.763 228.734 300.55 229.55 300.43 230.383C300.119 231.905 299.706 234.005 299.366 236.36C299.025 238.714 298.75 240.837 298.641 242.387C298.52 243.222 298.503 244.069 298.59 244.908C298.811 244.098 298.954 243.268 299.018 242.43C299.271 240.706 299.576 238.678 299.909 236.439C300.242 234.201 300.554 232.18 300.814 230.448C300.983 229.626 301.068 228.789 301.068 227.949Z" fill="#263238"/>
<g opacity="0.3">
<path d="M298.706 244.948C298.706 244.948 294.36 231.43 301.872 223.418C301.931 223.356 302.006 223.31 302.089 223.287C302.172 223.264 302.259 223.264 302.342 223.287C302.425 223.31 302.5 223.355 302.559 223.418C302.618 223.481 302.658 223.559 302.676 223.643C303.104 225.881 303.676 232.691 298.706 244.948Z" fill="black"/>
</g>
<path d="M274.887 197.303C274.887 197.303 263.253 189.153 264.426 178.207C264.433 178.121 264.465 178.038 264.516 177.968C264.568 177.899 264.638 177.845 264.719 177.813C264.8 177.782 264.888 177.773 264.973 177.789C265.058 177.805 265.138 177.844 265.202 177.903C266.889 179.439 271.461 184.531 274.887 197.303Z" fill="#FF5811"/>
<g opacity="0.3">
<path d="M274.887 197.303C274.887 197.303 263.253 189.153 264.426 178.207C264.433 178.121 264.465 178.038 264.516 177.968C264.568 177.899 264.638 177.845 264.719 177.813C264.8 177.782 264.888 177.773 264.973 177.789C265.058 177.805 265.138 177.844 265.202 177.903C266.889 179.439 271.461 184.531 274.887 197.303Z" fill="black"/>
</g>
<path d="M266.527 182.309C266.765 183.117 267.09 183.897 267.498 184.634C268.157 186.039 269.121 187.952 270.251 190.038C271.381 192.125 272.46 193.979 273.293 195.298C273.691 196.033 274.178 196.716 274.742 197.333C274.425 196.557 274.039 195.81 273.59 195.102C272.75 193.573 271.772 191.777 270.693 189.785C269.613 187.793 268.643 185.996 267.795 184.46C267.445 183.703 267.02 182.982 266.527 182.309Z" fill="#263238"/>
<path d="M294.012 231.549C294.012 231.549 279.98 229.376 276.22 219.031C276.189 218.949 276.181 218.861 276.197 218.775C276.213 218.689 276.252 218.61 276.311 218.545C276.369 218.481 276.445 218.434 276.528 218.409C276.612 218.385 276.701 218.384 276.785 218.408C278.973 219.031 285.312 221.595 294.012 231.549Z" fill="#FF5811"/>
<g opacity="0.3">
<path d="M294.012 231.549C294.012 231.549 279.98 229.376 276.22 219.031C276.189 218.949 276.181 218.861 276.197 218.775C276.213 218.689 276.252 218.61 276.311 218.545C276.369 218.481 276.445 218.434 276.528 218.409C276.612 218.385 276.701 218.384 276.785 218.408C278.973 219.031 285.312 221.595 294.012 231.549Z" fill="black"/>
</g>
<path d="M279.907 221.77C280.477 222.388 281.111 222.944 281.798 223.428C283.015 224.399 284.696 225.696 286.652 227.051C288.608 228.405 290.375 229.615 291.723 230.426C292.416 230.905 293.162 231.301 293.947 231.607C293.321 231.046 292.644 230.544 291.926 230.108L286.985 226.616L282.023 223.124C281.365 222.603 280.656 222.149 279.907 221.77Z" fill="#263238"/>
<path d="M310.623 257.379L306.595 283.784L290.52 283.755L285.102 257.379H310.623Z" fill="#455A64"/>
<path d="M287.456 267.565L287.594 267.659C287.729 267.748 287.87 267.83 288.014 267.905C288.581 268.177 289.187 268.358 289.81 268.441C290.807 268.573 291.82 268.476 292.773 268.159C294.053 267.756 295.167 266.948 295.946 265.855C296.378 265.195 296.628 264.433 296.671 263.646C296.716 263.203 296.639 262.757 296.447 262.356C296.255 261.954 295.957 261.614 295.584 261.371C295.157 261.158 294.68 261.067 294.205 261.107C293.73 261.146 293.275 261.315 292.889 261.596C292.088 262.182 291.537 263.048 291.346 264.022C291.135 265.002 291.069 266.008 291.151 267.007C291.202 268.052 291.422 269.082 291.802 270.057C292.197 271.082 292.836 271.994 293.664 272.715C294.526 273.472 295.613 273.925 296.758 274.005C297.899 274.022 299.019 273.697 299.974 273.07C300.895 272.49 301.708 271.754 302.379 270.897C303.07 270.078 303.492 269.067 303.589 267.999C303.633 267.477 303.554 266.951 303.356 266.465C303.158 265.979 302.848 265.546 302.452 265.203C302.046 264.9 301.56 264.722 301.054 264.691C300.548 264.66 300.044 264.778 299.605 265.029C299.179 265.237 298.808 265.542 298.523 265.919C298.237 266.297 298.044 266.737 297.96 267.203C297.84 268.022 297.969 268.859 298.331 269.605C298.692 270.35 299.27 270.97 299.989 271.383C301.174 272.027 302.552 272.225 303.871 271.94C304.848 271.739 305.784 271.374 306.639 270.861C307.177 270.544 307.695 270.193 308.189 269.811C308.365 269.685 308.53 269.544 308.682 269.39C308.49 269.489 308.308 269.606 308.138 269.738C307.626 270.088 307.097 270.412 306.552 270.709C305.704 271.185 304.784 271.52 303.828 271.701C302.57 271.942 301.268 271.734 300.148 271.114C299.496 270.729 298.973 270.157 298.647 269.474C298.321 268.79 298.205 268.025 298.315 267.275C298.397 266.871 298.57 266.491 298.821 266.165C299.072 265.838 299.395 265.574 299.764 265.392C300.139 265.18 300.567 265.082 300.996 265.109C301.426 265.136 301.838 265.287 302.184 265.544C302.528 265.847 302.796 266.228 302.965 266.655C303.134 267.082 303.199 267.542 303.154 267.999C303.053 268.979 302.659 269.905 302.024 270.658C301.378 271.467 300.602 272.162 299.728 272.715C298.851 273.298 297.818 273.601 296.765 273.585C295.727 273.499 294.745 273.077 293.969 272.382C293.192 271.71 292.592 270.856 292.223 269.897C291.859 268.972 291.646 267.993 291.592 267C291.507 266.031 291.565 265.054 291.766 264.102C291.93 263.234 292.414 262.458 293.121 261.929C293.446 261.684 293.832 261.534 294.237 261.493C294.642 261.452 295.05 261.523 295.417 261.697C295.737 261.903 295.994 262.193 296.159 262.536C296.324 262.878 296.391 263.26 296.352 263.638C296.316 264.369 296.086 265.076 295.685 265.689C294.956 266.74 293.907 267.527 292.694 267.934C291.776 268.256 290.799 268.373 289.832 268.275C289.006 268.171 288.203 267.931 287.456 267.565Z" fill="#263238"/>
</g>
<defs>
<clipPath id="clip0_2_3284">
<rect width="327.086" height="283.91" fill="white" transform="translate(0.430908)"/>
</clipPath>
</defs>
</svg>
