<svg width="406" height="472" viewBox="0 0 406 472" fill="none" xmlns="http://www.w3.org/2000/svg">
<g clip-path="url(#clip0_2_6221)">
<path d="M279.542 185.947H352.592V193.887H279.542V185.947Z" fill="#EFF3FC" stroke="#B3C6FC" stroke-width="1.08" stroke-miterlimit="10"/>
<g style="mix-blend-mode:multiply">
<path d="M20.1855 465.327C20.1855 468.589 103.959 471.236 207.311 471.236C310.662 471.236 394.436 468.589 394.436 465.327C394.436 462.064 310.652 459.428 207.311 459.428C103.97 459.428 20.1855 462.074 20.1855 465.327Z" fill="#E3EAFC"/>
</g>
<path d="M167.698 368.82H180.846V468.08H167.698V368.82Z" fill="#FFAA00"/>
<path d="M25.2979 368.82H38.4453V468.08H25.2979V368.82Z" fill="#FFAA00"/>
<path d="M167.698 368.82H180.846V390.3H167.698V368.82Z" fill="#D68F00"/>
<path d="M25.2979 368.82H38.4453V390.3H25.2979V368.82Z" fill="#D68F00"/>
<path d="M13.2558 367.174H192.888V380.321H13.2558V367.174Z" fill="#FFCB5D"/>
<path d="M235.37 1.45703V103.778" stroke="#B3C6FC" stroke-width="2.06" stroke-linecap="round" stroke-linejoin="round"/>
<path d="M227.856 116.681C227.856 118.17 228.297 119.625 229.125 120.863C229.952 122.101 231.128 123.065 232.504 123.634C233.879 124.204 235.393 124.352 236.853 124.061C238.313 123.77 239.654 123.052 240.706 121.998C241.757 120.945 242.473 119.603 242.762 118.143C243.052 116.682 242.901 115.169 242.33 113.794C241.759 112.419 240.793 111.245 239.554 110.419C238.315 109.594 236.859 109.154 235.37 109.156C234.382 109.156 233.404 109.351 232.492 109.729C231.58 110.108 230.751 110.662 230.053 111.361C229.355 112.06 228.802 112.889 228.425 113.802C228.048 114.715 227.854 115.694 227.856 116.681Z" fill="#EFF3FC" stroke="#B3C6FC" stroke-width="1.11" stroke-miterlimit="10"/>
<path d="M206.578 103.777H211.36C211.332 103.637 211.314 103.495 211.307 103.352C211.307 98.144 222.127 93.8926 235.37 93.8926C248.613 93.8926 259.444 98.144 259.444 103.352C259.437 103.495 259.419 103.637 259.391 103.777H262.887L272.772 116.68H197.979L206.578 103.777Z" fill="#EFF3FC" stroke="#B3C6FC" stroke-width="1.11" stroke-miterlimit="10"/>
<path d="M262.887 103.777H206.578" stroke="#B3C6FC" stroke-width="1.11" stroke-miterlimit="10"/>
<g style="mix-blend-mode:multiply">
<path d="M206.578 103.777H211.36C211.36 103.777 211.02 96.061 227.856 94.3711V103.777H230.811L233.733 116.68H197.979L206.578 103.777Z" fill="#E3EAFC"/>
</g>
<g style="mix-blend-mode:multiply">
<path d="M242.895 116.68H227.856L228.302 119.241H242.449L242.895 116.68Z" fill="#E3EAFC"/>
</g>
<g style="mix-blend-mode:multiply">
<path d="M59.6173 129.945H175.734V297.907H59.6173V129.945Z" fill="#E3EAFC"/>
</g>
<path d="M59.6173 126.512H175.734V294.474H59.6173V126.512Z" fill="#EFF3FC" stroke="#B3C6FC" stroke-width="1.19" stroke-miterlimit="10"/>
<path d="M168.07 135.365V285.609H67.291L67.291 135.365H168.07Z" fill="#EFF3FC"/>
<g opacity="0.5">
<path d="M72.7541 135.365L168.06 251.322V209.467L107.169 135.365H72.7541Z" fill="white"/>
<path d="M67.291 164.307V206.162L132.593 285.62H166.986L67.291 164.307Z" fill="white"/>
</g>
<path d="M67.2804 206.948H114.598V135.365H120.742V206.948H168.06V214.037H120.742V285.62H114.598V214.037H67.2804V206.948Z" fill="#EFF3FC" stroke="#B3C6FC" stroke-width="1.19" stroke-miterlimit="10"/>
<path d="M168.07 135.365V285.609H67.291L67.291 135.365H168.07Z" stroke="#B3C6FC" stroke-width="1.19" stroke-miterlimit="10"/>
<g style="mix-blend-mode:multiply">
<path d="M279.542 188.678H352.592V196.617H279.542V188.678Z" fill="#E3EAFC"/>
</g>
<path d="M341.347 155.197H349.148V185.946H341.347V155.197Z" fill="#EFF3FC" stroke="#B3C6FC" stroke-width="1.19" stroke-miterlimit="10"/>
<path d="M331.388 145.102H339.189V185.947H331.388V145.102Z" fill="#EFF3FC" stroke="#B3C6FC" stroke-width="1.38" stroke-miterlimit="10"/>
<path d="M321.429 145.102H329.23V185.947H321.429V145.102Z" fill="#EFF3FC" stroke="#B3C6FC" stroke-width="1.38" stroke-miterlimit="10"/>
<g style="mix-blend-mode:multiply">
<path d="M197.267 170.566H240.482V182.428H197.267V170.566Z" fill="#E3EAFC"/>
</g>
<g style="mix-blend-mode:multiply">
<path d="M0.129623 241.363H43.3451V253.225H0.129623V241.363Z" fill="#E3EAFC"/>
</g>
<g style="mix-blend-mode:multiply">
<path d="M206.237 396.168H249.453V408.029H206.237V396.168Z" fill="#E3EAFC"/>
</g>
<g style="mix-blend-mode:multiply">
<path d="M248.581 150.512H291.797V162.373H248.581V150.512Z" fill="#E3EAFC"/>
</g>
<path d="M230.704 232.275H288.693C289.449 232.275 290.173 232.576 290.707 233.11C291.242 233.644 291.542 234.368 291.542 235.124V267.466C291.542 268.222 291.242 268.946 290.707 269.481C290.173 270.015 289.449 270.315 288.693 270.315H242.895L237.071 284.132V270.325H230.694C230.32 270.325 229.949 270.252 229.604 270.109C229.258 269.965 228.944 269.756 228.679 269.491C228.415 269.227 228.205 268.913 228.062 268.567C227.919 268.221 227.845 267.851 227.845 267.477V235.124C227.845 234.749 227.919 234.378 228.063 234.031C228.207 233.685 228.418 233.371 228.683 233.106C228.949 232.841 229.264 232.632 229.611 232.489C229.958 232.347 230.329 232.274 230.704 232.275Z" fill="white" stroke="#2C44AB" stroke-width="1.11" stroke-miterlimit="10"/>
<path d="M265.821 238.324H285.994V263.184H265.821V238.324Z" fill="#EFF3FC" stroke="#B3C6FC" stroke-width="1.11" stroke-miterlimit="10"/>
<path d="M283.9 252.034L279.542 245.891L275.907 252.055L272.028 248.973L267.915 252.055V260.59H283.9V252.034Z" fill="#B3C6FC"/>
<path d="M272.708 247.284C271.317 247.284 270.189 246.156 270.189 244.765C270.189 243.374 271.317 242.246 272.708 242.246C274.099 242.246 275.227 243.374 275.227 244.765C275.227 246.156 274.099 247.284 272.708 247.284Z" fill="#FCEE21"/>
<path d="M233.191 238.855H259.699V242.246H233.191V238.855Z" fill="#B3C6FC"/>
<path d="M233.191 245.594H259.699V248.984H233.191V245.594Z" fill="#81A1FC"/>
<path d="M233.191 252.332H259.699V255.723H233.191V252.332Z" fill="#B3C6FC"/>
<path d="M233.191 259.07H259.699V262.461H233.191V259.07Z" fill="#81A1FC"/>
<path d="M406 273.409L389.111 272.102C384.286 272.102 381.778 273.249 378.749 276.151L344.291 308.281H288.916C287.716 308.375 286.534 308.625 285.398 309.025C282.065 310.29 279.364 312.818 277.882 316.061C276.4 319.304 276.255 323.001 277.48 326.349L282.05 339.295H384.52L406 273.409Z" fill="#C41825"/>
<path d="M275.557 468.07C276.238 468.071 276.903 467.859 277.459 467.465C278.015 467.071 278.435 466.514 278.66 465.87L298.727 408.296C299.886 404.957 302.057 402.063 304.937 400.016C307.817 397.968 311.263 396.869 314.797 396.87H342.58C346.114 396.869 349.56 397.968 352.44 400.016C355.32 402.063 357.491 404.957 358.65 408.296L378.717 465.891C379.028 466.676 379.629 467.31 380.396 467.663C381.162 468.016 382.035 468.061 382.834 467.787C383.632 467.514 384.294 466.944 384.684 466.195C385.073 465.446 385.159 464.576 384.924 463.766L364.857 406.191C363.241 401.562 360.224 397.551 356.224 394.715C352.224 391.879 347.441 390.358 342.537 390.365H314.797C309.894 390.36 305.111 391.881 301.112 394.717C297.112 397.552 294.094 401.563 292.477 406.191L272.41 463.766C272.125 464.589 272.177 465.492 272.556 466.276C272.934 467.061 273.608 467.664 274.43 467.953C274.797 468.053 275.177 468.092 275.557 468.07Z" fill="#662D91"/>
<path d="M273.994 390.747H316.657V375.633H273.994C271.99 375.633 270.068 376.429 268.651 377.846C267.233 379.263 266.437 381.185 266.437 383.19C266.437 385.194 267.233 387.116 268.651 388.533C270.068 389.95 271.99 390.747 273.994 390.747Z" fill="#C41825"/>
<path d="M346.597 352.803C346.597 352.803 340.667 374.251 326.169 376.611C311.672 378.97 231.98 336.51 220.097 333.555C208.214 330.6 135.388 360.551 135.388 360.551L129.425 352.495C129.425 352.495 203.58 295.771 222.414 298.672C241.248 301.574 349.042 343.025 349.042 343.025L346.597 352.803Z" fill="#1C2B6C"/>
<path d="M135.388 360.51L127.013 367.227L123.208 363.337L125.525 360.722L119.817 361.615L97.9119 334.661C97.9119 334.661 100.856 333.396 105.798 338.041C110.74 342.686 123.165 353.282 129.425 352.453L135.388 360.51Z" fill="#000A3B"/>
<path d="M265.821 309.652C265.821 309.652 254.257 297.96 251.844 297.588C249.432 297.216 240.482 301.733 240.482 301.733L266.416 314.966L265.821 309.652Z" fill="#F59F84"/>
<path d="M311.406 316.199C311.406 316.199 275.355 311.777 265.768 309.588L266.225 314.009L310.344 333.459L311.406 316.199Z" fill="#F59F84"/>
<path d="M275.918 320.769L218.63 294.314L216.59 299.735L274.122 324.149L275.918 320.769Z" fill="#CCCCCC"/>
<path d="M218.63 294.314L212.646 292.752L209.968 297.917L216.59 299.735L218.63 294.314Z" fill="#BABABA"/>
<path d="M218.63 294.325C218.535 292.38 216.59 221.807 216.59 221.807L206.779 234.327L212.646 292.784L218.63 294.325Z" fill="#BABABA"/>
<path d="M216.59 221.808L220.458 221.457L221.574 295.973L218.63 294.315L216.59 221.808Z" fill="#CCCCCC"/>
<path d="M347.958 366.823C347.958 366.823 332.366 386.028 317.783 387.495C303.201 388.962 226.134 341.856 214.453 338.2C202.773 334.544 128.288 360.105 128.288 360.105L122.814 351.709C122.814 351.709 200.211 299.502 218.832 303.519C237.453 307.537 342.58 355.355 342.58 355.355L347.958 366.823Z" fill="url(#paint0_linear_2_6221)"/>
<path d="M128.267 360.105L119.498 366.312L115.938 362.209L118.404 359.743L112.654 360.285L92.3957 332.088C92.3957 332.088 95.4035 331.025 100.059 335.914C104.714 340.803 116.49 352.165 122.793 351.708L128.267 360.105Z" fill="#000A3B"/>
<g style="mix-blend-mode:color-dodge" opacity="0.23">
<path d="M118.414 365.058L119.477 366.312L128.245 360.105C128.245 360.105 202.73 334.596 214.411 338.199C226.091 341.802 303.159 388.95 317.783 387.484C332.408 386.017 347.958 366.833 347.958 366.833L342.644 355.364C342.644 355.364 330.952 350.05 314.669 342.812C291.765 344.353 256.021 340.995 214.485 316.666C214.485 316.666 157.293 340.176 127.512 358.851C124.037 360.997 120.986 363.081 118.414 365.058Z" fill="#324DC2"/>
</g>
<path d="M331.898 237.431L332.515 244.764L333.11 252.056L354.951 243.755L346.906 228.492L341.219 231.872L331.898 237.431Z" fill="#FEBDA9"/>
<path d="M331.898 237.432L332.515 244.765C341.591 240.971 341.634 234.53 341.219 231.873L331.898 237.432Z" fill="#A24366"/>
<path d="M306.677 201.986C306.677 201.986 301.054 251.196 319.76 245.414C338.467 239.632 349.148 228.493 349.148 228.493C349.148 228.493 340.103 170.557 306.677 201.986Z" fill="#FEBDA9"/>
<path d="M325.457 249.207L355.291 236.623L356.046 246.337C356.046 246.337 381.437 296.196 352.698 344.725C352.698 344.725 354.43 364.006 347.958 366.78C341.485 369.554 337.595 354.642 337.595 354.642C337.595 354.642 317.581 350.252 303.584 337.817C303.584 337.817 299.811 301.967 329.762 258.539L325.457 249.207Z" fill="url(#paint1_linear_2_6221)"/>
<path d="M351.412 233.944L348.372 233.391C348.372 233.391 329.645 221.647 321.057 207.883C321.057 207.883 326.286 204.173 322.758 199.996C322.758 199.996 319.952 198.275 314.467 200.879C308.983 203.483 301.607 204.45 293.614 189.368C296.536 190.446 299.709 190.649 302.744 189.952C307.176 188.677 298.684 190.431 293.614 186.371C293.614 186.371 308.26 190.983 314.467 186.828C320.674 182.672 346.48 174.53 349.595 202.303C352.709 230.075 351.412 233.944 351.412 233.944Z" fill="#42210B"/>
<path d="M329.23 221.807C329.23 221.807 333.482 208.256 339.657 213.357C345.832 218.459 343.366 230.873 330.931 228.492L329.23 221.807Z" fill="#FEBDA9"/>
<path d="M306.092 218.82L302.425 228.694C302.316 229.009 302.272 229.343 302.295 229.676C302.317 230.009 302.407 230.333 302.557 230.631C302.708 230.928 302.917 231.192 303.172 231.407C303.427 231.623 303.722 231.784 304.041 231.883L310.832 233.892L306.092 218.82Z" fill="#FEBDA9"/>
<path d="M336.075 270.538C336.075 270.538 346.172 255.987 356.014 265.532C365.856 275.076 361.913 341.217 317.018 345.554L308.218 321.863L336.075 270.538Z" fill="#FF5C3D"/>
<g style="mix-blend-mode:color-dodge" opacity="0.35">
<path d="M317.018 345.555L314.053 337.595C339.88 328.847 343.058 279.903 343.398 263.833C347.012 261.845 351.54 261.197 356.014 265.533C365.856 275.067 361.913 341.219 317.018 345.555Z" fill="#FF5C3D"/>
</g>
<path d="M308.313 321.684C308.313 321.684 321.939 340.762 316.965 345.576C309.727 352.57 260.793 316.146 260.793 316.146L262.08 313.191L308.313 321.684Z" fill="#FEBDA9"/>
<path d="M260.932 316.199C260.932 316.199 254.555 317.209 249.304 309.355L245.829 305.103L236.337 303.647L235.604 302.191L237.251 301.277C237.251 301.277 245.829 296.526 248.018 297.621C250.208 298.716 262.133 313.17 262.133 313.17L260.932 316.199Z" fill="#FEBDA9"/>
<path d="M319.537 232.275C319.537 232.275 314.329 236.527 310.503 237.59C310.503 237.611 318.581 244.456 319.537 232.275Z" fill="#A24366"/>
<path d="M310.503 237.611C314.329 236.548 319.537 232.297 319.537 232.297C319.484 232.956 319.41 233.54 319.314 234.093C317.699 235.273 314.319 237.6 312.469 238.876C311.768 238.53 311.108 238.106 310.503 237.611Z" fill="white"/>
<path d="M307.261 215.525L306.528 212.06C306.528 212.06 312.831 210.997 317.571 217.99L316.933 219.447C316.933 219.447 312.65 214.791 307.261 215.525Z" fill="#1B1F47"/>
<path d="M309.748 221.827C309.95 222.816 310.514 223.528 311.003 223.432C311.491 223.337 311.736 222.444 311.534 221.455C311.332 220.467 310.758 219.755 310.269 219.85C309.78 219.946 309.536 220.839 309.748 221.827Z" fill="#401F47"/>
<path d="M336.915 204.759C336.915 204.759 336.649 204.376 336.16 203.781C336.453 204.073 336.707 204.401 336.915 204.759Z" fill="#633110"/>
<path d="M293.614 189.358C296.536 190.435 299.709 190.638 302.744 189.942C306.539 188.879 300.874 189.942 295.984 187.816C302.852 189.23 309.915 189.417 316.848 188.369C310.471 193.683 299.683 191.473 299.683 191.473C306.804 194.757 324.692 190.559 324.692 190.559C311.183 200.964 299.864 194.576 299.864 194.576C299.864 194.576 301.511 203.653 315.02 198.052C326.169 193.375 333.833 201.017 336.171 203.834C331.919 199.465 319.038 199.146 319.038 199.146V199.54C317.436 199.735 315.88 200.202 314.435 200.921C308.994 203.472 301.607 204.429 293.614 189.358Z" fill="#633110"/>
<path d="M340.167 184.852C344.833 187.562 348.532 192.855 349.595 202.335C352.698 230.129 351.412 233.945 351.412 233.945L350.817 233.838C349.318 227.663 349.51 217.896 347.883 203.653C346.842 194.545 343.441 188.593 340.167 184.852Z" fill="#633110"/>
<path d="M352.624 247.295C345.301 247.975 337.744 251.047 332.908 256.786C338.743 252.227 345.662 249.484 352.624 247.295Z" fill="#FF5C3D"/>
<path d="M333.907 218.512C334.012 218.135 334.173 217.777 334.385 217.449C334.782 216.878 335.32 216.42 335.948 216.12C336.442 215.861 336.972 215.679 337.521 215.578C338.017 215.476 338.524 215.441 339.03 215.472C338.561 215.608 338.103 215.779 337.659 215.982C336.632 216.4 335.744 217.1 335.097 218.001C335.08 218.046 335.059 218.089 335.034 218.129C335.204 217.99 335.404 217.892 335.618 217.842C336.236 217.74 336.87 217.865 337.404 218.193C337.852 218.471 338.237 218.841 338.532 219.279C338.827 219.717 339.026 220.213 339.115 220.733C339.198 221.135 339.226 221.546 339.2 221.955C339.053 221.592 338.886 221.237 338.7 220.892C338.305 220.077 337.686 219.392 336.915 218.915C336.551 218.679 336.127 218.55 335.693 218.543C335.518 218.553 335.347 218.601 335.193 218.684C335.039 218.766 334.905 218.882 334.8 219.022C334.681 219.167 334.571 219.32 334.47 219.479C334.398 220.015 334.398 220.558 334.47 221.094C334.47 221.541 334.577 221.902 334.598 222.157C334.619 222.412 334.598 222.55 334.598 222.55L334.417 222.2C334.244 221.859 334.102 221.503 333.992 221.137C333.939 220.914 333.864 220.659 333.801 220.393C333.737 220.127 333.801 219.808 333.726 219.479C333.764 219.153 333.825 218.829 333.907 218.512Z" fill="#A24366"/>
<g style="mix-blend-mode:color-dodge" opacity="0.35">
<path d="M352.698 344.726C376.697 290.351 356.046 246.338 356.046 246.338C356.046 246.338 381.437 296.196 352.698 344.726Z" fill="#FF5C3D"/>
</g>
<path d="M218.63 294.314L216.59 240.906L211.201 278.297L212.646 292.752L209.968 297.917L216.59 299.735L218.63 294.314Z" fill="#A1A1A1"/>
<path d="M369.938 308.398H297.281C294.452 308.399 291.66 309.041 289.114 310.276C286.569 311.511 284.337 313.307 282.586 315.529C280.834 317.751 279.609 320.341 279.003 323.104C278.397 325.867 278.425 328.732 279.085 331.483L293.264 390.556H358.374C361.1 390.555 363.756 389.691 365.963 388.09C368.169 386.489 369.813 384.231 370.66 381.639L405.458 275.312C405.547 275.038 405.541 274.742 405.441 274.472C405.341 274.202 405.152 273.974 404.906 273.825C404.659 273.676 404.37 273.614 404.084 273.651C403.798 273.687 403.533 273.819 403.332 274.026L369.938 308.398Z" fill="#FA1E2E"/>
<path d="M35.7563 346.67H58.7139V314.381C58.7111 311.338 57.5008 308.42 55.3487 306.268C53.1966 304.115 50.2786 302.905 47.2351 302.902C45.7277 302.902 44.235 303.199 42.8424 303.776C41.4497 304.353 40.1843 305.198 39.1184 306.264C38.0525 307.33 37.207 308.596 36.6301 309.988C36.0532 311.381 35.7563 312.874 35.7563 314.381V346.67Z" fill="#EFF3FC" stroke="#B3C6FC" stroke-width="1.11" stroke-miterlimit="10"/>
<path d="M52.5387 304.199V346.671" stroke="#B3C6FC" stroke-width="1.11" stroke-miterlimit="10"/>
<path d="M41.9315 304.199V346.671" stroke="#B3C6FC" stroke-width="1.11" stroke-miterlimit="10"/>
<path d="M47.2351 298.406V304.199" stroke="#B3C6FC" stroke-width="1.11" stroke-linecap="round" stroke-linejoin="round"/>
<path d="M58.7139 306.08L55.4297 310.087" stroke="#B3C6FC" stroke-width="1.11" stroke-linecap="round" stroke-linejoin="round"/>
<path d="M60.9033 315.752H55.4297" stroke="#B3C6FC" stroke-width="1.11" stroke-linecap="round" stroke-linejoin="round"/>
<path d="M60.9033 323.416H55.4297" stroke="#B3C6FC" stroke-width="1.11" stroke-linecap="round" stroke-linejoin="round"/>
<path d="M35.2037 306.08L38.4879 310.087" stroke="#B3C6FC" stroke-width="1.11" stroke-linecap="round" stroke-linejoin="round"/>
<path d="M33.0142 315.752H38.4879" stroke="#B3C6FC" stroke-width="1.11" stroke-linecap="round" stroke-linejoin="round"/>
<path d="M33.0142 323.416H38.4879" stroke="#B3C6FC" stroke-width="1.11" stroke-linecap="round" stroke-linejoin="round"/>
<path d="M45.7259 315.752H48.7444" stroke="#B3C6FC" stroke-width="1.11" stroke-linecap="round" stroke-linejoin="round"/>
<path d="M45.7259 309.98H48.7444" stroke="#B3C6FC" stroke-width="1.11" stroke-linecap="round" stroke-linejoin="round"/>
<path d="M45.7259 322.959H48.7444" stroke="#B3C6FC" stroke-width="1.11" stroke-linecap="round" stroke-linejoin="round"/>
<g style="mix-blend-mode:multiply">
<path d="M41.1662 304.656C41.2938 306.782 41.5382 309.439 41.9315 312.649C43.4939 325.403 54.0692 326.934 58.7139 326.987V346.671H35.7563V314.381C35.7564 312.434 36.2533 310.519 37.1999 308.817C38.1466 307.115 39.5117 305.683 41.1662 304.656Z" fill="#E3EAFC"/>
</g>
<path d="M29.4005 330.164H65.0697L56.6307 356.746H37.8289L29.4005 330.164Z" fill="#EFF3FC" stroke="#B3C6FC" stroke-width="1.11" stroke-miterlimit="10"/>
<g style="mix-blend-mode:multiply">
<path d="M29.5493 330.164L37.2124 355.439H44.1528L36.8511 330.164H29.5493Z" fill="#E3EAFC"/>
</g>
<path d="M16.2849 355.439H78.1747V367.173H16.2849V355.439Z" fill="#EFF3FC" stroke="#B3C6FC" stroke-width="1.11" stroke-miterlimit="10"/>
<path d="M21.748 358.648H73.4982V364.122H21.748V358.648Z" fill="#EFF3FC" stroke="#B3C6FC" stroke-width="1.11" stroke-linecap="round" stroke-linejoin="round"/>
<g style="mix-blend-mode:multiply">
<path d="M16.2849 362.305H78.1747V367.173H16.2849V362.305Z" fill="#E3EAFC"/>
</g>
<path d="M148.727 340.091H165.02L163.298 336.318H150.448L148.727 340.091Z" fill="#EFF3FC" stroke="#B3C6FC" stroke-width="0.64" stroke-miterlimit="10"/>
<path d="M146.537 340.633H167.199L162.32 367.225H151.426L146.537 340.633Z" fill="#EFF3FC" stroke="#B3C6FC" stroke-width="0.85" stroke-miterlimit="10"/>
<path d="M145.092 338.211H168.644V340.634H145.092V338.211Z" fill="#EFF3FC" stroke="#B3C6FC" stroke-width="0.85" stroke-miterlimit="10"/>
<g style="mix-blend-mode:multiply">
<path d="M151.809 367.226L146.537 340.634H145.102V338.21H149.588L150.448 336.318H153.913L152.999 338.21H154.37V340.634V367.173L151.809 367.226Z" fill="#E3EAFC"/>
</g>
</g>
<defs>
<linearGradient id="paint0_linear_2_6221" x1="347.958" y1="345.406" x2="122.793" y2="345.406" gradientUnits="userSpaceOnUse">
<stop stop-color="#2C44AB"/>
<stop offset="1" stop-color="#1C2B6C"/>
</linearGradient>
<linearGradient id="paint1_linear_2_6221" x1="366.398" y1="301.903" x2="303.456" y2="301.903" gradientUnits="userSpaceOnUse">
<stop stop-color="#FF5C3D"/>
<stop offset="1" stop-color="#CF2A0A"/>
</linearGradient>
<clipPath id="clip0_2_6221">
<rect width="405.86" height="470.874" fill="white" transform="matrix(-1 0 0 1 406 0.361328)"/>
</clipPath>
</defs>
</svg>
