<svg width="1014" height="363" viewBox="0 0 1014 363" fill="none" xmlns="http://www.w3.org/2000/svg">
<path d="M24.6172 49.2344H44.1059V69.7487H24.6172V49.2344Z" fill="white" fill-opacity="0.13"/>
<path d="M4.10294 67.6953H24.6173V88.2096H4.10294V67.6953Z" fill="white" fill-opacity="0.13"/>
<path d="M44.6187 90.263C53.4435 90.263 62.07 87.6161 69.4075 82.657C76.745 77.6979 82.4639 70.6493 85.841 62.4026C89.2181 54.1559 90.1017 45.0815 88.38 36.3268C86.6584 27.5722 82.4089 19.5305 76.1689 13.2187C69.9288 6.90698 61.9786 2.60862 53.3234 0.867208C44.6682 -0.874202 35.6969 0.0195525 27.5439 3.43545C19.3909 6.85135 12.4224 12.636 7.51967 20.0578C2.61691 27.4796 6.7082e-05 36.2054 6.66918e-05 45.1315L20.9822 45.1315C20.9822 40.4029 22.3685 35.7805 24.9657 31.8488C27.5629 27.9172 31.2544 24.8528 35.5734 23.0432C39.8924 21.2337 44.6449 20.7602 49.23 21.6827C53.815 22.6052 58.0266 24.8823 61.3323 28.2259C64.6379 31.5695 66.889 35.8295 67.8011 40.4673C68.7131 45.105 68.245 49.9122 66.456 54.2808C64.667 58.6495 61.6375 62.3834 57.7505 65.0105C53.8635 67.6375 49.2936 69.0397 44.6187 69.0397L44.6187 90.263Z" fill="white" fill-opacity="0.13"/>
<path d="M24.6172 185.234H44.1059V205.749H24.6172V185.234Z" fill="white" fill-opacity="0.13"/>
<path d="M4.10294 203.695H24.6173V224.21H4.10294V203.695Z" fill="white" fill-opacity="0.13"/>
<path d="M44.6187 226.263C53.4435 226.263 62.07 223.616 69.4075 218.657C76.745 213.698 82.4639 206.649 85.841 198.403C89.2181 190.156 90.1017 181.081 88.38 172.327C86.6584 163.572 82.4089 155.53 76.1689 149.219C69.9288 142.907 61.9786 138.609 53.3234 136.867C44.6682 135.126 35.6969 136.02 27.5439 139.435C19.3909 142.851 12.4224 148.636 7.51967 156.058C2.61691 163.48 6.7082e-05 172.205 6.66918e-05 181.132L20.9822 181.132C20.9822 176.403 22.3685 171.781 24.9657 167.849C27.5629 163.917 31.2544 160.853 35.5734 159.043C39.8924 157.234 44.6449 156.76 49.23 157.683C53.815 158.605 58.0266 160.882 61.3323 164.226C64.6379 167.57 66.889 171.83 67.8011 176.467C68.7131 181.105 68.245 185.912 66.456 190.281C64.667 194.649 61.6375 198.383 57.7505 201.01C53.8635 203.638 49.2936 205.04 44.6187 205.04L44.6187 226.263Z" fill="white" fill-opacity="0.13"/>
<path d="M24.6172 321.234H44.1059V341.749H24.6172V321.234Z" fill="white" fill-opacity="0.13"/>
<path d="M4.10294 339.695H24.6173V360.21H4.10294V339.695Z" fill="white" fill-opacity="0.13"/>
<path d="M44.6187 362.263C53.4435 362.263 62.07 359.616 69.4075 354.657C76.745 349.698 82.4639 342.649 85.841 334.403C89.2181 326.156 90.1017 317.081 88.38 308.327C86.6584 299.572 82.4089 291.53 76.1689 285.219C69.9288 278.907 61.9786 274.609 53.3234 272.867C44.6682 271.126 35.6969 272.02 27.5439 275.435C19.3909 278.851 12.4224 284.636 7.51967 292.058C2.61691 299.48 6.7082e-05 308.205 6.66918e-05 317.132L20.9822 317.132C20.9822 312.403 22.3685 307.781 24.9657 303.849C27.5629 299.917 31.2544 296.853 35.5734 295.043C39.8924 293.234 44.6449 292.76 49.23 293.683C53.815 294.605 58.0266 296.882 61.3323 300.226C64.6379 303.57 66.889 307.83 67.8011 312.467C68.7131 317.105 68.245 321.912 66.456 326.281C64.667 330.649 61.6375 334.383 57.7505 337.01C53.8635 339.638 49.2936 341.04 44.6187 341.04L44.6187 362.263Z" fill="white" fill-opacity="0.13"/>
<path d="M178.617 49.2344H198.106V69.7487H178.617V49.2344Z" fill="white" fill-opacity="0.13"/>
<path d="M158.103 67.6953H178.617V88.2096H158.103V67.6953Z" fill="white" fill-opacity="0.13"/>
<path d="M198.619 90.263C207.443 90.263 216.07 87.6161 223.408 82.657C230.745 77.6979 236.464 70.6493 239.841 62.4026C243.218 54.1559 244.102 45.0815 242.38 36.3268C240.658 27.5722 236.409 19.5305 230.169 13.2187C223.929 6.90698 215.979 2.60862 207.323 0.867208C198.668 -0.874202 189.697 0.0195525 181.544 3.43545C173.391 6.85135 166.422 12.636 161.52 20.0578C156.617 27.4796 154 36.2054 154 45.1315L174.982 45.1315C174.982 40.4029 176.368 35.7805 178.966 31.8488C181.563 27.9172 185.254 24.8528 189.573 23.0432C193.892 21.2337 198.645 20.7602 203.23 21.6827C207.815 22.6052 212.027 24.8823 215.332 28.2259C218.638 31.5695 220.889 35.8295 221.801 40.4673C222.713 45.105 222.245 49.9122 220.456 54.2808C218.667 58.6495 215.638 62.3834 211.75 65.0105C207.863 67.6375 203.294 69.0397 198.619 69.0397L198.619 90.263Z" fill="white" fill-opacity="0.13"/>
<path d="M178.617 185.234H198.106V205.749H178.617V185.234Z" fill="white" fill-opacity="0.13"/>
<path d="M158.103 203.695H178.617V224.21H158.103V203.695Z" fill="white" fill-opacity="0.13"/>
<path d="M198.619 226.263C207.443 226.263 216.07 223.616 223.408 218.657C230.745 213.698 236.464 206.649 239.841 198.403C243.218 190.156 244.102 181.081 242.38 172.327C240.658 163.572 236.409 155.53 230.169 149.219C223.929 142.907 215.979 138.609 207.323 136.867C198.668 135.126 189.697 136.02 181.544 139.435C173.391 142.851 166.422 148.636 161.52 156.058C156.617 163.48 154 172.205 154 181.132L174.982 181.132C174.982 176.403 176.368 171.781 178.966 167.849C181.563 163.917 185.254 160.853 189.573 159.043C193.892 157.234 198.645 156.76 203.23 157.683C207.815 158.605 212.027 160.882 215.332 164.226C218.638 167.57 220.889 171.83 221.801 176.467C222.713 181.105 222.245 185.912 220.456 190.281C218.667 194.649 215.638 198.383 211.75 201.01C207.863 203.638 203.294 205.04 198.619 205.04L198.619 226.263Z" fill="white" fill-opacity="0.13"/>
<path d="M178.617 321.234H198.106V341.749H178.617V321.234Z" fill="white" fill-opacity="0.13"/>
<path d="M158.103 339.695H178.617V360.21H158.103V339.695Z" fill="white" fill-opacity="0.13"/>
<path d="M198.619 362.263C207.443 362.263 216.07 359.616 223.408 354.657C230.745 349.698 236.464 342.649 239.841 334.403C243.218 326.156 244.102 317.081 242.38 308.327C240.658 299.572 236.409 291.53 230.169 285.219C223.929 278.907 215.979 274.609 207.323 272.867C198.668 271.126 189.697 272.02 181.544 275.435C173.391 278.851 166.422 284.636 161.52 292.058C156.617 299.48 154 308.205 154 317.132L174.982 317.132C174.982 312.403 176.368 307.781 178.966 303.849C181.563 299.917 185.254 296.853 189.573 295.043C193.892 293.234 198.645 292.76 203.23 293.683C207.815 294.605 212.027 296.882 215.332 300.226C218.638 303.57 220.889 307.83 221.801 312.467C222.713 317.105 222.245 321.912 220.456 326.281C218.667 330.649 215.638 334.383 211.75 337.01C207.863 339.638 203.294 341.04 198.619 341.04L198.619 362.263Z" fill="white" fill-opacity="0.13"/>
<path d="M332.617 49.2344H352.106V69.7487H332.617V49.2344Z" fill="white" fill-opacity="0.13"/>
<path d="M312.103 67.6953H332.617V88.2096H312.103V67.6953Z" fill="white" fill-opacity="0.13"/>
<path d="M352.619 90.263C361.443 90.263 370.07 87.6161 377.408 82.657C384.745 77.6979 390.464 70.6493 393.841 62.4026C397.218 54.1559 398.102 45.0815 396.38 36.3268C394.658 27.5722 390.409 19.5305 384.169 13.2187C377.929 6.90698 369.979 2.60862 361.323 0.867208C352.668 -0.874202 343.697 0.0195525 335.544 3.43545C327.391 6.85135 320.422 12.636 315.52 20.0578C310.617 27.4796 308 36.2054 308 45.1315L328.982 45.1315C328.982 40.4029 330.368 35.7805 332.966 31.8488C335.563 27.9172 339.254 24.8528 343.573 23.0432C347.892 21.2337 352.645 20.7602 357.23 21.6827C361.815 22.6052 366.027 24.8823 369.332 28.2259C372.638 31.5695 374.889 35.8295 375.801 40.4673C376.713 45.105 376.245 49.9122 374.456 54.2808C372.667 58.6495 369.638 62.3834 365.75 65.0105C361.863 67.6375 357.294 69.0397 352.619 69.0397L352.619 90.263Z" fill="white" fill-opacity="0.13"/>
<path d="M332.617 185.234H352.106V205.749H332.617V185.234Z" fill="white" fill-opacity="0.13"/>
<path d="M312.103 203.695H332.617V224.21H312.103V203.695Z" fill="white" fill-opacity="0.13"/>
<path d="M352.619 226.263C361.443 226.263 370.07 223.616 377.408 218.657C384.745 213.698 390.464 206.649 393.841 198.403C397.218 190.156 398.102 181.081 396.38 172.327C394.658 163.572 390.409 155.53 384.169 149.219C377.929 142.907 369.979 138.609 361.323 136.867C352.668 135.126 343.697 136.02 335.544 139.435C327.391 142.851 320.422 148.636 315.52 156.058C310.617 163.48 308 172.205 308 181.132L328.982 181.132C328.982 176.403 330.368 171.781 332.966 167.849C335.563 163.917 339.254 160.853 343.573 159.043C347.892 157.234 352.645 156.76 357.23 157.683C361.815 158.605 366.027 160.882 369.332 164.226C372.638 167.57 374.889 171.83 375.801 176.467C376.713 181.105 376.245 185.912 374.456 190.281C372.667 194.649 369.638 198.383 365.75 201.01C361.863 203.638 357.294 205.04 352.619 205.04L352.619 226.263Z" fill="white" fill-opacity="0.13"/>
<path d="M332.617 321.234H352.106V341.749H332.617V321.234Z" fill="white" fill-opacity="0.13"/>
<path d="M312.103 339.695H332.617V360.21H312.103V339.695Z" fill="white" fill-opacity="0.13"/>
<path d="M352.619 362.263C361.443 362.263 370.07 359.616 377.408 354.657C384.745 349.698 390.464 342.649 393.841 334.403C397.218 326.156 398.102 317.081 396.38 308.327C394.658 299.572 390.409 291.53 384.169 285.219C377.929 278.907 369.979 274.609 361.323 272.867C352.668 271.126 343.697 272.02 335.544 275.435C327.391 278.851 320.422 284.636 315.52 292.058C310.617 299.48 308 308.205 308 317.132L328.982 317.132C328.982 312.403 330.368 307.781 332.966 303.849C335.563 299.917 339.254 296.853 343.573 295.043C347.892 293.234 352.645 292.76 357.23 293.683C361.815 294.605 366.027 296.882 369.332 300.226C372.638 303.57 374.889 307.83 375.801 312.467C376.713 317.105 376.245 321.912 374.456 326.281C372.667 330.649 369.638 334.383 365.75 337.01C361.863 339.638 357.294 341.04 352.619 341.04L352.619 362.263Z" fill="white" fill-opacity="0.13"/>
<path d="M486.617 49.2344H506.106V69.7487H486.617V49.2344Z" fill="white" fill-opacity="0.13"/>
<path d="M466.103 67.6953H486.617V88.2096H466.103V67.6953Z" fill="white" fill-opacity="0.13"/>
<path d="M506.619 90.263C515.443 90.263 524.07 87.6161 531.408 82.657C538.745 77.6979 544.464 70.6493 547.841 62.4026C551.218 54.1559 552.102 45.0815 550.38 36.3268C548.658 27.5722 544.409 19.5305 538.169 13.2187C531.929 6.90698 523.979 2.60862 515.323 0.867208C506.668 -0.874202 497.697 0.0195525 489.544 3.43545C481.391 6.85135 474.422 12.636 469.52 20.0578C464.617 27.4796 462 36.2054 462 45.1315L482.982 45.1315C482.982 40.4029 484.368 35.7805 486.966 31.8488C489.563 27.9172 493.254 24.8528 497.573 23.0432C501.892 21.2337 506.645 20.7602 511.23 21.6827C515.815 22.6052 520.027 24.8823 523.332 28.2259C526.638 31.5695 528.889 35.8295 529.801 40.4673C530.713 45.105 530.245 49.9122 528.456 54.2808C526.667 58.6495 523.638 62.3834 519.75 65.0105C515.863 67.6375 511.294 69.0397 506.619 69.0397L506.619 90.263Z" fill="white" fill-opacity="0.13"/>
<path d="M486.617 185.234H506.106V205.749H486.617V185.234Z" fill="white" fill-opacity="0.13"/>
<path d="M466.103 203.695H486.617V224.21H466.103V203.695Z" fill="white" fill-opacity="0.13"/>
<path d="M506.619 226.263C515.443 226.263 524.07 223.616 531.408 218.657C538.745 213.698 544.464 206.649 547.841 198.403C551.218 190.156 552.102 181.081 550.38 172.327C548.658 163.572 544.409 155.53 538.169 149.219C531.929 142.907 523.979 138.609 515.323 136.867C506.668 135.126 497.697 136.02 489.544 139.435C481.391 142.851 474.422 148.636 469.52 156.058C464.617 163.48 462 172.205 462 181.132L482.982 181.132C482.982 176.403 484.368 171.781 486.966 167.849C489.563 163.917 493.254 160.853 497.573 159.043C501.892 157.234 506.645 156.76 511.23 157.683C515.815 158.605 520.027 160.882 523.332 164.226C526.638 167.57 528.889 171.83 529.801 176.467C530.713 181.105 530.245 185.912 528.456 190.281C526.667 194.649 523.638 198.383 519.75 201.01C515.863 203.638 511.294 205.04 506.619 205.04L506.619 226.263Z" fill="white" fill-opacity="0.13"/>
<path d="M486.617 321.234H506.106V341.749H486.617V321.234Z" fill="white" fill-opacity="0.13"/>
<path d="M466.103 339.695H486.617V360.21H466.103V339.695Z" fill="white" fill-opacity="0.13"/>
<path d="M506.619 362.263C515.443 362.263 524.07 359.616 531.408 354.657C538.745 349.698 544.464 342.649 547.841 334.403C551.218 326.156 552.102 317.081 550.38 308.327C548.658 299.572 544.409 291.53 538.169 285.219C531.929 278.907 523.979 274.609 515.323 272.867C506.668 271.126 497.697 272.02 489.544 275.435C481.391 278.851 474.422 284.636 469.52 292.058C464.617 299.48 462 308.205 462 317.132L482.982 317.132C482.982 312.403 484.368 307.781 486.966 303.849C489.563 299.917 493.254 296.853 497.573 295.043C501.892 293.234 506.645 292.76 511.23 293.683C515.815 294.605 520.027 296.882 523.332 300.226C526.638 303.57 528.889 307.83 529.801 312.467C530.713 317.105 530.245 321.912 528.456 326.281C526.667 330.649 523.638 334.383 519.75 337.01C515.863 339.638 511.294 341.04 506.619 341.04L506.619 362.263Z" fill="white" fill-opacity="0.13"/>
<path d="M640.617 49.2344H660.106V69.7487H640.617V49.2344Z" fill="white" fill-opacity="0.13"/>
<path d="M620.103 67.6953H640.617V88.2096H620.103V67.6953Z" fill="white" fill-opacity="0.13"/>
<path d="M660.619 90.263C669.443 90.263 678.07 87.6161 685.408 82.657C692.745 77.6979 698.464 70.6493 701.841 62.4026C705.218 54.1559 706.102 45.0815 704.38 36.3268C702.658 27.5722 698.409 19.5305 692.169 13.2187C685.929 6.90698 677.979 2.60862 669.323 0.867208C660.668 -0.874202 651.697 0.0195525 643.544 3.43545C635.391 6.85135 628.422 12.636 623.52 20.0578C618.617 27.4796 616 36.2054 616 45.1315L636.982 45.1315C636.982 40.4029 638.368 35.7805 640.966 31.8488C643.563 27.9172 647.254 24.8528 651.573 23.0432C655.892 21.2337 660.645 20.7602 665.23 21.6827C669.815 22.6052 674.027 24.8823 677.332 28.2259C680.638 31.5695 682.889 35.8295 683.801 40.4673C684.713 45.105 684.245 49.9122 682.456 54.2808C680.667 58.6495 677.638 62.3834 673.75 65.0105C669.863 67.6375 665.294 69.0397 660.619 69.0397L660.619 90.263Z" fill="white" fill-opacity="0.13"/>
<path d="M640.617 185.234H660.106V205.749H640.617V185.234Z" fill="white" fill-opacity="0.13"/>
<path d="M620.103 203.695H640.617V224.21H620.103V203.695Z" fill="white" fill-opacity="0.13"/>
<path d="M660.619 226.263C669.443 226.263 678.07 223.616 685.408 218.657C692.745 213.698 698.464 206.649 701.841 198.403C705.218 190.156 706.102 181.081 704.38 172.327C702.658 163.572 698.409 155.53 692.169 149.219C685.929 142.907 677.979 138.609 669.323 136.867C660.668 135.126 651.697 136.02 643.544 139.435C635.391 142.851 628.422 148.636 623.52 156.058C618.617 163.48 616 172.205 616 181.132L636.982 181.132C636.982 176.403 638.368 171.781 640.966 167.849C643.563 163.917 647.254 160.853 651.573 159.043C655.892 157.234 660.645 156.76 665.23 157.683C669.815 158.605 674.027 160.882 677.332 164.226C680.638 167.57 682.889 171.83 683.801 176.467C684.713 181.105 684.245 185.912 682.456 190.281C680.667 194.649 677.638 198.383 673.75 201.01C669.863 203.638 665.294 205.04 660.619 205.04L660.619 226.263Z" fill="white" fill-opacity="0.13"/>
<path d="M640.617 321.234H660.106V341.749H640.617V321.234Z" fill="white" fill-opacity="0.13"/>
<path d="M620.103 339.695H640.617V360.21H620.103V339.695Z" fill="white" fill-opacity="0.13"/>
<path d="M660.619 362.263C669.443 362.263 678.07 359.616 685.408 354.657C692.745 349.698 698.464 342.649 701.841 334.403C705.218 326.156 706.102 317.081 704.38 308.327C702.658 299.572 698.409 291.53 692.169 285.219C685.929 278.907 677.979 274.609 669.323 272.867C660.668 271.126 651.697 272.02 643.544 275.435C635.391 278.851 628.422 284.636 623.52 292.058C618.617 299.48 616 308.205 616 317.132L636.982 317.132C636.982 312.403 638.368 307.781 640.966 303.849C643.563 299.917 647.254 296.853 651.573 295.043C655.892 293.234 660.645 292.76 665.23 293.683C669.815 294.605 674.027 296.882 677.332 300.226C680.638 303.57 682.889 307.83 683.801 312.467C684.713 317.105 684.245 321.912 682.456 326.281C680.667 330.649 677.638 334.383 673.75 337.01C669.863 339.638 665.294 341.04 660.619 341.04L660.619 362.263Z" fill="white" fill-opacity="0.13"/>
<path d="M794.617 49.2344H814.106V69.7487H794.617V49.2344Z" fill="white" fill-opacity="0.13"/>
<path d="M774.103 67.6953H794.617V88.2096H774.103V67.6953Z" fill="white" fill-opacity="0.13"/>
<path d="M814.619 90.263C823.443 90.263 832.07 87.6161 839.408 82.657C846.745 77.6979 852.464 70.6493 855.841 62.4026C859.218 54.1559 860.102 45.0815 858.38 36.3268C856.658 27.5722 852.409 19.5305 846.169 13.2187C839.929 6.90698 831.979 2.60862 823.323 0.867208C814.668 -0.874202 805.697 0.0195525 797.544 3.43545C789.391 6.85135 782.422 12.636 777.52 20.0578C772.617 27.4796 770 36.2054 770 45.1315L790.982 45.1315C790.982 40.4029 792.368 35.7805 794.966 31.8488C797.563 27.9172 801.254 24.8528 805.573 23.0432C809.892 21.2337 814.645 20.7602 819.23 21.6827C823.815 22.6052 828.027 24.8823 831.332 28.2259C834.638 31.5695 836.889 35.8295 837.801 40.4673C838.713 45.105 838.245 49.9122 836.456 54.2808C834.667 58.6495 831.638 62.3834 827.75 65.0105C823.863 67.6375 819.294 69.0397 814.619 69.0397L814.619 90.263Z" fill="white" fill-opacity="0.13"/>
<path d="M948.617 49.2344H968.106V69.7487H948.617V49.2344Z" fill="white" fill-opacity="0.13"/>
<path d="M928.103 67.6953H948.617V88.2096H928.103V67.6953Z" fill="white" fill-opacity="0.13"/>
<path d="M968.619 90.263C977.443 90.263 986.07 87.6161 993.408 82.657C1000.75 77.6979 1006.46 70.6493 1009.84 62.4026C1013.22 54.1559 1014.1 45.0815 1012.38 36.3268C1010.66 27.5722 1006.41 19.5305 1000.17 13.2187C993.929 6.90698 985.979 2.60862 977.323 0.867208C968.668 -0.874202 959.697 0.0195525 951.544 3.43545C943.391 6.85135 936.422 12.636 931.52 20.0578C926.617 27.4796 924 36.2054 924 45.1315L944.982 45.1315C944.982 40.4029 946.368 35.7805 948.966 31.8488C951.563 27.9172 955.254 24.8528 959.573 23.0432C963.892 21.2337 968.645 20.7602 973.23 21.6827C977.815 22.6052 982.027 24.8823 985.332 28.2259C988.638 31.5695 990.889 35.8295 991.801 40.4673C992.713 45.105 992.245 49.9122 990.456 54.2808C988.667 58.6495 985.638 62.3834 981.75 65.0105C977.863 67.6375 973.294 69.0397 968.619 69.0397L968.619 90.263Z" fill="white" fill-opacity="0.13"/>
<path d="M794.617 185.234H814.106V205.749H794.617V185.234Z" fill="white" fill-opacity="0.13"/>
<path d="M774.103 203.695H794.617V224.21H774.103V203.695Z" fill="white" fill-opacity="0.13"/>
<path d="M814.619 226.263C823.443 226.263 832.07 223.616 839.408 218.657C846.745 213.698 852.464 206.649 855.841 198.403C859.218 190.156 860.102 181.081 858.38 172.327C856.658 163.572 852.409 155.53 846.169 149.219C839.929 142.907 831.979 138.609 823.323 136.867C814.668 135.126 805.697 136.02 797.544 139.435C789.391 142.851 782.422 148.636 777.52 156.058C772.617 163.48 770 172.205 770 181.132L790.982 181.132C790.982 176.403 792.368 171.781 794.966 167.849C797.563 163.917 801.254 160.853 805.573 159.043C809.892 157.234 814.645 156.76 819.23 157.683C823.815 158.605 828.027 160.882 831.332 164.226C834.638 167.57 836.889 171.83 837.801 176.467C838.713 181.105 838.245 185.912 836.456 190.281C834.667 194.649 831.638 198.383 827.75 201.01C823.863 203.638 819.294 205.04 814.619 205.04L814.619 226.263Z" fill="white" fill-opacity="0.13"/>
<path d="M948.617 185.234H968.106V205.749H948.617V185.234Z" fill="white" fill-opacity="0.13"/>
<path d="M928.103 203.695H948.617V224.21H928.103V203.695Z" fill="white" fill-opacity="0.13"/>
<path d="M968.619 226.263C977.443 226.263 986.07 223.616 993.408 218.657C1000.75 213.698 1006.46 206.649 1009.84 198.403C1013.22 190.156 1014.1 181.081 1012.38 172.327C1010.66 163.572 1006.41 155.53 1000.17 149.219C993.929 142.907 985.979 138.609 977.323 136.867C968.668 135.126 959.697 136.02 951.544 139.435C943.391 142.851 936.422 148.636 931.52 156.058C926.617 163.48 924 172.205 924 181.132L944.982 181.132C944.982 176.403 946.368 171.781 948.966 167.849C951.563 163.917 955.254 160.853 959.573 159.043C963.892 157.234 968.645 156.76 973.23 157.683C977.815 158.605 982.027 160.882 985.332 164.226C988.638 167.57 990.889 171.83 991.801 176.467C992.713 181.105 992.245 185.912 990.456 190.281C988.667 194.649 985.638 198.383 981.75 201.01C977.863 203.638 973.294 205.04 968.619 205.04L968.619 226.263Z" fill="white" fill-opacity="0.13"/>
<path d="M794.617 321.234H814.106V341.749H794.617V321.234Z" fill="white" fill-opacity="0.13"/>
<path d="M774.103 339.695H794.617V360.21H774.103V339.695Z" fill="white" fill-opacity="0.13"/>
<path d="M814.619 362.263C823.443 362.263 832.07 359.616 839.408 354.657C846.745 349.698 852.464 342.649 855.841 334.403C859.218 326.156 860.102 317.081 858.38 308.327C856.658 299.572 852.409 291.53 846.169 285.219C839.929 278.907 831.979 274.609 823.323 272.867C814.668 271.126 805.697 272.02 797.544 275.435C789.391 278.851 782.422 284.636 777.52 292.058C772.617 299.48 770 308.205 770 317.132L790.982 317.132C790.982 312.403 792.368 307.781 794.966 303.849C797.563 299.917 801.254 296.853 805.573 295.043C809.892 293.234 814.645 292.76 819.23 293.683C823.815 294.605 828.027 296.882 831.332 300.226C834.638 303.57 836.889 307.83 837.801 312.467C838.713 317.105 838.245 321.912 836.456 326.281C834.667 330.649 831.638 334.383 827.75 337.01C823.863 339.638 819.294 341.04 814.619 341.04L814.619 362.263Z" fill="white" fill-opacity="0.13"/>
<path d="M948.617 321.234H968.106V341.749H948.617V321.234Z" fill="white" fill-opacity="0.13"/>
<path d="M928.103 339.695H948.617V360.21H928.103V339.695Z" fill="white" fill-opacity="0.13"/>
<path d="M968.619 362.263C977.443 362.263 986.07 359.616 993.408 354.657C1000.75 349.698 1006.46 342.649 1009.84 334.403C1013.22 326.156 1014.1 317.081 1012.38 308.327C1010.66 299.572 1006.41 291.53 1000.17 285.219C993.929 278.907 985.979 274.609 977.323 272.867C968.668 271.126 959.697 272.02 951.544 275.435C943.391 278.851 936.422 284.636 931.52 292.058C926.617 299.48 924 308.205 924 317.132L944.982 317.132C944.982 312.403 946.368 307.781 948.966 303.849C951.563 299.917 955.254 296.853 959.573 295.043C963.892 293.234 968.645 292.76 973.23 293.683C977.815 294.605 982.027 296.882 985.332 300.226C988.638 303.57 990.889 307.83 991.801 312.467C992.713 317.105 992.245 321.912 990.456 326.281C988.667 330.649 985.638 334.383 981.75 337.01C977.863 339.638 973.294 341.04 968.619 341.04L968.619 362.263Z" fill="white" fill-opacity="0.13"/>
</svg>
