<svg width="215" height="194" viewBox="0 0 215 194" fill="none" xmlns="http://www.w3.org/2000/svg">
<path d="M103.81 84.7051H113.837V95.2598H103.81V84.7051Z" fill="#FF5811"/>
<path d="M93.2556 94.2031H103.81V104.758H93.2556V94.2031Z" fill="white"/>
<path d="M114.101 105.814C118.642 105.814 123.08 104.452 126.855 101.901C130.63 99.3491 133.573 95.7226 135.31 91.4796C137.048 87.2366 137.503 82.5678 136.617 78.0634C135.731 73.5591 133.545 69.4216 130.334 66.1742C127.123 62.9267 123.033 60.7152 118.58 59.8192C114.127 58.9233 109.511 59.3831 105.316 61.1406C101.121 62.8981 97.536 65.8743 95.0135 69.6929C92.491 73.5115 91.1447 78.0009 91.1447 82.5935L101.94 82.5935C101.94 80.1606 102.653 77.7824 103.99 75.7595C105.326 73.7366 107.225 72.16 109.447 71.2289C111.67 70.2979 114.115 70.0543 116.474 70.529C118.833 71.0036 121 72.1751 122.7 73.8955C124.401 75.6158 125.559 77.8076 126.029 80.1937C126.498 82.5799 126.257 85.0532 125.337 87.3009C124.416 89.5486 122.858 91.4697 120.858 92.8214C118.858 94.173 116.507 94.8945 114.101 94.8945L114.101 105.814Z" fill="white"/>
<path d="M46.0659 116.778C47.5065 116.778 48.7189 117.267 49.703 118.246C50.6872 119.225 51.1793 120.428 51.1793 121.853C51.1793 123.279 50.6872 124.481 49.703 125.46C48.7189 126.44 47.5065 126.929 46.0659 126.929H43.4344V131.897H40.4819V116.778H46.0659ZM46.0659 124.143C46.6935 124.143 47.2141 123.927 47.6277 123.495C48.0414 123.049 48.2482 122.501 48.2482 121.853C48.2482 121.191 48.0414 120.644 47.6277 120.212C47.2141 119.78 46.6935 119.564 46.0659 119.564H43.4344V124.143H46.0659Z" fill="white"/>
<path d="M54.3423 119.801C53.8859 119.801 53.4865 119.636 53.1442 119.305C52.8162 118.959 52.6521 118.556 52.6521 118.095C52.6521 117.634 52.8162 117.231 53.1442 116.886C53.4865 116.54 53.8859 116.367 54.3423 116.367C54.813 116.367 55.2124 116.54 55.5404 116.886C55.8827 117.231 56.0539 117.634 56.0539 118.095C56.0539 118.556 55.8827 118.959 55.5404 119.305C55.2124 119.636 54.813 119.801 54.3423 119.801ZM52.9731 131.897V121.097H55.733V131.897H52.9731Z" fill="white"/>
<path d="M64.3779 123.776H61.9603V128.268C61.9603 128.643 62.053 128.916 62.2384 129.089C62.4239 129.262 62.6949 129.363 63.0514 129.391C63.408 129.406 63.8502 129.399 64.3779 129.37V131.897C62.4809 132.113 61.1402 131.933 60.3557 131.357C59.5855 130.781 59.2004 129.751 59.2004 128.268V123.776H57.3391V121.097H59.2004V118.916L61.9603 118.074V121.097H64.3779V123.776Z" fill="white"/>
<path d="M71.0815 132.199C69.4697 132.199 68.1219 131.652 67.0379 130.558C65.9681 129.463 65.4333 128.11 65.4333 126.497C65.4333 124.884 65.9681 123.531 67.0379 122.437C68.1219 121.342 69.4697 120.795 71.0815 120.795C72.1227 120.795 73.0712 121.047 73.9269 121.551C74.7827 122.055 75.4317 122.732 75.8739 123.581L73.499 124.985C73.2851 124.539 72.9571 124.186 72.5149 123.927C72.087 123.668 71.6021 123.538 71.0601 123.538C70.2328 123.538 69.5482 123.819 69.0062 124.38C68.4642 124.928 68.1932 125.633 68.1932 126.497C68.1932 127.347 68.4642 128.052 69.0062 128.614C69.5482 129.161 70.2328 129.435 71.0601 129.435C71.6163 129.435 72.1084 129.312 72.5363 129.067C72.9784 128.808 73.3065 128.455 73.5204 128.009L75.9166 129.391C75.446 130.241 74.7827 130.925 73.9269 131.443C73.0712 131.947 72.1227 132.199 71.0815 132.199Z" fill="white"/>
<path d="M83.324 120.795C84.4936 120.795 85.4564 121.191 86.2123 121.983C86.9825 122.775 87.3676 123.869 87.3676 125.266V131.897H84.6077V125.612C84.6077 124.892 84.4152 124.344 84.0301 123.97C83.645 123.581 83.1315 123.387 82.4896 123.387C81.7765 123.387 81.206 123.61 80.7781 124.056C80.3502 124.503 80.1362 125.172 80.1362 126.065V131.897H77.3763V116.778H80.1362V122.307C80.8066 121.299 81.8692 120.795 83.324 120.795Z" fill="white"/>
<path d="M95.4366 116.778C96.8772 116.778 98.0895 117.267 99.0737 118.246C100.058 119.225 100.55 120.428 100.55 121.853C100.55 123.279 100.058 124.481 99.0737 125.46C98.0895 126.44 96.8772 126.929 95.4366 126.929H92.805V131.897H89.8526V116.778H95.4366ZM95.4366 124.143C96.0642 124.143 96.5848 123.927 96.9984 123.495C97.412 123.049 97.6188 122.501 97.6188 121.853C97.6188 121.191 97.412 120.644 96.9984 120.212C96.5848 119.78 96.0642 119.564 95.4366 119.564H92.805V124.143H95.4366Z" fill="white"/>
<path d="M103.965 127.642C104.336 128.995 105.342 129.672 106.982 129.672C108.037 129.672 108.836 129.312 109.378 128.592L111.603 129.888C110.548 131.429 108.993 132.199 106.939 132.199C105.171 132.199 103.751 131.659 102.682 130.579C101.612 129.499 101.077 128.139 101.077 126.497C101.077 124.87 101.605 123.516 102.66 122.437C103.716 121.342 105.071 120.795 106.725 120.795C108.294 120.795 109.585 121.342 110.598 122.437C111.625 123.531 112.138 124.884 112.138 126.497C112.138 126.857 112.102 127.239 112.031 127.642H103.965ZM103.923 125.482H109.378C109.221 124.748 108.893 124.2 108.394 123.84C107.909 123.48 107.353 123.3 106.725 123.3C105.984 123.3 105.37 123.495 104.885 123.884C104.4 124.258 104.079 124.791 103.923 125.482Z" fill="white"/>
<path d="M116.825 122.955C117.081 122.264 117.502 121.745 118.087 121.4C118.686 121.054 119.349 120.881 120.077 120.881V123.992C119.235 123.891 118.479 124.064 117.809 124.51C117.153 124.956 116.825 125.698 116.825 126.735V131.897H114.065V121.097H116.825V122.955Z" fill="white"/>
<path d="M127.446 119.153C125.934 119.038 125.178 119.65 125.178 120.989V121.097H127.446V123.776H125.178V131.897H122.418V123.776H120.878V121.097H122.418V120.989C122.418 119.463 122.839 118.304 123.681 117.512C124.522 116.72 125.777 116.374 127.446 116.475V119.153Z" fill="white"/>
<path d="M130.646 127.642C131.017 128.995 132.022 129.672 133.663 129.672C134.718 129.672 135.517 129.312 136.059 128.592L138.284 129.888C137.228 131.429 135.674 132.199 133.62 132.199C131.851 132.199 130.432 131.659 129.362 130.579C128.293 129.499 127.758 128.139 127.758 126.497C127.758 124.87 128.285 123.516 129.341 122.437C130.396 121.342 131.751 120.795 133.406 120.795C134.975 120.795 136.266 121.342 137.278 122.437C138.305 123.531 138.819 124.884 138.819 126.497C138.819 126.857 138.783 127.239 138.712 127.642H130.646ZM130.603 125.482H136.059C135.902 124.748 135.574 124.2 135.075 123.84C134.59 123.48 134.033 123.3 133.406 123.3C132.664 123.3 132.051 123.495 131.566 123.884C131.081 124.258 130.76 124.791 130.603 125.482Z" fill="white"/>
<path d="M145.754 132.199C144.142 132.199 142.794 131.652 141.71 130.558C140.64 129.463 140.106 128.11 140.106 126.497C140.106 124.884 140.64 123.531 141.71 122.437C142.794 121.342 144.142 120.795 145.754 120.795C146.795 120.795 147.743 121.047 148.599 121.551C149.455 122.055 150.104 122.732 150.546 123.581L148.171 124.985C147.957 124.539 147.629 124.186 147.187 123.927C146.759 123.668 146.274 123.538 145.732 123.538C144.905 123.538 144.22 123.819 143.678 124.38C143.136 124.928 142.865 125.633 142.865 126.497C142.865 127.347 143.136 128.052 143.678 128.614C144.22 129.161 144.905 129.435 145.732 129.435C146.289 129.435 146.781 129.312 147.209 129.067C147.651 128.808 147.979 128.455 148.193 128.009L150.589 129.391C150.118 130.241 149.455 130.925 148.599 131.443C147.743 131.947 146.795 132.199 145.754 132.199Z" fill="white"/>
<path d="M158.168 123.776H155.75V128.268C155.75 128.643 155.843 128.916 156.028 129.089C156.213 129.262 156.484 129.363 156.841 129.391C157.198 129.406 157.64 129.399 158.168 129.37V131.897C156.271 132.113 154.93 131.933 154.145 131.357C153.375 130.781 152.99 129.751 152.99 128.268V123.776H151.129V121.097H152.99V118.916L155.75 118.074V121.097H158.168V123.776Z" fill="white"/>
<path d="M173.285 131.673L172.391 129.013H166.454L165.56 131.673H162.389L167.603 116.896H171.242L176.477 131.673H173.285ZM167.39 126.29H171.476L169.433 120.253L167.39 126.29Z" fill="#FF5811"/>
<path d="M177.924 116.896H180.86V131.673H177.924V116.896Z" fill="#FF5811"/>
<path d="M195.868 175.763H21.1951V126.591L28.2515 122.414V76.8444L21.1951 70.4704V16.1543H195.868V70.491L189.447 75.2987V121.824L195.868 126.632V175.763ZM21.8258 175.127H195.227V126.927L188.806 122.119V74.9833L195.227 70.1757V16.7901H21.8258V70.1964L28.8874 76.5652V122.77L21.8258 126.947V175.127Z" fill="white"/>
<path d="M37.0753 0H35.8036V10.034H37.0753V0Z" fill="white"/>
<path d="M41.9506 0H40.6789V10.034H41.9506V0Z" fill="white"/>
<path d="M46.8254 0H45.5537V10.034H46.8254V0Z" fill="white"/>
<path d="M51.7 0H50.4283V10.034H51.7V0Z" fill="white"/>
<path d="M56.5752 0H55.3035V10.034H56.5752V0Z" fill="white"/>
<path d="M61.4498 0H60.1781V10.034H61.4498V0Z" fill="white"/>
<path d="M66.3246 0H65.0529V10.034H66.3246V0Z" fill="white"/>
<path d="M71.1999 0H69.9282V10.034H71.1999V0Z" fill="white"/>
<path d="M76.0744 0H74.8027V10.034H76.0744V0Z" fill="white"/>
<path d="M80.9492 0H79.6776V10.034H80.9492V0Z" fill="white"/>
<path d="M85.8246 0H84.5529V10.034H85.8246V0Z" fill="white"/>
<path d="M90.6989 0H89.4272V10.034H90.6989V0Z" fill="white"/>
<path d="M95.5739 0H94.3022V10.034H95.5739V0Z" fill="white"/>
<path d="M100.449 0H99.1772V10.034H100.449V0Z" fill="white"/>
<path d="M105.324 0H104.052V10.034H105.324V0Z" fill="white"/>
<path d="M110.199 0H108.927V10.034H110.199V0Z" fill="white"/>
<path d="M115.073 0H113.802V10.034H115.073V0Z" fill="white"/>
<path d="M119.948 0H118.676V10.034H119.948V0Z" fill="white"/>
<path d="M124.823 0H123.551V10.034H124.823V0Z" fill="white"/>
<path d="M129.698 0H128.426V10.034H129.698V0Z" fill="white"/>
<path d="M134.573 0H133.301V10.034H134.573V0Z" fill="white"/>
<path d="M139.448 0H138.176V10.034H139.448V0Z" fill="white"/>
<path d="M144.322 0H143.05V10.034H144.322V0Z" fill="white"/>
<path d="M149.197 0H147.926V10.034H149.197V0Z" fill="white"/>
<path d="M154.072 0H152.801V10.034H154.072V0Z" fill="white"/>
<path d="M158.947 0H157.675V10.034H158.947V0Z" fill="white"/>
<path d="M163.822 0H162.55V10.034H163.822V0Z" fill="white"/>
<path d="M168.697 0H167.425V10.034H168.697V0Z" fill="white"/>
<path d="M173.571 0H172.3V10.034H173.571V0Z" fill="white"/>
<path d="M178.446 0H177.175V10.034H178.446V0Z" fill="white"/>
<path d="M214.245 115.668V114.412H204.072V115.668H214.245Z" fill="white"/>
<path d="M214.245 120.475V119.219H204.072V120.475H214.245Z" fill="white"/>
<path d="M214.25 125.284V124.027H204.077V125.284H214.25Z" fill="white"/>
<path d="M214.25 130.092V128.836H204.077V130.092H214.25Z" fill="white"/>
<path d="M214.25 134.901V133.645H204.077V134.901H214.25Z" fill="white"/>
<path d="M214.25 139.707V138.451H204.077V139.707H214.25Z" fill="white"/>
<path d="M214.25 144.514V143.258H204.077V144.514H214.25Z" fill="white"/>
<path d="M214.25 149.323V148.066H204.077V149.323H214.25Z" fill="white"/>
<path d="M214.25 154.129V152.873H204.077V154.129H214.25Z" fill="white"/>
<path d="M214.25 158.936V157.68H204.077V158.936H214.25Z" fill="white"/>
<path d="M214.25 163.739V162.482H204.077V163.739H214.25Z" fill="white"/>
<path d="M214.25 168.547V167.291H204.077V168.547H214.25Z" fill="white"/>
<path d="M214.245 173.354V172.098H204.072V173.354H214.245Z" fill="white"/>
<path d="M39.1178 183.15H37.8461V193.184H39.1178V183.15Z" fill="white"/>
<path d="M43.9923 183.15H42.7206V193.184H43.9923V183.15Z" fill="white"/>
<path d="M48.8672 183.15H47.5955V193.184H48.8672V183.15Z" fill="white"/>
<path d="M53.7424 183.15H52.4707V193.184H53.7424V183.15Z" fill="white"/>
<path d="M58.617 183.15H57.3453V193.184H58.617V183.15Z" fill="white"/>
<path d="M63.4918 183.15H62.2201V193.184H63.4918V183.15Z" fill="white"/>
<path d="M68.3666 183.15H67.0949V193.184H68.3666V183.15Z" fill="white"/>
<path d="M73.2417 183.15H71.97V193.184H73.2417V183.15Z" fill="white"/>
<path d="M78.1162 183.15H76.8445V193.184H78.1162V183.15Z" fill="white"/>
<path d="M82.9912 183.15H81.7195V193.184H82.9912V183.15Z" fill="white"/>
<path d="M87.8661 183.15H86.5944V193.184H87.8661V183.15Z" fill="white"/>
<path d="M92.7409 183.15H91.4692V193.184H92.7409V183.15Z" fill="white"/>
<path d="M97.6159 183.15H96.3442V193.184H97.6159V183.15Z" fill="white"/>
<path d="M102.491 183.15H101.219V193.184H102.491V183.15Z" fill="white"/>
<path d="M107.366 183.15H106.094V193.184H107.366V183.15Z" fill="white"/>
<path d="M112.241 183.15H110.969V193.184H112.241V183.15Z" fill="white"/>
<path d="M117.115 183.15H115.844V193.184H117.115V183.15Z" fill="white"/>
<path d="M121.99 183.15H120.718V193.184H121.99V183.15Z" fill="white"/>
<path d="M126.865 183.15H125.593V193.184H126.865V183.15Z" fill="white"/>
<path d="M131.74 183.15H130.468V193.184H131.74V183.15Z" fill="white"/>
<path d="M136.615 183.15H135.343V193.184H136.615V183.15Z" fill="white"/>
<path d="M141.49 183.15H140.218V193.184H141.49V183.15Z" fill="white"/>
<path d="M146.364 183.15H145.093V193.184H146.364V183.15Z" fill="white"/>
<path d="M151.239 183.15H149.968V193.184H151.239V183.15Z" fill="white"/>
<path d="M156.114 183.15H154.843V193.184H156.114V183.15Z" fill="white"/>
<path d="M160.989 183.15H159.717V193.184H160.989V183.15Z" fill="white"/>
<path d="M165.864 183.15H164.592V193.184H165.864V183.15Z" fill="white"/>
<path d="M170.739 183.15H169.467V193.184H170.739V183.15Z" fill="white"/>
<path d="M175.613 183.15H174.342V193.184H175.613V183.15Z" fill="white"/>
<path d="M180.488 183.15H179.217V193.184H180.488V183.15Z" fill="white"/>
<path d="M192.75 19.0957H188.088V23.6966H192.75V19.0957Z" fill="white"/>
<path d="M29.5386 19.0957H24.8757V23.6966H29.5386V19.0957Z" fill="white"/>
<path d="M192.75 168.102H188.088V172.702H192.75V168.102Z" fill="white"/>
<path d="M29.5386 168.102H24.8757V172.702H29.5386V168.102Z" fill="white"/>
<path d="M209.365 25.0625C209.373 25.5532 209.235 26.0351 208.968 26.447C208.702 26.8589 208.318 27.182 207.867 27.3752C207.416 27.5685 206.918 27.623 206.436 27.532C205.954 27.441 205.509 27.2084 205.16 26.864C204.81 26.5196 204.571 26.079 204.473 25.5982C204.375 25.1174 204.422 24.6183 204.609 24.1645C204.795 23.7106 205.113 23.3226 205.521 23.0498C205.929 22.7771 206.408 22.6319 206.899 22.6329C207.548 22.6287 208.172 22.8822 208.634 23.3377C209.097 23.7933 209.359 24.4136 209.365 25.0625Z" fill="white"/>
<path d="M209.365 33.5657C209.372 34.0562 209.233 34.5376 208.966 34.9488C208.699 35.36 208.315 35.6824 207.864 35.8748C207.413 36.0673 206.914 36.1211 206.433 36.0294C205.951 35.9378 205.507 35.7048 205.158 35.3602C204.809 35.0156 204.571 34.5749 204.473 34.0943C204.375 33.6137 204.423 33.1148 204.609 32.6613C204.796 32.2077 205.113 31.82 205.521 31.5475C205.929 31.2749 206.409 31.1299 206.899 31.1309C207.221 31.1289 207.54 31.1902 207.838 31.3115C208.136 31.4327 208.407 31.6115 208.636 31.8376C208.865 32.0637 209.048 32.3327 209.173 32.6292C209.298 32.9257 209.363 33.244 209.365 33.5657Z" fill="white"/>
<path d="M209.365 42.0645C209.373 42.5551 209.235 43.0371 208.968 43.4489C208.702 43.8608 208.318 44.184 207.867 44.3772C207.416 44.5704 206.918 44.625 206.436 44.534C205.954 44.4429 205.509 44.2104 205.16 43.866C204.81 43.5216 204.571 43.0809 204.473 42.6002C204.375 42.1194 204.422 41.6203 204.609 41.1664C204.795 40.7126 205.113 40.3246 205.521 40.0518C205.929 39.779 206.408 39.6339 206.899 39.6348C207.548 39.6307 208.172 39.8842 208.634 40.3397C209.097 40.7952 209.359 41.4155 209.365 42.0645Z" fill="white"/>
<path d="M209.365 50.5677C209.372 51.0581 209.233 51.5396 208.966 51.9508C208.699 52.362 208.315 52.6843 207.864 52.8768C207.413 53.0692 206.914 53.123 206.433 53.0314C205.951 52.9398 205.507 52.7068 205.158 52.3622C204.809 52.0176 204.571 51.5769 204.473 51.0963C204.375 50.6156 204.423 50.1168 204.609 49.6632C204.796 49.2097 205.113 48.822 205.521 48.5494C205.929 48.2769 206.409 48.1319 206.899 48.1329C207.221 48.1308 207.54 48.1922 207.838 48.3134C208.136 48.4347 208.407 48.6135 208.636 48.8396C208.865 49.0657 209.048 49.3347 209.173 49.6312C209.298 49.9277 209.363 50.2459 209.365 50.5677Z" fill="white"/>
<path d="M209.365 59.0684C209.373 59.559 209.235 60.041 208.968 60.4528C208.702 60.8647 208.318 61.1879 207.867 61.3811C207.416 61.5743 206.918 61.6289 206.436 61.5379C205.954 61.4468 205.509 61.2143 205.16 60.8699C204.81 60.5255 204.571 60.0848 204.473 59.6041C204.375 59.1233 204.422 58.6242 204.609 58.1703C204.795 57.7165 205.113 57.3285 205.521 57.0557C205.929 56.7829 206.408 56.6378 206.899 56.6387C207.548 56.6346 208.172 56.8881 208.634 57.3436C209.097 57.7991 209.359 58.4194 209.365 59.0684Z" fill="white"/>
<path d="M209.365 67.5716C209.372 68.062 209.233 68.5435 208.966 68.9547C208.699 69.3659 208.315 69.6882 207.864 69.8807C207.413 70.0731 206.914 70.1269 206.433 70.0353C205.951 69.9437 205.507 69.7107 205.158 69.3661C204.809 69.0215 204.571 68.5808 204.473 68.1002C204.375 67.6195 204.423 67.1207 204.609 66.6671C204.796 66.2136 205.113 65.8259 205.521 65.5533C205.929 65.2808 206.409 65.1358 206.899 65.1368C207.221 65.1347 207.54 65.1961 207.838 65.3173C208.136 65.4386 208.407 65.6174 208.636 65.8435C208.865 66.0696 209.048 66.3386 209.173 66.6351C209.298 66.9316 209.363 67.2498 209.365 67.5716Z" fill="white"/>
<path d="M209.365 76.0755C209.372 76.5659 209.233 77.0474 208.966 77.4586C208.699 77.8698 208.315 78.1921 207.864 78.3846C207.413 78.577 206.914 78.6308 206.433 78.5392C205.951 78.4476 205.507 78.2146 205.158 77.87C204.809 77.5254 204.571 77.0847 204.473 76.6041C204.375 76.1234 204.423 75.6246 204.609 75.171C204.796 74.7175 205.113 74.3298 205.521 74.0572C205.929 73.7847 206.409 73.6397 206.899 73.6407C207.221 73.6386 207.54 73.7 207.838 73.8212C208.136 73.9425 208.407 74.1213 208.636 74.3474C208.865 74.5735 209.048 74.8425 209.173 75.139C209.298 75.4355 209.363 75.7537 209.365 76.0755Z" fill="white"/>
<path d="M209.365 84.5736C209.372 85.064 209.233 85.5454 208.966 85.9566C208.699 86.3679 208.315 86.6902 207.864 86.8826C207.413 87.0751 206.914 87.1289 206.433 87.0373C205.951 86.9456 205.507 86.7127 205.158 86.368C204.809 86.0234 204.571 85.5827 204.473 85.1021C204.375 84.6215 204.423 84.1226 204.609 83.6691C204.796 83.2155 205.113 82.8278 205.521 82.5553C205.929 82.2828 206.409 82.1377 206.899 82.1387C207.221 82.1367 207.54 82.198 207.838 82.3193C208.136 82.4406 208.407 82.6193 208.636 82.8454C208.865 83.0715 209.048 83.3405 209.173 83.637C209.298 83.9335 209.363 84.2518 209.365 84.5736Z" fill="white"/>
<path d="M209.365 93.0775C209.372 93.5679 209.233 94.0494 208.966 94.4606C208.699 94.8718 208.315 95.1941 207.864 95.3865C207.413 95.579 206.914 95.6328 206.433 95.5412C205.951 95.4495 205.507 95.2166 205.158 94.872C204.809 94.5273 204.571 94.0867 204.473 93.606C204.375 93.1254 204.423 92.6265 204.609 92.173C204.796 91.7194 205.113 91.3317 205.521 91.0592C205.929 90.7867 206.409 90.6417 206.899 90.6426C207.221 90.6406 207.54 90.7019 207.838 90.8232C208.136 90.9445 208.407 91.1232 208.636 91.3493C208.865 91.5754 209.048 91.8444 209.173 92.1409C209.298 92.4374 209.363 92.7557 209.365 93.0775Z" fill="white"/>
<path d="M209.365 101.576C209.372 102.066 209.233 102.547 208.966 102.959C208.699 103.37 208.315 103.692 207.864 103.885C207.413 104.077 206.914 104.131 206.433 104.039C205.951 103.948 205.507 103.715 205.158 103.37C204.809 103.025 204.571 102.585 204.473 102.104C204.375 101.623 204.423 101.125 204.609 100.671C204.796 100.217 205.113 99.8298 205.521 99.5572C205.929 99.2847 206.409 99.1397 206.899 99.1407C207.221 99.1386 207.54 99.2 207.838 99.3212C208.136 99.4425 208.407 99.6213 208.636 99.8474C208.865 100.073 209.048 100.342 209.173 100.639C209.298 100.935 209.363 101.254 209.365 101.576Z" fill="white"/>
<path d="M0.00012207 80.3141L0.00012207 81.5703H10.1737V80.3141H0.00012207Z" fill="white"/>
<path d="M0.00012207 75.5055L0.00012207 76.7617H10.1737V75.5055H0.00012207Z" fill="white"/>
<path d="M0.00012207 70.6989L0.00012207 71.9551H10.1737V70.6989H0.00012207Z" fill="white"/>
<path d="M0.00012207 65.8922L0.00012207 67.1484H10.1737V65.8922H0.00012207Z" fill="white"/>
<path d="M0.00012207 61.0817L0.00012207 62.3379H10.1737V61.0817H0.00012207Z" fill="white"/>
<path d="M0.00012207 56.2751L0.00012207 57.5312H10.1737V56.2751H0.00012207Z" fill="white"/>
<path d="M0.00012207 51.4684L0.00012207 52.7246H10.1737V51.4684H0.00012207Z" fill="white"/>
<path d="M0.00012207 46.6637L0.00012207 47.9199H10.1737V46.6637H0.00012207Z" fill="white"/>
<path d="M0.00012207 41.859L0.00012207 43.1152H10.1737V41.859H0.00012207Z" fill="white"/>
<path d="M0.00012207 37.0504L0.00012207 38.3066H10.1737V37.0504H0.00012207Z" fill="white"/>
<path d="M0.00012207 32.2438L0.00012207 33.5H10.1737V32.2438H0.00012207Z" fill="white"/>
<path d="M0.00012207 27.4352L0.00012207 28.6914H10.1737V27.4352H0.00012207Z" fill="white"/>
<path d="M0.00012207 22.6266L0.00012207 23.8828H10.1737V22.6266H0.00012207Z" fill="white"/>
<path d="M7.33555 172.094C8.6974 172.094 9.8014 171.004 9.8014 169.659C9.8014 168.315 8.6974 167.225 7.33555 167.225C5.97369 167.225 4.86969 168.315 4.86969 169.659C4.86969 171.004 5.97369 172.094 7.33555 172.094Z" fill="white"/>
<path d="M7.33555 163.59C8.6974 163.59 9.8014 162.5 9.8014 161.156C9.8014 159.811 8.6974 158.721 7.33555 158.721C5.97369 158.721 4.86969 159.811 4.86969 161.156C4.86969 162.5 5.97369 163.59 7.33555 163.59Z" fill="white"/>
<path d="M4.86947 152.656C4.86229 152.167 5.00078 151.687 5.26733 151.277C5.53388 150.866 5.91644 150.545 6.36634 150.353C6.81623 150.16 7.31313 150.106 7.79382 150.197C8.27451 150.288 8.71726 150.52 9.06575 150.864C9.41423 151.207 9.6527 151.646 9.75082 152.126C9.84893 152.605 9.80226 153.103 9.61674 153.555C9.43121 154.008 9.11522 154.395 8.70897 154.668C8.30271 154.94 7.82455 155.086 7.33532 155.086C6.68634 155.09 6.06222 154.837 5.59993 154.381C5.13763 153.926 4.87493 153.305 4.86947 152.656Z" fill="white"/>
<path d="M7.33555 146.588C8.6974 146.588 9.8014 145.498 9.8014 144.154C9.8014 142.809 8.6974 141.719 7.33555 141.719C5.97369 141.719 4.86969 142.809 4.86969 144.154C4.86969 145.498 5.97369 146.588 7.33555 146.588Z" fill="white"/>
<path d="M7.33555 138.083C8.6974 138.083 9.8014 136.992 9.8014 135.648C9.8014 134.303 8.6974 133.213 7.33555 133.213C5.97369 133.213 4.86969 134.303 4.86969 135.648C4.86969 136.992 5.97369 138.083 7.33555 138.083Z" fill="white"/>
<path d="M7.33555 129.585C8.6974 129.585 9.8014 128.494 9.8014 127.15C9.8014 125.805 8.6974 124.715 7.33555 124.715C5.97369 124.715 4.86969 125.805 4.86969 127.15C4.86969 128.494 5.97369 129.585 7.33555 129.585Z" fill="white"/>
<path d="M4.86964 118.645C4.86349 118.156 5.00286 117.677 5.27005 117.267C5.53724 116.857 5.92017 116.537 6.37017 116.345C6.82016 116.154 7.31691 116.1 7.79727 116.192C8.27762 116.284 8.71989 116.516 9.06786 116.86C9.41582 117.203 9.65377 117.643 9.75146 118.122C9.84915 118.601 9.80216 119.098 9.61647 119.551C9.43078 120.003 9.11478 120.39 8.70862 120.662C8.30247 120.935 7.82451 121.08 7.3355 121.08C7.01352 121.083 6.69418 121.022 6.39581 120.901C6.09743 120.78 5.82589 120.601 5.59677 120.375C5.36766 120.149 5.18548 119.879 5.0607 119.583C4.93592 119.286 4.87099 118.967 4.86964 118.645Z" fill="white"/>
<path d="M7.33555 112.583C8.6974 112.583 9.8014 111.492 9.8014 110.148C9.8014 108.803 8.6974 107.713 7.33555 107.713C5.97369 107.713 4.86969 108.803 4.86969 110.148C4.86969 111.492 5.97369 112.583 7.33555 112.583Z" fill="white"/>
<path d="M7.33555 104.079C8.6974 104.079 9.8014 102.989 9.8014 101.644C9.8014 100.299 8.6974 99.209 7.33555 99.209C5.97369 99.209 4.86969 100.299 4.86969 101.644C4.86969 102.989 5.97369 104.079 7.33555 104.079Z" fill="white"/>
<path d="M7.33555 95.5806C8.6974 95.5806 9.8014 94.4905 9.8014 93.1458C9.8014 91.801 8.6974 90.7109 7.33555 90.7109C5.97369 90.7109 4.86969 91.801 4.86969 93.1458C4.86969 94.4905 5.97369 95.5806 7.33555 95.5806Z" fill="white"/>
<path d="M178.069 27.2031H36.2433V27.4719H178.069V27.2031Z" fill="white"/>
<path d="M179.356 164.799H37.5308V165.161H179.356V164.799Z" fill="white"/>
</svg>
