<svg width="406" height="29" viewBox="0 0 406 29" fill="none" xmlns="http://www.w3.org/2000/svg">
<path d="M0 0H406V28.4558H0V0Z" fill="#FBDA37"/>
<path d="M283.012 9.84655H285.344V20.3405C285.344 22.0125 284.795 23.2959 283.695 24.1905C282.595 25.0852 281.26 25.5325 279.691 25.5325C277.153 25.5325 275.415 24.6452 274.477 22.8705L276.522 21.6825C277.094 22.8119 278.165 23.3765 279.734 23.3765C280.761 23.3765 281.56 23.1052 282.132 22.5625C282.719 22.0345 283.012 21.2939 283.012 20.3405V18.9985C282.118 20.2745 280.842 20.9125 279.184 20.9125C277.63 20.9125 276.317 20.3625 275.247 19.2625C274.176 18.1479 273.641 16.8059 273.641 15.2365C273.641 13.6672 274.176 12.3325 275.247 11.2325C276.317 10.1179 277.63 9.56055 279.184 9.56055C280.842 9.56055 282.118 10.1985 283.012 11.4745V9.84655ZM277.007 17.7005C277.681 18.3605 278.517 18.6905 279.514 18.6905C280.512 18.6905 281.341 18.3605 282.001 17.7005C282.675 17.0405 283.012 16.2192 283.012 15.2365C283.012 14.2539 282.675 13.4325 282.001 12.7725C281.341 12.1125 280.512 11.7825 279.514 11.7825C278.517 11.7825 277.681 12.1125 277.007 12.7725C276.347 13.4325 276.016 14.2539 276.016 15.2365C276.016 16.2192 276.347 17.0405 277.007 17.7005Z" fill="black"/>
<path d="M267.474 9.56055C268.735 9.56055 269.755 9.96388 270.532 10.7705C271.309 11.5772 271.698 12.6845 271.698 14.0925V20.8465H269.322V14.3345C269.322 13.5132 269.102 12.8825 268.662 12.4425C268.222 12.0025 267.621 11.7825 266.858 11.7825C266.022 11.7825 265.347 12.0465 264.834 12.5745C264.321 13.0879 264.064 13.8799 264.064 14.9505V20.8465H261.688V9.84655H264.064V11.2545C264.783 10.1252 265.919 9.56055 267.474 9.56055Z" fill="black"/>
<path d="M258.797 7.75616C258.504 8.04949 258.152 8.19616 257.741 8.19616C257.331 8.19616 256.971 8.04949 256.663 7.75616C256.37 7.44816 256.223 7.08882 256.223 6.67816C256.223 6.26749 256.37 5.91549 256.663 5.62216C256.957 5.31416 257.316 5.16016 257.741 5.16016C258.167 5.16016 258.526 5.31416 258.819 5.62216C259.113 5.91549 259.259 6.26749 259.259 6.67816C259.259 7.08882 259.105 7.44816 258.797 7.75616ZM256.553 20.8462V9.84616H258.929V20.8462H256.553Z" fill="black"/>
<path d="M254.398 12.1336H251.67V17.4136C251.67 17.8683 251.773 18.1983 251.978 18.4036C252.184 18.5943 252.484 18.7043 252.88 18.7336C253.291 18.7483 253.797 18.741 254.398 18.7116V20.8456C252.58 21.0656 251.274 20.9116 250.482 20.3836C249.69 19.841 249.294 18.851 249.294 17.4136V12.1336H247.27V9.84563H249.294V7.46962L251.67 6.76562V9.84563H254.398V12.1336Z" fill="black"/>
<path d="M237.669 16.3585C237.845 17.1945 238.249 17.8399 238.879 18.2945C239.51 18.7345 240.28 18.9545 241.189 18.9545C242.451 18.9545 243.397 18.4999 244.027 17.5905L245.985 18.7345C244.9 20.3332 243.294 21.1325 241.167 21.1325C239.378 21.1325 237.933 20.5899 236.833 19.5045C235.733 18.4045 235.183 17.0185 235.183 15.3465C235.183 13.7039 235.726 12.3325 236.811 11.2325C237.897 10.1179 239.29 9.56055 240.991 9.56055C242.605 9.56055 243.925 10.1252 244.951 11.2545C245.993 12.3839 246.513 13.7552 246.513 15.3685C246.513 15.6179 246.484 15.9479 246.425 16.3585H237.669ZM237.647 14.4225H244.115C243.954 13.5279 243.58 12.8532 242.993 12.3985C242.421 11.9439 241.747 11.7165 240.969 11.7165C240.089 11.7165 239.356 11.9585 238.769 12.4425C238.183 12.9265 237.809 13.5865 237.647 14.4225Z" fill="black"/>
<path d="M235.082 20.8453H232.244L227.734 15.7633V20.8453H225.358V5.44531H227.734V14.7073L232.002 9.84531H234.906L230.066 15.2353L235.082 20.8453Z" fill="black"/>
<path d="M220.215 11.6944C220.816 10.3304 221.945 9.64844 223.603 9.64844V12.2224C222.693 12.1638 221.901 12.3838 221.227 12.8824C220.552 13.3664 220.215 14.1731 220.215 15.3024V20.8464H217.839V9.84644H220.215V11.6944Z" fill="black"/>
<path d="M212.693 9.84655H215.069V20.8465H212.693V19.2625C211.798 20.5092 210.515 21.1325 208.843 21.1325C207.332 21.1325 206.042 20.5752 204.971 19.4605C203.9 18.3312 203.365 16.9599 203.365 15.3465C203.365 13.7185 203.9 12.3472 204.971 11.2325C206.042 10.1179 207.332 9.56055 208.843 9.56055C210.515 9.56055 211.798 10.1765 212.693 11.4085V9.84655ZM206.731 17.8765C207.391 18.5365 208.22 18.8665 209.217 18.8665C210.214 18.8665 211.043 18.5365 211.703 17.8765C212.363 17.2019 212.693 16.3585 212.693 15.3465C212.693 14.3345 212.363 13.4985 211.703 12.8385C211.043 12.1639 210.214 11.8265 209.217 11.8265C208.22 11.8265 207.391 12.1639 206.731 12.8385C206.071 13.4985 205.741 14.3345 205.741 15.3465C205.741 16.3585 206.071 17.2019 206.731 17.8765Z" fill="black"/>
<path d="M201.065 5.44531V20.8453H198.535V9.86731L193.849 17.6113H193.541L188.855 9.84531V20.8453H186.325V5.44531H189.053L193.695 13.1453L198.359 5.44531H201.065Z" fill="black"/>
<path d="M172.714 21.1325C171.101 21.1325 169.729 20.5752 168.6 19.4605C167.471 18.3459 166.906 16.9745 166.906 15.3465C166.906 13.7185 167.471 12.3472 168.6 11.2325C169.729 10.1179 171.101 9.56055 172.714 9.56055C174.342 9.56055 175.713 10.1179 176.828 11.2325C177.957 12.3472 178.522 13.7185 178.522 15.3465C178.522 16.9745 177.957 18.3459 176.828 19.4605C175.713 20.5752 174.342 21.1325 172.714 21.1325ZM170.272 17.8325C170.932 18.4925 171.746 18.8225 172.714 18.8225C173.682 18.8225 174.496 18.4925 175.156 17.8325C175.816 17.1725 176.146 16.3439 176.146 15.3465C176.146 14.3492 175.816 13.5205 175.156 12.8605C174.496 12.2005 173.682 11.8705 172.714 11.8705C171.746 11.8705 170.932 12.2005 170.272 12.8605C169.612 13.5205 169.282 14.3492 169.282 15.3465C169.282 16.3439 169.612 17.1725 170.272 17.8325Z" fill="black"/>
<path d="M156.652 16.3585C156.828 17.1945 157.231 17.8399 157.862 18.2945C158.493 18.7345 159.263 18.9545 160.172 18.9545C161.433 18.9545 162.379 18.4999 163.01 17.5905L164.968 18.7345C163.883 20.3332 162.277 21.1325 160.15 21.1325C158.361 21.1325 156.916 20.5899 155.816 19.5045C154.716 18.4045 154.166 17.0185 154.166 15.3465C154.166 13.7039 154.709 12.3325 155.794 11.2325C156.879 10.1179 158.273 9.56055 159.974 9.56055C161.587 9.56055 162.907 10.1252 163.934 11.2545C164.975 12.3839 165.496 13.7552 165.496 15.3685C165.496 15.6179 165.467 15.9479 165.408 16.3585H156.652ZM156.63 14.4225H163.098C162.937 13.5279 162.563 12.8532 161.976 12.3985C161.404 11.9439 160.729 11.7165 159.952 11.7165C159.072 11.7165 158.339 11.9585 157.752 12.4425C157.165 12.9265 156.791 13.5865 156.63 14.4225Z" fill="black"/>
<path d="M149.636 5.44531H152.012V20.8453H149.636V19.2613C148.742 20.508 147.458 21.1313 145.786 21.1313C144.276 21.1313 142.985 20.574 141.914 19.4593C140.844 18.33 140.308 16.9586 140.308 15.3453C140.308 13.7173 140.844 12.346 141.914 11.2313C142.985 10.1166 144.276 9.55931 145.786 9.55931C147.458 9.55931 148.742 10.1753 149.636 11.4073V5.44531ZM143.674 17.8753C144.334 18.5353 145.163 18.8653 146.16 18.8653C147.158 18.8653 147.986 18.5353 148.646 17.8753C149.306 17.2006 149.636 16.3573 149.636 15.3453C149.636 14.3333 149.306 13.4973 148.646 12.8373C147.986 12.1626 147.158 11.8253 146.16 11.8253C145.163 11.8253 144.334 12.1626 143.674 12.8373C143.014 13.4973 142.684 14.3333 142.684 15.3453C142.684 16.3573 143.014 17.2006 143.674 17.8753Z" fill="black"/>
<path d="M138.034 7.75616C137.74 8.04949 137.388 8.19616 136.978 8.19616C136.567 8.19616 136.208 8.04949 135.9 7.75616C135.606 7.44816 135.46 7.08882 135.46 6.67816C135.46 6.26749 135.606 5.91549 135.9 5.62216C136.193 5.31416 136.552 5.16016 136.978 5.16016C137.403 5.16016 137.762 5.31416 138.056 5.62216C138.349 5.91549 138.496 6.26749 138.496 6.67816C138.496 7.08882 138.342 7.44816 138.034 7.75616ZM135.79 20.8462V9.84616H138.166V20.8462H135.79Z" fill="black"/>
<path d="M126.346 20.8453L121 5.44531H123.772L127.864 17.7873L131.978 5.44531H134.728L129.382 20.8453H126.346Z" fill="black"/>
</svg>
