<svg width="273" height="222" viewBox="0 0 273 222" fill="none" xmlns="http://www.w3.org/2000/svg">
<g clip-path="url(#clip0_2_4799)">
<path d="M11.9188 140.33C15.8916 128.684 26.7206 120.738 38.9646 117.014C42.1558 116.043 45.578 115.599 48.4377 113.947C55.2997 109.987 57.3897 101.2 57.5851 93.4974C58.6745 50.4244 101.647 44.5984 109.894 45.3622C142.618 48.3876 138.213 73.7815 157.337 87.9911C169.688 97.1623 189.06 82.6152 202.731 89.7674C214.33 95.8301 214.288 112.976 224.892 120.555C232.506 125.972 238.385 118.495 251.34 130.028C268.012 144.889 272.506 185.866 249.41 209.318L34.4175 210.242C26.5015 208.874 -3.69403 186.115 11.9188 140.33Z" fill="#E8E1FF"/>
<path d="M197.675 190.225C204.295 179.088 211.925 168.584 220.469 158.845C221.76 162.987 223.927 166.804 226.822 170.035C228.066 166.139 222.873 160.325 224.655 156.648C225.407 155.103 251.861 140.337 272.157 136.844C270.973 151.699 268.012 165.985 261.322 180.888C258.699 179.36 254.17 179.775 251.547 178.247C253.365 182.362 256.805 184.168 258.06 186.578C247.77 198.123 232.879 210.414 228.036 212.179C217.912 215.867 206.935 213.363 197.071 210.071C191.807 208.295 190.511 207.969 192.103 202.475C193.438 198.173 195.31 194.058 197.675 190.225Z" fill="#FF5811"/>
<path d="M204.75 211.389C219.683 187.073 238.96 165.709 261.618 148.363C262.21 147.908 261.618 146.877 261.026 147.339C238.201 164.8 218.78 186.308 203.731 210.791C203.329 211.442 204.353 212.035 204.756 211.383L204.75 211.389Z" fill="#F4F0FF"/>
<path d="M205.377 187.524C208.198 190.854 209.86 195.009 210.114 199.366C210.114 199.656 210.375 199.999 210.706 199.958C218.293 198.982 225.956 198.737 233.59 199.224C234.353 199.271 234.347 198.087 233.59 198.039C226.639 197.601 219.907 198.116 212.98 198.495C211.422 198.578 211.476 198.72 211.103 197.311C210.819 195.896 210.461 194.497 210.031 193.119C209.135 190.772 207.841 188.597 206.206 186.689C205.715 186.097 204.88 186.944 205.366 187.53L205.377 187.524Z" fill="#F4F0FF"/>
<path d="M217.515 172.626C219.849 176.595 221.337 181.003 221.884 185.575C221.884 185.732 221.947 185.882 222.058 185.993C222.169 186.104 222.319 186.167 222.476 186.167C228.704 186.04 234.934 186.317 241.127 186.996C241.878 187.079 241.873 185.894 241.127 185.812C238.03 185.474 234.928 185.22 231.813 185.077C230.262 185.006 228.707 184.963 227.148 184.947C226.195 184.947 224.075 185.35 223.299 184.77C222.21 183.953 222.038 179.997 221.523 178.553C220.745 176.285 219.737 174.103 218.515 172.04C218.434 171.911 218.305 171.819 218.157 171.783C218.008 171.746 217.852 171.769 217.719 171.845C217.587 171.922 217.49 172.046 217.447 172.193C217.405 172.339 217.42 172.497 217.491 172.632L217.515 172.626Z" fill="#F4F0FF"/>
<path d="M233.116 158.348C234.652 161.808 235.636 165.488 236.029 169.254C236.026 169.346 236.044 169.438 236.083 169.522C236.122 169.606 236.18 169.68 236.253 169.738C236.325 169.795 236.41 169.835 236.501 169.854C236.592 169.873 236.685 169.87 236.775 169.846C243.722 167.831 250.787 166.249 257.93 165.109C258.681 164.991 258.362 163.848 257.616 163.966C250.473 165.108 243.408 166.69 236.461 168.703L237.213 169.295C236.799 165.323 235.762 161.44 234.14 157.791C233.832 157.092 232.808 157.696 233.116 158.383V158.348Z" fill="#F4F0FF"/>
<path d="M15.8383 170.731C22.0749 172.176 28.4539 172.917 34.8556 172.939C34.9482 172.943 35.0402 172.924 35.1243 172.885C35.2084 172.846 35.2822 172.788 35.3398 172.716C35.3974 172.643 35.4372 172.558 35.4559 172.467C35.4746 172.377 35.4718 172.283 35.4477 172.193C32.5347 164.65 29.2605 156.758 28.0764 148.765C27.9639 148.013 26.8212 148.333 26.9337 149.079C28.1178 157.072 31.3683 164.982 34.2872 172.483L34.8793 171.732C28.5843 171.718 22.3106 170.999 16.1758 169.588C15.4357 169.411 15.116 170.553 15.862 170.731H15.8383Z" fill="#F4F0FF"/>
<path d="M33.7188 192.136C37.739 192.569 41.7414 193.149 45.7852 193.32C49.3376 193.492 53.3637 193.676 56.6141 192.036C56.7492 191.956 56.8468 191.825 56.8857 191.673C56.9246 191.521 56.9014 191.36 56.8214 191.225C51.9605 182.48 49.5922 172.48 45.6076 163.326C45.3056 162.628 44.2813 163.231 44.5833 163.918C48.5679 173.078 50.9362 183.066 55.8326 191.817L56.0457 191.005C52.594 192.746 48.0114 192.296 44.2872 192.042C40.7348 191.799 37.2594 191.301 33.7484 190.923C32.9906 190.846 32.9965 192.03 33.7484 192.107L33.7188 192.136Z" fill="#F4F0FF"/>
<path d="M98.953 188.087C92.4402 183.943 86.0044 180.983 79.4858 176.838C70.8001 171.338 16.6495 140.343 20.7643 94.6588C21.4926 86.5653 26.0574 76.8968 33.926 74.9074C57.2121 68.9867 57.1648 98.4066 58.3903 104.76C61.2027 119.313 68.8048 132.587 78.1951 144.061C87.5853 155.535 98.7695 165.376 109.835 175.234C112.251 177.383 114.88 180.053 114.572 183.274C114.386 184.441 114.004 185.568 113.441 186.607C110.528 192.729 103.459 190.941 98.953 188.087Z" fill="#FF5811"/>
<path d="M34.8023 82.4177C34.0398 91.0456 35.2276 99.7345 38.2778 107.841C40.8112 114.658 43.9024 121.254 47.52 127.563C56.0029 142.194 66.9586 155.243 79.9002 166.13C88.2079 173.127 97.156 179.326 106.626 184.644C106.76 184.705 106.911 184.713 107.051 184.669C107.19 184.624 107.308 184.529 107.382 184.402C107.456 184.276 107.48 184.126 107.449 183.983C107.419 183.839 107.337 183.712 107.218 183.626C77.9464 167.048 53.2689 142.116 40.6283 110.606C39.154 106.918 37.6679 103.111 36.7857 99.2207C35.6016 93.7381 35.6016 87.9713 36.0101 82.4177C36.0693 81.6599 34.8852 81.6658 34.826 82.4177H34.8023Z" fill="#F4F0FF"/>
<path d="M24.1569 93.7824C28.254 97.8558 32.4459 101.604 37.4015 104.611C37.48 104.657 37.5679 104.684 37.6586 104.691C37.7493 104.697 37.8402 104.683 37.9244 104.649C38.0085 104.614 38.0836 104.561 38.1439 104.493C38.2042 104.425 38.2479 104.344 38.2719 104.256C39.9931 98.4666 42.8445 93.0756 46.6615 88.3945C47.147 87.8025 46.3122 86.9736 45.8207 87.5597C41.8697 92.3928 38.9156 97.9609 37.1292 103.942L37.9995 103.587C33.1386 100.627 29.0119 96.9381 24.974 92.9298C24.8607 92.8328 24.715 92.7821 24.566 92.7879C24.417 92.7936 24.2757 92.8554 24.1702 92.9608C24.0648 93.0663 24.003 93.2076 23.9972 93.3566C23.9915 93.5057 24.0422 93.6513 24.1392 93.7646L24.1569 93.7824Z" fill="#F4F0FF"/>
<path d="M27.0581 114.598C30.7289 116.374 34.3523 118.269 38.0173 120.075C39.7402 120.921 41.4572 121.78 43.2156 122.55C43.8787 122.84 44.8142 123.438 45.5839 123.349C45.7168 123.354 45.8475 123.314 45.9549 123.235C46.0623 123.157 46.1402 123.045 46.176 122.917C47.6502 116.789 49.2133 110.608 51.4335 104.705C51.7059 103.994 50.5573 103.686 50.2968 104.391C48.8048 108.346 47.6739 112.437 46.5845 116.516C46.1622 118.095 45.7556 119.674 45.3648 121.253C45.2701 121.626 45.1813 121.999 45.0866 122.378C45.0866 122.467 45.7142 122.449 45.1694 122.058C44.2577 121.401 42.8012 121.046 41.7651 120.56C40.1073 119.773 38.4613 118.956 36.8154 118.139C33.7721 116.617 30.7526 115.054 27.6916 113.568C27.0107 113.236 26.4068 114.261 27.0995 114.592L27.0581 114.598Z" fill="#F4F0FF"/>
<path d="M35.3589 133.787C41.9308 136.629 48.71 139.222 55.6787 140.891C55.7537 140.912 55.8321 140.918 55.9093 140.908C55.9865 140.899 56.0611 140.874 56.1287 140.835C56.1964 140.797 56.2557 140.745 56.3035 140.684C56.3512 140.622 56.3864 140.552 56.4069 140.477C57.9759 134.616 58.6449 128.588 59.0416 122.543C59.089 121.779 57.9049 121.785 57.8575 122.543C57.4667 128.464 56.8095 134.385 55.2642 140.163L55.9925 139.749C49.1265 137.997 42.4234 135.66 35.9569 132.762C35.2641 132.46 34.6602 133.479 35.3648 133.781L35.3589 133.787Z" fill="#F4F0FF"/>
<path d="M32.3097 160.78C31.2025 154.552 30.9243 147.63 34.53 142.426C37.5258 138.11 42.742 135.777 47.9344 134.96C51.9013 134.338 99.6576 130.454 101.41 132.195C103.026 133.806 108.041 136.772 110.048 145.114C112.458 155.126 119.758 197.838 117.698 206.784C112.002 208.205 57.5141 208.477 49.0179 208.56C48.6923 205.387 34.1214 170.928 32.3097 160.78Z" fill="#363C89"/>
<path d="M125.063 118.643C138.284 121.65 143.483 149.341 145.496 156.067C147.703 163.43 150.842 170.479 154.838 177.044C156.846 180.342 159.119 184.457 157.165 187.785C155.928 189.886 153.335 190.822 150.901 190.934C146.052 191.159 141.369 188.72 137.911 185.321C134.453 181.923 132.032 177.625 129.8 173.302C123.18 160.543 119.302 150.887 116.283 136.837C116.117 136.067 114.862 116.322 125.063 118.643Z" fill="#FF5811"/>
<path d="M153.826 193.824C155.513 195.546 162.707 196.429 163.299 196.014C162.671 192.26 158.983 194.392 158.527 191.497C159.646 190.715 160.978 190.952 162.079 190.952C163.039 190.952 163.938 191.805 164.341 192.835C164.933 194.392 164.726 194.877 164.969 196.535C165.211 198.193 166.863 199.365 166.863 198.311C166.863 196.399 166.863 193.439 166.863 191.526C167.331 193.226 167.669 198.631 169.96 198.104C170.522 195.529 169.332 193.255 169.32 190.62C169.972 192.858 169.96 198.104 172.281 197.358C172.375 194.954 171.481 192.527 171.576 190.123C172.091 192.243 172.908 196.837 174.175 196.097C174.56 193.782 173.927 191.361 173.429 189.046C173.121 187.654 173.198 186.304 172.186 185.298C171.564 184.706 162.778 182.977 159.16 183.19C156.857 183.326 153.938 182.977 152.488 184.125C146.84 188.607 151.931 191.887 153.826 193.824Z" fill="#FFBB8E"/>
<path d="M65.0985 145.533C68.1062 160.163 78.0352 162.034 79.9002 176.854C81.1377 186.747 76.9991 198.997 74.1868 208.559C97.0406 209.364 120.179 208.944 137.07 208.216C136.478 194.367 130.919 175.972 132.204 162.17C132.938 154.254 134.684 146.913 133.565 139.038C132.446 131.164 129.048 119.772 125.105 118.641C117.443 116.439 111.002 114.456 102.174 113.496C98.3195 113.076 87.0051 111.898 77.2359 113.271C71.1021 114.136 65.9037 115.284 63.7012 116.178C49.1126 122.087 62.4697 132.881 65.0985 145.533Z" fill="#ED7C2A"/>
<path d="M102.861 129.683C104.305 129.576 110.498 118.505 110.025 117.137C108.367 113.33 105.288 117.172 104.293 114.354C103.5 112.098 107.414 101.838 105.217 99.209C103.903 97.6341 90.7943 92.7732 88.4675 97.2078C87.3662 99.2978 83.2513 108.676 83.2513 111.115C83.2513 112.548 98.8464 129.979 102.861 129.683Z" fill="#EAA27A"/>
<path d="M114.613 184.138C115.454 185.126 116.982 188.495 117.899 191.343C118.218 192.644 118.471 193.96 118.657 195.286C116.289 196.435 115.43 190.656 114.613 189.028C114.371 190.804 114.714 197.477 114.086 197.418C111.795 196.826 112.044 191.846 112.215 189.443C111.969 190.996 111.595 192.527 111.096 194.019C110.617 195.582 110.054 197.057 109.32 197.82C107.852 197.578 108.835 192.971 109.101 190.917C108.41 193.434 107.402 195.854 106.099 198.116C104.619 198.116 104.749 195.979 105.223 194.765C105.697 193.552 106.875 192.06 106.182 190.952C106.324 192.018 104.163 193.552 103.127 193.842C102.091 194.132 99.1839 193.125 98.1537 192.829C93.2099 191.42 81.7593 191.923 83.2928 186.423C84.3348 182.652 89.1543 179.531 92.6238 180.058C95.673 180.52 99.9299 184.138 103.364 184.138C109.504 184.138 112.15 183.196 114.613 184.138Z" fill="#FFBB8E"/>
<path d="M98.5504 181.278C92.3514 177.767 66.5787 166.441 66.3241 165.884C65.4597 163.705 77.7333 143.125 78.5029 137.05C79.2726 130.976 79.1601 125.665 74.8203 121.355C69.0417 115.617 63.6598 116.192 63.6598 116.192C59.6515 117.595 58.5857 118.921 56.5549 120.928C53.6479 123.747 51.9664 127.565 50.3619 131.278C45.6253 142.243 40.8533 153.279 38.0469 164.889C37.2831 168.069 36.6792 171.485 37.8456 174.534C38.7187 176.563 40.099 178.333 41.8539 179.673C48.6863 185.334 57.9996 186.695 66.7918 187.838C75.9156 189.022 85.3769 191.675 94.5007 192.859C96.3598 193.072 100.516 182.415 98.5504 181.278Z" fill="#FF5811"/>
<path d="M77.153 113.941C77.153 116.363 79.0772 118.678 80.1134 120.875L85.2288 132.053L91.8008 123.45C94.9225 126.89 98.7854 129.574 103.097 131.301L109.208 123.397C110.044 125.876 111.143 128.257 112.488 130.502C113.672 124.687 114.696 118.068 111.132 113.302C110.281 112.175 109.215 111.228 107.995 110.517C106.776 109.805 105.427 109.343 104.027 109.157C102.961 112.71 105.371 116.381 105.341 120.087C105.341 123.101 103.707 125.842 102.138 128.412C100.097 127.121 98.1319 125.714 96.2532 124.196C95.2584 123.502 94.446 122.578 93.8849 121.502C93.4704 120.555 93.4231 119.459 92.8784 118.583C92.3337 117.707 91.3153 117.168 90.5101 116.481C87.1708 113.657 85.0453 108.192 85.0453 105.078C82.4402 105.102 77.1708 109.294 77.153 113.941Z" fill="#FF5811"/>
<path d="M103.086 134.096C106.372 149.49 109.439 165.168 108.521 181C108.473 181.757 109.658 181.757 109.705 181C110.629 165.067 107.532 149.288 104.228 133.782C104.068 133.036 102.926 133.35 103.086 134.096Z" fill="#FF5811"/>
<path d="M109.302 88.8131C108.912 91.2643 109.042 93.9286 110.404 96.0009C111.765 98.0731 114.619 99.2868 116.845 98.1974C119.705 96.7942 119.983 92.8688 119.634 89.6894C119.415 87.6941 119.042 85.61 117.858 83.9996C113.814 78.6414 109.954 84.7693 109.302 88.8131Z" fill="#4B4DF6"/>
<path d="M90.1193 99.452C92.5883 104.496 97.4018 108.517 102.961 109.322C105.164 109.641 107.544 109.422 109.379 108.138C110.57 107.236 111.564 106.099 112.298 104.798C115.861 99.1527 117.901 92.6804 118.219 86.012C118.456 80.7781 117.242 74.887 112.89 71.9563C109.587 69.736 105.312 69.7775 101.333 69.8959C99.2846 69.961 97.159 70.038 95.3295 70.9735C93.5 71.9089 92.1028 73.7207 90.8417 75.4495C86.2709 81.7254 86.7268 92.5307 90.1193 99.452Z" fill="#FFBB8E"/>
<path d="M102.399 101.591C103.223 102.384 104.26 102.922 105.383 103.138C106.506 103.354 107.668 103.241 108.728 102.811C109.421 102.527 109.119 101.378 108.408 101.668C107.551 102.038 106.603 102.148 105.684 101.985C104.764 101.822 103.912 101.393 103.234 100.751C102.677 100.23 101.842 101.064 102.399 101.591Z" fill="#E28E60"/>
<path d="M99.7938 78.2093C100.042 78.8928 100.225 79.5987 100.338 80.3171C100.557 81.0769 100.996 81.7551 101.599 82.2662C102.202 82.7774 102.943 83.0988 103.728 83.1899C104.514 83.2811 105.309 83.1379 106.013 82.7784C106.717 82.4189 107.299 81.8592 107.686 81.1697C107.893 80.6591 108.19 80.1898 108.562 79.7842C109.51 78.9849 110.99 79.6599 111.813 80.5894C112.636 81.519 113.157 82.9577 114.37 83.2419C117.858 84.0057 118.657 81.5664 119.202 79.3165C119.729 80.8973 123.394 80.3112 124.53 79.0738C125.667 77.8363 125.472 75.7996 124.53 74.4319C123.589 73.0642 122.008 72.2531 120.439 71.667C119.85 71.5 119.299 71.2205 118.817 70.844C117.189 69.3579 118.568 66.6344 118.077 64.4852C117.526 62.1169 114.317 60.9327 112.156 62.1169C110.546 62.9991 109.516 64.8167 107.769 65.391C107.716 64.9884 102.097 62.8037 102.032 64.3075C102.032 64.3075 99.6339 62.6379 95.8624 63.5911C94.0211 64.053 92.31 65.7285 92.31 67.6172C91.0836 67.2466 89.7672 67.3072 88.58 67.7889C86.8985 68.2862 85.3769 69.6717 85.1992 71.4124C85.2103 72.0396 85.1767 72.6668 85.0986 73.2892C84.7256 74.8641 82.7836 75.4148 82.3159 76.8416C81.6291 78.8724 82.5231 80.7256 82.8073 82.8808C83.275 86.3976 82.5468 89.4646 87.0524 89.1863C90.0424 89.0027 92.4225 90.4711 93.429 88.0021C93.8671 86.8121 96.6558 72.1288 99.7938 78.2093Z" fill="#241F3F"/>
<path d="M80.96 87.1334C80.5633 89.5786 80.889 92.835 82.2507 94.9072C83.6125 96.9795 86.4663 98.1932 88.6925 97.0979C91.5581 95.7006 91.8304 91.7693 91.4811 88.5958C91.262 86.5946 90.9186 84.5164 89.7049 82.906C85.6611 77.5478 81.6113 83.0896 80.96 87.1334Z" fill="#4B4DF6"/>
<path d="M87.532 82.9456C87.6149 77.9012 88.7753 72.1758 93.1034 69.0201C96.1466 66.7939 102.097 64.627 107.727 65.3967C106.837 64.5863 105.762 64.0069 104.595 63.7093C102.312 63.373 99.9847 63.494 97.7486 64.0652C95.5124 64.6364 93.4122 65.6465 91.5699 67.0367C86.6202 70.6779 85.1282 77.1019 85.0275 82.9456C85.0275 84.556 87.5024 84.556 87.532 82.9456Z" fill="#4B4DF6"/>
<path d="M86.1939 92.8172C87.1886 99.0577 92.4876 104.564 98.8701 105.144C99.6279 105.209 99.622 104.025 98.8701 103.96C92.9849 103.421 88.2424 98.1814 87.3366 92.5034C87.2182 91.7515 86.0755 92.0712 86.1939 92.8172Z" fill="#4B4DF6"/>
<path d="M103.648 104.099C103.648 104.65 103.485 105.188 103.179 105.645C102.873 106.103 102.439 106.459 101.93 106.67C101.422 106.881 100.862 106.936 100.322 106.828C99.7827 106.721 99.2869 106.456 98.8977 106.067C98.5085 105.678 98.2435 105.182 98.1361 104.642C98.0287 104.102 98.0838 103.543 98.2945 103.034C98.5051 102.526 98.8617 102.091 99.3194 101.785C99.777 101.48 100.315 101.316 100.865 101.316C101.603 101.316 102.311 101.61 102.833 102.131C103.355 102.653 103.648 103.361 103.648 104.099Z" fill="#4B4DF6"/>
<path d="M109.462 94.9476C109.621 96.1187 110.165 97.2038 111.008 98.0322C111.262 98.2868 111.564 98.571 111.534 98.9144C111.475 99.5065 110.575 99.6131 109.936 99.5065C108.641 99.2883 107.386 98.8793 106.212 98.2927C106.109 98.2442 106.014 98.1825 105.928 98.1092C105.807 97.9737 105.733 97.8039 105.714 97.6237C105.543 96.5994 106.076 95.6048 106.407 94.616C106.786 93.497 106.668 87.9671 108.574 88.3815C110.717 88.867 109.302 93.6746 109.462 94.9476Z" fill="#E28E60"/>
<path d="M82.0968 91.0638C82.0968 92.3308 82.2508 93.734 83.1922 94.5748C83.4707 94.7978 83.7933 94.9594 84.1387 95.0488C84.4842 95.1382 84.8446 95.1535 85.1964 95.0937C85.5482 95.0339 85.8833 94.9002 86.1797 94.7016C86.4761 94.503 86.7272 94.2438 86.9163 93.9413C87.2111 93.3073 87.3608 92.6155 87.3544 91.9164C87.536 90.1075 87.4643 88.2821 87.1413 86.493C86.8097 85.0129 85.9157 83.4083 84.4118 83.213C82.0258 82.911 82.0732 89.6547 82.0968 91.0638Z" fill="#737AFF"/>
<path d="M104.341 89.7684C104.341 90.7631 103.849 91.5446 103.245 91.5446C102.642 91.5446 102.15 90.7394 102.15 89.7684C102.15 88.7974 102.642 87.9922 103.245 87.9922C103.849 87.9922 104.341 88.7796 104.341 89.7684Z" fill="#241F3F"/>
<path d="M113.589 92.045C114.194 92.045 114.684 91.2418 114.684 90.251C114.684 89.2602 114.194 88.457 113.589 88.457C112.984 88.457 112.494 89.2602 112.494 90.251C112.494 91.2418 112.984 92.045 113.589 92.045Z" fill="#241F3F"/>
<path d="M100.332 86.1535C100.758 85.7073 101.306 85.3972 101.908 85.2623C102.51 85.1274 103.138 85.1738 103.713 85.3957C104.436 85.6562 104.743 84.5076 104.033 84.253C103.254 83.9762 102.412 83.929 101.607 84.1169C100.802 84.3047 100.068 84.7198 99.4918 85.3128C98.9589 85.8575 99.7996 86.6982 100.332 86.1535Z" fill="#241F3F"/>
<path d="M112.944 85.8513C113.84 85.9449 114.696 86.2738 115.424 86.8045C116.046 87.2426 116.638 86.2124 116.016 85.7802C115.105 85.1461 114.044 84.7623 112.938 84.6671C112.18 84.5961 112.186 85.7802 112.938 85.8513H112.944Z" fill="#241F3F"/>
<path d="M257.935 203.52H22.4873C19.6523 203.52 17.354 205.818 17.354 208.653V209.233C17.354 212.068 19.6523 214.366 22.4873 214.366H257.935C260.77 214.366 263.069 212.068 263.069 209.233V208.653C263.069 205.818 260.77 203.52 257.935 203.52Z" fill="#B7A5EF"/>
<path d="M216.005 180.998H133.062C132.3 180.997 131.547 180.836 130.852 180.526C130.156 180.215 129.533 179.762 129.024 179.195C128.515 178.628 128.131 177.961 127.896 177.236C127.662 176.512 127.582 175.746 127.662 174.988L132.76 127.238C132.902 125.905 133.532 124.671 134.529 123.775C135.526 122.878 136.819 122.383 138.16 122.383H221.103C221.864 122.383 222.617 122.543 223.313 122.853C224.009 123.162 224.631 123.615 225.14 124.181C225.65 124.748 226.034 125.415 226.269 126.139C226.503 126.863 226.583 127.629 226.502 128.386L221.405 176.143C221.262 177.475 220.631 178.708 219.635 179.604C218.638 180.5 217.345 180.997 216.005 180.998Z" fill="#4B4DF6"/>
<path d="M219.131 180.998H136.194C135.434 180.994 134.684 180.83 133.991 180.518C133.298 180.206 132.679 179.753 132.172 179.186C131.666 178.62 131.283 177.954 131.05 177.231C130.817 176.508 130.738 175.744 130.818 174.988L135.916 127.238C136.058 125.905 136.688 124.671 137.685 123.775C138.682 122.878 139.975 122.383 141.316 122.383H224.235C224.996 122.383 225.749 122.543 226.445 122.853C227.141 123.162 227.763 123.615 228.272 124.181C228.782 124.748 229.166 125.415 229.401 126.139C229.635 126.863 229.715 127.629 229.635 128.386L224.537 176.143C224.392 177.476 223.761 178.709 222.763 179.605C221.765 180.501 220.472 180.997 219.131 180.998Z" fill="#363C89"/>
<path d="M181.487 156.641H176.017C175.028 156.641 174.079 157.034 173.379 157.733C172.68 158.433 172.287 159.381 172.287 160.371V200.175H185.218V160.371C185.218 159.381 184.825 158.433 184.125 157.733C183.426 157.034 182.477 156.641 181.487 156.641Z" fill="#4B4DF6"/>
<path d="M198.983 200.188H157.266V203.527H198.983V200.188Z" fill="#363C89"/>
<path d="M162.695 200.188H113.589V203.527H162.695V200.188Z" fill="#4B4DF6"/>
<path d="M93.6244 196.031H88.9826C87.4688 196.031 86.0171 196.633 84.9467 197.703C83.8764 198.773 83.275 200.225 83.275 201.739C83.275 202.21 83.4622 202.662 83.7953 202.995C84.1284 203.328 84.5802 203.515 85.0512 203.515H97.4847C97.9558 203.515 98.4075 203.328 98.7407 202.995C99.0738 202.662 99.2609 202.21 99.2609 201.739C99.261 200.237 98.6694 198.796 97.6144 197.728C96.5593 196.66 95.1258 196.05 93.6244 196.031Z" fill="#4B4DF6"/>
<path d="M207.337 51.0437C206.846 47.7814 204.815 44.9394 204.057 41.7304C202.565 35.413 206.183 28.8825 205.395 22.4408C204.318 13.5598 194.146 7.49106 185.466 9.49818C181.849 10.333 179.587 11.1086 176.123 10.3567C165.94 8.1601 158.456 12.9795 156.419 18.5095C151.541 31.8133 158.947 33.9329 160.86 45.0519C161.665 49.753 154.347 57.4499 163.637 68.4209C166.769 72.1213 171.624 74.2824 176.461 75.129C175.425 77.4618 173.968 80.1439 172.316 81.4583C172.316 81.4583 178.942 79.6169 182.974 75.6915C194.59 75.8869 210.469 71.9023 207.337 51.0437Z" fill="#FF5811"/>
<path d="M190.955 53.6334L187.828 49.7495C187.401 49.2207 186.782 48.8826 186.106 48.8094C185.431 48.7361 184.753 48.9337 184.223 49.3587L183.281 50.1225C183.016 50.3359 182.677 50.4352 182.338 50.3986C181.999 50.362 181.689 50.1924 181.476 49.9271L177.592 45.1076L177.13 44.5156L173.252 39.7257C173.046 39.4628 172.951 39.1297 172.988 38.7978C173.024 38.4659 173.189 38.1615 173.447 37.9495L174.394 37.1858C174.656 36.9748 174.874 36.7143 175.035 36.4192C175.196 36.124 175.298 35.8 175.333 35.4657C175.369 35.1313 175.339 34.7932 175.243 34.4707C175.148 34.1481 174.991 33.8475 174.779 33.586L171.671 29.6606C171.46 29.3981 171.199 29.1797 170.904 29.018C170.608 28.8563 170.284 28.7543 169.949 28.718C169.614 28.6818 169.275 28.7118 168.952 28.8065C168.629 28.9012 168.328 29.0586 168.065 29.2698L167.041 30.0928C165.754 31.1295 164.931 32.6349 164.753 34.278C164.576 35.9211 165.058 37.5675 166.094 38.8554L168.527 41.8809L173.21 47.7009L173.672 48.293L178.361 54.113L180.795 57.1385C181.831 58.4256 183.337 59.2484 184.98 59.426C186.623 59.6036 188.269 59.1216 189.557 58.0858L190.582 57.2569C190.845 57.0444 191.064 56.7818 191.226 56.4842C191.388 56.1866 191.489 55.8599 191.524 55.5229C191.558 55.186 191.526 54.8456 191.428 54.5213C191.331 54.1969 191.17 53.8952 190.955 53.6334Z" fill="#4B4DF6"/>
<path d="M187.325 44.7735H187.219C187.142 44.7599 187.069 44.7314 187.003 44.6895C186.938 44.6477 186.881 44.5933 186.837 44.5295C186.792 44.4657 186.761 44.3938 186.744 44.3178C186.727 44.2418 186.725 44.1633 186.739 44.0867C187.177 41.6355 186.804 39.658 185.638 38.2193C183.654 35.7563 179.96 35.5787 179.918 35.5787C179.761 35.5787 179.611 35.5163 179.5 35.4053C179.389 35.2942 179.326 35.1436 179.326 34.9866C179.326 34.8296 179.389 34.679 179.5 34.5679C179.611 34.4569 179.761 34.3945 179.918 34.3945C180.09 34.3945 184.187 34.5662 186.52 37.4437C187.917 39.1666 188.367 41.4579 187.87 44.2702C187.85 44.4036 187.785 44.5262 187.686 44.6177C187.587 44.7092 187.46 44.7642 187.325 44.7735Z" fill="white"/>
<path d="M191.049 44.5818H190.99C190.835 44.5667 190.692 44.4912 190.592 44.3715C190.493 44.2518 190.444 44.0976 190.457 43.9423C191.452 33.3621 181.286 32.0299 180.854 32.0299C180.776 32.0211 180.702 31.9971 180.633 31.9592C180.565 31.9214 180.505 31.8705 180.457 31.8095C180.409 31.7484 180.373 31.6784 180.351 31.6034C180.33 31.5285 180.324 31.4501 180.333 31.3727C180.342 31.2953 180.366 31.2204 180.404 31.1523C180.441 31.0842 180.492 31.0242 180.553 30.9758C180.614 30.9274 180.684 30.8915 180.759 30.8702C180.834 30.8489 180.913 30.8426 180.99 30.8517C181.108 30.8517 192.743 32.3378 191.647 44.0726C191.627 44.2159 191.555 44.3468 191.445 44.4406C191.335 44.5344 191.194 44.5846 191.049 44.5818Z" fill="white"/>
<path d="M194.762 43.9469C194.605 43.9469 194.454 43.8846 194.343 43.7735C194.232 43.6625 194.17 43.5119 194.17 43.3549C194.093 31.2648 182.719 28.6242 182.233 28.5176C182.08 28.4836 181.947 28.3904 181.863 28.2583C181.779 28.1263 181.75 27.9661 181.783 27.8131C181.8 27.7368 181.831 27.6644 181.875 27.6002C181.919 27.536 181.976 27.4811 182.041 27.4387C182.107 27.3964 182.18 27.3674 182.256 27.3534C182.333 27.3394 182.412 27.3407 182.488 27.3572C182.612 27.3868 195.271 30.3175 195.354 43.343C195.354 43.5001 195.291 43.6507 195.18 43.7617C195.069 43.8727 194.919 43.9351 194.762 43.9351V43.9469Z" fill="white"/>
<path d="M61.5757 11.727C49.7047 20.3831 35.128 11.6678 27.3067 28.4767C24.08 35.3743 25.3588 42.0943 28.6034 49.5188C32.3748 58.1216 37.7331 61.5141 45.4714 61.9049C49.9475 62.1299 53.7012 60.1879 58.0529 57.5177C61.2145 59.4478 65.4833 61.4905 69.4384 61.5141C69.4384 61.5141 65.9807 59.0097 64.8794 53.3317C66.5254 52.3785 68.2898 51.4194 70.2081 50.5016C82.2922 44.7645 86.6084 49.9096 93.8908 41.1114C105.827 26.7005 86.3538 -6.3133 61.5757 11.727Z" fill="#FFB583"/>
<path d="M74.5301 19.8245L79.172 36.3077C79.2686 36.649 79.2874 37.0075 79.2269 37.357C79.1665 37.7064 79.0283 38.0378 78.8226 38.3267C78.5065 38.7664 78.052 39.0874 77.5319 39.2385L47.7153 47.6281C47.1976 47.7738 46.6454 47.7362 46.1523 47.5215C45.8264 47.3823 45.536 47.1717 45.3024 46.9053C45.0687 46.6388 44.8979 46.3234 44.8024 45.9822L40.1487 29.4989C40.0641 29.1988 40.0395 28.8849 40.0765 28.5753C40.1135 28.2657 40.2112 27.9664 40.3642 27.6947C40.5171 27.4229 40.7222 27.184 40.9677 26.9917C41.2131 26.7994 41.4942 26.6575 41.7946 26.5741L71.6112 18.1904C72.1321 18.0453 72.6865 18.0787 73.1862 18.2852C73.5109 18.4251 73.8002 18.636 74.0327 18.9024C74.2653 19.1688 74.4353 19.4839 74.5301 19.8245Z" fill="white"/>
<path d="M64.684 31.4883L78.8227 38.3267C78.5065 38.7664 78.052 39.0874 77.5319 39.2385L76.0399 39.6589L63.3696 33.5369L61.4869 36.4558C61.3307 36.7071 61.0861 36.8909 60.8011 36.9709C60.5162 37.0509 60.2117 37.0213 59.9475 36.888L56.8095 35.3782L49.2014 47.2196L46.1523 47.5215L54.6485 34.3184L40.498 27.48C40.8136 27.0384 41.2714 26.7186 41.7946 26.5741L43.2807 26.1538L60.0363 34.2592L70.1015 18.6049L71.5935 18.1904C72.1143 18.0453 72.6687 18.0787 73.1684 18.2852L64.684 31.4883Z" fill="#A4ADFF"/>
<path d="M145.65 32.454C144.406 30.3758 142.316 28.6647 142.002 26.2609C141.796 25.0912 141.904 23.8877 142.316 22.7736C143.722 19.5253 143.975 15.8944 143.035 12.4822C142.095 9.07005 140.018 6.0813 137.147 4.01097C132.381 0.458555 125.963 -0.394024 120.706 2.02162C112.742 5.6806 108.177 12.7321 112.127 24.0407C113.234 27.2023 114.708 30.358 114.72 33.7092C114.72 36.2965 112.89 42.6435 118.367 48.4458C119.855 50.0655 121.69 51.3284 123.734 52.1404C125.778 52.9523 127.979 53.2923 130.173 53.1349C130.7 54.7335 131.233 57.5103 130.641 61.5897C130.641 61.5897 135.922 57.1729 136.336 51.714C149.22 47.2735 147.574 35.6571 145.65 32.454Z" fill="#A4ADFF"/>
<path d="M126.62 36.7656C126.06 36.7656 125.522 36.9883 125.126 37.3847C124.729 37.7811 124.507 38.3187 124.507 38.8793C124.507 39.4399 124.729 39.9775 125.126 40.3739C125.522 40.7703 126.06 40.993 126.62 40.993C127.181 40.993 127.719 40.7703 128.115 40.3739C128.511 39.9775 128.734 39.4399 128.734 38.8793C128.734 38.3187 128.511 37.7811 128.115 37.3847C127.719 36.9883 127.181 36.7656 126.62 36.7656Z" fill="white"/>
<path d="M132.31 17.5645C130.877 16.1277 128.947 15.4093 126.52 15.4093C125.492 15.3651 124.466 15.5313 123.505 15.8978C122.544 16.2644 121.668 16.8235 120.931 17.5408C120.276 18.1854 119.74 18.9411 119.35 19.7729C118.704 21.1524 119.527 22.8398 120.895 23.0352C121.334 23.0827 121.775 22.9804 122.148 22.745C122.521 22.5096 122.804 22.1549 122.95 21.7386C123.179 21.1195 123.541 20.5578 124.009 20.0926C124.367 19.7496 124.79 19.4813 125.252 19.3034C125.715 19.1255 126.208 19.0416 126.703 19.0565C127.19 19.0315 127.677 19.1069 128.133 19.278C128.589 19.4491 129.006 19.7123 129.356 20.0512C129.671 20.3592 129.922 20.7277 130.091 21.1346C130.261 21.5415 130.347 21.9785 130.345 22.4194C130.348 23.076 130.152 23.718 129.782 24.2608C129.108 25.0619 128.369 25.8064 127.574 26.4869C126.563 27.3431 125.725 28.384 125.105 29.5539C124.881 30.2835 124.742 31.0364 124.69 31.7978C124.645 32.078 124.659 32.3644 124.73 32.639C124.802 32.9136 124.929 33.1704 125.105 33.393C125.281 33.6157 125.501 33.7994 125.752 33.9325C126.003 34.0655 126.278 34.1451 126.561 34.1661C127.032 34.1425 127.479 33.9499 127.819 33.6236C128.159 33.2974 128.371 32.8593 128.414 32.3899C128.445 32.0696 128.518 31.7549 128.633 31.4544C129.054 30.6781 129.619 29.9889 130.297 29.4236C131.592 28.3008 132.728 27.006 133.672 25.5752C134.196 24.6554 134.47 23.6142 134.465 22.5556C134.464 21.6208 134.273 20.6961 133.902 19.8379C133.532 18.9797 132.99 18.2062 132.31 17.5645Z" fill="white"/>
</g>
<defs>
<clipPath id="clip0_2_4799">
<rect width="271.594" height="221.351" fill="white" transform="translate(0.562958 0.648438)"/>
</clipPath>
</defs>
</svg>
