<svg width="326" height="290" viewBox="0 0 326 290" fill="none" xmlns="http://www.w3.org/2000/svg">
<g clip-path="url(#clip0_2_5027)">
<path d="M289.205 179.157H171.45C170.438 179.155 169.468 178.752 168.752 178.037C168.037 177.321 167.634 176.351 167.632 175.339V3.81767C167.634 2.80569 168.037 1.83565 168.752 1.12007C169.468 0.404493 170.438 0.00172252 171.45 0L289.205 0C290.217 0.00172252 291.187 0.404493 291.902 1.12007C292.618 1.83565 293.021 2.80569 293.022 3.81767V175.339C293.021 176.351 292.618 177.321 291.902 178.037C291.187 178.752 290.217 179.155 289.205 179.157ZM171.45 0.16287C170.481 0.164592 169.552 0.550203 168.867 1.23524C168.182 1.92027 167.797 2.84888 167.795 3.81767V175.339C167.797 176.308 168.182 177.237 168.867 177.922C169.552 178.607 170.481 178.992 171.45 178.994H289.205C290.174 178.994 291.104 178.609 291.789 177.923C292.474 177.238 292.859 176.308 292.859 175.339V3.81767C292.859 2.84836 292.474 1.91874 291.789 1.23334C291.104 0.547928 290.174 0.16287 289.205 0.16287H171.45Z" fill="#FFE6E6"/>
<path d="M153.417 179.157H35.6685C34.6554 179.157 33.6837 178.755 32.9667 178.039C32.2497 177.323 31.846 176.352 31.8443 175.339V3.81767C31.846 2.80456 32.2497 1.83354 32.9667 1.11777C33.6837 0.402008 34.6554 -1.47011e-06 35.6685 0L153.417 0C154.429 0 155.4 0.402218 156.116 1.11817C156.832 1.83412 157.235 2.80516 157.235 3.81767V175.339C157.235 176.352 156.832 177.323 156.116 178.039C155.4 178.755 154.429 179.157 153.417 179.157ZM35.6685 0.16287C34.6986 0.162868 33.7683 0.547718 33.0818 1.23294C32.3954 1.91816 32.0089 2.84776 32.0072 3.81767V175.339C32.0089 176.309 32.3954 177.239 33.0818 177.924C33.7683 178.609 34.6986 178.994 35.6685 178.994H153.417C153.897 178.994 154.372 178.899 154.815 178.716C155.259 178.532 155.662 178.263 156.001 177.923C156.341 177.584 156.61 177.181 156.793 176.738C156.977 176.294 157.072 175.819 157.072 175.339V3.81767C157.072 3.33771 156.977 2.86246 156.793 2.41904C156.61 1.97562 156.341 1.57272 156.001 1.23334C155.662 0.893956 155.259 0.624746 154.815 0.441075C154.372 0.257404 153.897 0.16287 153.417 0.16287H35.6685Z" fill="#FFE6E6"/>
<path d="M325.74 218.941H0V219.104H325.74V218.941Z" fill="#FFE6E6"/>
<path d="M44.1247 228.234H33.6619V228.397H44.1247V228.234Z" fill="#FFE6E6"/>
<path d="M145.853 226.469H110.979V226.632H145.853V226.469Z" fill="#FFE6E6"/>
<path d="M68.3923 234.285H44.7762V234.448H68.3923V234.285Z" fill="#FFE6E6"/>
<path d="M274.625 226.383H246.487V226.546H274.625V226.383Z" fill="#FFE6E6"/>
<path d="M284.553 226.383H280.429V226.546H284.553V226.383Z" fill="#FFE6E6"/>
<path d="M241.113 230.441H206.004V230.604H241.113V230.441Z" fill="#FFE6E6"/>
<path d="M184.799 24.1289H149.339V90.9837H184.799V24.1289Z" fill="#FFE6E6"/>
<path d="M183.066 24.1289H141.41V90.9837H183.066V24.1289Z" fill="white"/>
<path d="M176.707 30.0742H147.736V85.0526H176.707V30.0742Z" fill="white"/>
<path d="M141.41 24.1055C141.918 24.1055 147.736 30.047 147.736 30.047H176.714L183.066 24.1055H141.41Z" fill="#FFE6E6"/>
<path d="M183.066 90.9858C182.551 90.9858 176.733 85.0508 176.733 85.0508H147.756L141.41 90.9858H183.066Z" fill="#FFE6E6"/>
<path d="M167.958 44.3867H157.645V60.6802H167.958V44.3867Z" fill="#FFE6E6"/>
<path d="M304.742 11.3945H207.607V218.487H304.742V11.3945Z" fill="white"/>
<path d="M238.441 11.6099V218.331C238.451 218.389 238.481 218.441 238.525 218.479C238.57 218.517 238.627 218.538 238.686 218.538C238.744 218.538 238.801 218.517 238.846 218.479C238.891 218.441 238.921 218.389 238.93 218.331V11.6099C238.921 11.5519 238.891 11.4992 238.846 11.4612C238.801 11.4232 238.744 11.4023 238.686 11.4023C238.627 11.4023 238.57 11.4232 238.525 11.4612C238.481 11.4992 238.451 11.5519 238.441 11.6099Z" fill="#FFE6E6"/>
<path d="M273.211 11.7271V219.028C273.22 219.086 273.25 219.138 273.295 219.176C273.34 219.214 273.397 219.235 273.455 219.235C273.514 219.235 273.571 219.214 273.616 219.176C273.66 219.138 273.69 219.086 273.7 219.028V11.7271C273.69 11.6691 273.66 11.6164 273.616 11.5784C273.571 11.5404 273.514 11.5195 273.455 11.5195C273.397 11.5195 273.34 11.5404 273.295 11.5784C273.25 11.6164 273.22 11.6691 273.211 11.7271Z" fill="#FFE6E6"/>
<path d="M208.063 38.1644H303.909C303.967 38.1549 304.019 38.1251 304.057 38.0804C304.095 38.0356 304.116 37.9788 304.116 37.9201C304.116 37.8614 304.095 37.8046 304.057 37.7598C304.019 37.7151 303.967 37.6853 303.909 37.6758H208.063C208.005 37.6853 207.952 37.7151 207.914 37.7598C207.876 37.8046 207.855 37.8614 207.855 37.9201C207.855 37.9788 207.876 38.0356 207.914 38.0804C207.952 38.1251 208.005 38.1549 208.063 38.1644Z" fill="#FFE6E6"/>
<path d="M208.063 63.9808H303.909C303.967 63.9713 304.019 63.9415 304.057 63.8968C304.095 63.852 304.116 63.7952 304.116 63.7365C304.116 63.6778 304.095 63.621 304.057 63.5762C304.019 63.5315 303.967 63.5017 303.909 63.4922H208.063C208.005 63.5017 207.952 63.5315 207.914 63.5762C207.876 63.621 207.855 63.6778 207.855 63.7365C207.855 63.7952 207.876 63.852 207.914 63.8968C207.952 63.9415 208.005 63.9713 208.063 63.9808Z" fill="#FFE6E6"/>
<path d="M208.063 89.7933H303.909C303.967 89.7838 304.019 89.754 304.057 89.7093C304.095 89.6645 304.116 89.6077 304.116 89.549C304.116 89.4903 304.095 89.4335 304.057 89.3887C304.019 89.344 303.967 89.3142 303.909 89.3047H208.063C208.005 89.3142 207.952 89.344 207.914 89.3887C207.876 89.4335 207.855 89.4903 207.855 89.549C207.855 89.6077 207.876 89.6645 207.914 89.7093C207.952 89.754 208.005 89.7838 208.063 89.7933Z" fill="#FFE6E6"/>
<path d="M208.063 115.606H303.909C303.967 115.596 304.019 115.567 304.057 115.522C304.095 115.477 304.116 115.42 304.116 115.361C304.116 115.303 304.095 115.246 304.057 115.201C304.019 115.156 303.967 115.127 303.909 115.117H208.063C208.005 115.127 207.952 115.156 207.914 115.201C207.876 115.246 207.855 115.303 207.855 115.361C207.855 115.42 207.876 115.477 207.914 115.522C207.952 115.567 208.005 115.596 208.063 115.606Z" fill="#FFE6E6"/>
<path d="M208.063 141.422H303.909C303.967 141.413 304.019 141.383 304.057 141.338C304.095 141.293 304.116 141.237 304.116 141.178C304.116 141.119 304.095 141.062 304.057 141.018C304.019 140.973 303.967 140.943 303.909 140.934H208.063C208.005 140.943 207.952 140.973 207.914 141.018C207.876 141.062 207.855 141.119 207.855 141.178C207.855 141.237 207.876 141.293 207.914 141.338C207.952 141.383 208.005 141.413 208.063 141.422Z" fill="#FFE6E6"/>
<path d="M208.063 167.235H303.909C303.967 167.225 304.019 167.195 304.057 167.151C304.095 167.106 304.116 167.049 304.116 166.99C304.116 166.932 304.095 166.875 304.057 166.83C304.019 166.785 303.967 166.756 303.909 166.746H208.063C208.005 166.756 207.952 166.785 207.914 166.83C207.876 166.875 207.855 166.932 207.855 166.99C207.855 167.049 207.876 167.106 207.914 167.151C207.952 167.195 208.005 167.225 208.063 167.235Z" fill="#FFE6E6"/>
<path d="M208.063 193.047H303.909C303.967 193.038 304.019 193.008 304.057 192.963C304.095 192.918 304.116 192.862 304.116 192.803C304.116 192.744 304.095 192.687 304.057 192.643C304.019 192.598 303.967 192.568 303.909 192.559H208.063C208.005 192.568 207.952 192.598 207.914 192.643C207.876 192.687 207.855 192.744 207.855 192.803C207.855 192.862 207.876 192.918 207.914 192.963C207.952 193.008 208.005 193.038 208.063 193.047Z" fill="#FFE6E6"/>
<path d="M212.33 218.487L210.506 14.3327C210.506 14.3327 304.742 14.6845 304.742 14.3327V11.3945H207.607V218.487H212.33Z" fill="#FFE6E6"/>
<path opacity="0.3" d="M304.742 11.3945C304.742 11.3945 268.657 48.3725 263.263 48.594C257.869 48.8155 256.175 37.9944 245.673 45.1672C235.171 52.34 207.587 83.4221 207.587 83.4221V100.133C207.587 100.133 245.503 52.9589 251.68 55.0436C257.856 57.1284 258.481 68.4055 267.243 62.0014C276.006 55.5974 304.742 30.7304 304.742 30.7304V11.3945Z" fill="white"/>
<path opacity="0.3" d="M207.607 149.233C207.607 149.233 241.047 110.594 247.191 116.119C253.334 121.643 254.917 148.693 268.638 141.969C282.358 135.246 304.541 118.601 304.541 118.601V136.81C304.541 136.81 274.748 157.357 261.777 152.536C248.806 147.715 248.142 129.598 243.712 132.243C239.282 134.888 207.607 174.589 207.607 174.589V149.233Z" fill="white"/>
<path d="M121.788 10.3828H24.652V218.211H121.788V10.3828Z" fill="white"/>
<path d="M55.4865 10.5982V218.062C55.496 218.12 55.5258 218.172 55.5705 218.21C55.6153 218.248 55.6721 218.269 55.7308 218.269C55.7895 218.269 55.8463 218.248 55.8911 218.21C55.9358 218.172 55.9656 218.12 55.9751 218.062V10.5982C55.9656 10.5402 55.9358 10.4875 55.8911 10.4495C55.8463 10.4115 55.7895 10.3906 55.7308 10.3906C55.6721 10.3906 55.6153 10.4115 55.5705 10.4495C55.5258 10.4875 55.496 10.5402 55.4865 10.5982Z" fill="#FFE6E6"/>
<path d="M90.2559 10.7232V218.76C90.2654 218.818 90.2952 218.871 90.3399 218.909C90.3847 218.947 90.4415 218.968 90.5002 218.968C90.5589 218.968 90.6158 218.947 90.6605 218.909C90.7053 218.871 90.735 218.818 90.7445 218.76V10.7232C90.735 10.6652 90.7053 10.6125 90.6605 10.5745C90.6158 10.5365 90.5589 10.5156 90.5002 10.5156C90.4415 10.5156 90.3847 10.5365 90.3399 10.5745C90.2952 10.6125 90.2654 10.6652 90.2559 10.7232Z" fill="#FFE6E6"/>
<path d="M25.108 37.2503H120.954C121.012 37.2408 121.064 37.2111 121.102 37.1663C121.14 37.1215 121.161 37.0647 121.161 37.006C121.161 36.9473 121.14 36.8905 121.102 36.8457C121.064 36.801 121.012 36.7712 120.954 36.7617H25.108C25.05 36.7712 24.9974 36.801 24.9593 36.8457C24.9213 36.8905 24.9005 36.9473 24.9005 37.006C24.9005 37.0647 24.9213 37.1215 24.9593 37.1663C24.9974 37.2111 25.05 37.2408 25.108 37.2503Z" fill="#FFE6E6"/>
<path d="M25.108 63.1917H120.954C121.012 63.1822 121.064 63.1525 121.102 63.1077C121.14 63.063 121.161 63.0061 121.161 62.9474C121.161 62.8887 121.14 62.8319 121.102 62.7872C121.064 62.7424 121.012 62.7126 120.954 62.7031H25.108C25.05 62.7126 24.9974 62.7424 24.9593 62.7872C24.9213 62.8319 24.9005 62.8887 24.9005 62.9474C24.9005 63.0061 24.9213 63.063 24.9593 63.1077C24.9974 63.1525 25.05 63.1822 25.108 63.1917Z" fill="#FFE6E6"/>
<path d="M25.108 89.0628H120.954C121.012 89.0533 121.064 89.0236 121.102 88.9788C121.14 88.934 121.161 88.8772 121.161 88.8185C121.161 88.7598 121.14 88.703 121.102 88.6582C121.064 88.6135 121.012 88.5837 120.954 88.5742H25.108C25.05 88.5837 24.9974 88.6135 24.9593 88.6582C24.9213 88.703 24.9005 88.7598 24.9005 88.8185C24.9005 88.8772 24.9213 88.934 24.9593 88.9788C24.9974 89.0236 25.05 89.0533 25.108 89.0628Z" fill="#FFE6E6"/>
<path d="M25.108 114.973H120.954C121.012 114.963 121.064 114.934 121.102 114.889C121.14 114.844 121.161 114.787 121.161 114.729C121.161 114.67 121.14 114.613 121.102 114.568C121.064 114.524 121.012 114.494 120.954 114.484H25.108C25.05 114.494 24.9974 114.524 24.9593 114.568C24.9213 114.613 24.9005 114.67 24.9005 114.729C24.9005 114.787 24.9213 114.844 24.9593 114.889C24.9974 114.934 25.05 114.963 25.108 114.973Z" fill="#FFE6E6"/>
<path d="M25.108 140.875H120.954C121.012 140.866 121.064 140.836 121.102 140.791C121.14 140.747 121.161 140.69 121.161 140.631C121.161 140.572 121.14 140.515 121.102 140.471C121.064 140.426 121.012 140.396 120.954 140.387H25.108C25.05 140.396 24.9974 140.426 24.9593 140.471C24.9213 140.515 24.9005 140.572 24.9005 140.631C24.9005 140.69 24.9213 140.747 24.9593 140.791C24.9974 140.836 25.05 140.866 25.108 140.875Z" fill="#FFE6E6"/>
<path d="M25.108 166.778H120.954C121.012 166.768 121.064 166.738 121.102 166.694C121.14 166.649 121.161 166.592 121.161 166.533C121.161 166.475 121.14 166.418 121.102 166.373C121.064 166.328 121.012 166.299 120.954 166.289H25.108C25.05 166.299 24.9974 166.328 24.9593 166.373C24.9213 166.418 24.9005 166.475 24.9005 166.533C24.9005 166.592 24.9213 166.649 24.9593 166.694C24.9974 166.738 25.05 166.768 25.108 166.778Z" fill="#FFE6E6"/>
<path d="M25.108 192.688H120.954C121.012 192.678 121.064 192.649 121.102 192.604C121.14 192.559 121.161 192.502 121.161 192.444C121.161 192.385 121.14 192.328 121.102 192.283C121.064 192.239 121.012 192.209 120.954 192.199H25.108C25.05 192.209 24.9974 192.239 24.9593 192.283C24.9213 192.328 24.9005 192.385 24.9005 192.444C24.9005 192.502 24.9213 192.559 24.9593 192.604C24.9974 192.649 25.05 192.678 25.108 192.688Z" fill="#FFE6E6"/>
<path d="M29.3752 218.244L27.5511 13.3666C27.5511 13.3666 121.788 13.7184 121.788 13.3666V10.3828H24.652V218.244H29.3752Z" fill="#FFE6E6"/>
<path opacity="0.3" d="M121.788 10.3828C121.788 10.3828 85.7021 47.5171 80.3078 47.7191C74.9136 47.9211 73.2198 37.0804 62.7375 44.2988C52.2552 51.5172 24.652 82.684 24.652 82.684V99.4596C24.652 99.4596 62.542 52.1166 68.7441 54.1883C74.9462 56.26 75.526 67.5827 84.2884 61.1721C93.0508 54.7616 121.788 29.7643 121.788 29.7643V10.3828Z" fill="white"/>
<path opacity="0.3" d="M24.652 148.72C24.652 148.72 58.0924 109.937 64.2359 115.494C70.3793 121.051 71.9624 148.192 85.6826 141.436C99.4027 134.68 121.586 117.983 121.586 117.983V136.224C121.586 136.224 91.7934 156.837 78.829 152.003C65.8646 147.169 65.187 128.993 60.757 131.631C56.3269 134.27 24.652 174.134 24.652 174.134V148.72Z" fill="white"/>
<path d="M302.332 280.441C302.332 285.47 241.412 289.562 166.258 289.562C91.1029 289.562 30.1765 285.483 30.1765 280.441C30.1765 275.399 91.1029 271.32 166.258 271.32C241.412 271.32 302.332 275.412 302.332 280.441Z" fill="white"/>
<path d="M288.605 248.867C288.508 249.114 288.182 248.639 288.286 247.199C288.364 246.258 288.521 245.325 288.755 244.411C289.622 241.075 289.192 238.775 290.058 235.44C291.719 229.075 295.029 221.153 300.384 217.342C302.247 216.039 305.192 215.342 306.541 217.185C307.544 218.567 306.99 220.488 306.391 222.091C305.461 224.606 304.525 227.123 303.583 229.642C302.117 233.596 300.625 237.596 298.286 241.108C295.948 244.619 292.638 247.662 288.605 248.867Z" fill="#FF5811"/>
<g opacity="0.3">
<path d="M288.605 248.867C288.508 249.114 288.182 248.639 288.286 247.199C288.364 246.258 288.521 245.325 288.755 244.411C289.622 241.075 289.192 238.775 290.058 235.44C291.719 229.075 295.029 221.153 300.384 217.342C302.247 216.039 305.192 215.342 306.541 217.185C307.544 218.567 306.99 220.488 306.391 222.091C305.461 224.606 304.525 227.123 303.583 229.642C302.117 233.596 300.625 237.596 298.286 241.108C295.948 244.619 292.638 247.662 288.605 248.867Z" fill="white"/>
</g>
<path d="M285.589 259.786C286.234 256.765 287.157 253.81 288.345 250.958C289.146 249.004 290.039 247.05 290.996 245.095C291.954 243.141 293.107 241.232 294.065 239.232C295.765 235.746 297.062 232.066 298.508 228.495C299.108 226.939 299.793 225.417 300.56 223.935C301.066 223.093 301.62 222.282 302.221 221.505C303.407 219.844 304.547 218.15 305.707 216.469C305.883 216.215 305.459 215.967 305.283 216.228L302.078 220.854C301.596 221.557 301.049 222.215 300.606 222.951C299.83 224.288 299.153 225.679 298.579 227.114C297.042 230.763 295.752 234.509 294.091 238.105C292.286 242.014 290.058 245.662 288.377 249.616C286.956 252.849 285.865 256.217 285.12 259.669C285.055 259.975 285.53 260.105 285.589 259.799V259.786Z" fill="#263238"/>
<path d="M276.827 255.715C278.491 248.367 277.464 240.666 273.933 234.011C270.401 227.356 264.6 222.188 257.582 219.447C256.188 218.9 254.598 218.457 253.211 219.03C251.823 219.603 250.885 221.304 250.82 222.906C250.847 224.517 251.251 226.099 251.999 227.525C253.992 231.929 256.826 235.838 259.634 239.747C262.442 243.656 265.152 247.422 267.914 251.252C268.72 252.526 269.748 253.645 270.95 254.555C272.208 255.383 275.511 256.431 276.814 255.702" fill="#FF5811"/>
<g opacity="0.3">
<path d="M276.827 255.715C278.491 248.367 277.464 240.666 273.933 234.011C270.401 227.356 264.6 222.188 257.582 219.447C256.188 218.9 254.598 218.457 253.211 219.03C251.823 219.603 250.885 221.304 250.82 222.906C250.847 224.517 251.251 226.099 251.999 227.525C253.992 231.929 256.826 235.838 259.634 239.747C262.442 243.656 265.152 247.422 267.914 251.252C268.72 252.526 269.748 253.645 270.95 254.555C272.208 255.383 275.511 256.431 276.814 255.702" fill="white"/>
</g>
<path d="M283.876 236.092C285.582 234.216 287.068 227.323 287.035 226.163C286.905 221.603 287.485 222.991 287.361 218.404C287.113 209.648 284.188 198.541 278.371 191.993C276.358 189.72 272.735 187.954 270.436 189.941C268.716 191.433 268.866 194.098 269.133 196.352C269.589 199.9 270.047 203.446 270.507 206.99C271.23 212.567 271.967 218.196 273.947 223.46C275.928 228.724 279.296 233.649 284.175 236.431" fill="#FF5811"/>
<g opacity="0.3">
<path d="M283.876 236.092C285.582 234.216 287.068 227.323 287.035 226.163C286.905 221.603 287.485 222.991 287.361 218.404C287.113 209.648 284.188 198.541 278.371 191.993C276.358 189.72 272.735 187.954 270.436 189.941C268.716 191.433 268.866 194.098 269.133 196.352C269.589 199.9 270.047 203.446 270.507 206.99C271.23 212.567 271.967 218.196 273.947 223.46C275.928 228.724 279.296 233.649 284.175 236.431" fill="white"/>
</g>
<path d="M283.556 272.81C284.911 268.614 283.133 264.217 280.683 260.81C277.96 257.025 274.52 253.898 272.429 249.663C270.338 245.428 269.387 240.972 267.823 236.633C266.616 233.444 264.779 230.531 262.422 228.066C259.463 224.76 255.726 222.244 251.549 220.744C251.25 220.646 251.119 221.115 251.419 221.219C255.215 222.577 258.639 224.809 261.413 227.734C263.908 230.157 265.87 233.075 267.172 236.301C268.644 240.21 269.556 244.327 271.204 248.191C272.078 250.284 273.202 252.264 274.553 254.087C275.791 255.728 277.159 257.253 278.501 258.829C281.661 262.614 284.736 267.592 283.061 272.699C282.964 272.999 283.439 273.123 283.53 272.83L283.556 272.81Z" fill="#263238"/>
<path d="M287.302 274.132C286.788 267.989 285.85 261.897 285.146 255.773C284.775 252.555 284.495 249.324 284.312 246.086C284.143 242.646 284.227 239.206 284.136 235.76C283.952 228.992 283.13 222.256 281.68 215.642C280.946 212.281 280.049 208.958 278.99 205.675C278.048 202.607 276.908 199.604 275.576 196.684C274.371 194.143 273.015 191.668 271.739 189.166C271.595 188.886 271.172 189.134 271.315 189.414L274.983 196.58C276.074 198.881 277.008 201.254 277.778 203.681C278.89 206.886 279.845 210.144 280.644 213.453C282.246 220.078 283.21 226.841 283.524 233.649C283.68 237.095 283.576 240.535 283.687 243.982C283.791 247.239 284.038 250.496 284.377 253.715C285.094 260.523 286.188 267.285 286.762 274.113C286.762 274.425 287.276 274.425 287.25 274.113L287.302 274.132Z" fill="#263238"/>
<path d="M270.976 258.723H298.15C298.15 258.723 300.104 263.68 296.195 265.068L293.713 281.355H274.924L272.84 265.387C272.84 265.387 269.784 264.078 270.976 258.723Z" fill="#263238"/>
<path d="M295.908 264.879H272.97C272.912 264.888 272.859 264.918 272.821 264.963C272.783 265.008 272.762 265.064 272.762 265.123C272.762 265.182 272.783 265.239 272.821 265.283C272.859 265.328 272.912 265.358 272.97 265.368H295.895C295.953 265.358 296.006 265.328 296.044 265.283C296.082 265.239 296.103 265.182 296.103 265.123C296.103 265.064 296.082 265.008 296.044 264.963C296.006 264.918 295.953 264.888 295.895 264.879H295.908Z" fill="black"/>
<path d="M37.5839 246.827C37.6946 247.094 38.0399 246.586 37.9292 245.055C37.8473 244.055 37.6794 243.063 37.4275 242.091C36.5089 238.547 36.965 236.097 36.0464 232.56C34.2809 225.791 30.7629 217.374 25.069 213.322C23.1145 211.921 19.9614 211.198 18.5542 213.152C17.4857 214.625 18.0786 216.67 18.7105 218.364C19.7094 221.044 20.704 223.719 21.6943 226.39C23.2578 230.592 24.8409 234.86 27.3231 238.573C29.8052 242.286 33.3167 245.537 37.6099 246.821" fill="#FF5811"/>
<g opacity="0.3">
<path d="M37.5839 246.827C37.6946 247.094 38.0399 246.586 37.9292 245.055C37.8473 244.055 37.6794 243.063 37.4275 242.091C36.5089 238.547 36.965 236.097 36.0464 232.56C34.2809 225.791 30.7629 217.374 25.069 213.322C23.1145 211.921 19.9614 211.198 18.5542 213.152C17.4857 214.625 18.0786 216.67 18.7105 218.364C19.7094 221.044 20.704 223.719 21.6943 226.39C23.2578 230.592 24.8409 234.86 27.3231 238.573C29.8052 242.286 33.3167 245.537 37.6099 246.821" fill="white"/>
</g>
<path d="M41.2647 258.298C40.5669 255.023 39.5636 251.821 38.2679 248.734C37.4601 246.754 36.5784 244.799 35.6229 242.871C34.5545 240.714 33.3297 238.649 32.2678 236.493C30.3981 232.675 29.0104 228.675 27.3947 224.766C26.7831 223.194 26.085 221.656 25.3035 220.16C24.7632 219.226 24.1671 218.325 23.5184 217.463C22.2676 215.704 21.0624 213.913 19.8376 212.141C19.6617 211.886 19.2382 212.141 19.4141 212.388L22.8018 217.235C23.2774 217.919 23.8116 218.538 24.2546 219.261C25.1623 220.778 25.9445 222.366 26.5934 224.011C28.1374 227.698 29.4534 231.476 31.1082 235.086C32.9975 239.255 35.3884 243.157 37.206 247.366C38.7917 250.907 40.0035 254.603 40.8217 258.396C40.8804 258.702 41.3559 258.571 41.2908 258.265L41.2647 258.298Z" fill="#263238"/>
<path d="M50.0988 254.076C48.3272 246.269 49.4162 238.084 53.1678 231.012C56.9194 223.939 63.0845 218.447 70.5422 215.535C72.0276 214.955 73.7149 214.486 75.1872 215.092C76.7638 215.743 77.6629 217.509 77.7345 219.209C77.7028 220.922 77.2723 222.604 76.4772 224.121C74.3599 228.779 71.35 232.968 68.3663 237.118L59.5648 249.379C58.6987 250.734 57.5952 251.921 56.3074 252.884C55.0044 253.764 51.4604 254.878 50.0662 254.102" fill="#FF5811"/>
<g opacity="0.3">
<path d="M50.0988 254.076C48.3272 246.269 49.4162 238.084 53.1678 231.012C56.9194 223.939 63.0845 218.447 70.5422 215.535C72.0276 214.955 73.7149 214.486 75.1872 215.092C76.7638 215.743 77.6629 217.509 77.7345 219.209C77.7028 220.922 77.2723 222.604 76.4772 224.121C74.3599 228.779 71.35 232.968 68.3663 237.118L59.5648 249.379C58.6987 250.734 57.5952 251.921 56.3074 252.884C55.0044 253.764 51.4604 254.878 50.0662 254.102" fill="white"/>
</g>
<path d="M42.6002 233.232C40.7891 231.238 39.2125 223.916 39.2451 222.685C39.3819 217.811 38.763 219.31 38.8998 214.437C39.1604 205.134 42.2745 193.322 48.4505 186.365C50.5939 183.948 54.4441 182.071 56.8807 184.182C58.7113 185.765 58.555 188.599 58.2488 190.997L56.7829 202.306C56.0142 208.228 55.2324 214.215 53.1281 219.805C51.0239 225.395 47.4472 230.639 42.2549 233.59" fill="#FF5811"/>
<g opacity="0.3">
<path d="M42.6002 233.232C40.7891 231.238 39.2125 223.916 39.2451 222.685C39.3819 217.811 38.763 219.31 38.8998 214.437C39.1604 205.134 42.2745 193.322 48.4505 186.365C50.5939 183.948 54.4441 182.071 56.8807 184.182C58.7113 185.765 58.555 188.599 58.2488 190.997L56.7829 202.306C56.0142 208.228 55.2324 214.215 53.1281 219.805C51.0239 225.395 47.4472 230.639 42.2549 233.59" fill="white"/>
</g>
<path d="M43.4276 272.139C41.9162 267.468 44.1964 262.667 47.0108 258.999C48.4831 257.044 50.1509 255.298 51.6754 253.403C53.0905 251.663 54.3035 249.768 55.2911 247.754C57.3302 243.572 58.3986 239.05 59.9361 234.666C61.1337 231.236 63.0205 228.088 65.4802 225.415C68.6098 221.816 72.6087 219.077 77.0961 217.46C77.3892 217.363 77.2655 216.887 76.9658 216.991C73.0022 218.383 69.4067 220.658 66.4509 223.643C63.7884 226.168 61.6479 229.192 60.1511 232.542C58.3139 236.927 57.4214 241.663 55.5321 246.021C54.509 248.421 53.1774 250.676 51.5711 252.732C50.0597 254.653 48.3724 256.438 46.8609 258.367C43.8446 262.23 41.3234 267.299 42.9521 272.269C43.0498 272.563 43.5254 272.439 43.4276 272.139Z" fill="#263238"/>
<path d="M39.4927 273.681C40.0334 267.232 41.0172 260.828 41.7599 254.404C42.1442 251.055 42.4635 247.707 42.6394 244.339C42.8413 240.697 42.7631 237.062 42.8413 233.42C43.0001 226.145 43.8553 218.902 45.3951 211.791C46.1639 208.273 47.0955 204.798 48.19 201.367C49.1797 198.03 50.3965 194.765 51.8317 191.595C53.1347 188.911 54.5484 186.279 55.91 183.621C56.0533 183.341 55.6299 183.093 55.4865 183.373L51.5777 191.041C50.446 193.423 49.4753 195.878 48.6721 198.39C47.4538 201.875 46.4049 205.426 45.5384 209.015C43.8643 215.939 42.8414 223.003 42.483 230.117C42.2876 233.863 42.3983 237.609 42.2876 241.355C42.1833 244.801 41.9292 248.241 41.5709 251.674C40.8217 259.016 39.6165 266.306 39.0106 273.668C39.0106 273.981 39.4732 273.974 39.4992 273.668L39.4927 273.681Z" fill="#263238"/>
<path d="M56.3139 257.336H27.4338C27.4338 257.336 25.3231 262.606 29.5381 264.085L32.144 281.369H52.1184L54.3334 264.431C54.3334 264.431 57.5778 262.997 56.3139 257.336Z" fill="#263238"/>
<path d="M29.8117 264.352H54.177C54.235 264.342 54.2877 264.313 54.3257 264.268C54.3637 264.223 54.3846 264.166 54.3846 264.108C54.3846 264.049 54.3637 263.992 54.3257 263.947C54.2877 263.903 54.235 263.873 54.177 263.863H29.8117C29.7538 263.873 29.7011 263.903 29.6631 263.947C29.6251 263.992 29.6042 264.049 29.6042 264.108C29.6042 264.166 29.6251 264.223 29.6631 264.268C29.7011 264.313 29.7538 264.342 29.8117 264.352Z" fill="black"/>
<path d="M184.564 48.211C182.222 47.2981 179.674 47.0428 177.197 47.4727C174.72 47.9026 172.408 49.0013 170.51 50.6502C168.613 52.299 167.202 54.4352 166.43 56.8279C165.658 59.2205 165.555 61.7786 166.132 64.2255C166.709 66.6725 167.943 68.9152 169.702 70.7113C171.461 72.5075 173.678 73.7886 176.112 74.4163C178.547 75.0441 181.106 74.9944 183.514 74.2728C185.923 73.5513 188.088 72.1852 189.776 70.3222H193.919L192.323 66.2505C192.323 66.1788 192.388 66.1137 192.414 66.0355C193.733 62.6305 193.648 58.8413 192.176 55.4996C190.704 52.1578 187.967 49.5365 184.564 48.211Z" fill="#FF5811"/>
<path d="M163.984 58.6334C164.239 56.3934 165.045 54.2512 166.328 52.3974C167.611 50.5437 169.332 49.0358 171.339 48.0078" stroke="#FF5811" stroke-width="0.5" stroke-linecap="round" stroke-linejoin="round"/>
<path d="M173.202 47.1476C173.791 46.7997 174.445 46.5779 175.124 46.4961" stroke="#FF5811" stroke-width="0.5" stroke-linecap="round" stroke-linejoin="round"/>
<path d="M179.092 66.7494L172.772 62.0392L174.414 59.8372L178.655 62.9904L184.479 56.0391L186.59 57.8111L179.092 66.7494Z" fill="white"/>
<path d="M139.208 114.659C139.216 112.439 138.679 110.252 137.645 108.288L131.99 97.5253C130.576 97.3494 129.071 97.18 127.67 97.0562C123.016 96.7761 118.349 96.7891 113.696 97.0953C111.229 97.4807 108.837 98.2432 106.602 99.356C105.86 100.183 105.342 101.185 105.097 102.268C104.852 103.352 104.887 104.48 105.201 105.545C110.413 122.757 111.331 131.506 110.758 139.155C120.315 140.393 135.625 142.712 138.583 140.985C134.674 125.637 139.195 121.174 139.208 114.659Z" fill="#FF5811"/>
<path opacity="0.8" d="M139.208 114.659C139.216 112.439 138.679 110.252 137.645 108.288L131.99 97.5253C130.576 97.3494 129.071 97.18 127.67 97.0562C123.016 96.7761 118.349 96.7891 113.696 97.0953C111.229 97.4807 108.837 98.2432 106.602 99.356C105.86 100.183 105.342 101.185 105.097 102.268C104.852 103.352 104.887 104.48 105.201 105.545C110.413 122.757 111.331 131.506 110.758 139.155C120.315 140.393 135.625 142.712 138.583 140.985C134.674 125.637 139.195 121.174 139.208 114.659Z" fill="white"/>
<g opacity="0.3">
<path d="M122.511 124.549C124.066 124.365 125.546 123.776 126.803 122.843C128.06 121.909 129.051 120.662 129.677 119.227C129.736 120.145 129.555 121.062 129.151 121.889C128.748 122.716 128.137 123.424 127.377 123.943C125.729 125.09 124.152 124.81 122.485 124.549" fill="black"/>
</g>
<path d="M166.811 144.929C166.811 144.929 166.336 147.073 167.411 147.431C168.486 147.789 168.779 147.431 168.779 147.431C168.779 147.431 168.062 148.982 169.489 149.04C170.164 149.081 170.84 149.081 171.515 149.04C171.515 149.04 170.798 150.05 172.466 150.467C174.134 150.884 180.46 145.822 180.46 145.822L183.854 146.063L183.066 139.691C183.066 139.691 173.776 139.867 172.883 140.408C171.99 140.949 166.811 144.929 166.811 144.929Z" fill="#B97964"/>
<path d="M163.599 139.691C163.951 139.934 164.351 140.097 164.772 140.169C165.193 140.241 165.624 140.22 166.036 140.108C167.339 139.691 171.756 139.685 173.424 140.226C175.092 140.766 178.955 144.636 178.955 144.636C178.955 144.636 178.896 145.705 176.811 145.112C174.727 144.519 172.29 142.506 172.29 142.506C172.29 142.506 169.684 145.893 168.121 146.252C166.557 146.61 163.599 146.252 163.599 146.252V139.691Z" fill="#FFBAB3"/>
<path d="M180.343 147.637C180.526 147.623 180.701 147.553 180.843 147.437C180.985 147.32 181.088 147.162 181.137 146.985C181.268 146.412 178.883 142.92 178.088 143.363C177.294 143.806 178.616 146.366 178.616 146.366C178.616 146.366 176.499 144.321 175.704 145.063C174.909 145.806 177.411 148.047 177.411 148.047C177.411 148.047 175.039 145.799 174.375 146.64C173.71 147.48 175.248 149.448 175.248 149.448L173.658 150.243C173.658 150.243 176.264 151.923 177.092 150.777C177.443 150.328 177.738 149.838 177.971 149.317C177.971 149.317 179.567 149.578 179.873 148.783C180.18 147.988 180.343 147.637 180.343 147.637Z" fill="#FFBAB3"/>
<path d="M210.428 89.5306C210.011 89.928 204.721 90.6577 200.851 93.2115C200.851 93.2115 200.636 87.687 200.851 81.0679C201.066 74.4489 198.897 64.8526 208.382 63.2369C208.382 63.2369 215.21 58.1945 223.614 64.5008C232.018 70.8071 228.91 89.7977 227.477 94.332L210.428 89.5306Z" fill="#263238"/>
<path d="M211.294 67.6692C211.294 67.6692 205.372 77.2394 204.962 80.2819C202.792 81.9562 201.483 78.2818 201.789 73.4543C202.05 69.5064 204.317 65.3369 207.802 63.9688C212.708 62.0404 211.294 67.6692 211.294 67.6692Z" fill="#263238"/>
<path d="M219.366 84.4688L212.382 88.2473L210.949 89.661C211.303 90.6833 211.535 91.7439 211.639 92.8207C211.744 94.1562 210.506 95.1595 209.548 96.026C208.174 96.7166 210.851 103.049 210.851 103.049L219.907 93.6741C218.187 89.5307 218.617 86.1821 219.366 84.4688Z" fill="#B97964"/>
<path opacity="0.2" d="M211.659 93.2133C213.614 92.2621 215.855 90.5031 215.796 88.2686C215.781 87.4526 215.67 86.6413 215.464 85.8516L211.223 90.5552C211.46 91.4236 211.607 92.3145 211.659 93.2133Z" fill="black"/>
<path d="M222.35 74.7057C221.112 81.67 220.734 84.6342 216.806 88.0024C210.89 93.0774 202.675 90.5041 201.822 83.442C201.053 77.0771 203.203 66.7642 210.337 64.3993C217.366 62.054 223.581 67.7544 222.35 74.7057Z" fill="#B97964"/>
<path d="M212.701 76.7185C212.662 77.37 212.258 77.9172 211.796 77.9302C211.333 77.9433 210.988 77.409 211.021 76.751C211.053 76.0931 211.464 75.5523 211.926 75.5393C212.389 75.5263 212.734 76.0605 212.701 76.7185Z" fill="#263238"/>
<path d="M206.037 75.8857C206.037 76.5372 205.665 77.0714 205.203 77.1105C204.74 77.1496 204.369 76.6545 204.369 76.016C204.369 75.3776 204.74 74.8303 205.203 74.7912C205.665 74.7521 206.037 75.2473 206.037 75.8857Z" fill="#263238"/>
<path d="M214.675 74.5435C214.63 74.5438 214.585 74.5347 214.544 74.5167C214.502 74.4988 214.465 74.4724 214.434 74.4392C214.161 74.1199 213.812 73.874 213.42 73.7238C213.027 73.5736 212.603 73.5239 212.187 73.5793C212.144 73.5887 212.099 73.5889 212.056 73.5799C212.013 73.5709 211.972 73.5529 211.937 73.5271C211.901 73.5012 211.871 73.4682 211.849 73.43C211.827 73.3918 211.813 73.3495 211.809 73.3057C211.797 73.2137 211.821 73.1208 211.876 73.0457C211.93 72.9707 212.011 72.9192 212.102 72.9017C212.628 72.8233 213.165 72.8789 213.664 73.0634C214.163 73.2479 214.607 73.5553 214.956 73.9571C215.014 74.0277 215.042 74.1182 215.035 74.2094C215.028 74.3006 214.985 74.3854 214.916 74.4458C214.852 74.5085 214.765 74.5436 214.675 74.5435Z" fill="#263238"/>
<path d="M203.854 72.5828C203.776 72.5519 203.712 72.4909 203.678 72.4134C203.661 72.3716 203.652 72.3267 203.652 72.2813C203.652 72.2359 203.662 72.1911 203.68 72.1496C203.699 72.1081 203.725 72.0708 203.759 72.04C203.792 72.0091 203.831 71.9855 203.874 71.9704C204.38 71.7339 204.933 71.6174 205.491 71.6298C206.05 71.6422 206.597 71.7833 207.092 72.042C207.13 72.0656 207.162 72.0966 207.186 72.1333C207.211 72.1699 207.228 72.2112 207.236 72.2547C207.244 72.2982 207.243 72.3429 207.233 72.3859C207.223 72.4289 207.204 72.4693 207.177 72.5046C207.122 72.5801 207.041 72.6326 206.949 72.6518C206.858 72.6711 206.763 72.6557 206.682 72.6088C206.285 72.4144 205.85 72.3133 205.408 72.3133C204.967 72.3133 204.531 72.4144 204.134 72.6088C204.041 72.6365 203.941 72.6272 203.854 72.5828Z" fill="#263238"/>
<path d="M204.747 66.2023C206.382 63.1859 212.565 60.6061 219.392 63.9286C229.614 67.9417 223.822 84.5545 220.865 81.069C220.12 80.1947 219.441 79.2672 218.832 78.2937C215.512 72.9046 210.596 68.6831 204.766 66.2153L204.747 66.2023Z" fill="#263238"/>
<path d="M223.985 80.5992C223.565 81.2132 223.027 81.7382 222.403 82.144C221.779 82.5498 221.082 82.8285 220.35 82.9641C218.454 83.2768 217.744 80.2083 218.539 78.4037C218.907 77.5903 219.554 76.9353 220.363 76.5566C221.171 76.178 222.089 76.1006 222.949 76.3386C224.695 76.8728 225.073 79.0357 223.985 80.5992Z" fill="#B97964"/>
<path d="M208.063 75.4336C207.307 76.8783 206.403 78.2407 205.366 79.4988C205.311 79.5627 205.271 79.6385 205.251 79.7203C205.23 79.802 205.229 79.8875 205.247 79.9698C205.266 80.052 205.303 80.1289 205.357 80.1942C205.41 80.2595 205.478 80.3114 205.555 80.3457C206.151 80.5796 206.8 80.645 207.431 80.5347L208.063 75.4336Z" fill="#A24E3F"/>
<path d="M212.07 75.525L210.454 75.1406C210.454 75.1406 211.333 76.3459 212.07 75.525Z" fill="#263238"/>
<path d="M205.437 74.8101L203.802 74.5234C204.564 75.442 205.216 75.0902 205.437 74.8101Z" fill="#263238"/>
<path opacity="0.2" d="M221.503 78.027C221.781 77.9483 222.079 77.9794 222.335 78.114C222.591 78.2486 222.785 78.4763 222.878 78.7501C223.086 79.356 222.695 80.7046 220.845 81.0694" stroke="black" stroke-width="0.5" stroke-linecap="round" stroke-linejoin="round"/>
<path d="M206.675 82.8007C207.085 83.5539 207.44 84.3355 207.737 85.1395L208.18 85.0548C210.193 84.6378 210.988 83.7518 211.262 82.957C211.387 82.5521 211.412 82.1228 211.333 81.7062C211.301 81.4672 211.233 81.2344 211.131 81.0156C210.2 81.8756 208.356 82.4033 207.359 82.6443C206.942 82.7355 206.675 82.8007 206.675 82.8007Z" fill="#263238"/>
<path d="M207.359 82.6456L207.685 83.2971C209.581 82.8997 210.864 82.372 211.333 81.6749C211.301 81.4359 211.233 81.2032 211.131 80.9844C210.2 81.8769 208.356 82.4046 207.359 82.6456Z" fill="white"/>
<path d="M208.18 85.0548C210.193 84.6378 210.988 83.7518 211.262 82.957C210.499 83.1297 209.774 83.4363 209.118 83.8626C208.687 84.15 208.358 84.5677 208.18 85.0548Z" fill="#FF4749"/>
<path d="M222.578 83.3879C222.578 83.7319 222.476 84.0682 222.285 84.3543C222.094 84.6403 221.822 84.8633 221.504 84.9949C221.186 85.1266 220.837 85.161 220.499 85.0939C220.162 85.0268 219.852 84.8611 219.608 84.6179C219.365 84.3746 219.2 84.0647 219.132 83.7272C219.065 83.3898 219.1 83.0401 219.231 82.7222C219.363 82.4044 219.586 82.1327 219.872 81.9416C220.158 81.7505 220.494 81.6484 220.838 81.6484C221.067 81.6476 221.294 81.692 221.505 81.7791C221.717 81.8662 221.909 81.9943 222.07 82.156C222.232 82.3177 222.36 82.5098 222.447 82.7212C222.534 82.9327 222.579 83.1592 222.578 83.3879Z" fill="#FF5811"/>
<g opacity="0.2">
<path d="M208.122 65.1085C213.679 70.1813 220.311 73.9318 227.523 76.0794C227.585 76.0967 227.651 76.0885 227.708 76.0568C227.764 76.025 227.805 75.9722 227.822 75.91C227.84 75.8478 227.831 75.7813 227.8 75.7251C227.768 75.6689 227.715 75.6276 227.653 75.6103C220.526 73.4812 213.971 69.7737 208.473 64.7632C208.239 64.5482 207.894 64.8935 208.128 65.1085H208.122Z" fill="white"/>
</g>
<g opacity="0.2">
<path d="M208.063 64.8473C213.183 68.9972 219.388 71.5887 225.939 72.3132C226.252 72.3132 226.252 71.8572 225.939 71.8246C219.517 71.1096 213.434 68.5658 208.415 64.4955C208.167 64.3 207.822 64.6453 208.063 64.8408V64.8473Z" fill="white"/>
</g>
<path d="M163.196 204.875L164.479 207.891L205.04 213.11L205.555 210.002L163.196 204.875Z" fill="#FF5811"/>
<path opacity="0.2" d="M163.196 204.875L164.479 207.891L205.04 213.11L205.555 210.002L163.196 204.875Z" fill="black"/>
<path d="M181.17 176.004C181.17 176.004 183.652 170.141 188.206 170.441C192.76 170.74 194.343 177.737 194.343 177.737L191.783 177.353C191.783 177.353 191.6 172.083 188.375 171.926C185.15 171.77 183.027 176.487 183.027 176.487L181.502 176.017" fill="#263238"/>
<path d="M163.196 204.877L163.867 201.209L168.753 174.668L207.607 178.85L205.555 210.004L163.196 204.877Z" fill="#FF5811"/>
<path d="M187.437 163.097C186.916 163.391 184.473 167.769 184.043 168.961C183.613 170.153 183.678 170.876 184.225 171.156C184.631 171.395 185.07 171.571 185.528 171.677C185.678 171.677 185.216 172.889 186.18 173.28C187.144 173.671 187.567 173.482 187.567 173.482C187.567 173.482 187.652 175.156 188.87 175.397C190.089 175.638 190.453 175.019 190.655 175.059C190.857 175.098 191.502 173.019 191.502 173.019L193.177 174.772C193.553 174.163 193.844 173.505 194.043 172.817C194.427 171.593 193.795 168.446 193.795 168.446L192.668 165.742L192.909 161.508C192.909 161.508 187.887 161.762 187.874 161.879C187.861 161.996 187.437 163.097 187.437 163.097Z" fill="#B97964"/>
<path opacity="0.2" d="M168.733 174.668C168.733 174.668 173.945 190.082 184.877 189.209C195.809 188.336 207.587 178.85 207.587 178.85" fill="black"/>
<path opacity="0.2" d="M188.962 176.844C188.962 176.844 183.463 199.717 183.007 204.317C182.551 208.916 183.763 210.375 183.763 210.375L195.196 212.141L198.415 177.736L188.962 176.844Z" fill="black"/>
<path d="M234.533 271.248L233.803 272.317L232.304 271.665L231.366 276.284L225.047 285.118C225.047 285.118 222.636 285.509 224.532 280.486C224.624 280.239 224.692 279.984 224.734 279.724C225.295 276.721 224.083 270.968 224.083 270.968L227.555 266.121C227.883 266.131 228.21 266.166 228.532 266.225C229.972 266.453 232.819 267.157 234.533 271.248Z" fill="#263238"/>
<path opacity="0.2" d="M234.533 271.248L233.803 272.317L232.304 271.665L231.366 276.284L225.047 285.118C225.047 285.118 222.636 285.509 224.532 280.486C224.624 280.239 224.692 279.984 224.734 279.724C225.295 276.721 224.083 270.968 224.083 270.968L227.555 266.121C227.883 266.131 228.21 266.166 228.532 266.225C229.972 266.453 232.819 267.157 234.533 271.248Z" fill="black"/>
<path d="M228.506 266.22C227.34 266.344 228.363 271.517 227.894 274.422C227.471 277.028 226.357 279.452 224.721 279.706C225.282 276.703 223.255 269.862 223.255 269.862L226.044 265.953C226.044 265.953 227.888 266.116 228.506 266.22Z" fill="#A24E3F"/>
<path d="M224.878 284.786H223.575L223.216 283.183L218.949 285.138H208.154C208.154 285.138 206.441 283.392 211.587 282.004C211.839 281.933 212.083 281.839 212.317 281.724C215.06 280.421 218.962 276.043 218.962 276.043H224.897C225.085 276.311 225.256 276.589 225.412 276.877C226.063 278.18 227.145 280.968 224.878 284.786Z" fill="#263238"/>
<path d="M225.412 276.878C224.63 275.998 221.067 279.862 218.461 281.178C216.128 282.35 213.509 282.865 212.35 281.679C215.092 280.376 219.451 274.422 219.451 274.422L224.213 274.565C224.213 274.565 225.099 276.331 225.412 276.878Z" fill="#B97964"/>
<path d="M214.07 229.026C211.125 221.521 207.555 214.146 203.196 208.178C220.884 161.239 220.33 140.242 220.33 140.242H199.033L196.747 148.066C196.747 148.066 191.424 167.611 189.874 178.829L185.431 203.768V203.84C185.133 209.044 186.379 214.221 189.014 218.719C191.906 223.697 197.027 229.606 199.835 234.967C203.535 242.049 207.001 249.143 209.998 255.489C213.138 262.18 215.698 268.03 217.288 272.095C218.799 272.251 223.353 269.717 224.663 267.424C224.676 267.424 221.451 247.847 214.07 229.026Z" fill="#263238"/>
<path opacity="0.2" d="M207.392 196.617C209.998 187.991 212.604 182.115 213.907 175.704C213.907 174.212 209.249 168.779 206.74 166.199C206.727 166.199 203.685 178.427 207.392 196.617Z" fill="black"/>
<path opacity="0.2" d="M210.011 255.49C213.151 262.181 215.711 268.031 217.301 272.097C218.812 272.253 223.366 269.719 224.676 267.426C224.676 267.426 221.451 247.849 214.07 229.027C212.571 236.799 210.89 246.617 210.011 255.49Z" fill="black"/>
<path d="M204.408 140.668C204.408 140.668 212.519 192.513 213.457 204.188C213.457 204.188 218.467 260.814 217.568 275.049L228.741 275.551C228.741 275.551 236.253 232.664 232.454 205.139C232.122 201.549 235.581 178.148 236.129 168.825C237.432 146.401 227.607 140.238 227.607 140.238L204.408 140.668Z" fill="#263238"/>
<path d="M202.506 98.6797C201.047 99.0209 199.696 99.7228 198.579 100.721C197.461 101.719 196.612 102.982 196.108 104.393C194.805 107.787 190.134 153.254 186.668 162.114L194.825 163.521L205.548 115.566L202.506 98.6797Z" fill="#263238"/>
<path opacity="0.3" d="M202.506 98.6797C201.047 99.0209 199.696 99.7228 198.579 100.721C197.461 101.719 196.612 102.982 196.108 104.393C194.805 107.787 190.134 153.254 186.668 162.114L194.825 163.521L205.548 115.566L202.506 98.6797Z" fill="black"/>
<path d="M224.676 148.152C225.295 141.09 228.142 123.435 232.461 109.845C233.868 105.422 230.239 99.0959 230.239 99.0959C230.239 99.0959 226.852 99.0959 226.259 99.0112C225.666 98.9265 224.956 98.8679 224.265 98.8093C222.93 98.6985 220.005 95.2522 219.366 90.5681C219.288 89.9817 215.503 92.3922 211.164 92.7245C211.711 94.6789 208.558 96.1968 207.822 98.4119C207.457 98.451 204.408 98.679 204.05 98.7116C204.05 98.7116 197.587 106.282 197.235 111.624C197.046 114.608 195.607 115.891 195.763 123.031C195.796 127.878 197.568 141.077 197.887 147.892L224.676 148.152Z" fill="#FF5811"/>
<g opacity="0.7">
<path d="M224.676 148.152C225.295 141.09 228.142 123.435 232.461 109.845C233.868 105.422 230.239 99.0959 230.239 99.0959C230.239 99.0959 226.852 99.0959 226.259 99.0112C225.666 98.9265 224.956 98.8679 224.265 98.8093C222.93 98.6985 220.005 95.2522 219.366 90.5681C219.288 89.9817 215.503 92.3922 211.164 92.7245C211.711 94.6789 208.558 96.1968 207.822 98.4119C207.457 98.451 204.408 98.679 204.05 98.7116C204.05 98.7116 197.587 106.282 197.235 111.624C197.046 114.608 195.607 115.891 195.763 123.031C195.796 127.878 197.568 141.077 197.887 147.892L224.676 148.152Z" fill="white"/>
</g>
<path opacity="0.2" d="M211.223 139.688L217.438 167.826C217.552 168.332 217.849 168.779 218.272 169.08C218.696 169.38 219.215 169.514 219.731 169.455L236.253 167.5V164.64L221.738 134.359L211.223 139.688Z" fill="black"/>
<path d="M228.096 131.898L233.705 108.64C234.878 98.9913 224.676 97.0303 224.676 97.0303L219.985 96.457C219.985 96.457 213.561 112.887 213.118 127.363C212.675 141.839 221.229 167.103 221.229 167.103L239.966 165.149L228.096 131.898Z" fill="#263238"/>
<path opacity="0.3" d="M228.096 131.898L233.705 108.64C234.878 98.9913 224.676 97.0303 224.676 97.0303L219.985 96.457C219.985 96.457 213.561 112.887 213.118 127.363C212.675 141.839 221.229 167.103 221.229 167.103L239.966 165.149L228.096 131.898Z" fill="black"/>
<path d="M209.666 96.0742C209.666 96.0742 201.092 106.993 198.779 115.195C197.255 120.596 200.258 136.14 199.906 140.258C199.333 147.033 196.336 155.333 192.454 167.483L189.887 167.118L196.962 140.218C196.962 140.218 193.704 119.951 194.558 114.882C195.411 109.814 202.506 98.6801 202.506 98.6801L205.841 97.6182L209.666 96.0742Z" fill="#263238"/>
<path opacity="0.3" d="M209.666 96.0742C209.666 96.0742 201.092 106.993 198.779 115.195C197.255 120.596 200.258 136.14 199.906 140.258C199.333 147.033 196.336 155.333 192.454 167.483L189.887 167.118L196.962 140.218C196.962 140.218 193.704 119.951 194.558 114.882C195.411 109.814 202.506 98.6801 202.506 98.6801L205.841 97.6182L209.666 96.0742Z" fill="black"/>
<path opacity="0.3" d="M191.007 162.848L196.962 140.216L194.343 121.727L193.984 141.603L188.962 162.503L189.887 162.659" fill="black"/>
<path d="M198.558 124.433C198.558 124.433 196.981 119.794 197.255 115.508C197.529 111.221 197.613 108.022 197.613 108.022L202.473 104.432L201.822 100.048C201.822 100.048 204.167 98.6082 206.343 97.1358C207.835 96.126 210.604 94.1455 210.982 94.2628C210.982 94.2628 198.721 110.433 198.656 116.863C198.623 123.039 198.558 124.433 198.558 124.433Z" fill="#263238"/>
<path d="M224.852 96.5637C224.852 96.5637 221.379 94.036 219.861 92.8047C219.861 92.8047 213.659 108.167 213.887 121.737L224.018 107.456L221.503 103.32L224.852 96.5637Z" fill="#263238"/>
<path opacity="0.2" d="M189.659 148.439C189.659 148.439 212.382 146.328 214.871 143.357C217.36 140.387 228.063 125.116 228.65 117.383L208.122 139.689L189.88 145.774L189.659 148.439Z" fill="black"/>
<path d="M182.453 138.282L206.278 131.767C206.278 131.767 222.109 100.874 225.51 98.4764C228.91 96.0789 235.08 101.675 233.549 107.2C232.506 110.978 216.819 139.774 213.385 142.217C209.952 144.66 183.717 147.266 183.717 147.266L182.453 138.282Z" fill="#263238"/>
<path opacity="0.3" d="M182.453 138.282L206.278 131.767C206.278 131.767 222.109 100.874 225.51 98.4764C228.91 96.0789 235.08 101.675 233.549 107.2C232.506 110.978 216.819 139.774 213.385 142.217C209.952 144.66 183.717 147.266 183.717 147.266L182.453 138.282Z" fill="black"/>
<path d="M106.295 150.719C100.706 161.794 106.374 172.869 106.374 172.869C103.481 180.739 102.387 191.632 101.989 199.873C101.67 206.7 102.256 208.779 101.813 211.71C101.305 215.039 98.9337 219.469 97.9695 223.6C95.3827 235.421 93.8004 247.441 93.2397 259.529L92.9922 261.809L92.5361 269.581L97.0313 271.119L98.8229 263.77L99.3702 261.509H99.4288L115.006 212.805L129.455 151.403L106.295 150.719Z" fill="#FFBAB3"/>
<path opacity="0.3" d="M106.295 150.719C100.706 161.794 106.374 172.869 106.374 172.869C103.481 180.739 102.387 191.632 101.989 199.873C101.67 206.7 102.256 208.779 101.813 211.71C101.305 215.039 98.9337 219.469 97.9695 223.6C95.3827 235.421 93.8004 247.441 93.2397 259.529L92.9922 261.809L92.5361 269.581L97.0313 271.119L98.8229 263.77L99.3702 261.509H99.4288L115.006 212.805L129.455 151.403L106.295 150.719Z" fill="black"/>
<path d="M101.259 281.842C100.689 281.069 99.9828 280.407 99.1747 279.888C99.1747 279.888 97.2202 276.63 97.9694 268.441L94.7511 266.662C94.2039 266.372 93.5808 266.256 92.9657 266.331C92.3507 266.405 91.7732 266.667 91.3113 267.079C91.1815 267.197 91.0696 267.333 90.9791 267.483C90.5925 268.266 90.2573 269.074 89.9758 269.9C89.0502 272.721 88.2953 275.595 87.7151 278.506L88.3275 278.689L89.9562 273.347C90.4905 271.523 91.383 274.05 91.2592 276.122C91.1354 278.194 91.4677 280.572 95.4743 281.666C100.158 282.982 102.158 283.288 101.259 281.842Z" fill="#263238"/>
<path d="M98.0737 265.49C98.0737 265.49 97.8847 269.268 98.0737 273.549C98.0431 275.719 98.4302 277.876 99.2138 279.9C99.2138 279.9 96.0541 279.666 95.3049 277.295C94.5557 274.923 94.5036 267.522 91.3504 267.125C91.7207 266.68 92.1379 266.276 92.5947 265.92C93.2658 265.359 98.0737 265.49 98.0737 265.49Z" fill="#FFBAB3"/>
<path opacity="0.3" d="M98.0737 265.49C98.0737 265.49 97.8847 269.268 98.0737 273.549C98.0431 275.719 98.4302 277.876 99.2138 279.9C99.2138 279.9 96.0541 279.666 95.3049 277.295C94.5557 274.923 94.5036 267.522 91.3504 267.125C91.7207 266.68 92.1379 266.276 92.5947 265.92C93.2658 265.359 98.0737 265.49 98.0737 265.49Z" fill="black"/>
<path d="M142.576 262.267L143.638 211.132L139.944 148.16L117.52 154.154C115.318 166.369 123.911 175.34 123.911 175.34C123.429 183.705 125.494 194.467 127.468 202.474C129.097 209.106 130.263 210.943 130.674 213.868C131.136 217.165 130.126 222.09 130.381 226.325C131.284 238.465 133.217 250.506 136.159 262.319L136.537 264.384L138.316 271.954L143.058 272.15L142.674 264.586L142.576 262.267Z" fill="#FFBAB3"/>
<path opacity="0.3" d="M142.576 262.267L143.638 211.132L139.944 148.16L117.52 154.154C115.318 166.369 123.911 175.34 123.911 175.34C123.429 183.705 125.494 194.467 127.468 202.474C129.097 209.106 130.263 210.943 130.674 213.868C131.136 217.165 130.126 222.09 130.381 226.325C131.284 238.465 133.217 250.506 136.159 262.319L136.537 264.384L138.316 271.954L143.058 272.15L142.674 264.586L142.576 262.267Z" fill="black"/>
<path d="M150.199 281.223C149.433 280.649 148.567 280.223 147.645 279.966C147.645 279.966 144.83 277.36 143.195 269.334L139.632 268.552C139.024 268.429 138.394 268.497 137.826 268.745C137.259 268.993 136.781 269.41 136.459 269.939C136.356 270.084 136.285 270.248 136.25 270.422C136.1 271.283 136.009 272.154 135.977 273.027C135.895 275.997 135.993 278.969 136.27 281.927H136.921V276.337C136.921 274.435 138.491 276.604 138.98 278.624C139.469 280.643 140.446 282.793 144.609 282.728C149.456 282.624 151.469 282.318 150.199 281.223Z" fill="#263238"/>
<path d="M142.479 266.453C142.479 266.453 143.371 270.127 144.739 274.18C145.329 276.274 146.316 278.236 147.645 279.958C147.645 279.958 144.557 280.61 143.124 278.584C141.69 276.558 139.56 269.463 136.439 269.971C136.673 269.434 136.97 268.926 137.325 268.46C137.827 267.71 142.479 266.453 142.479 266.453Z" fill="#FFBAB3"/>
<path opacity="0.3" d="M142.479 266.453C142.479 266.453 143.371 270.127 144.739 274.18C145.329 276.274 146.316 278.236 147.645 279.958C147.645 279.958 144.557 280.61 143.124 278.584C141.69 276.558 139.56 269.463 136.439 269.971C136.673 269.434 136.97 268.926 137.325 268.46C137.827 267.71 142.479 266.453 142.479 266.453Z" fill="black"/>
<path d="M144.778 186.042L145.808 206.114C145.808 206.114 125.612 208.069 116.126 208.069H99.1877C99.1877 208.069 98.9531 168.537 102.823 154.908C106.406 142.361 110.751 139.155 110.751 139.155C110.751 139.155 138.934 138.673 138.934 140.406C142.635 149.84 144.465 168.583 144.778 186.042Z" fill="#263238"/>
<path opacity="0.2" d="M101.963 208.051V210.103L115.664 210.005L116.126 208.051H101.963Z" fill="black"/>
<path opacity="0.2" d="M128.889 207.489L129.455 209.248L143.514 208.538L143.384 206.336L128.889 207.489Z" fill="black"/>
<path d="M102.1 143.232C102.1 143.232 70.9917 130.704 70.5813 131.506C70.1708 132.307 73.0308 141.929 93.4547 146.757C93.4547 146.757 95.5004 143.499 96.1779 143.421C96.8554 143.343 100.771 145.415 100.771 145.415L102.1 143.232Z" fill="#FF5811"/>
<path opacity="0.6" d="M102.1 143.232C102.1 143.232 70.9917 130.704 70.5813 131.506C70.1708 132.307 73.0308 141.929 93.4547 146.757C93.4547 146.757 95.5004 143.499 96.1779 143.421C96.8554 143.343 100.771 145.415 100.771 145.415L102.1 143.232Z" fill="white"/>
<path d="M99.1486 141.371C98.9467 141.573 97.6958 144.322 97.8457 144.628C97.9955 144.935 106.191 149.072 107.279 148.394C108.367 147.717 108.947 145.475 108.465 144.928C107.983 144.381 99.1486 141.371 99.1486 141.371Z" fill="#263238"/>
<path opacity="0.6" d="M76.3208 133.234C76.3208 133.234 80.5554 134.844 80.7183 137.326C80.8812 139.808 83.9757 144.225 93.7479 146.31L95.8131 143.639C95.8131 143.639 91.611 144.883 88.751 143.697C85.891 142.511 82.6532 141 82.6532 138.029C82.6532 135.059 82.1971 135.423 82.1971 135.423L76.3208 133.234Z" fill="white"/>
<path d="M115.344 87.2066C115.286 87.0763 110.237 85.3043 108.445 79.6625C106.654 74.0207 107.077 67.1606 110.224 64.6394C120.647 56.2874 126.752 61.2387 128.354 63.0563C129.488 64.3592 132.374 67.6166 133.319 70.3007C134.706 74.2096 133.319 80.6006 132.016 82.9134C130.713 85.2261 115.344 87.2066 115.344 87.2066Z" fill="#263238"/>
<path d="M115.442 82.3008C116.582 86.4898 117.983 94.2489 115.247 97.0633C115.247 97.0633 118.172 99.7148 125.846 102.51C128.139 101.923 128.322 97.0633 128.322 97.0633C123.527 95.9428 123.39 92.4508 123.97 89.1804L115.442 82.3008Z" fill="#FFBAB3"/>
<path opacity="0.2" d="M119.006 85.1016L124.068 89.1668C123.926 89.9362 123.851 90.7167 123.846 91.4991C122.068 91.245 119.397 89.2645 119.077 87.3817C118.92 86.6318 118.895 85.8599 119.006 85.1016Z" fill="black"/>
<path d="M111.885 73.8374C113.188 80.6454 113.566 83.551 117.475 86.8214C123.338 91.7075 131.364 89.1342 132.146 82.1894C132.85 75.9612 130.635 65.8438 123.612 63.5896C122.117 63.0487 120.505 62.9181 118.942 63.2113C117.38 63.5044 115.925 64.2108 114.728 65.2568C113.531 66.3028 112.636 67.6503 112.136 69.1593C111.636 70.6683 111.549 72.2836 111.885 73.8374Z" fill="#FFBAB3"/>
<path d="M111.436 81.0685C112.38 82.1987 113.729 82.9143 115.195 83.062C117.058 83.2053 117.436 80.176 116.498 78.5017C116.063 77.7463 115.376 77.1679 114.558 76.8678C113.74 76.5676 112.842 76.5649 112.022 76.8599C110.367 77.5244 110.224 79.6417 111.436 81.0685Z" fill="#FFBAB3"/>
<path opacity="0.2" d="M115.312 80.0254C115.139 79.3858 114.729 78.836 114.165 78.4879C113.602 78.1432 112.926 78.0333 112.282 78.1817" stroke="black" stroke-width="0.5" stroke-linecap="round" stroke-linejoin="round"/>
<path d="M121.735 72.6769C121.775 72.6947 121.819 72.7039 121.862 72.7039C121.906 72.7039 121.95 72.6947 121.99 72.6769C122.34 72.4705 122.738 72.3569 123.145 72.3466C123.552 72.3363 123.955 72.4298 124.315 72.6183C124.352 72.6407 124.393 72.6552 124.436 72.6607C124.478 72.6662 124.521 72.6628 124.563 72.6505C124.604 72.6382 124.642 72.6174 124.674 72.5894C124.707 72.5614 124.733 72.5268 124.752 72.488C124.788 72.405 124.793 72.3115 124.766 72.2251C124.738 72.1387 124.68 72.0653 124.602 72.0189C124.15 71.7744 123.642 71.6497 123.128 71.6565C122.614 71.6634 122.11 71.8016 121.664 72.058C121.587 72.1041 121.532 72.1785 121.51 72.2652C121.488 72.3518 121.501 72.4436 121.547 72.5206C121.59 72.5923 121.657 72.6473 121.735 72.6769Z" fill="#263238"/>
<path d="M131.156 70.3599C131.189 70.3432 131.218 70.3193 131.24 70.29C131.263 70.2607 131.278 70.2267 131.286 70.1905C131.297 70.1043 131.277 70.017 131.231 69.9434C131.185 69.8698 131.114 69.8145 131.032 69.7866C130.586 69.5924 130.098 69.5162 129.614 69.5652C129.13 69.6143 128.667 69.787 128.27 70.0668C128.212 70.1263 128.18 70.2056 128.18 70.2883C128.18 70.3709 128.212 70.4503 128.27 70.5098C128.321 70.5752 128.396 70.6184 128.478 70.6305C128.561 70.6426 128.645 70.6227 128.713 70.5749C129.033 70.3457 129.409 70.2052 129.801 70.1675C130.194 70.1297 130.589 70.1961 130.947 70.3599C131.014 70.3867 131.089 70.3867 131.156 70.3599Z" fill="#263238"/>
<path d="M127.306 74.0938C128.184 75.4312 129.195 76.6774 130.322 77.8137C130.382 77.869 130.428 77.9376 130.457 78.014C130.485 78.0905 130.496 78.1725 130.487 78.2537C130.478 78.3348 130.45 78.4127 130.406 78.4811C130.361 78.5496 130.301 78.6066 130.231 78.6476C129.674 78.9246 129.052 79.0419 128.433 78.9864L127.306 74.0938Z" fill="#FF7F77"/>
<path d="M123.214 73.9562L124.687 73.3047C124.533 73.6152 124.293 73.8751 123.996 74.0539C124.286 74.3071 124.485 74.6479 124.563 75.0246C124.732 75.7347 124.511 76.3276 124.061 76.4253C123.612 76.523 123.123 75.9758 122.954 75.2656C122.871 75.0448 122.851 74.8051 122.897 74.5737C122.943 74.3423 123.053 74.1283 123.214 73.9562Z" fill="#263238"/>
<path d="M129.306 72.8038L130.785 72.1523C130.619 72.4896 130.346 72.7623 130.009 72.9276C130.289 73.1733 130.483 73.502 130.563 73.8657C130.726 74.5172 130.504 75.1687 130.061 75.2273C129.618 75.286 129.123 74.7908 128.96 74.1003C128.872 73.8756 128.859 73.6287 128.921 73.3955C128.983 73.1623 129.118 72.955 129.306 72.8038Z" fill="#263238"/>
<path d="M128.895 80.9006C128.591 81.6089 128.338 82.3383 128.14 83.0831L127.729 83.031C125.885 82.7899 125.123 82.0733 124.784 81.3501C124.637 80.9962 124.576 80.6118 124.608 80.2296C124.62 80.0079 124.662 79.7887 124.732 79.5781C125.644 80.2882 127.338 80.64 128.27 80.7899C128.654 80.8811 128.895 80.9006 128.895 80.9006Z" fill="#263238"/>
<path d="M128.27 80.7847L128.029 81.4362C126.296 81.2081 125.097 80.7847 124.608 80.2179C124.62 79.9961 124.662 79.777 124.732 79.5664C125.644 80.3091 127.351 80.6609 128.27 80.7847Z" fill="white"/>
<path d="M127.729 83.0324C125.885 82.7913 125.123 82.0747 124.784 81.3516C125.484 81.4482 126.162 81.6688 126.784 82.003C127.198 82.2399 127.528 82.5996 127.729 83.0324Z" fill="#FF4749"/>
<path d="M122.309 67.8906C122.96 87.4349 115.208 82.2231 117.325 90.7575C114.393 86.3079 112.765 80.9006 111.983 75.565C111.468 72.907 110.96 70.3532 111.69 67.7472C112.582 65.1869 115.305 62.7634 117.885 62.5354C118.817 62.4181 123.338 63.1869 124.068 63.7797C124.797 64.3726 122.771 67.0567 122.309 67.8906Z" fill="#263238"/>
<path d="M124.198 94.0156L124.068 97.7161L116.165 93.9766L113.696 97.0711C114.465 98.563 119.768 100.583 126.367 102.987C127.104 102.196 127.661 101.254 127.998 100.227C128.336 99.2003 128.446 98.1123 128.322 97.0385L124.198 94.0156Z" fill="#FF5811"/>
<path opacity="0.8" d="M124.198 94.0156L124.068 97.7161L116.165 93.9766L113.696 97.0711C114.465 98.563 119.768 100.583 126.367 102.987C127.104 102.196 127.661 101.254 127.998 100.227C128.336 99.2003 128.446 98.1123 128.322 97.0385L124.198 94.0156Z" fill="white"/>
<path d="M111.52 83.8774L108.367 74.8675C108.465 73.4994 106.966 72.3006 105.331 72.2094C104.536 72.1849 103.747 72.3492 103.028 72.689C102.308 73.0287 101.68 73.5342 101.194 74.1639C100.369 75.3145 100.002 76.7313 100.165 78.1379C100.44 80.4642 101.451 82.6418 103.051 84.353C103.839 85.3263 104.84 86.1062 105.976 86.6332C107.223 87.1891 108.638 87.2335 109.918 86.757C111.149 86.2162 111.95 84.9524 111.52 83.8774Z" fill="#263238"/>
<g opacity="0.3">
<path d="M122.791 63.2533C121.075 65.4691 119.182 67.5412 117.13 69.4489C115.221 71.2144 112.465 73.8594 109.644 72.4457C109.364 72.3024 109.116 72.7258 109.396 72.8692C112.054 74.2047 114.608 72.3154 116.563 70.6085C118.964 68.4799 121.162 66.1332 123.13 63.5986C123.319 63.3511 122.973 63.0058 122.778 63.2533H122.791Z" fill="black"/>
</g>
<path d="M132.902 97.3711C132.902 97.3711 141.638 97.9053 142.921 113.059C143.957 125.352 145.788 129.854 145.788 129.854L165.775 139.014L165.495 148.441C165.495 148.441 141.136 143.841 139.488 137.867C137.84 131.893 132.902 98.6089 132.902 98.6089" fill="#FF5811"/>
<path d="M125.527 94.7266C125.527 94.7266 135.026 106.186 137.358 114.453C138.889 119.887 135.866 135.548 136.218 139.692C136.798 146.519 139.814 154.878 143.723 167.119L146.329 166.754L139.208 139.659C139.208 139.659 142.505 119.242 141.625 114.134C140.746 109.027 133.123 97.3716 133.123 97.3716L129.644 96.4204L125.527 94.7266Z" fill="#FF5811"/>
<path opacity="0.2" d="M100.829 167.115L116.843 168.542C116.843 168.542 119.11 143.499 119.299 137.649C119.488 131.799 119.299 121.395 119.299 121.395L101.012 165.422L100.829 167.115Z" fill="black"/>
<path d="M115.403 166.927L96.5101 164.972L108.471 131.467C108.426 131.33 107.312 128.268 105.65 122.02C104.823 118.9 104.08 118.281 103.344 115.33C102.282 111.082 101.487 107.557 101.429 106.411C101.24 102.821 106.387 97.0556 106.387 97.0556L112.699 96.5018L116.185 93.8047C118.96 98.3194 119.52 107.486 119.195 117.975C118.765 132.535 115.403 166.927 115.403 166.927Z" fill="#FF5811"/>
<path opacity="0.2" d="M107.494 122.328C107.235 123.039 106.753 123.647 106.119 124.061C105.292 120.941 104.432 117.625 103.696 114.68C105.65 112.341 107.24 110.387 107.24 110.387C107.24 110.387 109.448 117.312 107.494 122.328Z" fill="black"/>
<path d="M106.973 96.9901C101.175 96.5927 92.1387 116.932 88.3862 126.685C87.2787 129.577 89.9432 132.75 91.8716 133.851C96.243 136.411 104.79 141.792 104.79 141.792L108.276 132.02L101.207 125.082L107.774 115.179C107.774 115.179 110.23 110.189 109.774 105.557C109.409 102.546 108.457 99.6353 106.973 96.9901Z" fill="#FF5811"/>
<path d="M116.204 93.8125C114.717 94.8845 113.152 95.8427 111.52 96.679L114.498 104.393L111.931 108.555L119.025 123.781C121.788 101.708 116.204 93.8125 116.204 93.8125Z" fill="#FF5811"/>
<path opacity="0.3" d="M116.204 93.8125C114.717 94.8845 113.152 95.8427 111.52 96.679L114.498 104.393L111.931 108.555L119.025 123.781C121.788 101.708 116.204 93.8125 116.204 93.8125Z" fill="black"/>
<path opacity="0.2" d="M101.207 125.083C101.207 125.083 98.1714 124.614 96.243 126.223C96.243 126.223 98.3213 122.894 102.054 123.813L101.207 125.083Z" fill="black"/>
<path d="M137.579 123.73C137.579 123.73 139.162 119.053 138.882 114.733C138.602 110.414 138.524 107.202 138.524 107.202L133.618 103.587L134.27 99.1761C134.27 99.1761 131.912 97.7233 129.71 96.238C128.211 95.2217 124.589 93.9057 124.198 94.0229C124.198 94.0229 137.39 109.658 137.456 116.108C137.514 122.349 137.579 123.73 137.579 123.73Z" fill="#FF5811"/>
<path opacity="0.3" d="M137.579 123.73C137.579 123.73 139.162 119.053 138.882 114.733C138.602 110.414 138.524 107.202 138.524 107.202L133.618 103.587L134.27 99.1761C134.27 99.1761 131.912 97.7233 129.71 96.238C128.211 95.2217 124.589 93.9057 124.198 94.0229C124.198 94.0229 137.39 109.658 137.456 116.108C137.514 122.349 137.579 123.73 137.579 123.73Z" fill="black"/>
<path opacity="0.3" d="M139.508 137.866L141.658 111.266L141.371 140.269C140.493 139.705 139.836 138.856 139.508 137.866Z" fill="black"/>
<path opacity="0.2" d="M107.592 131.375L102.334 140.281L104.79 141.818L108.276 132.046L107.592 131.375Z" fill="black"/>
</g>
<defs>
<clipPath id="clip0_2_5027">
<rect width="325.74" height="289.55" fill="white"/>
</clipPath>
</defs>
</svg>
