<svg width="112" height="112" viewBox="0 0 112 112" fill="none" xmlns="http://www.w3.org/2000/svg">
<g clip-path="url(#clip0_2_8013)">
<path d="M94.375 94.3755C115.791 72.9591 115.791 38.2362 94.375 16.8198C72.9586 -4.59661 38.2357 -4.59661 16.8193 16.8198C-4.59712 38.2362 -4.59712 72.9591 16.8193 94.3755C38.2357 115.792 72.9586 115.792 94.375 94.3755Z" stroke="white" stroke-width="2.27" stroke-miterlimit="10"/>
<path d="M55.5983 81.8006C70.0698 81.8006 81.8013 70.0691 81.8013 55.5976C81.8013 41.126 70.0698 29.3945 55.5983 29.3945C41.1268 29.3945 29.3953 41.126 29.3953 55.5976C29.3953 70.0691 41.1268 81.8006 55.5983 81.8006Z" stroke="white" stroke-width="1.08" stroke-miterlimit="10"/>
<path d="M55.5984 84.5739C49.3918 84.5738 43.3491 82.5818 38.3592 78.8908C33.3694 75.1999 29.6958 70.005 27.879 64.0703H4.815C6.81576 76.0938 13.0176 87.0173 22.3169 94.897C31.6162 102.777 43.4096 107.101 55.5984 107.101C67.7871 107.101 79.5806 102.777 88.8798 94.897C98.1791 87.0173 104.381 76.0938 106.382 64.0703H83.3111C81.4955 70.0045 77.8232 75.1992 72.8345 78.8902C67.8457 82.5811 61.804 84.5734 55.5984 84.5739Z" fill="white"/>
<path d="M26.8548 59.1914H4.24304C4.29625 60.0227 4.37605 60.8474 4.46916 61.6654H27.2671C27.0942 60.8806 26.9546 60.056 26.8548 59.1914Z" fill="white"/>
<path d="M55.5983 26.6018C61.8037 26.6033 67.8449 28.5959 72.8334 32.2868C77.822 35.9776 81.4945 41.1717 83.311 47.1053H106.408C104.408 35.0819 98.2057 24.1583 88.9064 16.2786C79.6071 8.39889 67.8137 4.07422 55.6249 4.07422C43.4361 4.07422 31.6427 8.39889 22.3434 16.2786C13.0442 24.1583 6.84231 35.0819 4.84155 47.1053H27.8789C29.6967 41.1712 33.3705 35.9768 38.3602 32.2861C43.3498 28.5953 49.392 26.6029 55.5983 26.6018Z" fill="white"/>
<path d="M26.602 55.6003C26.602 55.1813 26.602 54.7756 26.602 54.3633H4.1366C4.1366 54.7756 4.1366 55.1813 4.1366 55.6003C4.1366 56.0193 4.1366 56.4183 4.1366 56.8306H26.6486C26.6353 56.4249 26.602 56.0126 26.602 55.6003Z" fill="white"/>
<path d="M27.2671 49.5078H4.47581C4.38271 50.3258 4.3029 51.1505 4.24969 51.9752H26.8615C26.9546 51.1438 27.0942 50.3192 27.2671 49.5078Z" fill="white"/>
<path d="M84.5746 55.6003C84.5746 56.0126 84.5746 56.4249 84.5746 56.8306H107.073C107.073 56.4183 107.107 56.0126 107.107 55.6003C107.107 55.1879 107.107 54.7756 107.073 54.3633H84.5414C84.5613 54.7756 84.5746 55.2012 84.5746 55.6003Z" fill="white"/>
<path d="M83.9295 49.5078C84.1024 50.3192 84.2354 51.1438 84.3418 51.9752H106.954C106.894 51.1505 106.821 50.3258 106.721 49.5078H83.9295Z" fill="white"/>
<path d="M83.9295 61.6888H106.714C106.814 60.8708 106.887 60.0462 106.947 59.2148H84.3352C84.2354 60.0528 84.1024 60.8775 83.9295 61.6888Z" fill="white"/>
<path d="M19.2865 27.2689L20.8494 25.593L26.908 29.8493L22.2526 24.0966L23.8155 22.4141L31.304 29.4171L30.2665 30.5277L24.6003 25.2073L29.4684 31.359L28.5241 32.3898L22.0598 27.934L27.726 33.2544L26.7683 34.2852L19.2865 27.2689Z" fill="#FF5811"/>
<path d="M33.1063 27.3728C32.4357 27.1911 31.8629 26.7543 31.5102 26.1557L28.4642 21.7198C28.0444 21.1724 27.8536 20.4832 27.9322 19.7978C27.9939 19.4701 28.1249 19.1594 28.3164 18.8864C28.508 18.6134 28.7556 18.3845 29.0428 18.215C29.3046 18.0087 29.6069 17.8601 29.9301 17.7787C30.2533 17.6973 30.59 17.6851 30.9183 17.7428C31.5877 17.9229 32.1604 18.3572 32.5144 18.9532L35.567 23.3891C35.9905 23.9381 36.1902 24.6273 36.1256 25.3178C35.9546 25.9614 35.5588 26.5225 35.0098 26.8995C34.4608 27.2765 33.795 27.4444 33.1329 27.3728H33.1063ZM34.2701 24.3867L31.1045 19.7779C30.7276 19.2281 30.3086 19.1084 29.8475 19.4187C29.3886 19.738 29.3487 20.1703 29.7278 20.7489L32.8935 25.3577C33.2703 25.9163 33.6893 26.036 34.1504 25.7168C34.5827 25.3776 34.6492 24.9453 34.2701 24.3867Z" fill="#FF5811"/>
<path d="M34.7357 14.9693L36.5779 14.1845L40.3886 19.2389L38.021 13.586L39.3511 13.0273L43.3414 22.4777L41.8185 23.1428L37.1631 16.9911L40.0561 23.8876L38.726 24.4396L34.7357 14.9693Z" fill="#FF5811"/>
<path d="M43.3747 11.8326L47.6709 10.9414L47.9702 12.3713L45.2235 12.9366L45.7755 15.5968L47.937 15.1445L48.2362 16.5744L46.0748 17.0266L46.7399 20.1058L49.4599 19.5405L49.7592 20.9704L45.463 21.8682L43.3747 11.8326Z" fill="#FF5811"/>
<path d="M53.0246 16.3273L50.8499 10.5214L52.559 10.4549L53.8027 14.1725L54.7471 10.3684L56.3099 10.3086L54.6007 16.2941L54.8069 20.6169L53.2041 20.6834L53.0246 16.3273Z" fill="#FF5811"/>
<path d="M64.2706 11.0078L66.6448 11.5199C66.9689 11.5616 67.2816 11.6672 67.5647 11.8304C67.8477 11.9936 68.0957 12.2113 68.2942 12.4709C68.5941 13.0446 68.6585 13.7126 68.4737 14.3331L68.3873 14.7321C68.306 15.181 68.1165 15.6033 67.8353 15.9624C67.6038 16.245 67.2777 16.434 66.9175 16.4945C67.6424 16.9334 67.8818 17.7115 67.6358 18.8421L67.4496 19.6934C67.4095 20.0154 67.3053 20.326 67.143 20.607C66.9808 20.888 66.7639 21.1337 66.5052 21.3294C66.2173 21.4934 65.8991 21.5974 65.57 21.6351C65.2408 21.6728 64.9074 21.6435 64.5898 21.5489L62.1225 21.0102L64.2706 11.0078ZM64.8758 20.119C64.9864 20.1533 65.103 20.1633 65.2178 20.1484C65.3325 20.1335 65.4427 20.094 65.5409 20.0326C65.7497 19.8373 65.8798 19.5723 65.9066 19.2877L66.0995 18.4165C66.2136 18.0915 66.2136 17.7373 66.0995 17.4123C66.0183 17.2924 65.912 17.1917 65.788 17.117C65.664 17.0424 65.5252 16.9956 65.3812 16.98L64.6763 16.827L63.978 19.9528L64.8758 20.119ZM65.5409 15.5568C65.6668 15.5949 65.7992 15.6063 65.9298 15.5903C66.0603 15.5743 66.1861 15.5311 66.299 15.4637C66.5302 15.2745 66.6782 15.0024 66.7114 14.7055L66.8311 14.1469C66.9199 13.8769 66.9199 13.5855 66.8311 13.3155C66.7739 13.2152 66.6943 13.1294 66.5986 13.0649C66.5028 13.0003 66.3935 12.9586 66.2791 12.9431L65.5209 12.7768L64.9423 15.4371L65.5409 15.5568Z" fill="#FF5811"/>
<path d="M74.0136 13.7852L76.0088 14.6564L73.4483 24.712L71.9719 24.0469L72.5173 22.0518L70.8413 21.3202L69.7706 23.0427L68.4405 22.4441L74.0136 13.7852ZM72.8897 20.7615L74.253 15.8335L71.5928 20.1963L72.8897 20.7615Z" fill="#FF5811"/>
<path d="M75.6297 25.4705C75.5727 24.7962 75.7749 24.1255 76.195 23.595L79.3473 19.0926C79.6998 18.516 80.2586 18.0951 80.9102 17.9155C81.5555 17.8516 82.2022 18.022 82.7322 18.3957C83.2622 18.7694 83.64 19.3213 83.7965 19.9506C83.8499 20.6235 83.6454 21.2915 83.2246 21.8193L82.6061 22.7105L81.3558 21.8393L82.0208 20.8683C82.38 20.3429 82.3467 19.9306 81.9078 19.6247C81.4688 19.3188 81.0632 19.4252 80.6974 19.9439L77.4453 24.6059C77.0861 25.1114 77.1327 25.5237 77.5716 25.8296C78.0106 26.1355 78.4096 26.0358 78.7621 25.5237L79.6599 24.2401L80.9102 25.118L80.0789 26.3018C79.7264 26.8785 79.1676 27.2993 78.516 27.4789C77.8747 27.5532 77.2283 27.3918 76.6973 27.0247C76.1662 26.6576 75.7868 26.1099 75.6297 25.4838V25.4705Z" fill="#FF5811"/>
<path d="M87.574 22.4375L88.6913 23.5947L85.5722 26.6007L90.1079 25.0911L91.2252 26.2549L87.1816 27.4719L83.8564 33.3643L82.6925 32.1539L85.0468 28.0106L83.6635 28.4496L81.3092 30.7041L80.192 29.5469L87.574 22.4375Z" fill="#FF5811"/>
<path d="M17.0852 77.2571C17.2821 76.6836 17.6915 76.2075 18.2291 75.927L22.2194 73.5395C22.7209 73.1904 23.3394 73.0519 23.9419 73.1537C24.4819 73.3322 24.9393 73.6995 25.2301 74.1882C25.5209 74.677 25.6255 75.2543 25.5247 75.8139C25.329 76.3881 24.9192 76.8646 24.3808 77.1441L23.7158 77.5298L23.0507 76.3992L23.7756 75.9669C24.2744 75.6676 24.4008 75.3019 24.1547 74.9028C23.9086 74.5038 23.5362 74.4306 23.0374 74.7299L18.8808 77.2172C18.3887 77.5098 18.269 77.8823 18.5151 78.2746C18.7611 78.667 19.1336 78.7468 19.6257 78.4542L21.1088 77.563L20.7496 76.9645L21.8337 76.2994L22.8645 78.0219L20.3839 79.505C19.8923 79.8485 19.2872 79.989 18.6946 79.8974C18.1538 79.7201 17.6955 79.353 17.4045 78.864C17.1136 78.3749 17.0096 77.797 17.1118 77.2372L17.0852 77.2571Z" fill="#FF5811"/>
<path d="M23.6625 86.3918C23.7205 85.7959 24.0064 85.2455 24.4606 84.8555L29.2623 80.0938L30.2399 81.078L25.385 85.9129C25.205 86.0635 25.0847 86.2734 25.0458 86.5049C25.0449 86.602 25.0652 86.6982 25.1054 86.7867C25.1456 86.8752 25.2048 86.9538 25.2786 87.0169C25.3418 87.0908 25.4204 87.1499 25.5088 87.1901C25.5973 87.2303 25.6935 87.2507 25.7907 87.2497C26.0227 87.2125 26.2332 87.0919 26.3826 86.9105L31.2375 82.0823L32.1818 83.0333L27.3802 87.7884C26.9853 88.2389 26.4335 88.5219 25.8373 88.5798C25.2726 88.5365 24.7423 88.2918 24.3431 87.8901C23.9439 87.4885 23.7024 86.9567 23.6625 86.3918Z" fill="#FF5811"/>
<path d="M37.1232 86.5898L38.7725 87.4943L35.7798 95.9471L34.5628 95.2821L35.1879 93.6194L33.8046 92.8613L32.7472 94.2579L31.6166 93.6394L37.1232 86.5898ZM35.6069 92.5022L37.1698 88.3722L34.5096 91.9169L35.6069 92.5022Z" fill="#FF5811"/>
<path d="M44.5585 89.7812L46.5536 90.2268C46.8367 90.2388 47.1127 90.3183 47.3588 90.4587C47.6048 90.5991 47.8137 90.7963 47.968 91.0339C48.1222 91.2715 48.2174 91.5426 48.2456 91.8245C48.2737 92.1063 48.234 92.3909 48.1298 92.6543L48.0101 93.1863C47.8106 94.0841 47.3916 94.5829 46.7465 94.696C46.8907 94.773 47.0162 94.8808 47.1139 95.0119C47.2116 95.1429 47.2792 95.294 47.3118 95.4541C47.3758 95.8777 47.3532 96.3098 47.2453 96.7244L46.9061 98.2407C46.8529 98.4868 46.8197 98.6863 46.7997 98.8459C46.7769 99.0047 46.7769 99.1659 46.7997 99.3247L45.4164 99.0188C45.4035 98.8795 45.4035 98.7392 45.4164 98.5998C45.4468 98.3761 45.4889 98.1541 45.5428 97.9348L45.8886 96.3586C45.9824 96.0758 45.9824 95.7702 45.8886 95.4874C45.8219 95.3821 45.7322 95.2932 45.6262 95.2276C45.5202 95.1619 45.4007 95.1211 45.2767 95.1083L44.8112 95.0019L43.9932 98.7062L42.6631 98.407L44.5585 89.7812ZM45.5893 93.8913C45.6994 93.9246 45.815 93.9353 45.9293 93.9228C46.0436 93.9102 46.1542 93.8746 46.2544 93.8181C46.4534 93.6495 46.5817 93.412 46.6135 93.1531L46.7598 92.488C46.8394 92.2552 46.8394 92.0026 46.7598 91.7698C46.7097 91.6828 46.6406 91.6084 46.5577 91.552C46.4748 91.4955 46.3802 91.4586 46.281 91.4439L45.6625 91.3109L45.0639 93.7716L45.5893 93.8913Z" fill="#FF5811"/>
<path d="M54.8402 91.1133H56.7223L58.3051 99.9319H56.9151L56.6358 98.1761H55.0597L54.8335 99.9119H53.5433L54.8402 91.1133ZM56.4563 97.0056L55.7912 92.6429L55.1993 97.0455L56.4563 97.0056Z" fill="#FF5811"/>
<path d="M63.007 90.4458L64.6896 89.9869L67.3498 94.7421L65.9665 89.6345L67.1569 89.3086L69.478 97.8479L68.0947 98.2203L64.7694 92.4277L66.4653 98.6592L65.2682 98.9851L63.007 90.4458Z" fill="#FF5811"/>
<path d="M73.5015 87.7277L72.2645 88.4526L71.5995 87.3752L75.2706 85.1406L75.9356 86.2247L74.6986 86.9762L78.6424 93.4538L77.4519 94.1787L73.5015 87.7277Z" fill="#FF5811"/>
<path d="M79.0015 82.076L81.6151 79.3359L82.5262 80.2072L80.8703 81.9429L82.5661 83.559L83.8962 82.1757L84.8074 83.0469L83.4773 84.4302L85.4724 86.3057L87.1284 84.5632L88.0462 85.4411L85.4259 88.1811L79.0015 82.076Z" fill="#FF5811"/>
<path d="M84.6345 75.2498L86.5632 71.9844L87.6539 72.6494L86.4568 74.6978L88.4519 75.8882L89.4229 74.2456L90.5136 74.9106L89.5426 76.5466L91.8769 77.9299L93.1006 75.8683L94.1913 76.5333L92.256 79.7921L84.6345 75.2498Z" fill="#FF5811"/>
<path d="M48.7882 42.7292C47.4581 42.7292 46.5736 43.4674 46.5736 45.3894V47.1452H42.5168V45.6887C42.5168 41.326 44.6982 38.832 48.9079 38.832C53.1177 38.832 55.2991 41.326 55.2991 45.6887V46.3937C55.2991 49.3132 54.3614 51.1421 52.2997 52.0001C54.4412 52.9378 55.2991 54.9595 55.2991 57.7262V59.8543C55.2991 64.2171 53.1177 66.711 48.9079 66.711C44.6982 66.711 42.5168 64.2304 42.5168 59.8543V57.6131H46.5536V60.1403C46.5536 62.0889 47.4049 62.8005 48.7683 62.8005C50.1316 62.8005 50.9895 62.1354 50.9895 59.7213V57.6131C50.9895 55.0792 50.1316 54.1415 48.1897 54.1415H46.7665V50.2443H48.4424C50.0385 50.2443 51.0095 49.5793 51.0095 47.3646V45.8483C51.0095 43.3876 50.1516 42.7292 48.7882 42.7292Z" fill="white" stroke="white" stroke-width="0.97"/>
<path d="M63.5524 38.832C67.7621 38.832 70.0566 41.326 70.0566 45.6887V59.8543C70.0566 64.2171 67.7621 66.711 63.5524 66.711C59.3426 66.711 57.0482 64.2304 57.0482 59.8543V45.6887C57.0482 41.326 59.3492 38.832 63.5524 38.832ZM63.5524 62.8338C64.8825 62.8338 65.7736 62.0889 65.7736 60.1735V45.416C65.7736 43.4674 64.9157 42.7558 63.5524 42.7558C62.189 42.7558 61.3311 43.494 61.3311 45.416V60.1403C61.3311 62.0889 62.189 62.8338 63.5524 62.8338Z" fill="white" stroke="white" stroke-width="0.97"/>
<path d="M52.1467 71.332C52.8716 71.332 53.2241 71.7311 53.2241 72.4626V74.777C53.2241 75.5086 52.8716 75.9076 52.1467 75.9076H51.0161V71.332H52.1467ZM51.7344 75.2558H52.1401C52.3662 75.2558 52.5058 75.1361 52.5058 74.8102V72.4294C52.5058 72.1035 52.3662 71.9838 52.1401 71.9838H51.7344V75.2558Z" fill="white"/>
<path d="M55.2791 75.9076L55.1594 75.0763H54.2749L54.1485 75.9076H53.4835L54.215 71.332H55.2658L55.9974 75.9076H55.2791ZM55.0596 74.4844L54.7138 72.17L54.368 74.4844H55.0596Z" fill="white"/>
<path d="M56.1038 71.332H56.8553L57.4073 73.4203L57.9526 71.332H58.6177L57.7065 74.3913V75.9076H57.0149V74.3913L56.1038 71.332Z" fill="white"/>
<path d="M59.8546 71.2812C60.5596 71.2812 60.9187 71.7002 60.9187 72.4318V72.5781H60.2537V72.3852C60.2537 72.0594 60.1273 71.933 59.8945 71.933C59.6618 71.933 59.5354 72.0594 59.5354 72.3852C59.5354 73.3296 60.9453 73.5025 60.9453 74.8127C60.9453 75.5442 60.5795 75.9632 59.8746 75.9632C59.7234 75.976 59.5714 75.9543 59.4298 75.8999C59.2882 75.8455 59.1608 75.7597 59.0572 75.649C58.9535 75.5382 58.8762 75.4055 58.8312 75.2606C58.7862 75.1158 58.7746 74.9626 58.7972 74.8127V74.5334H59.4622V74.8592C59.4622 75.1851 59.6019 75.3048 59.8347 75.3048C60.0674 75.3048 60.2071 75.1851 60.2071 74.8592C60.2071 73.9149 58.7972 73.7419 58.7972 72.4318C58.7905 71.7002 59.1497 71.2812 59.8546 71.2812Z" fill="white"/>
</g>
<defs>
<clipPath id="clip0_2_8013">
<rect width="111.19" height="111.19" fill="white"/>
</clipPath>
</defs>
</svg>
