<svg width="433" height="342" viewBox="0 0 433 342" fill="none" xmlns="http://www.w3.org/2000/svg">
<g clip-path="url(#clip0_2_1941)">
<g style="mix-blend-mode:multiply" opacity="0.3">
<path d="M204.209 172.219H109.726C108.254 172.219 106.842 172.805 105.802 173.846C104.761 174.887 104.176 176.299 104.176 177.771V217.132C104.176 218.604 104.761 220.016 105.802 221.057C106.843 222.098 108.254 222.682 109.726 222.682H119.539C118.968 227.017 118.223 233.233 118.633 233.233C119.043 233.233 123.829 226.693 126.707 222.682H204.209C204.938 222.683 205.66 222.539 206.334 222.261C207.007 221.982 207.619 221.573 208.135 221.058C208.651 220.542 209.06 219.93 209.339 219.257C209.618 218.583 209.761 217.861 209.761 217.132V177.771C209.761 176.299 209.176 174.886 208.135 173.845C207.094 172.804 205.682 172.219 204.209 172.219Z" fill="#DAEEF7"/>
</g>
<path d="M208.727 161.758H114.242C112.77 161.758 111.359 162.343 110.318 163.383C109.277 164.424 108.692 165.836 108.692 167.308V206.669C108.692 208.141 109.277 209.553 110.318 210.593C111.359 211.634 112.77 212.219 114.242 212.219H124.055C123.484 216.553 122.739 222.77 123.149 222.77C123.559 222.77 128.345 216.23 131.223 212.219H208.727C210.198 212.218 211.608 211.633 212.647 210.593C213.687 209.554 214.272 208.144 214.273 206.674V167.313C214.273 166.584 214.13 165.862 213.852 165.188C213.574 164.515 213.165 163.903 212.651 163.387C212.136 162.871 211.524 162.462 210.851 162.182C210.178 161.903 209.456 161.758 208.727 161.758Z" fill="#FEB546"/>
<path d="M136.825 196.971C142.259 191.536 142.259 182.725 136.825 177.291C131.39 171.856 122.579 171.856 117.145 177.291C111.71 182.725 111.71 191.536 117.145 196.971C122.579 202.406 131.39 202.406 136.825 196.971Z" fill="white"/>
<path d="M129.186 194.141H125.1V198.221H129.186V194.141Z" fill="#FFC0BB"/>
<path d="M129.188 196.588V194.141H125.1V196.223C125.981 196.693 127.283 196.966 129.188 196.588Z" fill="#F99893"/>
<path d="M135.63 186.839C135.413 186.74 135.177 186.694 134.939 186.704C134.701 186.713 134.468 186.779 134.261 186.895C134.261 184.965 133.494 183.115 132.129 181.75C130.765 180.386 128.914 179.619 126.985 179.619C125.055 179.619 123.204 180.386 121.84 181.75C120.475 183.115 119.709 184.965 119.709 186.895C119.501 186.779 119.269 186.713 119.031 186.704C118.793 186.694 118.556 186.74 118.339 186.839C117.522 187.242 117.268 188.397 117.773 189.417C118.279 190.438 119.348 190.938 120.167 190.535C120.279 190.48 120.381 190.41 120.473 190.326C120.938 193.654 123.733 196.148 126.994 196.102C130.255 196.148 133.038 193.654 133.515 190.326C133.607 190.41 133.711 190.481 133.823 190.535C134.64 190.938 135.712 190.438 136.217 189.417C136.722 188.397 136.448 187.242 135.63 186.839Z" fill="#FFC0BB"/>
<path d="M122.01 178.031C122.01 178.031 124.059 176.295 128.722 176.575C133.385 176.854 134.27 179.288 134.545 182.761L134.272 186.895C134.272 186.895 133.061 185.649 131.477 182.2C131.477 182.2 128.866 185.127 127.73 184.78C126.593 184.433 128.161 182.325 128.161 182.325C128.161 182.325 122.841 186.9 119.713 186.895C119.713 186.895 118.057 181.538 120.384 179.575C120.384 179.575 118.63 179.659 118.537 179.314C118.444 178.969 119.373 178.454 121.057 178.648C121.057 178.648 119.858 176.302 120.528 176.058C121.199 175.813 122.01 178.031 122.01 178.031Z" fill="#07085B"/>
<path d="M129.658 191.596C129.479 192.402 128.554 193.037 127.422 193.072C126.291 193.107 125.326 192.53 125.093 191.735L129.658 191.596Z" fill="white"/>
<path d="M200.527 173.1H146.237C145.934 173.1 145.689 173.345 145.689 173.647V174.97C145.689 175.272 145.934 175.517 146.237 175.517H200.527C200.829 175.517 201.074 175.272 201.074 174.97V173.647C201.074 173.345 200.829 173.1 200.527 173.1Z" fill="white"/>
<path d="M158.222 179.482H146.237C145.934 179.482 145.689 179.727 145.689 180.03V181.353C145.689 181.655 145.934 181.9 146.237 181.9H158.222C158.524 181.9 158.769 181.655 158.769 181.353V180.03C158.769 179.727 158.524 179.482 158.222 179.482Z" fill="white"/>
<path d="M200.529 179.482H164.254C163.952 179.482 163.707 179.727 163.707 180.03V181.353C163.707 181.655 163.952 181.9 164.254 181.9H200.529C200.831 181.9 201.076 181.655 201.076 181.353V180.03C201.076 179.727 200.831 179.482 200.529 179.482Z" fill="white"/>
<path d="M173.754 185.863H146.237C145.934 185.863 145.689 186.108 145.689 186.411V187.734C145.689 188.036 145.934 188.281 146.237 188.281H173.754C174.057 188.281 174.302 188.036 174.302 187.734V186.411C174.302 186.108 174.057 185.863 173.754 185.863Z" fill="white"/>
<path d="M200.527 185.863H179.034C178.732 185.863 178.487 186.108 178.487 186.411V187.734C178.487 188.036 178.732 188.281 179.034 188.281H200.527C200.829 188.281 201.074 188.036 201.074 187.734V186.411C201.074 186.108 200.829 185.863 200.527 185.863Z" fill="white"/>
<path d="M200.527 192.242H146.237C145.934 192.242 145.689 192.487 145.689 192.79V194.112C145.689 194.415 145.934 194.66 146.237 194.66H200.527C200.829 194.66 201.074 194.415 201.074 194.112V192.79C201.074 192.487 200.829 192.242 200.527 192.242Z" fill="white"/>
<path d="M254.768 111.905L258.21 133.495L265.484 104.71C265.484 104.71 255.29 99.7634 254.84 101.561C254.391 103.36 254.768 111.905 254.768 111.905Z" fill="#07085B"/>
<path d="M312.629 158.373L315.775 195.698L282.838 194.124L286.637 161.07L312.629 158.373Z" fill="#FFC0BB"/>
<path d="M284.829 176.791L286.636 161.07L312.629 158.375L313.719 171.301C308.551 176.446 299.258 181.787 284.829 176.791Z" fill="#F99893"/>
<path d="M264.634 133.221C266.616 137.318 265.566 141.923 262.289 143.507C259.012 145.09 254.749 143.055 252.77 138.958C250.79 134.861 251.838 130.259 255.115 128.673C258.392 127.087 262.654 129.127 264.634 133.221Z" fill="#F99893"/>
<path d="M264.396 152.162C262.039 146.88 260.67 141.202 259.855 136.225C259.682 135.156 259.449 134.101 259.196 133.05C258.123 128.614 257.924 124.012 258.609 119.5C260.898 104.228 273.184 92.0518 288.483 89.937C293.285 89.2595 298.176 89.5816 302.847 90.8831C307.519 92.1845 311.872 94.4374 315.632 97.5002C319.392 100.563 322.478 104.37 324.698 108.682C326.917 112.994 328.221 117.718 328.529 122.558C330.649 121.198 333.099 120.757 335.332 121.591C339.618 123.189 341.474 128.828 339.478 134.184C337.482 139.541 332.386 142.59 328.101 140.992C327.518 140.772 326.969 140.471 326.47 140.098C325.809 157.405 312.559 171.573 295.643 172.365C287.37 172.753 279.673 169.868 273.699 164.818C269.865 162.005 266.25 156.532 264.396 152.162Z" fill="#FFC0BB"/>
<path d="M285.512 124.939C285.444 126.954 285.428 128.922 285.323 130.851C285.204 132.635 285.009 135.197 283.898 136.557C283.732 136.79 282.861 137.721 282.84 139.163C282.836 139.787 282.972 140.404 283.238 140.968C283.504 141.533 283.893 142.03 284.377 142.424C286.175 143.935 288.504 144.08 290.433 143.604C288.465 143.257 286.578 142.58 285.481 141.294C284.974 140.656 284.636 139.941 284.755 139.275C284.841 138.504 285.269 138.11 285.423 137.877C285.97 137.153 286.63 136.398 286.909 133.934C287.006 132.902 287.006 131.864 286.909 130.832C286.729 128.811 286.259 126.826 285.512 124.939Z" fill="#F99893"/>
<path d="M297.187 127.604C297.215 128.211 297.423 128.796 297.784 129.285C298.145 129.773 298.642 130.144 299.214 130.351C299.785 130.557 300.405 130.589 300.995 130.442C301.585 130.296 302.118 129.978 302.527 129.529C302.936 129.08 303.203 128.52 303.294 127.919C303.384 127.318 303.295 126.704 303.036 126.154C302.778 125.604 302.362 125.143 301.842 124.83C301.321 124.516 300.719 124.364 300.112 124.392C299.299 124.43 298.533 124.79 297.985 125.392C297.436 125.994 297.149 126.79 297.187 127.604Z" fill="#333333"/>
<path d="M270.913 130.567C270.942 131.174 271.15 131.759 271.511 132.247C271.872 132.736 272.37 133.106 272.941 133.312C273.513 133.518 274.132 133.55 274.722 133.403C275.312 133.257 275.845 132.939 276.254 132.489C276.662 132.04 276.929 131.48 277.019 130.879C277.11 130.278 277.02 129.664 276.762 129.114C276.503 128.565 276.087 128.104 275.567 127.79C275.047 127.477 274.445 127.325 273.838 127.353C273.024 127.392 272.259 127.752 271.71 128.355C271.162 128.957 270.875 129.753 270.913 130.567Z" fill="#333333"/>
<path d="M302.339 148.402C299.211 151.13 295.142 153.258 291.104 153.759C286.734 154.311 282.875 152.979 279.156 150.687C282.619 153.596 286.629 155.07 291.201 154.558C295.655 153.969 299.817 151.402 302.339 148.402Z" fill="#F99893"/>
<path d="M293.328 120.666C297.658 119.329 300.11 119.254 302.087 119.501C306.406 120.081 308.842 121.989 310.342 122.65C308.525 119.303 305.732 117.526 302.36 117.098C298.706 116.653 295.131 118.316 293.328 120.666Z" fill="#07085B"/>
<path d="M279.796 122.188C277.576 120.227 273.752 119.293 270.247 120.435C267.031 121.501 264.632 123.788 263.493 127.422C264.848 126.49 266.854 124.138 270.978 122.729C272.865 122.121 275.28 121.716 279.796 122.188Z" fill="#07085B"/>
<path d="M279.16 180.814C279.16 180.814 248.163 184.75 240.291 191.146C232.418 197.541 194.534 291.528 194.534 291.528L226.023 328.427L292.937 328.921C292.937 328.921 343.121 355.98 374.609 330.395C406.098 304.81 389.86 215.759 371.656 196.57C353.452 177.381 320.981 177.872 320.981 177.872C320.981 177.872 291.46 198.526 279.16 180.814Z" fill="#02CCC0"/>
<path d="M339.185 227.549C338.076 232.673 337.398 237.869 336.914 243.084C336.646 245.69 336.532 248.308 336.383 250.926C336.304 253.548 336.243 256.168 336.278 258.795C336.38 264.04 336.667 269.304 337.571 274.5C338.474 279.696 339.732 284.865 342.136 289.541C340.519 284.552 339.716 279.426 339.136 274.286C338.556 269.146 338.367 263.954 338.3 258.767C338.192 253.581 338.321 248.382 338.484 243.181C338.647 237.981 338.907 232.782 339.185 227.549Z" fill="white"/>
<path d="M246.442 224.111C245.023 231.732 243.526 239.327 242 246.908C240.475 254.489 238.835 262.047 237 269.54C235.164 277.032 233.173 284.497 230.737 291.805C229.53 295.461 228.131 299.051 226.545 302.559C224.97 306.066 223.102 309.459 220.599 312.427C223.447 309.767 225.541 306.397 227.434 303.001C229.258 299.555 230.855 295.993 232.214 292.339C233.611 288.701 234.799 284.995 235.94 281.276C237.032 277.549 238.036 273.788 238.968 270.017C239.857 266.237 240.71 262.448 241.476 258.644C242.242 254.841 242.941 251.024 243.551 247.192C244.814 239.539 245.799 231.839 246.442 224.111Z" fill="white"/>
<path d="M230.865 307.149C231.061 305.59 242.888 303.851 247.234 303.627C250.527 303.457 272.357 302.728 279.782 302.393L279.237 304.3L279.349 312.734L280.569 318.323C274.048 318.736 258.129 319.36 254.812 320.014C250.387 320.89 242.701 324.232 242.701 324.232C242.701 324.232 239.506 323.505 243.568 321.752C246.041 320.667 248.261 319.081 250.089 317.094C250.646 316.472 250.042 315.361 249.637 315.463C238.581 318.361 237.442 318.838 237.442 318.838C237.442 318.838 224.448 318.766 237.37 315.845C245.114 314.096 247.89 313.078 248.58 312.21C248.873 311.839 248.347 310.579 247.881 310.549C241.169 310.137 229.125 312.515 232.425 310.954C235.115 309.683 243.586 308.287 246.882 307.763C247.084 307.731 247.411 306.503 246.512 306.429C240.111 305.886 230.681 308.6 230.865 307.149Z" fill="#FFC0BB"/>
<path d="M338.612 290.248C335.898 290.896 333.145 291.366 330.42 291.942C324.935 292.941 319.434 293.805 313.914 294.587C308.39 295.312 302.858 295.985 297.31 296.516C291.763 297.047 286.166 297.534 280.697 297.839L279.961 297.881L279.798 298.517C279.349 300.334 279.012 302.177 278.79 304.036C278.564 305.885 278.455 307.747 278.464 309.61C278.48 311.483 278.641 313.352 278.946 315.2C279.292 317.047 279.838 318.851 280.576 320.58L280.639 320.731L280.758 320.81L286.837 324.886C288.861 326.246 290.894 327.597 292.946 328.92C291.041 327.392 289.12 325.887 287.184 324.404L281.531 320.039C280.943 318.404 280.531 316.71 280.301 314.988C280.08 313.211 279.993 311.42 280.041 309.631C280.107 307.838 280.27 306.05 280.527 304.274C280.752 302.731 281.055 301.2 281.436 299.688C284.058 299.602 286.571 299.432 289.147 299.246C291.942 299.038 294.737 298.817 297.532 298.524C303.103 297.948 308.665 297.252 314.198 296.369C319.732 295.486 325.236 294.396 330.69 293.108C333.406 292.41 336.126 291.744 338.8 290.901C341.497 290.144 344.138 289.198 346.77 288.262C344.027 288.916 341.344 289.678 338.612 290.248Z" fill="white"/>
<path d="M101.12 244.529H206.587C208.168 244.529 209.714 244.999 211.027 245.88C212.34 246.761 213.362 248.013 213.961 249.476L246.251 328.294H304.554C305.337 328.294 306.088 328.604 306.641 329.158C307.195 329.711 307.507 330.462 307.507 331.245C307.507 332.028 307.196 332.779 306.642 333.333C306.088 333.887 305.337 334.198 304.554 334.198H136.219C134.698 334.198 133.209 333.759 131.932 332.932C130.654 332.106 129.643 330.928 129.02 329.54L95.0766 253.866C94.6236 252.858 94.4304 251.751 94.5146 250.649C94.5988 249.546 94.9577 248.482 95.5586 247.554C96.1595 246.625 96.9833 245.862 97.9548 245.334C98.9263 244.806 100.015 244.529 101.12 244.529Z" fill="#07085B"/>
<path d="M254.1 91.4763C254.1 91.4763 243.766 91.8094 254.61 83.0731C265.454 74.3368 294.569 64.0867 313.23 73.9432C313.23 73.9432 316.956 66.0081 322.357 67.904C327.758 69.7998 318.85 75.2545 318.85 75.2545C318.85 75.2545 325.739 75.0332 327.84 78.4127C329.393 80.9118 325.175 81.0212 322.87 80.9071C326.792 81.5755 341.826 91.0688 334.282 121.384C331.601 120.794 316.318 98.6335 316.318 98.6335C316.318 98.6335 281.366 118.051 284.822 102.612C284.822 102.612 248.615 125.203 253.75 106.541C253.757 106.541 239.757 107.568 254.1 91.4763Z" fill="#07085B"/>
<path d="M334.319 121.576C334.319 121.576 331.424 120.558 328.313 123.029C325.201 125.5 325.543 134.178 325.543 134.178C325.543 134.178 310.696 143.748 312.254 103.209C313.919 60.0888 324.647 106.67 324.647 106.67L334.319 121.576Z" fill="#07085B"/>
<g style="mix-blend-mode:multiply" opacity="0.3">
<path d="M136.045 82.8555H27.8299C26.035 82.8561 24.3138 83.5694 23.0447 84.8385C21.7755 86.1077 21.0623 87.8288 21.0616 89.6237V134.283C21.0616 136.078 21.7747 137.8 23.044 139.069C24.3133 140.338 26.0348 141.052 27.8299 141.052H113.027C116.474 145.861 122.727 154.479 123.274 154.479C123.789 154.479 122.795 146.341 122.094 141.052H136.04C137.835 141.052 139.557 140.338 140.826 139.069C142.095 137.8 142.808 136.078 142.808 134.283V89.6237C142.808 87.8296 142.095 86.1092 140.827 84.8402C139.559 83.5711 137.839 82.8573 136.045 82.8555Z" fill="#DAEEF7"/>
</g>
<path d="M131.575 71.2695H23.3604C21.5653 71.2695 19.8438 71.9826 18.5745 73.2519C17.3052 74.5212 16.5922 76.2427 16.5922 78.0378V122.7C16.5922 124.495 17.3052 126.216 18.5745 127.486C19.8438 128.755 21.5653 129.468 23.3604 129.468H108.559C112.006 134.28 118.258 142.895 118.807 142.895C119.357 142.895 118.33 134.757 117.629 129.468H131.573C132.462 129.469 133.343 129.294 134.164 128.954C134.986 128.614 135.733 128.116 136.362 127.487C136.991 126.859 137.49 126.112 137.83 125.291C138.17 124.469 138.346 123.589 138.346 122.7V78.0424C138.346 77.153 138.172 76.2722 137.832 75.4504C137.492 74.6285 136.993 73.8817 136.364 73.2527C135.735 72.6237 134.989 72.1248 134.167 71.7845C133.345 71.4442 132.465 71.2692 131.575 71.2695Z" fill="#FF5B7E"/>
<path d="M46.7311 115.579C55.3522 111.924 59.3783 101.973 55.7237 93.352C52.0691 84.7309 42.1178 80.7048 33.4967 84.3594C24.8757 88.0139 20.8496 97.9653 24.5042 106.586C28.1587 115.207 38.1101 119.233 46.7311 115.579Z" fill="white"/>
<path d="M30.9764 100.816C30.9764 100.816 29.2948 93.9125 33.3054 91.3272C37.3161 88.742 41.5922 88.1504 44.5175 89.6386C48.5724 91.7045 50.2377 97.2849 48.9427 100.371L38.1965 97.6692L30.9764 100.816Z" fill="#040744"/>
<path d="M42.5029 108.92H37.5211V113.895H42.5029V108.92Z" fill="#FFC0BB"/>
<path d="M42.5029 111.901V108.92H37.5211V111.456C38.5948 112.027 40.1832 112.362 42.5029 111.901Z" fill="#F99893"/>
<path d="M50.3588 100.016C50.0946 99.8962 49.806 99.8396 49.5161 99.8509C49.2262 99.8623 48.9429 99.9411 48.6889 100.081C48.7314 98.906 48.5309 97.7346 48.1 96.6403C47.6691 95.5461 47.017 94.5525 46.1846 93.7218C45.3521 92.8911 44.3572 92.2411 43.262 91.8125C42.1668 91.3839 40.995 91.1859 39.8198 91.2309C38.6445 91.1859 37.4726 91.3839 36.3773 91.8125C35.2821 92.2411 34.287 92.891 33.4543 93.7217C32.6217 94.5524 31.9694 95.5459 31.5382 96.6402C31.107 97.7344 30.9063 98.9059 30.9485 100.081C30.6944 99.9411 30.4111 99.8623 30.1212 99.8509C29.8313 99.8396 29.5427 99.8962 29.2785 100.016C28.2817 100.507 27.9719 101.914 28.5798 103.158C29.1877 104.402 30.5013 105.021 31.4981 104.523C31.6345 104.455 31.7607 104.369 31.8731 104.267C32.4437 108.324 35.8325 111.366 39.8128 111.31C43.7909 111.366 47.1796 108.324 47.7526 104.267C47.8637 104.37 47.9892 104.456 48.1252 104.523C49.1221 105.014 50.4287 104.404 51.0435 103.158C51.6584 101.912 51.3556 100.507 50.3588 100.016Z" fill="#FFC0BB"/>
<path d="M43.0875 105.814C42.8685 106.8 41.7436 107.573 40.3625 107.615C38.9813 107.657 37.8005 106.953 37.5303 105.984L43.0875 105.814Z" fill="white"/>
<path d="M30.9485 100.081C30.9485 100.081 37.4698 98.106 40.3206 94.8081C40.3206 94.8081 39.5147 98.7815 38.9115 99.415C39.1025 99.5431 45.4329 96.4687 46.283 93.6319C47.1331 90.7951 39.8268 89.7773 39.8268 89.7773C39.8268 89.7773 37.3161 90.844 37.1903 90.9093C37.0646 90.9745 34.7099 91.247 34.4397 91.8409C34.088 92.6234 32.4274 92.6933 32.4274 92.6933L31.377 94.8756L30.6434 97.1721L30.9485 100.081Z" fill="#040744"/>
<path d="M25.6056 91.1009C27.0473 91.6808 28.7102 91.9487 30.4337 91.4176C34.2394 90.2531 35.7463 90.7026 36.2563 90.9891C36.4043 91.08 36.5698 91.1386 36.742 91.1611C36.9142 91.1836 37.0892 91.1694 37.2555 91.1195C37.6305 90.9938 37.9798 90.6537 37.8704 89.7989C37.8704 89.7989 38.0218 86.1819 34.9218 84.123C31.0921 85.2805 27.7933 87.7513 25.6056 91.1009Z" fill="#040744"/>
<path d="M33.7946 90.8637C33.7675 90.8285 33.7479 90.7881 33.7372 90.7451C33.7264 90.702 33.7247 90.6572 33.7321 90.6134C33.7396 90.5697 33.756 90.5279 33.7804 90.4908C33.8048 90.4537 33.8365 90.4221 33.8738 90.3979C34.5096 89.981 36.1446 89.04 38.108 88.9399C38.1517 88.9376 38.1955 88.9444 38.2365 88.9597C38.2776 88.975 38.3151 88.9985 38.3467 89.0288C38.3783 89.0592 38.4034 89.0956 38.4205 89.136C38.4375 89.1764 38.4461 89.2198 38.4457 89.2636C38.4452 89.3463 38.4131 89.4257 38.3559 89.4855C38.2987 89.5452 38.2209 89.5809 38.1383 89.585C36.3449 89.6782 34.8077 90.5632 34.2278 90.9405C34.1593 90.9852 34.0764 91.0021 33.996 90.9878C33.9155 90.9736 33.8435 90.9292 33.7946 90.8637Z" fill="#FEB546"/>
<path d="M82.155 85.7539H60.7627C60.3935 85.7539 60.0942 86.0532 60.0942 86.4223V88.0341C60.0942 88.4032 60.3935 88.7025 60.7627 88.7025H82.155C82.5242 88.7025 82.8235 88.4032 82.8235 88.0341V86.4223C82.8235 86.0532 82.5242 85.7539 82.155 85.7539Z" fill="white"/>
<path d="M74.7789 93.5332H60.7627C60.3935 93.5332 60.0942 93.8325 60.0942 94.2016V95.8133C60.0942 96.1825 60.3935 96.4818 60.7627 96.4818H74.7789C75.1481 96.4818 75.4474 96.1825 75.4474 95.8133V94.2016C75.4474 93.8325 75.1481 93.5332 74.7789 93.5332Z" fill="white"/>
<path d="M96.3203 93.5332H78.7639C78.3947 93.5332 78.0955 93.8325 78.0955 94.2016V95.8133C78.0955 96.1825 78.3947 96.4818 78.7639 96.4818H96.3203C96.6895 96.4818 96.9887 96.1825 96.9887 95.8133V94.2016C96.9887 93.8325 96.6895 93.5332 96.3203 93.5332Z" fill="white"/>
<path d="M124.439 85.7539H87.2603C86.8911 85.7539 86.5919 86.0532 86.5919 86.4223V88.0341C86.5919 88.4032 86.8911 88.7025 87.2603 88.7025H124.439C124.808 88.7025 125.107 88.4032 125.107 88.0341V86.4223C125.107 86.0532 124.808 85.7539 124.439 85.7539Z" fill="white"/>
<path d="M124.439 108.783H60.7627C60.3935 108.783 60.0942 109.082 60.0942 109.452V111.063C60.0942 111.433 60.3935 111.732 60.7627 111.732H124.439C124.808 111.732 125.107 111.433 125.107 111.063V109.452C125.107 109.082 124.808 108.783 124.439 108.783Z" fill="white"/>
<path d="M93.0107 101.314H60.7627C60.3935 101.314 60.0942 101.614 60.0942 101.983V103.595C60.0942 103.964 60.3935 104.263 60.7627 104.263H93.0107C93.3799 104.263 93.6792 103.964 93.6792 103.595V101.983C93.6792 101.614 93.3799 101.314 93.0107 101.314Z" fill="white"/>
<path d="M124.439 101.314H99.2619C98.8927 101.314 98.5934 101.614 98.5934 101.983V103.595C98.5934 103.964 98.8927 104.263 99.2619 104.263H124.439C124.808 104.263 125.107 103.964 125.107 103.595V101.983C125.107 101.614 124.808 101.314 124.439 101.314Z" fill="white"/>
<path d="M161.884 298.462C165.485 297.703 167.562 293.094 166.523 288.167C165.484 283.241 161.722 279.863 158.122 280.623C154.521 281.382 152.444 285.991 153.483 290.918C154.522 295.844 158.283 299.222 161.884 298.462Z" fill="white"/>
<path d="M124.688 22.5927L126.945 39.5948L114.871 30.777L77.9161 11.9023L106.501 14.5202C106.501 14.5202 121.062 18.0557 121.849 18.7707C122.636 19.4857 124.688 22.5927 124.688 22.5927Z" fill="#C12F56"/>
<path d="M137.347 12.3355L77.9161 11.9023L124.688 22.602L137.347 12.3355Z" fill="#FF5B7E"/>
<path d="M105.583 39.7019L121.157 27.1926L77.9161 11.9023L105.583 39.7019Z" fill="#FF5B7E"/>
<path d="M198.202 114.472L197.417 113.308C198.635 112.476 199.733 111.48 200.678 110.348L201.75 111.249C200.722 112.482 199.528 113.567 198.202 114.472Z" fill="#FEB546"/>
<path d="M206.056 103.065L204.721 102.646C205.579 99.8105 206.113 96.8876 206.314 93.9326L207.712 94.0397C207.502 97.101 206.947 100.129 206.056 103.065ZM207.663 84.8982L206.266 85.0379C206.226 84.6536 206.182 84.2717 206.13 83.8874C205.955 82.5713 205.708 81.2658 205.39 79.9769C205.096 78.7844 204.735 77.585 204.318 76.4111L205.639 75.9453C206.07 77.1634 206.443 78.4071 206.748 79.6438C207.078 80.9804 207.336 82.3341 207.519 83.6987C207.574 84.0784 207.621 84.4883 207.663 84.8935V84.8982ZM200.483 68.4155C198.924 65.8792 197.148 63.483 195.175 61.2536L196.225 60.322C198.249 62.6085 200.072 65.0646 201.675 67.6632L200.483 68.4155ZM156.745 65.0989C155.793 65.3318 153.366 65.3877 151.808 64.4584C150.586 63.7023 149.61 62.6064 149.001 61.3049L150.259 60.69C150.746 61.7474 151.533 62.6382 152.523 63.252C153.648 63.9227 155.651 63.9227 156.41 63.7364C156.458 63.7257 156.506 63.7109 156.552 63.6922L156.75 63.5617L157.528 64.7263C157.449 64.7798 157.367 64.8311 157.295 64.8823C157.125 64.9845 156.939 65.0577 156.745 65.0989ZM188.791 55.0164C186.516 53.0827 184.123 51.2936 181.624 49.6596L182.39 48.4951C184.937 50.1591 187.377 51.9809 189.697 53.9497L188.791 55.0164ZM162.57 56.8657L161.201 56.5792C161.38 55.7189 161.472 54.8426 161.476 53.9637C161.474 52.6925 161.318 51.4263 161.01 50.193C160.833 49.4822 160.615 48.7824 160.358 48.0968L161.667 47.6031C161.943 48.3396 162.176 49.0916 162.365 49.8553C162.702 51.1997 162.873 52.5801 162.875 53.966C162.876 54.9401 162.777 55.9117 162.58 56.8657H162.57ZM150.266 52.5593L149.003 51.9561C150.273 49.3033 152.655 46.9789 155.541 45.5815L155.734 45.4883L156.331 46.7553L156.154 46.8415C153.554 48.1038 151.409 50.1883 150.275 52.5593H150.266ZM173.486 46.2825C170.948 45.5069 168.933 45.0365 167.957 44.9899C166.837 44.9363 165.815 44.9247 164.829 44.9549L164.787 43.5575C165.81 43.5249 166.867 43.5365 168.025 43.5924C169.511 43.6623 172.341 44.4705 173.894 44.9456L173.486 46.2825ZM155.828 40.6182C153.912 38.3771 151.675 36.4315 149.19 34.8445L149.944 33.666C152.545 35.3265 154.886 37.3632 156.89 39.7099L155.828 40.6182Z" fill="#FEB546"/>
<path d="M141.162 31.2605C139.712 30.8589 138.232 30.58 136.736 30.4267L136.878 29.0293C138.453 29.1919 140.011 29.4848 141.537 29.905L141.162 31.2605Z" fill="#FEB546"/>
<path d="M76.9496 229.158C76.9496 229.158 76.4349 234.238 72.4266 234.59C76.4349 234.941 76.9496 240.019 76.9496 240.019C76.9496 240.019 77.4643 234.941 81.4726 234.59C77.4643 234.238 76.9496 229.158 76.9496 229.158Z" fill="#FF5B7E"/>
<path d="M227.826 156.762C227.826 156.762 227.003 164.848 220.622 165.407C227.003 165.966 227.826 174.055 227.826 174.055C227.826 174.055 228.645 165.966 235.027 165.407C228.645 164.848 227.826 156.762 227.826 156.762Z" fill="#02CCC0"/>
<path d="M7.20143 59.0781C7.20143 59.0781 6.3816 67.1646 0 67.7236C6.3816 68.2825 7.20143 76.3713 7.20143 76.3713C7.20143 76.3713 8.02126 68.2825 14.4029 67.7236C8.02126 67.1646 7.20143 59.0781 7.20143 59.0781Z" fill="#02CCC0"/>
<path d="M161.496 126.725C161.496 126.725 160.872 133.891 156.005 134.385C160.872 134.881 161.496 142.047 161.496 142.047C161.496 142.047 162.123 134.881 166.993 134.387C162.123 133.891 161.496 126.725 161.496 126.725Z" fill="#FEB546"/>
<path d="M35.2269 21.9746C35.2269 21.9746 34.6027 29.1388 29.735 29.6349C34.6027 30.131 35.2269 37.2951 35.2269 37.2951C35.2269 37.2951 35.8534 30.131 40.7211 29.6349C35.8534 29.1388 35.2269 21.9746 35.2269 21.9746Z" fill="#FEB546"/>
<path d="M386.613 83.5105C412.202 83.5105 432.945 64.8161 432.945 41.7553C432.945 18.6945 412.202 0 386.613 0C361.025 0 340.282 18.6945 340.282 41.7553C340.282 64.8161 361.025 83.5105 386.613 83.5105Z" fill="#E6F7FF"/>
<path d="M358.113 89.7578C358.113 92.7715 355.402 95.2124 352.057 95.2124C348.713 95.2124 346.002 92.7715 346.002 89.7578C346.002 86.744 348.713 84.3008 352.057 84.3008C355.402 84.3008 358.113 86.744 358.113 89.7578Z" fill="#E6F7FF"/>
<path d="M407.584 34.8445C406.604 29.4108 402.861 24.9996 397.166 24.5967C390.021 24.0796 387.212 30.5311 386.7 31.118C386.371 30.7291 384.892 26.9001 380.877 25.1231C374.295 22.2164 366.316 26.7231 365.417 36.3258C364.951 41.303 366.411 45.083 369.239 49.0494C373.298 54.7439 380.372 60.8903 386.008 65.0453C386.044 65.0818 386.087 65.1108 386.135 65.1305C386.183 65.1503 386.234 65.1604 386.285 65.1604C386.337 65.1604 386.387 65.1503 386.435 65.1305C386.483 65.1108 386.526 65.0818 386.562 65.0453C389.59 62.7629 399.838 55.7035 405.106 47.4959C407.589 43.6049 408.415 39.3877 407.584 34.8445Z" fill="#FF5B7E"/>
</g>
<defs>
<clipPath id="clip0_2_1941">
<rect width="432.945" height="341.383" fill="white"/>
</clipPath>
</defs>
</svg>
