<svg width="120" height="120" viewBox="0 0 120 120" fill="none" xmlns="http://www.w3.org/2000/svg">
<circle cx="60" cy="60" r="60" fill="#F8FAFC"/>
<circle cx="60" cy="60.0004" r="49.0141" fill="#FF6B5C"/>
<path d="M50.4377 46.8545L60.5328 56.9492L70.5755 46.9068C70.7973 46.6707 71.0646 46.4819 71.3612 46.3515C71.6578 46.2212 71.9777 46.1521 72.3016 46.1484C72.9952 46.1484 73.6604 46.424 74.1509 46.9144C74.6414 47.4049 74.9169 48.07 74.9169 48.7636C74.923 49.0843 74.8635 49.4027 74.7421 49.6996C74.6207 49.9964 74.4399 50.2652 74.2108 50.4897L64.0373 60.532L74.2108 70.7051C74.6418 71.1267 74.8946 71.6977 74.9169 72.3003C74.9169 72.9939 74.6414 73.6591 74.1509 74.1495C73.6604 74.64 72.9952 74.9155 72.3016 74.9155C71.9683 74.9293 71.6358 74.8737 71.3251 74.7521C71.0144 74.6306 70.7325 74.4458 70.4971 74.2094L60.5328 64.1148L50.4639 74.1833C50.2429 74.4115 49.9789 74.5937 49.6871 74.7194C49.3954 74.8451 49.0816 74.9117 48.7639 74.9155C48.0703 74.9155 47.4051 74.64 46.9146 74.1495C46.4242 73.6591 46.1486 72.9939 46.1486 72.3003C46.1425 71.9797 46.202 71.6612 46.3234 71.3644C46.4449 71.0676 46.6257 70.7987 46.8547 70.5743L57.0283 60.532L46.8547 50.3589C46.4237 49.9372 46.171 49.3662 46.1486 48.7636C46.1486 48.07 46.4242 47.4049 46.9146 46.9144C47.4051 46.424 48.0703 46.1484 48.7639 46.1484C49.3916 46.1563 49.9931 46.41 50.4377 46.8545Z" fill="white"/>
</svg>
