<svg width="55" height="56" viewBox="0 0 55 56" fill="none" xmlns="http://www.w3.org/2000/svg">
<path d="M15.1592 30.3203H27.1603V42.9531H15.1592V30.3203Z" fill="#FF5811"/>
<path d="M2.52625 41.6914H15.1591V54.3242H2.52625V41.6914Z" fill="white"/>
<path d="M27.4764 55.5844C32.9107 55.5844 38.223 53.9544 42.7414 50.9005C47.2599 47.8467 50.7816 43.5061 52.8612 38.4278C54.9409 33.3494 55.485 27.7614 54.4248 22.3702C53.3646 16.979 50.7477 12.027 46.9051 8.14015C43.0625 4.25335 38.1667 1.6064 32.8368 0.53403C27.5069 -0.538337 21.9823 0.0120405 16.9616 2.11556C11.941 4.21909 7.64978 7.78128 4.63064 12.3517C1.6115 16.9221 3.71724e-05 22.2954 3.69321e-05 27.7922L12.9209 27.7922C12.9209 24.8803 13.7746 22.0338 15.374 19.6126C16.9733 17.1915 19.2466 15.3045 21.9063 14.1901C24.5659 13.0758 27.4925 12.7842 30.316 13.3523C33.1395 13.9204 35.733 15.3226 37.7687 17.3816C39.8043 19.4406 41.1906 22.064 41.7522 24.9199C42.3138 27.7759 42.0256 30.7361 40.9239 33.4263C39.8222 36.1166 37.9566 38.416 35.563 40.0337C33.1693 41.6515 30.3552 42.515 27.4764 42.515L27.4764 55.5844Z" fill="white"/>
</svg>
