<svg width="1146" height="345" viewBox="0 0 1146 345" fill="none" xmlns="http://www.w3.org/2000/svg">
<rect width="1146" height="345" rx="28" fill="#23113D"/>
<path d="M940.932 140.453L969.327 134.59L995.661 265.731L965.755 271.904L940.932 140.453Z" fill="#FFC000"/>
<path d="M969.076 271.228C997.806 265.294 1015.04 231.16 1007.57 194.989C1000.1 158.818 970.751 134.306 942.021 140.24C913.291 146.174 896.056 180.307 903.527 216.478C910.998 252.65 940.345 277.162 969.076 271.228Z" fill="#FFC000"/>
<path d="M944.804 179.852L907.034 187.636C906.683 190.067 906.443 192.538 906.333 195.06L946.245 186.815L944.804 179.852Z" fill="#FF8F00"/>
<path d="M947.925 219.508L946.484 212.504L909.114 220.218C909.734 222.559 910.455 224.831 911.255 227.052L947.925 219.508Z" fill="#FF8F00"/>
<path d="M936.259 198.133L906.453 204.286C906.613 206.637 906.873 209.009 907.253 211.4L937.7 205.107L936.259 198.133Z" fill="#FF8F00"/>
<path d="M953.338 161.625L911.785 170.21C910.713 172.763 909.798 175.379 909.044 178.044L954.779 168.599L953.338 161.625Z" fill="#FF8F00"/>
<path d="M917.319 159.784L963.344 150.289L961.903 143.285L924.683 150.979C921.919 153.642 919.45 156.594 917.319 159.784Z" fill="#FF8F00"/>
<path d="M977.402 255.047L938.681 263.051C941.887 265.134 945.308 266.865 948.886 268.214L978.842 262.031L977.402 255.047Z" fill="#FF8F00"/>
<path d="M965.415 241.316L924.053 249.861C925.821 252.006 927.716 254.044 929.726 255.964L966.856 248.29L965.415 241.316Z" fill="#FF8F00"/>
<path d="M958.411 233.832L956.97 226.828L914.857 235.523C915.978 237.784 917.189 239.965 918.489 242.046L958.411 233.832Z" fill="#FF8F00"/>
<path d="M995.66 265.731C1024.39 259.797 1041.62 225.664 1034.15 189.493C1026.68 153.322 997.336 128.81 968.605 134.744C939.875 140.678 922.641 174.811 930.112 210.982C937.583 247.153 966.93 271.666 995.66 265.731Z" fill="#FFC000"/>
<path d="M936.979 159.285C930.796 170.371 927.674 184.179 928.524 198.847L1016.93 254.567C1025.79 246.312 1031.94 234.406 1034.54 220.789L936.979 159.285Z" fill="#FFD660"/>
<path d="M940.701 153.453L1035.58 213.266C1036.17 206.486 1035.9 199.659 1034.79 192.945L953.008 141.387C948.24 144.668 944.076 148.75 940.701 153.453Z" fill="#FFD660"/>
<path d="M993.193 253.79C1016.69 248.938 1030.78 221.029 1024.67 191.455C1018.56 161.88 994.565 141.839 971.073 146.691C947.581 151.543 933.489 179.451 939.597 209.026C945.706 238.6 969.702 258.642 993.193 253.79Z" fill="#F18800"/>
<path d="M944.124 168.809C938.521 180.055 936.569 194.332 939.601 209.02C939.751 209.731 939.921 210.441 940.091 211.152L1002.44 250.453C1013.38 244.69 1021.27 233.304 1024.45 219.436L944.124 168.809Z" fill="#FFA421"/>
<path d="M960.182 150.93C955.195 153.958 950.916 158.021 947.635 162.846L1025.68 212.073C1026.4 205.238 1026.06 198.333 1024.68 191.602L960.182 150.93Z" fill="#FFA421"/>
<path d="M972.019 146.516C993.78 145.275 1014.84 164.526 1020.52 191.94C1026.62 221.506 1012.51 249.422 989.048 254.274L988.097 254.434C989.809 254.346 991.511 254.129 993.19 253.784C1016.68 248.931 1030.77 221.026 1024.67 191.45C1018.63 162.264 995.201 142.383 972.019 146.516Z" fill="#FF8F00"/>
<path d="M1002.95 206.53C1003.52 211.333 1001.71 215.949 997.552 220.378C993.75 224.26 990.081 226.398 986.546 226.791L987.547 236.477L983.765 236.887L982.704 227.201C980.005 227.502 977.279 227.462 974.59 227.081C971.543 226.701 968.58 225.815 965.825 224.46L964.504 212.363L969.167 211.853C969.341 215.02 970.379 218.079 972.168 220.698C973.863 222.812 977.224 223.513 982.254 222.799L979.712 199.526C975.464 199.637 971.332 198.136 968.146 195.324C966.502 193.992 965.142 192.344 964.146 190.478C963.149 188.612 962.536 186.565 962.343 184.458C961.78 180.157 962.903 175.805 965.475 172.312C967.979 168.81 971.759 166.435 976 165.698L975.64 162.406L979.422 161.996L979.782 165.288C980.832 165.175 981.888 165.132 982.944 165.158C984.091 165.158 985.362 165.218 986.756 165.338C989.342 165.56 991.9 166.039 994.39 166.769L995.601 177.875L991.749 178.295C991.839 176.701 991.483 175.113 990.721 173.71C989.96 172.307 988.822 171.144 987.437 170.351C985.267 169.043 982.682 168.606 980.203 169.13L982.494 190.141C985.302 189.828 988.637 190.572 992.499 192.373C995.381 193.535 997.884 195.473 999.73 197.973C1001.58 200.472 1002.69 203.434 1002.95 206.53ZM978.652 189.841L976.421 169.42C974.226 169.7 972.155 171.034 970.207 173.422C969.302 174.432 968.617 175.618 968.195 176.907C967.773 178.195 967.623 179.557 967.756 180.906C967.878 182.212 968.274 183.477 968.917 184.62C969.56 185.763 970.436 186.758 971.488 187.54C973.48 189.219 976.054 190.046 978.652 189.841ZM996.051 209.422C995.575 206.617 994.065 204.093 991.819 202.348C990.7 201.372 989.386 200.645 987.965 200.216C986.543 199.786 985.047 199.664 983.574 199.857L986.036 222.389C987.572 222.218 989.054 221.724 990.385 220.94C991.717 220.155 992.867 219.097 993.76 217.836C994.739 216.69 995.452 215.34 995.848 213.886C996.244 212.431 996.313 210.907 996.051 209.422Z" fill="#FF8F00"/>
<path d="M1005.71 206.229C1006.28 211.032 1004.48 215.645 1000.31 220.067C996.512 223.962 992.843 226.104 989.308 226.491L990.368 236.176L986.576 236.586L985.526 226.901C982.826 227.201 980.1 227.161 977.411 226.781C974.363 226.403 971.401 225.517 968.646 224.159L967.326 212.053L971.978 211.552C972.153 214.719 973.191 217.778 974.98 220.397C976.681 222.512 980.046 223.212 985.075 222.498L982.534 199.226C978.283 199.338 974.147 197.836 970.958 195.023C969.324 193.685 967.972 192.035 966.981 190.17C965.99 188.304 965.379 186.261 965.184 184.158C964.627 179.857 965.749 175.506 968.316 172.011C970.822 168.512 974.602 166.137 978.842 165.397L978.482 162.106L982.264 161.695L982.624 164.987C983.674 164.875 984.73 164.831 985.786 164.857C986.936 164.857 988.207 164.937 989.608 165.037C992.19 165.26 994.744 165.739 997.232 166.468L998.363 177.574L994.52 177.994C994.606 176.4 994.247 174.813 993.484 173.41C992.721 172.007 991.583 170.844 990.198 170.05C988.028 168.742 985.443 168.305 982.964 168.829L985.255 189.841C988.064 189.527 991.399 190.271 995.261 192.072C998.141 193.235 1000.64 195.175 1002.49 197.674C1004.33 200.173 1005.44 203.135 1005.71 206.229ZM981.403 189.54L979.182 169.119C976.991 169.399 974.91 170.74 972.959 173.122C972.052 174.136 971.365 175.327 970.943 176.621C970.521 177.914 970.373 179.282 970.507 180.636C970.628 181.941 971.024 183.207 971.669 184.348C972.314 185.49 973.193 186.482 974.249 187.259C976.239 188.936 978.811 189.756 981.403 189.54ZM998.803 209.121C998.331 206.317 996.824 203.793 994.58 202.047C993.464 201.074 992.154 200.348 990.736 199.918C989.318 199.489 987.825 199.365 986.356 199.556L988.817 222.088C990.354 221.915 991.837 221.42 993.17 220.636C994.502 219.852 995.655 218.795 996.552 217.536C997.524 216.386 998.23 215.035 998.619 213.58C999.008 212.126 999.071 210.603 998.803 209.121Z" fill="#FFC000"/>
<path d="M985.266 189.812V189.712L981.153 187.12L981.414 189.542C978.818 189.752 976.246 188.924 974.26 187.24C973.204 186.466 972.324 185.478 971.678 184.34C971.031 183.202 970.632 181.94 970.508 180.637C970.508 180.567 970.508 180.507 970.508 180.437L965.645 177.375C965.034 179.588 964.857 181.898 965.125 184.179C965.318 186.282 965.929 188.326 966.92 190.192C967.911 192.057 969.263 193.707 970.898 195.045C974.087 197.858 978.223 199.359 982.474 199.247L985.016 222.52C979.986 223.227 976.621 222.526 974.92 220.418C973.131 217.799 972.093 214.741 971.918 211.574L967.266 212.074L968.577 224.08L968.887 224.27C971.555 225.553 974.414 226.394 977.351 226.762C980.04 227.142 982.767 227.183 985.466 226.882L986.376 235.306L988.107 236.397L990.308 236.157L989.248 226.472C992.81 226.085 996.478 223.944 1000.25 220.048C1004.42 215.626 1006.21 211.013 1005.65 206.211C1005.49 204.776 1005.17 203.364 1004.71 201.998L985.356 189.802L985.266 189.812ZM998.803 209.122C999.065 210.606 998.996 212.13 998.602 213.584C998.208 215.039 997.497 216.388 996.522 217.537C995.625 218.796 994.472 219.853 993.14 220.637C991.807 221.422 990.324 221.916 988.788 222.089L986.356 199.557C987.83 199.36 989.329 199.481 990.753 199.91C992.176 200.34 993.492 201.069 994.611 202.048C996.843 203.799 998.339 206.323 998.803 209.122Z" fill="#FFD660"/>
<path d="M990.729 165.167C990.328 165.167 989.928 165.067 989.538 165.037C988.137 164.937 986.866 164.877 985.716 164.857C984.66 164.831 983.604 164.875 982.554 164.987L982.194 161.695L978.412 162.106L978.772 165.397C974.88 166.083 971.366 168.15 968.877 171.22L972.619 173.572L972.959 173.132C974.91 170.74 976.961 169.399 979.182 169.129L980.183 178.354L984.295 180.946L982.974 168.839C985.453 168.316 988.039 168.752 990.208 170.06C991.594 170.854 992.731 172.017 993.494 173.42C994.257 174.823 994.616 176.41 994.531 178.004L998.373 177.584L997.482 169.44L990.729 165.167Z" fill="#FFD660"/>
<path d="M114.853 242.705C159.506 242.705 195.705 206.506 195.705 161.853C195.705 117.199 159.506 81 114.853 81C70.199 81 34 117.199 34 161.853C34 206.506 70.199 242.705 114.853 242.705Z" fill="#FFC000"/>
<path d="M45.4449 169.279C43.4788 150.873 48.9021 132.44 60.5226 118.032C72.1431 103.624 89.0096 94.4205 107.414 92.4444C145.743 88.3443 178.872 121.203 182.96 159.533C187.048 197.862 164.088 225.941 125.759 230.053C87.4293 234.165 49.5098 207.608 45.4449 169.279Z" fill="#FF8F00"/>
<path d="M123.807 224.688C158.515 219.742 182.643 187.596 177.697 152.888C172.751 118.179 140.604 94.0518 105.896 98.9977C71.1874 103.944 47.0601 136.09 52.006 170.798C56.9519 205.507 89.0982 229.634 123.807 224.688Z" fill="white"/>
<path d="M115.93 172.895C115.715 172.893 115.506 172.823 115.333 172.696L96.3673 157.807C96.2484 157.738 96.1457 157.644 96.0661 157.532C95.9864 157.421 95.9317 157.293 95.9055 157.158C95.8794 157.023 95.8825 156.884 95.9146 156.751C95.9467 156.617 96.0071 156.492 96.0916 156.384C96.1762 156.276 96.283 156.187 96.4048 156.123C96.5266 156.06 96.6606 156.023 96.7977 156.016C96.9349 156.009 97.072 156.031 97.1998 156.081C97.3276 156.132 97.4432 156.209 97.5387 156.307L115.743 170.599L144.396 134.882C144.465 134.763 144.559 134.66 144.67 134.58C144.782 134.501 144.91 134.446 145.045 134.42C145.18 134.394 145.319 134.397 145.452 134.429C145.586 134.461 145.711 134.521 145.819 134.606C145.927 134.691 146.016 134.797 146.079 134.919C146.143 135.041 146.18 135.175 146.187 135.312C146.194 135.449 146.172 135.586 146.122 135.714C146.071 135.842 145.994 135.958 145.896 136.053L116.739 172.508C116.648 172.636 116.526 172.738 116.384 172.806C116.243 172.873 116.087 172.904 115.93 172.895Z" fill="#522D34"/>
<path d="M110.296 119.937C110.139 119.94 109.986 119.884 109.869 119.78C109.751 119.676 109.678 119.531 109.663 119.374L108.292 106.57C108.281 106.487 108.287 106.402 108.309 106.321C108.331 106.24 108.37 106.164 108.423 106.098C108.475 106.033 108.541 105.978 108.615 105.939C108.689 105.899 108.771 105.875 108.855 105.868C108.938 105.858 109.022 105.865 109.103 105.888C109.183 105.911 109.258 105.95 109.324 106.002C109.389 106.054 109.443 106.119 109.484 106.192C109.524 106.266 109.549 106.347 109.558 106.43L110.928 119.222C110.938 119.305 110.931 119.389 110.908 119.47C110.885 119.55 110.846 119.626 110.794 119.691C110.742 119.756 110.677 119.811 110.603 119.851C110.53 119.891 110.449 119.916 110.366 119.925L110.296 119.937Z" fill="#522D34"/>
<path d="M120.967 219.167C120.808 219.168 120.654 219.11 120.535 219.004C120.416 218.898 120.34 218.751 120.323 218.593L118.952 205.801C118.936 205.632 118.987 205.463 119.094 205.331C119.202 205.2 119.357 205.116 119.526 205.098C119.609 205.088 119.694 205.095 119.774 205.118C119.855 205.141 119.93 205.18 119.995 205.232C120.061 205.285 120.115 205.349 120.155 205.423C120.195 205.496 120.22 205.577 120.229 205.66L121.6 218.464C121.616 218.633 121.565 218.802 121.457 218.934C121.35 219.065 121.195 219.149 121.026 219.167H120.967Z" fill="#522D34"/>
<path d="M158.137 158.523C157.97 158.532 157.805 158.474 157.68 158.362C157.555 158.25 157.479 158.093 157.47 157.925C157.46 157.758 157.518 157.593 157.63 157.468C157.742 157.343 157.899 157.267 158.067 157.258L170.871 155.887C170.954 155.877 171.038 155.884 171.119 155.907C171.199 155.93 171.274 155.969 171.34 156.021C171.405 156.074 171.46 156.138 171.5 156.212C171.54 156.285 171.565 156.366 171.574 156.449C171.59 156.619 171.539 156.787 171.431 156.919C171.324 157.051 171.169 157.135 171 157.152L158.196 158.523H158.137Z" fill="#522D34"/>
<path d="M58.8815 169.147C58.7234 169.147 58.5708 169.089 58.4537 168.982C58.3366 168.876 58.2636 168.73 58.2489 168.573C58.2324 168.405 58.2819 168.238 58.387 168.107C58.4921 167.975 58.6443 167.89 58.8112 167.87L71.6151 166.499C71.7842 166.483 71.953 166.534 72.0847 166.641C72.2163 166.749 72.3002 166.904 72.3179 167.073C72.3277 167.156 72.3208 167.241 72.2978 167.321C72.2747 167.402 72.2359 167.477 72.1836 167.542C72.1313 167.607 72.0665 167.662 71.9931 167.702C71.9196 167.742 71.8389 167.767 71.7556 167.776L58.9518 169.147H58.8815Z" fill="#522D34"/>
<path d="M49.2516 179.294C51.5945 187.295 54.8862 193.352 51.3133 194.406C47.7404 195.46 42.9727 189.79 40.6532 181.778C38.3338 173.765 39.3529 166.444 42.9258 165.378C46.4987 164.312 46.9321 171.282 49.2516 179.294Z" fill="white"/>
<path d="M170.167 210.925C171.889 215.119 161.967 226.154 145.567 232.89C129.167 239.625 112.615 239.414 110.893 235.232C109.171 231.05 120.475 230.43 136.84 223.717C153.205 217.005 168.434 206.72 170.167 210.925Z" fill="#FF8F00"/>
<path d="M181.226 132.756C183.815 132.077 189.333 137.981 191.769 147.071C194.206 156.162 192.566 165.006 189.965 165.685C187.365 166.365 188.056 160.32 185.643 151.23C183.23 142.139 178.626 133.447 181.226 132.756Z" fill="#FF8F00"/>
<rect width="1146" height="345" rx="28" fill="#170B29" fill-opacity="0.84"/>
</svg>
