<svg width="502" height="36" viewBox="0 0 502 36" fill="none" xmlns="http://www.w3.org/2000/svg">
<path d="M0 0H502V35.1843H0V0Z" fill="#FBDA37"/>
<path d="M409.864 11.8203C411.423 11.8203 412.684 12.319 413.645 13.3164C414.606 14.3138 415.087 15.683 415.087 17.4239V25.7749H412.149V17.7231C412.149 16.7076 411.877 15.9278 411.333 15.3838C410.789 14.8397 410.045 14.5677 409.102 14.5677C408.069 14.5677 407.234 14.8941 406.6 15.547C405.965 16.1817 405.648 17.161 405.648 18.4848V25.7749H402.71V12.1739H405.648V13.9149C406.536 12.5185 407.942 11.8203 409.864 11.8203Z" fill="black"/>
<path d="M392.872 26.1285C390.877 26.1285 389.182 25.4394 387.785 24.0612C386.389 22.683 385.691 20.9874 385.691 18.9744C385.691 16.9615 386.389 15.2659 387.785 13.8877C389.182 12.5094 390.877 11.8203 392.872 11.8203C394.885 11.8203 396.581 12.5094 397.959 13.8877C399.355 15.2659 400.053 16.9615 400.053 18.9744C400.053 20.9874 399.355 22.683 397.959 24.0612C396.581 25.4394 394.885 26.1285 392.872 26.1285ZM389.853 22.0483C390.669 22.8643 391.675 23.2723 392.872 23.2723C394.069 23.2723 395.075 22.8643 395.891 22.0483C396.707 21.2322 397.115 20.2076 397.115 18.9744C397.115 17.7413 396.707 16.7167 395.891 15.9006C395.075 15.0845 394.069 14.6765 392.872 14.6765C391.675 14.6765 390.669 15.0845 389.853 15.9006C389.037 16.7167 388.628 17.7413 388.628 18.9744C388.628 20.2076 389.037 21.2322 389.853 22.0483Z" fill="black"/>
<path d="M382.878 9.58874C382.515 9.95143 382.08 10.1328 381.572 10.1328C381.065 10.1328 380.62 9.95143 380.24 9.58874C379.877 9.20791 379.695 8.76361 379.695 8.25584C379.695 7.74807 379.877 7.31284 380.24 6.95015C380.602 6.56932 381.047 6.37891 381.572 6.37891C382.098 6.37891 382.543 6.56932 382.905 6.95015C383.268 7.31284 383.449 7.74807 383.449 8.25584C383.449 8.76361 383.259 9.20791 382.878 9.58874ZM380.104 25.7739V12.1729H383.041V25.7739H380.104Z" fill="black"/>
<path d="M377.439 15.0025H374.066V21.531C374.066 22.0932 374.193 22.5012 374.447 22.7551C374.701 22.9908 375.072 23.1268 375.562 23.1631C376.07 23.1812 376.695 23.1722 377.439 23.1359V25.7745C375.19 26.0465 373.576 25.8561 372.597 25.2033C371.618 24.5323 371.128 23.3082 371.128 21.531V15.0025H368.625V12.1735H371.128V9.2357L374.066 8.36523V12.1735H377.439V15.0025Z" fill="black"/>
<path d="M363.487 12.1739H366.425V25.7749H363.487V23.8164C362.381 25.3578 360.794 26.1285 358.727 26.1285C356.859 26.1285 355.263 25.4394 353.94 24.0612C352.616 22.6648 351.954 20.9692 351.954 18.9744C351.954 16.9615 352.616 15.2659 353.94 13.8877C355.263 12.5094 356.859 11.8203 358.727 11.8203C360.794 11.8203 362.381 12.582 363.487 14.1053V12.1739ZM356.116 22.1027C356.932 22.9187 357.956 23.3267 359.19 23.3267C360.423 23.3267 361.447 22.9187 362.263 22.1027C363.079 21.2685 363.487 20.2257 363.487 18.9744C363.487 17.7231 363.079 16.6895 362.263 15.8734C361.447 15.0392 360.423 14.6221 359.19 14.6221C357.956 14.6221 356.932 15.0392 356.116 15.8734C355.3 16.6895 354.892 17.7231 354.892 18.9744C354.892 20.2257 355.3 21.2685 356.116 22.1027Z" fill="black"/>
<path d="M344.191 23.0002H350.801V25.7748H340.192V23.8163L346.557 14.9484H340.464V12.1738H350.529V14.1324L344.191 23.0002Z" fill="black"/>
<path d="M337.108 9.58874C336.745 9.95143 336.31 10.1328 335.802 10.1328C335.294 10.1328 334.85 9.95143 334.469 9.58874C334.106 9.20791 333.925 8.76361 333.925 8.25584C333.925 7.74807 334.106 7.31284 334.469 6.95015C334.832 6.56932 335.276 6.37891 335.802 6.37891C336.328 6.37891 336.772 6.56932 337.135 6.95015C337.497 7.31284 337.679 7.74807 337.679 8.25584C337.679 8.76361 337.488 9.20791 337.108 9.58874ZM334.333 25.7739V12.1729H337.271V25.7739H334.333Z" fill="black"/>
<path d="M326.048 11.8203C327.589 11.8203 328.831 12.319 329.774 13.3164C330.717 14.3138 331.189 15.6558 331.189 17.3423V25.7749H328.251V17.5327C328.251 16.5897 328.015 15.8643 327.544 15.3566C327.072 14.8307 326.428 14.5677 325.612 14.5677C324.706 14.5677 323.98 14.8669 323.436 15.4654C322.91 16.0638 322.647 16.9615 322.647 18.1584V25.7749H319.71V17.5327C319.71 16.5897 319.483 15.8643 319.029 15.3566C318.594 14.8307 317.969 14.5677 317.153 14.5677C316.264 14.5677 315.539 14.876 314.976 15.4926C314.414 16.091 314.133 16.9796 314.133 18.1584V25.7749H311.195V12.1739H314.133V13.8061C315.004 12.4822 316.3 11.8203 318.023 11.8203C319.764 11.8203 321.051 12.5366 321.886 13.9693C322.792 12.5366 324.18 11.8203 326.048 11.8203Z" fill="black"/>
<path d="M307.621 9.58874C307.258 9.95143 306.823 10.1328 306.315 10.1328C305.808 10.1328 305.363 9.95143 304.983 9.58874C304.62 9.20791 304.438 8.76361 304.438 8.25584C304.438 7.74807 304.62 7.31284 304.983 6.95015C305.345 6.56932 305.79 6.37891 306.315 6.37891C306.841 6.37891 307.286 6.56932 307.648 6.95015C308.011 7.31284 308.192 7.74807 308.192 8.25584C308.192 8.76361 308.002 9.20791 307.621 9.58874ZM304.847 25.7739V12.1729H307.784V25.7739H304.847Z" fill="black"/>
<path d="M302.182 15.0025H298.809V21.531C298.809 22.0932 298.936 22.5012 299.19 22.7551C299.444 22.9908 299.815 23.1268 300.305 23.1631C300.813 23.1812 301.438 23.1722 302.182 23.1359V25.7745C299.933 26.0465 298.319 25.8561 297.34 25.2033C296.361 24.5323 295.871 23.3082 295.871 21.531V15.0025H293.368V12.1735H295.871V9.2357L298.809 8.36523V12.1735H302.182V15.0025Z" fill="black"/>
<path d="M285.422 11.8203C287.29 11.8203 288.886 12.5185 290.21 13.9149C291.534 15.2931 292.196 16.9796 292.196 18.9744C292.196 20.9874 291.534 22.683 290.21 24.0612C288.886 25.4394 287.29 26.1285 285.422 26.1285C283.355 26.1285 281.768 25.3669 280.662 23.8436V31.2153H277.724V12.1739H280.662V14.1325C281.768 12.591 283.355 11.8203 285.422 11.8203ZM281.886 22.1027C282.702 22.9187 283.727 23.3267 284.96 23.3267C286.193 23.3267 287.218 22.9187 288.034 22.1027C288.85 21.2685 289.258 20.2257 289.258 18.9744C289.258 17.7231 288.85 16.6895 288.034 15.8734C287.218 15.0392 286.193 14.6221 284.96 14.6221C283.727 14.6221 282.702 15.0392 281.886 15.8734C281.07 16.6895 280.662 17.7231 280.662 18.9744C280.662 20.2257 281.07 21.2685 281.886 22.1027Z" fill="black"/>
<path d="M272.178 23.2713C270.274 25.1755 267.943 26.1275 265.187 26.1275C262.43 26.1275 260.091 25.1755 258.169 23.2713C256.265 21.3491 255.312 19.0097 255.312 16.2532C255.312 13.4968 256.265 11.1665 258.169 9.26232C260.091 7.34004 262.43 6.37891 265.187 6.37891C267.943 6.37891 270.274 7.34004 272.178 9.26232C274.1 11.1665 275.061 13.4968 275.061 16.2532C275.061 19.0097 274.1 21.3491 272.178 23.2713ZM260.372 21.1496C261.678 22.4371 263.283 23.0809 265.187 23.0809C267.091 23.0809 268.687 22.4371 269.974 21.1496C271.28 19.8439 271.933 18.2118 271.933 16.2532C271.933 14.2947 271.28 12.6716 269.974 11.3841C268.687 10.0784 267.091 9.42553 265.187 9.42553C263.283 9.42553 261.678 10.0784 260.372 11.3841C259.085 12.6716 258.441 14.2947 258.441 16.2532C258.441 18.2118 259.085 19.8439 260.372 21.1496Z" fill="black"/>
<path d="M242.912 12.1739H245.849V25.7749H242.912V23.8164C241.805 25.3578 240.219 26.1285 238.151 26.1285C236.283 26.1285 234.688 25.4394 233.364 24.0612C232.04 22.6648 231.378 20.9692 231.378 18.9744C231.378 16.9615 232.04 15.2659 233.364 13.8877C234.688 12.5094 236.283 11.8203 238.151 11.8203C240.219 11.8203 241.805 12.582 242.912 14.1053V12.1739ZM235.54 22.1027C236.356 22.9187 237.381 23.3267 238.614 23.3267C239.847 23.3267 240.871 22.9187 241.687 22.1027C242.504 21.2685 242.912 20.2257 242.912 18.9744C242.912 17.7231 242.504 16.6895 241.687 15.8734C240.871 15.0392 239.847 14.6221 238.614 14.6221C237.381 14.6221 236.356 15.0392 235.54 15.8734C234.724 16.6895 234.316 17.7231 234.316 18.9744C234.316 20.2257 234.724 21.2685 235.54 22.1027Z" fill="black"/>
<path d="M228.565 9.58874C228.203 9.95143 227.767 10.1328 227.26 10.1328C226.752 10.1328 226.308 9.95143 225.927 9.58874C225.564 9.20791 225.383 8.76361 225.383 8.25584C225.383 7.74807 225.564 7.31284 225.927 6.95015C226.289 6.56932 226.734 6.37891 227.26 6.37891C227.786 6.37891 228.23 6.56932 228.593 6.95015C228.955 7.31284 229.137 7.74807 229.137 8.25584C229.137 8.76361 228.946 9.20791 228.565 9.58874ZM225.791 25.7739V12.1729H228.729V25.7739H225.791Z" fill="black"/>
<path d="M219.429 6.73242H222.366V25.7738H219.429V23.8153C218.322 25.3567 216.736 26.1274 214.668 26.1274C212.8 26.1274 211.205 25.4383 209.881 24.0601C208.557 22.6637 207.895 20.9681 207.895 18.9733C207.895 16.9604 208.557 15.2648 209.881 13.8865C211.205 12.5083 212.8 11.8192 214.668 11.8192C216.736 11.8192 218.322 12.5808 219.429 14.1042V6.73242ZM212.057 22.1015C212.873 22.9176 213.898 23.3256 215.131 23.3256C216.364 23.3256 217.388 22.9176 218.205 22.1015C219.021 21.2673 219.429 20.2246 219.429 18.9733C219.429 17.722 219.021 16.6883 218.205 15.8723C217.388 15.0381 216.364 14.621 215.131 14.621C213.898 14.621 212.873 15.0381 212.057 15.8723C211.241 16.6883 210.833 17.722 210.833 18.9733C210.833 20.2246 211.241 21.2673 212.057 22.1015Z" fill="black"/>
<path d="M195.216 20.2257C195.434 21.2594 195.932 22.0573 196.712 22.6195C197.492 23.1635 198.444 23.4356 199.568 23.4356C201.128 23.4356 202.298 22.8734 203.077 21.749L205.498 23.1635C204.156 25.1402 202.171 26.1285 199.541 26.1285C197.329 26.1285 195.543 25.4576 194.182 24.1156C192.822 22.7555 192.142 21.0418 192.142 18.9744C192.142 16.9434 192.813 15.2478 194.155 13.8877C195.497 12.5094 197.22 11.8203 199.324 11.8203C201.318 11.8203 202.951 12.5185 204.22 13.9149C205.508 15.3112 206.151 17.0068 206.151 19.0016C206.151 19.3099 206.115 19.718 206.042 20.2257H195.216ZM195.189 17.8319H203.186C202.987 16.7257 202.524 15.8915 201.799 15.3294C201.092 14.7672 200.258 14.4861 199.296 14.4861C198.208 14.4861 197.302 14.7853 196.576 15.3838C195.851 15.9822 195.388 16.7983 195.189 17.8319Z" fill="black"/>
<path d="M189.298 6.73242V25.7738H186.169V12.2L180.375 21.7751H179.995L174.201 12.1728V25.7738H171.072V6.73242H174.445L180.185 16.2531L185.952 6.73242H189.298Z" fill="black"/>
<path d="M157.733 25.7735V5.91602H160.67V25.7735H157.733Z" fill="black"/>
<path d="M151.371 12.1739H154.308V25.7749H151.371V23.8164C150.264 25.3578 148.678 26.1285 146.61 26.1285C144.742 26.1285 143.146 25.4394 141.823 24.0612C140.499 22.6648 139.837 20.9692 139.837 18.9744C139.837 16.9615 140.499 15.2659 141.823 13.8877C143.146 12.5094 144.742 11.8203 146.61 11.8203C148.678 11.8203 150.264 12.582 151.371 14.1053V12.1739ZM143.999 22.1027C144.815 22.9187 145.839 23.3267 147.073 23.3267C148.306 23.3267 149.33 22.9187 150.146 22.1027C150.963 21.2685 151.371 20.2257 151.371 18.9744C151.371 17.7231 150.963 16.6895 150.146 15.8734C149.33 15.0392 148.306 14.6221 147.073 14.6221C145.839 14.6221 144.815 15.0392 143.999 15.8734C143.183 16.6895 142.775 17.7231 142.775 18.9744C142.775 20.2257 143.183 21.2685 143.999 22.1027Z" fill="black"/>
<path d="M137.024 9.58874C136.662 9.95143 136.226 10.1328 135.719 10.1328C135.211 10.1328 134.767 9.95143 134.386 9.58874C134.023 9.20791 133.842 8.76361 133.842 8.25584C133.842 7.74807 134.023 7.31284 134.386 6.95015C134.748 6.56932 135.193 6.37891 135.719 6.37891C136.245 6.37891 136.689 6.56932 137.052 6.95015C137.414 7.31284 137.596 7.74807 137.596 8.25584C137.596 8.76361 137.405 9.20791 137.024 9.58874ZM134.25 25.7739V12.1729H137.188V25.7739H134.25Z" fill="black"/>
<path d="M126.006 26.1285C123.957 26.1285 122.243 25.4394 120.865 24.0612C119.505 22.683 118.824 20.9874 118.824 18.9744C118.824 16.9434 119.505 15.2478 120.865 13.8877C122.243 12.5094 123.957 11.8203 126.006 11.8203C127.33 11.8203 128.536 12.1377 129.624 12.7724C130.712 13.4071 131.528 14.2594 132.072 15.3294L129.542 16.7983C129.234 16.1454 128.762 15.6377 128.128 15.275C127.511 14.8941 126.795 14.7037 125.979 14.7037C124.782 14.7037 123.775 15.1118 122.959 15.9278C122.161 16.7439 121.762 17.7594 121.762 18.9744C121.762 20.1895 122.161 21.205 122.959 22.0211C123.775 22.8371 124.782 23.2451 125.979 23.2451C126.777 23.2451 127.493 23.0547 128.128 22.6739C128.78 22.2931 129.27 21.7853 129.596 21.1506L132.126 22.5923C131.546 23.6804 130.712 24.5418 129.624 25.1765C128.536 25.8112 127.33 26.1285 126.006 26.1285Z" fill="black"/>
<path d="M109.748 26.1285C107.754 26.1285 106.058 25.4394 104.662 24.0612C103.265 22.683 102.567 20.9874 102.567 18.9744C102.567 16.9615 103.265 15.2659 104.662 13.8877C106.058 12.5094 107.754 11.8203 109.748 11.8203C111.761 11.8203 113.457 12.5094 114.835 13.8877C116.232 15.2659 116.93 16.9615 116.93 18.9744C116.93 20.9874 116.232 22.683 114.835 24.0612C113.457 25.4394 111.761 26.1285 109.748 26.1285ZM106.729 22.0483C107.545 22.8643 108.552 23.2723 109.748 23.2723C110.945 23.2723 111.952 22.8643 112.768 22.0483C113.584 21.2322 113.992 20.2076 113.992 18.9744C113.992 17.7413 113.584 16.7167 112.768 15.9006C111.952 15.0845 110.945 14.6765 109.748 14.6765C108.552 14.6765 107.545 15.0845 106.729 15.9006C105.913 16.7167 105.505 17.7413 105.505 18.9744C105.505 20.2076 105.913 21.2322 106.729 22.0483Z" fill="black"/>
<path d="M93.706 26.1275C91.8744 26.1275 90.3149 25.7104 89.0273 24.8762C87.7579 24.0421 86.8693 22.8996 86.3615 21.4488L89.0545 19.8711C89.8162 22.011 91.3939 23.0809 93.7877 23.0809C94.9664 23.0809 95.8459 22.8542 96.4262 22.4009C97.0247 21.9294 97.3239 21.3219 97.3239 20.5783C97.3239 19.7985 97.0066 19.2092 96.3718 18.8102C95.7371 18.3931 94.6128 17.9397 92.9988 17.4501C92.0921 17.1781 91.3576 16.9242 90.7954 16.6885C90.2333 16.4527 89.6348 16.1263 89.0001 15.7092C88.3835 15.274 87.9211 14.739 87.6128 14.1043C87.3045 13.4696 87.1504 12.726 87.1504 11.8737C87.1504 10.1872 87.7488 8.85429 88.9457 7.87501C90.1426 6.87761 91.5843 6.37891 93.2708 6.37891C94.7941 6.37891 96.127 6.75067 97.2695 7.49419C98.412 8.23771 99.2915 9.26232 99.9081 10.568L97.2695 12.0913C96.4716 10.3141 95.1387 9.42553 93.2708 9.42553C92.3641 9.42553 91.6387 9.64314 91.0947 10.0784C90.5506 10.4955 90.2786 11.0667 90.2786 11.7921C90.2786 12.4994 90.5506 13.0615 91.0947 13.4786C91.6568 13.8776 92.6633 14.3037 94.1141 14.7571C94.8395 14.9929 95.3654 15.1742 95.6918 15.3012C96.0363 15.41 96.5078 15.5913 97.1063 15.8452C97.7229 16.0991 98.1853 16.353 98.4936 16.6068C98.8019 16.8607 99.1283 17.1781 99.4729 17.5589C99.8356 17.9397 100.089 18.375 100.235 18.8646C100.38 19.3542 100.452 19.9074 100.452 20.5239C100.452 22.2467 99.8265 23.6159 98.5752 24.6314C97.342 25.6288 95.719 26.1275 93.706 26.1275Z" fill="black"/>
</svg>
