<svg width="412" height="412" viewBox="0 0 412 412" fill="none" xmlns="http://www.w3.org/2000/svg">
<rect x="92" y="103" width="282" height="282" rx="141" fill="#4F2B89"/>
<path d="M74.8608 280.858C94.7152 315.638 127.572 341.106 166.205 351.66C204.837 362.214 246.079 356.989 280.858 337.134C315.638 317.28 341.106 284.423 351.66 245.791C362.214 207.159 356.989 165.916 337.134 131.137L205.998 205.998L74.8608 280.858Z" fill="#E1EAFC"/>
<path d="M143.434 361.171H312.398L321.644 89.4355H152.679L143.434 361.171Z" fill="#5C1C00"/>
<path d="M134.997 352.736H303.962L313.219 81H144.255L134.997 352.736Z" fill="#FF5811"/>
<path d="M216.26 156.891H224.524V165.59H216.26V156.891Z" fill="white"/>
<path d="M207.56 164.721H216.26V173.42H207.56V164.721Z" fill="white"/>
<path d="M224.742 174.292C228.484 174.292 232.143 173.17 235.254 171.067C238.366 168.964 240.791 165.975 242.223 162.477C243.655 158.98 244.03 155.132 243.3 151.419C242.57 147.706 240.768 144.296 238.122 141.619C235.475 138.943 232.104 137.12 228.433 136.381C224.763 135.643 220.958 136.022 217.501 137.471C214.043 138.919 211.088 141.372 209.009 144.52C206.93 147.667 205.82 151.368 205.82 155.153L214.718 155.153C214.718 153.148 215.306 151.187 216.407 149.52C217.509 147.853 219.074 146.553 220.906 145.786C222.737 145.018 224.753 144.818 226.697 145.209C228.642 145.6 230.428 146.566 231.83 147.984C233.231 149.402 234.186 151.208 234.573 153.175C234.96 155.142 234.761 157.18 234.003 159.033C233.244 160.886 231.959 162.469 230.311 163.583C228.662 164.697 226.724 165.292 224.742 165.292L224.742 174.292Z" fill="white"/>
<path d="M168.664 183.328C169.851 183.328 170.851 183.732 171.662 184.539C172.473 185.346 172.879 186.337 172.879 187.512C172.879 188.687 172.473 189.678 171.662 190.485C170.851 191.292 169.851 191.696 168.664 191.696H166.495V195.791H164.061V183.328H168.664ZM168.664 189.399C169.181 189.399 169.61 189.221 169.951 188.865C170.292 188.497 170.463 188.046 170.463 187.512C170.463 186.966 170.292 186.515 169.951 186.159C169.61 185.803 169.181 185.625 168.664 185.625H166.495V189.399H168.664Z" fill="white"/>
<path d="M175.486 185.821C175.109 185.821 174.78 185.684 174.498 185.411C174.228 185.127 174.093 184.794 174.093 184.414C174.093 184.035 174.228 183.702 174.498 183.418C174.78 183.133 175.109 182.99 175.486 182.99C175.874 182.99 176.203 183.133 176.473 183.418C176.755 183.702 176.896 184.035 176.896 184.414C176.896 184.794 176.755 185.127 176.473 185.411C176.203 185.684 175.874 185.821 175.486 185.821ZM174.357 195.791V186.889H176.632V195.791H174.357Z" fill="white"/>
<path d="M183.757 189.097H181.765V192.8C181.765 193.108 181.841 193.334 181.994 193.476C182.147 193.619 182.37 193.702 182.664 193.725C182.958 193.737 183.322 193.731 183.757 193.708V195.791C182.194 195.969 181.089 195.82 180.442 195.345C179.807 194.871 179.49 194.022 179.49 192.8V189.097H177.956V186.889H179.49V185.091L181.765 184.397V186.889H183.757V189.097Z" fill="white"/>
<path d="M189.283 196.04C187.954 196.04 186.843 195.589 185.95 194.687C185.068 193.785 184.627 192.669 184.627 191.34C184.627 190.011 185.068 188.895 185.95 187.993C186.843 187.091 187.954 186.64 189.283 186.64C190.141 186.64 190.923 186.848 191.628 187.263C192.334 187.678 192.868 188.236 193.233 188.936L191.276 190.094C191.099 189.726 190.829 189.435 190.464 189.221C190.112 189.008 189.712 188.901 189.265 188.901C188.583 188.901 188.019 189.132 187.572 189.595C187.126 190.046 186.902 190.628 186.902 191.34C186.902 192.04 187.126 192.622 187.572 193.085C188.019 193.536 188.583 193.761 189.265 193.761C189.724 193.761 190.129 193.66 190.482 193.458C190.846 193.245 191.117 192.954 191.293 192.586L193.268 193.725C192.88 194.426 192.334 194.989 191.628 195.417C190.923 195.832 190.141 196.04 189.283 196.04Z" fill="white"/>
<path d="M199.374 186.64C200.338 186.64 201.131 186.966 201.754 187.619C202.389 188.272 202.707 189.174 202.707 190.325V195.791H200.432V190.61C200.432 190.016 200.273 189.565 199.956 189.257C199.638 188.936 199.215 188.776 198.686 188.776C198.098 188.776 197.628 188.96 197.275 189.328C196.923 189.696 196.746 190.248 196.746 190.984V195.791H194.471V183.328H196.746V187.886C197.299 187.055 198.175 186.64 199.374 186.64Z" fill="white"/>
<path d="M209.357 183.328C210.545 183.328 211.544 183.732 212.355 184.539C213.166 185.346 213.572 186.337 213.572 187.512C213.572 188.687 213.166 189.678 212.355 190.485C211.544 191.292 210.545 191.696 209.357 191.696H207.188V195.791H204.755V183.328H209.357ZM209.357 189.399C209.875 189.399 210.304 189.221 210.645 188.865C210.986 188.497 211.156 188.046 211.156 187.512C211.156 186.966 210.986 186.515 210.645 186.159C210.304 185.803 209.875 185.625 209.357 185.625H207.188V189.399H209.357Z" fill="white"/>
<path d="M216.387 192.283C216.693 193.399 217.522 193.957 218.874 193.957C219.744 193.957 220.402 193.66 220.849 193.067L222.683 194.135C221.813 195.405 220.531 196.04 218.838 196.04C217.381 196.04 216.211 195.595 215.329 194.705C214.447 193.814 214.007 192.693 214.007 191.34C214.007 189.999 214.442 188.883 215.312 187.993C216.181 187.091 217.298 186.64 218.662 186.64C219.955 186.64 221.019 187.091 221.854 187.993C222.7 188.895 223.124 190.011 223.124 191.34C223.124 191.637 223.094 191.951 223.035 192.283H216.387ZM216.352 190.503H220.849C220.719 189.898 220.449 189.447 220.038 189.15C219.638 188.853 219.179 188.705 218.662 188.705C218.051 188.705 217.545 188.865 217.145 189.186C216.746 189.494 216.481 189.933 216.352 190.503Z" fill="white"/>
<path d="M226.986 188.42C227.198 187.85 227.545 187.423 228.027 187.138C228.521 186.853 229.067 186.711 229.667 186.711V189.275C228.973 189.192 228.35 189.334 227.798 189.702C227.257 190.07 226.986 190.681 226.986 191.536V195.791H224.712V186.889H226.986V188.42Z" fill="white"/>
<path d="M235.741 185.287C234.495 185.192 233.872 185.696 233.872 186.8V186.889H235.741V189.097H233.872V195.791H231.597V189.097H230.327V186.889H231.597V186.8C231.597 185.542 231.944 184.587 232.637 183.934C233.331 183.281 234.366 182.996 235.741 183.079V185.287Z" fill="white"/>
<path d="M238.379 192.283C238.684 193.399 239.513 193.957 240.865 193.957C241.735 193.957 242.393 193.66 242.84 193.067L244.674 194.135C243.804 195.405 242.523 196.04 240.83 196.04C239.372 196.04 238.202 195.595 237.321 194.705C236.439 193.814 235.998 192.693 235.998 191.34C235.998 189.999 236.433 188.883 237.303 187.993C238.173 187.091 239.29 186.64 240.653 186.64C241.947 186.64 243.011 187.091 243.845 187.993C244.692 188.895 245.115 190.011 245.115 191.34C245.115 191.637 245.086 191.951 245.027 192.283H238.379ZM238.343 190.503H242.84C242.711 189.898 242.44 189.447 242.029 189.15C241.629 188.853 241.171 188.705 240.653 188.705C240.042 188.705 239.537 188.865 239.137 189.186C238.737 189.494 238.473 189.933 238.343 190.503Z" fill="white"/>
<path d="M250.831 196.04C249.503 196.04 248.392 195.589 247.498 194.687C246.616 193.785 246.176 192.669 246.176 191.34C246.176 190.011 246.616 188.895 247.498 187.993C248.392 187.091 249.503 186.64 250.831 186.64C251.689 186.64 252.471 186.848 253.176 187.263C253.882 187.678 254.417 188.236 254.781 188.936L252.824 190.094C252.647 189.726 252.377 189.435 252.013 189.221C251.66 189.008 251.26 188.901 250.813 188.901C250.132 188.901 249.567 189.132 249.121 189.595C248.674 190.046 248.45 190.628 248.45 191.34C248.45 192.04 248.674 192.622 249.121 193.085C249.567 193.536 250.132 193.761 250.813 193.761C251.272 193.761 251.678 193.66 252.03 193.458C252.395 193.245 252.665 192.954 252.841 192.586L254.816 193.725C254.429 194.426 253.882 194.989 253.176 195.417C252.471 195.832 251.689 196.04 250.831 196.04Z" fill="white"/>
<path d="M261.063 189.097H259.07V192.8C259.07 193.108 259.147 193.334 259.3 193.476C259.452 193.619 259.676 193.702 259.97 193.725C260.264 193.737 260.628 193.731 261.063 193.708V195.791C259.499 195.969 258.394 195.82 257.748 195.345C257.113 194.871 256.796 194.022 256.796 192.8V189.097H255.261V186.889H256.796V185.091L259.07 184.397V186.889H261.063V189.097Z" fill="white"/>
<path d="M273.524 195.603L272.787 193.411H267.893L267.157 195.603H264.543L268.84 183.424H271.84L276.155 195.603H273.524ZM268.665 191.167H272.033L270.349 186.19L268.665 191.167Z" fill="white"/>
<path d="M277.347 183.424H279.767V195.603H277.347V183.424Z" fill="white"/>
<path d="M168.063 256.068H277.114V292.085H168.063V256.068Z" fill="white"/>
<path d="M187.839 272.921V273.737C187.839 275.37 187.301 276.708 186.224 277.751C185.147 278.783 183.741 279.299 182.006 279.299C180.169 279.299 178.649 278.704 177.448 277.513C176.257 276.323 175.662 274.86 175.662 273.125C175.662 271.402 176.257 269.945 177.448 268.754C178.649 267.552 180.135 266.951 181.904 266.951C183.015 266.951 184.03 267.206 184.948 267.717C185.867 268.227 186.581 268.913 187.091 269.774L185.407 270.744C185.09 270.177 184.619 269.723 183.996 269.383C183.372 269.032 182.675 268.856 181.904 268.856C180.656 268.856 179.63 269.264 178.825 270.081C178.02 270.897 177.618 271.917 177.618 273.142C177.618 274.367 178.02 275.381 178.825 276.186C179.642 276.992 180.707 277.394 182.023 277.394C183.077 277.394 183.933 277.15 184.591 276.663C185.26 276.164 185.685 275.5 185.867 274.673H181.887V272.921H187.839Z" fill="black"/>
<path d="M190.954 275.608C191.09 276.255 191.402 276.753 191.89 277.105C192.377 277.445 192.972 277.615 193.675 277.615C194.651 277.615 195.382 277.264 195.869 276.561L197.383 277.445C196.544 278.681 195.302 279.299 193.658 279.299C192.275 279.299 191.158 278.879 190.308 278.04C189.457 277.19 189.032 276.118 189.032 274.826C189.032 273.556 189.452 272.496 190.291 271.645C191.13 270.784 192.207 270.353 193.522 270.353C194.77 270.353 195.79 270.789 196.584 271.662C197.389 272.535 197.791 273.596 197.791 274.843C197.791 275.036 197.769 275.291 197.723 275.608H190.954ZM190.937 274.112H195.937C195.813 273.42 195.524 272.898 195.07 272.547C194.628 272.195 194.106 272.02 193.505 272.02C192.825 272.02 192.258 272.207 191.805 272.581C191.351 272.955 191.062 273.465 190.937 274.112Z" fill="black"/>
<path d="M203.887 272.343H201.778V276.425C201.778 276.776 201.857 277.031 202.016 277.19C202.175 277.337 202.407 277.422 202.714 277.445C203.031 277.456 203.422 277.451 203.887 277.428V279.078C202.481 279.248 201.472 279.129 200.86 278.721C200.247 278.301 199.941 277.536 199.941 276.425V272.343H198.377V270.574H199.941V268.737L201.778 268.193V270.574H203.887V272.343Z" fill="black"/>
<path d="M213.97 279.299C212.825 279.299 211.85 279.038 211.045 278.517C210.251 277.995 209.695 277.281 209.378 276.374L211.062 275.387C211.538 276.725 212.524 277.394 214.021 277.394C214.758 277.394 215.308 277.252 215.671 276.969C216.045 276.674 216.232 276.294 216.232 275.829C216.232 275.342 216.034 274.973 215.637 274.724C215.24 274.463 214.537 274.18 213.528 273.873C212.961 273.703 212.502 273.545 212.15 273.397C211.799 273.25 211.424 273.046 211.028 272.785C210.642 272.513 210.353 272.178 210.16 271.781C209.967 271.385 209.871 270.92 209.871 270.387C209.871 269.332 210.245 268.499 210.994 267.887C211.742 267.263 212.643 266.951 213.698 266.951C214.65 266.951 215.484 267.184 216.198 267.648C216.912 268.113 217.462 268.754 217.848 269.57L216.198 270.523C215.699 269.412 214.866 268.856 213.698 268.856C213.131 268.856 212.677 268.992 212.337 269.264C211.997 269.525 211.827 269.882 211.827 270.336C211.827 270.778 211.997 271.129 212.337 271.39C212.689 271.64 213.318 271.906 214.225 272.19C214.679 272.337 215.007 272.45 215.212 272.53C215.427 272.598 215.722 272.711 216.096 272.87C216.481 273.029 216.771 273.187 216.963 273.346C217.156 273.505 217.36 273.703 217.576 273.941C217.802 274.18 217.961 274.452 218.052 274.758C218.143 275.064 218.188 275.41 218.188 275.795C218.188 276.872 217.797 277.729 217.014 278.363C216.243 278.987 215.229 279.299 213.97 279.299Z" fill="black"/>
<path d="M224.25 272.343H222.141V276.425C222.141 276.776 222.22 277.031 222.379 277.19C222.538 277.337 222.77 277.422 223.077 277.445C223.394 277.456 223.785 277.451 224.25 277.428V279.078C222.844 279.248 221.835 279.129 221.223 278.721C220.61 278.301 220.304 277.536 220.304 276.425V272.343H218.74V270.574H220.304V268.737L222.141 268.193V270.574H224.25V272.343Z" fill="black"/>
<path d="M232.302 270.574H234.139V279.078H232.302V277.853C231.611 278.817 230.619 279.299 229.326 279.299C228.158 279.299 227.16 278.868 226.333 278.006C225.505 277.133 225.091 276.073 225.091 274.826C225.091 273.567 225.505 272.507 226.333 271.645C227.16 270.784 228.158 270.353 229.326 270.353C230.619 270.353 231.611 270.829 232.302 271.781V270.574ZM227.693 276.782C228.203 277.292 228.844 277.547 229.615 277.547C230.386 277.547 231.027 277.292 231.537 276.782C232.047 276.26 232.302 275.608 232.302 274.826C232.302 274.043 232.047 273.397 231.537 272.887C231.027 272.365 230.386 272.105 229.615 272.105C228.844 272.105 228.203 272.365 227.693 272.887C227.183 273.397 226.928 274.043 226.928 274.826C226.928 275.608 227.183 276.26 227.693 276.782Z" fill="black"/>
<path d="M238.117 272.003C238.582 270.948 239.455 270.421 240.736 270.421V272.411C240.033 272.365 239.421 272.535 238.899 272.921C238.378 273.295 238.117 273.919 238.117 274.792V279.078H236.28V270.574H238.117V272.003Z" fill="black"/>
<path d="M247.055 272.343H244.946V276.425C244.946 276.776 245.025 277.031 245.184 277.19C245.343 277.337 245.575 277.422 245.881 277.445C246.199 277.456 246.59 277.451 247.055 277.428V279.078C245.649 279.248 244.64 279.129 244.027 278.721C243.415 278.301 243.109 277.536 243.109 276.425V272.343H241.544V270.574H243.109V268.737L244.946 268.193V270.574H247.055V272.343Z" fill="black"/>
<path d="M249.818 275.608C249.954 276.255 250.265 276.753 250.753 277.105C251.241 277.445 251.836 277.615 252.539 277.615C253.514 277.615 254.245 277.264 254.733 276.561L256.247 277.445C255.407 278.681 254.166 279.299 252.522 279.299C251.138 279.299 250.022 278.879 249.171 278.04C248.321 277.19 247.896 276.118 247.896 274.826C247.896 273.556 248.315 272.496 249.154 271.645C249.993 270.784 251.07 270.353 252.386 270.353C253.633 270.353 254.653 270.789 255.447 271.662C256.252 272.535 256.655 273.596 256.655 274.843C256.655 275.036 256.632 275.291 256.587 275.608H249.818ZM249.801 274.112H254.801C254.676 273.42 254.387 272.898 253.933 272.547C253.491 272.195 252.97 272.02 252.369 272.02C251.688 272.02 251.121 272.207 250.668 272.581C250.214 272.955 249.925 273.465 249.801 274.112Z" fill="black"/>
<path d="M264.956 267.172H266.793V279.078H264.956V277.853C264.265 278.817 263.273 279.299 261.98 279.299C260.812 279.299 259.814 278.868 258.987 278.006C258.159 277.133 257.745 276.073 257.745 274.826C257.745 273.567 258.159 272.507 258.987 271.645C259.814 270.784 260.812 270.353 261.98 270.353C263.273 270.353 264.265 270.829 264.956 271.781V267.172ZM260.347 276.782C260.857 277.292 261.498 277.547 262.269 277.547C263.04 277.547 263.681 277.292 264.191 276.782C264.701 276.26 264.956 275.608 264.956 274.826C264.956 274.043 264.701 273.397 264.191 272.887C263.681 272.365 263.04 272.105 262.269 272.105C261.498 272.105 260.857 272.365 260.347 272.887C259.837 273.397 259.582 274.043 259.582 274.826C259.582 275.608 259.837 276.26 260.347 276.782Z" fill="black"/>
</svg>
