<svg width="279" height="228" viewBox="0 0 279 228" fill="none" xmlns="http://www.w3.org/2000/svg">
<path d="M231.236 178.435L209.983 167.104C207.798 165.993 205.675 164.765 203.624 163.424C200.822 161.472 196.732 159.545 198.83 155.34C200.927 151.134 205.033 152.929 208.276 153.795C211.644 154.757 214.926 155.997 218.088 157.502C232.489 163.839 246.877 170.234 261.253 176.689C265.145 178.3 268.874 180.278 272.39 182.598C279.543 187.669 279.424 192.786 271.803 197.083C261.742 202.758 251.354 207.855 241.082 213.122C236.783 215.472 232.361 217.587 227.834 219.459C225.046 220.169 222.189 220.566 219.313 220.643C218.284 214.563 221.729 213.17 224.702 211.445C232.299 207.083 239.896 202.743 247.469 198.339C250.549 196.714 253.221 194.414 255.286 191.609C251.43 191.313 247.567 190.819 243.72 190.763C214.297 190.215 184.868 189.727 155.434 189.297C112.704 188.665 69.9516 188.034 27.2172 187.294C23.3959 186.859 19.6189 186.097 15.9278 185.017C19.6196 179.006 24.205 180.15 28.0697 180.097C49.0769 179.879 70.1147 179.901 91.1274 179.836L226.729 179.473C228.252 179.224 229.757 178.877 231.236 178.435Z" fill="#FF5811"/>
<path d="M163.564 47.452L141.703 52.4706C139.489 53.0249 137.246 53.4584 134.985 53.7694C131.823 54.109 127.772 55.2529 126.677 51.0156C125.581 46.7782 129.565 45.5313 132.373 44.1585C135.328 42.7774 138.392 41.6439 141.534 40.7697C155.528 36.4263 169.549 32.1317 183.597 27.886C187.317 26.641 191.147 25.7535 195.035 25.2356C203.161 24.4301 206.203 28.1 203.472 35.7761C199.867 45.9115 195.679 55.8402 191.676 65.8184C190.09 70.0962 188.274 74.2849 186.235 78.3663C184.71 80.5682 182.944 82.5931 180.97 84.4035C176.532 80.7586 178.102 77.6755 179.139 74.6463C181.814 66.9395 184.502 59.2475 187.135 51.5249C188.307 48.5015 188.78 45.2519 188.518 42.0196C185.626 44.1665 182.61 46.1796 179.871 48.4898C158.855 66.0807 137.871 83.7158 116.919 101.395C86.4974 127.056 56.0613 152.731 25.5707 178.318C22.6191 180.347 19.4988 182.119 16.2443 183.615C15.1667 177.134 19.0889 175.137 21.773 172.738C36.4062 159.752 51.207 146.915 65.9375 134.032L161.031 50.9343C161.949 49.8289 162.795 48.6658 163.564 47.452Z" fill="#FF5811"/>
</svg>
