<svg width="49" height="49" viewBox="0 0 49 49" fill="none" xmlns="http://www.w3.org/2000/svg">
<circle cx="24.5" cy="24.5" r="24.5" fill="#DDF8E4"/>
<ellipse cx="23" cy="24.5" rx="14" ry="12.5" fill="white"/>
<path fill-rule="evenodd" clip-rule="evenodd" d="M9 24.5C9 20.3891 10.633 16.4467 13.5398 13.5398C16.4467 10.633 20.3891 9 24.5 9C28.6109 9 32.5533 10.633 35.4602 13.5398C38.367 16.4467 40 20.3891 40 24.5C40 28.6109 38.367 32.5533 35.4602 35.4602C32.5533 38.367 28.6109 40 24.5 40C20.3891 40 16.4467 38.367 13.5398 35.4602C10.633 32.5533 9 28.6109 9 24.5H9ZM23.6155 31.134L32.5393 19.9781L30.9273 18.6885L23.3179 28.1973L17.928 23.7064L16.6053 25.2936L23.6155 31.1361V31.134Z" fill="#3DA85B"/>
</svg>
