<svg width="48" height="48" viewBox="0 0 48 48" fill="none" xmlns="http://www.w3.org/2000/svg">
<circle cx="24" cy="24" r="24" fill="#FFC2C2"/>
<circle cx="24" cy="24" r="16" fill="#FF6C5C"/>
<path d="M20.491 21.2454L24 24.7543L27.4908 21.2636C27.5679 21.1815 27.6608 21.1159 27.7639 21.0706C27.867 21.0253 27.9782 21.0013 28.0908 21C28.3319 21 28.5631 21.0958 28.7336 21.2662C28.9041 21.4367 28.9999 21.6679 28.9999 21.909C29.002 22.0205 28.9813 22.1312 28.9391 22.2343C28.8969 22.3375 28.834 22.431 28.7544 22.509L25.2181 25.9996L28.7544 29.5358C28.9042 29.6823 28.9921 29.8808 28.9999 30.0903C28.9999 30.3313 28.9041 30.5626 28.7336 30.733C28.5631 30.9035 28.3319 30.9993 28.0908 30.9993C27.9749 31.0041 27.8593 30.9848 27.7514 30.9425C27.6434 30.9002 27.5454 30.836 27.4635 30.7538L24 27.245L20.5001 30.7448C20.4233 30.8241 20.3315 30.8874 20.2301 30.9311C20.1287 30.9748 20.0196 30.998 19.9092 30.9993C19.6681 30.9993 19.4369 30.9035 19.2664 30.733C19.0959 30.5626 19.0001 30.3313 19.0001 30.0903C18.998 29.9788 19.0187 29.8681 19.0609 29.7649C19.1031 29.6618 19.166 29.5683 19.2456 29.4903L22.7819 25.9996L19.2456 22.4635C19.0958 22.317 19.0079 22.1185 19.0001 21.909C19.0001 21.6679 19.0959 21.4367 19.2664 21.2662C19.4369 21.0958 19.6681 21 19.9092 21C20.1274 21.0027 20.3365 21.0909 20.491 21.2454Z" fill="white"/>
</svg>
