<svg width="357" height="261" viewBox="0 0 357 261" fill="none" xmlns="http://www.w3.org/2000/svg">
<g clip-path="url(#clip0_2_4259)">
<path d="M317.193 196.435H188.3C187.192 196.433 186.13 195.992 185.347 195.209C184.563 194.425 184.122 193.363 184.12 192.255V4.46875C184.122 3.36081 184.563 2.29878 185.347 1.51535C186.13 0.731913 187.192 0.290948 188.3 0.289062L317.193 0.289063C318.301 0.290948 319.363 0.731913 320.146 1.51535C320.93 2.29878 321.371 3.36081 321.373 4.46875V192.255C321.371 193.363 320.93 194.425 320.146 195.209C319.363 195.992 318.301 196.433 317.193 196.435ZM188.3 0.467377C187.239 0.469263 186.223 0.891441 185.473 1.64144C184.723 2.39143 184.301 3.4081 184.299 4.46875V192.255C184.301 193.316 184.723 194.333 185.473 195.083C186.223 195.833 187.239 196.255 188.3 196.257H317.193C318.254 196.255 319.27 195.833 320.02 195.083C320.77 194.333 321.192 193.316 321.194 192.255V4.46875C321.192 3.4081 320.77 2.39143 320.02 1.64144C319.27 0.891441 318.254 0.469263 317.193 0.467377H188.3Z" fill="#F0F0F0"/>
<path d="M168.529 196.435H39.6072C38.4992 196.433 37.4372 195.992 36.6538 195.209C35.8703 194.425 35.4294 193.363 35.4275 192.255V4.46875C35.4294 3.36081 35.8703 2.29878 36.6538 1.51535C37.4372 0.731913 38.4992 0.290948 39.6072 0.289063L168.529 0.289062C169.637 0.290948 170.699 0.731913 171.482 1.51535C172.265 2.29878 172.706 3.36081 172.708 4.46875V192.255C172.706 193.363 172.265 194.425 171.482 195.209C170.699 195.992 169.637 196.433 168.529 196.435ZM39.6072 0.467377C38.5465 0.469263 37.5299 0.891441 36.7799 1.64144C36.0299 2.39143 35.6077 3.4081 35.6058 4.46875V192.255C35.6077 193.316 36.0299 194.333 36.7799 195.083C37.5299 195.833 38.5465 196.255 39.6072 196.257H168.529C169.589 196.255 170.606 195.833 171.356 195.083C172.106 194.333 172.528 193.316 172.53 192.255V4.46875C172.528 3.4081 172.106 2.39143 171.356 1.64144C170.606 0.891441 169.589 0.469263 168.529 0.467377H39.6072Z" fill="#F0F0F0"/>
<path d="M356.629 239.992H-3.05176e-05V240.171H356.629V239.992Z" fill="#F0F0F0"/>
<path d="M126.047 141.763L126.047 17.6914L42.0465 17.6914L42.0465 141.763H126.047Z" fill="#F5F5F5"/>
<path d="M122.488 21.25H45.6128V138.196H122.488V21.25Z" fill="#FAFAFA"/>
<path d="M75.9833 138.182V75.0161H73.3514L68.8436 67.1988L64.8066 60.216V47.3203H63.8508V60.216L59.8138 67.1988L55.306 75.0161H52.6741V138.182H75.9833Z" fill="#F5F5F5"/>
<path d="M56.0193 58.9531H45.6128V138.182H56.0193V58.9531Z" fill="#F5F5F5"/>
<path d="M105.398 115.467V58L82.5739 67.3793V115.467H105.398Z" fill="#F5F5F5"/>
<path d="M122.488 75.0156H99.1856V138.182H122.488V75.0156Z" fill="#F0F0F0"/>
<path d="M105.434 78.875H101.818V80.5726H105.434V78.875Z" fill="#F5F5F5"/>
<path d="M112.645 78.875H109.029V80.5726H112.645V78.875Z" fill="#F5F5F5"/>
<path d="M119.863 78.875H116.247V80.5726H119.863V78.875Z" fill="#F5F5F5"/>
<path d="M105.434 83.0781H101.818V84.7757H105.434V83.0781Z" fill="#F5F5F5"/>
<path d="M112.645 83.0781H109.029V84.7757H112.645V83.0781Z" fill="#F5F5F5"/>
<path d="M119.863 83.0781H116.247V84.7757H119.863V83.0781Z" fill="#F5F5F5"/>
<path d="M105.434 87.2695H101.818V88.9671H105.434V87.2695Z" fill="#F5F5F5"/>
<path d="M112.645 87.2695H109.029V88.9671H112.645V87.2695Z" fill="#F5F5F5"/>
<path d="M119.863 87.2695H116.247V88.9671H119.863V87.2695Z" fill="#F5F5F5"/>
<path d="M105.434 91.4727H101.818V93.1702H105.434V91.4727Z" fill="#F5F5F5"/>
<path d="M112.645 91.4727H109.029V93.1702H112.645V91.4727Z" fill="#F5F5F5"/>
<path d="M119.863 91.4727H116.247V93.1702H119.863V91.4727Z" fill="#F5F5F5"/>
<path d="M105.434 95.6641H101.818V97.3616H105.434V95.6641Z" fill="#F5F5F5"/>
<path d="M112.645 95.6641H109.029V97.3616H112.645V95.6641Z" fill="#F5F5F5"/>
<path d="M119.863 95.6641H116.247V97.3616H119.863V95.6641Z" fill="#F5F5F5"/>
<path d="M105.434 99.8594H101.818V101.557H105.434V99.8594Z" fill="#F5F5F5"/>
<path d="M112.645 99.8594H109.029V101.557H112.645V99.8594Z" fill="#F5F5F5"/>
<path d="M119.863 99.8594H116.247V101.557H119.863V99.8594Z" fill="#F5F5F5"/>
<path d="M105.434 104.062H101.818V105.76H105.434V104.062Z" fill="#F5F5F5"/>
<path d="M112.645 104.062H109.029V105.76H112.645V104.062Z" fill="#F5F5F5"/>
<path d="M119.863 104.062H116.247V105.76H119.863V104.062Z" fill="#F5F5F5"/>
<path d="M105.434 108.254H101.818V109.951H105.434V108.254Z" fill="#F5F5F5"/>
<path d="M112.645 108.254H109.029V109.951H112.645V108.254Z" fill="#F5F5F5"/>
<path d="M119.863 108.254H116.247V109.951H119.863V108.254Z" fill="#F5F5F5"/>
<path d="M105.434 112.457H101.818V114.155H105.434V112.457Z" fill="#F5F5F5"/>
<path d="M112.645 112.457H109.029V114.155H112.645V112.457Z" fill="#F5F5F5"/>
<path d="M119.863 112.457H116.247V114.155H119.863V112.457Z" fill="#F5F5F5"/>
<path d="M105.434 116.648H101.818V118.346H105.434V116.648Z" fill="#F5F5F5"/>
<path d="M112.645 116.648H109.029V118.346H112.645V116.648Z" fill="#F5F5F5"/>
<path d="M119.863 116.648H116.247V118.346H119.863V116.648Z" fill="#F5F5F5"/>
<path d="M105.434 120.852H101.818V122.549H105.434V120.852Z" fill="#F5F5F5"/>
<path d="M112.645 120.852H109.029V122.549H112.645V120.852Z" fill="#F5F5F5"/>
<path d="M119.863 120.852H116.247V122.549H119.863V120.852Z" fill="#F5F5F5"/>
<path d="M105.434 125.047H101.818V126.744H105.434V125.047Z" fill="#F5F5F5"/>
<path d="M112.645 125.047H109.029V126.744H112.645V125.047Z" fill="#F5F5F5"/>
<path d="M119.863 125.047H116.247V126.744H119.863V125.047Z" fill="#F5F5F5"/>
<path d="M68.915 75.0156H45.6128V138.182H68.915V75.0156Z" fill="#F0F0F0"/>
<path d="M51.861 78.875H48.2448V80.5726H51.861V78.875Z" fill="#F5F5F5"/>
<path d="M59.072 78.875H55.4558V80.5726H59.072V78.875Z" fill="#F5F5F5"/>
<path d="M66.2902 78.875H62.674V80.5726H66.2902V78.875Z" fill="#F5F5F5"/>
<path d="M51.861 83.0781H48.2448V84.7757H51.861V83.0781Z" fill="#F5F5F5"/>
<path d="M59.072 83.0781H55.4558V84.7757H59.072V83.0781Z" fill="#F5F5F5"/>
<path d="M66.2902 83.0781H62.674V84.7757H66.2902V83.0781Z" fill="#F5F5F5"/>
<path d="M51.861 87.2695H48.2448V88.9671H51.861V87.2695Z" fill="#F5F5F5"/>
<path d="M59.072 87.2695H55.4558V88.9671H59.072V87.2695Z" fill="#F5F5F5"/>
<path d="M66.2902 87.2695H62.674V88.9671H66.2902V87.2695Z" fill="#F5F5F5"/>
<path d="M51.861 91.4727H48.2448V93.1702H51.861V91.4727Z" fill="#F5F5F5"/>
<path d="M59.072 91.4727H55.4558V93.1702H59.072V91.4727Z" fill="#F5F5F5"/>
<path d="M66.2902 91.4727H62.674V93.1702H66.2902V91.4727Z" fill="#F5F5F5"/>
<path d="M51.861 95.6641H48.2448V97.3616H51.861V95.6641Z" fill="#F5F5F5"/>
<path d="M59.072 95.6641H55.4558V97.3616H59.072V95.6641Z" fill="#F5F5F5"/>
<path d="M66.2902 95.6641H62.674V97.3616H66.2902V95.6641Z" fill="#F5F5F5"/>
<path d="M51.861 99.8594H48.2448V101.557H51.861V99.8594Z" fill="#F5F5F5"/>
<path d="M59.072 99.8594H55.4558V101.557H59.072V99.8594Z" fill="#F5F5F5"/>
<path d="M66.2902 99.8594H62.674V101.557H66.2902V99.8594Z" fill="#F5F5F5"/>
<path d="M51.861 104.062H48.2448V105.76H51.861V104.062Z" fill="#F5F5F5"/>
<path d="M59.072 104.062H55.4558V105.76H59.072V104.062Z" fill="#F5F5F5"/>
<path d="M66.2902 104.062H62.674V105.76H66.2902V104.062Z" fill="#F5F5F5"/>
<path d="M51.861 108.254H48.2448V109.951H51.861V108.254Z" fill="#F5F5F5"/>
<path d="M59.072 108.254H55.4558V109.951H59.072V108.254Z" fill="#F5F5F5"/>
<path d="M66.2902 108.254H62.674V109.951H66.2902V108.254Z" fill="#F5F5F5"/>
<path d="M51.861 112.457H48.2448V114.155H51.861V112.457Z" fill="#F5F5F5"/>
<path d="M59.072 112.457H55.4558V114.155H59.072V112.457Z" fill="#F5F5F5"/>
<path d="M66.2902 112.457H62.674V114.155H66.2902V112.457Z" fill="#F5F5F5"/>
<path d="M51.861 116.648H48.2448V118.346H51.861V116.648Z" fill="#F5F5F5"/>
<path d="M59.072 116.648H55.4558V118.346H59.072V116.648Z" fill="#F5F5F5"/>
<path d="M66.2902 116.648H62.674V118.346H66.2902V116.648Z" fill="#F5F5F5"/>
<path d="M51.861 120.852H48.2448V122.549H51.861V120.852Z" fill="#F5F5F5"/>
<path d="M59.072 120.852H55.4558V122.549H59.072V120.852Z" fill="#F5F5F5"/>
<path d="M66.2902 120.852H62.674V122.549H66.2902V120.852Z" fill="#F5F5F5"/>
<path d="M51.861 125.047H48.2448V126.744H51.861V125.047Z" fill="#F5F5F5"/>
<path d="M59.072 125.047H55.4558V126.744H59.072V125.047Z" fill="#F5F5F5"/>
<path d="M66.2902 125.047H62.674V126.744H66.2902V125.047Z" fill="#F5F5F5"/>
<path d="M110.84 75.0181H101.818L106.325 67.2008L110.84 59.3906L115.348 67.2008L119.856 75.0181H110.84Z" fill="#F0F0F0"/>
<path d="M111.311 47.3203H110.355V65.1304H111.311V47.3203Z" fill="#F0F0F0"/>
<path d="M97.2527 78.875H72.2744V138.182H97.2527V78.875Z" fill="#F0F0F0"/>
<path d="M83.5296 76.8516H74.1075V84.8971H83.5296V76.8516Z" fill="#F0F0F0"/>
<path d="M77.4812 76.2578H74.9562V83.4831H77.4812V76.2578Z" fill="#F0F0F0"/>
<path d="M82.7379 76.2578H80.213V83.4831H82.7379V76.2578Z" fill="#F0F0F0"/>
<path d="M95.655 76.8789H90.0417V82.4922H95.655V76.8789Z" fill="#F0F0F0"/>
<path d="M79.5568 83.9258H75.9406V85.6233H79.5568V83.9258Z" fill="#F5F5F5"/>
<path d="M86.7678 83.9258H83.1516V85.6233H86.7678V83.9258Z" fill="#F5F5F5"/>
<path d="M93.986 83.9258H90.3698V85.6233H93.986V83.9258Z" fill="#F5F5F5"/>
<path d="M79.5568 88.1211H75.9406V89.8186H79.5568V88.1211Z" fill="#F5F5F5"/>
<path d="M86.7678 88.1211H83.1516V89.8186H86.7678V88.1211Z" fill="#F5F5F5"/>
<path d="M93.986 88.1211H90.3698V89.8186H93.986V88.1211Z" fill="#F5F5F5"/>
<path d="M79.5568 92.3203H75.9406V94.0179H79.5568V92.3203Z" fill="#F5F5F5"/>
<path d="M86.7678 92.3203H83.1516V94.0179H86.7678V92.3203Z" fill="#F5F5F5"/>
<path d="M93.986 92.3203H90.3698V94.0179H93.986V92.3203Z" fill="#F5F5F5"/>
<path d="M79.5568 96.5156H75.9406V98.2132H79.5568V96.5156Z" fill="#F5F5F5"/>
<path d="M86.7678 96.5156H83.1516V98.2132H86.7678V96.5156Z" fill="#F5F5F5"/>
<path d="M93.986 96.5156H90.3698V98.2132H93.986V96.5156Z" fill="#F5F5F5"/>
<path d="M79.5568 100.707H75.9406V102.405H79.5568V100.707Z" fill="#F5F5F5"/>
<path d="M86.7678 100.707H83.1516V102.405H86.7678V100.707Z" fill="#F5F5F5"/>
<path d="M93.986 100.707H90.3698V102.405H93.986V100.707Z" fill="#F5F5F5"/>
<path d="M79.5568 104.91H75.9406V106.608H79.5568V104.91Z" fill="#F5F5F5"/>
<path d="M86.7678 104.91H83.1516V106.608H86.7678V104.91Z" fill="#F5F5F5"/>
<path d="M93.986 104.91H90.3698V106.608H93.986V104.91Z" fill="#F5F5F5"/>
<path d="M79.5568 109.105H75.9406V110.803H79.5568V109.105Z" fill="#F5F5F5"/>
<path d="M86.7678 109.105H83.1516V110.803H86.7678V109.105Z" fill="#F5F5F5"/>
<path d="M93.986 109.105H90.3698V110.803H93.986V109.105Z" fill="#F5F5F5"/>
<path d="M79.5568 113.305H75.9406V115.002H79.5568V113.305Z" fill="#F5F5F5"/>
<path d="M86.7678 113.305H83.1516V115.002H86.7678V113.305Z" fill="#F5F5F5"/>
<path d="M93.986 113.305H90.3698V115.002H93.986V113.305Z" fill="#F5F5F5"/>
<path d="M79.5568 117.5H75.9406V119.198H79.5568V117.5Z" fill="#F5F5F5"/>
<path d="M86.7678 117.5H83.1516V119.198H86.7678V117.5Z" fill="#F5F5F5"/>
<path d="M93.986 117.5H90.3698V119.198H93.986V117.5Z" fill="#F5F5F5"/>
<path d="M79.5568 121.699H75.9406V123.397H79.5568V121.699Z" fill="#F5F5F5"/>
<path d="M86.7678 121.699H83.1516V123.397H86.7678V121.699Z" fill="#F5F5F5"/>
<path d="M93.986 121.699H90.3698V123.397H93.986V121.699Z" fill="#F5F5F5"/>
<path d="M79.5568 125.895H75.9406V127.592H79.5568V125.895Z" fill="#F5F5F5"/>
<path d="M86.7678 125.895H83.1516V127.592H86.7678V125.895Z" fill="#F5F5F5"/>
<path d="M93.986 125.895H90.3698V127.592H93.986V125.895Z" fill="#F5F5F5"/>
<path d="M79.5568 130.094H75.9406V131.791H79.5568V130.094Z" fill="#F5F5F5"/>
<path d="M86.7678 130.094H83.1516V131.791H86.7678V130.094Z" fill="#F5F5F5"/>
<path d="M93.986 130.094H90.3698V131.791H93.986V130.094Z" fill="#F5F5F5"/>
<path opacity="0.2" d="M117.381 21.25L45.6128 93.018V72.412L96.7748 21.25H117.381Z" fill="white"/>
<path opacity="0.2" d="M122.488 47.2344V61.9418L46.2405 138.196H45.6128V124.116L122.488 47.2344Z" fill="white"/>
<path d="M314.047 142.642V18.5703L230.047 18.5703V142.642H314.047Z" fill="#F5F5F5"/>
<path d="M310.481 22.1289H233.606V139.075H310.481V22.1289Z" fill="#FAFAFA"/>
<path d="M263.977 139.062V75.8957H261.345L256.837 68.0855L252.807 61.0956V48.207H251.844V61.0956L247.814 68.0855L243.299 75.8957H240.675V139.062H263.977Z" fill="#F5F5F5"/>
<path d="M244.013 59.832H233.606V139.061H244.013V59.832Z" fill="#F5F5F5"/>
<path d="M293.392 116.35V58.8828L270.567 68.255V116.35H293.392Z" fill="#F5F5F5"/>
<path d="M310.481 75.8945H287.179V139.061H310.481V75.8945Z" fill="#F0F0F0"/>
<path d="M293.427 79.7617H289.811V81.4593H293.427V79.7617Z" fill="#F5F5F5"/>
<path d="M300.638 79.7617H297.022V81.4593H300.638V79.7617Z" fill="#F5F5F5"/>
<path d="M307.856 79.7617H304.24V81.4593H307.856V79.7617Z" fill="#F5F5F5"/>
<path d="M293.427 83.9531H289.811V85.6507H293.427V83.9531Z" fill="#F5F5F5"/>
<path d="M300.638 83.9531H297.022V85.6507H300.638V83.9531Z" fill="#F5F5F5"/>
<path d="M307.856 83.9531H304.24V85.6507H307.856V83.9531Z" fill="#F5F5F5"/>
<path d="M293.427 88.1562H289.811V89.8538H293.427V88.1562Z" fill="#F5F5F5"/>
<path d="M300.638 88.1562H297.022V89.8538H300.638V88.1562Z" fill="#F5F5F5"/>
<path d="M307.856 88.1562H304.24V89.8538H307.856V88.1562Z" fill="#F5F5F5"/>
<path d="M293.427 92.3477H289.811V94.0452H293.427V92.3477Z" fill="#F5F5F5"/>
<path d="M300.638 92.3477H297.022V94.0452H300.638V92.3477Z" fill="#F5F5F5"/>
<path d="M307.856 92.3477H304.24V94.0452H307.856V92.3477Z" fill="#F5F5F5"/>
<path d="M293.427 96.543H289.811V98.2405H293.427V96.543Z" fill="#F5F5F5"/>
<path d="M300.638 96.543H297.022V98.2405H300.638V96.543Z" fill="#F5F5F5"/>
<path d="M307.856 96.543H304.24V98.2405H307.856V96.543Z" fill="#F5F5F5"/>
<path d="M293.427 100.746H289.811V102.444H293.427V100.746Z" fill="#F5F5F5"/>
<path d="M300.638 100.746H297.022V102.444H300.638V100.746Z" fill="#F5F5F5"/>
<path d="M307.856 100.746H304.24V102.444H307.856V100.746Z" fill="#F5F5F5"/>
<path d="M293.427 104.938H289.811V106.635H293.427V104.938Z" fill="#F5F5F5"/>
<path d="M300.638 104.938H297.022V106.635H300.638V104.938Z" fill="#F5F5F5"/>
<path d="M307.856 104.938H304.24V106.635H307.856V104.938Z" fill="#F5F5F5"/>
<path d="M293.427 109.141H289.811V110.838H293.427V109.141Z" fill="#F5F5F5"/>
<path d="M300.638 109.141H297.022V110.838H300.638V109.141Z" fill="#F5F5F5"/>
<path d="M307.856 109.141H304.24V110.838H307.856V109.141Z" fill="#F5F5F5"/>
<path d="M293.427 113.332H289.811V115.03H293.427V113.332Z" fill="#F5F5F5"/>
<path d="M300.638 113.332H297.022V115.03H300.638V113.332Z" fill="#F5F5F5"/>
<path d="M307.856 113.332H304.24V115.03H307.856V113.332Z" fill="#F5F5F5"/>
<path d="M293.427 117.535H289.811V119.233H293.427V117.535Z" fill="#F5F5F5"/>
<path d="M300.638 117.535H297.022V119.233H300.638V117.535Z" fill="#F5F5F5"/>
<path d="M307.856 117.535H304.24V119.233H307.856V117.535Z" fill="#F5F5F5"/>
<path d="M293.427 121.727H289.811V123.424H293.427V121.727Z" fill="#F5F5F5"/>
<path d="M300.638 121.727H297.022V123.424H300.638V121.727Z" fill="#F5F5F5"/>
<path d="M307.856 121.727H304.24V123.424H307.856V121.727Z" fill="#F5F5F5"/>
<path d="M293.427 125.93H289.811V127.627H293.427V125.93Z" fill="#F5F5F5"/>
<path d="M300.638 125.93H297.022V127.627H300.638V125.93Z" fill="#F5F5F5"/>
<path d="M307.856 125.93H304.24V127.627H307.856V125.93Z" fill="#F5F5F5"/>
<path d="M256.908 75.8945H233.606V139.061H256.908V75.8945Z" fill="#F0F0F0"/>
<path d="M239.854 79.7617H236.238V81.4593H239.854V79.7617Z" fill="#F5F5F5"/>
<path d="M247.073 79.7617H243.456V81.4593H247.073V79.7617Z" fill="#F5F5F5"/>
<path d="M254.284 79.7617H250.667V81.4593H254.284V79.7617Z" fill="#F5F5F5"/>
<path d="M239.854 83.9531H236.238V85.6507H239.854V83.9531Z" fill="#F5F5F5"/>
<path d="M247.073 83.9531H243.456V85.6507H247.073V83.9531Z" fill="#F5F5F5"/>
<path d="M254.284 83.9531H250.667V85.6507H254.284V83.9531Z" fill="#F5F5F5"/>
<path d="M239.854 88.1562H236.238V89.8538H239.854V88.1562Z" fill="#F5F5F5"/>
<path d="M247.073 88.1562H243.456V89.8538H247.073V88.1562Z" fill="#F5F5F5"/>
<path d="M254.284 88.1562H250.667V89.8538H254.284V88.1562Z" fill="#F5F5F5"/>
<path d="M239.854 92.3477H236.238V94.0452H239.854V92.3477Z" fill="#F5F5F5"/>
<path d="M247.073 92.3477H243.456V94.0452H247.073V92.3477Z" fill="#F5F5F5"/>
<path d="M254.284 92.3477H250.667V94.0452H254.284V92.3477Z" fill="#F5F5F5"/>
<path d="M239.854 96.543H236.238V98.2405H239.854V96.543Z" fill="#F5F5F5"/>
<path d="M247.073 96.543H243.456V98.2405H247.073V96.543Z" fill="#F5F5F5"/>
<path d="M254.284 96.543H250.667V98.2405H254.284V96.543Z" fill="#F5F5F5"/>
<path d="M239.854 100.746H236.238V102.444H239.854V100.746Z" fill="#F5F5F5"/>
<path d="M247.073 100.746H243.456V102.444H247.073V100.746Z" fill="#F5F5F5"/>
<path d="M254.284 100.746H250.667V102.444H254.284V100.746Z" fill="#F5F5F5"/>
<path d="M239.854 104.938H236.238V106.635H239.854V104.938Z" fill="#F5F5F5"/>
<path d="M247.073 104.938H243.456V106.635H247.073V104.938Z" fill="#F5F5F5"/>
<path d="M254.284 104.938H250.667V106.635H254.284V104.938Z" fill="#F5F5F5"/>
<path d="M239.854 109.141H236.238V110.838H239.854V109.141Z" fill="#F5F5F5"/>
<path d="M247.073 109.141H243.456V110.838H247.073V109.141Z" fill="#F5F5F5"/>
<path d="M254.284 109.141H250.667V110.838H254.284V109.141Z" fill="#F5F5F5"/>
<path d="M239.854 113.332H236.238V115.03H239.854V113.332Z" fill="#F5F5F5"/>
<path d="M247.073 113.332H243.456V115.03H247.073V113.332Z" fill="#F5F5F5"/>
<path d="M254.284 113.332H250.667V115.03H254.284V113.332Z" fill="#F5F5F5"/>
<path d="M239.854 117.535H236.238V119.233H239.854V117.535Z" fill="#F5F5F5"/>
<path d="M247.073 117.535H243.456V119.233H247.073V117.535Z" fill="#F5F5F5"/>
<path d="M254.284 117.535H250.667V119.233H254.284V117.535Z" fill="#F5F5F5"/>
<path d="M239.854 121.727H236.238V123.424H239.854V121.727Z" fill="#F5F5F5"/>
<path d="M247.073 121.727H243.456V123.424H247.073V121.727Z" fill="#F5F5F5"/>
<path d="M254.284 121.727H250.667V123.424H254.284V121.727Z" fill="#F5F5F5"/>
<path d="M239.854 125.93H236.238V127.627H239.854V125.93Z" fill="#F5F5F5"/>
<path d="M247.073 125.93H243.456V127.627H247.073V125.93Z" fill="#F5F5F5"/>
<path d="M254.284 125.93H250.667V127.627H254.284V125.93Z" fill="#F5F5F5"/>
<path d="M298.834 75.8931H289.811L294.319 68.0829L298.834 60.2656L303.341 68.0829L307.856 75.8931H298.834Z" fill="#F0F0F0"/>
<path d="M299.312 48.207H298.356V66.0171H299.312V48.207Z" fill="#F0F0F0"/>
<path d="M285.246 79.7617H260.268V139.069H285.246V79.7617Z" fill="#F0F0F0"/>
<path d="M271.523 77.7266H262.101V85.7721H271.523V77.7266Z" fill="#F0F0F0"/>
<path d="M265.475 77.1367H262.95V84.362H265.475V77.1367Z" fill="#F0F0F0"/>
<path d="M270.738 77.1367H268.214V84.362H270.738V77.1367Z" fill="#F0F0F0"/>
<path d="M283.656 77.7578H278.042V83.3712H283.656V77.7578Z" fill="#F0F0F0"/>
<path d="M267.55 84.8047H263.934V86.5022H267.55V84.8047Z" fill="#F5F5F5"/>
<path d="M274.768 84.8047H271.152V86.5022H274.768V84.8047Z" fill="#F5F5F5"/>
<path d="M281.979 84.8047H278.363V86.5022H281.979V84.8047Z" fill="#F5F5F5"/>
<path d="M267.55 89.0039H263.934V90.7015H267.55V89.0039Z" fill="#F5F5F5"/>
<path d="M274.768 89.0039H271.152V90.7015H274.768V89.0039Z" fill="#F5F5F5"/>
<path d="M281.979 89.0039H278.363V90.7015H281.979V89.0039Z" fill="#F5F5F5"/>
<path d="M267.55 93.1992H263.934V94.8968H267.55V93.1992Z" fill="#F5F5F5"/>
<path d="M274.768 93.1992H271.152V94.8968H274.768V93.1992Z" fill="#F5F5F5"/>
<path d="M281.979 93.1992H278.363V94.8968H281.979V93.1992Z" fill="#F5F5F5"/>
<path d="M267.55 97.3906H263.934V99.0882H267.55V97.3906Z" fill="#F5F5F5"/>
<path d="M274.768 97.3906H271.152V99.0882H274.768V97.3906Z" fill="#F5F5F5"/>
<path d="M281.979 97.3906H278.363V99.0882H281.979V97.3906Z" fill="#F5F5F5"/>
<path d="M267.55 101.594H263.934V103.291H267.55V101.594Z" fill="#F5F5F5"/>
<path d="M274.768 101.594H271.152V103.291H274.768V101.594Z" fill="#F5F5F5"/>
<path d="M281.979 101.594H278.363V103.291H281.979V101.594Z" fill="#F5F5F5"/>
<path d="M267.55 105.785H263.934V107.483H267.55V105.785Z" fill="#F5F5F5"/>
<path d="M274.768 105.785H271.152V107.483H274.768V105.785Z" fill="#F5F5F5"/>
<path d="M281.979 105.785H278.363V107.483H281.979V105.785Z" fill="#F5F5F5"/>
<path d="M267.55 109.988H263.934V111.686H267.55V109.988Z" fill="#F5F5F5"/>
<path d="M274.768 109.988H271.152V111.686H274.768V109.988Z" fill="#F5F5F5"/>
<path d="M281.979 109.988H278.363V111.686H281.979V109.988Z" fill="#F5F5F5"/>
<path d="M267.55 114.184H263.934V115.881H267.55V114.184Z" fill="#F5F5F5"/>
<path d="M274.768 114.184H271.152V115.881H274.768V114.184Z" fill="#F5F5F5"/>
<path d="M281.979 114.184H278.363V115.881H281.979V114.184Z" fill="#F5F5F5"/>
<path d="M267.55 118.383H263.934V120.08H267.55V118.383Z" fill="#F5F5F5"/>
<path d="M274.768 118.383H271.152V120.08H274.768V118.383Z" fill="#F5F5F5"/>
<path d="M281.979 118.383H278.363V120.08H281.979V118.383Z" fill="#F5F5F5"/>
<path d="M267.55 122.578H263.934V124.276H267.55V122.578Z" fill="#F5F5F5"/>
<path d="M274.768 122.578H271.152V124.276H274.768V122.578Z" fill="#F5F5F5"/>
<path d="M281.979 122.578H278.363V124.276H281.979V122.578Z" fill="#F5F5F5"/>
<path d="M267.55 126.777H263.934V128.475H267.55V126.777Z" fill="#F5F5F5"/>
<path d="M274.768 126.777H271.152V128.475H274.768V126.777Z" fill="#F5F5F5"/>
<path d="M281.979 126.777H278.363V128.475H281.979V126.777Z" fill="#F5F5F5"/>
<path d="M267.55 130.973H263.934V132.67H267.55V130.973Z" fill="#F5F5F5"/>
<path d="M274.768 130.973H271.152V132.67H274.768V130.973Z" fill="#F5F5F5"/>
<path d="M281.979 130.973H278.363V132.67H281.979V130.973Z" fill="#F5F5F5"/>
<path opacity="0.2" d="M305.374 22.1289L233.606 93.9041V73.2909L284.768 22.1289H305.374Z" fill="white"/>
<path opacity="0.2" d="M310.488 48.1133V62.8278L234.234 139.075H233.606V124.995L310.488 48.1133Z" fill="white"/>
<path d="M198.55 162.805H75.0133C75.0133 163.302 75.1113 163.794 75.3017 164.253C75.4922 164.712 75.7713 165.129 76.123 165.48C76.4748 165.831 76.8924 166.11 77.3519 166.299C77.8113 166.489 78.3037 166.586 78.8007 166.585H194.762C195.259 166.586 195.752 166.489 196.211 166.299C196.67 166.11 197.088 165.831 197.44 165.48C197.792 165.129 198.071 164.712 198.261 164.253C198.452 163.794 198.55 163.302 198.55 162.805Z" fill="#F0F0F0"/>
<path d="M174.285 198.617H100.391V202.119H174.285V198.617Z" fill="#F0F0F0"/>
<path d="M171.667 240.08L181.738 166.586H178.2L168.129 240.08H171.667Z" fill="#F0F0F0"/>
<path d="M179.948 240.08L169.713 166.586H173.25L183.486 240.08H179.948Z" fill="#F0F0F0"/>
<path d="M94.742 240.08L105.241 166.586H101.703L91.2043 240.08H94.742Z" fill="#F0F0F0"/>
<path d="M103.023 240.08L92.9518 166.586H96.4895L106.561 240.08H103.023Z" fill="#F0F0F0"/>
<path d="M202.694 156.723H70.8693V162.821H202.694V156.723Z" fill="#F5F5F5"/>
<path d="M118.401 156.75H175.604L176.225 155.323C176.617 154.439 175.597 153.554 174.185 153.554H121.404C121.004 153.521 120.604 153.598 120.244 153.775C119.885 153.952 119.581 154.223 119.364 154.56L118.401 156.75Z" fill="#E0E0E0"/>
<path d="M191.267 116.93L183.942 147.935C183.852 148.339 183.626 148.7 183.304 148.959C182.981 149.219 182.58 149.36 182.166 149.362H137.052C136.777 149.362 136.505 149.299 136.257 149.179C136.009 149.059 135.792 148.884 135.621 148.668C135.45 148.452 135.33 148.2 135.271 147.931C135.211 147.662 135.213 147.383 135.276 147.115L142.594 116.145C142.688 115.741 142.914 115.381 143.238 115.122C143.562 114.863 143.963 114.721 144.378 114.719H189.484C189.756 114.72 190.024 114.782 190.269 114.9C190.514 115.018 190.73 115.189 190.9 115.401C191.071 115.613 191.193 115.86 191.256 116.124C191.319 116.389 191.323 116.664 191.267 116.93Z" fill="#F0F0F0"/>
<path d="M169.349 133.196C169.228 134.156 168.766 135.041 168.047 135.689C167.328 136.337 166.401 136.705 165.433 136.727C164.983 136.737 164.537 136.65 164.124 136.471C163.712 136.292 163.343 136.025 163.044 135.689C162.745 135.353 162.522 134.956 162.391 134.526C162.261 134.095 162.225 133.642 162.288 133.196C162.411 132.236 162.874 131.352 163.594 130.706C164.314 130.059 165.243 129.692 166.211 129.673C166.659 129.662 167.105 129.749 167.517 129.928C167.928 130.107 168.296 130.373 168.595 130.709C168.893 131.044 169.115 131.44 169.246 131.869C169.376 132.299 169.411 132.752 169.349 133.196Z" fill="#E0E0E0"/>
<path d="M146.168 114.674L138.372 149.303H137.052C136.777 149.303 136.505 149.241 136.257 149.12C136.009 149 135.792 148.826 135.621 148.609C135.45 148.393 135.33 148.141 135.271 147.872C135.211 147.603 135.213 147.324 135.276 147.056L142.594 116.087C142.688 115.683 142.914 115.322 143.238 115.063C143.562 114.804 143.963 114.662 144.378 114.66L146.168 114.674Z" fill="#E0E0E0"/>
<path d="M159.235 149.305L157.694 156.666H162.216L163.75 149.305H159.235Z" fill="#E0E0E0"/>
<path d="M151.097 155.414L152.024 154.116C152.188 153.892 152.402 153.71 152.651 153.586C152.899 153.462 153.173 153.399 153.45 153.402H165.847C166.167 153.402 166.482 153.489 166.756 153.655C167.03 153.821 167.254 154.06 167.402 154.344L168.029 155.542C168.094 155.668 168.126 155.808 168.123 155.949C168.119 156.091 168.08 156.229 168.009 156.351C167.938 156.473 167.837 156.576 167.716 156.649C167.595 156.722 167.457 156.763 167.316 156.769H151.781C151.623 156.772 151.466 156.731 151.33 156.649C151.194 156.567 151.084 156.449 151.012 156.307C150.94 156.165 150.91 156.006 150.925 155.848C150.94 155.69 151 155.54 151.097 155.414Z" fill="#E0E0E0"/>
<path d="M281.409 223.758C281.409 223.758 275.389 225.092 276.288 220.905C277.186 216.719 277.115 215.157 274.669 213.245C272.222 211.333 269.761 210.392 271.63 207.375C273.499 204.358 269.954 201.997 268.114 200.371C266.273 198.744 268.349 197.518 268.827 194.444C269.305 191.369 265.974 191.833 265.746 187.96C265.517 184.087 269.426 179.558 266.038 174.223C266.038 174.223 270.582 176.584 272.079 180.72C273.577 184.857 272.365 188.06 275.047 189.629C277.728 191.198 279.412 193.909 278.506 196.719C277.6 199.529 278.884 200.998 281.088 203.031C283.292 205.064 282.7 205.884 282.429 208.366C282.158 210.848 282.707 210.271 285.225 213.673C287.743 217.075 287.814 222.646 281.409 223.758Z" fill="#F0F0F0"/>
<path d="M282.265 223.574C282.262 223.552 282.262 223.531 282.265 223.51L270.218 186.955C270.206 186.918 270.201 186.878 270.204 186.839C270.207 186.8 270.218 186.761 270.236 186.726C270.253 186.691 270.278 186.66 270.308 186.634C270.338 186.609 270.373 186.589 270.41 186.577C270.447 186.565 270.486 186.56 270.525 186.563C270.564 186.567 270.602 186.577 270.636 186.595C270.671 186.613 270.701 186.638 270.726 186.668C270.751 186.698 270.77 186.732 270.781 186.77L282.807 223.324C282.81 223.353 282.81 223.381 282.807 223.41L282.265 223.574Z" fill="#E0E0E0"/>
<path d="M292.272 223.687C292.272 223.687 298.256 225.014 297.372 220.834C296.487 216.655 296.544 215.128 298.976 213.217C301.409 211.305 303.862 210.364 302.001 207.375C300.139 204.387 303.67 202.033 305.496 200.414C307.321 198.795 305.26 197.561 304.782 194.515C304.304 191.469 307.592 191.919 307.849 188.096C308.106 184.273 304.197 179.736 307.557 174.43C307.557 174.43 303.042 176.776 301.551 180.892C300.06 185.007 301.266 188.196 298.598 189.758C295.931 191.32 294.255 194.037 295.16 196.812C296.066 199.586 294.782 201.091 292.593 203.088C290.403 205.086 290.988 205.941 291.259 208.395C291.53 210.849 290.981 210.285 288.477 213.673C285.974 217.061 285.902 222.575 292.272 223.687Z" fill="#F0F0F0"/>
<path d="M290.867 223.341C290.863 223.312 290.863 223.284 290.867 223.255L302.849 186.879C302.861 186.842 302.879 186.807 302.904 186.777C302.929 186.747 302.96 186.723 302.994 186.705C303.029 186.687 303.067 186.676 303.105 186.673C303.144 186.67 303.183 186.674 303.22 186.686C303.258 186.698 303.292 186.718 303.322 186.744C303.352 186.769 303.376 186.801 303.393 186.836C303.411 186.871 303.421 186.91 303.423 186.949C303.425 186.988 303.419 187.028 303.406 187.064L291.43 223.441C291.421 223.463 291.409 223.485 291.394 223.505L290.867 223.341Z" fill="#E0E0E0"/>
<path d="M285.624 222.924C285.624 222.924 278.734 222.353 281.088 218.152C283.442 213.951 283.884 212.275 281.894 209.415C279.904 206.555 277.614 204.729 280.596 202.118C283.577 199.508 280.596 195.806 279.169 193.452C277.743 191.098 280.367 190.471 281.908 187.34C283.449 184.208 279.768 183.602 280.767 179.372C281.765 175.143 287.493 171.591 285.638 164.758C285.638 164.758 289.725 168.788 289.918 173.723C290.111 178.659 287.778 181.676 290.139 184.251C292.5 186.826 293.392 190.3 291.487 192.989C289.583 195.678 290.474 197.696 292.158 200.606C293.841 203.516 292.942 204.172 291.822 206.769C290.703 209.365 291.487 208.908 293.056 213.381C294.625 217.853 292.857 223.858 285.624 222.924Z" fill="#F5F5F5"/>
<path d="M286.601 223.011C286.597 222.985 286.597 222.958 286.601 222.932L285.838 179.78C285.837 179.736 285.845 179.692 285.861 179.651C285.877 179.61 285.901 179.573 285.931 179.541C285.962 179.509 285.998 179.484 286.038 179.466C286.079 179.448 286.122 179.439 286.166 179.438C286.21 179.437 286.253 179.444 286.294 179.46C286.335 179.477 286.372 179.501 286.403 179.531C286.434 179.562 286.459 179.598 286.476 179.638C286.493 179.679 286.501 179.722 286.501 179.766L287.265 222.918C287.269 222.951 287.269 222.984 287.265 223.018L286.601 223.011Z" fill="#E0E0E0"/>
<path d="M304.383 219.594H270.689C270.464 219.593 270.243 219.647 270.044 219.751C269.844 219.855 269.674 220.006 269.546 220.19C269.418 220.375 269.337 220.588 269.31 220.811C269.283 221.034 269.311 221.26 269.39 221.47L269.89 222.789L270.204 223.631L271.109 226.028L271.423 226.869L272.35 229.337L272.664 230.172L276.373 240.015H298.698L302.421 230.172L302.742 229.337L303.67 226.869L303.983 226.028L304.889 223.631L305.203 222.789L305.702 221.47C305.783 221.258 305.81 221.03 305.782 220.806C305.754 220.581 305.671 220.367 305.541 220.181C305.411 219.996 305.237 219.846 305.035 219.743C304.833 219.641 304.609 219.59 304.383 219.594Z" fill="#E6E6E6"/>
<path d="M175.447 260.999C251.994 260.999 314.047 259.06 314.047 256.669C314.047 254.278 251.994 252.34 175.447 252.34C98.9003 252.34 36.8469 254.278 36.8469 256.669C36.8469 259.06 98.9003 260.999 175.447 260.999Z" fill="#F0F0F0"/>
<path d="M82.3527 230.191L76.4898 256.546H60.741L54.8781 230.191H82.3527Z" fill="#FF5811"/>
<path opacity="0.5" d="M82.3527 230.191L76.4898 256.546H60.741L54.8781 230.191H82.3527Z" fill="white"/>
<path d="M83.5368 230.191H53.4943V233.415H83.5368V230.191Z" fill="#FF5811"/>
<path opacity="0.7" d="M83.5368 230.191H53.4943V233.415H83.5368V230.191Z" fill="white"/>
<path d="M68.7866 230.19H69.4998C69.8565 208.557 63.8865 193.022 63.7938 192.851C63.701 192.68 63.0805 192.923 63.1447 193.108C63.2089 193.293 69.186 208.693 68.7866 230.19Z" fill="#FF5811"/>
<path d="M67.3957 208.36C67.3957 208.36 65.0134 201.078 78.1517 198.574C78.1517 198.574 77.9091 211.313 67.3957 208.36Z" fill="#FF5811"/>
<path d="M68.7866 220.397C68.7866 220.397 66.3972 213.115 79.5425 210.59C79.5425 210.59 79.3 223.35 68.7866 220.397Z" fill="#FF5811"/>
<path d="M68.323 213.166C68.323 213.166 67.5526 205.541 54.5143 208.558C54.5143 208.558 59.9136 220.12 68.323 213.166Z" fill="#FF5811"/>
<path d="M69.1075 224.135C69.1075 224.135 68.3372 216.51 55.2989 219.52C55.2989 219.52 60.6911 231.089 69.1075 224.135Z" fill="#FF5811"/>
<path d="M65.9264 201.362C65.9264 201.362 58.2803 201.89 59.0506 188.523C59.0506 188.531 71.3615 191.89 65.9264 201.362Z" fill="#FF5811"/>
<path d="M248.535 164.529C248.915 165.039 249.361 165.497 249.861 165.891L248.756 168.516L251.609 169.729L252.672 167.218C253.344 167.359 254.033 167.404 254.719 167.353L255.917 170.306L258.813 169.129L257.7 166.405C258.469 165.958 259.145 165.367 259.69 164.664L262.336 165.763L263.549 162.91L261.052 161.833C261.223 161.036 261.252 160.215 261.138 159.408L263.592 158.409L262.415 155.52L260.032 156.491C259.513 155.704 258.841 155.03 258.057 154.508L259.112 151.997L256.259 150.784L255.154 153.409C254.522 153.324 253.881 153.324 253.249 153.409L252.115 150.613L249.227 151.79L250.325 154.501C249.539 155.023 248.864 155.697 248.342 156.483L245.831 155.421L244.619 158.274L247.244 159.386C247.138 160.143 247.157 160.911 247.301 161.662L244.59 162.76L245.767 165.656L248.535 164.529ZM251.538 159.244C251.757 158.725 252.126 158.282 252.597 157.972C253.068 157.663 253.62 157.499 254.184 157.503C254.748 157.507 255.298 157.678 255.764 157.994C256.231 158.31 256.594 158.757 256.807 159.279C257.019 159.801 257.073 160.375 256.96 160.927C256.847 161.479 256.573 161.986 256.173 162.383C255.773 162.78 255.264 163.049 254.71 163.157C254.157 163.264 253.584 163.206 253.064 162.988C252.717 162.843 252.403 162.631 252.138 162.364C251.874 162.098 251.665 161.781 251.523 161.433C251.381 161.085 251.309 160.713 251.312 160.337C251.314 159.961 251.391 159.59 251.538 159.244Z" fill="#FF5811"/>
<g opacity="0.5">
<path d="M248.535 164.529C248.915 165.039 249.361 165.497 249.861 165.891L248.756 168.516L251.609 169.729L252.672 167.218C253.344 167.359 254.033 167.404 254.719 167.353L255.917 170.306L258.813 169.129L257.7 166.405C258.469 165.958 259.145 165.367 259.69 164.664L262.336 165.763L263.549 162.91L261.052 161.833C261.223 161.036 261.252 160.215 261.138 159.408L263.592 158.409L262.415 155.52L260.032 156.491C259.513 155.704 258.841 155.03 258.057 154.508L259.112 151.997L256.259 150.784L255.154 153.409C254.522 153.324 253.881 153.324 253.249 153.409L252.115 150.613L249.227 151.79L250.325 154.501C249.539 155.023 248.864 155.697 248.342 156.483L245.831 155.421L244.619 158.274L247.244 159.386C247.138 160.143 247.157 160.911 247.301 161.662L244.59 162.76L245.767 165.656L248.535 164.529ZM251.538 159.244C251.757 158.725 252.126 158.282 252.597 157.972C253.068 157.663 253.62 157.499 254.184 157.503C254.748 157.507 255.298 157.678 255.764 157.994C256.231 158.31 256.594 158.757 256.807 159.279C257.019 159.801 257.073 160.375 256.96 160.927C256.847 161.479 256.573 161.986 256.173 162.383C255.773 162.78 255.264 163.049 254.71 163.157C254.157 163.264 253.584 163.206 253.064 162.988C252.717 162.843 252.403 162.631 252.138 162.364C251.874 162.098 251.665 161.781 251.523 161.433C251.381 161.085 251.309 160.713 251.312 160.337C251.314 159.961 251.391 159.59 251.538 159.244Z" fill="white"/>
</g>
<path d="M84.5068 53.0692C84.8856 53.5789 85.3319 54.0348 85.8334 54.4244L84.7279 57.0492L87.5809 58.2688L88.6437 55.751C89.3153 55.8987 90.0054 55.9443 90.6907 55.8866L91.889 58.8394L94.7848 57.6626L93.6721 54.9379C94.4381 54.4898 95.1131 53.9019 95.6621 53.2047L98.2869 54.3103L99.4994 51.4572L97.003 50.3517C97.1735 49.5546 97.2024 48.7337 97.0886 47.9266L99.5422 46.928L98.3654 44.0322L95.9973 45.0022C95.4795 44.2146 94.8074 43.5401 94.0216 43.0194L95.0772 40.5016L92.2242 39.289L91.1187 41.9138C90.4867 41.8287 89.8462 41.8287 89.2143 41.9138L88.0802 39.125L85.2272 40.3019L86.3042 43.0123C85.5181 43.5321 84.844 44.2038 84.3213 44.988L81.8106 43.9324L80.5981 46.7854L83.2229 47.8909C83.1167 48.6473 83.136 49.4161 83.28 50.1662L80.5696 51.2647L81.7465 54.1605L84.5068 53.0692ZM87.5096 47.7768C87.7304 47.2586 88.0998 46.8173 88.571 46.5087C89.0423 46.2 89.5944 46.0378 90.1577 46.0424C90.721 46.0471 91.2704 46.2184 91.7365 46.5348C92.2026 46.8511 92.5646 47.2984 92.7769 47.8202C92.9892 48.342 93.0423 48.915 92.9294 49.4669C92.8165 50.0188 92.5428 50.525 92.1428 50.9216C91.7427 51.3182 91.2341 51.5875 90.6813 51.6955C90.1284 51.8035 89.5559 51.7454 89.036 51.5286C88.6858 51.3837 88.368 51.1706 88.1012 50.9017C87.8343 50.6327 87.6237 50.3133 87.4816 49.9621C87.3395 49.6108 87.2688 49.2348 87.2736 48.8559C87.2784 48.4771 87.3586 48.1029 87.5096 47.7554V47.7768Z" fill="#FF5811"/>
<g opacity="0.5">
<path d="M84.5068 53.0692C84.8856 53.5789 85.3319 54.0348 85.8334 54.4244L84.7279 57.0492L87.5809 58.2688L88.6437 55.751C89.3153 55.8987 90.0054 55.9443 90.6907 55.8866L91.889 58.8394L94.7848 57.6626L93.6721 54.9379C94.4381 54.4898 95.1131 53.9019 95.6621 53.2047L98.2869 54.3103L99.4994 51.4572L97.003 50.3517C97.1735 49.5546 97.2024 48.7337 97.0886 47.9266L99.5422 46.928L98.3654 44.0322L95.9973 45.0022C95.4795 44.2146 94.8074 43.5401 94.0216 43.0194L95.0772 40.5016L92.2242 39.289L91.1187 41.9138C90.4867 41.8287 89.8462 41.8287 89.2143 41.9138L88.0802 39.125L85.2272 40.3019L86.3042 43.0123C85.5181 43.5321 84.844 44.2038 84.3213 44.988L81.8106 43.9324L80.5981 46.7854L83.2229 47.8909C83.1167 48.6473 83.136 49.4161 83.28 50.1662L80.5696 51.2647L81.7465 54.1605L84.5068 53.0692ZM87.5096 47.7768C87.7304 47.2586 88.0998 46.8173 88.571 46.5087C89.0423 46.2 89.5944 46.0378 90.1577 46.0424C90.721 46.0471 91.2704 46.2184 91.7365 46.5348C92.2026 46.8511 92.5646 47.2984 92.7769 47.8202C92.9892 48.342 93.0423 48.915 92.9294 49.4669C92.8165 50.0188 92.5428 50.525 92.1428 50.9216C91.7427 51.3182 91.2341 51.5875 90.6813 51.6955C90.1284 51.8035 89.5559 51.7454 89.036 51.5286C88.6858 51.3837 88.368 51.1706 88.1012 50.9017C87.8343 50.6327 87.6237 50.3133 87.4816 49.9621C87.3395 49.6108 87.2688 49.2348 87.2736 48.8559C87.2784 48.4771 87.3586 48.1029 87.5096 47.7554V47.7768Z" fill="white"/>
</g>
<path d="M184.306 49.0973V73.505H111.083V0.289062H117.688C117.688 0.289062 122.188 1.57293 123.679 5.13922C125.02 8.32748 123.016 12.1577 122.559 12.9851L122.481 13.1206C121.504 14.811 120.99 16.7286 120.99 18.6806C120.99 20.6327 121.503 22.5505 122.479 24.2411C123.455 25.9317 124.859 27.3357 126.549 28.3118C128.24 29.2879 130.158 29.8018 132.11 29.8018C134.062 29.8018 135.979 29.2879 137.67 28.3118C139.36 27.3357 140.764 25.9317 141.74 24.2411C142.716 22.5505 143.23 20.6327 143.229 18.6806C143.229 16.7286 142.715 14.811 141.739 13.1206C141.705 13.0831 141.678 13.0396 141.66 12.9922C141.197 12.1791 139.192 8.34888 140.526 5.14635C142.031 1.58006 146.525 0.296195 146.525 0.296195H184.327V20.2674C184.327 20.2674 183.036 24.7681 179.47 26.2731C176.289 27.6068 172.451 25.5955 171.624 25.1461L171.489 25.0676C169.798 24.0913 167.881 23.5772 165.929 23.5769C163.976 23.5767 162.059 24.0903 160.368 25.0662C158.677 26.0421 157.273 27.4459 156.297 29.1364C155.321 30.8269 154.807 32.7446 154.807 34.6966C154.807 36.6487 155.321 38.5664 156.297 40.2569C157.273 41.9474 158.677 43.3512 160.368 44.327C162.059 45.3029 163.976 45.8166 165.929 45.8163C167.881 45.8161 169.798 45.3019 171.489 44.3256L171.617 44.24C172.43 43.7835 176.267 41.7721 179.463 43.1202C183.015 44.6038 184.306 49.0973 184.306 49.0973Z" fill="#FF5811"/>
<g opacity="0.7">
<path d="M184.306 49.0973V73.505H111.083V0.289062H117.688C117.688 0.289062 122.188 1.57293 123.679 5.13922C125.02 8.32748 123.016 12.1577 122.559 12.9851L122.481 13.1206C121.504 14.811 120.99 16.7286 120.99 18.6806C120.99 20.6327 121.503 22.5505 122.479 24.2411C123.455 25.9317 124.859 27.3357 126.549 28.3118C128.24 29.2879 130.158 29.8018 132.11 29.8018C134.062 29.8018 135.979 29.2879 137.67 28.3118C139.36 27.3357 140.764 25.9317 141.74 24.2411C142.716 22.5505 143.23 20.6327 143.229 18.6806C143.229 16.7286 142.715 14.811 141.739 13.1206C141.705 13.0831 141.678 13.0396 141.66 12.9922C141.197 12.1791 139.192 8.34888 140.526 5.14635C142.031 1.58006 146.525 0.296195 146.525 0.296195H184.327V20.2674C184.327 20.2674 183.036 24.7681 179.47 26.2731C176.289 27.6068 172.451 25.5955 171.624 25.1461L171.489 25.0676C169.798 24.0913 167.881 23.5772 165.929 23.5769C163.976 23.5767 162.059 24.0903 160.368 25.0662C158.677 26.0421 157.273 27.4459 156.297 29.1364C155.321 30.8269 154.807 32.7446 154.807 34.6966C154.807 36.6487 155.321 38.5664 156.297 40.2569C157.273 41.9474 158.677 43.3512 160.368 44.327C162.059 45.3029 163.976 45.8166 165.929 45.8163C167.881 45.8161 169.798 45.3019 171.489 44.3256L171.617 44.24C172.43 43.7835 176.267 41.7721 179.463 43.1202C183.015 44.6038 184.306 49.0973 184.306 49.0973Z" fill="white"/>
</g>
<path d="M257.486 0.289062V73.4337H247.7C246.987 73.1912 243.178 71.836 241.83 68.6263C240.482 65.4166 242.493 61.6079 242.95 60.7805L243.035 60.645C244.022 58.9546 244.539 57.0315 244.533 55.0744C244.53 53.3716 244.136 51.6923 243.38 50.1663C242.624 48.6403 241.528 47.3085 240.175 46.2739C238.823 45.2393 237.251 44.5296 235.58 44.1996C233.91 43.8696 232.186 43.9281 230.541 44.3708C228.897 44.8134 227.376 45.6282 226.097 46.7523C224.818 47.8763 223.815 49.2794 223.164 50.8532C222.514 52.4269 222.234 54.1291 222.347 55.8282C222.459 57.5274 222.961 59.1778 223.813 60.6521L223.899 60.7876C224.355 61.5936 226.352 65.4309 225.019 68.6334C223.685 71.836 219.89 73.1983 219.148 73.4408H184.306V49.0545C184.306 49.0545 183.022 44.561 179.456 43.0631C176.282 41.7294 172.444 43.7265 171.61 44.183L171.481 44.2686C169.792 45.2488 167.875 45.7666 165.922 45.7699C163.969 45.7733 162.05 45.2619 160.358 44.2874C158.666 43.313 157.26 41.9097 156.283 40.2191C155.305 38.5285 154.791 36.6102 154.791 34.6574C154.791 32.7046 155.305 30.7863 156.283 29.0957C157.26 27.4051 158.666 26.0018 160.358 25.0274C162.05 24.0529 163.969 23.5415 165.922 23.5449C167.875 23.5482 169.792 24.066 171.481 25.0462L171.61 25.1247C172.423 25.5812 176.26 27.5854 179.456 26.2517C183.022 24.7538 184.306 20.2532 184.306 20.2532V0.289062H257.486Z" fill="#FF5811"/>
<path opacity="0.5" d="M257.486 0.289062V73.4337H247.7C246.987 73.1912 243.178 71.836 241.83 68.6263C240.482 65.4166 242.493 61.6079 242.95 60.7805L243.035 60.645C244.022 58.9546 244.539 57.0315 244.533 55.0744C244.53 53.3716 244.136 51.6923 243.38 50.1663C242.624 48.6403 241.528 47.3085 240.175 46.2739C238.823 45.2393 237.251 44.5296 235.58 44.1996C233.91 43.8696 232.186 43.9281 230.541 44.3708C228.897 44.8134 227.376 45.6282 226.097 46.7523C224.818 47.8763 223.815 49.2794 223.164 50.8532C222.514 52.4269 222.234 54.1291 222.347 55.8282C222.459 57.5274 222.961 59.1778 223.813 60.6521L223.899 60.7876C224.355 61.5936 226.352 65.4309 225.019 68.6334C223.685 71.836 219.89 73.1983 219.148 73.4408H184.306V49.0545C184.306 49.0545 183.022 44.561 179.456 43.0631C176.282 41.7294 172.444 43.7265 171.61 44.183L171.481 44.2686C169.792 45.2488 167.875 45.7666 165.922 45.7699C163.969 45.7733 162.05 45.2619 160.358 44.2874C158.666 43.313 157.26 41.9097 156.283 40.2191C155.305 38.5285 154.791 36.6102 154.791 34.6574C154.791 32.7046 155.305 30.7863 156.283 29.0957C157.26 27.4051 158.666 26.0018 160.358 25.0274C162.05 24.0529 163.969 23.5415 165.922 23.5449C167.875 23.5482 169.792 24.066 171.481 25.0462L171.61 25.1247C172.423 25.5812 176.26 27.5854 179.456 26.2517C183.022 24.7538 184.306 20.2532 184.306 20.2532V0.289062H257.486Z" fill="white"/>
<path d="M206.702 81.3438L201.253 94.3821C200.34 96.5409 199.41 98.6807 198.464 100.801C197.993 101.85 197.501 102.884 197.037 103.883C196.574 104.881 196.046 105.851 195.568 106.657C195.443 106.883 195.303 107.1 195.147 107.306L194.434 107.642L193.657 107.991L192.073 108.704L185.54 111.472C181.153 113.333 176.76 115.252 172.409 117.278L173.949 122.064C178.692 121.158 183.371 120.102 188.043 118.911C190.376 118.298 192.708 117.691 195.047 116.992L196.824 116.45L197.729 116.165L198.685 115.837L199.049 115.701L199.213 115.63L199.869 115.345L200.211 115.188C200.347 115.102 200.483 115.031 200.611 114.938C200.739 114.845 200.875 114.76 200.953 114.703C201.259 114.47 201.55 114.217 201.823 113.947C202.109 113.654 202.344 113.383 202.537 113.134C202.922 112.677 203.207 112.271 203.492 111.871C203.97 111.158 204.391 110.502 204.783 109.846C205.076 109.375 205.347 108.911 205.611 108.419C206.231 107.299 206.816 106.194 207.38 105.095C208.521 102.898 209.555 100.687 210.568 98.4762C212.579 94.0469 214.455 89.6247 216.16 85.067L206.702 81.3438ZM195.433 107.157H195.397L195.454 107.114H195.511L195.433 107.157Z" fill="#263238"/>
<path d="M173.593 117.777C172.821 116.978 171.794 116.473 170.69 116.351C169.099 116.351 167.837 115.866 166.653 115.923C165.469 115.98 166.724 116.964 167.501 117.349C168.279 117.734 169.156 118.191 168.771 118.726C168.386 119.261 163.193 121.579 162.744 122.406C162.295 123.234 163.25 123.119 163.25 123.119C163.25 123.119 162.088 123.654 162.109 124.282C162.131 124.91 162.958 124.788 162.958 124.788C162.958 124.788 162.188 125.174 162.523 125.68C162.858 126.186 167.323 124.967 167.559 125.024C167.559 125.024 164.912 125.174 164.791 125.951C164.67 126.728 166.389 126.472 167.758 126.301C169.174 126.135 170.49 125.485 171.481 124.46C172.43 123.419 174.577 122.171 174.334 120.566C174.194 119.611 173.945 118.676 173.593 117.777Z" fill="#CE7A63"/>
<g opacity="0.2">
<path d="M163.179 124.798C164.506 124.199 165.847 123.643 167.202 123.143C167.346 123.493 167.515 123.831 167.708 124.156C167.808 124.32 168.015 124.113 167.922 123.949C167.329 122.925 166.966 121.783 166.86 120.604C166.86 120.411 166.581 120.476 166.603 120.675C166.63 120.973 166.675 121.268 166.738 121.56C166.726 121.555 166.713 121.552 166.699 121.552C166.686 121.552 166.672 121.555 166.66 121.56C165.56 121.881 164.501 122.331 163.507 122.901C163.357 122.993 163.457 123.264 163.621 123.179C164.592 122.618 165.626 122.178 166.703 121.867C166.72 121.859 166.736 121.849 166.75 121.835C166.763 121.822 166.774 121.806 166.781 121.788C166.864 122.156 166.972 122.518 167.102 122.872C165.747 123.379 164.406 123.928 163.072 124.534C162.908 124.598 163.015 124.869 163.179 124.798Z" fill="black"/>
</g>
<g opacity="0.2">
<path d="M168.265 121.73C168.681 121.082 169.304 120.592 170.032 120.34C170.76 120.088 171.552 120.087 172.28 120.339C172.444 120.403 172.544 120.111 172.38 120.047C171.594 119.779 170.741 119.781 169.956 120.054C169.172 120.327 168.501 120.854 168.051 121.552C168.034 121.565 168.02 121.581 168.01 121.601C168.001 121.62 167.996 121.641 167.995 121.662C167.995 121.683 167.999 121.705 168.008 121.724C168.017 121.743 168.03 121.761 168.047 121.774C168.063 121.788 168.082 121.798 168.103 121.803C168.124 121.808 168.145 121.809 168.166 121.804C168.187 121.8 168.207 121.791 168.224 121.778C168.241 121.766 168.255 121.749 168.265 121.73Z" fill="black"/>
</g>
<path opacity="0.2" d="M218.97 82.9499C218.97 83.0458 218.942 83.1396 218.888 83.2194C218.835 83.2991 218.759 83.3613 218.671 83.398C218.582 83.4347 218.485 83.4443 218.391 83.4256C218.296 83.4069 218.21 83.3607 218.142 83.2929C218.074 83.225 218.028 83.1386 218.009 83.0445C217.991 82.9505 218 82.8529 218.037 82.7643C218.074 82.6757 218.136 82.5999 218.216 82.5466C218.295 82.4933 218.389 82.4649 218.485 82.4649C218.549 82.4639 218.613 82.4758 218.672 82.4999C218.731 82.5239 218.785 82.5596 218.83 82.6048C218.875 82.65 218.911 82.7039 218.935 82.7632C218.959 82.8225 218.971 82.886 218.97 82.9499Z" fill="black"/>
<path opacity="0.2" d="M218.97 86.1374C218.97 86.2333 218.942 86.3271 218.888 86.4069C218.835 86.4866 218.759 86.5488 218.671 86.5855C218.582 86.6222 218.485 86.6318 218.391 86.6131C218.296 86.5944 218.21 86.5482 218.142 86.4804C218.074 86.4125 218.028 86.3261 218.009 86.232C217.991 86.138 218 86.0404 218.037 85.9518C218.074 85.8632 218.136 85.7874 218.216 85.7341C218.295 85.6808 218.389 85.6524 218.485 85.6524C218.549 85.6514 218.613 85.6633 218.672 85.6874C218.731 85.7114 218.785 85.7471 218.83 85.7923C218.875 85.8375 218.911 85.8914 218.935 85.9507C218.959 86.01 218.971 86.0735 218.97 86.1374Z" fill="black"/>
<path opacity="0.2" d="M218.97 89.3249C218.97 89.4208 218.942 89.5146 218.888 89.5943C218.835 89.6741 218.759 89.7362 218.671 89.773C218.582 89.8097 218.485 89.8193 218.391 89.8006C218.296 89.7818 218.21 89.7356 218.142 89.6678C218.074 89.6 218.028 89.5136 218.009 89.4195C217.991 89.3254 218 89.2279 218.037 89.1393C218.074 89.0506 218.136 88.9749 218.216 88.9216C218.295 88.8683 218.389 88.8398 218.485 88.8398C218.614 88.8398 218.737 88.8909 218.828 88.9819C218.919 89.0729 218.97 89.1962 218.97 89.3249Z" fill="black"/>
<path d="M207.059 244.73L205.24 252.227H201.296L201.117 244.73H207.059Z" fill="#FF8B7B"/>
<path d="M189.841 257.526C190.055 255.087 191.125 254.352 192.451 254.274C193.778 254.195 198.742 252.541 198.742 252.541C198.742 252.541 199.769 250.986 200.675 250.672C201.581 250.358 202.458 251.278 202.458 251.278L204.933 250.979C204.933 250.979 205.646 249.866 206.189 250.843C206.973 252.355 206.902 256.549 206.809 257.526H189.841Z" fill="#263238"/>
<path d="M190.162 256.884H193.236L206.695 256.82C206.866 256.82 206.83 256.556 206.659 256.556H205.746C205.557 256.266 205.431 255.94 205.375 255.598C205.319 255.256 205.335 254.906 205.421 254.571C205.508 254.235 205.663 253.921 205.878 253.649C206.092 253.377 206.361 253.153 206.666 252.99C206.809 252.912 206.666 252.683 206.502 252.769C206.179 252.945 205.895 253.185 205.667 253.474C205.44 253.764 205.273 254.096 205.179 254.452C205.084 254.808 205.063 255.179 205.116 255.543C205.169 255.908 205.297 256.257 205.49 256.571H203.592L190.14 256.642C189.955 256.628 189.99 256.892 190.162 256.884Z" fill="#FF5811"/>
<path d="M223.378 146.607C222.213 156.652 220.465 166.621 218.143 176.464C217.315 180.115 216.364 184.01 215.29 188.147C218.214 212.126 206.845 246.791 206.845 246.791L200.761 246.655C200.761 246.655 199.997 207.94 200.711 187.676C201.888 154.467 205.932 122.834 205.932 122.834L222.508 122.77C222.508 122.77 225.389 127.755 223.378 146.607Z" fill="#FF5811"/>
<path opacity="0.2" d="M223.378 146.609C222.213 156.654 220.465 166.623 218.143 176.466C214.655 163.185 220.996 134.84 220.996 134.84L223.378 146.609Z" fill="black"/>
<path d="M200.069 248.091L199.876 245.48H207.993L207.537 248.091H200.069Z" fill="#263238"/>
<path d="M232.294 244.73L230.475 252.227H226.531L226.352 244.73H232.294Z" fill="#FF8B7B"/>
<path d="M215.076 257.526C215.29 255.087 216.36 254.352 217.686 254.274C219.013 254.195 223.977 252.541 223.977 252.541C223.977 252.541 225.004 250.986 225.91 250.672C226.816 250.358 227.693 251.278 227.693 251.278L230.168 250.979C230.168 250.979 230.882 249.866 231.424 250.843C232.215 252.355 232.137 256.549 232.044 257.526H215.076Z" fill="#263238"/>
<path d="M215.404 256.884H218.478L231.937 256.82C232.108 256.82 232.073 256.556 231.902 256.556H230.996C230.805 256.267 230.677 255.941 230.62 255.599C230.563 255.257 230.578 254.907 230.664 254.571C230.75 254.236 230.905 253.922 231.119 253.649C231.334 253.377 231.603 253.152 231.909 252.99C232.051 252.912 231.909 252.683 231.752 252.769C231.429 252.945 231.144 253.185 230.917 253.474C230.689 253.763 230.522 254.096 230.427 254.451C230.332 254.807 230.309 255.178 230.362 255.542C230.414 255.906 230.54 256.256 230.732 256.571H228.813L215.361 256.642C215.19 256.628 215.226 256.892 215.404 256.884Z" fill="#FF5811"/>
<path d="M217.672 124.111C217.672 124.111 220.768 169.952 221.78 188.169C222.943 208.982 225.546 244.459 225.896 246.784H232.187C231.474 247.498 240.261 215.643 236.716 189.724C240.04 164.924 244.084 146.764 238.856 123.391L217.672 124.111Z" fill="#FF5811"/>
<path d="M225.154 248.091L224.962 245.48H233.086L232.622 248.091H225.154Z" fill="#263238"/>
<path d="M240.76 125.218C227.544 129.583 205.326 128.15 205.326 125.125C205.326 116.566 208.343 107.009 207.537 101.452C201.281 97.0801 206.167 93.1287 205.625 86.6452C205.438 84.2546 206.152 81.8804 207.626 79.9892C209.1 78.0979 211.228 76.8263 213.592 76.4242C214.719 76.2316 215.889 76.0462 217.037 75.8964L217.751 75.8037C220.828 75.4541 223.926 75.3087 227.023 75.3686C228.157 75.3686 229.327 75.3686 230.546 75.3686C231.766 75.3686 232.957 75.4399 234.113 75.5255C235.106 75.5985 236.072 75.8785 236.95 76.3477C237.829 76.8168 238.599 77.4645 239.211 78.2492C239.824 79.0339 240.266 79.9382 240.508 80.9039C240.75 81.8696 240.788 82.8753 240.618 83.8563C239.601 89.5452 238.958 95.2944 238.692 101.067C238.635 102.258 238.592 103.407 238.585 104.534C238.505 108.485 238.684 112.438 239.12 116.367C239.12 116.445 239.12 116.516 239.12 116.588C239.305 118.15 239.541 119.591 239.833 120.91C239.911 121.324 240.004 121.723 240.097 122.108C240.225 122.971 240.546 124.398 240.76 125.218Z" fill="#263238"/>
<path opacity="0.2" d="M232.387 85.7734L238.984 95.702C239.084 94.5109 239.205 93.2912 239.348 92.0644L232.387 85.7734Z" fill="black"/>
<path d="M217.037 86.7099C217.037 86.8215 216.993 86.9285 216.914 87.0075C216.835 87.0864 216.728 87.1307 216.616 87.1307C216.505 87.1307 216.398 87.0864 216.319 87.0075C216.24 86.9285 216.196 86.8215 216.196 86.7099C216.196 86.5983 216.24 86.4912 216.319 86.4123C216.398 86.3334 216.505 86.2891 216.616 86.2891C216.728 86.2891 216.835 86.3334 216.914 86.4123C216.993 86.4912 217.037 86.5983 217.037 86.7099Z" fill="#FF5811"/>
<path d="M216.78 90.5181C216.781 90.574 216.771 90.6295 216.75 90.6814C216.73 90.7333 216.699 90.7805 216.66 90.8203C216.621 90.8602 216.574 90.8918 216.522 90.9134C216.471 90.935 216.415 90.9461 216.36 90.9461C216.299 90.9539 216.238 90.9488 216.18 90.9311C216.122 90.9133 216.068 90.8834 216.022 90.8432C215.976 90.8031 215.94 90.7536 215.915 90.6982C215.89 90.6427 215.877 90.5826 215.877 90.5217C215.877 90.4608 215.89 90.4007 215.915 90.3452C215.94 90.2898 215.976 90.2404 216.022 90.2002C216.068 90.16 216.122 90.1301 216.18 90.1123C216.238 90.0946 216.299 90.0895 216.36 90.0973C216.471 90.0973 216.578 90.1417 216.657 90.2206C216.736 90.2995 216.78 90.4065 216.78 90.5181Z" fill="#FF5811"/>
<path d="M216.36 94.8182C216.592 94.8182 216.78 94.6298 216.78 94.3974C216.78 94.165 216.592 93.9766 216.36 93.9766C216.127 93.9766 215.939 94.165 215.939 94.3974C215.939 94.6298 216.127 94.8182 216.36 94.8182Z" fill="#FF5811"/>
<path d="M226.98 75.3679C223.856 80.8671 216.488 84.1623 216.488 84.1623C215.497 81.7016 215.775 77.743 217.037 75.8957L217.75 75.803C220.814 75.4552 223.897 75.3099 226.98 75.3679Z" fill="#FF8B7B"/>
<path d="M222.536 53.7852C222.536 53.7852 228.178 59.1774 225.582 65.2971C224.447 68.0911 222.252 70.322 219.477 71.5025L222.536 53.7852Z" fill="#263238"/>
<path d="M213.499 52.4418C213.499 52.4418 207.957 51.5075 206.773 57.6201C205.589 63.7327 205.882 65.951 207.487 67.4631C209.626 69.4602 212.986 67.2847 212.986 67.2847L213.499 52.4418Z" fill="#263238"/>
<path d="M216.959 77.5281C216.93 77.6151 216.891 77.6988 216.845 77.7777C215.775 79.461 216.937 80.9945 218.763 80.859C219.618 80.8115 220.424 80.442 221.017 79.8248C222.425 78.3127 223.949 76.9128 225.575 75.638C222.815 74.1615 221.809 68.9191 221.552 65.6523L217.273 71.0945L216.474 72.2856C216.865 72.9454 217.176 73.6493 217.401 74.3826C217.589 74.9032 217.647 75.462 217.57 76.0103C217.493 76.5585 217.283 77.0796 216.959 77.5281Z" fill="#FF8B7B"/>
<path d="M225.154 75.3677C226.657 74.992 228.23 74.992 229.733 75.3677L225.582 82.5003C223.392 80.9097 220.889 82.9781 216.488 84.1622C220.13 82.0825 223.128 79.0397 225.154 75.3677Z" fill="#FF5811"/>
<path d="M225.154 75.3677C226.657 74.992 228.23 74.992 229.733 75.3677L225.582 82.5003C223.392 80.9097 220.889 82.9781 216.488 84.1622C220.13 82.0825 223.128 79.0397 225.154 75.3677Z" fill="#FF5811"/>
<path d="M217.601 75.6877C217.601 75.6877 215.062 75.2241 213.592 76.4009C213.06 78.2404 212.664 80.1166 212.408 82.0143C212.408 82.0143 214.848 80.7946 216.488 84.1541C216.488 84.1612 215.654 78.8332 217.601 75.6877Z" fill="#FF5811"/>
<path d="M217.601 75.6877C217.601 75.6877 215.062 75.2241 213.592 76.4009C213.06 78.2404 212.664 80.1166 212.408 82.0143C212.408 82.0143 214.848 80.7946 216.488 84.1541C216.488 84.1612 215.654 78.8332 217.601 75.6877Z" fill="#FF5811"/>
<g opacity="0.2">
<path d="M217.415 74.3702C217.191 73.6368 216.879 72.9329 216.488 72.2732L217.287 71.082L219.983 71.1462C219.509 72.476 218.605 73.6102 217.415 74.3702Z" fill="black"/>
</g>
<path d="M222.344 59.8039C222.772 65.1818 223.057 67.45 220.81 70.5598C217.415 75.2388 210.825 74.5612 208.842 69.4114C207.044 64.7753 206.645 56.7583 211.467 53.9124C216.288 51.0665 221.916 54.4188 222.344 59.8039Z" fill="#FF8B7B"/>
<path d="M221.16 63.3295C223.863 62.6163 222.8 59.8203 222.8 59.8203L218.827 60.4408C218.827 60.4408 218.464 64.0357 221.16 63.3295Z" fill="#263238"/>
<path d="M209.698 54.4179C209.698 54.4179 210.318 57.3851 213.977 57.5491C217.636 57.7132 217.308 63.0983 221.395 62.2495C225.482 61.4007 224.248 55.1169 222.522 53.7831C220.796 52.4493 213.778 49.5036 209.698 54.4179Z" fill="#263238"/>
<path d="M218.257 51.6801C218.257 51.6801 220.91 43.8343 227.073 46.937C233.235 50.0396 227.829 58.1137 223.92 57.0581C220.012 56.0025 218.257 51.6801 218.257 51.6801Z" fill="#263238"/>
<path d="M211.082 68.098C212.227 67.4376 213.299 66.6556 214.277 65.7656C214.277 65.7656 214.662 67.8127 213.293 68.5616C212.934 68.7789 212.506 68.8519 212.096 68.7658C211.685 68.6798 211.323 68.4411 211.082 68.098Z" fill="white"/>
<path d="M213.492 62.2015C213.549 62.6365 213.371 63.0217 213.086 63.0645C212.801 63.1073 212.522 62.7792 212.465 62.3512C212.408 61.9233 212.579 61.531 212.865 61.4882C213.15 61.4454 213.428 61.7664 213.492 62.2015Z" fill="#263238"/>
<path d="M209.077 62.9191C209.134 63.3542 208.956 63.7394 208.671 63.7751C208.385 63.8107 208.107 63.4969 208.05 63.0618C207.993 62.6267 208.164 62.2415 208.45 62.2059C208.735 62.1702 209.013 62.4841 209.077 62.9191Z" fill="#263238"/>
<path d="M208.578 62.2155L207.494 62.0586C207.494 62.0586 208.143 62.7719 208.578 62.2155Z" fill="#263238"/>
<path d="M210.696 62.8281C210.696 62.8281 210.111 64.0906 209.441 65.2033C209.388 65.287 209.355 65.3816 209.344 65.4799C209.333 65.5782 209.345 65.6778 209.378 65.7711C209.411 65.8644 209.464 65.949 209.534 66.0187C209.605 66.0883 209.69 66.1412 209.783 66.1733C210.248 66.3135 210.726 66.402 211.21 66.4372L210.696 62.8281Z" fill="#FF5652"/>
<path d="M224.762 63.2342C224.623 63.6993 224.388 64.1302 224.072 64.4988C223.757 64.8674 223.367 65.1655 222.929 65.374C221.788 65.8733 221.017 64.6607 221.16 63.2842C221.295 62.0573 222.044 60.317 223.3 60.4311C224.555 60.5452 225.176 61.9789 224.79 63.2271" fill="#FF8B7B"/>
<path d="M214.691 60.4671C214.654 60.4672 214.618 60.4597 214.585 60.4449C214.552 60.4302 214.522 60.4086 214.498 60.3815C214.286 60.1341 214.018 59.9405 213.717 59.8165C213.416 59.6925 213.09 59.6417 212.765 59.6682C212.732 59.6744 212.697 59.6739 212.664 59.6669C212.631 59.6598 212.6 59.6463 212.572 59.6271C212.544 59.6078 212.52 59.5833 212.502 59.5549C212.484 59.5264 212.471 59.4947 212.465 59.4614C212.456 59.3947 212.473 59.3271 212.511 59.2717C212.549 59.2163 212.607 59.1772 212.672 59.1618C213.079 59.1142 213.492 59.1652 213.876 59.3104C214.259 59.4557 214.602 59.6909 214.876 59.9963C214.901 60.0197 214.921 60.0478 214.934 60.0791C214.948 60.1104 214.955 60.1441 214.955 60.1782C214.955 60.2123 214.948 60.246 214.934 60.2773C214.921 60.3086 214.901 60.3367 214.876 60.3601C214.83 60.4038 214.769 60.4291 214.705 60.4314" fill="#263238"/>
<path d="M207.052 61.2461C207.001 61.251 206.95 61.2406 206.905 61.2164C206.86 61.1921 206.823 61.1551 206.8 61.1099C206.776 61.0648 206.766 61.0136 206.772 60.9629C206.777 60.9122 206.798 60.8643 206.83 60.8253C207.08 60.4989 207.405 60.2376 207.778 60.0638C208.151 59.8899 208.56 59.8086 208.97 59.8267C209.004 59.8302 209.037 59.8405 209.067 59.8568C209.096 59.8731 209.123 59.8951 209.144 59.9217C209.165 59.9482 209.181 59.9787 209.19 60.0114C209.2 60.044 209.202 60.0782 209.198 60.112C209.196 60.1455 209.186 60.1781 209.171 60.2079C209.155 60.2377 209.134 60.264 209.108 60.2853C209.082 60.3066 209.052 60.3225 209.02 60.3319C208.988 60.3414 208.954 60.3442 208.92 60.3402C208.596 60.3329 208.275 60.4029 207.984 60.5443C207.693 60.6857 207.439 60.8945 207.244 61.1534C207.222 61.18 207.195 61.202 207.164 61.2179C207.134 61.2338 207.1 61.2434 207.066 61.2461" fill="#263238"/>
<path d="M212.993 61.4929L211.909 61.3359C211.909 61.3359 212.558 62.0492 212.993 61.4929Z" fill="#263238"/>
<path d="M245.996 109.048C243.777 112.614 241.309 116.181 238.863 119.704L242.6 123.064C245.944 120.087 249.085 116.889 252.001 113.492C253.555 111.724 254.985 109.851 256.281 107.885C256.616 107.358 256.944 106.816 257.265 106.202C257.621 105.533 257.924 104.836 258.171 104.119C258.33 103.655 258.452 103.178 258.535 102.693C258.659 101.959 258.659 101.209 258.535 100.475C258.421 99.8255 258.227 99.193 257.957 98.5917C257.785 98.1884 257.59 97.7955 257.372 97.4148C256.709 96.2673 255.957 95.1727 255.125 94.141C254.376 93.1852 253.627 92.2865 252.871 91.4163C251.338 89.7045 249.804 88.0569 248.207 86.4877C245.04 83.3209 241.787 80.3537 238.335 77.5078L231.745 85.2324L241.238 93.7915C242.793 95.218 244.355 96.6445 245.81 98.071C246.523 98.7843 247.237 99.4976 247.95 100.211C248.536 100.827 249.088 101.475 249.605 102.151C249.562 102.272 249.519 102.408 249.469 102.543C249.319 102.914 249.141 103.328 248.956 103.756C248.06 105.569 247.072 107.336 245.996 109.048Z" fill="#263238"/>
<path d="M239.141 118.129C239.141 118.129 234.926 119.691 234.277 120.511C233.628 121.331 237.765 125.996 239.369 126.652C240.974 127.309 240.154 125.368 240.154 125.368C240.154 125.368 242.23 125.853 243.192 124.277C244.155 122.701 243.021 118.393 239.141 118.129Z" fill="#FF8B7B"/>
<path d="M137.873 241.215V252.242L142.323 252.598L144.506 242.27L137.873 241.215Z" fill="#FFC3BD"/>
<path d="M141.032 251.558C141.032 251.558 142.459 248.869 143.258 249.154C144.057 249.439 144.42 252.72 144.42 252.72C144.42 252.72 148.914 254.218 150.162 254.304C151.41 254.389 152.437 255.088 152.594 257.542H137.266C137.266 257.542 137.373 252.007 137.402 251.058C137.431 250.11 138.779 251.301 138.779 251.301L141.032 251.558Z" fill="#263238"/>
<path d="M137.438 253.149C137.71 253.301 137.949 253.507 138.14 253.754C138.331 254.001 138.469 254.284 138.547 254.586C138.625 254.888 138.641 255.203 138.594 255.512C138.547 255.82 138.437 256.116 138.272 256.38C138.263 256.393 138.256 256.408 138.253 256.423C138.249 256.438 138.249 256.454 138.252 256.47C138.255 256.485 138.261 256.5 138.269 256.513C138.278 256.526 138.29 256.537 138.303 256.545C138.316 256.553 138.331 256.559 138.347 256.561C138.362 256.564 138.378 256.563 138.393 256.559C138.409 256.555 138.423 256.547 138.435 256.538C138.447 256.528 138.457 256.516 138.465 256.502C138.652 256.213 138.779 255.889 138.836 255.55C138.893 255.21 138.881 254.863 138.798 254.529C138.716 254.194 138.566 253.881 138.358 253.607C138.15 253.333 137.887 253.104 137.587 252.935C137.459 252.857 137.309 253.064 137.438 253.142V253.149Z" fill="white"/>
<path d="M137.416 256.641L149.442 256.769H152.231C152.388 256.769 152.423 256.527 152.231 256.527L140.205 256.398H137.409C137.252 256.398 137.224 256.641 137.409 256.641H137.416Z" fill="white"/>
<path d="M143.757 253.669C143.874 253.491 144.026 253.339 144.204 253.222C144.382 253.105 144.583 253.026 144.792 252.989C145.002 252.953 145.217 252.959 145.424 253.008C145.631 253.058 145.826 253.149 145.997 253.277C146.111 253.369 146.261 253.155 146.147 253.063C145.355 252.414 144.278 252.699 143.565 253.548C143.458 253.676 143.65 253.797 143.757 253.669Z" fill="white"/>
<path d="M145.027 254.069C145.144 253.891 145.296 253.739 145.474 253.622C145.652 253.506 145.852 253.426 146.062 253.39C146.272 253.353 146.487 253.359 146.694 253.409C146.901 253.458 147.096 253.549 147.266 253.677C147.38 253.77 147.53 253.556 147.416 253.463C146.624 252.814 145.547 253.092 144.834 253.948C144.727 254.076 144.92 254.198 145.027 254.069Z" fill="white"/>
<path d="M146.339 254.468C146.456 254.29 146.608 254.138 146.786 254.021C146.964 253.904 147.164 253.825 147.373 253.787C147.583 253.75 147.798 253.756 148.005 253.804C148.212 253.852 148.407 253.942 148.579 254.068C148.693 254.168 148.843 253.954 148.729 253.861C147.937 253.212 146.86 253.49 146.147 254.346C146.04 254.475 146.232 254.596 146.339 254.468Z" fill="white"/>
<path d="M135.198 131.922C135.326 133.883 135.055 139.932 135.319 143.17C135.826 149.354 136.496 157.371 137.031 165.402C137.652 174.675 138.094 184.018 137.873 190.48C137.302 207.071 137.431 244.688 137.431 244.688H144.627C144.627 244.688 153.079 207.313 154.663 190.48C155.982 176.529 155.283 140.602 155.062 131.922H135.198Z" fill="#263238"/>
<path opacity="0.2" d="M135.198 131.922C135.326 133.883 135.055 139.932 135.319 143.17C135.826 149.354 136.496 157.371 137.031 165.402C137.652 174.675 138.094 184.018 137.873 190.48C137.302 207.071 137.431 244.688 137.431 244.688H144.627C144.627 244.688 153.079 207.313 154.663 190.48C155.982 176.529 155.283 140.602 155.062 131.922H135.198Z" fill="white"/>
<path opacity="0.2" d="M135.319 143.172C135.826 149.355 136.496 157.373 137.031 165.404C140.597 154.919 137.281 139.07 137.281 139.07L135.319 143.172Z" fill="black"/>
<path d="M136.803 244.931H145.248L145.868 242.235L136.582 242.121L136.803 244.931Z" fill="#FF5811"/>
<path d="M101.076 239.16L99.3925 250.059L103.736 251.086L107.467 241.214L101.076 239.16Z" fill="#FFC3BD"/>
<path d="M102.616 249.867C102.616 249.867 104.414 247.42 105.184 247.827C105.954 248.233 105.79 251.514 105.79 251.514C105.79 251.514 109.999 253.654 111.225 253.954C112.452 254.253 113.365 255.081 113.137 257.52L97.9874 255.181C97.9874 255.181 98.936 249.731 99.1072 248.797C99.2784 247.863 100.427 249.239 100.427 249.239L102.616 249.867Z" fill="#263238"/>
<path d="M98.8219 250.887C99.0687 251.078 99.2738 251.319 99.4246 251.593C99.5753 251.866 99.6686 252.168 99.6986 252.479C99.7287 252.791 99.6949 253.105 99.5993 253.402C99.5037 253.7 99.3484 253.975 99.1428 254.21C99.043 254.339 99.2142 254.496 99.314 254.367C99.5426 254.11 99.7163 253.809 99.8244 253.483C99.9325 253.156 99.9727 252.811 99.9427 252.469C99.9126 252.126 99.8129 251.793 99.6496 251.49C99.4863 251.188 99.2629 250.922 98.993 250.708C98.8789 250.608 98.7006 250.794 98.8147 250.894L98.8219 250.887Z" fill="white"/>
<path d="M98.2655 254.341L110.127 256.302L112.887 256.752C113.044 256.752 113.108 256.545 112.959 256.516L101.09 254.562L98.3297 254.105C98.1799 254.105 98.1086 254.312 98.2655 254.341Z" fill="white"/>
<path d="M104.992 252.365C105.134 252.207 105.307 252.081 105.5 251.992C105.694 251.904 105.903 251.856 106.115 251.852C106.327 251.847 106.538 251.886 106.735 251.965C106.932 252.045 107.11 252.164 107.26 252.315C107.36 252.429 107.538 252.243 107.438 252.129C106.76 251.373 105.655 251.487 104.813 252.215C104.692 252.329 104.863 252.479 104.992 252.365Z" fill="white"/>
<path d="M106.183 252.956C106.325 252.798 106.498 252.67 106.691 252.581C106.884 252.493 107.093 252.444 107.306 252.44C107.519 252.435 107.73 252.474 107.927 252.554C108.124 252.634 108.302 252.754 108.451 252.906C108.551 253.013 108.729 252.828 108.636 252.721C107.923 251.957 106.846 252.072 106.012 252.806C105.883 252.913 106.061 253.063 106.183 252.956Z" fill="white"/>
<path d="M107.424 253.547C107.566 253.39 107.739 253.263 107.933 253.175C108.126 253.086 108.335 253.039 108.547 253.034C108.759 253.029 108.97 253.068 109.167 253.147C109.364 253.227 109.543 253.346 109.692 253.497C109.792 253.604 109.97 253.419 109.87 253.312C109.157 252.555 108.08 252.662 107.245 253.397C107.124 253.504 107.295 253.654 107.424 253.547Z" fill="white"/>
<path d="M126.425 191.929C121.967 208.227 107.024 243.512 107.024 243.512L99.8918 242.278C99.8918 242.278 107.281 205.602 110.683 189.354C113.757 174.697 117.103 141.017 118.222 130.988L142.031 133.128C140.761 141.687 130.084 178.441 126.389 191.958L126.425 191.929Z" fill="#263238"/>
<path opacity="0.2" d="M126.425 191.929C121.967 208.227 107.024 243.512 107.024 243.512L99.8918 242.278C99.8918 242.278 107.281 205.602 110.683 189.354C113.757 174.697 117.103 141.017 118.222 130.988L142.031 133.128C140.761 141.687 130.084 178.441 126.389 191.958L126.425 191.929Z" fill="white"/>
<path d="M99.2712 242.386L107.588 243.842L108.665 241.288L99.3925 239.598L99.2712 242.386Z" fill="#FF5811"/>
<path d="M158.664 82.8077C158.265 86.2456 157.609 93.5066 156.967 101.709C156.731 104.805 156.489 108.05 156.253 111.26C155.997 114.976 155.783 118.542 155.619 121.787C155.554 123.1 155.497 124.362 155.447 125.56C155.219 131.466 155.219 135.781 155.547 137.087C137.124 144.54 117.11 134.904 117.11 134.904C118.294 125.254 119.485 114.291 119.485 114.291C120.048 110.183 120.59 106.031 121.076 102.123C121.111 101.802 121.154 101.488 121.19 101.174C121.425 99.2554 121.639 97.401 121.839 95.6392L121.91 94.9902C122.295 91.5309 122.623 88.471 122.766 86.0245C123.094 81.4169 125.89 77.123 130.063 76.3527C131.325 76.1174 132.687 75.9105 134.1 75.7536L135.12 75.6395C139.113 75.2103 143.131 75.0578 147.145 75.183H147.723H148.03H148.529C150.121 75.2505 151.709 75.3981 153.286 75.6252C154.95 75.8689 156.449 76.7611 157.457 78.107C158.465 79.4528 158.899 81.1428 158.664 82.8077Z" fill="#FF5811"/>
<path opacity="0.3" d="M146.218 85.2045C146.224 85.322 146.194 85.4386 146.133 85.5392C146.072 85.6399 145.983 85.7202 145.876 85.7697C145.769 85.8193 145.65 85.836 145.534 85.8176C145.418 85.7992 145.31 85.7466 145.224 85.6665C145.137 85.5864 145.077 85.4824 145.05 85.3679C145.023 85.2533 145.031 85.1333 145.073 85.0233C145.115 84.9133 145.188 84.8181 145.284 84.75C145.38 84.682 145.494 84.644 145.612 84.641C145.688 84.6382 145.765 84.6505 145.837 84.6773C145.909 84.704 145.975 84.7447 146.032 84.7971C146.088 84.8494 146.133 84.9123 146.165 84.9822C146.197 85.0522 146.215 85.1277 146.218 85.2045Z" fill="white"/>
<path opacity="0.3" d="M146.311 88.8545C146.301 89.0005 146.237 89.1378 146.132 89.2397C146.027 89.3416 145.888 89.401 145.741 89.4063C145.595 89.4116 145.452 89.3625 145.34 89.2685C145.228 89.1745 145.154 89.0422 145.134 88.8973C145.122 88.8152 145.128 88.7316 145.151 88.6518C145.174 88.5721 145.213 88.4981 145.266 88.4345C145.319 88.371 145.385 88.3193 145.46 88.2829C145.534 88.2464 145.616 88.2261 145.698 88.223C145.781 88.22 145.864 88.2345 145.941 88.2654C146.018 88.2963 146.087 88.3431 146.145 88.4026C146.203 88.4621 146.247 88.5331 146.276 88.6109C146.304 88.6888 146.316 88.7718 146.311 88.8545Z" fill="white"/>
<path opacity="0.3" d="M146.432 92.5083C146.436 92.6256 146.405 92.7415 146.344 92.8412C146.282 92.941 146.192 93.0202 146.085 93.0686C145.978 93.1171 145.859 93.1327 145.743 93.1135C145.627 93.0943 145.52 93.041 145.435 92.9606C145.349 92.8802 145.289 92.7761 145.263 92.6617C145.237 92.5473 145.245 92.4277 145.287 92.3181C145.329 92.2085 145.403 92.1138 145.499 92.046C145.594 91.9783 145.708 91.9406 145.826 91.9377C145.981 91.9338 146.132 91.9916 146.246 92.0984C146.359 92.2052 146.426 92.3525 146.432 92.5083Z" fill="white"/>
<path opacity="0.2" d="M135.198 92.7734C135.198 92.7734 135.911 108.672 137.138 109.892C138.365 111.111 153.301 117.117 153.301 117.117C144.741 116.125 137.102 114.785 133.329 111.896C131.953 108.051 133.928 99.9631 135.198 92.7734Z" fill="black"/>
<path opacity="0.2" d="M155.64 121.786C155.576 123.099 155.519 124.361 155.469 125.559C150.198 125.217 130.626 124.946 125.248 117.207C122.103 112.678 123.643 94.2188 123.643 94.2188C125.572 100.582 129.098 106.344 133.887 110.957C138.675 115.569 144.566 118.878 150.997 120.567L155.64 121.786Z" fill="black"/>
<path d="M184.784 100.697C182.487 100.554 180.19 100.426 177.972 100.226C176.881 100.119 175.775 100.005 174.841 99.8555L174.406 99.777L174.22 99.5916C173.735 99.1351 173.008 98.3648 172.344 97.5873C171.681 96.8099 170.968 95.954 170.276 95.0909C168.885 93.3648 167.509 91.5246 166.132 89.7486C163.393 86.1181 160.633 82.3878 157.851 78.793L148.579 85.4833C151.303 89.4419 154.178 93.1509 157.266 96.8313C158.807 98.6643 160.397 100.462 162.081 102.252C162.937 103.144 163.807 104.028 164.748 104.92C165.769 105.918 166.861 106.84 168.015 107.68C168.357 107.915 168.728 108.186 169.263 108.465L169.684 108.693C169.841 108.771 170.034 108.85 170.212 108.928C170.39 109.007 170.668 109.099 170.925 109.178C171.007 109.204 171.09 109.223 171.175 109.235L171.389 109.292C172.225 109.468 173.074 109.571 173.928 109.599C175.213 109.663 176.501 109.663 177.787 109.599C180.24 109.492 182.615 109.313 184.983 109.078C187.884 108.783 190.768 108.429 193.635 108.015L194.413 107.666L195.126 107.33C195.278 107.121 195.416 106.901 195.54 106.674C196.018 105.875 196.524 104.898 197.009 103.907C197.394 103.115 197.786 102.302 198.157 101.482C193.699 101.146 189.206 100.94 184.784 100.697ZM173.914 99.6344H173.964C174.056 99.6566 174.146 99.6852 174.235 99.72H174.313C174.176 99.7134 174.041 99.6845 173.914 99.6344Z" fill="#FF5811"/>
<path opacity="0.2" d="M159.071 98.9047L157.459 87.7422L157.131 96.6508L159.071 98.9047Z" fill="black"/>
<path d="M148.087 50.4114C146.756 50.0159 145.358 49.8985 143.98 50.0666C142.602 50.2347 141.273 50.6847 140.077 51.3886C138.508 52.3301 137.181 53.7138 137.338 55.6682C137.812 59.7008 138.512 63.7037 139.435 67.658L154.256 59.8122C154.256 59.8122 155.134 55.9606 153.194 53.6568C151.87 52.07 150.085 50.9355 148.087 50.4114Z" fill="#263238"/>
<path d="M142.366 50.3907C141.439 50.3863 140.521 50.5741 139.67 50.9424C138.82 51.3107 138.055 51.8515 137.423 52.5305C135.804 54.4206 137.801 59.2708 137.801 59.2708L142.366 50.3907Z" fill="#263238"/>
<path d="M140.861 50.9321C140.861 50.9321 141.432 48.9421 147.48 48.9492C153.529 48.9564 157.216 48.8779 156.453 52.3586C155.447 56.9805 148.051 55.2901 148.051 55.2901L140.861 50.9321Z" fill="#263238"/>
<path d="M146.453 72.836V72.8859L145.647 75.4465C145.502 76.3932 145.516 77.3576 145.69 78.2995C146.225 79.1055 146.403 80.8887 144.392 80.8031C141.831 80.7032 137.259 76.9943 137.159 75.8602C138.5 72.4152 139.713 68.1499 139.677 64.8047L142.445 68.0857L146.453 72.836Z" fill="#FFC3BD"/>
<g opacity="0.2">
<path d="M146.432 72.8952L145.626 75.4558C144.064 74.657 142.459 73.0094 142.159 71.2904C141.945 70.0493 142.552 68.9224 143.051 68.8867L146.432 72.8952Z" fill="black"/>
</g>
<path d="M153.144 67.7639C152.972 68.3202 152.78 68.8694 152.573 69.4044C150.74 74.1689 144.727 74.333 141.211 70.6026C140.883 70.2501 140.583 69.8734 140.312 69.4757C138.101 66.266 138.8 63.9123 139.399 58.5129C139.526 57.2581 139.972 56.0566 140.694 55.0224C141.415 53.9881 142.389 53.1553 143.523 52.6031C144.657 52.0508 145.913 51.7973 147.172 51.8667C148.432 51.936 149.652 52.3259 150.719 52.9994C155.126 55.7883 154.927 62.2004 153.144 67.7639Z" fill="#FFC3BD"/>
<path d="M146.532 65.3594C147.667 66.0119 148.836 66.6047 150.034 67.1354C149.882 67.3603 149.686 67.5514 149.457 67.6965C149.228 67.8417 148.971 67.9377 148.703 67.9786C148.435 68.0195 148.161 68.0043 147.899 67.9341C147.637 67.8638 147.392 67.74 147.181 67.5705C146.864 67.3091 146.633 66.9587 146.517 66.5645C146.401 66.1704 146.406 65.7506 146.532 65.3594Z" fill="white"/>
<path d="M151.154 52.5096C148.65 50.6623 143.486 50.0703 141.282 52.5096C139.078 54.949 139.321 59.0359 139.321 59.0359C139.318 59.4776 139.484 59.9036 139.784 60.2271C139.848 60.2879 139.905 60.3548 139.955 60.4268L142.623 60.6907C142.766 59.5851 143.08 57.5738 143.814 57.424C145.198 57.1387 144.149 55.6694 144.399 54.7849C145.191 51.9319 152.958 53.3584 154.064 57.588C153.746 55.5968 152.711 53.7904 151.154 52.5096Z" fill="#263238"/>
<path d="M136.489 61.7013C136.639 63.0528 137.315 64.2907 138.372 65.1464C139.799 66.2662 141.225 65.1464 141.382 63.4559C141.546 61.9224 141.004 59.4974 139.299 59.048C137.595 58.5987 136.296 60.0394 136.446 61.7013" fill="#FFC3BD"/>
<path d="M147.409 61.3328C147.338 61.7465 147.502 62.1245 147.773 62.1745C148.044 62.2244 148.322 61.9248 148.393 61.504C148.465 61.0832 148.301 60.7194 148.03 60.6695C147.759 60.6196 147.48 60.9191 147.409 61.3328Z" fill="#263238"/>
<path d="M151.796 62.0789C151.724 62.4926 151.881 62.8706 152.152 62.9206C152.423 62.9705 152.701 62.6709 152.773 62.2501C152.844 61.8293 152.687 61.4655 152.416 61.4156C152.145 61.3657 151.867 61.6652 151.796 62.0789Z" fill="#263238"/>
<path d="M153.579 60.7236C153.54 60.7171 153.504 60.7005 153.474 60.6754C153.444 60.6504 153.421 60.6178 153.408 60.581C153.371 60.4294 153.302 60.2874 153.206 60.1644C153.11 60.0414 152.989 59.9403 152.851 59.8677C152.565 59.7642 152.252 59.7642 151.967 59.8677C151.941 59.8781 151.913 59.8832 151.884 59.8827C151.856 59.8822 151.828 59.8762 151.802 59.8649C151.777 59.8537 151.753 59.8374 151.734 59.8171C151.714 59.7967 151.699 59.7727 151.689 59.7465C151.678 59.7202 151.673 59.6922 151.674 59.664C151.674 59.6358 151.68 59.608 151.691 59.5822C151.703 59.5563 151.719 59.5329 151.739 59.5134C151.76 59.4939 151.784 59.4785 151.81 59.4683C152.203 59.3231 152.636 59.3231 153.029 59.4683C153.217 59.5621 153.384 59.6934 153.519 59.8541C153.654 60.0148 153.754 60.2015 153.814 60.4027C153.824 60.4293 153.829 60.4578 153.828 60.4863C153.827 60.5148 153.82 60.5429 153.809 60.5688C153.797 60.5947 153.78 60.618 153.758 60.6372C153.737 60.6565 153.713 60.6713 153.686 60.6808C153.655 60.7061 153.618 60.7211 153.579 60.7236Z" fill="#263238"/>
<path d="M146.41 59.493C146.374 59.4894 146.339 59.4745 146.311 59.4502C146.286 59.4325 146.265 59.4101 146.25 59.3844C146.234 59.3586 146.223 59.33 146.219 59.3001C146.214 59.2703 146.215 59.2398 146.222 59.2104C146.23 59.1811 146.243 59.1535 146.261 59.1292C146.534 58.7629 146.933 58.5092 147.38 58.4159C147.607 58.3916 147.836 58.4132 148.054 58.4794C148.273 58.5455 148.475 58.655 148.65 58.8011C148.692 58.8413 148.717 58.8954 148.722 58.9532C148.726 59.0111 148.709 59.0684 148.674 59.1144C148.638 59.1603 148.587 59.1916 148.53 59.2023C148.473 59.2129 148.414 59.2021 148.365 59.172C148.242 59.0643 148.098 58.9829 147.942 58.9326C147.786 58.8823 147.622 58.8643 147.459 58.8796C147.135 58.9481 146.845 59.1271 146.639 59.386C146.615 59.4236 146.58 59.4537 146.54 59.4726C146.5 59.4915 146.455 59.4986 146.41 59.493Z" fill="#263238"/>
<path d="M150.262 61.2617C150.457 62.355 150.791 63.419 151.253 64.4286C151.917 65.7124 149.606 65.363 149.606 65.363L150.262 61.2617Z" fill="#ED847E"/>
<path d="M161.788 119.225L161.268 124.346C155.961 124.384 150.658 124.05 145.398 123.348C142.686 123.002 139.997 122.497 137.345 121.836C135.926 121.491 134.53 121.057 133.165 120.537C132.452 120.252 131.739 119.938 130.94 119.546C130.08 119.116 129.267 118.597 128.515 117.998C128.285 117.821 128.066 117.63 127.859 117.428L127.516 117.107L127.174 116.736C126.935 116.458 126.711 116.167 126.503 115.866C126.265 115.512 126.055 115.14 125.876 114.753C125.667 114.316 125.502 113.86 125.384 113.391L125.22 112.749C125.113 112.321 125.056 111.964 124.97 111.572C124.685 110.067 124.499 108.719 124.342 107.292C124.036 104.56 123.879 101.9 123.765 99.2538L123.65 95.3024V91.3652C123.65 88.7261 123.729 86.137 123.914 83.4766L135.326 83.8903C135.326 88.9259 135.205 94.0542 135.155 99.0755C135.155 101.593 135.155 104.068 135.155 106.508C135.155 107.713 135.234 108.904 135.341 109.953C135.341 110.167 135.341 110.423 135.405 110.616C135.925 111.007 136.478 111.351 137.06 111.643C138.057 112.157 139.081 112.619 140.127 113.027C142.323 113.897 144.677 114.653 147.067 115.373C151.867 116.807 156.867 118.034 161.788 119.225Z" fill="#FF5811"/>
<path d="M161.025 119.349C161.025 119.349 166.332 117.923 167.444 118.179C168.7 118.436 168.122 125.048 166.496 125.954C164.87 126.86 160.833 123.928 160.833 123.928C159.905 121.774 160.198 120.012 161.025 119.349Z" fill="#FFC3BD"/>
<path d="M161.025 119.35C161.711 118.615 162.535 118.024 163.45 117.609C164.641 117.188 165.811 116.568 166.353 116.782C166.895 116.996 165.041 118.422 165.041 118.422L161.025 119.35Z" fill="#FFC3BD"/>
<path d="M167.452 118.18C167.452 118.18 170.711 119.1 171.731 120.448C172.751 121.796 169.848 120.983 169.848 120.983C169.848 120.983 173.243 122.217 171.845 124.813C171.132 126.083 167.238 126.339 165.426 126.104C165.476 126.104 165.476 120.576 167.452 118.18Z" fill="#FFC3BD"/>
<path d="M137.923 73.6992C137.152 73.7469 136.404 73.9816 135.744 74.383C135.084 74.7844 134.532 75.3404 134.135 76.003L141.168 84.2768C141.168 84.2768 141.118 81.2883 144.977 80.7533C144.977 80.7533 139.799 76.9802 137.923 73.6992Z" fill="#FF5811"/>
<path opacity="0.3" d="M137.923 73.6992C137.152 73.7469 136.404 73.9816 135.744 74.383C135.084 74.7844 134.532 75.3404 134.135 76.003L141.168 84.2768C141.168 84.2768 141.118 81.2883 144.977 80.7533C144.977 80.7533 139.799 76.9802 137.923 73.6992Z" fill="white"/>
<path d="M144.977 80.7552C144.977 80.7552 145.426 76.1119 145.733 75.1205L146.132 73.8438C146.132 73.8438 148.9 73.8865 149.848 75.2703L149.477 82.3458C148.167 81.3838 146.601 80.8305 144.977 80.7552Z" fill="#FF5811"/>
<path opacity="0.3" d="M144.977 80.7552C144.977 80.7552 145.426 76.1119 145.733 75.1205L146.132 73.8438C146.132 73.8438 148.9 73.8865 149.848 75.2703L149.477 82.3458C148.167 81.3838 146.601 80.8305 144.977 80.7552Z" fill="white"/>
</g>
<defs>
<clipPath id="clip0_2_4259">
<rect width="356.629" height="260.71" fill="white" transform="translate(-3.05176e-05 0.289062)"/>
</clipPath>
</defs>
</svg>
