<svg width="406" height="29" viewBox="0 0 406 29" fill="none" xmlns="http://www.w3.org/2000/svg">
<path d="M0 0H406V28.4558H0V0Z" fill="#FBDA37"/>
<path d="M250.582 18.8222C249.042 20.3622 247.157 21.1322 244.928 21.1322C242.699 21.1322 240.807 20.3622 239.252 18.8222C237.712 17.2675 236.942 15.3755 236.942 13.1462C236.942 10.9168 237.712 9.03216 239.252 7.49216C240.807 5.93749 242.699 5.16016 244.928 5.16016C247.157 5.16016 249.042 5.93749 250.582 7.49216C252.137 9.03216 252.914 10.9168 252.914 13.1462C252.914 15.3755 252.137 17.2675 250.582 18.8222ZM241.034 17.1062C242.09 18.1475 243.388 18.6682 244.928 18.6682C246.468 18.6682 247.759 18.1475 248.8 17.1062C249.856 16.0502 250.384 14.7302 250.384 13.1462C250.384 11.5622 249.856 10.2495 248.8 9.20816C247.759 8.15216 246.468 7.62416 244.928 7.62416C243.388 7.62416 242.09 8.15216 241.034 9.20816C239.993 10.2495 239.472 11.5622 239.472 13.1462C239.472 14.7302 239.993 16.0502 241.034 17.1062Z" fill="black"/>
<path d="M228.705 18.4253H235.525V20.8453H226.175V5.44531H235.415V7.86531H228.705V11.8693H234.865V14.2673H228.705V18.4253Z" fill="black"/>
<path d="M218.646 21.1322C217.165 21.1322 215.904 20.7948 214.862 20.1202C213.836 19.4455 213.117 18.5215 212.706 17.3482L214.884 16.0722C215.5 17.8028 216.776 18.6682 218.712 18.6682C219.666 18.6682 220.377 18.4848 220.846 18.1182C221.33 17.7368 221.572 17.2455 221.572 16.6442C221.572 16.0135 221.316 15.5368 220.802 15.2142C220.289 14.8768 219.38 14.5102 218.074 14.1142C217.341 13.8942 216.747 13.6888 216.292 13.4982C215.838 13.3075 215.354 13.0435 214.84 12.7062C214.342 12.3542 213.968 11.9215 213.718 11.4082C213.469 10.8948 213.344 10.2935 213.344 9.60416C213.344 8.24016 213.828 7.16216 214.796 6.37016C215.764 5.56349 216.93 5.16016 218.294 5.16016C219.526 5.16016 220.604 5.46082 221.528 6.06216C222.452 6.66349 223.164 7.49216 223.662 8.54816L221.528 9.78016C220.883 8.34282 219.805 7.62416 218.294 7.62416C217.561 7.62416 216.974 7.80016 216.534 8.15216C216.094 8.48949 215.874 8.95149 215.874 9.53816C215.874 10.1102 216.094 10.5648 216.534 10.9022C216.989 11.2248 217.803 11.5695 218.976 11.9362C219.563 12.1268 219.988 12.2735 220.252 12.3762C220.531 12.4642 220.912 12.6108 221.396 12.8162C221.895 13.0215 222.269 13.2268 222.518 13.4322C222.768 13.6375 223.032 13.8942 223.31 14.2022C223.604 14.5102 223.809 14.8622 223.926 15.2582C224.044 15.6542 224.102 16.1015 224.102 16.6002C224.102 17.9935 223.596 19.1008 222.584 19.9222C221.587 20.7288 220.274 21.1322 218.646 21.1322Z" fill="black"/>
<path d="M202.732 20.8452V4.78516H205.108V20.8452H202.732Z" fill="black"/>
<path d="M197.586 9.84655H199.962V20.8465H197.586V19.2625C196.692 20.5092 195.408 21.1325 193.736 21.1325C192.226 21.1325 190.935 20.5752 189.864 19.4605C188.794 18.3312 188.258 16.9599 188.258 15.3465C188.258 13.7185 188.794 12.3472 189.864 11.2325C190.935 10.1179 192.226 9.56055 193.736 9.56055C195.408 9.56055 196.692 10.1765 197.586 11.4085V9.84655ZM191.624 17.8765C192.284 18.5365 193.113 18.8665 194.11 18.8665C195.108 18.8665 195.936 18.5365 196.596 17.8765C197.256 17.2019 197.586 16.3585 197.586 15.3465C197.586 14.3345 197.256 13.4985 196.596 12.8385C195.936 12.1639 195.108 11.8265 194.11 11.8265C193.113 11.8265 192.284 12.1639 191.624 12.8385C190.964 13.4985 190.634 14.3345 190.634 15.3465C190.634 16.3585 190.964 17.2019 191.624 17.8765Z" fill="black"/>
<path d="M182.379 21.1325C180.721 21.1325 179.335 20.5752 178.221 19.4605C177.121 18.3459 176.571 16.9745 176.571 15.3465C176.571 13.7039 177.121 12.3325 178.221 11.2325C179.335 10.1179 180.721 9.56055 182.379 9.56055C183.449 9.56055 184.425 9.81721 185.305 10.3305C186.185 10.8439 186.845 11.5332 187.285 12.3985L185.239 13.5865C184.989 13.0585 184.608 12.6479 184.095 12.3545C183.596 12.0465 183.017 11.8925 182.357 11.8925C181.389 11.8925 180.575 12.2225 179.915 12.8825C179.269 13.5425 178.947 14.3639 178.947 15.3465C178.947 16.3292 179.269 17.1505 179.915 17.8105C180.575 18.4705 181.389 18.8005 182.357 18.8005C183.002 18.8005 183.581 18.6465 184.095 18.3385C184.623 18.0305 185.019 17.6199 185.283 17.1065L187.329 18.2725C186.859 19.1525 186.185 19.8492 185.305 20.3625C184.425 20.8759 183.449 21.1325 182.379 21.1325Z" fill="black"/>
<path d="M169.23 21.1325C167.617 21.1325 166.246 20.5752 165.116 19.4605C163.987 18.3459 163.422 16.9745 163.422 15.3465C163.422 13.7185 163.987 12.3472 165.116 11.2325C166.246 10.1179 167.617 9.56055 169.23 9.56055C170.858 9.56055 172.23 10.1179 173.344 11.2325C174.474 12.3472 175.038 13.7185 175.038 15.3465C175.038 16.9745 174.474 18.3459 173.344 19.4605C172.23 20.5752 170.858 21.1325 169.23 21.1325ZM166.788 17.8325C167.448 18.4925 168.262 18.8225 169.23 18.8225C170.198 18.8225 171.012 18.4925 171.672 17.8325C172.332 17.1725 172.662 16.3439 172.662 15.3465C172.662 14.3492 172.332 13.5205 171.672 12.8605C171.012 12.2005 170.198 11.8705 169.23 11.8705C168.262 11.8705 167.448 12.2005 166.788 12.8605C166.128 13.5205 165.798 14.3492 165.798 15.3465C165.798 16.3439 166.128 17.1725 166.788 17.8325Z" fill="black"/>
<path d="M156.388 18.4253H162.658V20.8453H153.858V5.44531H156.388V18.4253Z" fill="black"/>
</svg>
