<svg width="211" height="110" viewBox="0 0 211 110" fill="none" xmlns="http://www.w3.org/2000/svg">
<path d="M95.0914 38.0352H110.148V53.8837H95.0914V38.0352Z" fill="#FF5811"/>
<path d="M79.2428 52.2988H95.0914V68.1474H79.2428V52.2988Z" fill="#32338C"/>
<path d="M110.544 69.7337C117.362 69.7337 124.026 67.6888 129.695 63.8576C135.363 60.0264 139.782 54.5809 142.391 48.2098C145 41.8387 145.682 34.8282 144.352 28.0647C143.022 21.3012 139.739 15.0885 134.918 10.2123C130.097 5.33606 123.955 2.01532 117.269 0.669971C110.582 -0.675374 103.651 0.0151055 97.3525 2.65409C91.0538 5.29308 85.6703 9.76206 81.8826 15.4959C78.0949 21.2297 76.0732 27.9709 76.0732 34.8669L92.2832 34.8669C92.2832 31.2137 93.3542 27.6426 95.3607 24.6052C97.3672 21.5677 100.219 19.2003 103.556 17.8023C106.893 16.4043 110.564 16.0385 114.106 16.7512C117.649 17.4639 120.902 19.2231 123.456 21.8062C126.01 24.3894 127.749 27.6805 128.454 31.2634C129.158 34.8464 128.797 38.5602 127.415 41.9352C126.032 45.3103 123.692 48.195 120.689 50.2246C117.686 52.2541 114.155 53.3374 110.544 53.3374L110.544 69.7337Z" fill="#32338C"/>
<path d="M8.3847 86.1982C10.5478 86.1982 12.3682 86.9334 13.846 88.4036C15.3238 89.8739 16.0626 91.6793 16.0626 93.8198C16.0626 95.9604 15.3238 97.7658 13.846 99.236C12.3682 100.706 10.5478 101.441 8.3847 101.441H4.43329V108.901H0V86.1982H8.3847ZM8.3847 97.2576C9.32704 97.2576 10.1088 96.9333 10.7298 96.2847C11.3509 95.6144 11.6615 94.7928 11.6615 93.8198C11.6615 92.8252 11.3509 92.0036 10.7298 91.355C10.1088 90.7063 9.32704 90.382 8.3847 90.382H4.43329V97.2576H8.3847Z" fill="#32338C"/>
<path d="M20.8122 90.7388C20.1268 90.7388 19.5271 90.4901 19.0131 89.9928C18.5206 89.4739 18.2743 88.8685 18.2743 88.1766C18.2743 87.4847 18.5206 86.8793 19.0131 86.3604C19.5271 85.8415 20.1268 85.582 20.8122 85.582C21.5189 85.582 22.1186 85.8415 22.6112 86.3604C23.1252 86.8793 23.3822 87.4847 23.3822 88.1766C23.3822 88.8685 23.1252 89.4739 22.6112 89.9928C22.1186 90.4901 21.5189 90.7388 20.8122 90.7388ZM18.7561 108.901V92.6847H22.9003V108.901H18.7561Z" fill="#32338C"/>
<path d="M35.8812 96.7063H32.251V103.452C32.251 104.014 32.3902 104.425 32.6686 104.685C32.9471 104.944 33.354 105.095 33.8894 105.139C34.4248 105.16 35.0887 105.15 35.8812 105.106V108.901C33.0327 109.225 31.0195 108.955 29.8416 108.09C28.6851 107.225 28.1069 105.679 28.1069 103.452V96.7063H25.312V92.6847H28.1069V89.409L32.251 88.1442V92.6847H35.8812V96.7063Z" fill="#32338C"/>
<path d="M45.9469 109.355C43.5268 109.355 41.5029 108.533 39.8752 106.89C38.269 105.247 37.4659 103.214 37.4659 100.793C37.4659 98.3712 38.269 96.3387 39.8752 94.6955C41.5029 93.0523 43.5268 92.2306 45.9469 92.2306C47.5103 92.2306 48.9346 92.609 50.2196 93.3658C51.5046 94.1225 52.4791 95.1387 53.143 96.4144L49.5771 98.5225C49.2558 97.8522 48.7632 97.3225 48.0993 96.9333C47.4568 96.5441 46.7286 96.3495 45.9148 96.3495C44.6726 96.3495 43.6446 96.7712 42.8308 97.6144C42.0169 98.436 41.61 99.4955 41.61 100.793C41.61 102.068 42.0169 103.128 42.8308 103.971C43.6446 104.793 44.6726 105.204 45.9148 105.204C46.7501 105.204 47.4889 105.02 48.1314 104.652C48.7954 104.263 49.288 103.733 49.6092 103.063L53.2072 105.139C52.5005 106.414 51.5046 107.441 50.2196 108.22C48.9346 108.977 47.5103 109.355 45.9469 109.355Z" fill="#32338C"/>
<path d="M64.3299 92.2306C66.086 92.2306 67.5317 92.8252 68.6668 94.0144C69.8233 95.2036 70.4015 96.8468 70.4015 98.9441V108.901H66.2574V99.463C66.2574 98.382 65.9682 97.5604 65.39 96.9982C64.8117 96.4144 64.0407 96.1225 63.077 96.1225C62.0061 96.1225 61.1495 96.4577 60.507 97.1279C59.8644 97.7982 59.5432 98.8036 59.5432 100.144V108.901H55.399V86.1982H59.5432V94.5009C60.5498 92.9874 62.1453 92.2306 64.3299 92.2306Z" fill="#32338C"/>
<path d="M82.5175 86.1982C84.6806 86.1982 86.5011 86.9334 87.9788 88.4036C89.4566 89.8739 90.1955 91.6793 90.1955 93.8198C90.1955 95.9604 89.4566 97.7658 87.9788 99.236C86.5011 100.706 84.6806 101.441 82.5175 101.441H78.5661V108.901H74.1328V86.1982H82.5175ZM82.5175 97.2576C83.4599 97.2576 84.2416 96.9333 84.8627 96.2847C85.4838 95.6144 85.7943 94.7928 85.7943 93.8198C85.7943 92.8252 85.4838 92.0036 84.8627 91.355C84.2416 90.7063 83.4599 90.382 82.5175 90.382H78.5661V97.2576H82.5175Z" fill="#32338C"/>
<path d="M95.324 102.512C95.8808 104.544 97.3907 105.56 99.8536 105.56C101.438 105.56 102.638 105.02 103.452 103.939L106.793 105.885C105.208 108.198 102.873 109.355 99.7894 109.355C97.1337 109.355 95.0027 108.544 93.3964 106.922C91.7902 105.301 90.9871 103.258 90.9871 100.793C90.9871 98.3495 91.7795 96.3171 93.3643 94.6955C94.9492 93.0523 96.9838 92.2306 99.4681 92.2306C101.824 92.2306 103.762 93.0523 105.283 94.6955C106.825 96.3387 107.596 98.3712 107.596 100.793C107.596 101.333 107.542 101.906 107.435 102.512H95.324ZM95.2597 99.2685H103.452C103.216 98.1658 102.723 97.3441 101.974 96.8036C101.246 96.2631 100.41 95.9928 99.4681 95.9928C98.3545 95.9928 97.4335 96.2847 96.7054 96.8685C95.9772 97.4306 95.4953 98.2306 95.2597 99.2685Z" fill="#32338C"/>
<path d="M114.633 95.4739C115.019 94.436 115.65 93.6577 116.528 93.1388C117.428 92.6198 118.424 92.3604 119.516 92.3604V97.0306C118.252 96.8793 117.117 97.1387 116.111 97.809C115.126 98.4793 114.633 99.5928 114.633 101.15V108.901H110.489V92.6847H114.633V95.4739Z" fill="#32338C"/>
<path d="M130.581 89.7658C128.311 89.5928 127.176 90.5117 127.176 92.5225V92.6847H130.581V96.7063H127.176V108.901H123.032V96.7063H120.719V92.6847H123.032V92.5225C123.032 90.2307 123.664 88.4901 124.927 87.3009C126.191 86.1118 128.076 85.5928 130.581 85.7442V89.7658Z" fill="#32338C"/>
<path d="M135.386 102.512C135.943 104.544 137.453 105.56 139.916 105.56C141.501 105.56 142.7 105.02 143.514 103.939L146.855 105.885C145.27 108.198 142.936 109.355 139.852 109.355C137.196 109.355 135.065 108.544 133.459 106.922C131.853 105.301 131.05 103.258 131.05 100.793C131.05 98.3495 131.842 96.3171 133.427 94.6955C135.012 93.0523 137.046 92.2306 139.531 92.2306C141.886 92.2306 143.825 93.0523 145.345 94.6955C146.887 96.3387 147.658 98.3712 147.658 100.793C147.658 101.333 147.605 101.906 147.498 102.512H135.386ZM135.322 99.2685H143.514C143.279 98.1658 142.786 97.3441 142.036 96.8036C141.308 96.2631 140.473 95.9928 139.531 95.9928C138.417 95.9928 137.496 96.2847 136.768 96.8685C136.04 97.4306 135.558 98.2306 135.322 99.2685Z" fill="#32338C"/>
<path d="M158.072 109.355C155.652 109.355 153.628 108.533 152 106.89C150.394 105.247 149.591 103.214 149.591 100.793C149.591 98.3712 150.394 96.3387 152 94.6955C153.628 93.0523 155.652 92.2306 158.072 92.2306C159.635 92.2306 161.059 92.609 162.344 93.3658C163.629 94.1225 164.604 95.1387 165.268 96.4144L161.702 98.5225C161.381 97.8522 160.888 97.3225 160.224 96.9333C159.582 96.5441 158.853 96.3495 158.04 96.3495C156.797 96.3495 155.769 96.7712 154.956 97.6144C154.142 98.436 153.735 99.4955 153.735 100.793C153.735 102.068 154.142 103.128 154.956 103.971C155.769 104.793 156.797 105.204 158.04 105.204C158.875 105.204 159.614 105.02 160.256 104.652C160.92 104.263 161.413 103.733 161.734 103.063L165.332 105.139C164.625 106.414 163.629 107.441 162.344 108.22C161.059 108.977 159.635 109.355 158.072 109.355Z" fill="#32338C"/>
<path d="M176.712 96.7063H173.081V103.452C173.081 104.014 173.221 104.425 173.499 104.685C173.777 104.944 174.184 105.095 174.72 105.139C175.255 105.16 175.919 105.15 176.712 105.106V108.901C173.863 109.225 171.85 108.955 170.672 108.09C169.516 107.225 168.937 105.679 168.937 103.452V96.7063H166.142V92.6847H168.937V89.409L173.081 88.1442V92.6847H176.712V96.7063Z" fill="#32338C"/>
<path d="M199.411 108.563L198.069 104.569H189.154L187.812 108.563H183.051L190.88 86.375H196.344L204.204 108.563H199.411ZM190.56 100.48H196.695L193.628 91.4148L190.56 100.48Z" fill="#FF5811"/>
<path d="M206.376 86.375H210.786V108.563H206.376V86.375Z" fill="#FF5811"/>
</svg>
