<svg width="255" height="257" viewBox="0 0 255 257" fill="none" xmlns="http://www.w3.org/2000/svg">
<g clip-path="url(#clip0_2_4668)">
<path d="M27.209 196.849C-2.76651 161.549 7.73619 109.227 25.5806 93.3768C43.4251 77.527 71.7384 68.8104 86.9065 50.2842C102.075 31.758 119.547 18.4944 151.483 28.0561C183.42 37.6178 182.946 62.4265 192.525 77.8087C202.104 93.1908 244.819 101.75 242.39 141.18C239.962 180.61 212.843 180.537 200.481 190.251C188.119 199.964 168.612 245.835 129.593 246.314C81.7509 246.9 52.5811 226.723 27.209 196.849Z" fill="#EEEEFF"/>
<g opacity="0.3">
<path d="M135.228 6.82422L133.538 12.701C132.008 13.1129 130.536 13.7128 129.154 14.4871L123.739 11.5121L118.888 16.2902L121.897 21.6317C121.114 22.9944 120.507 24.4501 120.088 25.9646L114.155 27.6099V34.3713L120.111 36.0616C120.529 37.5761 121.137 39.0318 121.919 40.3945L118.888 45.736L123.722 50.5141L129.137 47.5391C130.524 48.3147 132.002 48.9147 133.538 49.3252L135.228 55.2189H142.085L143.775 49.3421C145.315 48.9271 146.797 48.3214 148.187 47.5391L153.602 50.5141L158.436 45.736L155.428 40.3945C156.201 39.0313 156.797 37.5753 157.202 36.0616L163.158 34.3713V27.6099L157.202 25.9195C156.786 24.4042 156.178 22.9481 155.394 21.5866L158.403 16.2451L153.568 11.467L148.187 14.4871C146.805 13.7128 145.333 13.1129 143.804 12.701L142.113 6.82422H135.228ZM138.665 18.3693C141.159 18.4015 143.589 19.171 145.647 20.5807C147.705 21.9905 149.3 23.9776 150.231 26.2919C151.163 28.6062 151.388 31.1443 150.88 33.5867C150.372 36.0291 149.153 38.2667 147.376 40.0177C145.6 41.7688 143.344 42.955 140.895 43.4273C138.445 43.8995 135.911 43.6365 133.61 42.6715C131.31 41.7064 129.346 40.0824 127.967 38.0039C126.587 35.9254 125.854 33.4852 125.858 30.9906C125.892 27.6216 127.258 24.403 129.658 22.0381C132.058 19.6732 135.296 18.3542 138.665 18.3693Z" stroke="#7371FC" stroke-miterlimit="10"/>
</g>
<g opacity="0.3">
<path d="M235.313 118.184L234.187 122.094C233.167 122.366 232.187 122.765 231.268 123.283L227.667 121.305L224.45 124.483L226.45 128.039C225.931 128.945 225.526 129.912 225.245 130.918L221.3 132.045V136.552L225.245 137.679C225.526 138.685 225.931 139.653 226.45 140.559L224.45 144.114L227.667 147.292L231.268 145.314C232.187 145.832 233.167 146.231 234.187 146.503L235.313 150.413H239.872L240.999 146.503C242.017 146.229 242.998 145.83 243.917 145.314L247.518 147.292L250.735 144.074L248.735 140.519C249.253 139.613 249.656 138.646 249.935 137.64L253.879 136.513V132.005L249.935 130.878C249.656 129.873 249.253 128.906 248.735 127.999L250.735 124.444L247.518 121.266L243.917 123.244C242.998 122.728 242.017 122.328 240.999 122.055L239.872 118.145L235.313 118.184ZM237.567 125.869C239.226 125.891 240.842 126.402 242.211 127.339C243.581 128.276 244.642 129.597 245.262 131.136C245.883 132.675 246.034 134.363 245.698 135.988C245.361 137.612 244.551 139.101 243.371 140.267C242.19 141.433 240.691 142.223 239.062 142.539C237.433 142.855 235.748 142.683 234.217 142.043C232.686 141.403 231.378 140.325 230.458 138.944C229.539 137.563 229.048 135.941 229.048 134.282C229.067 132.034 229.977 129.886 231.579 128.309C233.18 126.732 235.342 125.854 237.59 125.869H237.567Z" stroke="#7371FC" stroke-miterlimit="10"/>
</g>
<g opacity="0.3">
<path d="M30.7587 128.469L28.3134 136.977C26.1029 137.575 23.9741 138.442 21.9745 139.557L14.1482 135.264L7.15019 142.166L11.5057 149.88C10.3761 151.852 9.49603 153.956 8.88561 156.145L0.281738 158.563V168.35L8.88561 170.761C9.49608 172.948 10.3762 175.051 11.5057 177.021L7.15019 184.746L14.1482 191.654L21.9745 187.355C23.9728 188.475 26.1019 189.344 28.3134 189.941L30.7587 198.432H40.6698L43.1095 189.941C45.3228 189.344 47.4538 188.475 49.454 187.355L57.2803 191.654L64.2727 184.746L59.9229 177.021C61.0548 175.052 61.9351 172.949 62.5429 170.761L71.1524 168.35V158.563L62.5429 156.157C61.936 153.963 61.0557 151.854 59.9229 149.88L64.2727 142.155L57.2803 135.253L49.454 139.546C47.4524 138.43 45.3218 137.564 43.1095 136.966L40.6698 128.469H30.7587ZM35.7114 145.169C40.5898 145.147 45.2781 147.059 48.7487 150.488C52.2194 153.916 54.1892 158.581 54.2264 163.459C54.2264 173.522 45.9099 181.737 35.7114 181.737C25.513 181.737 17.1965 173.545 17.1965 163.459C17.1965 153.373 25.5186 145.181 35.7114 145.181V145.169Z" stroke="#7371FC" stroke-miterlimit="10"/>
</g>
<path d="M118.939 237.544C120.242 234.578 122.649 232.236 125.649 231.014L125.739 230.974L125.334 230.794C122.532 229.556 120.284 227.329 119.017 224.54L118.961 224.41L118.646 225.03C117.425 227.426 115.459 229.362 113.045 230.546L112.183 230.974H112.234C115.102 232.142 117.434 234.335 118.775 237.127L118.939 237.544Z" fill="#FF5811"/>
<path d="M127.469 241.567C128.116 240.088 129.315 238.919 130.81 238.311H130.856L130.653 238.22C129.252 237.601 128.129 236.488 127.497 235.093L127.469 235.031L127.311 235.341C126.694 236.539 125.706 237.506 124.494 238.096L124.06 238.311C125.494 238.895 126.659 239.991 127.328 241.387L127.469 241.567Z" fill="#7371FC"/>
<path d="M236.88 72.2472C235.911 70.0343 234.119 68.286 231.882 67.3733L231.814 67.3395L232.119 67.2043C234.215 66.2804 235.896 64.615 236.84 62.5277L236.88 62.4375L237.116 62.8995C238.033 64.6884 239.501 66.1347 241.303 67.024L241.951 67.3395H241.911C239.767 68.2151 238.024 69.8555 237.021 71.9429L236.88 72.2472Z" fill="#7371FC"/>
<path d="M230.507 75.2557C230.02 74.1495 229.124 73.275 228.005 72.816H227.972L228.124 72.7484C229.171 72.2856 230.012 71.4532 230.485 70.4101V70.3594L230.603 70.5904C231.058 71.4863 231.791 72.2101 232.693 72.6526L233.02 72.816C231.948 73.2524 231.077 74.0718 230.575 75.1149L230.507 75.2557Z" fill="#FF5811"/>
<path d="M11.8719 121.582C10.9018 119.37 9.10952 117.623 6.87407 116.708H6.80646L7.11072 116.573C9.20464 115.646 10.8849 113.981 11.8324 111.897L11.8719 111.801L12.1085 112.263C13.023 114.053 14.4914 115.5 16.2949 116.387L16.9429 116.708H16.9035C14.7584 117.58 13.0148 119.219 12.0127 121.306L11.8719 121.582Z" fill="#7371FC"/>
<path d="M5.49927 124.592C5.01026 123.489 4.11402 122.617 2.99755 122.158H2.96375L3.11588 122.09C4.16223 121.626 5.00212 120.794 5.47673 119.752V119.707L5.58942 119.938C6.0495 120.832 6.78416 121.555 7.68545 122L8.01225 122.158C6.93978 122.597 6.06836 123.418 5.56688 124.463L5.49927 124.592Z" fill="#FF5811"/>
<path d="M183.223 51.7584C187.36 52.3256 191.365 53.6168 195.055 55.573C205.878 61.1941 215.528 68.8304 223.487 78.0715C226.687 81.7903 229.713 86.0274 230.214 90.9069C230.778 96.5019 227.96 101.821 225.256 106.74C223.002 110.836 220.252 115.31 215.722 116.499C212.015 117.474 208.127 115.935 204.774 114.048C191.674 106.757 181.848 94.327 176.213 80.4155C173.531 73.9708 172.404 66.9853 172.923 60.0242C173.052 58.0014 167.75 57.8155 169.176 56.2097C171.215 53.9333 177.526 51.0316 183.223 51.7584Z" fill="#FF5811"/>
<path d="M216.393 63.9219C215.965 64.5112 215.486 65.0617 214.962 65.5672C213.129 67.2581 210.988 68.5818 208.657 69.4662C206.97 70.2253 205.147 70.6337 203.298 70.6664C203.091 70.6645 202.884 70.6513 202.678 70.6269C202.76 70.9825 202.909 71.3191 203.118 71.6186C203.8 72.5427 205.068 72.7793 206.211 72.8469C209.297 73.0215 212.382 72.4836 215.226 71.2749C215.548 71.1773 215.83 70.98 216.032 70.7114C216.18 70.3993 216.231 70.0499 216.179 69.7085C216.102 67.777 216.174 65.8425 216.393 63.9219Z" fill="#F8AB73"/>
<path d="M208.657 69.4671C210.988 68.5826 213.129 67.259 214.962 65.568C215.486 65.0626 215.965 64.512 216.393 63.9227C216.708 60.8012 217.244 57.7248 217.407 54.5469C214.201 53.7919 209.028 57.1163 206.797 59.2179C203.918 61.9225 202.109 65.8948 202.538 69.8221C202.565 70.0937 202.612 70.363 202.678 70.6278C202.884 70.6522 203.091 70.6653 203.298 70.6672C205.147 70.6345 206.97 70.2262 208.657 69.4671Z" fill="#FE814B"/>
<path d="M230.242 40.3599C232.197 37.6159 234.186 34.8324 235.37 31.6884C236.553 28.5443 236.947 24.927 235.657 21.8337C234.367 18.7403 231.149 16.295 227.808 16.5823C228.862 14.4243 227.577 12.0296 225.819 10.3844C224.061 8.7391 221.638 8.02915 219.261 7.66291C212.544 6.62616 205.687 8.03479 198.898 7.73616C196.39 7.62347 193.827 7.25723 191.646 6.01764C189.465 4.77805 187.741 2.50735 187.741 0C186.862 1.91009 185.876 4.22024 186.023 6.31627C186.169 8.4123 187.319 10.5421 189.251 11.3873C187.302 11.9508 185.262 10.7393 184 9.13351C182.738 7.52768 182.231 5.47673 182.096 3.45394C179.977 4.88926 178.414 7.00707 177.667 9.45468C176.87 11.6314 176.615 13.9694 176.923 16.2668C177.091 17.413 177.495 18.5119 178.109 19.4943C178.722 20.4766 179.533 21.3211 180.49 21.9745C179.559 22.2059 178.583 22.1687 177.672 21.8675C177.681 22.514 177.838 23.1499 178.131 23.7262C178.424 24.3025 178.846 24.8039 179.363 25.1918C180.399 25.9607 181.576 26.5178 182.828 26.8315C187.054 28.0992 191.494 28.4429 195.827 29.2825C206.053 31.2714 215.497 36.01 225.216 39.757C226.58 40.2866 228.828 40.7092 230.242 40.3599Z" fill="#FE642F"/>
<path d="M219.576 38.8311C218.111 33.6361 218.889 28.0466 220.506 22.9023C215.395 27.7142 207.879 28.8974 200.92 27.9734C203.245 26.8415 205.33 25.2729 207.062 23.3531C200.148 22.9023 193.015 24.5871 186.119 23.9166C185.36 26.2505 184.829 28.6527 184.535 31.0893C184.025 36.0643 184.23 41.0868 185.144 46.0038C186.04 51.3791 187.533 56.8389 190.936 61.0929C194.339 65.347 200.025 68.1755 205.304 66.8007C207.262 66.237 209.101 65.3205 210.73 64.0961C216.832 59.7688 221.267 53.4357 224.253 46.539C222.023 44.4419 220.406 41.7773 219.576 38.8311Z" fill="#F8AB74"/>
<path d="M207.062 23.3365C205.33 25.2563 203.245 26.8249 200.92 27.9568C207.879 28.8978 215.395 27.7145 220.506 22.8858C218.889 28.0301 218.111 33.6195 219.576 38.8145C220.404 41.7668 222.021 44.4376 224.253 46.5394C224.629 45.6454 224.993 44.742 225.346 43.8292C226.89 39.9321 227.75 35.7976 227.887 31.608C227.921 27.4272 226.89 23.1562 224.478 19.7474C221.098 14.9355 215.3 12.2817 209.513 11.1942C206.69 10.5912 203.778 10.53 200.932 11.0139C197.173 11.7576 192.057 13.8706 189.618 17.0315C188.08 19.1209 186.902 21.4517 186.13 23.9282C193.015 24.5705 200.149 22.8858 207.062 23.3365Z" fill="#FE642F"/>
<path d="M221.368 38.8775C220.634 41.0553 220.496 43.3897 220.968 45.6389C221.289 47.3799 221.999 49.2675 223.605 50.0225C224.214 50.2686 224.872 50.3682 225.527 50.3134C226.182 50.2586 226.815 50.0509 227.374 49.707C228.488 49.0073 229.43 48.0655 230.13 46.9517C231.315 45.3557 232.089 43.4921 232.383 41.5257C232.516 40.5509 232.438 39.5591 232.156 38.6166C231.875 37.674 231.395 36.8025 230.749 36.0602C229.431 34.6516 227.104 33.6205 225.284 34.4657C223.457 35.3745 222.054 36.9558 221.368 38.8775Z" fill="#F8AB73"/>
<path d="M229.842 38.1397C229.554 37.7883 229.18 37.5165 228.757 37.3498C228.334 37.1832 227.876 37.1273 227.425 37.1874C226.99 37.2432 226.571 37.3844 226.191 37.603C225.811 37.8215 225.478 38.1131 225.211 38.4608C224.651 39.1509 224.252 39.9576 224.044 40.8217C223.835 41.7105 223.685 42.6121 223.594 43.5206L223.03 43.2896C223.303 42.9312 223.656 42.6424 224.061 42.4465C224.467 42.2507 224.913 42.1534 225.363 42.1627C225.831 42.1913 226.273 42.392 226.603 42.7261C226.926 43.0639 227.143 43.4889 227.228 43.9488C227.32 44.3805 227.3 44.8283 227.172 45.2504C227.03 45.6479 226.803 46.0095 226.507 46.3097C225.917 46.8849 225.173 47.2764 224.366 47.4366C225.112 47.1683 225.775 46.7077 226.287 46.1012C226.522 45.8027 226.695 45.4596 226.794 45.0926C226.884 44.7377 226.884 44.3658 226.794 44.0108C226.722 43.6692 226.544 43.3592 226.285 43.1254C226.025 42.8915 225.699 42.7458 225.352 42.7092C224.997 42.7244 224.649 42.8188 224.335 42.9855C224.021 43.1522 223.749 43.387 223.537 43.6727L222.861 44.5123L222.98 43.453C223.061 42.5131 223.224 41.5819 223.464 40.6696C223.709 39.7313 224.172 38.8643 224.816 38.1397C225.142 37.7702 225.538 37.4689 225.981 37.2533C226.424 37.0376 226.905 36.9118 227.397 36.8832C227.88 36.8561 228.361 36.9583 228.79 37.1791C229.22 37.4 229.583 37.7316 229.842 38.1397Z" fill="#FF5811"/>
<path d="M200.639 32.9961C201.129 35.5875 201.129 38.2479 200.639 40.8393C200.177 43.44 199.255 45.9376 197.917 48.2149L197.844 47.9782C198.229 48.2141 198.632 48.4194 199.05 48.5924C199.475 48.7607 199.912 48.8982 200.357 49.0037C199.894 48.9791 199.435 48.9035 198.988 48.7783C198.535 48.6586 198.095 48.4944 197.675 48.2881L197.528 48.2149L197.607 48.0515C198.717 45.7195 199.535 43.2592 200.041 40.7266C200.537 38.1813 200.737 35.5873 200.639 32.9961Z" fill="#FF5811"/>
<path d="M198.898 56.2106C199.453 56.5875 200.091 56.827 200.757 56.9093C202.521 57.0783 204.183 55.4669 205.349 53.9286C204.176 53.8612 203.001 54.0283 201.894 54.4201C200.786 54.8119 199.767 55.4206 198.898 56.2106Z" fill="#FE632E"/>
<path d="M200.098 53.2811C197.844 53.0501 194.514 51.0273 194.514 51.0273C194.514 51.0273 196.418 54.656 198.898 56.2111C199.772 55.4233 200.796 54.8182 201.907 54.4311C203.019 54.0441 204.197 53.883 205.372 53.9573C205.992 53.1357 206.544 52.2651 207.023 51.3541C207.023 51.3541 202.346 53.5291 200.098 53.2811Z" fill="#FF5811"/>
<path d="M194.12 38.2481C194.182 39.4483 193.607 40.4512 192.835 40.5019C192.063 40.5526 191.392 39.6004 191.33 38.4003C191.268 37.2001 191.849 36.1972 192.621 36.1465C193.393 36.0958 194.063 37.048 194.12 38.2481Z" fill="#32328C"/>
<path d="M209.789 38.5411C209.851 39.7413 209.271 40.7442 208.504 40.7949C207.738 40.8456 207.062 39.8877 207 38.6932C206.938 37.4987 207.518 36.4901 208.29 36.4394C209.062 36.3887 209.733 37.341 209.789 38.5411Z" fill="#32328C"/>
<path d="M188.158 33.5875C188.367 32.8448 188.699 32.1421 189.139 31.5084C189.363 31.182 189.612 30.8731 189.882 30.5843C190.173 30.2931 190.49 30.0291 190.829 29.7955C191.176 29.54 191.537 29.3048 191.911 29.0912C192.299 28.8811 192.738 28.7817 193.179 28.8038C193.643 28.8032 194.101 28.9189 194.509 29.1403C194.917 29.3617 195.264 29.6819 195.517 30.0716L195.449 30.3138C194.824 30.6857 194.175 31.0152 193.505 31.2999C193.241 31.4099 192.958 31.4673 192.672 31.4689C192.365 31.4662 192.06 31.506 191.764 31.5872C191.462 31.6752 191.168 31.7902 190.885 31.9309C190.583 32.0675 190.291 32.2257 190.012 32.4042C189.416 32.7816 188.863 33.2218 188.361 33.7171L188.158 33.5875Z" fill="#FE642E"/>
<path d="M212.42 33.7171C211.906 33.2195 211.339 32.7793 210.73 32.4042C210.451 32.2257 210.159 32.0675 209.857 31.9309C209.575 31.7902 209.281 31.6752 208.978 31.5872C208.684 31.5057 208.381 31.4659 208.076 31.4689C207.788 31.4667 207.503 31.4094 207.237 31.2999C206.567 31.0152 205.918 30.6857 205.293 30.3138L205.225 30.0716C205.477 29.6835 205.822 29.3643 206.228 29.143C206.635 28.9216 207.09 28.805 207.552 28.8038C207.993 28.7817 208.432 28.8811 208.82 29.0912C209.194 29.3048 209.555 29.54 209.902 29.7955C210.241 30.0304 210.56 30.2943 210.854 30.5843C211.131 30.8723 211.385 31.1813 211.615 31.5084C212.054 32.1432 212.387 32.8454 212.601 33.5875L212.42 33.7171Z" fill="#FE642E"/>
<g style="mix-blend-mode:multiply" opacity="0.4">
<path d="M193.336 48.3604C193.336 49.3183 192.041 50.0959 190.44 50.0959C188.84 50.0959 187.544 49.3183 187.544 48.3604C187.544 47.4026 188.84 46.625 190.44 46.625C192.041 46.625 193.336 47.4026 193.336 48.3604Z" fill="#F8AB74"/>
</g>
<g style="mix-blend-mode:multiply" opacity="0.4">
<path d="M213.429 48.3604C213.429 49.3183 212.133 50.0959 210.533 50.0959C208.933 50.0959 207.637 49.3183 207.637 48.3604C207.637 47.4026 208.933 46.625 210.533 46.625C212.133 46.625 213.429 47.4026 213.429 48.3604Z" fill="#F8AB74"/>
</g>
<path d="M187.831 0.0976562C187.446 2.07075 187.713 4.11582 188.592 5.92372C189.417 7.7291 190.8 9.22217 192.536 10.1834C194.325 11.0271 196.284 11.4474 198.261 11.4117C200.261 11.42 202.26 11.3241 204.25 11.1244C208.245 10.8088 212.274 10.2623 216.336 10.5609C218.389 10.6637 220.379 11.305 222.106 12.4203C222.941 13.0205 223.641 13.7881 224.163 14.6741C224.685 15.55 224.949 16.5562 224.923 17.5759C224.882 16.5719 224.568 15.5981 224.016 14.7586C223.472 13.9292 222.762 13.2213 221.931 12.6795C220.228 11.654 218.285 11.0926 216.297 11.0511C212.313 10.8426 208.313 11.3723 204.307 11.7385C202.291 11.9228 200.268 11.9999 198.244 11.9695C196.227 11.9076 194.12 11.6315 192.305 10.5947C190.519 9.54636 189.118 7.9498 188.31 6.04205C187.494 4.16892 187.326 2.07727 187.831 0.0976562Z" fill="#F8AB74"/>
<path d="M222.636 21.0388C222.428 19.9078 221.935 18.8485 221.203 17.9611C220.471 17.0738 219.526 16.3877 218.455 15.9678C216.321 15.1455 213.994 14.9596 211.756 15.4325C209.505 15.9088 207.282 16.5051 205.096 17.2186C202.869 17.8824 200.598 18.3889 198.3 18.7343C195.985 19.0761 193.634 19.0969 191.314 18.7963C189.015 18.4638 186.665 17.8159 184.772 16.3565C182.883 14.9154 181.543 12.8716 180.974 10.5643C180.441 8.27421 180.714 5.8703 181.746 3.75781C180.839 5.88399 180.673 8.25317 181.273 10.4854C181.877 12.6894 183.212 14.6226 185.059 15.9678C186.953 17.2275 189.128 18.0016 191.393 18.2216C193.662 18.4939 195.957 18.456 198.216 18.1089C200.488 17.7833 202.734 17.2995 204.938 16.6608C207.154 15.9548 209.412 15.3902 211.699 14.9705C214.023 14.5435 216.421 14.7999 218.602 15.7086C219.669 16.2057 220.607 16.9445 221.34 17.8666C222.074 18.7737 222.525 19.877 222.636 21.0388Z" fill="#F8AB74"/>
<path d="M220.275 19.9523C219.903 19.3748 219.412 18.8834 218.835 18.5112C218.258 18.139 217.607 17.8946 216.928 17.7942C215.586 17.614 214.221 17.8091 212.984 18.3577C211.726 18.9188 210.567 19.6799 209.552 20.6115C208.504 21.5243 207.507 22.5272 206.465 23.4738C207.307 22.3369 208.228 21.2599 209.22 20.2509C210.223 19.2113 211.419 18.3769 212.742 17.7942C213.417 17.5167 214.125 17.3273 214.849 17.2308C215.58 17.1423 216.321 17.1785 217.041 17.3378C217.756 17.5049 218.426 17.8239 219.007 18.2732C219.567 18.7149 220.003 19.2931 220.275 19.9523Z" fill="#F8AB74"/>
<path d="M228.197 19.8346C229.022 19.5743 229.911 19.6061 230.716 19.9247C231.53 20.2549 232.241 20.7955 232.778 21.4911C233.806 22.9084 234.36 24.6141 234.361 26.3649C234.383 28.0862 234.049 29.7934 233.381 31.3796C233.055 32.1549 232.679 32.9078 232.254 33.6334C231.818 34.3543 231.342 35.0503 230.828 35.7182C231.228 34.9744 231.64 34.2476 231.983 33.4644C232.35 32.7193 232.668 31.9514 232.936 31.1655C233.489 29.6167 233.762 27.9815 233.741 26.3368C233.745 24.7055 233.279 23.1077 232.4 21.7334C231.951 21.0597 231.331 20.5172 230.603 20.1614C229.857 19.7953 229.013 19.6806 228.197 19.8346Z" fill="#F8AB74"/>
<path d="M223.768 22.5366C224.374 22.4307 224.998 22.534 225.538 22.8296C226.086 23.1334 226.555 23.5619 226.907 24.0804C227.556 25.1115 227.996 26.2602 228.203 27.4611C228.432 28.6533 228.47 29.8743 228.315 31.0785C228.242 31.676 228.118 32.266 227.943 32.8421C227.848 33.1294 227.752 33.4055 227.639 33.6873C227.592 33.8337 227.524 33.9723 227.436 34.0986C227.346 34.2169 227.177 34.3409 227.031 34.2563C227.188 34.3014 227.296 34.1662 227.357 34.0479C227.418 33.9177 227.458 33.7789 227.476 33.6365C227.543 33.3492 227.594 33.0731 227.639 32.7688C227.738 32.1948 227.8 31.6152 227.825 31.0334C227.885 29.8768 227.805 28.7171 227.588 27.5795C227.405 26.4411 227.04 25.3396 226.507 24.3171C226.227 23.8225 225.843 23.3955 225.38 23.0662C224.91 22.7283 224.347 22.5434 223.768 22.5366Z" fill="#F8AB74"/>
<path d="M91.2402 39.7116L20.5942 48.8242L30.499 125.612L101.145 116.499L91.2402 39.7116Z" fill="#EEEEFF"/>
<path d="M89.0793 22.9772L18.4333 32.0898L20.5914 48.8209L91.2374 39.7083L89.0793 22.9772Z" fill="#7371FC"/>
<path d="M20.5884 48.8181L10.9711 50.0586L20.8759 126.846L30.4932 125.605L20.5884 48.8181Z" fill="#91C4FB"/>
<path d="M18.4338 32.0915L8.81647 33.332L10.9746 50.0631L20.5919 48.8226L18.4338 32.0915Z" fill="#443DC3"/>
<path d="M36.8911 52.0536L26.1141 53.4688L28.0354 68.1002L38.8124 66.6851L36.8911 52.0536Z" fill="#FEFFFD"/>
<path d="M49.6768 50.3739L38.8998 51.7891L40.8211 66.4205L51.5981 65.0054L49.6768 50.3739Z" fill="#FEFFFD"/>
<path d="M62.4722 48.916L51.6758 50.3086L53.5666 64.9664L64.363 63.5738L62.4722 48.916Z" fill="#FEFFFD"/>
<path d="M75.2898 47.2636L64.4934 48.6562L66.3841 63.3141L77.1805 61.9215L75.2898 47.2636Z" fill="#FEFFFD"/>
<path d="M88.101 45.6113L77.3046 47.0039L79.1953 61.6617L89.9917 60.2691L88.101 45.6113Z" fill="#FEFFFD"/>
<path d="M39.0578 68.5848L28.2808 70L30.2021 84.6315L40.9791 83.2163L39.0578 68.5848Z" fill="#FEFFFD"/>
<path d="M51.7973 67.1425L41.0009 68.5352L42.8916 83.193L53.688 81.8004L51.7973 67.1425Z" fill="#FEFFFD"/>
<path d="M64.6283 65.2372L53.8513 66.6523L55.7726 81.2838L66.5496 79.8687L64.6283 65.2372Z" fill="#FEFFFD"/>
<path d="M77.426 63.8378L66.6296 65.2305L68.5203 79.8883L79.3167 78.4957L77.426 63.8378Z" fill="#FEFFFD"/>
<path d="M90.2052 61.8856L79.4282 63.3008L81.3495 77.9323L92.1265 76.5171L90.2052 61.8856Z" fill="#FEFFFD"/>
<path d="M41.2252 85.1278L30.4482 86.543L32.3695 101.174L43.1465 99.7593L41.2252 85.1278Z" fill="#FEFFFD"/>
<path d="M53.9391 83.7167L43.1427 85.1094L45.0334 99.7672L55.8298 98.3746L53.9391 83.7167Z" fill="#FEFFFD"/>
<path d="M66.751 82.0605L55.9546 83.4531L57.8453 98.111L68.6417 96.7183L66.751 82.0605Z" fill="#FEFFFD"/>
<path d="M79.5621 80.4082L68.7657 81.8008L70.6565 96.4586L81.4529 95.066L79.5621 80.4082Z" fill="#FEFFFD"/>
<path d="M92.374 78.7597L81.5776 80.1523L83.4684 94.8102L94.2648 93.4176L92.374 78.7597Z" fill="#FEFFFD"/>
<path d="M43.2584 101.943L32.462 103.336L34.3528 117.994L45.1491 116.601L43.2584 101.943Z" fill="#FEFFFD"/>
<path d="M56.0753 100.283L45.2789 101.676L47.1696 116.334L57.966 114.941L56.0753 100.283Z" fill="#FEFFFD"/>
<path d="M68.8872 98.6347L58.0908 100.027L59.9815 114.685L70.7779 113.293L68.8872 98.6347Z" fill="#FEFFFD"/>
<path d="M81.699 96.9824L70.9026 98.375L72.7934 113.033L83.5898 111.64L81.699 96.9824Z" fill="#FEFFFD"/>
<path d="M94.5102 95.3261L83.7138 96.7188L85.6045 111.377L96.4009 109.984L94.5102 95.3261Z" fill="#FEFFFD"/>
<path d="M14.4919 32.5962L13.8778 27.8464C13.7861 27.1363 13.8355 26.415 14.0231 25.7241C14.2106 25.0331 14.5327 24.3859 14.9708 23.8195C15.4089 23.2532 15.9544 22.7789 16.5761 22.4237C17.1978 22.0686 17.8835 21.8396 18.5938 21.7498L21.8956 21.3216C23.3278 21.138 24.7744 21.5303 25.9175 22.4125C27.0606 23.2946 27.8068 24.5945 27.9922 26.0264L29.0515 34.219C29.235 35.6505 28.8425 37.0964 27.9603 38.2386C27.078 39.3808 25.7782 40.1259 24.3466 40.3099" stroke="#FF5811" stroke-width="4.03" stroke-linecap="round" stroke-linejoin="round"/>
<path d="M23.9184 31.3778L23.3043 26.6279C23.1206 25.1957 23.513 23.7492 24.3951 22.6061C25.2773 21.4629 26.5771 20.7167 28.0091 20.5314L31.3109 20.1032C32.7405 19.9192 34.1848 20.3093 35.3274 21.1879C36.4701 22.0666 37.218 23.3622 37.4074 24.7911L38.4611 32.9836C38.6464 34.4152 38.2554 35.8618 37.3741 37.0051C36.4928 38.1484 35.1935 38.8948 33.7619 39.0801" stroke="#FF5811" stroke-width="4.03" stroke-linecap="round" stroke-linejoin="round"/>
<path d="M33.345 30.1673L32.7308 25.4118C32.5471 23.9796 32.9395 22.5331 33.8216 21.39C34.7038 20.2469 36.0036 19.5007 37.4356 19.3153L40.7374 18.8927C42.169 18.7074 43.6156 19.0984 44.7589 19.9797C45.9022 20.8609 46.6486 22.1603 46.8339 23.5919L47.8932 31.7844C47.9857 32.4934 47.9375 33.2136 47.7513 33.9039C47.5651 34.5942 47.2446 35.2411 46.8081 35.8073C46.3716 36.3736 45.8277 36.8482 45.2076 37.2041C44.5874 37.5599 43.9032 37.7899 43.1941 37.8809" stroke="#FF5811" stroke-width="4.03" stroke-linecap="round" stroke-linejoin="round"/>
<path d="M42.7714 28.9518L42.1573 24.1963C41.9735 22.765 42.3651 21.3192 43.2461 20.1762C44.1271 19.0333 45.4255 18.2865 46.8565 18.0998L50.147 17.6772C51.5783 17.4934 53.0241 17.885 54.1671 18.766C55.31 19.647 56.0568 20.9454 56.2435 22.3764L57.2972 30.5689C57.4825 32.0005 57.0915 33.4471 56.2102 34.5904C55.3289 35.7337 54.0296 36.4801 52.598 36.6654" stroke="#FF5811" stroke-width="4.03" stroke-linecap="round" stroke-linejoin="round"/>
<path d="M52.198 27.7324L51.5838 22.9769C51.4034 21.5486 51.7968 20.1071 52.6777 18.9684C53.5587 17.8298 54.8552 17.087 56.283 16.9029L59.5904 16.4747C60.299 16.383 61.0186 16.4318 61.7083 16.6184C62.398 16.8049 63.0441 17.1256 63.6097 17.562C64.1754 17.9984 64.6495 18.542 65.005 19.1618C65.3604 19.7815 65.5903 20.4652 65.6813 21.1738L66.7406 29.3664C66.9259 30.798 66.5349 32.2446 65.6537 33.3879C64.7724 34.5312 63.473 35.2776 62.0415 35.4629" stroke="#FF5811" stroke-width="4.03" stroke-linecap="round" stroke-linejoin="round"/>
<path d="M61.6245 26.5149L61.0103 21.7594C60.9186 21.0509 60.9674 20.3312 61.154 19.6416C61.3406 18.9519 61.6612 18.3058 62.0976 17.7401C62.534 17.1745 63.0777 16.7003 63.6974 16.3449C64.3172 15.9894 65.0009 15.7596 65.7095 15.6685L69.0169 15.2403C69.7255 15.1486 70.4451 15.1974 71.1348 15.384C71.8244 15.5705 72.4706 15.8912 73.0362 16.3276C73.6019 16.764 74.076 17.3076 74.4315 17.9274C74.7869 18.5471 75.0167 19.2308 75.1078 19.9395L76.1671 28.1377C76.2588 28.8462 76.21 29.5658 76.0234 30.2555C75.8369 30.9452 75.5162 31.5913 75.0798 32.1569C74.6434 32.7226 74.0998 33.1967 73.48 33.5522C72.8603 33.9076 72.1766 34.1375 71.4679 34.2285" stroke="#FF5811" stroke-width="4.03" stroke-linecap="round" stroke-linejoin="round"/>
<path d="M71.0454 25.2979L70.4312 20.548C70.3387 19.8391 70.3869 19.1188 70.5731 18.4285C70.7593 17.7382 71.0798 17.0914 71.5163 16.5251C71.9528 15.9589 72.4967 15.4842 73.1168 15.1284C73.737 14.7726 74.4212 14.5426 75.1304 14.4515L78.4378 14.0233C79.8676 13.8429 81.3105 14.2369 82.4502 15.1189C83.5899 16.0008 84.3333 17.2988 84.5174 18.7281L85.5767 26.9207C85.7603 28.3522 85.3678 29.7981 84.4855 30.9403C83.6032 32.0825 82.3034 32.8275 80.8719 33.0115" stroke="#FF5811" stroke-width="4.03" stroke-linecap="round" stroke-linejoin="round"/>
<path d="M121.508 217.084C169.194 217.084 207.851 178.427 207.851 130.741C207.851 83.0555 169.194 44.3984 121.508 44.3984C73.8219 44.3984 35.1649 83.0555 35.1649 130.741C35.1649 178.427 73.8219 217.084 121.508 217.084Z" fill="#FF5811"/>
<path d="M125.57 217.084C173.256 217.084 211.913 178.427 211.913 130.741C211.913 83.0555 173.256 44.3984 125.57 44.3984C77.8844 44.3984 39.2274 83.0555 39.2274 130.741C39.2274 178.427 77.8844 217.084 125.57 217.084Z" fill="#7371FC"/>
<path d="M139.031 173.374C154.616 167.086 168.759 156.628 177.909 142.553C188.564 126.213 191.781 106.38 190.868 86.6592C179.429 69.7391 161.866 57.9225 141.882 53.7013C121.899 49.4801 101.057 53.1841 83.7519 64.0323C66.4467 74.8805 54.0304 92.0251 49.1214 111.851C44.2123 131.676 47.1941 152.634 57.438 170.303C82.72 182.26 113.022 183.866 139.031 173.374Z" fill="white"/>
<path d="M190.869 86.6602C191.804 106.381 188.587 126.209 177.909 142.554C168.736 156.641 154.594 167.087 139.031 173.375C113.022 183.866 82.72 182.261 57.438 170.304C62.7423 179.453 69.8342 187.441 78.291 193.791C86.7479 200.141 96.3967 204.724 106.662 207.266C116.928 209.808 127.6 210.257 138.043 208.587C148.486 206.916 158.485 203.16 167.446 197.543C176.406 191.926 184.144 184.563 190.199 175.891C196.253 167.22 200.499 157.419 202.685 147.072C204.871 136.724 204.951 126.043 202.921 115.664C200.891 105.285 196.792 95.4213 190.869 86.6602Z" fill="#EEEEFF"/>
<path d="M124.708 131.758L87.6502 98.7227L126.427 129.724L124.708 131.758Z" fill="#FF5811"/>
<path d="M127.047 129.809L144.153 192.599L124.094 131.674L127.047 129.809Z" fill="#FF5811"/>
<path d="M125.57 136.581C128.794 136.581 131.408 133.967 131.408 130.744C131.408 127.52 128.794 124.906 125.57 124.906C122.346 124.906 119.733 127.52 119.733 130.744C119.733 133.967 122.346 136.581 125.57 136.581Z" fill="#FE814B"/>
<path d="M125.57 51.9609V68.7067" stroke="#FF5811" stroke-width="3.88" stroke-linecap="round" stroke-linejoin="round"/>
<path d="M125.57 192.773V209.519" stroke="#FF5811" stroke-width="3.88" stroke-linecap="round" stroke-linejoin="round"/>
<path d="M204.346 130.742H187.6" stroke="#FF5811" stroke-width="3.88" stroke-linecap="round" stroke-linejoin="round"/>
<path d="M63.5402 130.742H46.7888" stroke="#FF5811" stroke-width="3.88" stroke-linecap="round" stroke-linejoin="round"/>
<path d="M59.072 88.5L73.209 97.4757" stroke="#FF5811" stroke-width="3.88" stroke-linecap="round" stroke-linejoin="round"/>
<path d="M177.932 164.004L192.063 172.985" stroke="#FF5811" stroke-width="3.88" stroke-linecap="round" stroke-linejoin="round"/>
<path d="M167.812 64.2461L158.831 78.383" stroke="#FF5811" stroke-width="3.88" stroke-linecap="round" stroke-linejoin="round"/>
<path d="M92.3043 183.098L83.3286 197.235" stroke="#FF5811" stroke-width="3.88" stroke-linecap="round" stroke-linejoin="round"/>
<path d="M192.063 88.5L177.932 97.4757" stroke="#FF5811" stroke-width="3.88" stroke-linecap="round" stroke-linejoin="round"/>
<path d="M73.209 164.004L59.072 172.985" stroke="#FF5811" stroke-width="3.88" stroke-linecap="round" stroke-linejoin="round"/>
<path d="M83.3286 64.2461L92.3043 78.383" stroke="#FF5811" stroke-width="3.88" stroke-linecap="round" stroke-linejoin="round"/>
<path d="M158.831 183.098L167.812 197.235" stroke="#FF5811" stroke-width="3.88" stroke-linecap="round" stroke-linejoin="round"/>
<path d="M82.0192 174.218L5.98737 203.023L21.8196 244.812L97.8515 216.006L82.0192 174.218Z" fill="#F8AB74"/>
<path d="M51.9331 209.507L6.00073 203.016L53.8038 214.443L82.0326 174.207L51.9331 209.507Z" fill="#FE814B"/>
<path d="M235.929 164.901L165.051 148.172L143.471 239.604L214.35 256.332L235.929 164.901Z" fill="#FF5811"/>
<path d="M237.249 165.205L166.37 148.477L144.79 239.908L215.669 256.637L237.249 165.205Z" fill="#91C4FB"/>
<path d="M229.36 172.678L170.086 158.688L151.85 235.949L211.125 249.939L229.36 172.678Z" fill="white"/>
<path d="M193.49 144.636L214.712 149.645C216.348 150.031 217.764 151.051 218.648 152.481C219.532 153.911 219.811 155.634 219.425 157.27L218.59 160.807L185.029 152.886L185.864 149.349C186.25 147.713 187.271 146.297 188.701 145.413C190.131 144.529 191.853 144.25 193.49 144.636Z" fill="#FF5811"/>
<path d="M184.163 174.027C183.898 175.154 183.303 176.177 182.456 176.966C181.609 177.755 180.547 178.275 179.404 178.461C178.262 178.646 177.09 178.489 176.036 178.009C174.983 177.528 174.096 176.746 173.487 175.761C172.878 174.777 172.575 173.634 172.615 172.477C172.656 171.32 173.039 170.201 173.715 169.261C174.392 168.322 175.332 167.604 176.416 167.199C177.501 166.793 178.681 166.719 179.808 166.984C181.319 167.342 182.626 168.284 183.443 169.605C184.26 170.925 184.519 172.516 184.163 174.027Z" fill="#EEEEFE"/>
<path d="M175.729 170.201L178.18 174.162L185.217 169.812" stroke="#FE814B" stroke-width="3.2" stroke-linecap="round" stroke-linejoin="round"/>
<path d="M189.871 171.617L222.134 179.229" stroke="#91C4FB" stroke-width="3.2" stroke-linecap="round" stroke-linejoin="round"/>
<path d="M189.032 175.176L221.295 182.794" stroke="#91C4FB" stroke-width="3.2" stroke-linecap="round" stroke-linejoin="round"/>
<path d="M188.192 178.738L220.45 186.356" stroke="#91C4FB" stroke-width="3.2" stroke-linecap="round" stroke-linejoin="round"/>
<path d="M179.881 192.172C179.615 193.299 179.021 194.321 178.174 195.11C177.327 195.899 176.265 196.42 175.122 196.605C173.979 196.791 172.807 196.634 171.754 196.153C170.701 195.673 169.813 194.891 169.204 193.906C168.596 192.921 168.292 191.778 168.333 190.621C168.374 189.464 168.757 188.345 169.433 187.406C170.11 186.466 171.05 185.748 172.134 185.343C173.219 184.938 174.399 184.863 175.526 185.129C176.274 185.305 176.981 185.627 177.605 186.076C178.229 186.526 178.758 187.094 179.163 187.748C179.567 188.402 179.839 189.129 179.962 189.888C180.085 190.647 180.058 191.423 179.881 192.172Z" fill="#EEEEFE"/>
<path d="M171.446 188.344L173.897 192.305L180.935 187.949" stroke="#FE814B" stroke-width="3.2" stroke-linecap="round" stroke-linejoin="round"/>
<path d="M185.589 189.758L217.852 197.37" stroke="#91C4FB" stroke-width="3.2" stroke-linecap="round" stroke-linejoin="round"/>
<path d="M184.749 193.32L217.012 200.933" stroke="#91C4FB" stroke-width="3.2" stroke-linecap="round" stroke-linejoin="round"/>
<path d="M183.91 196.879L216.167 204.497" stroke="#91C4FB" stroke-width="3.2" stroke-linecap="round" stroke-linejoin="round"/>
<path d="M175.599 210.312C175.333 211.439 174.739 212.462 173.892 213.251C173.045 214.04 171.983 214.56 170.84 214.746C169.697 214.932 168.525 214.774 167.472 214.294C166.418 213.813 165.531 213.031 164.922 212.047C164.313 211.062 164.01 209.919 164.051 208.762C164.091 207.605 164.474 206.486 165.151 205.546C165.827 204.607 166.767 203.889 167.852 203.484C168.936 203.078 170.117 203.004 171.244 203.269C171.992 203.446 172.699 203.768 173.323 204.217C173.947 204.666 174.476 205.234 174.88 205.888C175.285 206.542 175.557 207.27 175.68 208.029C175.803 208.788 175.776 209.564 175.599 210.312Z" fill="#EEEEFE"/>
<path d="M167.164 206.488L169.61 210.444L176.647 206.094" stroke="#FE814B" stroke-width="3.2" stroke-linecap="round" stroke-linejoin="round"/>
<path d="M181.307 207.902L213.57 215.515" stroke="#91C4FB" stroke-width="3.2" stroke-linecap="round" stroke-linejoin="round"/>
<path d="M180.467 211.461L212.73 219.073" stroke="#91C4FB" stroke-width="3.2" stroke-linecap="round" stroke-linejoin="round"/>
<path d="M179.628 215.023L211.885 222.641" stroke="#91C4FB" stroke-width="3.2" stroke-linecap="round" stroke-linejoin="round"/>
<g style="mix-blend-mode:multiply">
<path d="M177.456 151.098L226.152 162.591L225.483 165.426C225.327 166.088 224.914 166.661 224.336 167.018C223.757 167.376 223.061 167.489 222.399 167.332L178.693 157.017C178.031 156.861 177.459 156.448 177.101 155.87C176.744 155.291 176.63 154.595 176.787 153.933L177.456 151.098Z" fill="#91C4FB"/>
</g>
<path d="M171.446 228.485C171.18 229.612 170.586 230.635 169.738 231.424C168.891 232.213 167.828 232.733 166.685 232.918C165.542 233.103 164.37 232.946 163.317 232.464C162.264 231.983 161.377 231.201 160.768 230.216C160.16 229.23 159.857 228.087 159.899 226.93C159.94 225.773 160.324 224.654 161.001 223.715C161.679 222.775 162.619 222.058 163.704 221.654C164.789 221.249 165.97 221.176 167.097 221.442C168.607 221.8 169.914 222.742 170.73 224.063C171.546 225.384 171.803 226.975 171.446 228.485Z" fill="#EEEEFE"/>
<path d="M163.017 224.658L165.463 228.619L172.5 224.27" stroke="#FE814B" stroke-width="3.2" stroke-linecap="round" stroke-linejoin="round"/>
<path d="M177.16 226.074L209.417 233.686" stroke="#91C4FB" stroke-width="3.2" stroke-linecap="round" stroke-linejoin="round"/>
<path d="M176.32 229.633L208.578 237.251" stroke="#91C4FB" stroke-width="3.2" stroke-linecap="round" stroke-linejoin="round"/>
<path d="M175.475 233.199L207.738 240.811" stroke="#91C4FB" stroke-width="3.2" stroke-linecap="round" stroke-linejoin="round"/>
<path d="M216.393 81.9375C215.605 83.7812 214.707 85.5762 213.705 87.3128C212.726 89.0655 211.644 90.7588 210.465 92.3839C211.255 90.5401 212.155 88.7451 213.159 87.0085C214.138 85.2571 215.218 83.564 216.393 81.9375Z" fill="white"/>
<path d="M224.698 107.766C224.698 107.766 219.013 116.686 213.384 123.334C207.755 129.983 199.816 137.421 199.816 137.421L157.371 119.655L163.603 105.113L194.677 114.691L212.584 89.3359L224.698 107.766Z" fill="#FF5811"/>
<path d="M156.909 102.301L163.603 105.118L159.214 115.361L154.864 113.88L145.257 114.274L142.44 112.86C142.193 112.738 141.973 112.566 141.794 112.356C141.615 112.146 141.481 111.901 141.4 111.637C141.32 111.373 141.294 111.096 141.324 110.822C141.355 110.547 141.441 110.282 141.578 110.042L142.344 108.673L141.662 108.138C141.434 107.96 141.246 107.734 141.112 107.477C140.978 107.22 140.901 106.937 140.886 106.647C140.871 106.357 140.919 106.068 141.025 105.798C141.132 105.529 141.296 105.285 141.505 105.084L142.265 104.34L141.229 102.937C141.055 102.702 140.934 102.431 140.874 102.145C140.815 101.858 140.818 101.562 140.884 101.276C140.95 100.991 141.077 100.723 141.256 100.491C141.435 100.26 141.662 100.07 141.922 99.9342L142.975 99.3707L142.632 97.5057C142.539 96.9969 142.645 96.4722 142.927 96.0386C143.208 95.605 143.645 95.2954 144.147 95.173C144.816 95.0083 145.513 94.991 146.189 95.1223C146.865 95.2537 147.505 95.5305 148.063 95.9337L156.909 102.301Z" fill="#F8AB72"/>
<path d="M157.028 102.988C154.988 98.6264 152.92 94.147 152.548 89.3464C152.557 89.2295 152.54 89.1122 152.499 89.0023C152.458 88.8925 152.394 88.7927 152.312 88.7097C152.192 88.6413 152.055 88.6081 151.917 88.6139C151.353 88.6381 150.809 88.8294 150.353 89.1634C149.898 89.4975 149.552 89.9593 149.359 90.4902C149.177 91.0247 149.104 91.59 149.144 92.1532C149.183 92.7163 149.335 93.2659 149.59 93.7695C149.719 93.983 149.795 94.2247 149.81 94.4738C149.783 94.6878 149.705 94.8923 149.585 95.0711C149.23 95.6909 148.88 96.3163 148.525 96.9417C150.759 99.6909 153.698 101.781 157.028 102.988Z" fill="#F8AB72"/>
<path d="M153.14 100.086C152.734 99.8325 152.351 99.5565 151.974 99.2747C151.596 98.993 151.23 98.7113 150.847 98.3957C150.464 98.0802 150.125 97.7872 149.782 97.466C149.438 97.1449 149.094 96.8237 148.773 96.4688C149.179 96.7223 149.562 96.9984 149.94 97.2801C150.317 97.5618 150.683 97.8436 151.066 98.1535C151.45 98.4634 151.788 98.762 152.131 99.0888C152.475 99.4156 152.819 99.7311 153.14 100.086Z" fill="#FF5811"/>
<path d="M150.931 42.8203L161.209 46.7645C161.856 47.0166 162.404 47.4734 162.768 48.0654C163.132 48.6573 163.293 49.352 163.226 50.0437L162.707 55.2725L159.152 61.0986C158.948 61.0386 158.759 60.9354 158.598 60.7963C158.438 60.6571 158.309 60.485 158.22 60.2917C158.131 60.0984 158.085 59.8883 158.085 59.6757C158.084 59.463 158.129 59.2527 158.217 59.0589C158.741 57.4249 160.47 53.0582 160.47 53.0582V49.9818C160.47 49.9818 158.78 57.1094 157.174 58.4335C155.568 59.7576 149.754 57.1714 148.159 55.8923C147.393 55.2669 148.756 53.2498 148.942 50.2578C149.179 47.0744 148.277 42.933 150.931 42.8203Z" fill="#F8AB74"/>
<path d="M157.507 45.1992C157.676 46.3859 157.715 47.5875 157.625 48.7828C157.46 51.1846 156.823 53.5303 155.749 55.685C155.218 56.7576 154.574 57.7701 153.827 58.7051C154.467 57.7059 155.032 56.6607 155.518 55.578C156.007 54.501 156.407 53.3853 156.712 52.2423C157.027 51.1013 157.249 49.9369 157.377 48.7602C157.508 47.578 157.551 46.3878 157.507 45.1992Z" fill="#FF5811"/>
<path d="M153.596 43.8477C153.695 45.0138 153.695 46.1862 153.596 47.3523C153.493 48.5195 153.305 49.6777 153.033 50.8175C152.755 51.9558 152.389 53.0709 151.94 54.1531C151.707 54.6941 151.459 55.2237 151.196 55.7421C151.055 56.0013 150.926 56.2604 150.768 56.514C150.625 56.7727 150.396 56.9724 150.12 57.0775C150.374 56.9429 150.574 56.7236 150.683 56.4577C150.819 56.2041 150.926 55.928 151.044 55.6688C151.281 55.1392 151.5 54.5983 151.703 54.0517C152.112 52.9682 152.45 51.8597 152.717 50.733C152.998 49.6076 153.205 48.4651 153.337 47.3129C153.483 46.163 153.569 45.0064 153.596 43.8477Z" fill="#FF5811"/>
</g>
<defs>
<clipPath id="clip0_2_4668">
<rect width="254.178" height="256.646" fill="white"/>
</clipPath>
</defs>
</svg>
