<svg width="1441" height="967" viewBox="0 0 1441 967" fill="none" xmlns="http://www.w3.org/2000/svg">
<g clip-path="url(#clip0_2_1667)">
<path d="M1440 0H0V966.866H1440V0Z" fill="url(#paint0_radial_2_1667)"/>
</g>
<g clip-path="url(#clip1_2_1667)">
<path style="mix-blend-mode:screen" d="M1440 0H0V966.866H1440V0Z" fill="url(#paint1_radial_2_1667)"/>
</g>
<g style="mix-blend-mode:overlay" opacity="0.2">
<path d="M802.9 0H795.85C892.25 40.6218 999.4 83.4257 1118.35 128.983C1229.11 170.998 1336.47 216.921 1440 266.56V263.202C1336.9 214.049 1230.09 168.499 1120 126.733C1003.35 82.0493 897.95 39.9839 802.9 0ZM913.9 0H907.05C982.05 31.1881 1063.7 63.7863 1152.05 97.6601C1257.35 138.081 1353.33 178.736 1440 219.626V216.269C1353.8 175.849 1258.45 135.563 1153.95 95.4108C1067.82 62.3315 987.8 30.5279 913.9 0ZM970 0H962.5C1026.7 26.4321 1095.45 53.7707 1168.75 82.0157C1267.15 119.952 1357.5 158 1439.8 196.16V192.97C1358.13 155.124 1268.42 117.367 1170.65 79.6993C1099.15 52.1928 1032.27 25.6264 970 0ZM858.35 0H851.55C937.25 35.8546 1031.55 73.5221 1135.25 113.305C1247.08 156.254 1348.67 199.506 1440 243.059V239.702C1349.3 196.686 1248.33 153.826 1137.1 111.122C1035.75 72.2463 943.1 35.351 858.35 0ZM580.5 0H573.65C706.65 57.6762 864.45 120.858 1050.9 191.594C1198.35 247.524 1327.55 303.556 1440 360.661V357.975C1328 300.903 1199.45 245.04 1052.75 189.378C868.6 119.482 712.4 57.0719 580.5 0ZM692 0H685C799.6 49.0147 931.95 102.058 1084.65 160.271C1207.59 206.619 1326.25 257.897 1440 313.828V310.471C1326.74 255.071 1208.7 204.211 1086.5 158.156C936.05 100.715 805.4 48.4104 692 0ZM0 951.188C17.2667 956.335 34.5833 961.561 51.95 966.866H61C40.5667 960.599 20.2333 954.455 0 948.435V951.188ZM1025.9 0H1018.45C1071.28 21.553 1127.08 43.6768 1185.85 66.3713C1277.62 101.823 1362.33 137.387 1440 173.062V169.906C1362.93 134.634 1278.83 99.3947 1187.7 64.1891C1130.7 42.1661 1076.77 20.7697 1025.9 0ZM635.9 0H629C753.5 53.7148 899 111.66 1067.75 175.916C1207.75 229.261 1331.7 282.64 1440 336.825V334.139C1321.66 275.514 1197.95 221.94 1069.6 173.734C902.85 110.317 759.3 52.9426 635.95 0H635.9ZM1417.5 0H1410.45C1420.45 4.16289 1430.3 8.32579 1440 12.4887V9.5008L1417.5 0ZM1355.8 0C1384.67 11.7949 1412.73 23.5562 1440 35.2839V32.296C1415 21.553 1389.33 10.7877 1363 0H1355.8ZM749.1 471.078C585 411.354 435.95 358.882 304.6 312.586C190.65 272.401 89.1 236.58 0 204.049V206.903C88.75 239.299 189.7 274.885 302.85 314.802C434.2 361.097 582.85 413.604 747.3 473.294C1033.2 577.367 1259.55 686.105 1440 808.407V805.386C1432.25 800.182 1424.55 794.978 1416.65 789.842C1240.35 674.523 1022 570.283 749.1 471.078ZM1300.25 0C1348.95 19.4045 1395.53 38.7977 1440 58.1798V55.1583C1397.8 36.8058 1353.65 18.4197 1307.55 0H1300.25ZM1081.8 0H1074.35C1115.38 16.5844 1158.17 33.4934 1202.7 50.7269C1287.93 83.6943 1367.03 116.751 1440 149.898V146.776C1367.6 114.054 1289.12 81.3107 1204.55 48.5447C1161.92 32.0274 1121 15.8459 1081.8 0ZM1137.95 0H1130.5C1159.4 11.5487 1189.08 23.2316 1219.55 35.0489C1298.32 65.5992 1371.8 96.183 1440 126.8V123.712C1372.4 93.4749 1299.55 63.1932 1221.45 32.8667C1192.82 21.7657 1164.98 10.8101 1137.95 0ZM1194.15 0H1186.75C1203.1 6.44577 1219.6 12.8915 1236.4 19.4045C1308.8 47.6495 1376.67 75.8721 1440 104.072V101.051C1377.2 73.1416 1309.97 45.1652 1238.3 17.1216C1223.35 11.448 1208.7 5.70719 1194.15 0ZM1251.1 0H1243.65L1253.3 3.76003C1319.27 29.5879 1381.5 55.3262 1440 80.975V77.9535C1382.1 52.5957 1320.43 27.1371 1255 1.57787L1251.1 0ZM747.5 0H740.5C846.75 45.154 966.6 93.0944 1101.5 144.627C1218.33 188.816 1331.34 237.405 1440 290.16V286.803C1331.84 234.548 1219.45 186.354 1103.35 142.445C970.6 91.718 852.45 44.5161 747.5 0ZM651.4 325.981C375.8 224.931 160 145.836 0 78.4236V81.3779C160 148.689 375 227.583 649.6 328.197C707.7 349.504 768.383 371.784 831.65 395.038C1078 485.682 1278.15 579.146 1440 680.566V677.645C1278.5 576.93 1079.1 483.265 833.45 392.823L651.4 325.981ZM736.4 335.113C417.15 217.578 173.75 127.875 0 51.9355V54.8898C173.8 130.93 416.65 220.264 734.4 337.329L848.5 379.361C1087 467.352 1281.8 557.761 1440 655.253V652.366C1282.15 555.411 1088.1 464.901 850.3 377.078L736.4 335.113ZM828.45 347.132C460.45 211.133 187 110.015 0 24.8431V27.831C187.2 112.969 460 213.852 826.45 349.347L865.4 363.75C1096 449.022 1285.4 536.443 1440 630.108V627.254C1285.85 534.059 1097.15 446.571 867.2 361.534L828.45 347.132ZM6 0H0V0.369289C14.2 7.08363 28.9833 13.9435 44.35 20.9488C229.35 104.878 484.35 200.557 882.25 348.105C1105 430.692 1289.1 515.125 1440 605.063V602.21C1289.5 512.707 1106.2 428.241 884.05 345.889C495.45 201.833 202.3 93.128 6 0ZM431 312.553C262.9 252.124 119.25 200.557 0.2 154.766V157.787C118.95 203.411 262 254.809 429.2 314.869C534.5 352.705 653.9 395.441 781.25 442.106C1051.25 540.74 1267.3 643.536 1440.2 757.11V754.122C1267.35 641.22 1052.2 538.188 782.85 439.79C655.45 393.259 536.1 350.388 430.8 312.553H431ZM573 319.267C339.35 234.297 148.25 164.501 0 104.072V106.993C148.1 167.422 338.6 236.916 571.05 321.651C648.6 349.918 728.8 379.159 814.8 410.75C1069 504.079 1274.45 600.565 1439.8 705.98V703.059C1274.8 598.248 1069.8 501.629 816.4 408.534C730.6 376.91 650.4 347.669 572.8 319.401L573 319.267ZM499.55 315.004C300.35 242.891 133.75 182.563 0 129.62V132.541C133.5 185.349 299.55 245.476 497.75 317.186C592.75 351.53 690.6 387.015 797.75 426.327C1060 522.342 1270.8 621.916 1440 731.427V728.506C1271.1 619.667 1061.15 519.925 799.7 424.179C692.4 384.833 594.35 349.347 499.55 315.004ZM67.35 1.37644L64.35 0H57C247 88.7301 524 193.037 899.1 332.36C1114.1 412.294 1292.8 493.739 1440 580.019V577.434C1293.2 491.524 1115.25 410.011 900.95 330.379C546.65 198.577 260.35 90.6437 67.35 1.37644ZM353.25 0H346.5C513.5 74.0928 724.45 156.78 983.45 254.172C1160.3 320.677 1311.65 387.753 1440 457.045V454.326C1312.05 385.202 1161.4 318.226 985.25 251.989C728.7 155.504 519.35 73.4885 353.25 0ZM411.5 0H404C552.65 65.532 744 141.941 1000.3 238.527C1169.7 302.313 1315.55 366.637 1440 432.807V430.087C1315.95 364.085 1170.8 299.896 1002.15 236.345C759.05 144.728 565.25 67.5463 411.5 0ZM123.05 0H116.45C301.45 84.97 563 185.282 916 316.783C1123.3 393.998 1296.5 472.522 1440 555.142V552.322C1296.9 470.004 1124.4 391.547 917.8 314.601C567.6 184.141 307.55 84.3993 123.05 0ZM523.95 0H517.1C654.7 59.9255 823.75 127.573 1034.05 207.238C1188.75 265.787 1323.5 324.538 1440 384.598V381.912C1323.9 321.986 1190 263.337 1035.9 205.023C832.5 128.043 663.65 60.6641 523.95 0ZM467.7 0H460.85C605 63.1148 786.25 135.663 1017.15 222.883C1179.2 284.084 1319.5 345.587 1440 408.635V405.949C1320 343.002 1180.25 281.734 1019 220.701C790.75 134.455 611.05 62.6113 467.7 0ZM180.65 0H174C357.3 83.3586 607.4 179.609 932.85 301.138C1132.45 375.668 1300.25 451.271 1440 530.433V527.68C1300.6 448.787 1133.55 373.183 934.65 298.788C611.85 178.4 363.3 82.7543 180.65 0ZM296 0H289.25C461.2 76.745 684.5 163.998 966.55 269.816C1150.95 339.007 1307.8 408.904 1440 481.318V478.565C1308.2 406.218 1152.05 336.389 968.4 267.5C688.85 162.756 467.15 76.1742 296 0ZM238.55 0H232.35C414.05 81.8479 654.3 174.909 949.7 285.36C1141.7 357.203 1304 429.953 1440 505.792V503.039C1304.4 427.435 1142.75 354.719 951.55 283.144C647.65 169.537 413.75 78.5243 238.55 0ZM0 523.719V526.472C153 572.633 325 627.187 511.2 692.35C748.15 775.238 953.05 865.613 1132.1 966.799H1137.95C957.95 864.707 751.65 773.627 512.95 690.134C325.9 624.77 153.45 570.048 0 523.719ZM0 457.717V460.503C164.6 511.297 351.9 571.29 561.8 645.416C834.05 741.465 1062.2 846.847 1255.3 966.799H1260.85C1066.9 845.94 837.5 739.854 563.55 643.167C352.9 568.906 165 508.679 0 457.784V457.717ZM0 413.167V415.954C171.3 469.87 370.6 534.294 595.55 614.027C890.85 718.838 1132.95 834.257 1332.85 966.731H1338.15C1137.45 833.317 894.25 717.193 597.3 611.811C371.6 531.843 171.7 467.285 0 413.234V413.167ZM0 567.362V570.115C145 613.255 305 663.78 477.5 723.84C690.35 797.698 878.15 878.102 1045.4 966.966H1051.4C883.05 877.196 693.9 796.254 479.2 721.591C305.85 661.363 145.3 610.502 0 567.362ZM614.15 596.402C380.6 513.177 174.5 446.303 0 390.741V393.528C174.1 448.988 379.65 515.695 612.4 598.517C919.2 707.692 1167.75 828.047 1370.35 966.866H1375.6C1172.3 827.107 922.6 706.047 614.15 596.301V596.402ZM631.05 580.757C389.35 494.411 176.65 425.052 0 368.08V370.867C176.3 427.737 388.4 496.862 629.25 582.872C947.45 696.378 1202.1 821.735 1406.85 966.866H1411.85C1206.6 820.795 950.85 694.935 631.05 580.791V580.757ZM0 480.076V482.829C160.4 531.944 344.45 590.695 545 661.262C805.5 752.812 1026.3 853.225 1215 966.866H1220.6C1030.6 852.319 808.75 751.167 546.5 658.879C345.45 588.076 160.8 529.124 0 480.076ZM0 545.708V548.461C149 593.112 315 645.618 494.35 708.196C719.35 786.686 915.9 871.992 1089.35 967H1095.35C920.9 871.086 722.95 785.075 496.15 705.98C315.9 642.999 149.45 590.325 0 545.574V545.708ZM0 502.065V504.818C156.85 552.423 334.7 608.89 528.05 676.907C776.85 764.059 990 859.436 1174.1 966.866H1180C995 858.563 780.55 762.447 530 674.557C335.75 606.44 157.25 549.67 0 501.931V502.065ZM0 435.727V438.48C168.1 490.852 361.35 553.061 578.65 629.839C862.45 730.286 1097.7 840.703 1294.45 966.899H1300C1102.45 839.797 866 728.54 580.5 627.623C362.35 550.576 168.55 488.066 0 435.593V435.727ZM1398.45 803.472C1221.45 688.69 1003.45 585.088 732.25 486.756C550.85 420.989 389.05 364.522 246.25 314.735C156 283.245 73.95 254.608 0 228.288V231.141C73.5 257.394 155 285.83 244.55 317.051C387.3 366.872 549.1 423.306 730.45 489.073C1024.2 595.428 1255.75 707.457 1440 834.224V831.202C1426.35 821.869 1412.6 812.637 1398.45 803.472ZM1307.6 871.623C1127 759.493 911.25 659.214 647.9 564.979C397.65 475.476 177.95 403.465 0 345.252V348.072C177.65 406.218 396.7 477.994 646.15 567.362C974.25 684.863 1234.05 814.416 1440 965.053V960.823C1398.07 930.161 1353.93 900.427 1307.6 871.623ZM766 455.333C619.6 402.021 484.85 354.047 366 311.713C226.2 262.027 104.15 218.585 0 179.609V182.462C103.8 221.305 225.25 264.545 364.2 314.03C483.1 356.364 617.85 404.338 764.2 457.65C1042.15 558.936 1263.35 664.72 1440 782.658V779.703C1438.25 778.528 1436.55 777.353 1435 776.346C1259.25 660.389 1040.5 555.478 766 455.434V455.333ZM1380.3 817.102C1202.55 702.958 985.05 599.893 715.3 502.401C517.7 430.927 343.85 370.968 190.3 318.059C122.1 294.458 58.6 272.569 0 252.057V254.91C58.15 275.288 121.1 296.942 188.8 320.308C342.2 373.217 516 433.176 713.8 504.617C1015 613.658 1251.85 728.775 1440 860.007V856.952C1420.6 843.501 1400.7 830.218 1380.3 817.102ZM1325.75 857.993C1145.75 745.326 929.65 644.376 664.75 549.334C422.55 462.451 208.15 391.346 35.9 334.173L0 322.289V325.109L34.25 336.489C206.5 393.561 420.85 464.733 663 551.583C983.65 666.634 1238 793.3 1440 939.102V934.737C1403.6 908.462 1365.52 882.88 1325.75 857.993ZM1362.1 830.732C1183.65 716.991 966.55 614.698 698.5 518.045C485.4 441.166 300.3 378.118 137.05 322.49C89.0167 306.152 43.3333 290.552 0 275.691V278.645C42.7 293.283 87.7 308.658 135.35 324.874C298.6 380.368 483.65 443.415 696.75 520.362C1002.3 630.443 1246.25 750.529 1440 887.301V882.936C1414.87 865.233 1388.9 847.832 1362.1 830.732ZM1343.95 844.362C1164.75 731.159 948.1 629.503 681.65 533.69C453.65 451.708 258.1 385.974 85.6 327.895L0 299.09V301.911L83.9 330.144C256.4 388.156 451.95 453.923 679.85 535.905C992.95 648.505 1242.25 771.747 1440 913.151V908.887C1409.2 886.887 1377.18 865.378 1343.95 844.362ZM0 759.493V762.246C103.8 792.461 212.8 826.402 325.7 864.606C421.367 896.969 513.217 931.056 601.25 966.866H608.5C518.5 930.205 424.8 895.369 327.4 862.357C213.85 823.951 104.35 789.876 0 759.493ZM0 822.507V825.26C88.4 851.11 180.067 879.848 275 911.472C328.333 929.377 380.617 947.819 431.85 966.799H440C386.667 947.081 332.25 927.911 276.75 909.29C181.35 877.352 89.1 848.425 0 822.507ZM0 843.624V846.343C83.5 870.817 170 897.641 258.25 927.15C297.017 940.199 335.15 953.437 372.65 966.866H380.65C341.05 952.564 300.833 938.587 260 924.935C170.9 895.257 84.05 868.266 0 843.691V843.624ZM0 801.525V804.278C93.6 831.605 191.1 861.954 291.95 895.828C359.75 918.567 425.767 942.246 490 966.866H497.6C431.6 941.508 363.683 917.101 293.85 893.646C192.2 859.436 94.1 829.222 0 801.592V801.525ZM0 588.848V591.601C140.5 633.263 294.65 681.842 460.6 739.317C661.25 809.079 840 884.111 1000.45 966.866H1006.55C845 883.239 665 807.366 462.35 737.134C295.7 679.357 141 630.611 0 588.848ZM0 885.555V888.308C72.9 909.749 147.733 933.148 224.5 958.506C232.85 961.259 241.1 964.079 249.5 966.866H257.85C247.35 963.307 236.85 959.748 226.25 956.257C148.95 930.653 73.5333 907.086 0 885.555ZM0 864.64V867.359C78.2 890.322 158.85 915.4 241.35 942.862C265.117 950.74 288.617 958.741 311.85 966.866H320C294.6 958.003 268.95 949.207 243.05 940.613C159.917 912.949 78.9 887.625 0 864.64ZM0 909.324C60.6 927.229 122.4 946.409 185.4 966.866H193.9C127.967 945.313 63.3333 925.17 0 906.437V909.324ZM0 930.239C39.3667 941.899 79.2333 954.108 119.6 966.866H128.4C85.0667 953.057 42.2667 939.93 0 927.486L0 930.239ZM0 780.543V783.296C98.7 812.1 202 844.228 308.85 880.251C390.717 907.847 469.833 936.718 546.2 966.866H553.6C475.4 935.913 394.367 906.291 310.5 878.001C203.05 841.777 99.25 809.481 0 780.543ZM0 653.306V656.059C127.6 693.491 265 736.631 410 786.351C565.466 839.398 715.185 899.719 858.05 966.866H865.45C720.852 898.809 569.237 837.734 411.75 784.101C266.15 734.079 128.1 690.873 0 653.306ZM0 631.921V634.673C132.25 673.583 275.55 718.603 426.9 770.672C594.296 827.809 754.991 893.395 907.6 966.866H913.35C759.634 892.43 597.566 826.096 428.6 768.457C276.65 716.051 132.7 670.931 0 631.921ZM0 610.334V613.087C136.1 653.373 284.45 699.97 443.75 755.028C632 820.124 801.2 890.188 954.5 966.866H960.8C806.25 889.315 635.8 818.512 445.45 752.779C285.5 697.486 136.55 650.654 0 610.334ZM0 717.058V719.811C113.2 752.846 233.4 790.312 359.4 833.284C478.758 873.786 594.944 918.372 707.5 966.866H714.45C600.244 917.517 482.302 872.179 361.1 831.034C234.45 787.928 113.7 750.227 0 717.058ZM0 674.792V677.545C122.9 713.5 254.55 754.76 393.15 802.163C536.855 851.074 675.77 906.087 809.05 966.866H816.45C681.462 905.135 540.687 849.313 395 799.746C255.6 752.007 123.4 710.713 0 674.792ZM0 738.578V741.297C108.3 772.922 222.75 808.441 342.55 849.264C451.75 886.103 555.9 925.304 655 966.866H662.05C561.217 924.341 455.283 884.29 344.25 846.713C223.8 805.721 108.8 769.967 0 738.242V738.578ZM0 696.21V698.963C118.1 733.475 244 772.821 376.3 817.975C507.957 862.646 635.684 912.359 758.85 966.866H765.6C640.897 911.355 511.477 860.778 378 815.39C245 770.001 118.6 730.521 0 695.875V696.21Z" fill="white"/>
</g>
<defs>
<radialGradient id="paint0_radial_2_1667" cx="0" cy="0" r="1" gradientUnits="userSpaceOnUse" gradientTransform="translate(-81.6501 -113.036) scale(1725.7 1158.69)">
<stop stop-color="#304053"/>
<stop offset="0.23" stop-color="#2C3C4F"/>
<stop offset="0.52" stop-color="#0D1D30"/>
<stop offset="1" stop-color="#060D29"/>
</radialGradient>
<radialGradient id="paint1_radial_2_1667" cx="0" cy="0" r="1" gradientUnits="userSpaceOnUse" gradientTransform="translate(-196.6 -102.26) scale(2145 1440.23)">
<stop stop-color="#BDBDBD"/>
<stop offset="0.2" stop-color="#806141"/>
<stop offset="0.23" stop-color="#6E5338"/>
<stop offset="0.29" stop-color="#4C3A27"/>
<stop offset="0.36" stop-color="#302519"/>
<stop offset="0.43" stop-color="#1B140E"/>
<stop offset="0.51" stop-color="#0C0906"/>
<stop offset="0.6" stop-color="#030201"/>
<stop offset="0.74"/>
</radialGradient>
<clipPath id="clip0_2_1667">
<rect width="1440" height="966.866" fill="white"/>
</clipPath>
<clipPath id="clip1_2_1667">
<rect width="1440" height="966.866" fill="white"/>
</clipPath>
</defs>
</svg>
