<svg width="120" height="120" viewBox="0 0 120 120" fill="none" xmlns="http://www.w3.org/2000/svg">
<circle cx="60" cy="60" r="60" fill="#F8FAFC"/>
<circle cx="60" cy="60.0004" r="49.0141" fill="#3DA85B"/>
<circle cx="60.7633" cy="68.8875" r="28.4598" fill="white"/>
<path fill-rule="evenodd" clip-rule="evenodd" d="M22.8169 62.9598C22.8169 53.2103 26.6899 43.8601 33.5838 36.9661C40.4778 30.0722 49.8279 26.1992 59.5775 26.1992C69.327 26.1992 78.6772 30.0722 85.5711 36.9661C92.465 43.8601 96.338 53.2103 96.338 62.9598C96.338 72.7093 92.465 82.0595 85.5711 88.9534C78.6772 95.8474 69.327 99.7203 59.5775 99.7203C49.8279 99.7203 40.4778 95.8474 33.5838 88.9534C26.6899 82.0595 22.8169 72.7093 22.8169 62.9598H22.8169ZM57.4797 78.6933L78.6439 52.2355L74.8208 49.177L56.7738 71.7284L43.991 61.0776L40.8541 64.8419L57.4797 78.6982V78.6933Z" fill="#3DA85B"/>
</svg>
