<svg width="592" height="442" viewBox="0 0 592 442" fill="none" xmlns="http://www.w3.org/2000/svg">
<path d="M592 387.699H0V387.995H592V387.699Z" fill="#EBEBEB"/>
<path d="M373.753 395.764H343.609V396.06H373.753V395.764Z" fill="#EBEBEB"/>
<path d="M539.241 402.168H467.81V402.464H539.241V402.168Z" fill="#EBEBEB"/>
<path d="M337.191 395.906H263.393V396.202H337.191V395.906Z" fill="#EBEBEB"/>
<path d="M215.535 404.762H200.096V405.058H215.535V404.762Z" fill="#EBEBEB"/>
<path d="M300.842 404.762H230.537V405.058H300.842V404.762Z" fill="#EBEBEB"/>
<path d="M107.637 399.768H62.1125V400.064H107.637V399.768Z" fill="#EBEBEB"/>
<path d="M280.608 334.894H51.9893C50.1984 334.891 48.4818 334.178 47.2165 332.91C45.9512 331.643 45.2405 329.925 45.2405 328.134V6.76064C45.2405 4.96966 45.9512 3.25185 47.2165 1.98433C48.4818 0.716801 50.1984 0.00313657 51.9893 0L280.608 0C282.401 0 284.121 0.71228 285.388 1.98015C286.656 3.24801 287.369 4.96761 287.369 6.76064V328.134C287.369 329.022 287.194 329.901 286.854 330.721C286.514 331.541 286.016 332.286 285.388 332.914C284.761 333.542 284.015 334.04 283.195 334.38C282.375 334.72 281.496 334.894 280.608 334.894ZM51.9893 0.296C50.2769 0.299136 48.6356 0.981615 47.4258 2.19363C46.216 3.40565 45.5365 5.04816 45.5365 6.76064V328.134C45.5365 329.846 46.216 331.489 47.4258 332.701C48.6356 333.913 50.2769 334.595 51.9893 334.598H280.608C282.321 334.595 283.964 333.913 285.176 332.702C286.387 331.49 287.069 329.847 287.073 328.134V6.76064C287.069 5.04707 286.387 3.40458 285.176 2.19291C283.964 0.981229 282.321 0.29913 280.608 0.296H51.9893Z" fill="#EBEBEB"/>
<path d="M536.719 334.894H308.089C306.296 334.891 304.579 334.178 303.312 332.911C302.044 331.644 301.331 329.926 301.328 328.134V6.76064C301.331 4.96857 302.044 3.25079 303.312 1.9836C304.579 0.716415 306.296 0.00313026 308.089 0L536.719 0C538.508 0.00626598 540.221 0.721311 541.484 1.9885C542.747 3.25569 543.456 4.9717 543.456 6.76064V328.134C543.456 329.923 542.747 331.639 541.484 332.906C540.221 334.173 538.508 334.888 536.719 334.894ZM308.089 0.296C306.375 0.29913 304.733 0.981229 303.521 2.19291C302.309 3.40458 301.627 5.04707 301.624 6.76064V328.134C301.627 329.847 302.309 331.49 303.521 332.702C304.733 333.913 306.375 334.595 308.089 334.598H536.719C538.433 334.595 540.075 333.913 541.287 332.702C542.498 331.49 543.18 329.847 543.184 328.134V6.76064C543.18 5.04707 542.498 3.40458 541.287 2.19291C540.075 0.981229 538.433 0.29913 536.719 0.296H308.089Z" fill="#EBEBEB"/>
<path d="M232.017 285.001H153.399L148.628 229.945H227.245L232.017 285.001Z" fill="#E6E6E6"/>
<path d="M236.09 285.001H157.472L152.7 229.945H231.318L236.09 285.001Z" fill="#F0F0F0"/>
<path d="M168.223 273.183L165.594 241.771H220.568L223.196 273.183H168.223Z" fill="white"/>
<path d="M249.694 285.002H240.471V387.69H249.694V285.002Z" fill="#E6E6E6"/>
<path d="M252.606 285.002H246.201V387.69H252.606V285.002Z" fill="#F0F0F0"/>
<path d="M163.321 296.342H252.607V285.011H163.321V296.342Z" fill="#F0F0F0"/>
<path d="M166.47 296.342H157.247V387.699H166.47V296.342Z" fill="#E6E6E6"/>
<path d="M169.383 296.342H162.977V387.699H169.383V296.342Z" fill="#F0F0F0"/>
<path d="M100.818 296.342H91.5943V387.699H100.818V296.342Z" fill="#E6E6E6"/>
<path d="M103.73 296.342H97.3247V387.699H103.73V296.342Z" fill="#F0F0F0"/>
<path d="M191.323 296.342H182.099V387.699H191.323V296.342Z" fill="#E6E6E6"/>
<path d="M194.223 296.342H187.818V387.699H194.223V296.342Z" fill="#F0F0F0"/>
<path d="M163.321 285.002H91.5943V296.333H163.321V285.002Z" fill="#E6E6E6"/>
<path d="M430.787 28.9629H153.34V183.428H430.787V28.9629Z" fill="#E0E0E0"/>
<path d="M446.025 28.9629H154.737V183.428H446.025V28.9629Z" fill="#F5F5F5"/>
<path d="M441.265 178.666V33.7207L159.497 33.7207V178.666L441.265 178.666Z" fill="white"/>
<path d="M273.587 178.666L326.784 33.7207H238.99L185.793 178.666H273.587Z" fill="#F5F5F5"/>
<path d="M358.089 178.666L411.286 33.7207H345.053L291.856 178.666H358.089Z" fill="#F5F5F5"/>
<path d="M518.722 240.174H495.137V387.7H518.722V240.174Z" fill="#E6E6E6"/>
<path d="M512.518 387.702H518.722V376.336H506.018L512.518 387.702Z" fill="#FAFAFA"/>
<path d="M301.269 240.174H277.684V387.7H301.269V240.174Z" fill="#E6E6E6"/>
<path d="M518.722 240.174H295.858V384.634H518.722V240.174Z" fill="#FAFAFA"/>
<path d="M514.507 286.789H300.085V245.988H514.507V286.789ZM301.269 285.605H513.323V247.172H301.269V285.605Z" fill="#E6E6E6"/>
<path d="M476.761 265.797H341.987C335.735 265.797 329.709 260.741 325.411 251.944L325.008 251.092H493.728L493.326 251.944C488.992 260.741 483.072 265.797 476.761 265.797ZM326.95 252.276C330.952 260.126 336.422 264.613 341.987 264.613H476.761C482.35 264.613 487.796 260.126 491.798 252.276H326.95Z" fill="#E6E6E6"/>
<path d="M302.062 387.702H295.858V376.336H308.562L302.062 387.702Z" fill="#FAFAFA"/>
<path d="M514.507 332.799H300.085V291.998H514.507V332.799ZM301.269 331.615H513.323V293.182H301.269V331.615Z" fill="#E6E6E6"/>
<path d="M476.761 311.805H341.987C335.735 311.805 329.709 306.761 325.411 297.964L325.008 297.111H493.728L493.326 297.964C488.992 306.761 483.072 311.805 476.761 311.805ZM326.95 298.295C330.952 306.145 336.422 310.621 341.987 310.621H476.761C482.35 310.621 487.796 306.145 491.798 298.295H326.95Z" fill="#E6E6E6"/>
<path d="M514.507 378.881H300.085V338.021H514.507V378.881ZM301.269 377.697H513.323V339.205H301.269V377.697Z" fill="#E6E6E6"/>
<path d="M476.761 357.828H341.987C335.735 357.828 329.709 352.784 325.411 343.975L325.008 343.135H493.728L493.326 343.975C488.992 352.832 483.072 357.828 476.761 357.828ZM326.95 344.319C330.952 352.169 336.422 356.644 341.987 356.644H476.761C482.35 356.644 487.796 352.169 491.798 344.319H326.95Z" fill="#E6E6E6"/>
<path d="M143.24 259.688V262.553H141.417L139.901 285.001H117.595L116.091 262.553H114.256V259.688H143.24Z" fill="#E6E6E6"/>
<path d="M135.899 203.956C134.076 190.624 116.032 186.753 93.1097 186.267C71.3122 185.806 64.3266 178.086 64.3266 178.086C64.3266 178.086 64.3977 209.32 95.8092 220.627C125.634 231.366 137.735 217.359 135.899 203.956Z" fill="#E6E6E6"/>
<path d="M124.77 234.277C125.149 228.771 133.934 218.672 155.068 223.266C170.342 226.581 176.025 218.672 176.025 218.672C176.025 218.672 174.604 241.014 151.635 247.739C129.814 254.121 124.095 243.903 124.77 234.277Z" fill="#E6E6E6"/>
<path d="M129.589 268.117C129.708 268.118 129.826 268.093 129.934 268.044C130.042 267.995 130.139 267.923 130.216 267.833C131.744 266.021 130.489 261.688 128.76 255.685C126.534 247.989 123.764 238.399 126.108 231.437C127.409 227.77 128.928 224.184 130.654 220.698C133.97 213.688 136.835 207.674 134.443 201.304C134.406 201.203 134.35 201.11 134.276 201.031C134.203 200.952 134.115 200.888 134.016 200.844C133.918 200.8 133.812 200.776 133.704 200.774C133.597 200.771 133.49 200.79 133.389 200.83C133.189 200.91 133.027 201.064 132.939 201.261C132.85 201.458 132.842 201.681 132.916 201.884C135.059 207.555 132.466 213.049 129.174 219.999C127.426 223.546 125.884 227.191 124.557 230.916C122.059 238.363 124.9 248.214 127.185 256.135C128.535 260.8 129.932 265.607 128.973 266.791C128.897 266.873 128.839 266.969 128.802 267.075C128.765 267.18 128.751 267.292 128.76 267.404C128.769 267.515 128.801 267.623 128.854 267.722C128.907 267.82 128.98 267.906 129.068 267.975C129.219 268.083 129.404 268.133 129.589 268.117Z" fill="#E6E6E6"/>
<path d="M296 441.169C422.786 441.169 525.566 435.168 525.566 427.766C525.566 420.364 422.786 414.363 296 414.363C169.214 414.363 66.4342 420.364 66.4342 427.766C66.4342 435.168 169.214 441.169 296 441.169Z" fill="#F5F5F5"/>
<path d="M295.953 362.421H127.825L118.625 92.0312H286.753L295.953 362.421Z" fill="#407BFF"/>
<path d="M304.347 354.027H136.219L127.008 83.6367H295.136L304.347 354.027Z" fill="#4F2B89"/>
<path opacity="0.3" d="M305.339 354.39H137.211L128 84H296.128L305.339 354.39Z" fill="#4F2B89"/>
<path d="M270.568 256.111H163.321L162.599 234.799H269.845L270.568 256.111Z" fill="white"/>
<path d="M271.87 294.201H164.611L163.889 272.889H271.148L271.87 294.201Z" fill="white"/>
<path d="M230.477 275.871L204.631 279.423C204.383 279.452 204.145 279.532 203.93 279.658C203.716 279.784 203.529 279.953 203.382 280.154C203.236 280.355 203.132 280.584 203.078 280.827C203.024 281.07 203.02 281.321 203.068 281.566L206.466 298.888C206.577 299.395 206.875 299.842 207.3 300.141C207.726 300.439 208.248 300.566 208.763 300.498L234.609 296.946C234.855 296.916 235.092 296.836 235.305 296.711C235.518 296.586 235.704 296.418 235.849 296.218C235.995 296.018 236.097 295.79 236.151 295.549C236.205 295.307 236.208 295.057 236.16 294.815L232.774 277.493C232.668 276.982 232.372 276.53 231.946 276.229C231.519 275.928 230.994 275.8 230.477 275.871ZM223.054 293.406L218.318 294.045L217.856 288.457C217.369 288.244 216.94 287.918 216.604 287.506C216.268 287.094 216.036 286.608 215.926 286.089C215.839 285.685 215.837 285.268 215.922 284.864C216.006 284.461 216.174 284.079 216.415 283.744C216.656 283.409 216.965 283.129 217.321 282.921C217.677 282.713 218.073 282.582 218.483 282.537C219.324 282.428 220.175 282.64 220.868 283.128C221.561 283.617 222.045 284.348 222.225 285.177C222.329 285.676 222.298 286.193 222.136 286.676C221.974 287.159 221.685 287.589 221.301 287.924L223.054 293.406Z" fill="#407BFF"/>
<path d="M227.92 274.888C227.463 274.946 227.001 274.832 226.624 274.567C226.247 274.302 225.983 273.905 225.884 273.456L225.552 271.763C225.079 269.452 223.784 267.391 221.907 265.963C220.03 264.535 217.699 263.836 215.346 263.995C214.159 264.063 213 264.386 211.948 264.941C210.896 265.496 209.976 266.271 209.251 267.214C208.525 268.156 208.011 269.244 207.743 270.402C207.475 271.561 207.459 272.764 207.697 273.929L208.076 275.883C208.119 276.099 208.116 276.322 208.068 276.537C208.02 276.752 207.928 276.955 207.798 277.133C207.668 277.311 207.502 277.46 207.312 277.571C207.121 277.682 206.91 277.752 206.691 277.777C206.233 277.841 205.768 277.729 205.39 277.463C205.012 277.197 204.749 276.797 204.654 276.345L204.335 274.687C204.01 273.15 203.999 271.562 204.303 270.021C204.608 268.479 205.221 267.015 206.106 265.716C206.991 264.418 208.129 263.312 209.452 262.465C210.776 261.617 212.257 261.047 213.807 260.787C217.167 260.219 220.616 260.968 223.439 262.877C226.261 264.787 228.239 267.71 228.962 271.04L229.341 272.994C229.383 273.213 229.379 273.438 229.329 273.656C229.279 273.873 229.184 274.077 229.05 274.256C228.916 274.434 228.747 274.583 228.552 274.692C228.357 274.801 228.142 274.868 227.92 274.888Z" fill="#407BFF"/>
<path d="M254.169 324.046H184.349L183.887 310.17H253.696L254.169 324.046Z" fill="#407BFF"/>
<path d="M220.484 245.456C220.505 245.966 220.422 246.475 220.239 246.952C220.056 247.429 219.777 247.863 219.42 248.228C219.063 248.593 218.635 248.881 218.162 249.074C217.69 249.267 217.182 249.361 216.672 249.351C215.628 249.343 214.627 248.935 213.876 248.21C213.124 247.485 212.68 246.499 212.634 245.456C212.614 244.95 212.696 244.445 212.876 243.971C213.056 243.498 213.33 243.066 213.683 242.702C214.035 242.338 214.457 242.049 214.924 241.852C215.391 241.656 215.893 241.557 216.4 241.561C217.453 241.554 218.467 241.956 219.229 242.683C219.991 243.409 220.441 244.404 220.484 245.456Z" fill="#263238"/>
<path d="M203.648 245.456C203.67 245.963 203.59 246.468 203.41 246.943C203.23 247.417 202.956 247.849 202.604 248.214C202.251 248.579 201.828 248.867 201.36 249.063C200.893 249.259 200.39 249.357 199.883 249.351C198.84 249.343 197.84 248.934 197.091 248.209C196.341 247.484 195.9 246.498 195.857 245.456C195.836 244.95 195.919 244.445 196.099 243.971C196.279 243.498 196.553 243.066 196.905 242.702C197.257 242.338 197.68 242.049 198.147 241.852C198.614 241.656 199.116 241.557 199.622 241.561C200.666 241.566 201.667 241.974 202.417 242.7C203.167 243.426 203.608 244.413 203.648 245.456Z" fill="#263238"/>
<path d="M186.918 245.456C186.939 245.962 186.857 246.467 186.677 246.941C186.497 247.414 186.222 247.846 185.87 248.21C185.518 248.574 185.096 248.863 184.629 249.06C184.162 249.256 183.66 249.355 183.153 249.351C182.109 249.346 181.108 248.938 180.358 248.212C179.608 247.486 179.167 246.499 179.127 245.456C179.107 244.95 179.189 244.445 179.369 243.971C179.549 243.498 179.823 243.066 180.176 242.702C180.528 242.338 180.95 242.049 181.417 241.852C181.884 241.656 182.386 241.557 182.893 241.561C183.936 241.566 184.938 241.974 185.688 242.7C186.438 243.426 186.879 244.413 186.918 245.456Z" fill="#263238"/>
<path d="M237.262 245.453C237.283 245.959 237.201 246.464 237.02 246.937C236.84 247.411 236.566 247.843 236.214 248.207C235.862 248.571 235.439 248.86 234.972 249.056C234.505 249.252 234.003 249.352 233.497 249.348C232.453 249.343 231.452 248.934 230.702 248.209C229.952 247.483 229.511 246.496 229.471 245.453C229.445 244.943 229.524 244.434 229.703 243.956C229.881 243.478 230.156 243.042 230.51 242.675C230.864 242.307 231.29 242.017 231.761 241.82C232.232 241.624 232.738 241.526 233.248 241.534C234.294 241.542 235.295 241.955 236.043 242.685C236.792 243.416 237.228 244.408 237.262 245.453Z" fill="#263238"/>
<path d="M254.039 245.456C254.062 245.963 253.981 246.468 253.801 246.943C253.622 247.417 253.347 247.849 252.995 248.214C252.642 248.579 252.219 248.867 251.752 249.063C251.284 249.259 250.781 249.357 250.274 249.351C249.231 249.343 248.231 248.934 247.482 248.209C246.733 247.484 246.291 246.498 246.248 245.456C246.227 244.95 246.31 244.445 246.49 243.971C246.67 243.498 246.944 243.066 247.296 242.702C247.648 242.338 248.071 242.049 248.538 241.852C249.005 241.656 249.507 241.557 250.013 241.561C251.057 241.566 252.058 241.974 252.809 242.7C253.559 243.426 253.999 244.413 254.039 245.456Z" fill="#263238"/>
<path d="M395.349 141.285C396.924 143.807 398.238 146.234 399.588 148.756C400.938 151.278 402.157 153.812 403.353 156.405C405.793 161.655 407.812 167.091 409.392 172.661C409.605 173.36 409.759 174.106 409.936 174.828L410.197 175.929L410.327 176.474L410.481 177.373C410.748 179.411 410.623 181.48 410.114 183.471C409.299 186.573 408.055 189.545 406.42 192.304C403.501 197.327 399.969 201.969 395.906 206.121L390.921 202.344C393.424 197.745 395.649 193 397.587 188.136C398.448 185.992 399.055 183.755 399.399 181.47C399.508 180.772 399.476 180.06 399.304 179.374L398.83 177.93C398.641 177.326 398.463 176.746 398.238 176.142C396.44 171.257 394.356 166.481 391.999 161.839C389.631 157.103 387.085 152.367 384.539 147.845L395.349 141.285Z" fill="#FF8B7B"/>
<path d="M392.188 200.65L386.742 203.539L392.993 210.856C392.993 210.856 396.9 208.216 397.078 204.191L392.188 200.65Z" fill="#FF8B7B"/>
<path d="M379.437 208.052L386.126 213.368L392.993 210.858L386.742 203.541L379.437 208.052Z" fill="#FF8B7B"/>
<path d="M356.561 102.543C356.431 103.206 355.97 103.727 355.543 103.573C355.117 103.419 354.868 102.887 354.999 102.223C355.129 101.56 355.591 101.111 356.029 101.193C356.467 101.276 356.692 101.892 356.561 102.543Z" fill="#263238"/>
<path d="M356.029 103.684C354.839 105.536 353.396 107.214 351.743 108.668C352.132 109.073 352.605 109.389 353.128 109.593C353.652 109.797 354.213 109.886 354.774 109.852L356.029 103.684Z" fill="#FF5652"/>
<path d="M353.898 126.912V119.145L364.175 120.388C364.175 120.388 364.009 127.065 358.255 129.019L353.898 126.912Z" fill="#FF8B7B"/>
<path d="M356.858 113.557L364.092 115.64L364.222 120.388L353.945 119.145L356.858 113.557Z" fill="#FF8B7B"/>
<path opacity="0.2" d="M364.092 115.64L356.857 113.557L355.448 116.256C355.525 118.383 356.19 120.447 357.369 122.22C358.548 123.992 360.194 125.403 362.126 126.296C363.369 124.56 364.096 122.508 364.222 120.376L364.092 115.64Z" fill="black"/>
<path d="M359.711 99.3824C359.787 99.3804 359.861 99.3569 359.924 99.3148C359.987 99.2726 360.037 99.2135 360.068 99.1441C360.099 99.0748 360.109 98.9981 360.099 98.923C360.088 98.8478 360.056 98.7773 360.007 98.7194C359.591 98.2497 359.069 97.8865 358.484 97.6599C357.899 97.4333 357.268 97.35 356.644 97.417C356.542 97.4344 356.452 97.4915 356.392 97.5759C356.332 97.6602 356.308 97.7649 356.325 97.8669C356.342 97.9689 356.399 98.0599 356.484 98.1198C356.568 98.1797 356.673 98.2037 356.775 98.1866C357.269 98.1453 357.767 98.2202 358.227 98.4052C358.688 98.5902 359.098 98.8802 359.427 99.2522C359.463 99.2918 359.507 99.3237 359.556 99.346C359.605 99.3684 359.657 99.3808 359.711 99.3824Z" fill="#263238"/>
<path d="M374.842 114.527C373.658 120.625 372.924 129.067 377.21 133.128C377.21 133.128 375.553 139.308 364.186 139.308C351.743 139.308 358.207 133.886 358.207 133.886C363.381 132.276 363.334 126.379 362.15 121.655L374.842 114.527Z" fill="#FF8B7B"/>
<path d="M379.519 137.199C380.632 135.624 380.585 130.675 379.401 129.799C377.494 128.378 369.313 128.058 358.302 130.592C359.486 135.399 356.952 137.909 356.952 137.909L379.519 137.199Z" fill="#407BFF"/>
<path d="M416.531 418.282C416.195 418.405 415.837 418.459 415.478 418.441C415.12 418.423 414.77 418.332 414.447 418.175C414.326 418.059 414.242 417.908 414.209 417.743C414.175 417.578 414.192 417.407 414.258 417.252C414.297 417.125 414.363 417.007 414.451 416.907C414.538 416.807 414.646 416.727 414.767 416.672C415.892 416.139 418.473 417.192 418.591 417.24C418.628 417.253 418.659 417.277 418.68 417.309C418.702 417.341 418.712 417.379 418.71 417.417C418.708 417.453 418.697 417.488 418.678 417.519C418.66 417.55 418.634 417.576 418.603 417.595C417.938 417.894 417.243 418.124 416.531 418.282ZM415.17 416.956L414.945 417.027C414.871 417.058 414.806 417.105 414.753 417.164C414.699 417.224 414.66 417.294 414.637 417.37C414.53 417.725 414.637 417.832 414.708 417.867C415.158 418.258 416.815 417.867 417.988 417.429C417.094 417.07 416.132 416.908 415.17 416.956Z" fill="#407BFF"/>
<path d="M418.556 417.618H418.461C417.514 417.346 415.501 415.913 415.477 414.966C415.479 414.818 415.529 414.674 415.622 414.558C415.714 414.442 415.842 414.361 415.987 414.326C416.128 414.279 416.277 414.261 416.426 414.273C416.575 414.285 416.719 414.328 416.851 414.397C417.964 414.966 418.674 417.275 418.698 417.369C418.716 417.4 418.725 417.435 418.725 417.47C418.725 417.505 418.716 417.54 418.698 417.571L418.556 417.618ZM416.188 414.67H416.093C415.856 414.753 415.856 414.871 415.856 414.93C415.856 415.487 417.206 416.612 418.224 417.061C417.976 416.398 417.431 415.084 416.709 414.693C416.548 414.621 416.366 414.612 416.2 414.67H416.188Z" fill="#407BFF"/>
<path d="M355.034 419.68C353.968 419.68 352.938 419.538 352.595 419.052C352.506 418.928 352.459 418.779 352.459 418.626C352.459 418.473 352.506 418.324 352.595 418.2C352.661 418.083 352.751 417.981 352.859 417.901C352.967 417.822 353.091 417.766 353.223 417.738C354.608 417.359 357.52 419.017 357.639 419.088C357.675 419.105 357.704 419.135 357.722 419.172C357.739 419.208 357.743 419.25 357.734 419.289C357.728 419.329 357.71 419.366 357.682 419.395C357.655 419.425 357.619 419.446 357.58 419.455C356.739 419.604 355.888 419.679 355.034 419.68ZM353.72 418.069C353.594 418.049 353.466 418.049 353.341 418.069C353.261 418.086 353.185 418.119 353.118 418.165C353.05 418.212 352.994 418.272 352.95 418.342C352.808 418.59 352.867 418.709 352.95 418.78C353.341 419.313 355.437 419.336 356.988 419.111C355.975 418.558 354.866 418.204 353.72 418.069Z" fill="#407BFF"/>
<path d="M357.568 419.455H357.485C356.479 418.993 354.489 417.194 354.643 416.258C354.643 416.033 354.833 415.761 355.377 415.702C355.573 415.68 355.771 415.7 355.958 415.759C356.146 415.818 356.319 415.916 356.467 416.045C357.228 416.951 357.683 418.074 357.769 419.254C357.768 419.287 357.76 419.32 357.746 419.351C357.732 419.382 357.711 419.409 357.686 419.431C357.65 419.45 357.609 419.458 357.568 419.455ZM355.531 416.081H355.413C355.058 416.081 355.034 416.258 355.034 416.305C354.939 416.874 356.289 418.283 357.319 418.898C357.226 417.952 356.842 417.059 356.218 416.341C356.025 416.171 355.777 416.078 355.52 416.081H355.531Z" fill="#407BFF"/>
<path d="M366.708 419.252H358.385L357.556 399.965H365.88L366.708 419.252Z" fill="#FF8B7B"/>
<path d="M427.838 415.405L419.704 417.169L411.523 399.196L419.669 397.443L427.838 415.405Z" fill="#FF8B7B"/>
<path d="M418.911 416.351L428.063 414.362C428.224 414.329 428.392 414.352 428.539 414.428C428.685 414.503 428.801 414.626 428.868 414.777L432.041 421.656C432.126 421.823 432.17 422.007 432.169 422.194C432.168 422.381 432.124 422.565 432.038 422.732C431.953 422.898 431.829 423.042 431.677 423.151C431.525 423.26 431.35 423.332 431.165 423.361C427.968 424 426.37 424.154 422.356 425.018C419.882 425.551 414.293 426.913 410.871 427.659C407.45 428.405 406.277 425.113 407.615 424.509C413.595 421.774 416.081 419.371 417.703 417.133C417.993 416.73 418.424 416.451 418.911 416.351Z" fill="#263238"/>
<path d="M358.444 418.295H367.537C367.702 418.296 367.862 418.353 367.991 418.456C368.12 418.559 368.21 418.702 368.248 418.863L369.893 426.263C369.939 426.441 369.943 426.628 369.905 426.808C369.866 426.987 369.786 427.156 369.672 427.299C369.557 427.443 369.41 427.558 369.243 427.635C369.076 427.712 368.893 427.749 368.709 427.743C365.43 427.743 360.694 427.495 356.573 427.495C351.743 427.495 347.587 427.767 341.927 427.767C338.505 427.767 337.558 424.31 338.991 423.99C345.503 422.569 350.831 422.415 356.455 418.946C357.046 418.551 357.734 418.325 358.444 418.295Z" fill="#263238"/>
<path d="M392.105 134.975C399.908 136.763 406.313 156.69 406.313 156.69L390.72 168.672C386.672 164.344 383.817 159.041 382.432 153.28C379.673 142.837 384.125 133.176 392.105 134.975Z" fill="#407BFF"/>
<path opacity="0.4" d="M392.105 134.975C399.908 136.763 406.313 156.69 406.313 156.69L390.72 168.672C386.672 164.344 383.817 159.041 382.432 153.28C379.673 142.837 384.125 133.176 392.105 134.975Z" fill="black"/>
<path d="M351.056 158.782C349.114 160.89 347.172 162.761 345.136 164.702C344.13 165.662 343.111 166.597 342.069 167.52L340.495 168.894L340.104 169.237C339.914 169.403 339.678 169.604 339.429 169.794C338.729 170.34 337.961 170.794 337.144 171.143C336.228 171.526 335.247 171.727 334.255 171.735C333.407 171.739 332.565 171.591 331.769 171.297C330.886 170.961 330.08 170.45 329.401 169.794C328.533 168.946 327.897 167.89 327.553 166.727C327.374 166.154 327.258 165.562 327.21 164.963C327.148 164.258 327.148 163.549 327.21 162.844C327.269 162.275 327.34 161.79 327.435 161.328C327.76 159.714 328.219 158.13 328.809 156.592C329.343 155.136 329.956 153.709 330.644 152.318C331.402 150.814 332.124 149.713 332.846 148.458C335.779 143.652 339.127 139.112 342.851 134.889C346.537 130.691 350.599 126.839 354.987 123.381L359.344 127.868C356.289 131.965 353.282 136.358 350.499 140.679C347.725 144.973 345.195 149.42 342.922 153.999C342.413 155.112 341.738 156.367 341.418 157.267C340.995 158.312 340.627 159.379 340.317 160.464C340.017 161.44 339.792 162.437 339.642 163.447C339.634 163.605 339.634 163.763 339.642 163.921C339.642 164.004 339.642 164.063 339.642 163.803C339.621 163.541 339.57 163.283 339.488 163.033C339.232 162.194 338.763 161.435 338.127 160.831C337.066 159.812 335.655 159.24 334.184 159.232C333.53 159.224 332.882 159.349 332.278 159.599C331.698 159.848 331.686 159.919 331.686 159.884L332.136 159.469L333.568 158.167L336.398 155.515C338.269 153.75 340.151 151.868 341.927 150.127L351.056 158.782Z" fill="#FF8B7B"/>
<path opacity="0.2" d="M385.416 149.668C389.654 153.859 391.04 161.508 391.336 168.138L390.649 168.671C386.601 164.344 383.746 159.04 382.361 153.279C382.207 152.652 382.065 152.036 381.958 151.42L385.416 149.668Z" fill="black"/>
<path d="M342.78 143.357C341.075 152.356 340.009 170.838 344.947 207.423H389.536C389.844 200.58 385.546 167.227 392.141 135.01C387.213 134.064 382.23 133.435 377.222 133.127C370.913 132.76 364.588 132.76 358.278 133.127C356.195 133.317 354.134 133.625 352.358 133.944C349.996 134.359 347.816 135.481 346.106 137.161C344.395 138.842 343.235 141.003 342.78 143.357Z" fill="#407BFF"/>
<path opacity="0.4" d="M342.78 143.357C341.075 152.356 340.009 170.838 344.947 207.423H389.536C389.844 200.58 385.546 167.227 392.141 135.01C387.213 134.064 382.23 133.435 377.222 133.127C370.913 132.76 364.588 132.76 358.278 133.127C356.195 133.317 354.134 133.625 352.358 133.944C349.996 134.359 347.816 135.481 346.106 137.161C344.395 138.842 343.235 141.003 342.78 143.357Z" fill="black"/>
<path opacity="0.2" d="M349.6 156.654L341.548 154.736C341.3 159.603 341.276 165.653 341.631 173.124C345.337 168.897 350.073 162.326 349.6 156.654Z" fill="black"/>
<path opacity="0.2" d="M357.556 399.979L357.982 409.912H366.318L365.891 399.979H357.556Z" fill="black"/>
<path opacity="0.2" d="M419.669 397.443L411.523 399.208L415.738 408.466L423.884 406.702L419.669 397.443Z" fill="black"/>
<path d="M378.797 105.61C376.666 113.602 375.813 118.374 370.888 121.701C363.488 126.686 354.253 120.955 354.016 112.478C353.755 104.853 357.296 93.0836 365.856 91.4734C367.742 91.1169 369.688 91.2481 371.509 91.8544C373.331 92.4608 374.967 93.5222 376.263 94.9382C377.559 96.3541 378.472 98.0776 378.916 99.9452C379.359 101.813 379.318 103.763 378.797 105.61Z" fill="#FF8B7B"/>
<path d="M360.114 105.919C359.711 104.854 357.876 96.6013 359.605 94.4582C361.333 92.3152 381.047 93.8544 383.959 96.7315C388.802 101.467 385.439 105.73 380.147 111.212C376.169 115.332 376.015 119.973 374.002 120.684C370.45 121.868 365.027 120.755 363.938 117.002C362.849 113.248 360.114 105.919 360.114 105.919Z" fill="#263238"/>
<path d="M381.567 87.3423C374.606 84.3705 361.546 87.662 354.489 85.957C354.387 88.5872 355.243 91.1651 356.898 93.2119C358.553 95.2588 360.895 96.6356 363.488 97.0866C369.341 98.202 375.289 98.7492 381.248 98.7205C389.003 98.3653 387.487 89.8642 381.567 87.3423Z" fill="#263238"/>
<path d="M382.657 96.9794C385.201 97.2294 387.764 96.7359 390.033 95.5586C391.336 98.708 384.172 99.5724 382.657 96.9794Z" fill="#263238"/>
<path d="M363.902 106.251C363.743 108.3 362.91 110.24 361.534 111.768C359.711 113.769 357.817 112.526 357.497 110.087C357.213 107.896 357.805 104.167 360.031 103.113C362.257 102.059 364.056 103.776 363.902 106.251Z" fill="#FF8B7B"/>
<path d="M360.753 207.424C360.753 207.424 370.225 271.064 375.399 294.91C381.07 320.958 411.547 407.39 411.547 407.39L426.453 404.169C426.453 404.169 405.141 333.769 400.405 297.266C396.735 269.229 389.524 207.412 389.524 207.412L360.753 207.424Z" fill="#407BFF"/>
<path d="M407.971 402.428C407.912 402.428 410.753 407.815 410.753 407.815L427.519 404.192L426.11 399.148L407.971 402.428Z" fill="#263238"/>
<path opacity="0.3" d="M366.732 230.097C377.66 232.24 376.5 272.994 375.186 293.95C372.036 279.138 367.419 250.628 364.269 230.393C365.033 230.016 365.901 229.912 366.732 230.097Z" fill="black"/>
<path d="M344.946 207.424C344.946 207.424 343.762 269.691 344.71 295.04C345.657 321.455 354.88 407.947 354.88 407.947H368.994C368.994 407.947 369.503 322.995 370.178 297.053C370.864 268.767 374.274 207.377 374.274 207.377L344.946 207.424Z" fill="#407BFF"/>
<path d="M352.169 402.369C352.098 402.369 352.962 408.289 352.962 408.289H370.118L370.592 403.068L352.169 402.369Z" fill="#263238"/>
<path d="M360.232 146.092C364.222 156.855 340.767 169.524 340.767 169.524L330.608 156.5C330.608 156.5 337.44 142.99 345.728 136.905C355.969 129.398 357.189 137.899 360.232 146.092Z" fill="#407BFF"/>
<path opacity="0.4" d="M360.232 146.092C364.222 156.855 340.767 169.524 340.767 169.524L330.608 156.5C330.608 156.5 337.44 142.99 345.728 136.905C355.969 129.398 357.189 137.899 360.232 146.092Z" fill="black"/>
<path d="M209.174 149.869H217.435V158.565H209.174V149.869Z" fill="white"/>
<path d="M200.478 157.695H209.174V166.391H200.478V157.695Z" fill="white"/>
<path d="M217.652 167.261C221.393 167.261 225.049 166.139 228.16 164.037C231.27 161.935 233.694 158.947 235.126 155.451C236.557 151.956 236.932 148.109 236.202 144.398C235.472 140.687 233.671 137.279 231.026 134.603C228.381 131.928 225.011 130.106 221.342 129.368C217.673 128.629 213.87 129.008 210.414 130.456C206.959 131.904 204.005 134.356 201.927 137.502C199.848 140.648 198.739 144.347 198.739 148.13L207.633 148.13C207.633 146.126 208.221 144.167 209.322 142.5C210.422 140.834 211.987 139.535 213.818 138.768C215.649 138.001 217.663 137.8 219.607 138.191C221.55 138.582 223.336 139.547 224.737 140.964C226.138 142.382 227.092 144.187 227.479 146.153C227.865 148.119 227.667 150.157 226.909 152.009C226.15 153.86 224.866 155.443 223.218 156.557C221.571 157.67 219.634 158.265 217.652 158.265L217.652 167.261Z" fill="white"/>
<path d="M161.6 176.295C162.787 176.295 163.786 176.698 164.597 177.505C165.408 178.312 165.813 179.302 165.813 180.477C165.813 181.651 165.408 182.642 164.597 183.449C163.786 184.255 162.787 184.659 161.6 184.659H159.432V188.751H157V176.295H161.6ZM161.6 182.363C162.117 182.363 162.546 182.185 162.887 181.829C163.228 181.462 163.398 181.011 163.398 180.477C163.398 179.931 163.228 179.48 162.887 179.124C162.546 178.769 162.117 178.591 161.6 178.591H159.432V182.363H161.6Z" fill="white"/>
<path d="M168.419 178.786C168.043 178.786 167.714 178.65 167.432 178.377C167.162 178.092 167.027 177.76 167.027 177.381C167.027 177.001 167.162 176.669 167.432 176.384C167.714 176.099 168.043 175.957 168.419 175.957C168.807 175.957 169.136 176.099 169.406 176.384C169.688 176.669 169.829 177.001 169.829 177.381C169.829 177.76 169.688 178.092 169.406 178.377C169.136 178.65 168.807 178.786 168.419 178.786ZM167.291 188.751V179.854H169.565V188.751H167.291Z" fill="white"/>
<path d="M176.687 182.061H174.695V185.762C174.695 186.07 174.772 186.296 174.924 186.438C175.077 186.58 175.3 186.663 175.594 186.687C175.888 186.699 176.252 186.693 176.687 186.669V188.751C175.124 188.929 174.02 188.781 173.373 188.307C172.739 187.832 172.421 186.984 172.421 185.762V182.061H170.888V179.854H172.421V178.057L174.695 177.363V179.854H176.687V182.061Z" fill="white"/>
<path d="M182.21 189.001C180.882 189.001 179.771 188.55 178.878 187.648C177.997 186.747 177.556 185.631 177.556 184.303C177.556 182.974 177.997 181.859 178.878 180.957C179.771 180.056 180.882 179.605 182.21 179.605C183.068 179.605 183.849 179.813 184.554 180.228C185.259 180.643 185.794 181.201 186.158 181.9L184.202 183.057C184.025 182.689 183.755 182.399 183.391 182.185C183.038 181.972 182.639 181.865 182.192 181.865C181.511 181.865 180.947 182.096 180.5 182.559C180.053 183.01 179.83 183.591 179.83 184.303C179.83 185.003 180.053 185.584 180.5 186.047C180.947 186.497 181.511 186.723 182.192 186.723C182.65 186.723 183.056 186.622 183.408 186.42C183.773 186.207 184.043 185.916 184.219 185.548L186.193 186.687C185.805 187.387 185.259 187.951 184.554 188.378C183.849 188.793 183.068 189.001 182.21 189.001Z" fill="white"/>
<path d="M192.296 179.605C193.259 179.605 194.053 179.931 194.675 180.584C195.31 181.236 195.627 182.138 195.627 183.288V188.751H193.353V183.573C193.353 182.98 193.195 182.529 192.878 182.221C192.56 181.9 192.137 181.74 191.609 181.74C191.021 181.74 190.551 181.924 190.198 182.292C189.846 182.66 189.67 183.211 189.67 183.947V188.751H187.396V176.295H189.67V180.851C190.222 180.02 191.097 179.605 192.296 179.605Z" fill="white"/>
<path d="M202.275 176.295C203.462 176.295 204.461 176.698 205.271 177.505C206.082 178.312 206.488 179.302 206.488 180.477C206.488 181.651 206.082 182.642 205.271 183.449C204.461 184.255 203.462 184.659 202.275 184.659H200.107V188.751H197.675V176.295H202.275ZM202.275 182.363C202.792 182.363 203.221 182.185 203.562 181.829C203.902 181.462 204.073 181.011 204.073 180.477C204.073 179.931 203.902 179.48 203.562 179.124C203.221 178.769 202.792 178.591 202.275 178.591H200.107V182.363H202.275Z" fill="white"/>
<path d="M209.301 185.246C209.607 186.361 210.435 186.919 211.787 186.919C212.656 186.919 213.314 186.622 213.761 186.029L215.594 187.096C214.724 188.366 213.444 189.001 211.752 189.001C210.294 189.001 209.125 188.556 208.244 187.666C207.363 186.776 206.922 185.655 206.922 184.303C206.922 182.962 207.357 181.847 208.226 180.957C209.096 180.056 210.212 179.605 211.575 179.605C212.868 179.605 213.931 180.056 214.766 180.957C215.612 181.859 216.035 182.974 216.035 184.303C216.035 184.599 216.005 184.914 215.947 185.246H209.301ZM209.266 183.466H213.761C213.632 182.861 213.361 182.411 212.95 182.114C212.551 181.817 212.092 181.669 211.575 181.669C210.964 181.669 210.459 181.829 210.059 182.15C209.66 182.458 209.396 182.897 209.266 183.466Z" fill="white"/>
<path d="M219.896 181.384C220.107 180.815 220.454 180.388 220.936 180.103C221.429 179.818 221.976 179.676 222.575 179.676V182.239C221.882 182.156 221.259 182.298 220.707 182.666C220.166 183.033 219.896 183.644 219.896 184.498V188.751H217.622V179.854H219.896V181.384Z" fill="white"/>
<path d="M228.646 178.253C227.401 178.158 226.778 178.662 226.778 179.765V179.854H228.646V182.061H226.778V188.751H224.504V182.061H223.235V179.854H224.504V179.765C224.504 178.508 224.851 177.553 225.544 176.9C226.237 176.248 227.271 175.963 228.646 176.046V178.253Z" fill="white"/>
<path d="M231.283 185.246C231.588 186.361 232.417 186.919 233.768 186.919C234.637 186.919 235.296 186.622 235.742 186.029L237.575 187.096C236.706 188.366 235.425 189.001 233.733 189.001C232.276 189.001 231.106 188.556 230.225 187.666C229.344 186.776 228.903 185.655 228.903 184.303C228.903 182.962 229.338 181.847 230.207 180.957C231.077 180.056 232.193 179.605 233.556 179.605C234.849 179.605 235.912 180.056 236.747 180.957C237.593 181.859 238.016 182.974 238.016 184.303C238.016 184.599 237.986 184.914 237.928 185.246H231.283ZM231.247 183.466H235.742C235.613 182.861 235.343 182.411 234.931 182.114C234.532 181.817 234.073 181.669 233.556 181.669C232.945 181.669 232.44 181.829 232.041 182.15C231.641 182.458 231.377 182.897 231.247 183.466Z" fill="white"/>
<path d="M243.729 189.001C242.401 189.001 241.291 188.55 240.398 187.648C239.517 186.747 239.076 185.631 239.076 184.303C239.076 182.974 239.517 181.859 240.398 180.957C241.291 180.056 242.401 179.605 243.729 179.605C244.587 179.605 245.369 179.813 246.074 180.228C246.779 180.643 247.313 181.201 247.678 181.9L245.721 183.057C245.545 182.689 245.275 182.399 244.91 182.185C244.558 181.972 244.158 181.865 243.712 181.865C243.03 181.865 242.466 182.096 242.02 182.559C241.573 183.01 241.35 183.591 241.35 184.303C241.35 185.003 241.573 185.584 242.02 186.047C242.466 186.497 243.03 186.723 243.712 186.723C244.17 186.723 244.575 186.622 244.928 186.42C245.292 186.207 245.562 185.916 245.739 185.548L247.713 186.687C247.325 187.387 246.779 187.951 246.074 188.378C245.369 188.793 244.587 189.001 243.729 189.001Z" fill="white"/>
<path d="M253.957 182.061H251.965V185.762C251.965 186.07 252.041 186.296 252.194 186.438C252.347 186.58 252.57 186.663 252.864 186.687C253.157 186.699 253.522 186.693 253.957 186.669V188.751C252.394 188.929 251.289 188.781 250.643 188.307C250.008 187.832 249.691 186.984 249.691 185.762V182.061H248.157V179.854H249.691V178.057L251.965 177.363V179.854H253.957V182.061Z" fill="white"/>
<path d="M266.411 188.565L265.675 186.373H260.783L260.047 188.565H257.435L261.73 176.391H264.728L269.041 188.565H266.411ZM261.555 184.13H264.921L263.238 179.156L261.555 184.13Z" fill="white"/>
<path d="M270.233 176.391H272.652V188.565H270.233V176.391Z" fill="white"/>
</svg>
