<svg width="204" height="106" viewBox="0 0 204 106" fill="none" xmlns="http://www.w3.org/2000/svg">
<path d="M92.03 37.7188H106.601V53.0571H92.03V37.7188Z" fill="#FF5811"/>
<path d="M76.6918 51.5234H92.0301V66.8618H76.6918V51.5234Z" fill="white"/>
<path d="M106.985 68.3949C113.583 68.3949 120.033 66.4158 125.519 62.7079C131.005 59.0001 135.281 53.7299 137.806 47.564C140.331 41.398 140.992 34.6131 139.705 28.0674C138.418 21.5216 135.24 15.509 130.575 10.7897C125.909 6.07052 119.965 2.85668 113.493 1.55465C107.022 0.25262 100.314 0.920869 94.2183 3.4749C88.1224 6.02892 82.9122 10.354 79.2464 15.9032C75.5807 21.4525 73.6241 27.9766 73.6241 34.6506L89.3122 34.6506C89.3122 31.1151 90.3487 27.6589 92.2906 24.7193C94.2325 21.7796 96.9926 19.4884 100.222 18.1354C103.451 16.7824 107.005 16.4284 110.433 17.1182C113.861 17.8079 117.01 19.5104 119.481 22.0104C121.953 24.5104 123.636 27.6956 124.318 31.1632C125 34.6307 124.65 38.225 123.312 41.4914C121.975 44.7578 119.71 47.5496 116.803 49.5138C113.897 51.478 110.48 52.5265 106.985 52.5265L106.985 68.3949Z" fill="white"/>
<path d="M8.11475 82.8386C10.2082 82.8386 11.97 83.55 13.4002 84.973C14.8304 86.3959 15.5455 88.1432 15.5455 90.2148C15.5455 92.2864 14.8304 94.0337 13.4002 95.4566C11.97 96.8795 10.2082 97.591 8.11475 97.591H4.29056V104.81H0V82.8386H8.11475ZM8.11475 93.5419C9.02675 93.5419 9.7833 93.228 10.3844 92.6003C10.9855 91.9516 11.286 91.1564 11.286 90.2148C11.286 89.2522 10.9855 88.457 10.3844 87.8293C9.7833 87.2015 9.02675 86.8876 8.11475 86.8876H4.29056V93.5419H8.11475Z" fill="white"/>
<path d="M20.1421 87.2329C19.4788 87.2329 18.8985 86.9923 18.401 86.511C17.9243 86.0088 17.6859 85.4228 17.6859 84.7532C17.6859 84.0836 17.9243 83.4977 18.401 82.9955C18.8985 82.4933 19.4788 82.2422 20.1421 82.2422C20.8261 82.2422 21.4065 82.4933 21.8832 82.9955C22.3807 83.4977 22.6294 84.0836 22.6294 84.7532C22.6294 85.4228 22.3807 86.0088 21.8832 86.511C21.4065 86.9923 20.8261 87.2329 20.1421 87.2329ZM18.1523 104.81V89.1162H22.163V104.81H18.1523Z" fill="white"/>
<path d="M34.726 93.0083H31.2127V99.537C31.2127 100.081 31.3474 100.479 31.6169 100.73C31.8863 100.981 32.2801 101.127 32.7983 101.169C33.3165 101.19 33.9591 101.18 34.726 101.138V104.81C31.9692 105.124 30.0209 104.863 28.8809 104.026C27.7616 103.189 27.2019 101.692 27.2019 99.537V93.0083H24.497V89.1162H27.2019V85.946L31.2127 84.7218V89.1162H34.726V93.0083Z" fill="white"/>
<path d="M44.4676 105.25C42.1255 105.25 40.1667 104.455 38.5915 102.864C37.0369 101.274 36.2596 99.3069 36.2596 96.9632C36.2596 94.6196 37.0369 92.6526 38.5915 91.0622C40.1667 89.4719 42.1255 88.6768 44.4676 88.6768C45.9807 88.6768 47.3591 89.0429 48.6028 89.7753C49.8464 90.5077 50.7895 91.4912 51.432 92.7258L47.9809 94.766C47.67 94.1174 47.1933 93.6047 46.5507 93.228C45.9289 92.8514 45.2242 92.663 44.4366 92.663C43.2344 92.663 42.2395 93.0711 41.4518 93.8872C40.6642 94.6823 40.2704 95.7077 40.2704 96.9632C40.2704 98.1978 40.6642 99.2232 41.4518 100.039C42.2395 100.834 43.2344 101.232 44.4366 101.232C45.2449 101.232 45.96 101.054 46.5818 100.698C47.2244 100.322 47.7011 99.8091 48.012 99.1604L51.4942 101.169C50.8102 102.404 49.8464 103.398 48.6028 104.151C47.3591 104.883 45.9807 105.25 44.4676 105.25Z" fill="white"/>
<path d="M62.2587 88.6768C63.9584 88.6768 65.3575 89.2522 66.456 90.4031C67.5753 91.554 68.1349 93.1443 68.1349 95.1741V104.81H64.1242V95.6763C64.1242 94.63 63.8444 93.8349 63.2847 93.2908C62.7251 92.7258 61.9789 92.4433 61.0462 92.4433C60.0098 92.4433 59.1807 92.7677 58.5589 93.4164C57.9371 94.065 57.6262 95.0381 57.6262 96.3354V104.81H53.6154V82.8386H57.6262V90.8739C58.6004 89.4091 60.1446 88.6768 62.2587 88.6768Z" fill="white"/>
<path d="M79.8609 82.8386C81.9543 82.8386 83.7161 83.55 85.1463 84.973C86.5765 86.3959 87.2916 88.1432 87.2916 90.2148C87.2916 92.2864 86.5765 94.0337 85.1463 95.4566C83.7161 96.8795 81.9543 97.591 79.8609 97.591H76.0367V104.81H71.7461V82.8386H79.8609ZM79.8609 93.5419C80.7729 93.5419 81.5294 93.228 82.1305 92.6003C82.7316 91.9516 83.0321 91.1564 83.0321 90.2148C83.0321 89.2522 82.7316 88.457 82.1305 87.8293C81.5294 87.2015 80.7729 86.8876 79.8609 86.8876H76.0367V93.5419H79.8609Z" fill="white"/>
<path d="M92.255 98.6268C92.7939 100.594 94.2552 101.577 96.6388 101.577C98.1726 101.577 99.3334 101.054 100.121 100.008L103.354 101.891C101.821 104.13 99.5614 105.25 96.5766 105.25C94.0065 105.25 91.9441 104.465 90.3895 102.896C88.835 101.326 88.0577 99.3487 88.0577 96.9632C88.0577 94.5986 88.8246 92.6317 90.3584 91.0622C91.8923 89.4719 93.8614 88.6768 96.2657 88.6768C98.5457 88.6768 100.422 89.4719 101.893 91.0622C103.386 92.6526 104.132 94.6196 104.132 96.9632C104.132 97.4863 104.08 98.0409 103.976 98.6268H92.255ZM92.1928 95.488H100.121C99.893 94.4208 99.4163 93.6256 98.6908 93.1025C97.9861 92.5793 97.1777 92.3178 96.2657 92.3178C95.1879 92.3178 94.2966 92.6003 93.5919 93.1653C92.8872 93.7093 92.4208 94.4836 92.1928 95.488Z" fill="white"/>
<path d="M110.942 91.8156C111.315 90.8111 111.927 90.0578 112.777 89.5556C113.647 89.0534 114.611 88.8023 115.668 88.8023V93.3222C114.445 93.1757 113.347 93.4268 112.373 94.0755C111.419 94.7242 110.942 95.8019 110.942 97.3085V104.81H106.932V89.1162H110.942V91.8156Z" fill="white"/>
<path d="M126.377 86.2913C124.18 86.1238 123.082 87.0132 123.082 88.9592V89.1162H126.377V93.0083H123.082V104.81H119.071V93.0083H116.832V89.1162H119.071V88.9592C119.071 86.7412 119.682 85.0567 120.905 83.9058C122.128 82.7549 123.952 82.2527 126.377 82.3991V86.2913Z" fill="white"/>
<path d="M131.028 98.6268C131.567 100.594 133.028 101.577 135.411 101.577C136.945 101.577 138.106 101.054 138.894 100.008L142.127 101.891C140.593 104.13 138.334 105.25 135.349 105.25C132.779 105.25 130.717 104.465 129.162 102.896C127.608 101.326 126.83 99.3487 126.83 96.9632C126.83 94.5986 127.597 92.6317 129.131 91.0622C130.665 89.4719 132.634 88.6768 135.038 88.6768C137.318 88.6768 139.194 89.4719 140.666 91.0622C142.158 92.6526 142.904 94.6196 142.904 96.9632C142.904 97.4863 142.853 98.0409 142.749 98.6268H131.028ZM130.965 95.488H138.894C138.666 94.4208 138.189 93.6256 137.463 93.1025C136.759 92.5793 135.95 92.3178 135.038 92.3178C133.961 92.3178 133.069 92.6003 132.365 93.1653C131.66 93.7093 131.193 94.4836 130.965 95.488Z" fill="white"/>
<path d="M152.982 105.25C150.64 105.25 148.682 104.455 147.106 102.864C145.552 101.274 144.774 99.3069 144.774 96.9632C144.774 94.6196 145.552 92.6526 147.106 91.0622C148.682 89.4719 150.64 88.6768 152.982 88.6768C154.496 88.6768 155.874 89.0429 157.118 89.7753C158.361 90.5077 159.304 91.4912 159.947 92.7258L156.496 94.766C156.185 94.1174 155.708 93.6047 155.066 93.228C154.444 92.8514 153.739 92.663 152.951 92.663C151.749 92.663 150.754 93.0711 149.967 93.8872C149.179 94.6823 148.785 95.7077 148.785 96.9632C148.785 98.1978 149.179 99.2232 149.967 100.039C150.754 100.834 151.749 101.232 152.951 101.232C153.76 101.232 154.475 101.054 155.097 100.698C155.739 100.322 156.216 99.8091 156.527 99.1604L160.009 101.169C159.325 102.404 158.361 103.398 157.118 104.151C155.874 104.883 154.496 105.25 152.982 105.25Z" fill="white"/>
<path d="M171.022 93.0083H167.509V99.537C167.509 100.081 167.644 100.479 167.913 100.73C168.183 100.981 168.576 101.127 169.095 101.169C169.613 101.19 170.255 101.18 171.022 101.138V104.81C168.266 105.124 166.317 104.863 165.177 104.026C164.058 103.189 163.498 101.692 163.498 99.537V93.0083H160.793V89.1162H163.498V85.946L167.509 84.7218V89.1162H171.022V93.0083Z" fill="white"/>
<path d="M192.991 104.481L191.692 100.616H183.064L181.766 104.481H177.158L184.734 83.0078H190.023L197.63 104.481H192.991ZM184.425 96.6589H190.363L187.394 87.8854L184.425 96.6589Z" fill="#FF5811"/>
<path d="M199.732 83.0078H204V104.481H199.732V83.0078Z" fill="#FF5811"/>
</svg>
