<svg width="823" height="615" viewBox="0 0 823 615" fill="none" xmlns="http://www.w3.org/2000/svg">
<path d="M822.98 561.691H0V562.102H822.98V561.691Z" fill="#E0E0E0"/>
<path d="M733.406 572.254H679.501V572.665H733.406V572.254Z" fill="#E0E0E0"/>
<path d="M543.611 581.172H476.258V581.582H543.611V581.172Z" fill="#E0E0E0"/>
<path d="M569.304 581.172H553.701V581.582H569.304V581.172Z" fill="#E0E0E0"/>
<path d="M216.723 576.457H153.354V576.868H216.723V576.457Z" fill="#E0E0E0"/>
<path d="M343.183 576.457H286.677V576.868H343.183V576.457Z" fill="#E0E0E0"/>
<path d="M663.568 572.254H606.092V572.665H663.568V572.254Z" fill="#E0E0E0"/>
<path d="M139.907 576.457H85.0138V576.868H139.907V576.457Z" fill="#E0E0E0"/>
<path d="M390.092 488.439H72.2741C69.7843 488.435 67.398 487.445 65.639 485.686C63.88 483.928 62.8921 481.545 62.8921 479.061V33.2533C62.8921 30.7689 63.88 28.386 65.639 26.6276C67.398 24.8693 69.7843 23.8794 72.2741 23.875H390.092C391.327 23.875 392.549 24.1176 393.689 24.5889C394.829 25.0602 395.865 25.751 396.738 26.6218C397.611 27.4927 398.303 28.5266 398.775 29.6644C399.248 30.8022 399.491 32.0217 399.491 33.2533V479.061C399.491 481.548 398.501 483.933 396.738 485.692C394.975 487.451 392.585 488.439 390.092 488.439ZM72.2741 24.3513C69.8934 24.3557 67.6118 25.3024 65.93 26.9837C64.2482 28.665 63.3036 30.9435 63.3036 33.319V479.061C63.3036 481.436 64.2482 483.715 65.93 485.396C67.6118 487.077 69.8934 488.024 72.2741 488.028H390.092C392.474 488.024 394.758 487.078 396.442 485.397C398.127 483.716 399.075 481.438 399.079 479.061V33.2533C399.058 30.8877 398.102 28.626 396.419 26.9594C394.737 25.2927 392.463 24.3555 390.092 24.3513H72.2741Z" fill="#E0E0E0"/>
<path d="M746.13 488.439H428.295C425.804 488.435 423.416 487.445 421.654 485.687C419.893 483.93 418.901 481.547 418.897 479.061V33.2533C418.901 30.7674 419.893 28.3845 421.654 26.6266C423.416 24.8688 425.804 23.8793 428.295 23.875H746.13C748.617 23.8837 750.999 24.8756 752.754 26.6334C754.51 28.3913 755.495 30.7717 755.495 33.2533V479.061C755.495 481.542 754.51 483.923 752.754 485.681C750.999 487.438 748.617 488.43 746.13 488.439ZM428.295 24.3513C425.913 24.3556 423.63 25.3019 421.945 26.9827C420.261 28.6635 419.312 30.942 419.308 33.319V479.061C419.312 481.438 420.261 483.716 421.945 485.397C423.63 487.078 425.913 488.024 428.295 488.028H746.13C748.512 488.024 750.795 487.078 752.48 485.397C754.164 483.716 755.112 481.438 755.117 479.061V33.2533C755.095 30.8877 754.139 28.626 752.457 26.9594C750.774 25.2927 748.501 24.3555 746.13 24.3513H428.295Z" fill="#E0E0E0"/>
<path d="M250.844 168.968L284.06 136.268L277.13 122.898C277.739 121.568 278.315 120.221 278.776 118.841L293.261 114.439L293.59 67.8599L279.155 63.2611C278.628 61.8814 278.085 60.5182 277.509 59.1714L284.751 45.7034L251.93 12.5754L238.45 19.5065C237.1 18.8824 235.751 18.324 234.368 17.782L229.957 3.32849L183.294 3L178.669 17.4042C177.286 17.9133 175.92 18.4554 174.57 19.0466L161.189 11.9513L127.957 44.6523L134.969 58.1038C134.36 59.4342 133.784 60.7974 133.323 62.1607L118.822 66.5788L118.493 113.142L132.928 117.757C133.438 119.137 133.981 120.5 134.574 121.847L127.447 135.2L160.218 168.344L173.698 161.43C175.031 162.037 176.397 162.612 177.764 163.072L182.191 177.542L228.854 177.871L233.479 163.45C234.862 162.941 236.228 162.399 237.578 161.807L250.844 168.968ZM230.434 115.129C225.543 119.942 219.332 123.198 212.586 124.488C205.839 125.778 198.862 125.042 192.534 122.375C186.207 119.707 180.815 115.227 177.039 109.502C173.263 103.776 171.274 97.0618 171.322 90.2078C171.37 83.3539 173.454 76.6681 177.31 70.996C181.167 65.324 186.622 60.9203 192.986 58.3419C199.35 55.7634 206.338 55.1261 213.065 56.5104C219.792 57.8947 225.957 61.2385 230.78 66.1189C233.984 69.3585 236.517 73.1965 238.234 77.4135C239.951 81.6306 240.819 86.1439 240.786 90.6956C240.754 95.2473 239.824 99.748 238.047 103.941C236.271 108.133 233.684 111.935 230.434 115.129Z" fill="#F0F0F0"/>
<path d="M758.326 527.712L774.177 512.126L770.885 505.704C771.181 505.063 771.444 504.423 771.708 503.766L778.621 501.663L778.769 479.458L771.955 477.257C771.708 476.6 771.444 475.959 771.165 475.319L774.555 468.946L758.787 453.129L752.351 456.414C751.709 456.119 751.067 455.856 750.409 455.609L748.302 448.711L726.049 448.547L723.843 455.429C723.185 455.659 722.543 455.921 721.901 456.217L715.515 452.817L699.681 468.42L702.973 474.826C702.676 475.466 702.396 476.107 702.15 476.764L695.237 478.866L695.088 501.072L701.969 503.273C702.215 503.93 702.462 504.57 702.759 505.227L699.351 511.584L714.988 527.4L721.407 524.116C722.049 524.411 722.691 524.674 723.35 524.92L725.456 531.819L747.71 531.983L749.915 525.117C750.574 524.871 751.232 524.608 751.874 524.313L758.326 527.712ZM748.582 502.041C746.25 504.335 743.288 505.887 740.072 506.501C736.856 507.116 733.529 506.765 730.513 505.493C727.497 504.221 724.926 502.085 723.126 499.355C721.326 496.625 720.378 493.425 720.401 490.157C720.424 486.889 721.417 483.702 723.256 480.998C725.094 478.294 727.694 476.194 730.728 474.965C733.762 473.735 737.093 473.431 740.3 474.09C743.508 474.75 746.447 476.343 748.747 478.669C750.274 480.214 751.482 482.045 752.3 484.056C753.119 486.067 753.532 488.219 753.517 490.389C753.502 492.56 753.058 494.706 752.211 496.705C751.364 498.704 750.131 500.518 748.582 502.041Z" fill="#F0F0F0"/>
<path d="M563.889 503.351H80.0759C77.3082 503.351 74.654 502.254 72.697 500.301C70.7399 498.348 69.6405 495.699 69.6405 492.938V130.484C69.6405 127.721 70.7394 125.071 72.696 123.115C74.6525 121.16 77.3067 120.059 80.0759 120.055H563.889C566.658 120.059 569.312 121.16 571.269 123.115C573.226 125.071 574.324 127.721 574.324 130.484V492.938C574.324 495.699 573.225 498.348 571.268 500.301C569.311 502.254 566.657 503.351 563.889 503.351ZM80.0759 120.876C77.525 120.88 75.0801 121.894 73.2779 123.696C71.4757 125.497 70.4635 127.939 70.4635 130.484V492.938C70.4678 495.48 71.482 497.917 73.2837 499.715C75.0854 501.513 77.5279 502.525 80.0759 502.53H563.889C566.437 502.525 568.88 501.513 570.681 499.715C572.483 497.917 573.497 495.48 573.501 492.938V130.484C573.501 127.939 572.489 125.497 570.687 123.696C568.885 121.894 566.44 120.88 563.889 120.876H80.0759Z" fill="#E0E0E0"/>
<path d="M92.042 139.206C90.9059 139.206 89.7953 138.87 88.8506 138.24C87.9059 137.611 87.1697 136.715 86.7349 135.668C86.3001 134.62 86.1863 133.468 86.408 132.356C86.6296 131.244 87.1767 130.223 87.9801 129.421C88.7835 128.619 89.807 128.074 90.9213 127.852C92.0356 127.631 93.1906 127.745 94.2403 128.179C95.2899 128.612 96.1871 129.347 96.8183 130.29C97.4495 131.232 97.7864 132.341 97.7864 133.474C97.7864 134.227 97.6378 134.972 97.3491 135.668C97.0605 136.363 96.6373 136.995 96.1039 137.528C95.5705 138.06 94.9372 138.482 94.2403 138.77C93.5434 139.058 92.7964 139.206 92.042 139.206ZM92.042 128.563C91.0654 128.563 90.1107 128.852 89.2987 129.394C88.4866 129.935 87.8537 130.705 87.48 131.605C87.1063 132.505 87.0085 133.496 87.199 134.452C87.3895 135.408 87.8598 136.286 88.5504 136.975C89.241 137.664 90.1208 138.133 91.0787 138.323C92.0365 138.513 93.0294 138.416 93.9317 138.043C94.8339 137.67 95.6051 137.038 96.1477 136.228C96.6903 135.418 96.9799 134.465 96.9799 133.491C96.9799 132.184 96.4596 130.931 95.5336 130.007C94.6076 129.083 93.3516 128.563 92.042 128.563Z" fill="#E0E0E0"/>
<path d="M110.938 139.206C109.802 139.206 108.691 138.87 107.746 138.24C106.802 137.611 106.065 136.715 105.631 135.668C105.196 134.62 105.082 133.468 105.304 132.356C105.525 131.244 106.072 130.223 106.876 129.421C107.679 128.619 108.703 128.074 109.817 127.852C110.931 127.631 112.086 127.745 113.136 128.179C114.186 128.612 115.083 129.347 115.714 130.29C116.345 131.232 116.682 132.341 116.682 133.474C116.682 134.995 116.077 136.453 115 137.528C113.922 138.603 112.461 139.206 110.938 139.206ZM110.938 128.563C109.961 128.563 109.006 128.852 108.194 129.394C107.382 129.935 106.749 130.705 106.376 131.605C106.002 132.505 105.904 133.496 106.095 134.452C106.285 135.408 106.755 136.286 107.446 136.975C108.137 137.664 109.016 138.133 109.974 138.323C110.932 138.513 111.925 138.416 112.827 138.043C113.73 137.67 114.501 137.038 115.043 136.228C115.586 135.418 115.876 134.465 115.876 133.491C115.876 132.184 115.355 130.931 114.429 130.007C113.503 129.083 112.247 128.563 110.938 128.563Z" fill="#E0E0E0"/>
<path d="M129.833 139.206C128.697 139.206 127.587 138.87 126.642 138.24C125.697 137.611 124.961 136.715 124.526 135.668C124.091 134.62 123.978 133.468 124.199 132.356C124.421 131.244 124.968 130.223 125.771 129.421C126.575 128.619 127.598 128.074 128.713 127.852C129.827 127.631 130.982 127.745 132.032 128.179C133.081 128.612 133.978 129.347 134.61 130.29C135.241 131.232 135.578 132.341 135.578 133.474C135.578 134.995 134.972 136.453 133.895 137.528C132.818 138.603 131.357 139.206 129.833 139.206ZM129.833 128.563C128.857 128.563 127.902 128.852 127.09 129.394C126.278 129.935 125.645 130.705 125.271 131.605C124.898 132.505 124.8 133.496 124.99 134.452C125.181 135.408 125.651 136.286 126.342 136.975C127.032 137.664 127.912 138.133 128.87 138.323C129.828 138.513 130.821 138.416 131.723 138.043C132.625 137.67 133.396 137.038 133.939 136.228C134.482 135.418 134.771 134.465 134.771 133.491C134.771 132.184 134.251 130.931 133.325 130.007C132.399 129.083 131.143 128.563 129.833 128.563Z" fill="#E0E0E0"/>
<path d="M756.038 51.1094H272.225C266.689 51.1094 262.201 55.5876 262.201 61.1118V423.582C262.201 429.106 266.689 433.584 272.225 433.584H756.038C761.574 433.584 766.062 429.106 766.062 423.582V61.1118C766.062 55.5876 761.574 51.1094 756.038 51.1094Z" fill="#E0E0E0"/>
<path d="M756.038 435.225H272.225C269.131 435.22 266.166 433.992 263.978 431.809C261.791 429.626 260.56 426.667 260.555 423.58V61.1097C260.56 58.0227 261.791 55.0633 263.978 52.8804C266.166 50.6975 269.131 49.4692 272.225 49.4648H756.038C759.132 49.4692 762.098 50.6975 764.285 52.8804C766.473 55.0633 767.704 58.0227 767.708 61.1097V423.58C767.704 426.667 766.473 429.626 764.285 431.809C762.098 433.992 759.132 435.22 756.038 435.225ZM272.225 52.7497C270.005 52.7541 267.876 53.6362 266.306 55.2031C264.736 56.77 263.852 58.8939 263.847 61.1097V423.58C263.852 425.796 264.736 427.919 266.306 429.486C267.876 431.053 270.005 431.935 272.225 431.94H756.038C758.259 431.935 760.387 431.053 761.958 429.486C763.528 427.919 764.412 425.796 764.416 423.58V61.1097C764.412 58.8939 763.528 56.77 761.958 55.2031C760.387 53.6362 758.259 52.7541 756.038 52.7497H272.225Z" fill="#E0E0E0"/>
<path d="M262.201 76.9102V423.465C262.21 426.115 263.269 428.654 265.147 430.528C267.025 432.402 269.569 433.459 272.225 433.467H756.038C758.694 433.459 761.239 432.402 763.117 430.528C764.995 428.654 766.054 426.115 766.062 423.465V76.9102H262.201Z" fill="#F0F0F0"/>
<path d="M764.219 90.2812H264.061V420.28H764.219V90.2812Z" fill="white"/>
<path d="M746.525 390.091H281.755C281.732 390.091 281.709 390.086 281.688 390.077C281.667 390.067 281.648 390.054 281.633 390.037C281.617 390.02 281.605 390 281.598 389.978C281.591 389.956 281.588 389.933 281.591 389.91V111.681C281.588 111.658 281.591 111.635 281.598 111.613C281.605 111.591 281.617 111.571 281.633 111.554C281.648 111.537 281.667 111.523 281.688 111.514C281.709 111.505 281.732 111.5 281.755 111.5H746.525C746.57 111.504 746.612 111.525 746.642 111.558C746.673 111.592 746.689 111.635 746.689 111.681V389.91C746.689 389.955 746.673 389.999 746.642 390.032C746.612 390.066 746.57 390.086 746.525 390.091ZM281.92 389.746H746.36V111.845H281.92V389.746Z" fill="#E6E6E6"/>
<path d="M284.191 70.1109C283.003 70.1109 281.842 69.7593 280.854 69.1006C279.866 68.4419 279.096 67.5056 278.641 66.4102C278.186 65.3147 278.067 64.1093 278.299 62.9465C278.531 61.7836 279.103 60.7154 279.943 59.877C280.783 59.0386 281.854 58.4676 283.019 58.2363C284.185 58.005 285.393 58.1237 286.49 58.5774C287.588 59.0312 288.526 59.7995 289.187 60.7854C289.847 61.7713 290.199 62.9303 290.199 64.116C290.199 65.7059 289.566 67.2308 288.439 68.355C287.313 69.4793 285.785 70.1109 284.191 70.1109ZM284.191 59.4679C283.266 59.4679 282.362 59.7419 281.593 60.2552C280.824 60.7684 280.224 61.4979 279.871 62.3512C279.518 63.2045 279.426 64.1432 279.608 65.0485C279.79 65.9538 280.236 66.7849 280.892 67.4366C281.547 68.0882 282.382 68.5312 283.29 68.7093C284.197 68.8874 285.138 68.7927 285.992 68.4372C286.846 68.0816 287.574 67.4812 288.086 66.7119C288.598 65.9427 288.869 65.0392 288.866 64.116C288.866 63.5042 288.745 62.8985 288.51 62.3334C288.275 61.7684 287.93 61.2553 287.496 60.8235C287.061 60.3916 286.546 60.0496 285.979 59.817C285.412 59.5844 284.804 59.4657 284.191 59.4679Z" fill="white"/>
<path d="M303.087 70.1109C301.899 70.1109 300.737 69.7593 299.749 69.1006C298.761 68.4419 297.991 67.5056 297.536 66.4102C297.082 65.3147 296.963 64.1093 297.195 62.9465C297.426 61.7836 297.999 60.7154 298.839 59.877C299.679 59.0386 300.749 58.4676 301.915 58.2363C303.08 58.005 304.288 58.1237 305.386 58.5774C306.484 59.0312 307.422 59.7995 308.082 60.7854C308.742 61.7713 309.095 62.9303 309.095 64.116C309.095 65.7059 308.462 67.2308 307.335 68.355C306.208 69.4793 304.68 70.1109 303.087 70.1109ZM303.087 59.4679C302.163 59.4744 301.262 59.7539 300.497 60.2711C299.732 60.7883 299.138 61.52 298.79 62.3739C298.442 63.2277 298.355 64.1654 298.54 65.0684C298.726 65.9715 299.175 66.7996 299.832 67.448C300.489 68.0964 301.323 68.5361 302.23 68.7115C303.137 68.887 304.076 68.7904 304.928 68.4339C305.78 68.0774 306.507 67.477 307.017 66.7085C307.527 65.94 307.798 65.0378 307.794 64.116C307.794 63.5014 307.672 62.893 307.435 62.3258C307.198 61.7586 306.85 61.244 306.413 60.8118C305.975 60.3795 305.455 60.0381 304.885 59.8075C304.314 59.5768 303.703 59.4614 303.087 59.4679Z" fill="white"/>
<path d="M321.982 70.1109C320.794 70.1109 319.633 69.7593 318.645 69.1006C317.657 68.4419 316.887 67.5056 316.432 66.4102C315.977 65.3147 315.858 64.1093 316.09 62.9465C316.322 61.7836 316.894 60.7154 317.734 59.877C318.575 59.0386 319.645 58.4676 320.81 58.2363C321.976 58.005 323.184 58.1237 324.282 58.5774C325.379 59.0312 326.318 59.7995 326.978 60.7854C327.638 61.7713 327.99 62.9303 327.99 64.116C327.99 64.9033 327.835 65.6828 327.533 66.4102C327.231 67.1375 326.788 67.7984 326.231 68.355C325.673 68.9117 325.01 69.3533 324.282 69.6546C323.553 69.9558 322.771 70.1109 321.982 70.1109ZM321.982 59.4679C321.057 59.4679 320.153 59.7419 319.384 60.2552C318.615 60.7684 318.016 61.4979 317.662 62.3512C317.309 63.2045 317.217 64.1432 317.399 65.0485C317.581 65.9538 318.028 66.7849 318.683 67.4366C319.338 68.0882 320.173 68.5312 321.081 68.7093C321.989 68.8874 322.929 68.7927 323.783 68.4372C324.637 68.0816 325.366 67.4812 325.877 66.7119C326.389 65.9427 326.66 65.0392 326.657 64.116C326.657 63.5042 326.536 62.8985 326.301 62.3334C326.066 61.7684 325.721 61.2553 325.287 60.8235C324.853 60.3916 324.337 60.0496 323.77 59.817C323.203 59.5844 322.596 59.4657 321.982 59.4679Z" fill="white"/>
<path d="M766.062 76.3047H262.201V77.6351H766.062V76.3047Z" fill="#E0E0E0"/>
<path d="M490.693 357.488H721.193V123.063L490.693 123.063V357.488Z" fill="#F0F0F0"/>
<path d="M293.145 199.32L445.331 199.32V123.062L293.145 123.062V199.32Z" fill="#F0F0F0"/>
<path d="M293.145 420.277H445.331V227.833L293.145 227.833V420.277Z" fill="#F0F0F0"/>
<path d="M706.758 92.5938H116.238C112.045 92.6067 108.028 94.2733 105.061 97.2301C102.095 100.187 100.421 104.194 100.404 108.378V501.676C100.417 505.861 102.09 509.871 105.057 512.828C108.024 515.786 112.044 517.451 116.238 517.46H706.758C710.95 517.447 714.965 515.78 717.929 512.823C720.892 509.865 722.563 505.858 722.576 501.676V108.378C722.559 104.197 720.887 100.192 717.924 97.2358C714.961 94.2795 710.948 92.611 706.758 92.5938Z" fill="#FF5811"/>
<path opacity="0.3" d="M706.758 92.5938H116.238C112.045 92.6067 108.028 94.2733 105.061 97.2301C102.095 100.187 100.421 104.194 100.404 108.378V501.676C100.417 505.861 102.09 509.871 105.057 512.828C108.024 515.786 112.044 517.451 116.238 517.46H706.758C710.95 517.447 714.965 515.78 717.929 512.823C720.892 509.865 722.563 505.858 722.576 501.676V108.378C722.559 104.197 720.887 100.192 717.924 97.2358C714.961 94.2795 710.948 92.611 706.758 92.5938Z" fill="white"/>
<path d="M217.991 118.938H134.409C132.881 118.938 131.416 118.333 130.336 117.255C129.255 116.177 128.648 114.715 128.648 113.19C128.648 111.665 129.255 110.203 130.336 109.125C131.416 108.047 132.881 107.441 134.409 107.441H217.991C219.519 107.441 220.984 108.047 222.064 109.125C223.145 110.203 223.752 111.665 223.752 113.19C223.752 114.715 223.145 116.177 222.064 117.255C220.984 118.333 219.519 118.938 217.991 118.938ZM134.409 109.084C133.318 109.084 132.271 109.516 131.499 110.286C130.728 111.057 130.294 112.101 130.294 113.19C130.294 114.279 130.728 115.323 131.499 116.093C132.271 116.863 133.318 117.296 134.409 117.296H217.991C219.082 117.296 220.129 116.863 220.901 116.093C221.672 115.323 222.106 114.279 222.106 113.19C222.106 112.101 221.672 111.057 220.901 110.286C220.129 109.516 219.082 109.084 217.991 109.084H134.409Z" fill="#FAFAFA"/>
<path d="M245.116 118.938H239.536C238.009 118.938 236.543 118.333 235.463 117.255C234.383 116.177 233.776 114.715 233.776 113.19C233.776 111.665 234.383 110.203 235.463 109.125C236.543 108.047 238.009 107.441 239.536 107.441H245.116C246.644 107.441 248.109 108.047 249.19 109.125C250.27 110.203 250.877 111.665 250.877 113.19C250.877 114.715 250.27 116.177 249.19 117.255C248.109 118.333 246.644 118.938 245.116 118.938ZM239.536 109.084C238.445 109.084 237.399 109.516 236.627 110.286C235.855 111.057 235.422 112.101 235.422 113.19C235.422 114.279 235.855 115.323 236.627 116.093C237.399 116.863 238.445 117.296 239.536 117.296H245.116C246.208 117.296 247.254 116.863 248.026 116.093C248.798 115.323 249.231 114.279 249.231 113.19C249.231 112.101 248.798 111.057 248.026 110.286C247.254 109.516 246.208 109.084 245.116 109.084H239.536Z" fill="#FAFAFA"/>
<path d="M268.44 118.938H262.86C261.332 118.938 259.867 118.333 258.786 117.255C257.706 116.177 257.099 114.715 257.099 113.19C257.099 111.665 257.706 110.203 258.786 109.125C259.867 108.047 261.332 107.441 262.86 107.441H268.44C269.967 107.441 271.433 108.047 272.513 109.125C273.593 110.203 274.2 111.665 274.2 113.19C274.2 114.715 273.593 116.177 272.513 117.255C271.433 118.333 269.967 118.938 268.44 118.938ZM262.86 109.084C261.768 109.084 260.722 109.516 259.95 110.286C259.178 111.057 258.745 112.101 258.745 113.19C258.745 114.279 259.178 115.323 259.95 116.093C260.722 116.863 261.768 117.296 262.86 117.296H268.44C269.531 117.296 270.578 116.863 271.349 116.093C272.121 115.323 272.554 114.279 272.554 113.19C272.554 112.101 272.121 111.057 271.349 110.286C270.578 109.516 269.531 109.084 268.44 109.084H262.86Z" fill="#FAFAFA"/>
<path d="M100.404 133.426V501.677C100.417 505.862 102.09 509.872 105.057 512.829C108.024 515.787 112.044 517.452 116.238 517.461H706.758C710.95 517.448 714.965 515.781 717.929 512.824C720.892 509.866 722.563 505.859 722.576 501.677V133.426H100.404Z" fill="#FF5811"/>
<path opacity="0.6" d="M100.404 133.426V501.677C100.417 505.862 102.09 509.872 105.057 512.829C108.024 515.787 112.044 517.452 116.238 517.461H706.758C710.95 517.448 714.965 515.781 717.929 512.824C720.892 509.866 722.563 505.859 722.576 501.677V133.426H100.404Z" fill="white"/>
<path d="M103.333 133.426V487.519C103.331 488.696 103.562 489.862 104.011 490.95C104.461 492.038 105.122 493.026 105.955 493.859C106.788 494.692 107.778 495.353 108.867 495.804C109.957 496.255 111.124 496.487 112.304 496.487H710.676C711.855 496.487 713.023 496.255 714.112 495.804C715.202 495.353 716.191 494.692 717.025 493.859C717.858 493.026 718.518 492.038 718.968 490.95C719.418 489.862 719.648 488.696 719.646 487.519V133.426H103.333Z" fill="#FAFAFA"/>
<path d="M131.677 154.266V219.963H554.688V154.266H131.677Z" fill="#FF5811"/>
<path opacity="0.9" d="M131.677 154.266V219.963H554.688V154.266H131.677Z" fill="white"/>
<path d="M553.042 239.017V413.444H133.323V239.017H553.042ZM554.688 237.375H131.677V415.087H554.688V237.375Z" fill="#FF5811"/>
<path opacity="0.9" d="M553.042 239.017V413.444H133.323V239.017H553.042ZM554.688 237.375H131.677V415.087H554.688V237.375Z" fill="white"/>
<path d="M602.125 601.998H589.714L586.406 573.305H598.833L602.125 601.998Z" fill="#FF8B7B"/>
<path d="M677.444 601.998H665.033L655.355 573.305H667.766L677.444 601.998Z" fill="#FF8B7B"/>
<path d="M663.321 600.551H678.464C678.711 600.553 678.95 600.638 679.141 600.793C679.333 600.949 679.465 601.164 679.518 601.405L681.97 612.426C682.027 612.693 682.023 612.97 681.958 613.236C681.893 613.501 681.769 613.749 681.595 613.96C681.421 614.172 681.202 614.341 680.953 614.457C680.705 614.572 680.434 614.63 680.16 614.626C675.222 614.544 671.732 614.249 665.593 614.249C661.824 614.249 654.071 614.643 648.837 614.643C643.603 614.643 642.945 609.502 645.068 609.042C654.647 606.956 658.235 604.115 661.313 601.323C661.864 600.826 662.579 600.551 663.321 600.551Z" fill="#263238"/>
<path d="M589.796 600.551H603.359C603.608 600.552 603.849 600.637 604.043 600.792C604.237 600.947 604.373 601.163 604.429 601.405L606.882 612.426C606.941 612.692 606.94 612.969 606.877 613.234C606.814 613.5 606.692 613.748 606.519 613.96C606.347 614.172 606.128 614.342 605.88 614.457C605.632 614.573 605.361 614.631 605.087 614.626C600.15 614.544 593.121 614.249 586.982 614.249C579.789 614.249 573.584 614.643 565.156 614.643C560.054 614.643 558.573 609.502 560.778 609.042C570.489 606.923 578.423 606.693 586.817 601.52C587.701 600.927 588.732 600.591 589.796 600.551Z" fill="#263238"/>
<path d="M609.252 294.55C608.017 304.142 606.668 313.783 605.236 323.375L600.94 352.544C600.276 356.092 598.85 359.454 596.759 362.399C594.869 365.048 592.582 367.391 589.978 369.347C585.387 372.686 580.284 375.26 574.868 376.967C569.892 378.592 564.788 379.795 559.61 380.564C557.058 380.942 554.524 381.205 551.972 381.418C549.421 381.632 546.952 381.763 544.236 381.763L543.397 372.5C547.825 371.482 552.516 370.299 556.91 368.854C561.264 367.502 565.52 365.856 569.65 363.927C573.41 362.229 576.898 359.987 580.003 357.275C581.218 356.175 582.256 354.895 583.081 353.481C583.704 352.372 584.09 351.148 584.217 349.884L584.694 342.985C584.859 340.522 585.089 338.058 585.303 335.611C585.731 330.716 586.219 325.838 586.768 320.977C587.838 311.221 589.105 301.547 590.619 291.84L609.252 294.55Z" fill="#FF8B7B"/>
<path d="M613.35 288.323C617.531 299.41 607.507 336.578 607.507 336.578L579.921 322.815C579.921 322.815 581.221 304.288 587.525 290.048C593.829 275.808 608.758 276.169 613.35 288.323Z" fill="#FF5811"/>
<path opacity="0.3" d="M613.35 288.323C617.531 299.41 607.507 336.578 607.507 336.578L579.921 322.815C579.921 322.815 581.221 304.288 587.525 290.048C593.829 275.808 608.758 276.169 613.35 288.323Z" fill="black"/>
<path d="M549.997 371.367L536.451 372.271L542.788 386.773C545.332 386.702 547.786 385.82 549.791 384.257C551.796 382.693 553.247 380.53 553.931 378.085L549.997 371.367Z" fill="#FF8B7B"/>
<path d="M524.221 377.969L531.744 388.119L542.771 386.772L536.451 372.27L524.221 377.969Z" fill="#FF8B7B"/>
<path d="M586.422 573.305L588.332 589.959L600.676 589.22L598.833 573.305H586.422Z" fill="#EA7063"/>
<path d="M667.782 573.305H655.355L661.84 592.538L673.395 589.943L667.782 573.305Z" fill="#EA7063"/>
<path d="M598.602 279.85C598.602 279.85 583.953 317.264 597.862 386.953H664.276C664.737 376.77 658.334 327.152 668.161 279.209C660.821 277.805 653.399 276.872 645.94 276.417C636.533 275.866 627.102 275.866 617.696 276.417C611.251 277.062 604.867 278.209 598.602 279.85Z" fill="#FF5811"/>
<path opacity="0.3" d="M598.602 279.85C598.602 279.85 583.953 317.264 597.862 386.953H664.276C664.737 376.77 658.334 327.152 668.161 279.209C660.821 277.805 653.399 276.872 645.94 276.417C636.533 275.866 627.102 275.866 617.696 276.417C611.251 277.062 604.867 278.209 598.602 279.85Z" fill="black"/>
<path d="M622.864 314.865C621.975 323.176 617.399 329.516 612.626 329.023C607.853 328.53 604.709 321.353 605.581 313.026C606.454 304.698 611.062 298.375 615.819 298.884C620.576 299.393 623.819 306.538 622.864 314.865Z" fill="#FF5811"/>
<path opacity="0.1" d="M622.864 314.865C621.975 323.176 617.399 329.516 612.626 329.023C607.853 328.53 604.709 321.353 605.581 313.026C606.454 304.698 611.062 298.375 615.819 298.884C620.576 299.393 623.819 306.538 622.864 314.865Z" fill="white"/>
<path d="M654.631 302.12C656.804 291.182 661.017 293.07 665.033 298.458C663.317 312.961 662.526 327.559 662.663 342.163C659.931 337.531 651.01 320.45 654.631 302.12Z" fill="#FF5811"/>
<path opacity="0.4" d="M654.631 302.12C656.804 291.182 661.017 293.07 665.033 298.458C663.317 312.961 662.526 327.559 662.663 342.163C659.931 337.531 651.01 320.45 654.631 302.12Z" fill="black"/>
<path d="M643.142 244.684C641.364 253.75 639.587 270.355 645.94 276.416C645.94 276.416 643.455 285.613 626.567 285.613C608.017 285.613 617.696 276.416 617.696 276.416C627.835 274.001 627.571 266.561 625.81 259.449L643.142 244.684Z" fill="#FF8B7B"/>
<path d="M636.064 250.711L625.81 259.449C626.247 261.062 626.539 262.711 626.682 264.376C630.55 263.818 635.867 259.58 636.278 255.54C636.51 253.931 636.438 252.293 636.064 250.711Z" fill="#EA7063"/>
<path d="M617.235 210.75C610.404 216.055 610.453 237.226 620.806 237.669C631.159 238.113 630.221 200.731 617.235 210.75Z" fill="#263238"/>
<path d="M645.776 233.976C642.171 245.736 640.657 252.798 633.135 257.479C621.843 264.525 608.445 255.525 608.445 242.927C608.445 231.594 614.354 214.266 627.209 212.312C630.037 211.878 632.928 212.172 635.61 213.165C638.292 214.158 640.676 215.818 642.535 217.988C644.394 220.157 645.667 222.764 646.235 225.562C646.802 228.36 646.644 231.256 645.776 233.976Z" fill="#FF8B7B"/>
<path d="M642.122 245.472C635.192 246.556 631.406 210.981 647.932 218.848C671.42 230.066 653.347 243.731 642.122 245.472Z" fill="#263238"/>
<path d="M642.78 222.117C634.237 221.378 621.876 221.756 619.193 211.211C615.457 196.528 633.052 194.36 637.398 205.594C647.866 202.162 676.687 220.097 657.495 229.196L642.78 222.117Z" fill="#263238"/>
<path d="M648.014 248.428C645.785 250.573 642.798 251.754 639.702 251.713C635.604 251.713 634.764 247.689 636.838 244.437C638.764 241.514 643.208 238.015 646.845 239.674C650.483 241.333 650.697 245.751 648.014 248.428Z" fill="#FF8B7B"/>
<path d="M597.862 386.953C597.862 386.953 549.438 453.915 550.804 491.691C552.203 530.995 583.46 585.228 583.46 585.228L603.655 580.613C603.655 580.613 583.558 533.294 584.496 494.697C585.517 452.618 641.529 419.408 641.529 386.953H597.862Z" fill="#263238"/>
<path d="M621.432 386.953C621.432 386.953 596.743 455.936 604.495 491.429C612.955 530.289 655.52 587.676 655.52 587.676L675.847 582.091C675.847 582.091 648.327 532.703 643.504 494.237C638.254 452.503 664.342 417.995 664.342 386.953H621.432Z" fill="#263238"/>
<path d="M652.425 590.485L681.657 585.065L680.193 577.23L647.422 582.765L652.425 590.485Z" fill="#FF5811"/>
<path opacity="0.4" d="M652.425 590.485L681.657 585.065L680.193 577.23L647.422 582.765L652.425 590.485Z" fill="white"/>
<path d="M579.246 586.986L608.824 584.079L608.034 576.031L574.917 578.873L579.246 586.986Z" fill="#FF5811"/>
<path opacity="0.4" d="M579.246 586.986L608.824 584.079L608.034 576.031L574.917 578.873L579.246 586.986Z" fill="white"/>
<path d="M626.831 232.94C626.6 233.909 625.892 234.583 625.185 234.418C624.477 234.254 624.214 233.351 624.46 232.382C624.707 231.413 625.399 230.739 626.024 230.904C626.65 231.068 627.11 232.004 626.831 232.94Z" fill="#263238"/>
<path d="M615.819 230.33C615.589 231.316 614.881 231.973 614.173 231.825C613.465 231.677 613.219 230.757 613.449 229.788C613.679 228.819 614.387 228.146 615.095 228.31C615.803 228.474 616.05 229.361 615.819 230.33Z" fill="#263238"/>
<path d="M619.193 231.66C617.34 234.349 615.125 236.769 612.609 238.854C613.161 239.488 613.844 239.995 614.611 240.338C615.379 240.681 616.213 240.853 617.054 240.841L619.193 231.66Z" fill="#FF5652"/>
<path d="M621.382 244.439C620.64 244.435 619.9 244.347 619.177 244.177C619.103 244.154 619.039 244.104 619 244.037C618.96 243.97 618.947 243.891 618.963 243.815C618.972 243.777 618.989 243.742 619.013 243.711C619.036 243.679 619.066 243.653 619.099 243.633C619.133 243.613 619.17 243.6 619.209 243.595C619.248 243.59 619.287 243.592 619.325 243.602C620.53 243.92 621.794 243.949 623.013 243.686C624.231 243.423 625.37 242.877 626.337 242.091C626.392 242.038 626.466 242.008 626.543 242.008C626.619 242.008 626.693 242.038 626.748 242.091C626.777 242.117 626.799 242.149 626.815 242.184C626.83 242.219 626.838 242.257 626.838 242.296C626.838 242.335 626.83 242.373 626.815 242.408C626.799 242.443 626.777 242.475 626.748 242.501C625.249 243.765 623.345 244.453 621.382 244.439Z" fill="#263238"/>
<path d="M631.126 230.246C631.012 230.247 630.901 230.212 630.806 230.148C630.712 230.083 630.64 229.991 630.6 229.885C630.322 229.202 629.887 228.595 629.329 228.112C628.771 227.63 628.107 227.286 627.39 227.109C627.314 227.097 627.241 227.07 627.176 227.03C627.11 226.989 627.053 226.936 627.009 226.873C626.964 226.81 626.933 226.739 626.916 226.664C626.9 226.589 626.899 226.511 626.913 226.436C626.923 226.358 626.948 226.284 626.988 226.216C627.028 226.149 627.081 226.091 627.144 226.045C627.207 225.998 627.279 225.966 627.355 225.948C627.432 225.931 627.511 225.929 627.588 225.943C628.499 226.152 629.347 226.577 630.057 227.183C630.768 227.79 631.321 228.559 631.67 229.425C631.731 229.567 631.735 229.727 631.679 229.871C631.624 230.015 631.514 230.132 631.373 230.197L631.126 230.246Z" fill="#263238"/>
<path d="M612.05 225.417C611.912 225.421 611.777 225.375 611.671 225.286C611.611 225.238 611.561 225.178 611.524 225.111C611.487 225.043 611.464 224.969 611.456 224.892C611.448 224.816 611.456 224.739 611.479 224.665C611.502 224.591 611.539 224.523 611.589 224.464C612.173 223.725 612.926 223.136 613.785 222.747C614.644 222.359 615.585 222.181 616.527 222.231C616.681 222.251 616.822 222.332 616.917 222.455C617.013 222.578 617.056 222.733 617.037 222.888C617.017 223.039 616.938 223.176 616.819 223.271C616.699 223.366 616.547 223.411 616.395 223.397C615.656 223.378 614.924 223.531 614.255 223.845C613.586 224.158 613 224.624 612.544 225.204C612.486 225.278 612.41 225.336 612.324 225.373C612.238 225.411 612.144 225.426 612.05 225.417Z" fill="#263238"/>
<path d="M450.152 462.964L405.598 468.258L405.792 469.889L450.346 464.595L450.152 462.964Z" fill="#FF5811"/>
<path d="M484.391 458.847L466.039 461.047L466.235 462.678L484.587 460.478L484.391 458.847Z" fill="#FF5811"/>
<path d="M738.601 353.801L343.441 400.82L351.768 470.508L746.929 423.489L738.601 353.801Z" fill="#FF5811"/>
<path d="M680.257 379.841L498.727 401.441L502.552 433.456L684.083 411.856L680.257 379.841Z" fill="#FF5811"/>
<path opacity="0.2" d="M680.257 379.841L498.727 401.441L502.552 433.456L684.083 411.856L680.257 379.841Z" fill="white"/>
<path d="M410.634 428.162C411.123 432.179 410.407 436.25 408.577 439.861C406.746 443.472 403.883 446.459 400.35 448.446C396.817 450.432 392.773 451.327 388.729 451.019C384.686 450.71 380.825 449.212 377.636 446.713C374.446 444.213 372.072 440.826 370.812 436.98C369.553 433.133 369.466 429 370.562 425.104C371.657 421.208 373.887 417.724 376.968 415.093C380.049 412.463 383.843 410.803 387.87 410.325C393.259 409.681 398.683 411.198 402.952 414.542C407.22 417.887 409.983 422.785 410.634 428.162Z" fill="#FF5811"/>
<path opacity="0.2" d="M410.634 428.162C411.123 432.179 410.407 436.25 408.577 439.861C406.746 443.472 403.883 446.459 400.35 448.446C396.817 450.432 392.773 451.327 388.729 451.019C384.686 450.71 380.825 449.212 377.636 446.713C374.446 444.213 372.072 440.826 370.812 436.98C369.553 433.133 369.466 429 370.562 425.104C371.657 421.208 373.887 417.724 376.968 415.093C380.049 412.463 383.843 410.803 387.87 410.325C393.259 409.681 398.683 411.198 402.952 414.542C407.22 417.887 409.983 422.785 410.634 428.162Z" fill="white"/>
<path d="M464.441 436.194C471.333 427.248 469.652 414.42 460.686 407.543C451.721 400.666 438.865 402.343 431.974 411.289C425.082 420.236 426.763 433.063 435.728 439.941C444.694 446.818 457.549 445.14 464.441 436.194Z" fill="#FF5811"/>
<path opacity="0.2" d="M464.441 436.194C471.333 427.248 469.652 414.42 460.686 407.543C451.721 400.666 438.865 402.343 431.974 411.289C425.082 420.236 426.763 433.063 435.728 439.941C444.694 446.818 457.549 445.14 464.441 436.194Z" fill="white"/>
<path d="M672.901 288.785C673.987 291.085 674.876 293.121 675.732 295.355C676.588 297.589 677.378 299.658 678.234 301.843C679.88 306.195 681.246 310.613 682.48 315.13C683.76 319.667 684.81 324.267 685.624 328.91L686.217 332.441L686.645 336.038C686.809 337.237 686.875 338.469 686.957 339.684L687.089 341.524V341.984V342.756C687.089 343.331 687.089 343.84 687.089 344.398C686.763 347.633 685.825 350.776 684.324 353.662C683.16 355.971 681.84 358.199 680.374 360.33C677.653 364.232 674.678 367.952 671.469 371.466C665.273 378.258 658.559 384.562 651.388 390.321L644.804 383.751C650.17 376.902 655.536 369.84 660.392 362.793C662.775 359.377 664.973 355.835 666.976 352.183C667.89 350.55 668.688 348.854 669.362 347.108C669.832 345.98 670.11 344.781 670.185 343.561V343.183L669.955 341.705C669.807 340.719 669.675 339.734 669.444 338.732L668.852 335.726L668.144 332.704C667.14 328.68 666.004 324.64 664.704 320.616C663.404 316.592 661.988 312.568 660.49 308.56C659.75 306.556 658.993 304.569 658.203 302.582L655.849 296.8L672.901 288.785Z" fill="#FF8B7B"/>
<path d="M670.761 280.031C681.839 284.285 689.789 324.722 689.789 324.722L663.453 335.102C663.453 335.102 654.614 314.769 651.635 299.757C648.508 283.94 658.186 275.203 670.761 280.031Z" fill="#FF5811"/>
<path opacity="0.3" d="M670.761 280.031C681.839 284.285 689.789 324.722 689.789 324.722L663.453 335.102C663.453 335.102 654.614 314.769 651.635 299.757C648.508 283.94 658.186 275.203 670.761 280.031Z" fill="black"/>
<path d="M659.272 602.718C658.424 602.79 657.576 602.57 656.869 602.094C656.649 601.902 656.479 601.66 656.373 601.389C656.267 601.117 656.228 600.824 656.26 600.534C656.264 600.364 656.314 600.198 656.403 600.054C656.493 599.91 656.62 599.792 656.771 599.713C658.153 599.006 662.153 601.47 662.597 601.749C662.647 601.779 662.687 601.823 662.71 601.876C662.734 601.929 662.74 601.988 662.729 602.045C662.723 602.101 662.699 602.154 662.66 602.195C662.622 602.237 662.571 602.265 662.515 602.275C661.455 602.546 660.367 602.695 659.272 602.718ZM657.429 600.156C657.293 600.153 657.158 600.181 657.034 600.238C656.952 600.238 656.869 600.353 656.853 600.583C656.825 600.777 656.846 600.976 656.915 601.159C656.984 601.343 657.099 601.506 657.248 601.634C658.634 602.274 660.214 602.356 661.659 601.864C660.371 601.03 658.935 600.451 657.429 600.156Z" fill="#FF5811"/>
<path d="M662.449 602.293H662.301C661.017 601.587 658.532 598.877 658.795 597.498C658.837 597.28 658.954 597.084 659.125 596.943C659.296 596.802 659.511 596.725 659.733 596.726C659.957 596.7 660.183 596.72 660.398 596.785C660.613 596.85 660.813 596.958 660.984 597.103C662.433 598.269 662.729 601.85 662.745 602.031C662.744 602.081 662.732 602.131 662.709 602.177C662.686 602.222 662.654 602.262 662.614 602.293C662.56 602.308 662.503 602.308 662.449 602.293ZM660.03 597.268H659.881C659.503 597.268 659.47 597.498 659.454 597.563C659.305 598.384 660.885 600.437 662.169 601.407C662.082 599.997 661.572 598.646 660.704 597.53C660.518 597.365 660.279 597.271 660.03 597.268Z" fill="#FF5811"/>
<path d="M584.645 602.718C583.579 602.815 582.511 602.548 581.616 601.963C581.416 601.786 581.262 601.564 581.168 601.315C581.073 601.066 581.041 600.798 581.073 600.534C581.077 600.374 581.124 600.219 581.207 600.083C581.291 599.948 581.41 599.837 581.55 599.762C583.065 598.924 588.052 601.404 588.628 601.733C588.679 601.762 588.721 601.805 588.747 601.858C588.774 601.91 588.784 601.97 588.776 602.028C588.77 602.089 588.744 602.146 588.702 602.19C588.661 602.234 588.606 602.264 588.546 602.275C587.262 602.545 585.956 602.694 584.645 602.718ZM582.39 600.156C582.201 600.143 582.013 600.183 581.847 600.271C581.789 600.3 581.74 600.345 581.705 600.4C581.67 600.455 581.651 600.518 581.649 600.583C581.632 600.756 581.656 600.931 581.719 601.094C581.782 601.256 581.882 601.402 582.011 601.519C582.768 602.192 584.826 602.324 587.558 601.864C585.946 601.004 584.198 600.426 582.39 600.156Z" fill="#FF5811"/>
<path d="M588.48 602.293H588.365C586.867 601.619 583.904 599.008 584.118 597.546C584.118 597.217 584.414 596.807 585.221 596.725C585.516 596.686 585.816 596.711 586.1 596.799C586.384 596.887 586.646 597.035 586.867 597.234C588.513 598.515 588.776 601.866 588.793 601.997C588.801 602.047 588.794 602.099 588.774 602.145C588.754 602.192 588.72 602.232 588.677 602.26C588.648 602.279 588.616 602.291 588.582 602.297C588.548 602.303 588.513 602.301 588.48 602.293ZM585.451 597.267H585.287C584.743 597.267 584.711 597.53 584.711 597.612C584.562 598.449 586.587 600.552 588.118 601.471C587.975 600.058 587.401 598.722 586.472 597.645C586.184 597.407 585.824 597.274 585.451 597.267Z" fill="#FF5811"/>
<path d="M647.685 382.043L635.505 385.328L645.595 397.531C645.595 397.531 655.355 392.489 653.248 387.02L647.685 382.043Z" fill="#FF8B7B"/>
<path d="M626.682 395.428L635.505 404.987L645.595 397.481L635.505 385.277L626.682 395.428Z" fill="#FF8B7B"/>
<path d="M233.117 250.631C230.368 253.424 227.422 256.528 224.706 259.616C221.99 262.703 219.275 265.873 216.723 269.125C214.172 272.377 211.785 275.695 209.432 278.98L207.786 281.526L206.14 284.104C205.597 284.975 205.119 285.845 204.642 286.732L203.342 289.114C202.806 290.477 202.506 291.921 202.453 293.384C202.321 295.265 202.321 297.153 202.453 299.034C202.74 303.096 203.262 307.137 204.017 311.139C204.724 315.228 205.663 319.351 206.601 323.424C207.539 327.498 208.625 331.636 209.695 335.693L203.687 338.058C200.019 330.088 196.96 321.852 194.536 313.422C193.283 309.112 192.326 304.722 191.672 300.282C191.331 297.905 191.16 295.506 191.162 293.105C191.118 290.277 191.598 287.465 192.577 284.811C192.939 283.891 193.153 283.529 193.4 282.987L194.141 281.444C194.635 280.409 195.145 279.39 195.688 278.405L197.334 275.416L198.98 272.525C201.277 268.691 203.783 264.984 206.486 261.422C209.152 257.875 211.917 254.409 214.831 251.075C217.744 247.741 220.69 244.505 224.064 241.352L233.117 250.631Z" fill="#B55B52"/>
<path d="M233.808 231.054C225.003 231.448 216.625 246.05 216.625 246.05L227.044 267.27C227.044 267.27 244.046 256.66 244.26 243.767C244.392 235.39 242.483 230.66 233.808 231.054Z" fill="#FF5811"/>
<path opacity="0.5" d="M233.808 231.054C225.003 231.448 216.625 246.05 216.625 246.05L227.044 267.27C227.044 267.27 244.046 256.66 244.26 243.767C244.392 235.39 242.483 230.66 233.808 231.054Z" fill="black"/>
<path d="M208.033 333.211L218.764 336.397L211.621 343.608C211.621 343.608 203.901 341.226 202.815 335.987L208.033 333.211Z" fill="#B55B52"/>
<path d="M225.25 344.627L223.455 351.525L211.621 343.609L218.764 336.398L225.25 344.627Z" fill="#B55B52"/>
<path d="M471.249 273.23L210.965 279.441L213.312 377.368L473.596 371.157L471.249 273.23Z" fill="#FF5811"/>
<path opacity="0.6" d="M471.249 273.23L210.965 279.441L213.312 377.368L473.596 371.157L471.249 273.23Z" fill="white"/>
<path d="M458.167 281.344L361.133 283.66L362.007 320.161L459.042 317.845L458.167 281.344Z" fill="#FF5811"/>
<path opacity="0.7" d="M458.167 281.344L361.133 283.66L362.007 320.161L459.042 317.845L458.167 281.344Z" fill="white"/>
<path d="M406.156 326.786L309.121 329.102L309.996 365.603L407.03 363.287L406.156 326.786Z" fill="#FF5811"/>
<path opacity="0.7" d="M406.156 326.786L309.121 329.102L309.996 365.603L407.03 363.287L406.156 326.786Z" fill="white"/>
<path d="M294.627 198.697C294.462 199.699 294.857 200.619 295.515 200.734C296.174 200.848 296.849 200.159 297.03 199.091C297.211 198.023 296.783 197.169 296.124 197.038C295.466 196.907 294.709 197.679 294.627 198.697Z" fill="#263238"/>
<path d="M295.746 197.105L298.281 196.875C298.281 196.875 296.733 198.452 295.746 197.105Z" fill="#263238"/>
<path d="M295.236 199.832C295.76 202.307 296.618 204.699 297.787 206.944C297.203 207.211 296.569 207.349 295.927 207.349C295.285 207.349 294.651 207.211 294.067 206.944L295.236 199.832Z" fill="#A02724"/>
<path d="M297.013 192.26C296.921 192.277 296.826 192.277 296.734 192.26C296.068 191.872 295.322 191.644 294.553 191.596C293.784 191.547 293.015 191.679 292.306 191.98C292.236 192.017 292.159 192.039 292.08 192.046C292.002 192.052 291.922 192.043 291.847 192.019C291.772 191.994 291.702 191.955 291.643 191.903C291.583 191.851 291.534 191.788 291.499 191.718C291.46 191.649 291.435 191.573 291.426 191.495C291.417 191.417 291.424 191.337 291.447 191.262C291.47 191.186 291.509 191.116 291.56 191.056C291.612 190.996 291.675 190.947 291.746 190.913C292.63 190.529 293.59 190.354 294.553 190.402C295.515 190.451 296.453 190.721 297.293 191.192C297.435 191.269 297.54 191.398 297.586 191.552C297.633 191.706 297.616 191.872 297.54 192.013C297.481 192.096 297.401 192.162 297.309 192.205C297.217 192.249 297.115 192.267 297.013 192.26Z" fill="#263238"/>
<path d="M262.382 206.977C262.629 214.647 261.839 228.476 255.798 232.402C255.798 232.402 256.589 240.285 270.431 242.962C285.64 245.902 278.941 236.869 278.941 236.869C270.958 233.288 272.192 227.228 274.595 221.759L262.382 206.977Z" fill="#B55B52"/>
<path d="M303.828 251.73C304.782 255.557 305.984 259.762 307.301 263.687C308.617 267.613 310.099 271.588 311.761 275.365C313.384 279.1 315.276 282.711 317.423 286.172C319.389 289.46 321.774 292.48 324.517 295.157C325.791 296.348 327.193 297.394 328.698 298.277C329.399 298.694 330.131 299.056 330.887 299.361L331.578 299.624C331.761 299.677 331.948 299.71 332.138 299.723C333.458 299.752 334.766 299.47 335.957 298.901C337.629 298.16 339.223 297.252 340.713 296.191C347.41 291.17 353.488 285.376 358.819 278.929L364.185 282.493C363.049 284.579 361.881 286.452 360.646 288.373C359.412 290.295 358.095 292.134 356.696 293.958C353.896 297.734 350.713 301.213 347.199 304.338C345.273 306.038 343.164 307.52 340.911 308.756C338.217 310.29 335.189 311.146 332.089 311.252C331.178 311.264 330.268 311.187 329.373 311.023C328.533 310.864 327.708 310.638 326.904 310.349C325.602 309.899 324.336 309.35 323.118 308.707C320.757 307.477 318.548 305.978 316.534 304.239C308.716 297.456 303.943 289.08 300.075 280.703C298.131 276.524 296.432 272.236 294.989 267.859C293.49 263.487 292.237 259.034 291.236 254.523L303.828 251.73Z" fill="#B55B52"/>
<path d="M358.095 279.555L361.831 272.723L372.184 275.466C372.184 275.466 365.979 284.91 360.663 284.926L358.095 279.555Z" fill="#B55B52"/>
<path d="M370.275 270.258L378.159 275.464H372.201L361.815 272.721L370.275 270.258Z" fill="#B55B52"/>
<path d="M229.282 601.113L241.989 602.049L245.758 572.928L233.051 571.992L229.282 601.113Z" fill="#B55B52"/>
<path d="M129.307 538.516L138.079 547.911L161.897 530.896L153.107 521.484L129.307 538.516Z" fill="#B55B52"/>
<path d="M141.931 546.45L134.59 533.968C134.474 533.748 134.28 533.579 134.045 533.494C133.811 533.409 133.553 533.414 133.323 533.508L122.887 537.713C122.626 537.832 122.393 538.006 122.204 538.223C122.015 538.44 121.875 538.694 121.792 538.969C121.71 539.244 121.687 539.534 121.725 539.818C121.764 540.103 121.862 540.376 122.015 540.62C124.632 544.923 126.113 546.877 129.339 552.363C131.315 555.747 133.882 560.871 136.615 565.503C139.347 570.134 143.988 567.786 143.198 565.601C139.907 555.845 141.552 552.987 142.277 548.668C142.415 547.911 142.293 547.13 141.931 546.45Z" fill="#263238"/>
<path d="M242.779 600.242H228.508C228.262 600.239 228.022 600.322 227.832 600.479C227.642 600.635 227.515 600.854 227.472 601.096L225.496 612.347C225.459 612.628 225.482 612.913 225.564 613.185C225.646 613.456 225.785 613.706 225.972 613.919C226.159 614.132 226.39 614.303 226.648 614.42C226.907 614.537 227.188 614.597 227.472 614.597C232.409 614.515 234.862 614.219 241.149 614.219C245.017 614.219 253 614.63 258.333 614.63C263.666 614.63 264.078 609.358 261.872 608.882C251.996 606.746 248.128 603.79 244.836 600.981C244.255 600.508 243.529 600.248 242.779 600.242Z" fill="#263238"/>
<path d="M245.758 572.928L243.668 589.122L231.109 587.02L233.051 572.008L245.758 572.928Z" fill="#9E4541"/>
<path d="M153.107 521.504L161.897 530.899L152.037 537.945L142.935 528.747L153.107 521.504Z" fill="#9E4541"/>
<path d="M230.237 308.279L281.261 318.133C305.276 247.393 299.565 245.11 299.565 245.11C295.837 243.094 291.989 241.305 288.043 239.756L287.352 239.493C284.06 238.311 283.401 238.13 279.039 236.865C271.534 235.092 264.539 233.581 255.897 232.398L254.251 232.168C252.688 231.971 251.14 231.807 249.643 231.659C248.622 231.544 247.618 231.478 246.647 231.413L243.355 231.232C237.792 230.969 233.808 231.051 233.808 231.051C236.623 275.2 234.5 287.88 230.237 308.279Z" fill="#FF5811"/>
<path opacity="0.5" d="M230.237 308.279L281.261 318.133C305.276 247.393 299.565 245.11 299.565 245.11C295.837 243.094 291.989 241.305 288.043 239.756L287.352 239.493C284.06 238.311 283.401 238.13 279.039 236.865C271.534 235.092 264.539 233.581 255.897 232.398L254.251 232.168C252.688 231.971 251.14 231.807 249.643 231.659C248.622 231.544 247.618 231.478 246.647 231.413L243.355 231.232C237.792 230.969 233.808 231.051 233.808 231.051C236.623 275.2 234.5 287.88 230.237 308.279Z" fill="black"/>
<path d="M289.211 266.629C287.749 274.028 288.266 281.682 290.709 288.818C294.939 274.989 297.293 265.529 298.643 259.057C294.742 258.548 290.578 259.813 289.211 266.629Z" fill="#FF5811"/>
<path opacity="0.6" d="M289.211 266.629C287.749 274.028 288.266 281.682 290.709 288.818C294.939 274.989 297.293 265.529 298.643 259.057C294.742 258.548 290.578 259.813 289.211 266.629Z" fill="black"/>
<path d="M299.087 244.865C307.597 250.417 313.012 262.735 314.444 269.781L294.692 285.828C294.692 285.828 283.944 261.881 287.467 255.771C291.17 249.365 295.878 242.796 299.087 244.865Z" fill="#FF5811"/>
<path opacity="0.5" d="M299.087 244.865C307.597 250.417 313.012 262.735 314.444 269.781L294.692 285.828C294.692 285.828 283.944 261.881 287.467 255.771C291.17 249.365 295.878 242.796 299.087 244.865Z" fill="black"/>
<path d="M261.131 189.385C259.864 201.868 259.041 207.124 264.275 214.662C272.143 226.012 287.845 225.305 292.849 213.562C297.359 203.001 298.692 184.359 287.335 177.1C284.919 175.461 282.116 174.478 279.203 174.248C276.291 174.018 273.368 174.549 270.723 175.789C268.079 177.029 265.804 178.934 264.122 181.319C262.44 183.703 261.409 186.483 261.131 189.385Z" fill="#B55B52"/>
<path d="M261.312 163.959C253.626 169.642 258.547 171.005 255.272 176.738C251.766 182.88 248.079 175.883 241.1 182.634C236.574 187.019 244.392 191.667 238.68 199.387C234.302 205.382 229.562 200.192 231.405 212.526C232.673 220.919 227.521 219.868 224.048 224.615C219.11 231.431 223.538 236.292 236.244 238.855C248.951 241.417 239.898 254.162 251.848 254.54C264.884 254.967 261.856 238.017 268.209 242.14C274.562 246.262 286.134 242.501 285.426 232.367C284.8 223.087 274.447 223.399 282.825 217.043C289.409 212.116 291.401 212.116 286.759 201.538C282.825 192.538 297.277 193.917 297.013 186.116C296.519 172.04 286.759 176.261 283.681 169.051C281.689 164.271 271.155 156.618 261.312 163.959Z" fill="#263238"/>
<path d="M285.442 195.888C285.507 198.22 286.295 200.476 287.697 202.343C289.639 204.987 291.927 204.297 292.487 201.866C292.997 199.682 292.602 195.674 290.117 193.835C287.631 191.995 285.459 193.276 285.442 195.888Z" fill="#B55B52"/>
<path d="M267.748 315.54C267.748 315.54 242.927 398.5 230.796 446.278C217.991 496.701 156.926 537.795 156.926 537.795L143.906 524.852C143.906 524.852 184.726 490.476 197.12 443.42C222.287 347.929 210.173 327.694 230.237 308.297L267.748 315.54Z" fill="#FF5811"/>
<path opacity="0.8" d="M267.748 315.54C267.748 315.54 242.927 398.5 230.796 446.278C217.991 496.701 156.926 537.795 156.926 537.795L143.906 524.852C143.906 524.852 184.726 490.476 197.12 443.42C222.287 347.929 210.173 327.694 230.237 308.297L267.748 315.54Z" fill="white"/>
<path d="M158.061 539.669L141.783 523.523L146.211 518.629L166.011 535.447L158.061 539.669Z" fill="#FF5811"/>
<path d="M256.095 333.214C239.8 345.746 238.713 393.508 239.092 415.09C247.322 384.918 257.198 351.363 262.893 331.95C261.329 330.636 259.09 330.899 256.095 333.214Z" fill="#FF5811"/>
<path opacity="0.6" d="M256.095 333.214C239.8 345.746 238.713 393.508 239.092 415.09C247.322 384.918 257.198 351.363 262.893 331.95C261.329 330.636 259.09 330.899 256.095 333.214Z" fill="white"/>
<path d="M144.565 553.219C144.412 553.244 144.256 553.244 144.104 553.219C142.556 552.742 141.454 549.934 140.927 548.291C140.911 548.235 140.912 548.176 140.929 548.12C140.947 548.065 140.98 548.016 141.026 547.979C141.074 547.944 141.131 547.926 141.19 547.926C141.249 547.926 141.307 547.944 141.355 547.979C141.832 548.209 145.947 550.361 146.112 551.987C146.127 552.164 146.096 552.342 146.021 552.504C145.946 552.665 145.829 552.804 145.684 552.907C145.357 553.134 144.962 553.244 144.565 553.219ZM141.75 548.735C142.507 550.903 143.396 552.315 144.268 552.578C144.452 552.624 144.644 552.624 144.828 552.578C145.012 552.532 145.181 552.442 145.322 552.315C145.387 552.27 145.439 552.208 145.471 552.136C145.503 552.063 145.514 551.983 145.503 551.905C145.42 551.051 143.363 549.638 141.75 548.735Z" fill="#FF5811"/>
<path d="M280.439 318.134C280.439 318.134 283.615 418.537 276.521 456.313C269.131 495.633 246.614 585.097 246.614 585.097L228.278 582.781C228.278 582.781 239.8 492.447 244.738 453.34C250.087 410.735 243.092 310.957 243.092 310.957L280.439 318.134Z" fill="#FF5811"/>
<path opacity="0.8" d="M280.439 318.134C280.439 318.134 283.615 418.537 276.521 456.313C269.131 495.633 246.614 585.097 246.614 585.097L228.278 582.781C228.278 582.781 239.8 492.447 244.738 453.34C250.087 410.735 243.092 310.957 243.092 310.957L280.439 318.134Z" fill="white"/>
<path d="M250.498 586.164L224.377 582.797L224.69 576.605L253.116 577.837L250.498 586.164Z" fill="#FF5811"/>
<path d="M144.976 549.26C143.62 549.259 142.282 548.956 141.059 548.373C141.016 548.343 140.981 548.303 140.956 548.258C140.93 548.213 140.915 548.162 140.911 548.11C140.916 548.057 140.933 548.005 140.962 547.959C140.99 547.914 141.029 547.876 141.075 547.848C141.207 547.848 144.367 545.992 146.013 546.55C146.239 546.621 146.448 546.74 146.624 546.899C146.8 547.057 146.94 547.252 147.033 547.47C147.155 547.68 147.201 547.925 147.162 548.165C147.123 548.404 147.002 548.623 146.82 548.784C146.276 549.144 145.627 549.312 144.976 549.26ZM141.882 548.094C143.314 548.669 145.799 548.915 146.457 548.324C146.573 548.324 146.671 548.078 146.457 547.716C146.404 547.574 146.318 547.447 146.207 547.344C146.095 547.242 145.961 547.167 145.815 547.125C144.436 547.039 143.063 547.377 141.882 548.094Z" fill="#FF5811"/>
<path d="M247.503 602.49C246.164 602.461 244.83 602.307 243.52 602.03C243.462 602.01 243.411 601.972 243.376 601.922C243.34 601.872 243.321 601.812 243.321 601.751C243.321 601.689 243.34 601.629 243.376 601.579C243.411 601.529 243.462 601.492 243.52 601.471C244.096 601.176 249.248 598.581 250.778 599.451C250.92 599.531 251.04 599.645 251.126 599.782C251.212 599.92 251.263 600.077 251.272 600.24C251.304 600.513 251.267 600.791 251.163 601.046C251.06 601.301 250.893 601.527 250.68 601.701C249.747 602.329 248.622 602.609 247.503 602.49ZM244.524 601.603C247.322 602.063 249.462 601.948 250.202 601.258C250.34 601.14 250.447 600.99 250.513 600.821C250.58 600.652 250.603 600.469 250.581 600.289C250.582 600.225 250.566 600.162 250.534 600.107C250.502 600.052 250.456 600.007 250.4 599.977C249.56 599.468 246.647 600.568 244.524 601.57V601.603Z" fill="#FF5811"/>
<path d="M243.602 601.997C243.548 602.012 243.491 602.012 243.437 601.997C243.393 601.966 243.358 601.924 243.334 601.875C243.311 601.826 243.301 601.772 243.306 601.718C243.306 601.488 243.981 596.002 247.009 596.331C247.832 596.331 248.079 596.823 248.128 597.152C248.359 598.581 245.281 601.34 243.734 602.079L243.602 601.997ZM246.779 596.856C244.935 596.856 244.211 599.878 243.997 601.159C245.643 600.223 247.667 598.055 247.536 597.201C247.536 597.201 247.536 596.922 246.943 596.873L246.779 596.856Z" fill="#FF5811"/>
<path d="M229.973 305.21L226.928 309.283C226.681 309.611 227.044 310.038 227.636 310.153L281.08 320.484C281.541 320.583 281.969 320.484 282.035 320.139L283.253 315.705C283.253 315.409 282.973 315.064 282.479 314.966L230.862 304.996C230.709 304.946 230.544 304.94 230.388 304.977C230.231 305.015 230.087 305.095 229.973 305.21Z" fill="#FF5811"/>
<path d="M235.948 312.238L234.566 311.975C234.302 311.975 234.105 311.745 234.154 311.565L235.8 305.816C235.8 305.652 236.113 305.553 236.376 305.603L237.759 305.865C238.039 305.865 238.22 306.112 238.17 306.276L236.524 312.024C236.491 312.205 236.228 312.287 235.948 312.238Z" fill="#FF5811"/>
<path opacity="0.8" d="M235.948 312.238L234.566 311.975C234.302 311.975 234.105 311.745 234.154 311.565L235.8 305.816C235.8 305.652 236.113 305.553 236.376 305.603L237.759 305.865C238.039 305.865 238.22 306.112 238.17 306.276L236.524 312.024C236.491 312.205 236.228 312.287 235.948 312.238Z" fill="white"/>
<path d="M270.859 319.071L269.476 318.809C269.197 318.809 269.016 318.562 269.065 318.398L270.711 312.649C270.711 312.469 271.024 312.387 271.303 312.436L272.686 312.699C272.966 312.699 273.147 312.929 273.098 313.109L271.452 318.858C271.402 319.022 271.139 319.121 270.859 319.071Z" fill="#FF5811"/>
<path opacity="0.8" d="M270.859 319.071L269.476 318.809C269.197 318.809 269.016 318.562 269.065 318.398L270.711 312.649C270.711 312.469 271.024 312.387 271.303 312.436L272.686 312.699C272.966 312.699 273.147 312.929 273.098 313.109L271.452 318.858C271.402 319.022 271.139 319.121 270.859 319.071Z" fill="white"/>
<circle cx="468" cy="229" r="58" fill="#FEFEFE"/>
<path d="M501.339 223.341H498.6V223.2H468V236.8H487.215C484.412 244.717 476.879 250.4 468 250.4C456.734 250.4 447.6 241.266 447.6 230C447.6 218.734 456.734 209.6 468 209.6C473.2 209.6 477.931 211.562 481.534 214.766L491.151 205.149C485.078 199.49 476.956 196 468 196C449.224 196 434 211.224 434 230C434 248.777 449.224 264 468 264C486.777 264 502 248.777 502 230C502 227.72 501.765 225.495 501.339 223.341Z" fill="#FFC107"/>
<path d="M437.92 214.174L449.091 222.366C452.114 214.883 459.434 209.6 468 209.6C473.2 209.6 477.931 211.561 481.534 214.766L491.151 205.149C485.078 199.49 476.956 196 468 196C454.941 196 443.615 203.373 437.92 214.174Z" fill="#FF3D00"/>
<path d="M468 264.002C476.782 264.002 484.762 260.641 490.795 255.176L480.272 246.271C476.744 248.955 472.433 250.406 468 250.402C459.157 250.402 451.648 244.764 448.819 236.895L437.732 245.437C443.359 256.447 454.786 264.002 468 264.002Z" fill="#4CAF50"/>
<path d="M501.339 223.34H498.6V223.199H468V236.799H487.215C485.874 240.567 483.459 243.859 480.267 246.269L480.272 246.266L490.795 255.17C490.051 255.847 502 246.998 502 229.999C502 227.719 501.765 225.494 501.339 223.34Z" fill="#1976D2"/>
<circle cx="747" cy="62" r="43" fill="white"/>
<g clip-path="url(#clip0_2_3641)">
<path d="M770.386 62.7532C770.386 49.8375 759.916 39.3672 747 39.3672C734.084 39.3672 723.614 49.8373 723.614 62.7532C723.614 74.4257 732.166 84.1007 743.346 85.855V69.5132H737.408V62.7532H743.346V57.6009C743.346 51.7398 746.837 48.5023 752.179 48.5023C754.738 48.5023 757.414 48.9591 757.414 48.9591V54.7142H754.465C751.56 54.7142 750.654 56.517 750.654 58.3665V62.7532H757.14L756.103 69.5132H750.654V85.855C761.834 84.1007 770.386 74.4259 770.386 62.7532Z" fill="#1877F2"/>
<path d="M756.103 69.5147L757.14 62.7547H750.654V58.368C750.654 56.5183 751.56 54.7158 754.465 54.7158H757.414V48.9607C757.414 48.9607 754.738 48.5039 752.179 48.5039C746.837 48.5039 743.346 51.7414 743.346 57.6025V62.7547H737.408V69.5147H743.346V85.8566C744.555 86.046 745.776 86.141 747 86.1407C748.224 86.1411 749.445 86.0461 750.654 85.8566V69.5147H756.103Z" fill="white"/>
</g>
<circle cx="419" cy="43" r="43" fill="white"/>
<circle cx="419" cy="43.7531" r="29.4211" fill="#6FDA44"/>
<path d="M426.827 38.2731C425.326 38.2996 423.879 38.8433 422.73 39.8129C421.581 40.7825 420.8 42.1187 420.519 43.597C419.109 41.401 418.004 39.0225 417.236 36.5273H413.981V45.1841C413.981 46.003 413.656 46.7883 413.078 47.3673C412.5 47.9464 411.716 48.2717 410.899 48.2717C410.081 48.2717 409.297 47.9464 408.719 47.3673C408.141 46.7883 407.817 46.003 407.817 45.1841V36.5273L404.547 36.5995V45.2562C404.557 46.9399 405.234 48.5508 406.429 49.7346C407.624 50.9184 409.24 51.578 410.92 51.5684C412.601 51.5589 414.209 50.8809 415.391 49.6836C416.572 48.4863 417.231 46.8678 417.221 45.1841V43.7413C417.912 45.0991 418.707 46.4014 419.598 47.6368L417.61 57.1737H420.951L422.392 50.2339C423.726 51.0932 425.284 51.5398 426.871 51.518C428.616 51.518 430.29 50.8233 431.525 49.5867C432.759 48.3502 433.452 46.6731 433.452 44.9244C433.452 43.1757 432.759 41.4986 431.525 40.262C430.29 39.0255 428.616 38.3308 426.871 38.3308L426.827 38.2731ZM426.827 48.1274C425.474 48.0836 424.177 47.5741 423.155 46.6846L423.486 45.3717V45.2995C423.717 43.8567 424.437 41.5483 426.871 41.5483C427.297 41.5445 427.721 41.6251 428.116 41.7857C428.512 41.9462 428.872 42.1834 429.176 42.4837C429.479 42.784 429.721 43.1415 429.886 43.5356C430.052 43.9296 430.138 44.3526 430.14 44.7801C430.109 45.6457 429.757 46.4687 429.152 47.0878C428.547 47.7069 427.734 48.0776 426.871 48.1274H426.827Z" fill="black"/>
<circle cx="87" cy="135" r="45" fill="#FEFEFE"/>
<path d="M97.8742 115.602H75.7933C70.4131 115.602 66.0517 119.672 66.0517 124.694V145.303C66.0517 150.324 70.4131 154.395 75.7933 154.395H97.8742C103.254 154.395 107.616 150.324 107.616 145.303V124.694C107.616 119.672 103.254 115.602 97.8742 115.602Z" fill="white"/>
<path d="M97.8742 115.602H75.7933C70.4131 115.602 66.0517 119.672 66.0517 124.694V145.303C66.0517 150.324 70.4131 154.395 75.7933 154.395H97.8742C103.254 154.395 107.616 150.324 107.616 145.303V124.694C107.616 119.672 103.254 115.602 97.8742 115.602Z" fill="#0A66C2"/>
<path d="M96.0419 148.588H100.794C100.966 148.588 101.132 148.524 101.253 148.411C101.375 148.297 101.444 148.143 101.444 147.982L101.446 138.611C101.446 133.713 100.315 129.948 94.1824 129.948C91.8511 129.867 89.6526 130.989 88.4662 132.862C88.4604 132.871 88.4516 132.878 88.4411 132.882C88.4306 132.886 88.419 132.886 88.408 132.884C88.3971 132.881 88.3874 132.875 88.3804 132.866C88.3735 132.858 88.3697 132.848 88.3696 132.837V131.006C88.3696 130.845 88.3012 130.691 88.1794 130.578C88.0576 130.464 87.8924 130.4 87.7202 130.4H83.2103C83.0381 130.4 82.8729 130.464 82.7511 130.578C82.6293 130.691 82.5609 130.845 82.5609 131.006V147.981C82.5609 148.142 82.6293 148.296 82.7511 148.41C82.8729 148.523 83.0381 148.587 83.2103 148.587H87.9623C88.1345 148.587 88.2997 148.523 88.4215 148.41C88.5433 148.296 88.6117 148.142 88.6117 147.981V139.59C88.6117 137.218 89.0939 134.92 92.2455 134.92C95.3522 134.92 95.3925 137.635 95.3925 139.744V147.982C95.3925 148.143 95.4609 148.297 95.5827 148.411C95.7045 148.524 95.8697 148.588 96.0419 148.588ZM72.2213 124.637C72.2213 126.435 73.8071 127.914 75.7335 127.914C77.6594 127.914 79.2442 126.434 79.2442 124.636C79.2439 122.839 77.6589 121.359 75.7329 121.359C73.8063 121.359 72.2213 122.839 72.2213 124.637ZM73.3512 148.588H78.1095C78.2817 148.588 78.4469 148.524 78.5687 148.411C78.6905 148.297 78.7589 148.143 78.7589 147.982V131.006C78.7589 130.845 78.6905 130.691 78.5687 130.578C78.4469 130.464 78.2817 130.4 78.1095 130.4H73.3512C73.179 130.4 73.0138 130.464 72.892 130.578C72.7702 130.691 72.7018 130.845 72.7018 131.006V147.982C72.7018 148.143 72.7702 148.297 72.892 148.411C73.0138 148.524 73.179 148.588 73.3512 148.588Z" fill="white"/>
<defs>
<clipPath id="clip0_2_3641">
<rect width="46.7719" height="46.7719" fill="white" transform="translate(723.614 39.3672)"/>
</clipPath>
</defs>
</svg>
