<svg width="48" height="48" viewBox="0 0 48 48" fill="none" xmlns="http://www.w3.org/2000/svg">
<circle cx="24" cy="24" r="24" fill="#FFC2C2"/>
<circle cx="24" cy="24" r="16" fill="#FF6C5C"/>
<path d="M20.491 20.2454L24 23.7543L27.4908 20.2636C27.5679 20.1815 27.6608 20.1159 27.7639 20.0706C27.867 20.0253 27.9782 20.0013 28.0908 20C28.3319 20 28.5631 20.0958 28.7336 20.2662C28.9041 20.4367 28.9999 20.6679 28.9999 20.909C29.002 21.0205 28.9813 21.1312 28.9391 21.2343C28.8969 21.3375 28.834 21.431 28.7544 21.509L25.2181 24.9996L28.7544 28.5358C28.9042 28.6823 28.9921 28.8808 28.9999 29.0903C28.9999 29.3313 28.9041 29.5626 28.7336 29.733C28.5631 29.9035 28.3319 29.9993 28.0908 29.9993C27.9749 30.0041 27.8593 29.9848 27.7514 29.9425C27.6434 29.9002 27.5454 29.836 27.4635 29.7538L24 26.245L20.5001 29.7448C20.4233 29.8241 20.3315 29.8874 20.2301 29.9311C20.1287 29.9748 20.0196 29.998 19.9092 29.9993C19.6681 29.9993 19.4369 29.9035 19.2664 29.733C19.0959 29.5626 19.0001 29.3313 19.0001 29.0903C18.998 28.9788 19.0187 28.8681 19.0609 28.7649C19.1031 28.6618 19.166 28.5683 19.2456 28.4903L22.7819 24.9996L19.2456 21.4635C19.0958 21.317 19.0079 21.1185 19.0001 20.909C19.0001 20.6679 19.0959 20.4367 19.2664 20.2662C19.4369 20.0958 19.6681 20 19.9092 20C20.1274 20.0027 20.3365 20.0909 20.491 20.2454Z" fill="white"/>
</svg>
