<svg width="168" height="14" viewBox="0 0 168 14" fill="none" xmlns="http://www.w3.org/2000/svg">
<path d="M162.294 10.1121C162.294 9.59137 162.407 9.10613 162.632 8.6564C162.857 8.20666 163.129 7.82202 163.448 7.50247C163.768 7.18292 164.087 6.88113 164.407 6.59708C164.727 6.30121 164.999 5.98166 165.224 5.63844C165.449 5.28339 165.561 4.91058 165.561 4.52002C165.561 3.92826 165.354 3.47853 164.94 3.17082C164.537 2.85127 164.011 2.69149 163.36 2.69149C162.058 2.69149 161.223 3.2655 160.857 4.4135L159.454 3.63238C159.75 2.80393 160.253 2.17666 160.963 1.7506C161.673 1.3127 162.478 1.09375 163.377 1.09375C164.431 1.09375 165.33 1.38963 166.076 1.98138C166.833 2.57314 167.212 3.39568 167.212 4.44901C167.212 4.94608 167.1 5.41357 166.875 5.85147C166.65 6.28937 166.378 6.6681 166.058 6.98764C165.738 7.30719 165.419 7.62082 165.099 7.92854C164.78 8.22441 164.508 8.56172 164.283 8.94044C164.058 9.30733 163.945 9.69789 163.945 10.1121H162.294ZM163.111 13.9467C162.792 13.9467 162.519 13.8343 162.294 13.6094C162.07 13.3845 161.957 13.1123 161.957 12.7928C161.957 12.4732 162.07 12.201 162.294 11.9761C162.519 11.7513 162.792 11.6388 163.111 11.6388C163.442 11.6388 163.715 11.7513 163.928 11.9761C164.153 12.201 164.265 12.4732 164.265 12.7928C164.265 13.1123 164.153 13.3845 163.928 13.6094C163.715 13.8343 163.442 13.9467 163.111 13.9467Z" fill="#FFC369"/>
<path d="M157.946 6.36723H155.585V11.1782C155.585 11.6161 155.668 11.9297 155.834 12.1191C156.011 12.2966 156.278 12.3913 156.633 12.4031C156.988 12.4031 157.426 12.3913 157.946 12.3676V13.7523C156.597 13.9299 155.609 13.8234 154.982 13.4328C154.354 13.0304 154.041 12.2789 154.041 11.1782V6.36723H152.283V4.876H154.041V2.8522L155.585 2.39062V4.876H157.946V6.36723Z" fill="#FFC369"/>
<path d="M149.998 3.26066C149.702 3.26066 149.454 3.16006 149.252 2.95886C149.051 2.75767 148.951 2.51504 148.951 2.231C148.951 1.94696 149.051 1.70434 149.252 1.50314C149.454 1.29011 149.702 1.18359 149.998 1.18359C150.282 1.18359 150.525 1.29011 150.726 1.50314C150.927 1.70434 151.028 1.94696 151.028 2.231C151.028 2.51504 150.927 2.75767 150.726 2.95886C150.525 3.16006 150.282 3.26066 149.998 3.26066ZM149.217 13.7525V4.87615H150.761V13.7525H149.217Z" fill="#FFC369"/>
<path d="M135.512 10.0255C135.666 10.8185 136.027 11.4339 136.595 11.8718C137.175 12.3097 137.885 12.5287 138.725 12.5287C139.897 12.5287 140.749 12.0967 141.281 11.2327L142.595 11.9783C141.731 13.3157 140.429 13.9844 138.689 13.9844C137.281 13.9844 136.133 13.5465 135.245 12.6707C134.37 11.7831 133.932 10.6646 133.932 9.31544C133.932 7.97807 134.364 6.86557 135.228 5.97794C136.092 5.0903 137.21 4.64648 138.583 4.64648C139.885 4.64648 140.944 5.10805 141.761 6.03119C142.589 6.9425 143.003 8.04316 143.003 9.33319C143.003 9.55806 142.986 9.78885 142.95 10.0255H135.512ZM138.583 6.1022C137.755 6.1022 137.068 6.33891 136.524 6.81231C135.979 7.27388 135.642 7.89523 135.512 8.67634H141.441C141.311 7.83605 140.98 7.19695 140.447 6.75905C139.914 6.32115 139.293 6.1022 138.583 6.1022Z" fill="#FFC369"/>
<path d="M133.051 6.36723H130.69V11.1782C130.69 11.6161 130.773 11.9297 130.938 12.1191C131.116 12.2966 131.382 12.3913 131.737 12.4031C132.092 12.4031 132.53 12.3913 133.051 12.3676V13.7523C131.702 13.9299 130.713 13.8234 130.086 13.4328C129.459 13.0304 129.145 12.2789 129.145 11.1782V6.36723H127.388V4.876H129.145V2.8522L130.69 2.39062V4.876H133.051V6.36723Z" fill="#FFC369"/>
<path d="M124.338 4.87727H125.882V13.7536H124.338V12.2269C123.568 13.3986 122.45 13.9844 120.983 13.9844C119.74 13.9844 118.681 13.5347 117.805 12.6352C116.929 11.7239 116.491 10.6173 116.491 9.31544C116.491 8.01358 116.929 6.91291 117.805 6.01344C118.681 5.10214 119.74 4.64648 120.983 4.64648C122.45 4.64648 123.568 5.23232 124.338 6.404V4.87727ZM121.178 12.4932C122.077 12.4932 122.829 12.1914 123.432 11.5878C124.036 10.9724 124.338 10.2149 124.338 9.31544C124.338 8.41597 124.036 7.66444 123.432 7.06085C122.829 6.44542 122.077 6.13771 121.178 6.13771C120.29 6.13771 119.545 6.44542 118.941 7.06085C118.337 7.66444 118.036 8.41597 118.036 9.31544C118.036 10.2149 118.337 10.9724 118.941 11.5878C119.545 12.1914 120.29 12.4932 121.178 12.4932Z" fill="#FFC369"/>
<path d="M113.087 13.7524V0.792969H114.632V13.7524H113.087Z" fill="#FFC369"/>
<path d="M109.191 4.87695H110.736V13.7533H109.191V12.4751C108.564 13.4811 107.606 13.9841 106.316 13.9841C105.274 13.9841 104.44 13.6586 103.812 13.0077C103.185 12.3449 102.872 11.4514 102.872 10.327V4.87695H104.416V10.2383C104.416 10.9602 104.611 11.5224 105.002 11.9248C105.392 12.3153 105.931 12.5106 106.617 12.5106C107.387 12.5106 108.008 12.2739 108.481 11.8005C108.955 11.3153 109.191 10.5756 109.191 9.58141V4.87695Z" fill="#FFC369"/>
<path d="M97.5303 13.9844C96.1929 13.9844 95.0804 13.5406 94.1928 12.6529C93.3051 11.7535 92.8613 10.641 92.8613 9.31544C92.8613 7.98991 93.3051 6.88332 94.1928 5.99569C95.0804 5.09622 96.1929 4.64648 97.5303 4.64648C98.4061 4.64648 99.1931 4.85952 99.8914 5.28558C100.59 5.69981 101.11 6.26198 101.454 6.97209L100.158 7.7177C99.9328 7.24429 99.5837 6.86557 99.1103 6.58153C98.6487 6.29748 98.122 6.15546 97.5303 6.15546C96.6426 6.15546 95.897 6.45726 95.2934 7.06085C94.7017 7.66444 94.4058 8.41597 94.4058 9.31544C94.4058 10.2031 94.7017 10.9487 95.2934 11.5523C95.897 12.1559 96.6426 12.4577 97.5303 12.4577C98.122 12.4577 98.6546 12.3216 99.128 12.0494C99.6014 11.7653 99.9624 11.3866 100.211 10.9132L101.525 11.6765C101.146 12.3748 100.601 12.937 99.8914 13.3631C99.1813 13.7773 98.3942 13.9844 97.5303 13.9844Z" fill="#FFC369"/>
<path d="M89.4576 13.7524V0.792969H91.0021V13.7524H89.4576Z" fill="#FFC369"/>
<path d="M85.5731 4.87727H87.1176V13.7536H85.5731V12.2269C84.8038 13.3986 83.6854 13.9844 82.2179 13.9844C80.9752 13.9844 79.9159 13.5347 79.0401 12.6352C78.1643 11.7239 77.7264 10.6173 77.7264 9.31544C77.7264 8.01358 78.1643 6.91291 79.0401 6.01344C79.9159 5.10214 80.9752 4.64648 82.2179 4.64648C83.6854 4.64648 84.8038 5.23232 85.5731 6.404V4.87727ZM82.4131 12.4932C83.3126 12.4932 84.0642 12.1914 84.6677 11.5878C85.2713 10.9724 85.5731 10.2149 85.5731 9.31544C85.5731 8.41597 85.2713 7.66444 84.6677 7.06085C84.0642 6.44542 83.3126 6.13771 82.4131 6.13771C81.5255 6.13771 80.7799 6.44542 80.1763 7.06085C79.5727 7.66444 79.2709 8.41597 79.2709 9.31544C79.2709 10.2149 79.5727 10.9724 80.1763 11.5878C80.7799 12.1914 81.5255 12.4932 82.4131 12.4932Z" fill="#FFC369"/>
<path d="M72.8256 13.9844C71.4882 13.9844 70.3757 13.5406 69.4881 12.6529C68.6004 11.7535 68.1566 10.641 68.1566 9.31544C68.1566 7.98991 68.6004 6.88332 69.4881 5.99569C70.3757 5.09622 71.4882 4.64648 72.8256 4.64648C73.7014 4.64648 74.4884 4.85952 75.1867 5.28558C75.885 5.69981 76.4057 6.26198 76.7489 6.97209L75.453 7.7177C75.2281 7.24429 74.879 6.86557 74.4056 6.58153C73.944 6.29748 73.4173 6.15546 72.8256 6.15546C71.9379 6.15546 71.1923 6.45726 70.5887 7.06085C69.997 7.66444 69.7011 8.41597 69.7011 9.31544C69.7011 10.2031 69.997 10.9487 70.5887 11.5523C71.1923 12.1559 71.9379 12.4577 72.8256 12.4577C73.4173 12.4577 73.9499 12.3216 74.4233 12.0494C74.8967 11.7653 75.2577 11.3866 75.5062 10.9132L76.8199 11.6765C76.4412 12.3748 75.8968 12.937 75.1867 13.3631C74.4766 13.7773 73.6895 13.9844 72.8256 13.9844Z" fill="#FFC369"/>
<path d="M54.9485 10.0255C55.1024 10.8185 55.4633 11.4339 56.0314 11.8718C56.6114 12.3097 57.3215 12.5287 58.1618 12.5287C59.3334 12.5287 60.1856 12.0967 60.7181 11.2327L62.0318 11.9783C61.1679 13.3157 59.866 13.9844 58.1263 13.9844C56.7179 13.9844 55.5699 13.5465 54.6822 12.6707C53.8064 11.7831 53.3685 10.6646 53.3685 9.31544C53.3685 7.97807 53.8005 6.86557 54.6645 5.97794C55.5284 5.0903 56.6469 4.64648 58.0197 4.64648C59.3216 4.64648 60.3808 5.10805 61.1975 6.03119C62.0259 6.9425 62.4402 8.04316 62.4402 9.33319C62.4402 9.55806 62.4224 9.78885 62.3869 10.0255H54.9485ZM58.0197 6.1022C57.1913 6.1022 56.5048 6.33891 55.9604 6.81231C55.416 7.27388 55.0787 7.89523 54.9485 8.67634H60.8779C60.7477 7.83605 60.4163 7.19695 59.8838 6.75905C59.3512 6.32115 58.7298 6.1022 58.0197 6.1022Z" fill="#FFC369"/>
<path d="M51.0074 4.87695H52.6229L49.8712 13.7533H48.2912L46.2141 7.1848L44.1371 13.7533H42.5571L39.8054 4.87695H41.4209L43.3737 11.623L45.4685 4.87695H46.9598L49.0546 11.6407L51.0074 4.87695Z" fill="#FFC369"/>
<path d="M32.9079 4.87695H34.5234L31.7718 13.7533H30.1918L28.1147 7.1848L26.0376 13.7533H24.4577L21.706 4.87695H23.3215L25.2743 11.623L27.3691 4.87695H28.8603L30.9551 11.6407L32.9079 4.87695Z" fill="#FFC369"/>
<path d="M19.6107 12.6352C18.6994 13.5347 17.5928 13.9844 16.2909 13.9844C14.989 13.9844 13.8825 13.5347 12.9712 12.6352C12.0717 11.7357 11.6219 10.6291 11.6219 9.31544C11.6219 8.00174 12.0717 6.89516 12.9712 5.99569C13.8825 5.09622 14.989 4.64648 16.2909 4.64648C17.5928 4.64648 18.6994 5.09622 19.6107 5.99569C20.522 6.89516 20.9776 8.00174 20.9776 9.31544C20.9776 10.6291 20.522 11.7357 19.6107 12.6352ZM16.2909 12.4754C17.1785 12.4754 17.9242 12.1736 18.5277 11.57C19.1313 10.9664 19.4331 10.2149 19.4331 9.31544C19.4331 8.41597 19.1313 7.66444 18.5277 7.06085C17.9242 6.45726 17.1785 6.15546 16.2909 6.15546C15.4151 6.15546 14.6754 6.45726 14.0718 7.06085C13.4682 7.66444 13.1664 8.41597 13.1664 9.31544C13.1664 10.2149 13.4682 10.9664 14.0718 11.57C14.6754 12.1736 15.4151 12.4754 16.2909 12.4754Z" fill="#FFC369"/>
<path d="M7.98605 1.32422H9.6193V13.7511H7.98605V8.159H1.95013V13.7511H0.299133V1.32422H1.95013V6.59677H7.98605V1.32422Z" fill="#FFC369"/>
</svg>
