<svg width="125" height="19" viewBox="0 0 125 19" fill="none" xmlns="http://www.w3.org/2000/svg">
<path d="M114.979 12.781C115.175 13.715 115.626 14.4361 116.331 14.9441C117.035 15.4357 117.896 15.6815 118.912 15.6815C120.321 15.6815 121.378 15.1735 122.083 14.1575L124.27 15.4357C123.058 17.2219 121.263 18.115 118.887 18.115C116.888 18.115 115.274 17.5086 114.045 16.296C112.816 15.067 112.201 13.5184 112.201 11.6503C112.201 9.8149 112.808 8.28271 114.02 7.05368C115.233 5.80826 116.79 5.18555 118.691 5.18555C120.493 5.18555 121.968 5.81645 123.115 7.07826C124.279 8.34006 124.86 9.87226 124.86 11.6748C124.86 11.9534 124.827 12.3221 124.762 12.781H114.979ZM114.954 10.6179H122.181C122.001 9.61826 121.583 8.86445 120.927 8.35645C120.288 7.84845 119.534 7.59445 118.666 7.59445C117.683 7.59445 116.863 7.86484 116.208 8.40561C115.552 8.94639 115.135 9.6838 114.954 10.6179Z" fill="white"/>
<path d="M107.719 7.5692C108.391 6.0452 109.652 5.2832 111.504 5.2832V8.15914C110.488 8.09359 109.603 8.3394 108.85 8.89656C108.096 9.43733 107.719 10.3386 107.719 11.6004V17.7948H105.064V5.50443H107.719V7.5692Z" fill="white"/>
<path d="M96.1743 18.115C94.3717 18.115 92.8395 17.4923 91.5777 16.2468C90.3159 15.0014 89.685 13.4692 89.685 11.6503C89.685 9.83129 90.3159 8.29909 91.5777 7.05368C92.8395 5.80826 94.3717 5.18555 96.1743 5.18555C97.9933 5.18555 99.5255 5.80826 100.771 7.05368C102.033 8.29909 102.664 9.83129 102.664 11.6503C102.664 13.4692 102.033 15.0014 100.771 16.2468C99.5255 17.4923 97.9933 18.115 96.1743 18.115ZM93.4458 14.4279C94.1833 15.1653 95.0927 15.534 96.1743 15.534C97.2558 15.534 98.1653 15.1653 98.9027 14.4279C99.6402 13.6904 100.009 12.7646 100.009 11.6503C100.009 10.5359 99.6402 9.61006 98.9027 8.87264C98.1653 8.13522 97.2558 7.76651 96.1743 7.76651C95.0927 7.76651 94.1833 8.13522 93.4458 8.87264C92.7084 9.61006 92.3397 10.5359 92.3397 11.6503C92.3397 12.7646 92.7084 13.6904 93.4458 14.4279Z" fill="white"/>
<path d="M83.1158 18.115C81.2641 18.115 79.7155 17.4923 78.4701 16.2468C77.241 15.0014 76.6265 13.4692 76.6265 11.6503C76.6265 9.8149 77.241 8.28271 78.4701 7.05368C79.7155 5.80826 81.2641 5.18555 83.1158 5.18555C84.3121 5.18555 85.4018 5.47232 86.385 6.04587C87.3683 6.61942 88.1057 7.38961 88.5973 8.35645L86.3113 9.6838C86.0327 9.09387 85.6067 8.63503 85.0331 8.30729C84.4759 7.96316 83.8287 7.7911 83.0912 7.7911C82.0097 7.7911 81.1002 8.1598 80.3628 8.89722C79.6418 9.63464 79.2812 10.5523 79.2812 11.6503C79.2812 12.7482 79.6418 13.6659 80.3628 14.4033C81.1002 15.1407 82.0097 15.5094 83.0912 15.5094C83.8123 15.5094 84.4596 15.3374 85.0331 14.9932C85.623 14.6491 86.0655 14.1903 86.3605 13.6167L88.6465 14.9195C88.1221 15.9027 87.3683 16.6811 86.385 17.2546C85.4018 17.8282 84.3121 18.115 83.1158 18.115Z" fill="white"/>
<path d="M68.6194 18.1151C66.9643 18.1151 65.555 17.7382 64.3915 16.9844C63.2444 16.2306 62.4414 15.1982 61.9826 13.8872L64.4161 12.4615C65.1043 14.3952 66.53 15.362 68.6931 15.362C69.7583 15.362 70.5531 15.1572 71.0774 14.7475C71.6182 14.3215 71.8886 13.7725 71.8886 13.1006C71.8886 12.396 71.6018 11.8634 71.0283 11.5029C70.4547 11.126 69.4387 10.7163 67.9803 10.2739C67.1609 10.028 66.4972 9.79863 65.9892 9.5856C65.4812 9.37256 64.9405 9.0776 64.3669 8.70069C63.8098 8.3074 63.3919 7.82398 63.1133 7.25044C62.8347 6.67689 62.6954 6.00502 62.6954 5.23482C62.6954 3.71082 63.2362 2.50637 64.3178 1.62147C65.3993 0.720177 66.7021 0.269531 68.2261 0.269531C69.6026 0.269531 70.8071 0.605467 71.8394 1.27734C72.8718 1.94921 73.6666 2.87508 74.2238 4.05495L71.8394 5.43147C71.1184 3.82553 69.914 3.02256 68.2261 3.02256C67.4067 3.02256 66.7513 3.21921 66.2596 3.6125C65.768 3.9894 65.5222 4.5056 65.5222 5.16108C65.5222 5.80018 65.768 6.30818 66.2596 6.68508C66.7676 7.0456 67.6771 7.43069 68.9881 7.84037C69.6436 8.0534 70.1188 8.21727 70.4138 8.33198C70.7251 8.43031 71.1512 8.59418 71.692 8.8236C72.2491 9.05302 72.667 9.28244 72.9456 9.51185C73.2242 9.74127 73.5191 10.028 73.8305 10.3722C74.1582 10.7163 74.3876 11.1096 74.5187 11.552C74.6498 11.9945 74.7154 12.4943 74.7154 13.0515C74.7154 14.6082 74.15 15.8455 73.0193 16.7631C71.905 17.6644 70.4383 18.1151 68.6194 18.1151Z" fill="white"/>
<path d="M50.8259 0.589844H53.4806V17.7963H50.8259V16.0265C49.8263 17.4194 48.3924 18.1158 46.5243 18.1158C44.8364 18.1158 43.3943 17.4931 42.1981 16.2477C41.0018 14.9859 40.4037 13.4537 40.4037 11.6511C40.4037 9.83217 41.0018 8.29997 42.1981 7.05455C43.3943 5.80913 44.8364 5.18643 46.5243 5.18643C48.3924 5.18643 49.8263 5.87468 50.8259 7.2512V0.589844ZM44.1645 14.4779C44.9019 15.2153 45.8278 15.584 46.9421 15.584C48.0565 15.584 48.9823 15.2153 49.7198 14.4779C50.4572 13.7241 50.8259 12.7818 50.8259 11.6511C50.8259 10.5204 50.4572 9.58636 49.7198 8.84894C48.9823 8.09514 48.0565 7.71823 46.9421 7.71823C45.8278 7.71823 44.9019 8.09514 44.1645 8.84894C43.4271 9.58636 43.0584 10.5204 43.0584 11.6511C43.0584 12.7818 43.4271 13.7241 44.1645 14.4779Z" fill="white"/>
<path d="M35.343 5.5051H37.9977V17.7954H35.343V16.0256C34.3434 17.4185 32.9095 18.115 31.0414 18.115C29.3535 18.115 27.9114 17.4923 26.7152 16.2468C25.5189 14.985 24.9208 13.4528 24.9208 11.6503C24.9208 9.83129 25.5189 8.29909 26.7152 7.05368C27.9114 5.80826 29.3535 5.18555 31.0414 5.18555C32.9095 5.18555 34.3434 5.87381 35.343 7.25032V5.5051ZM28.6816 14.477C29.419 15.2144 30.3449 15.5832 31.4592 15.5832C32.5736 15.5832 33.4994 15.2144 34.2368 14.477C34.9743 13.7232 35.343 12.781 35.343 11.6503C35.343 10.5195 34.9743 9.58548 34.2368 8.84806C33.4994 8.09426 32.5736 7.71735 31.4592 7.71735C30.3449 7.71735 29.419 8.09426 28.6816 8.84806C27.9442 9.58548 27.5755 10.5195 27.5755 11.6503C27.5755 12.781 27.9442 13.7232 28.6816 14.477Z" fill="white"/>
<path d="M13.4636 12.781C13.6603 13.715 14.1109 14.4361 14.8156 14.9441C15.5202 15.4357 16.3806 15.6815 17.3966 15.6815C18.8058 15.6815 19.8628 15.1735 20.5675 14.1575L22.7551 15.4357C21.5425 17.2219 19.7481 18.115 17.372 18.115C15.3727 18.115 13.7586 17.5086 12.5296 16.296C11.3006 15.067 10.686 13.5184 10.686 11.6503C10.686 9.8149 11.2924 8.28271 12.505 7.05368C13.7176 5.80826 15.2744 5.18555 17.1753 5.18555C18.9779 5.18555 20.4527 5.81645 21.5998 7.07826C22.7633 8.34006 23.3451 9.87226 23.3451 11.6748C23.3451 11.9534 23.3123 12.3221 23.2467 12.781H13.4636ZM13.4391 10.6179H20.6658C20.4855 9.61826 20.0676 8.86445 19.4122 8.35645C18.7731 7.84845 18.0193 7.59445 17.1507 7.59445C16.1675 7.59445 15.3482 7.86484 14.6927 8.40561C14.0372 8.94639 13.6193 9.6838 13.4391 10.6179Z" fill="white"/>
<path d="M2.82696 15.0924H9.83244V17.7963H0.000183105V0.589844H2.82696V15.0924Z" fill="white"/>
</svg>
