<svg width="306" height="285" viewBox="0 0 306 285" fill="none" xmlns="http://www.w3.org/2000/svg">
<g clip-path="url(#clip0_2_3004)">
<path d="M151.618 0.367188H13.0994V124.818H151.618V0.367188Z" fill="#FAFAFA"/>
<path d="M151.618 124.82C151.618 124.82 151.618 124.022 151.585 122.514C151.551 121.005 151.585 118.752 151.585 115.842C151.585 110.003 151.538 101.461 151.498 90.5794C151.464 68.8363 151.404 37.7671 151.338 0.368754L151.651 0.683871L13.1128 0.744213L13.48 0.368754C13.48 45.6518 13.4466 88.2529 13.4399 124.82L13.1128 124.498L113.301 124.659L141.556 124.746L149.041 124.786H150.97C151.404 124.786 151.638 124.786 151.638 124.786C151.638 124.786 151.431 124.786 151.01 124.786H149.121L141.703 124.827L113.515 124.914L13.1194 125.075H12.7923V124.746C12.7923 88.1792 12.7923 45.578 12.7455 0.295003V0H13.1328L151.618 0.053637H151.932V0.368754C151.865 37.8476 151.812 68.9905 151.772 90.7806C151.772 101.629 151.711 110.144 151.691 115.977C151.691 118.853 151.691 121.065 151.651 122.581C151.611 124.096 151.618 124.82 151.618 124.82Z" fill="#E0E0E0"/>
<path d="M66.2114 22.4871C66.2114 22.6882 58.9206 22.8558 49.9273 22.8558C40.934 22.8558 33.6432 22.6882 33.6432 22.4871C33.6432 22.2859 40.934 22.125 49.9273 22.125C58.9206 22.125 66.2114 22.2792 66.2114 22.4871Z" fill="#E0E0E0"/>
<path d="M124.905 31.8258C124.905 32.0336 104.875 32.2012 80.1721 32.2012C55.4689 32.2012 35.4392 32.0336 35.4392 31.8258C35.4392 31.6179 55.4689 31.457 80.1721 31.457C104.875 31.457 124.905 31.6246 124.905 31.8258Z" fill="#E0E0E0"/>
<path d="M39.7189 47.6562H33.8835V53.5161H39.7189V47.6562Z" fill="#E0E0E0"/>
<path d="M54.0801 47.6562H48.2448V53.5161H54.0801V47.6562Z" fill="#E0E0E0"/>
<path d="M68.7151 47.3867H62.8798V53.2466H68.7151V47.3867Z" fill="#E0E0E0"/>
<path d="M82.816 47.6562H76.9807V53.5161H82.816V47.6562Z" fill="#E0E0E0"/>
<path d="M97.1773 47.6562H91.342V53.5161H97.1773V47.6562Z" fill="#E0E0E0"/>
<path d="M111.545 47.6562H105.71V53.5161H111.545V47.6562Z" fill="#E0E0E0"/>
<path d="M125.907 47.6562H120.071V53.5161H125.907V47.6562Z" fill="#EBEBEB"/>
<path d="M39.7189 60.1133H33.8835V65.9731H39.7189V60.1133Z" fill="#EBEBEB"/>
<path d="M54.0801 60.1133H48.2448V65.9731H54.0801V60.1133Z" fill="#E0E0E0"/>
<path d="M68.4481 60.1133H62.6128V65.9731H68.4481V60.1133Z" fill="#EBEBEB"/>
<path d="M82.816 60.1133H76.9807V65.9731H82.816V60.1133Z" fill="#E0E0E0"/>
<path d="M97.1773 60.1133H91.342V65.9731H97.1773V60.1133Z" fill="#E0E0E0"/>
<path d="M111.812 59.8516H105.977V65.7114H111.812V59.8516Z" fill="#E0E0E0"/>
<path d="M125.907 60.1133H120.071V65.9731H125.907V60.1133Z" fill="#E0E0E0"/>
<path d="M39.7189 72.5781H33.8835V78.438H39.7189V72.5781Z" fill="#E0E0E0"/>
<path d="M54.3472 72.3086H48.5119V78.1684H54.3472V72.3086Z" fill="#E0E0E0"/>
<path d="M68.4481 72.5781H62.6128V78.438H68.4481V72.5781Z" fill="#E0E0E0"/>
<path d="M82.816 72.5781H76.9807V78.438H82.816V72.5781Z" fill="#EBEBEB"/>
<path d="M97.1773 72.5781H91.342V78.438H97.1773V72.5781Z" fill="#E0E0E0"/>
<path d="M111.545 72.5781H105.71V78.438H111.545V72.5781Z" fill="#E0E0E0"/>
<path d="M125.907 72.5781H120.071V78.438H125.907V72.5781Z" fill="#E0E0E0"/>
<path d="M39.7189 85.0352H33.8835V90.895H39.7189V85.0352Z" fill="#E0E0E0"/>
<path d="M54.0801 85.0352H48.2448V90.895H54.0801V85.0352Z" fill="#E0E0E0"/>
<path d="M68.4481 85.0352H62.6128V90.895H68.4481V85.0352Z" fill="#E0E0E0"/>
<path d="M83.0764 84.7656H77.2411V90.6255H83.0764V84.7656Z" fill="#E0E0E0"/>
<path d="M97.1773 85.0352H91.342V90.895H97.1773V85.0352Z" fill="#E0E0E0"/>
<path d="M111.545 85.0352H105.71V90.895H111.545V85.0352Z" fill="#EBEBEB"/>
<path d="M125.907 85.0352H120.071V90.895H125.907V85.0352Z" fill="#E0E0E0"/>
<path d="M39.7189 97.4922H33.8835V103.352H39.7189V97.4922Z" fill="#E0E0E0"/>
<path d="M54.0801 97.4922H48.2448V103.352H54.0801V97.4922Z" fill="#EBEBEB"/>
<path d="M68.4481 97.4922H62.6128V103.352H68.4481V97.4922Z" fill="#E0E0E0"/>
<path d="M82.816 97.4922H76.9807V103.352H82.816V97.4922Z" fill="#E0E0E0"/>
<path d="M97.1773 97.4922H91.342V103.352H97.1773V97.4922Z" fill="#E0E0E0"/>
<path d="M111.812 97.2227H105.977V103.082H111.812V97.2227Z" fill="#E0E0E0"/>
<path d="M125.907 97.4922H120.071V103.352H125.907V97.4922Z" fill="#E0E0E0"/>
<path d="M273.605 167.656C279.781 164.458 287.045 164.042 293.902 165.182C297.581 165.792 301.42 166.898 303.917 169.674C306.414 172.45 306.895 177.337 304.017 179.731C302.308 181.152 299.918 181.367 297.701 181.34C292.36 181.28 286.384 180.327 282.098 183.573C279.654 185.416 278.025 188.494 275.101 189.406C272.177 190.317 269.012 188.594 267.496 186.006C265.981 183.418 265.927 180.173 266.635 177.25C266.982 175.22 267.792 173.297 269.001 171.633C270.21 169.969 271.786 168.608 273.605 167.656Z" fill="#EBEBEB"/>
<path d="M259.464 140.24C263.237 145.657 270.574 143.86 273.979 140.555C277.384 137.25 278.813 132.463 280.122 127.897C283.113 117.464 286.131 106.516 283.907 95.8955C283.24 92.7175 282.058 89.5462 279.835 87.1795C277.611 84.8128 274.193 83.4182 271.068 84.2496C267.369 85.2285 265.059 88.8691 263.41 92.2951C258.514 102.512 255.948 113.696 255.899 125.034C255.899 130.31 256.5 135.842 259.464 140.193" fill="#EBEBEB"/>
<path d="M249.102 148.01C253.195 143.122 253.976 136.002 252.154 129.908C250.331 123.813 246.211 118.583 241.471 114.333C235.888 109.33 229.385 105.47 222.329 102.968C219.565 101.99 216.641 101.219 213.723 101.5C210.806 101.782 207.861 103.277 206.499 105.885C204.496 109.747 206.412 114.427 208.502 118.242C212.18 124.963 216.379 131.384 221.061 137.444C224.833 142.325 229.146 147.138 234.895 149.344C240.643 151.55 246.605 151.289 249.65 147.286" fill="#EBEBEB"/>
<path d="M259.211 221.922C259.408 221.116 259.522 220.291 259.551 219.461C259.725 217.671 259.945 215.439 260.219 212.757C260.552 209.441 261.053 206.145 261.721 202.881C262.595 198.918 263.785 195.033 265.28 191.262C266.745 187.491 268.736 183.949 271.195 180.742C273.192 178.132 275.745 176.001 278.666 174.507C280.646 173.522 282.769 172.857 284.955 172.536C285.777 172.502 286.594 172.385 287.392 172.187C286.569 172.078 285.735 172.064 284.909 172.147C282.638 172.319 280.418 172.901 278.352 173.863C275.275 175.318 272.575 177.471 270.467 180.152C267.908 183.403 265.845 187.019 264.345 190.88C262.824 194.704 261.64 198.655 260.806 202.686C260.172 205.983 259.737 209.314 259.504 212.663C259.291 215.512 259.211 217.819 259.171 219.415C259.091 220.249 259.105 221.09 259.211 221.922Z" fill="#E0E0E0"/>
<path d="M259.671 216.734C259.735 216.358 259.757 215.976 259.738 215.595C259.738 214.736 259.738 213.657 259.738 212.329C259.738 209.5 259.738 205.397 259.885 200.335C260.132 190.211 261 179.316 262.682 163.956C264.265 149.514 266.395 132.705 268.645 121.777C269.125 119.289 269.613 117.084 270.073 115.072C270.534 113.061 270.881 111.411 271.242 110.044C271.602 108.676 271.796 107.704 271.996 106.872C272.109 106.507 272.176 106.128 272.197 105.746C272.025 106.088 271.893 106.448 271.803 106.819L270.848 109.957C270.427 111.298 270 112.994 269.513 114.952C269.025 116.909 268.471 119.135 267.944 121.616C265.153 134.538 263.058 147.602 261.668 160.751C259.985 176.171 259.231 190.164 259.164 200.308C259.104 205.383 259.211 209.493 259.338 212.329C259.424 213.67 259.484 214.73 259.538 215.588C259.539 215.974 259.584 216.359 259.671 216.734Z" fill="#E0E0E0"/>
<path d="M259.718 189.7C259.807 188.566 259.807 187.427 259.718 186.294C259.527 183.199 259.181 180.115 258.683 177.055C257.945 172.515 256.953 168.02 255.712 163.592C254.252 158.148 252.377 152.824 250.104 147.668C245.43 136.592 239.141 127.554 233.646 121.929C232.433 120.644 231.139 119.437 229.774 118.316C229.179 117.813 228.659 117.31 228.118 116.914L226.616 115.868C225.712 115.183 224.757 114.568 223.758 114.031C223.598 114.253 227.811 116.713 233.105 122.425C238.4 128.138 244.542 137.088 249.129 148.071C251.356 153.197 253.239 158.467 254.764 163.847C256.048 168.233 257.11 172.682 257.949 177.175C258.65 181.01 259.057 184.148 259.284 186.32C259.342 187.456 259.487 188.586 259.718 189.7Z" fill="#E0E0E0"/>
<path d="M233.72 237.383L236.417 274.493H283.887L286.585 237.383H233.72Z" fill="#E0E0E0"/>
<path d="M292.246 222.762H229.133V237.391H292.246V222.762Z" fill="#E0E0E0"/>
<path d="M229.133 273.074V277.131H232.097H291.205V273.074H229.133Z" fill="#EBEBEB"/>
<path d="M235.008 284.263L232.097 277.129H288.948L285.556 284.263H235.008Z" fill="#E0E0E0"/>
<path d="M285.703 249.511C285.703 249.511 285.643 249.638 285.483 249.853L284.775 250.798L282.011 254.352L281.884 254.512L281.764 254.345L274.974 244.911H275.361L268.685 254.419L268.478 254.72L268.244 254.439L260.312 244.958H260.766L260.332 245.508L253.235 254.439L253.002 254.74L252.781 254.425L246.105 244.918H246.492L238.253 254.345L238.106 254.512L237.993 254.325C236.904 252.494 236.043 251.033 235.415 249.973C235.142 249.504 234.921 249.122 234.748 248.813C234.664 248.684 234.596 248.544 234.547 248.398C234.654 248.51 234.749 248.633 234.828 248.767C235.015 249.062 235.262 249.437 235.556 249.886L238.266 254.157H238.006L246.118 244.61L246.325 244.368L246.505 244.63L253.235 254.103H252.781L259.858 245.159L260.292 244.61L260.519 244.328L260.753 244.603L268.658 254.103H268.217L274.974 244.643L275.168 244.368L275.361 244.643C278.032 248.478 280.315 251.743 282.038 254.184H281.797L284.675 250.724L285.45 249.826C285.523 249.713 285.608 249.607 285.703 249.511Z" fill="#F5F5F5"/>
<path d="M287.246 237.143C287.246 237.304 275.355 237.438 260.68 237.438C246.004 237.438 234.114 237.304 234.114 237.143C234.114 236.982 246.004 236.848 260.68 236.848C275.355 236.848 287.246 236.975 287.246 237.143Z" fill="#F5F5F5"/>
<path d="M289.642 277.532C289.642 277.693 276.717 277.827 260.773 277.827C244.829 277.827 231.904 277.693 231.904 277.532C231.904 277.371 244.823 277.23 260.773 277.23C276.723 277.23 289.642 277.365 289.642 277.532Z" fill="#F5F5F5"/>
<path d="M118.429 136.719L113.088 139.595L101.263 148.733C101.263 148.733 65.0631 153.534 63.6743 154.607C62.2856 155.679 44.2789 164.261 41.842 175.76C39.405 187.258 34.4043 262.457 34.4043 262.457L40.974 284.663L172.843 284.871L203.769 284.428C203.769 284.428 215.646 256.557 215.646 248.894C215.646 241.23 212.174 183.611 212.174 183.611L175.086 157.349L118.429 136.719Z" fill="#FF5811"/>
<path d="M100.93 148.172C100.88 148.282 100.817 148.386 100.743 148.48L100.168 149.332C99.6476 150.056 98.9399 151.142 98.1187 152.503C97.7181 153.174 97.2641 153.938 96.8435 154.776C96.4228 155.614 95.9688 156.506 95.5081 157.458C94.5766 159.544 93.7761 161.687 93.1113 163.874C91.9568 167.872 91.0889 171.948 90.5141 176.07C90.2871 177.612 90.1068 178.879 89.9733 179.818C89.9132 180.227 89.8664 180.562 89.8264 180.837C89.8169 180.956 89.7899 181.074 89.7463 181.185C89.7315 181.065 89.7315 180.944 89.7463 180.823C89.7463 180.555 89.7997 180.213 89.8331 179.798C89.9132 178.906 90.0534 177.619 90.2604 176.03C90.7813 171.889 91.6319 167.797 92.8041 163.794C93.4749 161.592 94.289 159.438 95.2411 157.344C95.6951 156.385 96.1291 155.48 96.5764 154.662C97.0237 153.844 97.4777 153.08 97.9117 152.396C98.773 151.055 99.5074 149.975 100.062 149.271L100.696 148.46C100.762 148.355 100.841 148.258 100.93 148.172Z" fill="#263238"/>
<g opacity="0.3">
<path d="M101.751 170.295C101.53 169.585 101.25 168.787 100.562 168.512C100.028 168.291 100.242 168.639 99.7077 168.867C94.7003 170.939 92.2767 175.572 90.1602 180.828L90.2804 180.701C90.1293 181.141 90.128 181.618 90.2767 182.059C90.4253 182.499 90.7155 182.878 91.1016 183.135C92.23 183.805 93.6788 183.437 94.8405 182.833C96.0022 182.23 97.0638 181.392 98.3323 181.063C101.07 180.359 103.8 182.243 105.73 184.322C107.659 186.4 109.409 188.867 112.053 189.893C107.459 184.045 103.968 177.404 101.751 170.295Z" fill="black"/>
</g>
<path d="M89.7663 181.204C90.3686 179.732 91.0782 178.307 91.8895 176.94C92.8135 175.321 93.8769 173.786 95.0675 172.354C95.8204 171.462 96.6541 170.643 97.5579 169.907C98.5833 169.07 99.7913 168.489 101.083 168.21H101.19L101.23 168.311C102.065 170.503 102.946 172.897 103.961 175.418C105.008 178.098 106.258 180.693 107.7 183.182C109.294 185.899 111.223 188.404 113.441 190.637C115.831 193 118.466 195.099 121.3 196.899C122.268 197.469 123.203 198.079 124.171 198.616L127.062 200.165H126.888L131.708 196.812L134.045 195.197C134.82 194.667 135.574 194.137 136.289 193.574C138.981 191.443 141.483 189.081 143.766 186.514C146.495 184.453 148.828 181.911 150.65 179.012C152.041 176.777 153.084 174.342 153.741 171.791C154.162 170.152 154.425 168.478 154.529 166.789C154.569 166.199 154.529 165.75 154.576 165.448C154.622 165.146 154.576 164.992 154.576 164.992C154.576 164.992 154.576 165.146 154.576 165.448C154.576 165.75 154.576 166.206 154.576 166.789C154.514 168.49 154.276 170.179 153.868 171.831C153.234 174.41 152.202 176.873 150.81 179.132C149.002 182.079 146.669 184.665 143.927 186.762C141.637 189.353 139.126 191.738 136.422 193.889C135.701 194.459 134.947 194.995 134.172 195.518L131.835 197.148L127.015 200.5L126.935 200.56L126.841 200.513L123.93 198.958C122.962 198.421 122.021 197.811 121.046 197.235C118.187 195.423 115.532 193.305 113.128 190.919C110.896 188.663 108.955 186.133 107.352 183.39C105.911 180.883 104.663 178.27 103.62 175.572C102.612 173.038 101.744 170.637 100.95 168.445L101.09 168.526C99.836 168.789 98.6623 169.348 97.6647 170.155C96.7643 170.873 95.9328 171.674 95.181 172.548C93.9867 173.964 92.9125 175.478 91.9696 177.074C91.1884 178.415 90.6343 179.447 90.2804 180.165L89.8732 180.989C89.845 181.064 89.8092 181.136 89.7663 181.204Z" fill="#263238"/>
<path d="M164.39 164.699C164.492 168.115 164.331 171.533 163.91 174.924C163.492 178.626 162.811 182.294 161.873 185.899C160.718 190.333 159.24 194.676 157.453 198.893L157.2 199.496L157.119 198.826C157.073 198.437 157.039 198.008 156.973 197.585C156.653 195.174 156.089 192.802 155.29 190.505C154.91 189.392 154.476 188.32 154.008 187.287C153.775 186.771 153.527 186.268 153.274 185.772C153.044 185.284 152.771 184.817 152.459 184.377C152.174 183.954 151.776 183.62 151.311 183.412C151.086 183.33 150.843 183.311 150.609 183.356C150.374 183.401 150.155 183.508 149.976 183.667C149.609 184.001 149.269 184.364 148.961 184.753L147.993 185.859L144.461 189.882L139.346 195.775L137.938 197.357L137.564 197.76L137.43 197.887C137.461 197.832 137.497 197.781 137.537 197.733L137.884 197.311L139.22 195.688L144.267 189.774L147.766 185.698L148.727 184.578C149.048 184.175 149.401 183.799 149.782 183.452C149.999 183.263 150.262 183.134 150.545 183.08C150.828 183.026 151.12 183.048 151.391 183.144C151.914 183.369 152.363 183.739 152.686 184.21C153.013 184.664 153.299 185.146 153.541 185.651C153.795 186.147 154.042 186.657 154.282 187.173C154.756 188.212 155.197 189.298 155.617 190.418C156.424 192.737 156.994 195.131 157.32 197.565C157.387 197.994 157.42 198.423 157.467 198.819L157.133 198.772C158.917 194.571 160.398 190.246 161.566 185.832C162.513 182.244 163.216 178.595 163.669 174.91C164.056 171.773 164.21 169.218 164.283 167.455C164.33 166.57 164.33 165.886 164.35 165.443C164.35 165.229 164.35 165.055 164.35 164.914C164.35 164.773 164.39 164.699 164.39 164.699Z" fill="#263238"/>
<path d="M114.596 146.16C114.596 146.16 114.596 146.214 114.496 146.294L114.176 146.656C113.882 146.958 113.508 147.454 113.001 148.091C111.684 149.946 110.61 151.963 109.803 154.092C108.581 157.242 107.775 160.54 107.406 163.901C106.937 168.011 107.117 172.17 107.94 176.224C108.363 178.32 108.989 180.371 109.809 182.345C110.558 184.19 111.477 185.961 112.553 187.635C114.394 190.462 116.645 192.997 119.23 195.158C120.305 196.11 121.4 196.82 122.315 197.504C123.229 198.188 124.111 198.657 124.805 199.053L126.427 199.951L126.848 200.193C126.899 200.217 126.946 200.249 126.988 200.287C126.988 200.287 126.935 200.287 126.835 200.226L126.401 200.012L124.738 199.174C124.03 198.791 123.196 198.255 122.208 197.665C121.22 197.075 120.205 196.324 119.076 195.345C116.443 193.194 114.152 190.653 112.28 187.809C111.185 186.113 110.253 184.318 109.496 182.446C108.664 180.455 108.028 178.386 107.599 176.271C106.765 172.179 106.594 167.98 107.092 163.834C107.479 160.452 108.314 157.137 109.576 153.978C110.414 151.838 111.537 149.821 112.914 147.984C113.294 147.49 113.707 147.022 114.149 146.583L114.49 146.241L114.596 146.16Z" fill="#263238"/>
<path d="M57.7923 210.594C57.8421 210.655 57.8867 210.72 57.9258 210.788L58.2797 211.412L58.1795 211.445C57.7055 209.193 56.4102 202.287 54.9347 194.114C54.0534 189.085 53.2455 184.526 52.658 181.174C52.3909 179.551 52.1706 178.224 51.9903 177.245C51.9303 176.809 51.8768 176.461 51.8301 176.172C51.8153 176.048 51.8153 175.922 51.8301 175.797C51.8756 175.914 51.9092 176.035 51.9302 176.159C51.9881 176.441 52.0616 176.796 52.1506 177.225C52.3442 178.19 52.5979 179.518 52.9117 181.134C53.5326 184.486 54.3672 189.025 55.2952 194.054C56.7641 202.22 57.9659 209.152 58.2997 211.425L58.3531 211.767L58.1995 211.459L57.8857 210.788C57.8464 210.728 57.8149 210.662 57.7923 210.594Z" fill="#263238"/>
<path d="M56.1832 209.219C56.0964 209.259 54.4139 205.867 52.4243 201.636C50.4347 197.405 48.8991 193.939 48.9859 193.899C49.0727 193.859 50.7552 197.251 52.7448 201.482C54.7344 205.712 56.27 209.185 56.1832 209.219Z" fill="#263238"/>
<g opacity="0.3">
<path d="M55.4955 282.934C59.6817 285.046 69.3828 281.318 72.9147 276.672C76.4466 272.025 77.4614 265.944 78.2559 260.185C79.4132 251.455 80.2344 242.69 80.7196 233.889C87.9837 239.196 96.822 241.878 105.797 241.499C111.458 241.238 117.915 238.978 119.664 233.568C121.413 228.157 117.661 222.699 113.795 218.63C110.104 214.754 106.083 211.209 101.777 208.036C98.9533 205.958 95.8553 204.014 92.3702 203.605C88.6113 203.196 84.8123 204.738 81.9547 207.225C79.0972 209.712 77.1009 213.065 75.632 216.565C71.1721 227.258 71.4125 239.226 70.4978 250.758C69.5831 262.29 68.3679 274.285 58.1728 281.807" fill="black"/>
</g>
<path d="M55.7693 282.974C55.8606 282.921 55.9567 282.876 56.0564 282.84L56.8976 282.472C57.9215 281.925 58.8802 281.264 59.7552 280.5C62.8058 277.708 65.4072 274.458 67.4666 270.866V270.919C68.0742 266.327 68.8019 260.963 69.543 255.264C70.7715 246.226 71.8531 238.047 72.7277 232.133C73.2685 229.217 73.7025 226.843 74.0163 225.174C74.1699 224.376 74.2901 223.746 74.3835 223.283L74.4837 222.794C74.4925 222.738 74.5082 222.684 74.5304 222.633C74.5421 222.688 74.5421 222.745 74.5304 222.8C74.5304 222.935 74.4904 223.095 74.4636 223.297L74.1632 225.201C73.8761 226.87 73.4955 229.223 72.9815 232.173C72.1936 238.12 71.1053 246.287 69.9036 255.311C69.1291 261.01 68.4013 266.367 67.7804 270.96V270.993C65.6892 274.611 63.0339 277.868 59.9154 280.641C59.0207 281.399 58.0362 282.043 56.9844 282.559C56.6105 282.713 56.3168 282.813 56.1165 282.881C56.0075 282.933 55.8898 282.965 55.7693 282.974Z" fill="#263238"/>
<path d="M120.031 284.43C120.005 284.363 119.985 284.293 119.971 284.223C119.931 284.062 119.884 283.854 119.824 283.592C119.704 283.036 119.484 282.251 119.31 281.165C118.776 278.162 118.468 275.123 118.389 272.074C118.283 267.552 118.524 263.029 119.11 258.544C119.724 253.475 120.746 247.957 121.934 242.191C123.122 236.425 124.504 230.988 125.666 226.033C126.769 221.662 127.486 217.202 127.809 212.704C127.982 209.67 127.87 206.626 127.476 203.613C127.362 202.54 127.182 201.722 127.102 201.159L127.008 200.522C126.999 200.449 126.999 200.374 127.008 200.301C127.032 200.371 127.05 200.442 127.062 200.515C127.095 200.676 127.142 200.884 127.195 201.146C127.289 201.702 127.496 202.52 127.629 203.593C128.076 206.612 128.226 209.669 128.076 212.718C127.787 217.241 127.092 221.729 126 226.127C124.852 231.095 123.43 236.512 122.295 242.285C121.16 248.058 120.078 253.549 119.444 258.604C118.845 263.072 118.582 267.579 118.656 272.087C118.712 275.126 118.982 278.158 119.464 281.159C119.617 282.225 119.818 283.036 119.911 283.599C119.958 283.86 119.998 284.075 120.025 284.269C120.033 284.323 120.035 284.377 120.031 284.43Z" fill="#263238"/>
<path d="M131.268 208.83C131.188 208.776 132.336 206.932 133.618 204.579C134.9 202.226 135.828 200.261 135.921 200.301C135.82 200.768 135.659 201.218 135.441 201.642C135.093 202.454 134.566 203.553 133.918 204.74C133.271 205.927 132.637 206.959 132.142 207.69C131.905 208.108 131.61 208.492 131.268 208.83Z" fill="#263238"/>
<g opacity="0.3">
<path d="M133.424 206.045C136.905 201.955 140.673 198.121 144.701 194.574C145.803 193.602 146.998 192.616 148.447 192.375C150.209 192.08 152.005 192.991 153.227 194.305C154.379 195.684 155.299 197.242 155.951 198.918C157.7 194.601 155.884 189.733 154.082 185.435C153.494 184.034 152.479 182.371 150.984 182.599C150.201 182.819 149.52 183.307 149.061 183.98C143.274 190.727 137.922 197.837 133.037 205.268" fill="black"/>
</g>
<g opacity="0.3">
<path d="M192.125 174.114L192.372 171.988C189.828 172.23 186.703 172.531 184.674 174.087C182.303 175.904 181.335 178.995 180.574 181.878C178.758 188.435 183.912 222.192 183.645 228.998C185.895 228.039 187.484 213.577 187.885 211.123C188.873 205.216 186.877 201.529 187.484 199.88C188.092 198.23 188.072 196.44 188.119 194.683C188.339 186.852 189.114 181.341 192.125 174.114Z" fill="black"/>
</g>
<path d="M158.935 65.7671C155.704 61.7443 156.766 55.3146 160.464 51.6874C164.163 48.0602 169.812 47.0545 174.866 47.9127C178.546 48.5672 182.019 50.0869 185.003 52.3475C187.986 54.6081 190.395 57.5455 192.031 60.9197C193.767 64.5737 194.702 68.8915 197.886 71.3722C200.677 73.5579 204.523 73.7456 207.701 75.3145C211.961 77.4063 214.711 81.885 215.713 86.5514C216.714 91.2178 216.1 96.0653 215.119 100.732C214.217 105.009 213.016 109.635 214.845 113.598C216.674 117.56 220.794 119.578 223.524 122.837C228.692 128.958 227.53 139.377 221.128 144.191C219.091 145.726 216.514 146.873 215.539 149.26C214.651 151.419 215.406 153.866 215.359 156.199C215.246 162.233 208.642 167.161 202.867 165.586C199.956 164.781 197.272 162.622 194.274 163.031C191.277 163.44 189.314 166.202 186.93 167.992C184.496 169.69 181.555 170.497 178.599 170.277C175.643 170.057 172.852 168.825 170.693 166.786C168.944 165.036 167.535 162.656 165.145 162.019C162.754 161.382 160.244 162.756 157.8 162.421C154.602 161.985 152.499 158.794 151.551 155.716C150.603 152.639 150.356 149.253 148.754 146.43C146.664 142.743 142.685 140.651 139.333 138.056C135.621 135.182 132.568 131.541 130.38 127.378C128.192 123.216 126.92 118.63 126.65 113.931C126.381 109.232 127.119 104.53 128.817 100.143C130.514 95.7556 133.131 91.7859 136.489 88.5025" fill="#263238"/>
<path d="M114.169 146.195C110.998 149.914 108.753 154.335 107.618 159.096C106.482 163.856 106.49 168.82 107.639 173.577C110.016 183.037 117.901 196.869 127.001 200.302C132.904 195.957 140.481 189.889 145.99 185.049C149.548 181.918 151.438 177.338 153.2 172.927C154.215 170.379 155.25 167.63 154.616 164.962C154.142 162.997 152.82 161.361 151.424 159.906C146.892 155.257 141.322 151.758 135.175 149.699C129.029 147.64 122.483 147.08 116.079 148.066" fill="#FFC8AF"/>
<path d="M141.176 78.0769C142.82 74.7344 145.557 72.0603 148.93 70.5018C152.302 68.9433 156.106 68.595 159.703 69.5151L182.477 75.3482C193.861 79.029 202.774 96.7225 196.064 112.224C190.763 124.46 185.335 139.833 179.893 148.281C168.944 165.257 153.975 161.382 153.975 161.382L145.896 179.484L112.867 148.382L141.176 78.0769Z" fill="#FFC8AF"/>
<path d="M179.633 117.001C180.06 116.84 181.182 119.012 183.639 120.172C186.096 121.332 188.526 121.003 188.646 121.439C188.713 121.64 188.159 122.043 187.09 122.23C185.66 122.45 184.196 122.216 182.904 121.56C181.616 120.943 180.558 119.928 179.886 118.663C179.419 117.731 179.426 117.068 179.633 117.001Z" fill="#263238"/>
<path d="M153.841 105.21C154.322 105.116 155.43 107.496 158.088 109.145C160.745 110.795 163.429 110.855 163.542 111.318C163.602 111.532 162.968 111.847 161.773 111.854C160.147 111.825 158.56 111.348 157.186 110.473C155.822 109.636 154.726 108.424 154.028 106.98C153.561 105.934 153.608 105.263 153.841 105.21Z" fill="#263238"/>
<path d="M164.771 130.5C164.824 130.352 166.5 130.775 169.171 131.579C169.838 131.794 170.506 131.941 170.806 131.546C171.107 131.15 171.2 130.339 171.22 129.447C171.307 127.623 171.401 125.706 171.487 123.701C171.935 115.555 172.562 108.951 172.889 108.985C173.217 109.018 173.123 115.629 172.676 123.782C172.551 125.789 172.431 127.702 172.315 129.521C172.235 130.359 172.315 131.378 171.527 132.203C171.335 132.388 171.102 132.527 170.847 132.608C170.593 132.69 170.323 132.712 170.059 132.672C169.661 132.613 169.273 132.502 168.904 132.343C166.3 131.338 164.717 130.647 164.771 130.5Z" fill="#263238"/>
<path d="M153.941 161.414C153.941 161.414 140.749 156.453 131.855 143.734C131.855 143.734 132.356 159.262 151.925 165.967L153.941 161.414Z" fill="#D37A57"/>
<path d="M155.911 96.6121C156.325 95.9416 158.935 96.8534 162.167 97.135C165.398 97.4166 168.129 97.135 168.41 97.8524C168.53 98.2078 167.942 98.7978 166.767 99.2939C165.212 99.8727 163.546 100.088 161.895 99.9246C160.244 99.7608 158.652 99.2218 157.24 98.3486C156.185 97.6312 155.717 96.9339 155.911 96.6121Z" fill="#263238"/>
<path d="M185.014 103.988C185.855 103.988 186.897 106.073 188.693 108.065C190.489 110.056 192.365 111.417 192.245 112.262C192.165 112.644 191.464 112.812 190.355 112.483C188.89 111.974 187.588 111.081 186.583 109.895C185.545 108.748 184.837 107.339 184.533 105.819C184.36 104.679 184.62 104.015 185.014 103.988Z" fill="#263238"/>
<path d="M158.982 137.505C158.982 137.505 160.531 136.694 159.81 133.703C159.089 130.713 155.31 128.011 152.913 130.472C152.913 130.472 150.496 130.653 151.444 133.455C152.392 136.258 157.907 140.214 158.935 137.961" fill="#D37A57"/>
<path d="M158.081 139.791C157.64 139.711 158.308 136.794 156.305 134.146C154.302 131.498 151.137 131.095 151.211 130.68C151.211 130.485 152.032 130.277 153.347 130.546C155.052 130.919 156.57 131.885 157.634 133.274C158.671 134.604 159.15 136.288 158.969 137.968C158.769 139.208 158.274 139.852 158.081 139.791Z" fill="#263238"/>
<path d="M121.7 68.5547C119.935 69.9371 118.519 71.7183 117.568 73.7535C116.616 75.7887 116.156 78.0205 116.226 80.2677C116.326 82.7752 116.933 85.7319 115.097 87.4349C113.261 89.1379 110.277 88.2327 107.753 88.2462C105.536 88.3235 103.417 89.1801 101.764 90.6664C100.112 92.1528 99.0322 94.1745 98.7129 96.3789C98.5326 97.9679 98.7129 99.6775 97.9317 101.072C97.1506 102.467 95.4213 103.144 94.0059 104.002C92.2403 105.077 90.7869 106.598 89.7911 108.414C88.7953 110.231 88.2922 112.278 88.3321 114.351C88.372 116.423 88.9535 118.449 90.0184 120.226C91.0833 122.002 92.5942 123.466 94.3998 124.471C96.0356 125.376 97.9451 125.946 99.1402 127.388C100.476 129.044 100.556 131.41 101.23 133.422C101.878 135.396 103.127 137.116 104.8 138.34C106.473 139.564 108.486 140.23 110.556 140.245C112.626 140.259 114.648 139.622 116.338 138.422C118.028 137.222 119.301 135.52 119.978 133.556" fill="#263238"/>
<path d="M158.622 62.1371C157.949 64.1036 157.717 66.1948 157.941 68.2618C158.165 70.3287 158.84 72.3207 159.918 74.0959C160.996 75.871 162.451 77.3857 164.178 78.5322C165.905 79.6787 167.863 80.4288 169.912 80.729C173.076 81.1983 176.855 80.796 178.898 83.27C181.048 85.8714 179.773 90.0149 181.476 92.9381C183.899 97.1017 188.045 100.427 191.971 103.216C195.009 105.368 191.537 111.356 192.859 114.842C194.181 118.328 199.622 126.287 203.335 126.428C204.149 123.31 208.769 109.612 208.849 106.394C208.93 103.176 208.182 99.8237 206.219 97.2894C205.131 95.9015 203.702 94.7953 202.76 93.3068C200.724 90.0819 201.425 85.9318 200.757 82.1571C200.311 79.7316 199.294 77.4484 197.791 75.4974C196.288 73.5464 194.343 71.984 192.118 70.9402C188.406 69.2373 184.066 69.0495 180.641 66.8303C178.111 65.1877 176.301 62.5662 173.677 61.0777C168.57 58.1813 162.174 60.4073 156.892 62.955" fill="#263238"/>
<path d="M134.032 101.112C133.504 100.756 130.026 103.418 133.458 105.543C139.54 109.285 144.714 96.6933 144.487 92.523C147.572 91.1821 150.697 89.8881 153.414 87.8298C156.131 85.7715 160.191 78.973 160.918 75.5402C163.235 76.4856 174.432 76.5727 173.457 75.8956C171.247 74.3602 166.78 71.0682 166.186 68.5205C164.898 62.9221 160.938 58.0479 155.704 56.5862C152.975 55.8937 150.095 56.1073 147.497 57.1951C144.899 58.2828 142.721 60.1862 141.289 62.6204C135.06 60.5554 127.676 62.4126 122.708 67.3136C120.229 69.8237 118.394 72.9011 117.361 76.281C116.328 79.6609 116.129 83.2423 116.78 86.7168C117.147 88.5002 117.748 90.3641 117.18 92.1341C116.473 94.3199 114.283 95.4865 112.54 96.9212C107.793 100.79 105.743 107.649 106.331 113.797C106.918 119.945 107.967 122.419 111.004 124.645C116.953 129.01 104.588 140.153 115.678 143.921" fill="#263238"/>
<path d="M216.708 143.702C216.708 143.661 217.102 143.427 217.749 142.817C218.706 141.934 219.466 140.858 219.979 139.659C220.827 137.788 221.047 135.692 220.607 133.685C220.086 131.345 218.33 129.119 215.98 127.222C213.63 125.324 210.699 123.494 208.576 120.39C206.453 117.285 206.072 113.014 206.753 108.992C207.434 104.969 209.11 100.946 210.198 96.7156C210.78 94.5845 211.056 92.3812 211.019 90.1719C210.999 87.9256 210.396 85.7234 209.27 83.7824C208.056 81.8973 206.333 80.3976 204.303 79.4579C202.312 78.5222 200.199 77.8766 198.027 77.5403C195.863 77.2846 193.721 76.8723 191.617 76.3067C190.562 76.0246 189.575 75.5288 188.717 74.8497C187.86 74.1706 187.149 73.3225 186.63 72.3577C185.662 70.4402 185.448 68.4087 185.027 66.5649C184.692 64.7918 183.952 63.121 182.864 61.6839C180.832 59.0937 177.92 57.3465 174.685 56.7761C172.01 56.3194 169.26 56.6501 166.767 57.7282C164.879 58.5457 163.143 59.6793 161.633 61.0805C160.375 62.3058 159.241 63.6533 158.248 65.1033C158.248 65.1033 158.248 64.9826 158.395 64.7815C158.549 64.478 158.718 64.1826 158.902 63.8964C159.61 62.7726 160.446 61.7353 161.392 60.8056C162.897 59.3268 164.649 58.1241 166.567 57.2522C169.139 56.0826 171.996 55.6934 174.786 56.1325C178.194 56.6946 181.275 58.5052 183.432 61.2146C184.604 62.7421 185.404 64.5238 185.769 66.4174C186.209 68.3014 186.436 70.2859 187.338 72.0023C187.812 72.8688 188.459 73.6283 189.237 74.2337C190.016 74.8392 190.91 75.2777 191.864 75.5223C193.931 76.0707 196.036 76.4673 198.16 76.709C200.419 77.0645 202.615 77.7418 204.683 78.7204C206.866 79.7298 208.718 81.3411 210.025 83.3667C211.229 85.4396 211.873 87.7922 211.894 90.192C211.934 92.4831 211.646 94.7681 211.039 96.977C209.911 101.288 208.215 105.224 207.554 109.173C206.893 113.122 207.2 117.091 209.183 120.014C211.166 122.937 214.077 124.707 216.381 126.719C218.684 128.73 220.58 131.05 221.088 133.551C221.507 135.658 221.228 137.846 220.293 139.779C219.728 140.996 218.9 142.07 217.869 142.924C217.521 143.238 217.13 143.5 216.708 143.702Z" fill="#455A64"/>
<path d="M196.231 103.25C196.304 103.284 195.904 104.209 195.496 105.965C194.938 108.446 194.858 111.011 195.263 113.521C195.529 115.243 196.037 116.918 196.772 118.496C197.654 120.302 198.753 121.993 200.043 123.531C200.745 124.419 201.343 125.384 201.826 126.408C202.334 127.519 202.55 128.742 202.453 129.961C202.26 132.455 201.038 134.654 200.13 136.927C199.222 139.2 198.641 141.547 199.516 143.632C200.39 145.717 201.979 147.279 203.481 148.781C205.023 150.167 206.345 151.781 207.401 153.568C208.28 155.21 208.518 157.123 208.068 158.932C207.76 160.22 207.172 161.424 206.345 162.457C205.519 163.49 204.475 164.326 203.288 164.906C202.642 165.199 201.955 165.391 201.251 165.476C201.008 165.511 200.761 165.511 200.517 165.476C201.419 165.275 202.298 164.983 203.141 164.604C204.23 163.998 205.179 163.166 205.924 162.164C206.668 161.162 207.192 160.012 207.461 158.791C207.849 157.126 207.612 155.376 206.793 153.877C205.745 152.176 204.449 150.644 202.947 149.331C201.438 147.836 199.682 146.227 198.748 143.907C198.283 142.728 198.129 141.449 198.3 140.192C198.493 138.942 198.847 137.723 199.355 136.565C200.297 134.252 201.458 132.1 201.632 129.861C201.806 127.621 200.691 125.657 199.429 123.974C198.122 122.379 197.018 120.627 196.144 118.758C194.353 114.69 194.02 110.124 195.203 105.838C195.383 105.148 195.622 104.475 195.917 103.827C195.993 103.62 196.099 103.426 196.231 103.25Z" fill="#455A64"/>
<path d="M96.0556 124.265C96.0556 124.265 95.9088 124.185 95.6684 123.984C95.3177 123.684 94.9938 123.354 94.7003 122.998C93.5723 121.623 92.8097 119.983 92.4837 118.231C92.2042 116.861 92.207 115.448 92.4918 114.08C92.7765 112.711 93.3373 111.415 94.1395 110.273C95.197 108.788 96.604 107.589 98.2349 106.783C99.8658 105.977 101.67 105.589 103.487 105.653L103.119 106.149C102.26 103.928 101.876 101.55 101.991 99.1698C102.06 97.8574 102.416 96.5764 103.033 95.4176C103.65 94.2589 104.514 93.2509 105.563 92.4652C106.691 91.6151 108.059 91.1457 109.469 91.1242C110.882 91.21 112.26 91.6011 113.508 92.2707C114.684 92.9125 115.939 93.3971 117.24 93.7122C117.869 93.8342 118.519 93.8029 119.133 93.6209C119.748 93.4389 120.31 93.1116 120.772 92.6663C122.136 91.2459 122.918 89.3623 122.962 87.3898C123.116 85.4186 122.929 83.4139 123.129 81.4092C123.548 77.5513 125.287 73.9589 128.05 71.245C130.51 68.835 133.682 67.2897 137.09 66.8401C139.963 66.4348 142.891 66.8026 145.576 67.9061L145.202 68.0603C146.161 66.1282 147.797 64.6195 149.795 63.823C151.259 63.2196 152.848 62.9893 154.422 63.1526C155.401 63.2523 156.353 63.5294 157.233 63.9705C157.538 64.1209 157.823 64.3102 158.081 64.5337C156.932 63.9445 155.681 63.5847 154.395 63.4744C152.88 63.3813 151.364 63.6549 149.976 64.2722C148.124 65.0533 146.617 66.4827 145.736 68.295L145.616 68.5498L145.355 68.4492C142.76 67.4334 139.945 67.1168 137.19 67.5307C133.949 68.0015 130.943 69.5003 128.611 71.8082C126.004 74.4016 124.37 77.8191 123.984 81.483C123.79 83.3804 123.984 85.3784 123.83 87.4568C123.774 89.6482 122.894 91.737 121.366 93.3032C120.805 93.8373 120.126 94.2309 119.385 94.4523C118.644 94.6736 117.861 94.7164 117.1 94.5771C115.72 94.2443 114.389 93.7327 113.141 93.0552C112.008 92.435 110.756 92.0669 109.469 91.9757C108.238 91.9956 107.044 92.4037 106.057 93.1423C105.105 93.8556 104.321 94.7709 103.761 95.8232C103.202 96.8754 102.88 98.0387 102.819 99.2301C102.697 101.499 103.045 103.768 103.841 105.895L104.021 106.417H103.473C101.765 106.333 100.061 106.673 98.5149 107.407C96.9683 108.142 95.626 109.248 94.6068 110.628C93.8311 111.704 93.2803 112.926 92.9877 114.221C92.6951 115.516 92.6667 116.857 92.9043 118.164C93.1861 119.867 93.8732 121.477 94.9073 122.857C95.595 123.809 96.089 124.225 96.0556 124.265Z" fill="#455A64"/>
<path d="M158.348 67.1855C158.388 67.3397 157.046 67.1185 155.337 68.3588C153.628 69.5992 152.152 72.5023 151.718 76.2301L151.678 76.5452H151.364C149.523 76.4232 147.679 76.7301 145.975 77.4419C144.272 78.1536 142.755 79.251 141.543 80.6484C140.869 81.4466 140.334 82.3533 139.961 83.3302C139.641 84.3873 139.418 85.4711 139.293 86.5686C139.153 87.754 138.93 88.928 138.625 90.0818C138.293 91.3434 137.553 92.4586 136.522 93.2531C134.306 94.9896 131.582 95.2645 129.178 95.6667C126.872 95.8694 124.616 96.4562 122.502 97.4032C118.955 99.1125 116.191 102.114 114.77 105.797C113.831 108.288 113.517 110.973 113.855 113.615C114.096 115.492 114.49 116.485 114.41 116.511C114.329 116.538 114.269 116.283 114.082 115.807C113.836 115.112 113.648 114.396 113.522 113.669C113.039 110.959 113.269 108.169 114.189 105.576C115.593 101.686 118.443 98.4923 122.141 96.6657C124.32 95.6634 126.652 95.0356 129.038 94.8086C131.415 94.4264 133.999 94.0912 135.935 92.5558C137.844 91.2149 138.051 88.6671 138.418 86.4345C138.559 85.2807 138.808 84.1427 139.16 83.0352C139.578 81.9727 140.169 80.9871 140.909 80.1187C142.21 78.6357 143.838 77.4793 145.665 76.7423C147.491 76.0053 149.463 75.7082 151.424 75.8747L151.071 76.163C151.605 72.2877 153.234 69.2841 155.13 68.0638C155.827 67.5818 156.632 67.2801 157.473 67.1855C157.763 67.1413 158.058 67.1413 158.348 67.1855Z" fill="#455A64"/>
<path d="M135.32 103.018C137.223 99.277 134.653 94.5636 130.48 94.5703C128.177 94.5703 125.706 95.8308 123.65 99.7865C118.168 110.34 129.852 113.692 130.026 113.397C130.133 113.216 133.09 107.41 135.32 103.018Z" fill="#FFC8AF"/>
<path d="M128.891 107.716C128.891 107.655 128.644 107.749 128.223 107.716C127.694 107.68 127.198 107.44 126.841 107.045C125.947 106.053 125.927 103.794 126.841 101.869C127.279 100.947 127.921 100.138 128.717 99.5026C128.989 99.2279 129.323 99.0234 129.69 98.9066C130.058 98.7899 130.448 98.7643 130.827 98.8322C131.067 98.8867 131.281 99.0238 131.431 99.2197C131.58 99.4156 131.658 99.658 131.648 99.9049C131.648 100.274 131.461 100.448 131.501 100.495C131.542 100.542 131.822 100.435 131.962 99.9585C132.039 99.6666 132.016 99.3571 131.895 99.0802C131.719 98.7079 131.406 98.4192 131.021 98.2757C130.541 98.1414 130.036 98.1325 129.552 98.2499C129.068 98.3672 128.622 98.6069 128.257 98.9461C127.337 99.6277 126.595 100.522 126.093 101.554C125.059 103.72 125.112 106.247 126.401 107.515C126.64 107.743 126.928 107.915 127.242 108.018C127.556 108.121 127.889 108.153 128.217 108.111C128.737 107.944 128.918 107.749 128.891 107.716Z" fill="#D37A57"/>
<path d="M124.852 249.593C123.924 247.864 121.513 246.798 121.513 246.798L119.51 241.87C119.99 240.625 119.99 239.246 119.51 238.001C118.716 235.869 112.874 223.486 113.007 223.083L111.499 222.996C111.499 222.996 116.88 236.104 117.407 236.774C117.935 237.445 118.743 241.34 117.407 241.87C116.072 242.399 113.261 240.958 112.066 239.764C110.871 238.571 107.072 229.547 106.411 227.696C105.75 225.846 106.925 223.237 106.925 223.237L107.987 220.703H106.531C105.95 222.407 105.462 224.142 105.069 225.899C104.542 228.434 110.51 239.489 111.438 240.69C112.366 241.89 115.551 242.822 117.274 244.042C118.996 245.262 118.736 248.977 118.736 248.977C117.838 250.279 117.288 251.791 117.14 253.368C117.007 255.768 122.315 267.092 125.893 269.459C129.472 271.826 133.725 270.13 134.119 270.257C134.513 270.384 135.454 268.393 135.454 268.393C135.454 268.393 125.78 251.323 124.852 249.593ZM129.746 269.392C127.792 269.127 126.021 268.099 124.818 266.529C124.384 265.953 119.737 257.813 119.137 256.325C118.095 253.69 118.816 252.228 119.197 250.686C119.751 248.44 123.203 249.754 123.203 249.754C123.203 249.754 133.364 267.387 133.131 267.924C132.897 268.46 131.648 269.526 129.739 269.392H129.746Z" fill="#263238"/>
<path d="M135.461 268.371C135.461 268.371 165.045 257.067 166.427 255.787C167.809 254.506 172.803 247.145 172.803 247.145C172.803 247.145 175.246 247.567 174.926 248.211C174.605 248.854 169.932 256.216 164.911 258.348C159.89 260.48 134.105 270.235 134.105 270.235L135.461 268.371Z" fill="#263238"/>
<path d="M41.842 175.211L29.6573 245.784C29.6573 245.784 25.1706 259.515 25.8116 262.545C26.4525 265.576 28.7159 278.502 35.5527 282.579C42.3895 286.655 55.9295 283.993 58.707 281.204C61.4844 278.415 66.9592 273.306 67.6001 270.946C68.2411 268.586 72.7344 232.73 72.7344 232.73L74.5171 222.673C74.5171 222.673 67.8939 224.818 63.8346 222.002C59.7752 219.187 54.434 207.172 54.434 207.172L48.4251 216.397L41.842 175.211Z" fill="#FF5811"/>
<path d="M54.434 207.172C54.3741 207.312 54.2979 207.445 54.207 207.567L53.4792 208.674C52.8516 209.626 51.9436 211.014 50.8553 212.743C48.6654 216.203 45.7411 221.037 42.543 226.407C39.3449 231.778 36.454 236.639 34.3108 240.132C33.2426 241.875 32.3613 243.276 31.7337 244.242L31.0059 245.341C30.9299 245.475 30.838 245.599 30.7322 245.71C30.7939 245.568 30.8676 245.431 30.9525 245.301L31.6202 244.168L34.1038 240.025L42.2426 226.253C45.4406 220.89 48.405 216.062 50.6483 212.636C51.77 210.92 52.7047 209.552 53.3724 208.613L54.1469 207.547C54.2306 207.413 54.3267 207.288 54.434 207.172Z" fill="#263238"/>
<path d="M72.9881 231.268C72.9137 231.372 72.8287 231.469 72.7344 231.556C72.5541 231.737 72.3138 232.025 71.9532 232.34C70.9603 233.265 69.8351 234.036 68.615 234.627C67.7662 235.028 66.8681 235.314 65.9443 235.478C64.8742 235.681 63.7784 235.708 62.6995 235.559C61.5096 235.405 60.3461 235.089 59.2411 234.62C58.0685 234.111 56.9501 233.484 55.9028 232.749C54.8722 231.98 53.9255 231.104 53.0786 230.135C50.9885 227.657 49.588 224.669 49.0193 221.472C48.7707 220.131 48.6788 218.765 48.7455 217.402C48.7455 216.92 48.8257 216.551 48.8457 216.296C48.8532 216.167 48.8756 216.038 48.9125 215.914C48.9265 216.413 48.9154 216.912 48.8791 217.409C48.8675 218.76 48.995 220.108 49.2596 221.432C49.6492 223.395 50.3431 225.284 51.316 227.03C51.8956 228.05 52.566 229.015 53.319 229.913C54.153 230.86 55.0815 231.718 56.0898 232.474C57.1241 233.194 58.2266 233.809 59.3813 234.312C60.448 234.771 61.5705 235.086 62.7196 235.25C63.766 235.4 64.8294 235.384 65.8709 235.203C66.7912 235.056 67.6888 234.79 68.5415 234.412C69.7632 233.853 70.9005 233.124 71.9199 232.247C72.5875 231.616 72.9614 231.241 72.9881 231.268Z" fill="#263238"/>
<path d="M54.434 207.173L63.5541 201.286C63.5541 201.286 87.8568 191.37 90.3271 190.8C92.7975 190.231 95.6684 189.084 97.0037 190.8C98.339 192.517 112.166 202.614 112.166 202.614C112.166 202.614 120.332 218.035 120.332 220.16C120.332 222.285 122.608 224.94 120.332 225.698L118.055 226.449C118.055 226.449 117.294 230.19 114.443 230.606C111.592 231.021 110.644 230.606 110.644 230.606C110.644 230.606 110.457 234.347 108.18 234.119C105.904 233.891 102.105 230.606 102.105 230.606C102.105 230.606 100.395 232.55 99.0601 232.55C97.7248 232.55 93.5586 229.694 93.5586 229.694L85.4599 222.634L78.3427 220.16L74.517 222.594C74.517 222.594 66.3049 223.264 65.0697 222.594C63.8346 221.923 54.434 207.173 54.434 207.173Z" fill="#FFC8AF"/>
<path d="M101.11 231.268C100.939 230.919 100.798 230.555 100.689 230.182C100.569 229.833 100.415 229.404 100.208 228.915C100.001 228.425 99.8012 227.862 99.5074 227.265C99.2137 226.669 98.9266 225.998 98.5527 225.314C98.1788 224.63 97.7582 223.913 97.3108 223.155C96.2979 221.546 95.1664 220.016 93.9258 218.576C92.6631 217.156 91.2997 215.83 89.8465 214.607C89.1788 214.064 88.5111 213.527 87.8435 213.092C87.1758 212.656 86.6083 212.234 86.0475 211.885C85.4867 211.536 84.9592 211.214 84.5052 210.973C84.0512 210.732 83.6506 210.49 83.3168 210.303C82.9668 210.139 82.6278 209.954 82.3019 209.746C82.6725 209.859 83.0323 210.005 83.3769 210.182C83.7942 210.357 84.202 210.554 84.5987 210.772C85.066 211.02 85.6068 211.288 86.1744 211.644C86.7419 211.999 87.3695 212.368 88.0104 212.83C88.6514 213.293 89.3457 213.789 90.0134 214.325C91.4956 215.556 92.8796 216.901 94.1528 218.348C95.406 219.802 96.5423 221.353 97.5512 222.988C97.9985 223.752 98.4325 224.469 98.773 225.187C99.1135 225.904 99.4407 226.528 99.7011 227.165C99.9614 227.802 100.168 228.351 100.369 228.848C100.533 229.271 100.676 229.703 100.796 230.142C100.926 230.509 101.031 230.886 101.11 231.268Z" fill="#D37A57"/>
<path d="M110.631 231.035C110.631 231.035 110.55 230.941 110.424 230.74C110.297 230.539 110.11 230.25 109.903 229.855C109.322 228.736 108.827 227.575 108.421 226.382C107.893 224.88 107.379 223.029 106.778 221.018C106.178 218.832 105.317 216.728 104.214 214.749C103.045 212.811 101.491 211.136 99.6476 209.828C97.9651 208.601 96.3427 207.609 95.1076 206.59C94.1045 205.821 93.2338 204.893 92.5304 203.841C92.3471 203.55 92.1864 203.245 92.0497 202.929C91.9878 202.826 91.9448 202.712 91.9229 202.594C91.9229 202.594 92.1432 203.036 92.6439 203.76C93.3761 204.769 94.2589 205.657 95.2611 206.395C96.503 207.374 98.1254 208.34 99.8346 209.567C101.725 210.886 103.317 212.59 104.508 214.568C105.627 216.571 106.493 218.706 107.085 220.924C107.673 222.936 108.154 224.773 108.654 226.288C109.027 227.477 109.473 228.641 109.99 229.774C110.226 230.182 110.44 230.603 110.631 231.035Z" fill="#D37A57"/>
<path d="M117.507 226.615C117.457 226.511 117.421 226.401 117.401 226.287C117.34 226.025 117.267 225.71 117.174 225.321C117.08 224.933 116.967 224.389 116.793 223.806C116.619 223.223 116.473 222.539 116.212 221.795C115.952 221.051 115.718 220.273 115.378 219.435C115.037 218.597 114.663 217.712 114.256 216.786C113.31 214.806 112.226 212.894 111.011 211.067C109.766 209.258 108.391 207.541 106.898 205.932C106.231 205.208 105.563 204.504 104.895 203.92C104.228 203.337 103.607 202.76 103.013 202.271C102.418 201.781 101.871 201.373 101.39 200.997C100.909 200.622 100.482 200.327 100.122 200.085L99.3138 199.522C99.1335 199.388 99.04 199.314 99.0467 199.301C99.1548 199.343 99.2578 199.397 99.3538 199.462L100.202 199.978C100.569 200.199 101.01 200.481 101.504 200.843C101.998 201.205 102.579 201.587 103.166 202.083C103.754 202.579 104.428 203.089 105.089 203.712C105.75 204.336 106.424 205 107.165 205.724C108.681 207.337 110.074 209.063 111.332 210.886C112.559 212.727 113.643 214.659 114.576 216.666C114.984 217.604 115.384 218.483 115.678 219.348C115.972 220.212 116.259 220.997 116.479 221.741C116.7 222.485 116.866 223.156 117.02 223.753C117.174 224.349 117.274 224.865 117.34 225.295C117.407 225.724 117.461 226.012 117.507 226.273C117.524 226.387 117.524 226.502 117.507 226.615Z" fill="#D37A57"/>
<path d="M81.7077 200.582C81.7077 200.636 81.2337 200.71 80.5326 201.018C79.618 201.403 78.8207 202.023 78.2216 202.817C77.6225 203.61 77.2428 204.549 77.1209 205.537C77.0208 206.301 77.0809 206.784 77.0208 206.791C76.8681 206.385 76.8199 205.947 76.8806 205.517C76.9389 204.462 77.3092 203.447 77.9443 202.604C78.5794 201.761 79.4503 201.127 80.4459 200.784C80.8424 200.609 81.2769 200.54 81.7077 200.582Z" fill="#D37A57"/>
<path d="M88.4778 194.117C88.5312 194.211 87.3561 194.955 86.1944 196.202C85.0326 197.449 84.3383 198.656 84.2448 198.609C85.043 196.631 86.5544 195.027 88.4778 194.117Z" fill="#D37A57"/>
<path d="M183.759 114.502C182.604 114.984 182.37 116.366 182.39 117.626C182.39 119.195 182.804 119.45 184.079 122.078C186.169 126.376 188.666 134.528 188.666 134.528C188.666 134.528 186.616 155.112 187.965 159.946C188.342 161.227 189.026 162.397 189.957 163.352C190.888 164.307 192.038 165.018 193.306 165.423L191.437 181.32H213.797C213.797 181.32 213.002 165.933 212.521 161.24C212.014 156.278 212.348 126.275 212.348 126.275L210.151 110.258L204.97 101.24C204.185 101.755 203.604 102.529 203.325 103.428C203.046 104.327 203.087 105.296 203.441 106.168C204.61 109.46 205.378 115.782 205.378 115.782L192.418 96.2383C192.418 96.2383 189.875 96.8484 189.748 101.602C189.748 101.602 185.982 104.063 188.412 108.059C191.116 112.517 193.934 125.913 192.946 125.913L184.934 114.066L183.759 114.502Z" fill="#FFC8AF"/>
<path d="M191.417 181.321C191.417 181.321 191.417 180.966 191.517 180.269C191.617 179.571 191.711 178.532 191.858 177.191C192.165 174.509 192.619 170.487 193.193 165.411L193.253 165.505C192.21 165.169 191.243 164.629 190.409 163.916C189.486 163.154 188.754 162.185 188.272 161.087C187.791 159.894 187.525 158.625 187.484 157.339C187.409 155.998 187.378 154.635 187.391 153.249C187.451 147.624 187.885 141.342 188.519 134.516V134.57C187.471 131.258 186.309 127.765 184.854 124.225C184.487 123.34 184.099 122.461 183.659 121.59C183.17 120.727 182.741 119.831 182.377 118.908C182.254 118.406 182.2 117.889 182.217 117.373C182.217 116.85 182.294 116.331 182.444 115.831C182.591 115.301 182.922 114.841 183.378 114.537C183.606 114.404 183.845 114.292 184.093 114.201L184.8 113.906L184.921 113.859L184.994 113.967L193.38 126.31L193.073 126.377C193.183 125.344 193.169 124.302 193.033 123.273C192.917 122.217 192.739 121.169 192.498 120.135C192.015 118.019 191.391 115.938 190.629 113.906C189.895 111.835 188.967 109.823 188.065 107.751C187.586 106.681 187.46 105.486 187.705 104.339C187.977 103.176 188.654 102.149 189.614 101.442L189.541 101.57C189.662 100.539 189.911 99.5279 190.282 98.5594C190.481 98.0507 190.746 97.5706 191.07 97.1313C191.397 96.6544 191.863 96.2913 192.405 96.0921L192.512 96.0586L192.585 96.1659L192.739 96.3938C197.112 103.018 201.418 109.488 205.531 115.737L205.217 115.851C204.916 113.273 204.47 110.714 203.882 108.187C203.728 107.564 203.555 106.954 203.355 106.357C203.128 105.739 203.019 105.084 203.034 104.426C203.071 103.769 203.261 103.13 203.59 102.56C203.918 101.991 204.375 101.507 204.924 101.147L205.064 101.054L205.151 101.208L210.325 110.205C211.086 115.81 211.814 121.152 212.508 126.229C212.415 134.53 212.368 142.126 212.381 148.844C212.381 152.196 212.381 155.348 212.481 158.231C212.521 159.679 212.602 161.06 212.735 162.387C212.869 163.715 212.929 164.975 213.009 166.182C213.323 170.983 213.51 174.751 213.643 177.319C213.703 178.599 213.75 179.578 213.777 180.249C213.803 180.919 213.81 181.254 213.81 181.254C213.81 181.254 213.777 180.912 213.737 180.249C213.697 179.585 213.63 178.599 213.556 177.325C213.396 174.757 213.176 170.989 212.842 166.189C212.755 164.989 212.668 163.728 212.555 162.401C212.441 161.073 212.321 159.719 212.274 158.231C212.188 155.327 212.161 152.196 212.141 148.844C212.108 142.139 212.141 134.53 212.221 126.229C211.522 121.161 210.786 115.822 210.011 110.212V110.266C208.324 107.351 206.595 104.357 204.823 101.281L205.05 101.335C204.551 101.67 204.136 102.115 203.836 102.637C203.536 103.16 203.36 103.744 203.321 104.346C203.315 104.963 203.419 105.576 203.628 106.156C203.833 106.768 204.013 107.385 204.169 108.006C204.772 110.549 205.233 113.123 205.551 115.717L205.645 116.447L205.237 115.831L192.425 96.548L192.278 96.3201L192.458 96.3938C192 96.5804 191.605 96.8973 191.323 97.3057C191.019 97.7173 190.772 98.1684 190.589 98.6466C190.246 99.5938 190.022 100.58 189.921 101.583V101.657L189.855 101.711C188.969 102.367 188.342 103.317 188.085 104.392C187.859 105.471 187.98 106.593 188.432 107.597C189.32 109.642 190.262 111.68 190.996 113.759C191.763 115.806 192.392 117.902 192.879 120.034C193.12 121.082 193.298 122.143 193.413 123.212C193.555 124.273 193.566 125.347 193.447 126.41L193.393 126.84L193.146 126.477C190.255 122.2 187.438 118.043 184.78 114.121L184.974 114.174C184.513 114.382 183.986 114.55 183.592 114.778C183.198 115.045 182.912 115.444 182.784 115.904C182.648 116.375 182.578 116.862 182.577 117.352C182.561 117.837 182.611 118.322 182.724 118.794C183.081 119.716 183.5 120.612 183.979 121.476C184.42 122.347 184.814 123.239 185.181 124.158C186.636 127.718 187.791 131.211 188.833 134.536V134.59C188.165 141.409 187.738 147.691 187.658 153.303C187.658 154.702 187.685 156.058 187.738 157.372C187.769 158.635 188.025 159.881 188.493 161.053C188.954 162.074 189.623 162.987 190.457 163.732C191.291 164.478 192.27 165.041 193.333 165.384H193.406V165.451C192.786 170.54 192.305 174.509 191.978 177.218L191.597 180.295C191.477 180.966 191.417 181.321 191.417 181.321Z" fill="#D37A57"/>
<path d="M201.298 127.608C201.187 127.247 201.106 126.877 201.058 126.502C200.931 125.778 200.717 124.745 200.43 123.478C199.651 120.179 198.543 116.968 197.125 113.891C195.677 110.822 193.991 107.872 192.085 105.067C191.364 103.988 190.749 103.123 190.342 102.526C190.111 102.225 189.903 101.907 189.721 101.574C189.988 101.843 190.232 102.135 190.449 102.446C190.903 103.016 191.537 103.86 192.292 104.927C194.268 107.704 195.991 110.655 197.439 113.743C198.873 116.839 199.957 120.086 200.671 123.425C200.924 124.705 201.111 125.751 201.191 126.475C201.26 126.849 201.296 127.228 201.298 127.608Z" fill="#D37A57"/>
<path d="M208.242 122.616C207.594 121.505 207.047 120.338 206.606 119.129C206.055 117.967 205.608 116.758 205.271 115.516C205.922 116.622 206.47 117.787 206.906 118.995C207.458 120.16 207.905 121.371 208.242 122.616Z" fill="#D37A57"/>
<path d="M189.614 174.737C185.695 209.514 180.588 246.544 174.712 285.001H220.226C228.786 265.974 223.565 249.373 221.268 225.712L213.763 171.988L189.614 174.737Z" fill="#FF5811"/>
<path d="M174.726 285C174.718 284.927 174.718 284.852 174.726 284.779L174.806 284.108C174.892 283.512 175.006 282.66 175.153 281.574L176.488 272.275C177.636 264.404 179.226 253.569 180.975 241.594C182.724 229.62 184.146 218.738 185.101 210.867C185.588 206.925 185.955 203.74 186.203 201.534C186.329 200.448 186.43 199.597 186.503 198.993L186.583 198.323C186.59 198.248 186.606 198.173 186.63 198.102C186.63 198.102 186.63 198.175 186.63 198.323L186.576 198.993C186.523 199.597 186.443 200.455 186.343 201.541C186.136 203.747 185.809 206.945 185.348 210.887C184.453 218.772 183.045 229.66 181.342 241.641C179.639 253.623 177.964 264.437 176.749 272.308C176.134 276.21 175.64 279.375 175.293 281.587C175.119 282.667 174.979 283.512 174.886 284.115C174.839 284.383 174.799 284.605 174.766 284.786C174.759 284.858 174.745 284.93 174.726 285Z" fill="#263238"/>
<path d="M273.338 284.698H143.546L160.298 193.227C160.586 191.659 161.411 190.241 162.63 189.218C163.849 188.196 165.386 187.634 166.974 187.629H283.614C284.615 187.631 285.603 187.854 286.509 188.284C287.414 188.713 288.214 189.338 288.852 190.113C289.489 190.888 289.949 191.795 290.197 192.769C290.446 193.743 290.478 194.76 290.29 195.748L273.338 284.698Z" fill="#455A64"/>
<path d="M143.546 284.699H94.3197L94.52 284.552C98.9087 281.234 104.212 279.361 109.703 279.188L144.881 278.176L143.546 284.699Z" fill="#455A64"/>
<path d="M174.726 187.731C174.726 187.764 174.365 187.664 173.677 187.657C172.673 187.672 171.686 187.92 170.793 188.381C169.379 189.102 168.184 190.193 167.335 191.539C166.262 193.358 165.541 195.364 165.211 197.452C164.791 199.766 164.417 202.333 163.956 205.076C163.496 207.818 162.988 210.741 162.414 213.792C161.286 219.94 159.944 226.685 158.488 233.745C155.557 247.871 152.84 260.644 151.07 269.95C150.176 274.589 149.488 278.35 149.021 280.952C148.787 282.226 148.607 283.225 148.48 283.942C148.413 284.264 148.366 284.519 148.326 284.72C148.286 284.921 148.266 284.988 148.253 284.981C148.244 284.892 148.244 284.802 148.253 284.713C148.253 284.512 148.32 284.25 148.36 283.929C148.473 283.205 148.62 282.199 148.814 280.918C149.221 278.303 149.862 274.535 150.71 269.882C152.399 260.576 155.063 247.791 157.994 233.678C159.45 226.618 160.798 219.886 161.953 213.745C162.541 210.681 163.055 207.757 163.542 205.029C164.03 202.3 164.41 199.739 164.878 197.406C165.232 195.283 165.989 193.248 167.108 191.412C167.998 190.04 169.245 188.939 170.713 188.227C171.631 187.762 172.649 187.532 173.677 187.556C174.033 187.564 174.386 187.622 174.726 187.731Z" fill="#263238"/>
<path d="M229.54 234.107C229.54 235.354 229.172 236.572 228.482 237.608C227.793 238.645 226.813 239.453 225.666 239.93C224.519 240.407 223.257 240.531 222.04 240.288C220.822 240.045 219.704 239.445 218.826 238.563C217.949 237.682 217.351 236.559 217.109 235.337C216.867 234.114 216.991 232.847 217.466 231.695C217.941 230.544 218.745 229.559 219.777 228.867C220.809 228.174 222.023 227.805 223.264 227.805C224.929 227.805 226.525 228.469 227.702 229.651C228.879 230.833 229.54 232.436 229.54 234.107Z" fill="#F5F5F5"/>
<path d="M305.279 284.807C305.279 284.901 236.931 284.981 152.646 284.981C68.3613 284.981 0 284.901 0 284.807C0 284.713 68.3279 284.633 152.646 284.633C236.964 284.633 305.279 284.707 305.279 284.807Z" fill="#263238"/>
<path d="M124.318 44.6475L122.535 27.8122L113.982 29.7498L106.611 16.6758L111.205 34.3492L119.878 32.3512L124.318 44.6475Z" fill="#FF5811"/>
<path d="M120.832 47.8225L112.887 39.6094L109.142 44.2289L99.7878 40.3603L109.576 47.8426L113.361 43.1427L120.832 47.8225Z" fill="#FF5811"/>
<path d="M206.72 55.0853L213.944 41.8906L220.293 46.4296L230.809 38.25L221.001 51.1631L214.564 46.5369L206.72 55.0853Z" fill="#FF5811"/>
<path d="M219.973 62.6161L227.444 59.418L228.639 63.481L235.843 63.5279L227.363 65.7337L226.162 61.6037L219.973 62.6161Z" fill="#FF5811"/>
<path d="M168.149 11.3504C168.149 11.3504 168.45 11.156 169.05 10.7939C169.948 10.2655 170.878 9.79522 171.835 9.38593C175.558 7.77619 179.595 7.02914 183.645 7.20022C184.327 7.22079 185.006 7.27673 185.682 7.36784C186.399 7.43736 187.109 7.56745 187.805 7.75671C188.54 7.94908 189.247 8.23761 189.908 8.6149C190.611 9.01177 191.2 9.58458 191.617 10.2776C192.041 11.0202 192.188 11.8902 192.031 12.7315C191.833 13.5957 191.406 14.3902 190.796 15.0312C189.493 16.3493 187.888 17.3275 186.122 17.8807C182.266 19.3013 178.156 19.8929 174.058 19.6172C169.417 19.3237 164.91 17.9339 160.905 15.5609L160.812 15.5072L160.872 15.4134C162.58 12.7051 164.971 10.4985 167.802 9.01718C170.793 7.42762 174.081 6.48224 177.456 6.24146C181.017 6.01737 184.592 6.30637 188.072 7.09966C189.852 7.48852 191.633 7.96232 193.413 8.52103C195.253 9.02136 197.041 9.6948 198.754 10.5324C200.526 11.4069 202.011 12.7727 203.034 14.468C203.541 15.3413 203.857 16.3125 203.962 17.3175C204.054 18.3402 203.883 19.3695 203.468 20.3078C202.529 22.1575 201.002 23.6394 199.128 24.5183C197.278 25.4548 195.314 26.1467 193.286 26.5766C184.854 28.6327 176.082 28.8612 167.555 27.247C167.001 27.1532 166.46 27.0191 165.906 26.9051C165.352 26.7911 164.811 26.6637 164.263 26.5229C163.154 26.2756 162.067 25.9393 161.012 25.5172C159.935 25.0989 158.932 24.5104 158.041 23.774C157.106 23.0218 156.466 21.9631 156.231 20.7838C156.035 19.5877 156.302 18.3615 156.979 17.3577C157.645 16.374 158.49 15.5255 159.47 14.8569C160.44 14.1861 161.471 13.607 162.547 13.1271C163.075 12.8589 163.622 12.6243 164.163 12.3963C164.704 12.1683 165.251 11.9337 165.812 11.7258C170.32 10.0264 175.086 9.11917 179.9 9.04399C182.345 9.00311 184.788 9.17359 187.204 9.55355C187.812 9.64741 188.419 9.74798 189.02 9.88878C189.621 10.0296 190.235 10.1301 190.829 10.2978C192.043 10.5765 193.229 10.9624 194.375 11.451C195.541 11.9346 196.623 12.6023 197.579 13.4288C198.56 14.2668 199.26 15.3883 199.582 16.6403L199.682 17.1164L199.723 17.6058C199.749 17.9293 199.749 18.2545 199.723 18.578C199.642 19.2216 199.455 19.8471 199.168 20.4284C198.584 21.604 197.756 22.6398 196.738 23.4656C195.754 24.2909 194.679 24.9995 193.533 25.5776C192.966 25.8793 192.378 26.1341 191.791 26.3821C191.203 26.6302 190.616 26.885 190.015 27.1129C187.625 28.0498 185.171 28.8094 182.671 29.3858C177.59 30.567 172.366 31.0006 167.161 30.6731C164.501 30.5743 161.895 29.8875 159.53 28.6617C158.332 28.0256 157.307 27.1049 156.545 25.9799C155.801 24.805 155.456 23.4192 155.564 22.0308C155.671 20.9134 156.042 19.8378 156.645 18.8931C157.238 17.96 157.963 17.1177 158.795 16.3923C160.452 14.9742 162.331 13.8415 164.357 13.0399C168.316 11.3532 172.525 10.3338 176.815 10.0229C178.932 9.86745 181.057 9.88315 183.171 10.0698C184.226 10.1637 185.274 10.2911 186.316 10.4788C187.363 10.6306 188.393 10.8798 189.394 11.223C190.402 11.5547 191.356 12.0337 192.225 12.6444C193.128 13.2402 193.844 14.082 194.288 15.0714C194.711 16.0774 194.746 17.2052 194.388 18.236C194.031 19.2438 193.422 20.1421 192.619 20.8441C191.016 22.2655 188.947 22.8555 186.977 23.3449C185.007 23.8344 183.018 24.2903 181.042 24.7261C177.135 25.6395 173.171 26.2824 169.177 26.6503C165.249 27.0097 161.289 26.8179 157.413 26.0804C153.608 25.3666 149.988 23.8839 146.771 21.7224L146.597 21.6085L146.751 21.4677C152.175 16.7605 158.839 13.7289 165.939 12.7382C172.688 11.7147 179.587 12.6089 185.855 15.3195C186.605 15.6738 187.305 16.1246 187.938 16.6604C188.587 17.1937 189.086 17.8867 189.387 18.6718C189.649 19.4858 189.607 20.3679 189.267 21.1525C188.907 21.9011 188.365 22.5467 187.691 23.0298C186.369 23.9349 184.908 24.6145 183.365 25.0412C181.875 25.5268 180.351 25.8967 178.805 26.1475C175.783 26.6201 172.707 26.6201 169.685 26.1475C168.925 26.0548 168.201 25.7687 167.582 25.3161C167.277 25.0651 167.046 24.7368 166.911 24.3654C166.776 23.9939 166.742 23.593 166.814 23.2042C167.005 22.4625 167.411 21.7948 167.982 21.2866C168.519 20.7796 169.127 20.3528 169.785 20.0195C174.88 17.7266 180.491 16.8335 186.042 17.4315C187.361 17.553 188.656 17.853 189.895 18.3232C191.121 18.7836 192.195 19.5803 192.993 20.6229C193.783 21.6496 194.162 22.9366 194.054 24.23C193.855 25.4818 193.186 26.6096 192.185 27.3811C191.249 28.1289 190.245 28.7866 189.187 29.3456C188.17 29.9077 187.12 30.407 186.042 30.8407C183.977 31.6679 181.828 32.2638 179.633 32.6174C175.633 33.2703 171.543 33.0923 167.615 32.0945H167.488L167.562 31.9939C169.247 29.7002 171.57 27.9578 174.238 26.9856C176.563 26.108 179.077 25.8583 181.529 26.2615C182.63 26.4133 183.684 26.8095 184.613 27.4214C185.043 27.7233 185.412 28.103 185.702 28.541C185.971 28.9691 186.14 29.4527 186.196 29.9557C186.267 30.8955 186.007 31.8304 185.461 32.5973C184.992 33.2877 184.41 33.8931 183.739 34.3875C182.598 35.1577 181.355 35.7626 180.047 36.1843C179.117 36.5214 178.213 36.927 177.343 37.3978C176.818 37.6897 176.329 38.0431 175.887 38.4505C175.74 38.5845 175.64 38.6985 175.567 38.7723L175.46 38.8796C175.59 38.7228 175.728 38.5728 175.874 38.4303C176.309 38.0153 176.794 37.655 177.316 37.3576C178.173 36.8766 179.066 36.4641 179.987 36.124C181.285 35.6906 182.518 35.0815 183.652 34.3137C184.313 33.8235 184.884 33.2224 185.341 32.537C185.87 31.7909 186.12 30.8819 186.049 29.9691C185.994 29.4908 185.83 29.0318 185.568 28.6282C185.31 28.1832 184.965 27.7954 184.553 27.4884C183.64 26.8872 182.604 26.4999 181.522 26.3553C179.094 25.9611 176.606 26.2131 174.305 27.0861C171.668 28.0563 169.374 29.7841 167.708 32.0543L167.662 31.9202C171.566 32.9004 175.628 33.0693 179.599 32.4163C181.778 32.057 183.911 31.4613 185.962 30.6396C187.032 30.2097 188.075 29.7172 189.087 29.1646C190.131 28.6105 191.121 27.9595 192.045 27.2202C192.997 26.4817 193.636 25.4087 193.834 24.2165C193.926 22.9839 193.56 21.7606 192.806 20.7838C192.034 19.7761 190.995 19.007 189.808 18.5646C188.59 18.102 187.313 17.8109 186.016 17.6997C180.51 17.0985 174.945 17.9802 169.892 20.2541C169.258 20.575 168.673 20.986 168.156 21.4744C167.627 21.9437 167.249 22.5595 167.067 23.2444C167.005 23.5856 167.034 23.9374 167.151 24.2637C167.268 24.59 167.47 24.8792 167.735 25.1016C168.323 25.5363 169.013 25.8111 169.738 25.8994C172.729 26.3653 175.774 26.3653 178.765 25.8994C180.295 25.65 181.803 25.2847 183.278 24.8066C184.792 24.3749 186.224 23.6953 187.518 22.7952C188.15 22.3371 188.659 21.729 189 21.0252C189.311 20.3085 189.349 19.5019 189.107 18.759C188.835 18.02 188.374 17.3657 187.771 16.8616C187.166 16.3273 186.492 15.8764 185.769 15.5207C179.554 12.8453 172.719 11.9653 166.033 12.9796C158.982 13.9765 152.37 17.0039 146.998 21.6956V21.4341C150.184 23.5639 153.765 25.0277 157.527 25.7385C161.372 26.4673 165.3 26.6569 169.197 26.3017C173.149 25.9361 177.071 25.2977 180.935 24.3909C182.938 23.9551 184.881 23.4857 186.863 23.0097C188.846 22.5337 190.869 21.9437 192.358 20.5893C193.119 19.9292 193.694 19.081 194.027 18.1288C194.358 17.1741 194.325 16.1303 193.934 15.1988C193.521 14.2714 192.854 13.4809 192.011 12.9193C191.166 12.3312 190.242 11.8662 189.267 11.5381C188.294 11.2068 187.293 10.9644 186.276 10.814C185.248 10.633 184.206 10.4989 183.165 10.405C181.066 10.224 178.956 10.2105 176.855 10.3648C172.605 10.6748 168.434 11.685 164.51 13.3551C162.519 14.1435 160.671 15.2582 159.042 16.6537C157.467 18.0617 156.105 19.9189 155.931 22.0644C155.832 23.3617 156.15 24.6566 156.839 25.7586C157.57 26.8342 158.551 27.7154 159.697 28.3265C162.017 29.5269 164.572 30.1999 167.181 30.2976C172.354 30.6226 177.547 30.1936 182.597 29.0238C185.096 28.45 187.551 27.6949 189.941 26.7643C190.533 26.5363 191.121 26.295 191.704 26.0402C192.285 25.7921 192.866 25.5374 193.42 25.2424C194.543 24.6768 195.598 23.984 196.565 23.1773C197.532 22.3971 198.326 21.4219 198.895 20.3145C199.163 19.7636 199.341 19.1726 199.422 18.5646C199.445 18.2633 199.445 17.9607 199.422 17.6594L199.382 17.2035L199.289 16.7543C198.98 15.5664 198.31 14.5047 197.372 13.7171C196.444 12.9149 195.394 12.2675 194.261 11.7996C193.133 11.3165 191.965 10.9351 190.769 10.6598C190.175 10.4989 189.574 10.3782 188.973 10.2508C188.372 10.1234 187.778 10.0162 187.171 9.9223C180.021 8.78601 172.7 9.52508 165.919 12.0678C165.365 12.2622 164.824 12.4835 164.283 12.7382C163.743 12.993 163.208 13.1942 162.681 13.4623C161.621 13.9356 160.606 14.5056 159.65 15.1653C158.703 15.8059 157.887 16.623 157.246 17.5723C156.608 18.5117 156.355 19.6617 156.539 20.7838C156.769 21.8719 157.368 22.8459 158.234 23.5394C159.098 24.2589 160.072 24.834 161.119 25.2424C162.162 25.6555 163.235 25.985 164.33 26.2279C164.871 26.3687 165.412 26.5028 165.959 26.6101C166.507 26.7174 167.047 26.8582 167.595 26.952C176.08 28.5561 184.809 28.3276 193.2 26.2816C195.205 25.8653 197.149 25.1892 198.981 24.2702C200.751 23.3315 202.4 22.0174 203.194 20.2005C203.592 19.3093 203.756 18.3304 203.668 17.3577C203.567 16.3903 203.262 15.4555 202.774 14.6155C201.781 12.9655 200.337 11.6366 198.614 10.7872C196.926 9.95641 195.164 9.28312 193.353 8.77581C191.57 8.21933 189.788 7.7433 188.012 7.36113C184.558 6.56361 181.007 6.27006 177.47 6.48953C174.128 6.72232 170.871 7.65408 167.909 9.22502C165.112 10.6854 162.747 12.8589 161.052 15.5274L161.012 15.3732C164.987 17.7263 169.459 19.1045 174.065 19.3959C178.145 19.6825 182.24 19.1022 186.082 17.693C187.831 17.1548 189.422 16.1949 190.716 14.8971C191.287 14.2919 191.692 13.5479 191.891 12.7382C192.044 11.9317 191.904 11.097 191.497 10.3849C191.092 9.71248 190.519 9.15785 189.835 8.77581C189.186 8.40059 188.489 8.11422 187.765 7.92432C187.076 7.73498 186.372 7.60268 185.662 7.52875C184.994 7.43489 184.326 7.38795 183.659 7.35443C179.622 7.17473 175.597 7.90079 171.875 9.4798C170.918 9.88187 169.986 10.3408 169.084 10.8542C168.463 11.1761 168.149 11.3504 168.149 11.3504Z" fill="#263238"/>
</g>
<defs>
<clipPath id="clip0_2_3004">
<rect width="306" height="285" fill="white"/>
</clipPath>
</defs>
</svg>
