<svg width="1465" height="555" viewBox="0 0 1465 555" fill="none" xmlns="http://www.w3.org/2000/svg">
<mask id="mask0_2_193" style="mask-type:alpha" maskUnits="userSpaceOnUse" x="0" y="0" width="1465" height="555">
<rect x="1" y="1" width="1463" height="553" rx="12" fill="url(#paint0_linear_2_193)" stroke="url(#paint1_linear_2_193)" stroke-width="2"/>
</mask>
<g mask="url(#mask0_2_193)">
<rect x="2" y="2" width="1462.05" height="539.944" rx="11" fill="url(#paint2_linear_2_193)" stroke="url(#paint3_linear_2_193)" stroke-width="4"/>
<line y1="-0.5" x2="3441.4" y2="-0.5" transform="matrix(1 -0.000187336 0.0020681 0.999998 -1267.94 37.9473)" stroke="#6D6CC2" stroke-opacity="0.14"/>
<line y1="-0.5" x2="3441.4" y2="-0.5" transform="matrix(1 -0.000187336 0.0020681 0.999998 -1267.86 77.7871)" stroke="#6D6CC2" stroke-opacity="0.14"/>
<line y1="-0.5" x2="3441.4" y2="-0.5" transform="matrix(1 -0.000187336 0.0020681 0.999998 -1267.78 117.621)" stroke="#6D6CC2" stroke-opacity="0.14"/>
<line y1="-0.5" x2="3441.4" y2="-0.5" transform="matrix(1 -0.000187336 0.0020681 0.999998 -1267.7 157.459)" stroke="#6D6CC2" stroke-opacity="0.14"/>
<line y1="-0.5" x2="3441.4" y2="-0.5" transform="matrix(1 -0.000187336 0.0020681 0.999998 -1267.61 197.293)" stroke="#6D6CC2" stroke-opacity="0.14"/>
<line y1="-0.5" x2="3441.4" y2="-0.5" transform="matrix(1 -0.000187336 0.0020681 0.999998 -1267.53 237.133)" stroke="#6D6CC2" stroke-opacity="0.14"/>
<line y1="-0.5" x2="3441.4" y2="-0.5" transform="matrix(1 -0.000187336 0.0020681 0.999998 -1267.45 276.967)" stroke="#6D6CC2" stroke-opacity="0.14"/>
<line y1="-0.5" x2="3441.4" y2="-0.5" transform="matrix(1 -0.000187336 0.0020681 0.999998 -1267.37 316.805)" stroke="#6D6CC2" stroke-opacity="0.14"/>
<line y1="-0.5" x2="3441.4" y2="-0.5" transform="matrix(1 -0.000187336 0.0020681 0.999998 -1267.29 356.639)" stroke="#6D6CC2" stroke-opacity="0.14"/>
<line y1="-0.5" x2="3441.4" y2="-0.5" transform="matrix(1 -0.000187336 0.0020681 0.999998 -1267.2 396.479)" stroke="#6D6CC2" stroke-opacity="0.14"/>
<line y1="-0.5" x2="3441.4" y2="-0.5" transform="matrix(1 -0.000187336 0.0020681 0.999998 -1267.12 436.314)" stroke="#6D6CC2" stroke-opacity="0.14"/>
<line y1="-0.5" x2="3441.4" y2="-0.5" transform="matrix(1 -0.000187336 0.0020681 0.999998 -1267.04 476.154)" stroke="#6D6CC2" stroke-opacity="0.14"/>
<line y1="-0.5" x2="3441.4" y2="-0.5" transform="matrix(1 -0.000187336 0.0020681 0.999998 -1266.95 515.992)" stroke="#6D6CC2" stroke-opacity="0.14"/>
<line y1="-0.5" x2="3441.4" y2="-0.5" transform="matrix(1 -0.000187336 0.0020681 0.999998 -1266.87 555.826)" stroke="#6D6CC2" stroke-opacity="0.14"/>
<line y1="-0.5" x2="1035.76" y2="-0.5" transform="matrix(0.00206792 0.999998 -1 0.000187319 1420.9 -201.574)" stroke="#6D6CC2" stroke-opacity="0.14"/>
<line y1="-0.5" x2="1035.76" y2="-0.5" transform="matrix(0.00206792 0.999998 -1 0.000187319 1288.54 -201.555)" stroke="#6D6CC2" stroke-opacity="0.14"/>
<line y1="-0.5" x2="1035.76" y2="-0.5" transform="matrix(0.00206792 0.999998 -1 0.000187319 1156.18 -201.523)" stroke="#6D6CC2" stroke-opacity="0.14"/>
<line y1="-0.5" x2="1035.76" y2="-0.5" transform="matrix(0.00206792 0.999998 -1 0.000187319 1023.82 -201.5)" stroke="#6D6CC2" stroke-opacity="0.14"/>
<line y1="-0.5" x2="1035.76" y2="-0.5" transform="matrix(0.00206792 0.999998 -1 0.000187319 891.457 -201.473)" stroke="#6D6CC2" stroke-opacity="0.14"/>
<line y1="-0.5" x2="1035.76" y2="-0.5" transform="matrix(0.00206792 0.999998 -1 0.000187319 759.095 -201.447)" stroke="#6D6CC2" stroke-opacity="0.14"/>
<line y1="-0.5" x2="1035.76" y2="-0.5" transform="matrix(0.00206792 0.999998 -1 0.000187319 626.735 -201.426)" stroke="#6D6CC2" stroke-opacity="0.14"/>
<line y1="-0.5" x2="1035.76" y2="-0.5" transform="matrix(0.00206792 0.999998 -1 0.000187319 494.372 -201.398)" stroke="#6D6CC2" stroke-opacity="0.14"/>
<line y1="-0.5" x2="1035.76" y2="-0.5" transform="matrix(0.00206792 0.999998 -1 0.000187319 362.012 -201.379)" stroke="#6D6CC2" stroke-opacity="0.14"/>
<line y1="-0.5" x2="1035.76" y2="-0.5" transform="matrix(0.00206792 0.999998 -1 0.000187319 229.652 -201.352)" stroke="#6D6CC2" stroke-opacity="0.14"/>
<line y1="-0.5" x2="1035.76" y2="-0.5" transform="matrix(0.00206792 0.999998 -1 0.000187319 97.2901 -201.322)" stroke="#6D6CC2" stroke-opacity="0.14"/>
</g>
<defs>
<linearGradient id="paint0_linear_2_193" x1="0" y1="0" x2="197.659" y2="844.433" gradientUnits="userSpaceOnUse">
<stop stop-color="#201A5E"/>
<stop offset="1" stop-color="#000104"/>
</linearGradient>
<linearGradient id="paint1_linear_2_193" x1="-27.1669" y1="269.09" x2="1567.63" y2="269.09" gradientUnits="userSpaceOnUse">
<stop stop-color="#247CFF"/>
<stop offset="1" stop-color="#FF5811"/>
</linearGradient>
<linearGradient id="paint2_linear_2_193" x1="0" y1="0" x2="190.13" y2="829.37" gradientUnits="userSpaceOnUse">
<stop stop-color="#201A5E"/>
<stop offset="1" stop-color="#000104"/>
</linearGradient>
<linearGradient id="paint3_linear_2_193" x1="-27.1863" y1="263.73" x2="1568.75" y2="263.73" gradientUnits="userSpaceOnUse">
<stop stop-color="#247CFF"/>
<stop offset="1" stop-color="#FF5811"/>
</linearGradient>
</defs>
</svg>
