<svg width="600" height="753" viewBox="0 0 600 753" fill="none" xmlns="http://www.w3.org/2000/svg">
<mask id="mask0_2_6506" style="mask-type:alpha" maskUnits="userSpaceOnUse" x="0" y="0" width="600" height="753">
<rect x="1" y="1" width="597.572" height="751" rx="12" fill="url(#paint0_linear_2_6506)" stroke="url(#paint1_linear_2_6506)" stroke-width="2"/>
</mask>
<g mask="url(#mask0_2_6506)">
<rect x="2" y="2" width="596" height="734" rx="11" fill="url(#paint2_linear_2_6506)" stroke="url(#paint3_linear_2_6506)" stroke-width="4"/>
<line y1="-0.5" x2="1408.44" y2="-0.5" transform="matrix(1 -0.000621039 0.000623841 1 -518.923 51.4844)" stroke="#6D6CC2" stroke-opacity="0.14"/>
<line y1="-0.5" x2="1408.44" y2="-0.5" transform="matrix(1 -0.000621039 0.000623841 1 -518.89 105.537)" stroke="#6D6CC2" stroke-opacity="0.14"/>
<line y1="-0.5" x2="1408.44" y2="-0.5" transform="matrix(1 -0.000621039 0.000623841 1 -518.855 159.583)" stroke="#6D6CC2" stroke-opacity="0.14"/>
<line y1="-0.5" x2="1408.44" y2="-0.5" transform="matrix(1 -0.000621039 0.000623841 1 -518.822 213.634)" stroke="#6D6CC2" stroke-opacity="0.14"/>
<line y1="-0.5" x2="1408.44" y2="-0.5" transform="matrix(1 -0.000621039 0.000623841 1 -518.788 267.678)" stroke="#6D6CC2" stroke-opacity="0.14"/>
<line y1="-0.5" x2="1408.44" y2="-0.5" transform="matrix(1 -0.000621039 0.000623841 1 -518.755 321.73)" stroke="#6D6CC2" stroke-opacity="0.14"/>
<line y1="-0.5" x2="1408.44" y2="-0.5" transform="matrix(1 -0.000621039 0.000623841 1 -518.721 375.776)" stroke="#6D6CC2" stroke-opacity="0.14"/>
<line y1="-0.5" x2="1408.44" y2="-0.5" transform="matrix(1 -0.000621039 0.000623841 1 -518.687 429.827)" stroke="#6D6CC2" stroke-opacity="0.14"/>
<line y1="-0.5" x2="1408.44" y2="-0.5" transform="matrix(1 -0.000621039 0.000623841 1 -518.654 483.871)" stroke="#6D6CC2" stroke-opacity="0.14"/>
<line y1="-0.5" x2="1408.44" y2="-0.5" transform="matrix(1 -0.000621039 0.000623841 1 -518.621 537.924)" stroke="#6D6CC2" stroke-opacity="0.14"/>
<line y1="-0.5" x2="1408.44" y2="-0.5" transform="matrix(1 -0.000621039 0.000623841 1 -518.586 591.974)" stroke="#6D6CC2" stroke-opacity="0.14"/>
<line y1="-0.5" x2="1408.44" y2="-0.5" transform="matrix(1 -0.000621039 0.000623841 1 -518.553 646.024)" stroke="#6D6CC2" stroke-opacity="0.14"/>
<line y1="-0.5" x2="1408.44" y2="-0.5" transform="matrix(1 -0.000621039 0.000623841 1 -518.519 700.075)" stroke="#6D6CC2" stroke-opacity="0.14"/>
<line y1="-0.5" x2="1408.44" y2="-0.5" transform="matrix(1 -0.000621039 0.000623841 1 -518.485 754.121)" stroke="#6D6CC2" stroke-opacity="0.14"/>
<line y1="-0.5" x2="1405.27" y2="-0.5" transform="matrix(0.000623786 1 -1 0.000620983 581.524 -273.485)" stroke="#6D6CC2" stroke-opacity="0.14"/>
<line y1="-0.5" x2="1405.27" y2="-0.5" transform="matrix(0.000623786 1 -1 0.000620983 527.354 -273.459)" stroke="#6D6CC2" stroke-opacity="0.14"/>
<line y1="-0.5" x2="1405.27" y2="-0.5" transform="matrix(0.000623786 1 -1 0.000620983 473.182 -273.417)" stroke="#6D6CC2" stroke-opacity="0.14"/>
<line y1="-0.5" x2="1405.27" y2="-0.5" transform="matrix(0.000623786 1 -1 0.000620983 419.012 -273.385)" stroke="#6D6CC2" stroke-opacity="0.14"/>
<line y1="-0.5" x2="1405.27" y2="-0.5" transform="matrix(0.000623786 1 -1 0.000620983 364.841 -273.349)" stroke="#6D6CC2" stroke-opacity="0.14"/>
<line y1="-0.5" x2="1405.27" y2="-0.5" transform="matrix(0.000623786 1 -1 0.000620983 310.67 -273.314)" stroke="#6D6CC2" stroke-opacity="0.14"/>
<line y1="-0.5" x2="1405.27" y2="-0.5" transform="matrix(0.000623786 1 -1 0.000620983 256.5 -273.284)" stroke="#6D6CC2" stroke-opacity="0.14"/>
<line y1="-0.5" x2="1405.27" y2="-0.5" transform="matrix(0.000623786 1 -1 0.000620983 202.329 -273.246)" stroke="#6D6CC2" stroke-opacity="0.14"/>
<line y1="-0.5" x2="1405.27" y2="-0.5" transform="matrix(0.000623786 1 -1 0.000620983 148.159 -273.22)" stroke="#6D6CC2" stroke-opacity="0.14"/>
<line y1="-0.5" x2="1405.27" y2="-0.5" transform="matrix(0.000623786 1 -1 0.000620983 93.9883 -273.184)" stroke="#6D6CC2" stroke-opacity="0.14"/>
<line y1="-0.5" x2="1405.27" y2="-0.5" transform="matrix(0.000623786 1 -1 0.000620983 39.8174 -273.144)" stroke="#6D6CC2" stroke-opacity="0.14"/>
</g>
<defs>
<linearGradient id="paint0_linear_2_6506" x1="0" y1="0" x2="585.304" y2="754.28" gradientUnits="userSpaceOnUse">
<stop stop-color="#201A5E"/>
<stop offset="1" stop-color="#000104"/>
</linearGradient>
<linearGradient id="paint1_linear_2_6506" x1="-11.1184" y1="365.09" x2="641.575" y2="365.09" gradientUnits="userSpaceOnUse">
<stop stop-color="#247CFF"/>
<stop offset="1" stop-color="#FF5811"/>
</linearGradient>
<linearGradient id="paint2_linear_2_6506" x1="0" y1="0" x2="570.569" y2="750.771" gradientUnits="userSpaceOnUse">
<stop stop-color="#201A5E"/>
<stop offset="1" stop-color="#000104"/>
</linearGradient>
<linearGradient id="paint3_linear_2_6506" x1="-11.1264" y1="357.817" x2="642.033" y2="357.817" gradientUnits="userSpaceOnUse">
<stop stop-color="#247CFF"/>
<stop offset="1" stop-color="#FF5811"/>
</linearGradient>
</defs>
</svg>
