<svg width="600" height="734" viewBox="0 0 600 734" fill="none" xmlns="http://www.w3.org/2000/svg">
<mask id="mask0_2_6077" style="mask-type:alpha" maskUnits="userSpaceOnUse" x="0" y="0" width="600" height="734">
<rect x="1" y="1" width="597.572" height="732" rx="12" fill="url(#paint0_linear_2_6077)" stroke="url(#paint1_linear_2_6077)" stroke-width="2"/>
</mask>
<g mask="url(#mask0_2_6077)">
<rect x="2" y="2" width="595.572" height="730" rx="11" fill="url(#paint2_linear_2_6077)" stroke="url(#paint3_linear_2_6077)" stroke-width="4"/>
<line y1="-0.5" x2="1408.44" y2="-0.5" transform="matrix(1 -0.000605368 0.00063999 1 -518.923 50.1836)" stroke="#6D6CC2" stroke-opacity="0.14"/>
<line y1="-0.5" x2="1408.44" y2="-0.5" transform="matrix(1 -0.000605368 0.00063999 1 -518.89 102.872)" stroke="#6D6CC2" stroke-opacity="0.14"/>
<line y1="-0.5" x2="1408.44" y2="-0.5" transform="matrix(1 -0.000605368 0.00063999 1 -518.855 155.554)" stroke="#6D6CC2" stroke-opacity="0.14"/>
<line y1="-0.5" x2="1408.44" y2="-0.5" transform="matrix(1 -0.000605368 0.00063999 1 -518.822 208.242)" stroke="#6D6CC2" stroke-opacity="0.14"/>
<line y1="-0.5" x2="1408.44" y2="-0.5" transform="matrix(1 -0.000605368 0.00063999 1 -518.789 260.922)" stroke="#6D6CC2" stroke-opacity="0.14"/>
<line y1="-0.5" x2="1408.44" y2="-0.5" transform="matrix(1 -0.000605368 0.00063999 1 -518.755 313.61)" stroke="#6D6CC2" stroke-opacity="0.14"/>
<line y1="-0.5" x2="1408.44" y2="-0.5" transform="matrix(1 -0.000605368 0.00063999 1 -518.721 366.292)" stroke="#6D6CC2" stroke-opacity="0.14"/>
<line y1="-0.5" x2="1408.44" y2="-0.5" transform="matrix(1 -0.000605368 0.00063999 1 -518.687 418.98)" stroke="#6D6CC2" stroke-opacity="0.14"/>
<line y1="-0.5" x2="1408.44" y2="-0.5" transform="matrix(1 -0.000605368 0.00063999 1 -518.654 471.66)" stroke="#6D6CC2" stroke-opacity="0.14"/>
<line y1="-0.5" x2="1408.44" y2="-0.5" transform="matrix(1 -0.000605368 0.00063999 1 -518.621 524.349)" stroke="#6D6CC2" stroke-opacity="0.14"/>
<line y1="-0.5" x2="1408.44" y2="-0.5" transform="matrix(1 -0.000605368 0.00063999 1 -518.586 577.034)" stroke="#6D6CC2" stroke-opacity="0.14"/>
<line y1="-0.5" x2="1408.44" y2="-0.5" transform="matrix(1 -0.000605368 0.00063999 1 -518.553 629.723)" stroke="#6D6CC2" stroke-opacity="0.14"/>
<line y1="-0.5" x2="1408.44" y2="-0.5" transform="matrix(1 -0.000605368 0.00063999 1 -518.519 682.408)" stroke="#6D6CC2" stroke-opacity="0.14"/>
<line y1="-0.5" x2="1408.44" y2="-0.5" transform="matrix(1 -0.000605368 0.00063999 1 -518.485 735.091)" stroke="#6D6CC2" stroke-opacity="0.14"/>
<line y1="-0.5" x2="1369.82" y2="-0.5" transform="matrix(0.000639933 1 -1 0.000605314 581.525 -266.587)" stroke="#6D6CC2" stroke-opacity="0.14"/>
<line y1="-0.5" x2="1369.82" y2="-0.5" transform="matrix(0.000639933 1 -1 0.000605314 527.354 -266.561)" stroke="#6D6CC2" stroke-opacity="0.14"/>
<line y1="-0.5" x2="1369.82" y2="-0.5" transform="matrix(0.000639933 1 -1 0.000605314 473.183 -266.521)" stroke="#6D6CC2" stroke-opacity="0.14"/>
<line y1="-0.5" x2="1369.82" y2="-0.5" transform="matrix(0.000639933 1 -1 0.000605314 419.012 -266.49)" stroke="#6D6CC2" stroke-opacity="0.14"/>
<line y1="-0.5" x2="1369.82" y2="-0.5" transform="matrix(0.000639933 1 -1 0.000605314 364.842 -266.453)" stroke="#6D6CC2" stroke-opacity="0.14"/>
<line y1="-0.5" x2="1369.82" y2="-0.5" transform="matrix(0.000639933 1 -1 0.000605314 310.67 -266.42)" stroke="#6D6CC2" stroke-opacity="0.14"/>
<line y1="-0.5" x2="1369.82" y2="-0.5" transform="matrix(0.000639933 1 -1 0.000605314 256.501 -266.391)" stroke="#6D6CC2" stroke-opacity="0.14"/>
<line y1="-0.5" x2="1369.82" y2="-0.5" transform="matrix(0.000639933 1 -1 0.000605314 202.329 -266.354)" stroke="#6D6CC2" stroke-opacity="0.14"/>
<line y1="-0.5" x2="1369.82" y2="-0.5" transform="matrix(0.000639933 1 -1 0.000605314 148.159 -266.328)" stroke="#6D6CC2" stroke-opacity="0.14"/>
<line y1="-0.5" x2="1369.82" y2="-0.5" transform="matrix(0.000639933 1 -1 0.000605314 93.9888 -266.293)" stroke="#6D6CC2" stroke-opacity="0.14"/>
<line y1="-0.5" x2="1369.82" y2="-0.5" transform="matrix(0.000639933 1 -1 0.000605314 39.8174 -266.254)" stroke="#6D6CC2" stroke-opacity="0.14"/>
</g>
<defs>
<linearGradient id="paint0_linear_2_6077" x1="0" y1="0" x2="566.753" y2="749.279" gradientUnits="userSpaceOnUse">
<stop stop-color="#201A5E"/>
<stop offset="1" stop-color="#000104"/>
</linearGradient>
<linearGradient id="paint1_linear_2_6077" x1="-11.1184" y1="355.877" x2="641.575" y2="355.877" gradientUnits="userSpaceOnUse">
<stop stop-color="#247CFF"/>
<stop offset="1" stop-color="#FF5811"/>
</linearGradient>
<linearGradient id="paint2_linear_2_6077" x1="0" y1="0" x2="566.753" y2="749.279" gradientUnits="userSpaceOnUse">
<stop stop-color="#201A5E"/>
<stop offset="1" stop-color="#000104"/>
</linearGradient>
<linearGradient id="paint3_linear_2_6077" x1="-11.1184" y1="355.877" x2="641.575" y2="355.877" gradientUnits="userSpaceOnUse">
<stop stop-color="#247CFF"/>
<stop offset="1" stop-color="#FF5811"/>
</linearGradient>
</defs>
</svg>
