<svg width="610" height="230" viewBox="0 0 610 230" fill="none" xmlns="http://www.w3.org/2000/svg">
<mask id="mask0_2_7499" style="mask-type:alpha" maskUnits="userSpaceOnUse" x="0" y="0" width="610" height="230">
<rect width="610" height="229.051" fill="#D9D9D9"/>
</mask>
<g mask="url(#mask0_2_7499)">
<rect x="-37.3715" y="-210.969" width="673.893" height="478.597" fill="white"/>
<mask id="mask1_2_7499" style="mask-type:alpha" maskUnits="userSpaceOnUse" x="-26" y="-202" width="651" height="460">
<mask id="mask2_2_7499" style="mask-type:alpha" maskUnits="userSpaceOnUse" x="-26" y="-202" width="651" height="460">
<path d="M-25.3162 -174.984C-25.3162 -189.531 -13.5233 -201.324 1.02404 -201.324H598.619C613.166 -201.324 624.959 -189.531 624.959 -174.984V231.644C624.959 246.191 613.166 257.984 598.619 257.984H1.02402C-13.5233 257.984 -25.3162 246.191 -25.3162 231.644V-174.984Z" fill="#1A114E"/>
</mask>
<g mask="url(#mask2_2_7499)">
<path d="M-25.3162 -174.984C-25.3162 -189.531 -13.5233 -201.324 1.02404 -201.324H598.619C613.166 -201.324 624.959 -189.531 624.959 -174.984V231.644C624.959 246.191 613.166 257.984 598.619 257.984H1.02402C-13.5233 257.984 -25.3162 246.191 -25.3162 231.644V-174.984Z" fill="#1A114E"/>
</g>
</mask>
<g mask="url(#mask1_2_7499)">
<mask id="mask3_2_7499" style="mask-type:alpha" maskUnits="userSpaceOnUse" x="-26" y="-202" width="651" height="460">
<path d="M-25.3162 -174.984C-25.3162 -189.531 -13.5233 -201.324 1.02404 -201.324H598.619C613.166 -201.324 624.959 -189.531 624.959 -174.984V231.644C624.959 246.191 613.166 257.984 598.619 257.984H1.02402C-13.5233 257.984 -25.3162 246.191 -25.3162 231.644V-174.984Z" fill="#1A114E"/>
</mask>
<g mask="url(#mask3_2_7499)">
<path d="M-25.3162 -174.984C-25.3162 -189.531 -13.5233 -201.324 1.02404 -201.324H598.619C613.166 -201.324 624.959 -189.531 624.959 -174.984V231.644C624.959 246.191 613.166 257.984 598.619 257.984H1.02402C-13.5233 257.984 -25.3162 246.191 -25.3162 231.644V-174.984Z" fill="#1A114E"/>
</g>
<path d="M-44.5719 159.806C-2.5469 215.626 58.3076 255.336 127.377 272.01C196.446 288.684 269.347 281.265 333.363 251.045C397.379 220.825 448.448 169.723 477.661 106.652C506.874 43.5816 512.379 -27.4544 493.213 -94.0655C474.048 -160.677 431.43 -218.635 372.792 -257.831C314.155 -297.027 243.219 -314.974 172.36 -308.54C101.5 -302.107 35.2125 -271.701 -14.9399 -222.627C-65.0923 -173.554 -95.9269 -108.926 -102.065 -40.0178L65.7766 -25.8962C68.5111 -56.5942 82.2476 -85.3851 104.59 -107.247C126.932 -129.109 156.463 -142.654 188.03 -145.52C219.598 -148.387 251.198 -140.392 277.321 -122.93C303.443 -105.468 322.429 -79.6485 330.967 -49.9739C339.505 -20.2993 337.053 11.3466 324.039 39.4439C311.025 67.5412 288.274 90.3066 259.756 103.769C231.237 117.232 198.761 120.538 167.991 113.109C137.221 105.681 110.111 87.9906 91.3892 63.1235L-44.5719 159.806Z" fill="url(#paint0_linear_2_7499)"/>
</g>
<path d="M338.523 40.5585C338.224 40.857 337.861 41.0063 337.431 41.0063C337.002 41.0063 336.639 40.857 336.34 40.5585C336.041 40.2599 335.892 39.8961 335.892 39.467C335.892 39.0379 336.041 38.674 336.34 38.3755C336.639 38.077 337.002 37.9277 337.431 37.9277C337.861 37.9277 338.224 38.077 338.523 38.3755C338.821 38.674 338.971 39.0379 338.971 39.467C338.971 39.8961 338.821 40.2599 338.523 40.5585ZM338.523 52.0329C338.224 52.3315 337.861 52.4807 337.431 52.4807C337.002 52.4807 336.639 52.3315 336.34 52.0329C336.041 51.7344 335.892 51.3706 335.892 50.9415C335.892 50.5123 336.041 50.1485 336.34 49.85C336.639 49.5515 337.002 49.4022 337.431 49.4022C337.861 49.4022 338.224 49.5515 338.523 49.85C338.821 50.1485 338.971 50.5123 338.971 50.9415C338.971 51.3706 338.821 51.7344 338.523 52.0329Z" fill="#FF5811"/>
<path d="M326.293 37.873C328.364 37.873 330.034 38.61 331.303 40.084C332.59 41.5393 333.234 43.2651 333.234 45.2615C333.234 45.4667 333.215 45.7559 333.178 46.1291H320.892C321.078 47.5471 321.675 48.6758 322.683 49.5154C323.709 50.3364 324.968 50.7469 326.461 50.7469C327.524 50.7469 328.439 50.5323 329.204 50.1032C329.987 49.6554 330.575 49.077 330.967 48.368L332.59 49.3195C331.974 50.3084 331.135 51.092 330.071 51.6704C329.008 52.2488 327.795 52.538 326.433 52.538C324.231 52.538 322.44 51.8477 321.06 50.467C319.679 49.0863 318.989 47.3325 318.989 45.2055C318.989 43.1159 319.67 41.3714 321.032 39.972C322.394 38.5727 324.147 37.873 326.293 37.873ZM326.293 39.6642C324.838 39.6642 323.616 40.1026 322.627 40.9796C321.657 41.8378 321.078 42.9573 320.892 44.3379H331.331C331.144 42.864 330.575 41.7165 329.623 40.8956C328.672 40.0747 327.562 39.6642 326.293 39.6642Z" fill="#FF5811"/>
<path d="M311.044 52.538C308.936 52.538 307.182 51.8383 305.782 50.439C304.383 49.021 303.683 47.2765 303.683 45.2055C303.683 43.1345 304.383 41.3993 305.782 40C307.182 38.582 308.936 37.873 311.044 37.873C312.425 37.873 313.665 38.2089 314.766 38.8806C315.867 39.5336 316.669 40.4198 317.173 41.5393L315.662 42.4069C315.289 41.5673 314.682 40.9049 313.843 40.4198C313.022 39.9161 312.089 39.6642 311.044 39.6642C309.495 39.6642 308.189 40.2053 307.126 41.2874C306.062 42.3509 305.531 43.6569 305.531 45.2055C305.531 46.7541 306.062 48.0695 307.126 49.1516C308.189 50.2151 309.495 50.7469 311.044 50.7469C312.089 50.7469 313.022 50.5043 313.843 50.0192C314.664 49.5154 315.307 48.8438 315.774 48.0042L317.313 48.8997C316.735 50.0192 315.886 50.9054 314.766 51.5585C313.647 52.2115 312.406 52.538 311.044 52.538Z" fill="#FF5811"/>
<path d="M300.632 34.8496C300.37 35.1108 300.053 35.2414 299.68 35.2414C299.307 35.2414 298.99 35.1108 298.728 34.8496C298.467 34.5884 298.337 34.2712 298.337 33.898C298.337 33.5249 298.467 33.2077 298.728 32.9465C298.99 32.6853 299.307 32.5547 299.68 32.5547C300.053 32.5547 300.37 32.6853 300.632 32.9465C300.893 33.2077 301.023 33.5249 301.023 33.898C301.023 34.2712 300.893 34.5884 300.632 34.8496ZM298.756 52.2012V38.208H300.604V52.2012H298.756Z" fill="#FF5811"/>
<path d="M294.565 38.207H296.524L290.787 52.2003H288.548L282.811 38.207H284.77L289.667 50.2692L294.565 38.207Z" fill="#FF5811"/>
<path d="M277.536 40.5311C278.395 38.8333 279.869 37.9844 281.958 37.9844V39.7755C280.69 39.7755 279.635 40.1487 278.796 40.895C277.956 41.6413 277.536 42.8167 277.536 44.4213V52.2015H275.689V38.2083H277.536V40.5311Z" fill="#FF5811"/>
<path d="M265.81 37.873C267.881 37.873 269.551 38.61 270.82 40.084C272.107 41.5393 272.751 43.2651 272.751 45.2615C272.751 45.4667 272.732 45.7559 272.695 46.1291H260.409C260.596 47.5471 261.193 48.6758 262.2 49.5154C263.226 50.3364 264.486 50.7469 265.978 50.7469C267.042 50.7469 267.956 50.5323 268.721 50.1032C269.505 49.6554 270.092 49.077 270.484 48.368L272.107 49.3195C271.492 50.3084 270.652 51.092 269.589 51.6704C268.525 52.2488 267.312 52.538 265.95 52.538C263.749 52.538 261.958 51.8477 260.577 50.467C259.196 49.0863 258.506 47.3325 258.506 45.2055C258.506 43.1159 259.187 41.3714 260.549 39.972C261.911 38.5727 263.665 37.873 265.81 37.873ZM265.81 39.6642C264.355 39.6642 263.133 40.1026 262.144 40.9796C261.174 41.8378 260.596 42.9573 260.409 44.3379H270.848C270.661 42.864 270.092 41.7165 269.141 40.8956C268.189 40.0747 267.079 39.6642 265.81 39.6642Z" fill="#FF5811"/>
<path d="M249.384 52.5376C247.593 52.5376 246.054 52.1178 244.766 51.2782C243.498 50.42 242.611 49.2446 242.108 47.7519L243.787 46.7724C244.141 47.9852 244.794 48.9367 245.746 49.627C246.697 50.2987 247.92 50.6346 249.412 50.6346C250.867 50.6346 251.996 50.3174 252.799 49.683C253.619 49.03 254.03 48.1717 254.03 47.1082C254.03 46.0821 253.657 45.3078 252.91 44.7854C252.164 44.263 250.933 43.7219 249.216 43.1621C247.183 42.4905 245.839 41.9494 245.186 41.5389C243.694 40.6434 242.947 39.3467 242.947 37.6488C242.947 35.9883 243.526 34.6822 244.682 33.7307C245.839 32.7605 247.267 32.2754 248.964 32.2754C250.494 32.2754 251.819 32.6765 252.938 33.4788C254.058 34.2624 254.888 35.2699 255.429 36.5014L253.778 37.4249C252.882 35.2606 251.278 34.1785 248.964 34.1785C247.752 34.1785 246.772 34.477 246.026 35.074C245.279 35.6711 244.906 36.5014 244.906 37.5648C244.906 38.535 245.242 39.2627 245.914 39.7478C246.586 40.2329 247.696 40.7273 249.244 41.2311C249.953 41.4736 250.457 41.6509 250.756 41.7628C251.073 41.8561 251.52 42.024 252.099 42.2666C252.696 42.4905 253.134 42.6957 253.414 42.8823C253.694 43.0502 254.03 43.2928 254.422 43.6099C254.832 43.9085 255.121 44.2163 255.289 44.5335C255.476 44.832 255.634 45.2052 255.765 45.6529C255.914 46.0821 255.989 46.5485 255.989 47.0523C255.989 48.7128 255.383 50.0468 254.17 51.0543C252.957 52.0432 251.362 52.5376 249.384 52.5376Z" fill="#FF5811"/>
<path d="M228.997 40.5311C229.856 38.8333 231.33 37.9844 233.419 37.9844V39.7755C232.15 39.7755 231.096 40.1487 230.257 40.895C229.417 41.6413 228.997 42.8167 228.997 44.4213V52.2015H227.15V38.2083H228.997V40.5311Z" fill="#FF5811"/>
<path d="M221.904 50.439C220.486 51.8383 218.751 52.538 216.699 52.538C214.646 52.538 212.902 51.8383 211.465 50.439C210.047 49.021 209.338 47.2765 209.338 45.2055C209.338 43.1345 210.047 41.3993 211.465 40C212.902 38.582 214.646 37.873 216.699 37.873C218.751 37.873 220.486 38.582 221.904 40C223.341 41.3993 224.059 43.1345 224.059 45.2055C224.059 47.2765 223.341 49.021 221.904 50.439ZM212.781 49.1516C213.844 50.2151 215.15 50.7469 216.699 50.7469C218.247 50.7469 219.553 50.2151 220.617 49.1516C221.68 48.0695 222.212 46.7541 222.212 45.2055C222.212 43.6569 221.68 42.3509 220.617 41.2874C219.553 40.2053 218.247 39.6642 216.699 39.6642C215.15 39.6642 213.844 40.2053 212.781 41.2874C211.717 42.3509 211.185 43.6569 211.185 45.2055C211.185 46.7541 211.717 48.0695 212.781 49.1516Z" fill="#FF5811"/>
<path d="M204.932 50.439C203.514 51.8383 201.779 52.538 199.726 52.538C197.674 52.538 195.93 51.8383 194.493 50.439C193.075 49.021 192.366 47.2765 192.366 45.2055C192.366 43.1345 193.075 41.3993 194.493 40C195.93 38.582 197.674 37.873 199.726 37.873C201.779 37.873 203.514 38.582 204.932 40C206.369 41.3993 207.087 43.1345 207.087 45.2055C207.087 47.2765 206.369 49.021 204.932 50.439ZM195.808 49.1516C196.872 50.2151 198.178 50.7469 199.726 50.7469C201.275 50.7469 202.581 50.2151 203.645 49.1516C204.708 48.0695 205.24 46.7541 205.24 45.2055C205.24 43.6569 204.708 42.3509 203.645 41.2874C202.581 40.2053 201.275 39.6642 199.726 39.6642C198.178 39.6642 196.872 40.2053 195.808 41.2874C194.745 42.3509 194.213 43.6569 194.213 45.2055C194.213 46.7541 194.745 48.0695 195.808 49.1516Z" fill="#FF5811"/>
<path d="M180.899 32.6113C183.567 32.6113 185.769 33.5629 187.504 35.466C189.258 37.3504 190.135 39.6639 190.135 42.4066C190.135 45.1493 189.258 47.4722 187.504 49.3753C185.769 51.2597 183.567 52.2019 180.899 52.2019H173.343V32.6113H180.899ZM180.899 50.3548C183.045 50.3548 184.799 49.5898 186.161 48.0599C187.541 46.53 188.232 44.6455 188.232 42.4066C188.232 40.1677 187.541 38.2833 186.161 36.7533C184.799 35.2234 183.045 34.4584 180.899 34.4584H175.302V50.3548H180.899Z" fill="#FF5811"/>
<path d="M156.187 37.873C158.258 37.873 159.928 38.61 161.197 40.084C162.484 41.5393 163.128 43.2651 163.128 45.2615C163.128 45.4667 163.109 45.7559 163.072 46.1291H150.786C150.973 47.5471 151.57 48.6758 152.577 49.5154C153.603 50.3364 154.863 50.7469 156.355 50.7469C157.419 50.7469 158.333 50.5323 159.098 50.1032C159.882 49.6554 160.469 49.077 160.861 48.368L162.484 49.3195C161.869 50.3084 161.029 51.092 159.966 51.6704C158.902 52.2488 157.689 52.538 156.327 52.538C154.126 52.538 152.335 51.8477 150.954 50.467C149.573 49.0863 148.883 47.3325 148.883 45.2055C148.883 43.1159 149.564 41.3714 150.926 39.972C152.288 38.5727 154.042 37.873 156.187 37.873ZM156.187 39.6642C154.732 39.6642 153.51 40.1026 152.521 40.9796C151.551 41.8378 150.973 42.9573 150.786 44.3379H161.225C161.038 42.864 160.469 41.7165 159.518 40.8956C158.566 40.0747 157.456 39.6642 156.187 39.6642Z" fill="#FF5811"/>
<path d="M140.666 37.8728C142.363 37.8728 143.697 38.3952 144.668 39.44C145.657 40.4662 146.151 41.8562 146.151 43.61V52.2019H144.304V43.61C144.304 42.36 143.968 41.3898 143.296 40.6994C142.643 40.0091 141.71 39.6639 140.498 39.6639C139.154 39.6639 138.063 40.0931 137.223 40.9513C136.384 41.7909 135.964 43.0969 135.964 44.8694V52.2019H134.117V32.6113H135.964V40.3916C137.009 38.7124 138.576 37.8728 140.666 37.8728Z" fill="#FF5811"/>
<path d="M131.597 32.6113V34.4584H125.58V52.2019H123.621V34.4584H117.604V32.6113H131.597Z" fill="#FF5811"/>
<path d="M102.949 37.873C104.647 37.873 105.981 38.3955 106.951 39.4403C107.94 40.4665 108.435 41.8565 108.435 43.6103V52.2022H106.588V43.6103C106.588 42.3602 106.252 41.39 105.58 40.6997C104.927 40.0094 103.994 39.6642 102.782 39.6642C101.438 39.6642 100.347 40.0933 99.5071 40.9516C98.6675 41.7912 98.2477 43.0972 98.2477 44.8697V52.2022H96.4006V38.2089H98.2477V40.3918C99.2925 38.7126 100.86 37.873 102.949 37.873Z" fill="#FF5811"/>
<path d="M90.2306 32.6113H92.1896V52.2019H90.2306V32.6113Z" fill="#FF5811"/>
<path d="M79.8756 39.9983H75.8455V48.4782C75.8455 49.2432 75.9948 49.7936 76.2933 50.1294C76.5918 50.4466 77.0396 50.6145 77.6366 50.6332C78.2337 50.6332 78.98 50.6145 79.8756 50.5772V52.2004C77.9165 52.499 76.4426 52.359 75.4537 51.7806C74.4835 51.2023 73.9984 50.1015 73.9984 48.4782V39.9983H71.0598V38.2072H73.9984V34.8488L75.8455 34.2891V38.2072H79.8756V39.9983Z" fill="#FF5811"/>
<path d="M67.4864 50.439C66.0684 51.8383 64.3333 52.538 62.2809 52.538C60.2286 52.538 58.4841 51.8383 57.0474 50.439C55.6295 49.021 54.9205 47.2765 54.9205 45.2055C54.9205 43.1345 55.6295 41.3993 57.0474 40C58.4841 38.582 60.2286 37.873 62.2809 37.873C64.3333 37.873 66.0684 38.582 67.4864 40C68.9231 41.3993 69.6414 43.1345 69.6414 45.2055C69.6414 47.2765 68.9231 49.021 67.4864 50.439ZM58.3628 49.1516C59.4263 50.2151 60.7323 50.7469 62.2809 50.7469C63.8295 50.7469 65.1356 50.2151 66.199 49.1516C67.2625 48.0695 67.7943 46.7541 67.7943 45.2055C67.7943 43.6569 67.2625 42.3509 66.199 41.2874C65.1356 40.2053 63.8295 39.6642 62.2809 39.6642C60.7323 39.6642 59.4263 40.2053 58.3628 41.2874C57.2993 42.3509 56.7676 43.6569 56.7676 45.2055C56.7676 46.7541 57.2993 48.0695 58.3628 49.1516Z" fill="#FF5811"/>
<path d="M50.5141 50.439C49.0961 51.8383 47.3609 52.538 45.3086 52.538C43.2562 52.538 41.5117 51.8383 40.0751 50.439C38.6571 49.021 37.9481 47.2765 37.9481 45.2055C37.9481 43.1345 38.6571 41.3993 40.0751 40C41.5117 38.582 43.2562 37.873 45.3086 37.873C47.3609 37.873 49.0961 38.582 50.5141 40C51.9507 41.3993 52.669 43.1345 52.669 45.2055C52.669 47.2765 51.9507 49.021 50.5141 50.439ZM41.3905 49.1516C42.454 50.2151 43.76 50.7469 45.3086 50.7469C46.8572 50.7469 48.1632 50.2151 49.2267 49.1516C50.2902 48.0695 50.8219 46.7541 50.8219 45.2055C50.8219 43.6569 50.2902 42.3509 49.2267 41.2874C48.1632 40.2053 46.8572 39.6642 45.3086 39.6642C43.76 39.6642 42.454 40.2053 41.3905 41.2874C40.327 42.3509 39.7952 43.6569 39.7952 45.2055C39.7952 46.7541 40.327 48.0695 41.3905 49.1516Z" fill="#FF5811"/>
<path d="M35.7191 34.4584H26.6235V41.679H35.2993V43.5261H26.6235V52.2019H24.6644V32.6113H35.7191V34.4584Z" fill="#FF5811"/>
<path d="M303.46 104.111C303.684 105.174 304.197 105.995 304.999 106.574C305.802 107.133 306.781 107.413 307.938 107.413C309.543 107.413 310.746 106.835 311.548 105.678L314.039 107.133C312.658 109.167 310.615 110.184 307.91 110.184C305.634 110.184 303.796 109.493 302.397 108.113C300.997 106.713 300.298 104.95 300.298 102.823C300.298 100.734 300.988 98.9892 302.369 97.5899C303.749 96.1719 305.522 95.4629 307.686 95.4629C309.738 95.4629 311.418 96.1812 312.724 97.6179C314.048 99.0545 314.711 100.799 314.711 102.851C314.711 103.169 314.673 103.588 314.599 104.111H303.46ZM303.432 101.648H311.66C311.455 100.51 310.979 99.6515 310.233 99.0732C309.505 98.4948 308.647 98.2056 307.658 98.2056C306.539 98.2056 305.606 98.5134 304.859 99.1291C304.113 99.7448 303.637 100.584 303.432 101.648Z" fill="white"/>
<path d="M292.818 110.184C290.71 110.184 288.947 109.475 287.529 108.057C286.129 106.639 285.43 104.894 285.43 102.823C285.43 100.734 286.129 98.9892 287.529 97.5899C288.947 96.1719 290.71 95.4629 292.818 95.4629C294.18 95.4629 295.421 95.7894 296.54 96.4424C297.66 97.0954 298.5 97.9723 299.059 99.0732L296.456 100.584C296.139 99.9127 295.654 99.3903 295.001 99.0172C294.367 98.6254 293.63 98.4295 292.79 98.4295C291.559 98.4295 290.523 98.8493 289.684 99.6889C288.863 100.528 288.452 101.573 288.452 102.823C288.452 104.073 288.863 105.118 289.684 105.958C290.523 106.797 291.559 107.217 292.79 107.217C293.611 107.217 294.348 107.021 295.001 106.63C295.673 106.238 296.177 105.715 296.512 105.062L299.115 106.546C298.518 107.665 297.66 108.551 296.54 109.204C295.421 109.857 294.18 110.184 292.818 110.184Z" fill="white"/>
<path d="M282.536 93.1676C282.163 93.5408 281.715 93.7274 281.193 93.7274C280.67 93.7274 280.213 93.5408 279.821 93.1676C279.448 92.7758 279.261 92.3187 279.261 91.7963C279.261 91.2739 279.448 90.8261 279.821 90.453C280.194 90.0611 280.651 89.8652 281.193 89.8652C281.734 89.8652 282.191 90.0611 282.564 90.453C282.937 90.8261 283.124 91.2739 283.124 91.7963C283.124 92.3187 282.928 92.7758 282.536 93.1676ZM279.681 109.82V95.8264H282.704V109.82H279.681Z" fill="white"/>
<path d="M274.465 95.8262H277.767L272.31 109.819H268.812L263.354 95.8262H266.657L270.575 106.461L274.465 95.8262Z" fill="white"/>
<path d="M258.434 98.177C259.199 96.4418 260.636 95.5742 262.744 95.5742V98.8486C261.587 98.774 260.58 99.0539 259.722 99.6882C258.863 100.304 258.434 101.33 258.434 102.767V109.819H255.412V95.8261H258.434V98.177Z" fill="white"/>
<path d="M241.502 104.111C241.725 105.174 242.239 105.995 243.041 106.574C243.843 107.133 244.823 107.413 245.979 107.413C247.584 107.413 248.787 106.835 249.59 105.678L252.08 107.133C250.7 109.167 248.657 110.184 245.951 110.184C243.675 110.184 241.837 109.493 240.438 108.113C239.039 106.713 238.339 104.95 238.339 102.823C238.339 100.734 239.029 98.9892 240.41 97.5899C241.791 96.1719 243.563 95.4629 245.728 95.4629C247.78 95.4629 249.459 96.1812 250.765 97.6179C252.09 99.0545 252.752 100.799 252.752 102.851C252.752 103.169 252.715 103.588 252.64 104.111H241.502ZM241.474 101.648H249.702C249.496 100.51 249.021 99.6515 248.274 99.0732C247.547 98.4948 246.688 98.2056 245.7 98.2056C244.58 98.2056 243.647 98.5134 242.901 99.1291C242.155 99.7448 241.679 100.584 241.474 101.648Z" fill="white"/>
<path d="M229.222 110.183C227.338 110.183 225.733 109.754 224.409 108.896C223.103 108.038 222.188 106.862 221.666 105.37L224.437 103.747C225.22 105.948 226.844 107.049 229.306 107.049C230.519 107.049 231.424 106.816 232.021 106.349C232.637 105.864 232.945 105.239 232.945 104.474C232.945 103.672 232.618 103.066 231.965 102.655C231.312 102.226 230.155 101.76 228.495 101.256C227.562 100.976 226.806 100.715 226.228 100.472C225.649 100.23 225.034 99.8937 224.381 99.4646C223.746 99.0168 223.271 98.4664 222.953 97.8134C222.636 97.1604 222.478 96.3954 222.478 95.5185C222.478 93.7833 223.093 92.412 224.325 91.4045C225.556 90.3783 227.039 89.8652 228.775 89.8652C230.342 89.8652 231.713 90.2477 232.889 91.0127C234.064 91.7776 234.969 92.8318 235.603 94.1752L232.889 95.7424C232.068 93.914 230.696 92.9997 228.775 92.9997C227.842 92.9997 227.095 93.2236 226.536 93.6714C225.976 94.1005 225.696 94.6882 225.696 95.4346C225.696 96.1622 225.976 96.7406 226.536 97.1697C227.114 97.5802 228.15 98.0186 229.642 98.4851C230.388 98.7276 230.93 98.9142 231.265 99.0448C231.62 99.1568 232.105 99.3433 232.721 99.6045C233.355 99.8658 233.831 100.127 234.148 100.388C234.465 100.649 234.801 100.976 235.156 101.368C235.529 101.76 235.79 102.207 235.939 102.711C236.088 103.215 236.163 103.784 236.163 104.418C236.163 106.191 235.519 107.599 234.232 108.644C232.963 109.67 231.293 110.183 229.222 110.183Z" fill="white"/>
<path d="M205.388 110.184C203.335 110.184 201.591 109.475 200.154 108.057C198.717 106.639 197.999 104.894 197.999 102.823C197.999 100.752 198.717 99.0079 200.154 97.5899C201.591 96.1719 203.335 95.4629 205.388 95.4629C207.459 95.4629 209.203 96.1719 210.621 97.5899C212.058 99.0079 212.776 100.752 212.776 102.823C212.776 104.894 212.058 106.639 210.621 108.057C209.203 109.475 207.459 110.184 205.388 110.184ZM202.281 105.986C203.121 106.825 204.156 107.245 205.388 107.245C206.619 107.245 207.654 106.825 208.494 105.986C209.334 105.146 209.753 104.092 209.753 102.823C209.753 101.555 209.334 100.5 208.494 99.6609C207.654 98.8213 206.619 98.4015 205.388 98.4015C204.156 98.4015 203.121 98.8213 202.281 99.6609C201.441 100.5 201.022 101.555 201.022 102.823C201.022 104.092 201.441 105.146 202.281 105.986Z" fill="white"/>
<path d="M184.955 104.111C185.179 105.174 185.692 105.995 186.494 106.574C187.296 107.133 188.276 107.413 189.432 107.413C191.037 107.413 192.24 106.835 193.043 105.678L195.534 107.133C194.153 109.167 192.11 110.184 189.405 110.184C187.128 110.184 185.29 109.493 183.891 108.113C182.492 106.713 181.792 104.95 181.792 102.823C181.792 100.734 182.483 98.9892 183.863 97.5899C185.244 96.1719 187.016 95.4629 189.181 95.4629C191.233 95.4629 192.912 96.1812 194.218 97.6179C195.543 99.0545 196.205 100.799 196.205 102.851C196.205 103.169 196.168 103.588 196.093 104.111H184.955ZM184.927 101.648H193.155C192.949 100.51 192.474 99.6515 191.727 99.0732C191 98.4948 190.141 98.2056 189.153 98.2056C188.033 98.2056 187.1 98.5134 186.354 99.1291C185.608 99.7448 185.132 100.584 184.927 101.648Z" fill="white"/>
<path d="M176.03 90.2285H179.053V109.819H176.03V107.804C174.892 109.39 173.26 110.183 171.133 110.183C169.211 110.183 167.569 109.474 166.207 108.056C164.845 106.619 164.164 104.875 164.164 102.822C164.164 100.751 164.845 99.007 166.207 97.589C167.569 96.171 169.211 95.462 171.133 95.462C173.26 95.462 174.892 96.2456 176.03 97.8129V90.2285ZM168.446 106.041C169.285 106.881 170.34 107.3 171.608 107.3C172.877 107.3 173.931 106.881 174.771 106.041C175.61 105.183 176.03 104.11 176.03 102.822C176.03 101.535 175.61 100.472 174.771 99.632C173.931 98.7737 172.877 98.3446 171.608 98.3446C170.34 98.3446 169.285 98.7737 168.446 99.632C167.606 100.472 167.186 101.535 167.186 102.822C167.186 104.11 167.606 105.183 168.446 106.041Z" fill="white"/>
<path d="M161.27 93.1676C160.897 93.5408 160.449 93.7274 159.927 93.7274C159.404 93.7274 158.947 93.5408 158.555 93.1676C158.182 92.7758 157.996 92.3187 157.996 91.7963C157.996 91.2739 158.182 90.8261 158.555 90.453C158.929 90.0611 159.386 89.8652 159.927 89.8652C160.468 89.8652 160.925 90.0611 161.298 90.453C161.671 90.8261 161.858 91.2739 161.858 91.7963C161.858 92.3187 161.662 92.7758 161.27 93.1676ZM158.415 109.82V95.8264H161.438V109.82H158.415Z" fill="white"/>
<path d="M146.402 109.819L139.601 90.2285H143.128L148.333 105.929L153.567 90.2285H157.065L150.264 109.819H146.402Z" fill="white"/>
<path d="M120.318 104.111C120.542 105.174 121.055 105.995 121.857 106.574C122.659 107.133 123.639 107.413 124.796 107.413C126.4 107.413 127.604 106.835 128.406 105.678L130.897 107.133C129.516 109.167 127.473 110.184 124.768 110.184C122.491 110.184 120.654 109.493 119.254 108.113C117.855 106.713 117.155 104.95 117.155 102.823C117.155 100.734 117.846 98.9892 119.226 97.5899C120.607 96.1719 122.379 95.4629 124.544 95.4629C126.596 95.4629 128.275 96.1812 129.581 97.6179C130.906 99.0545 131.568 100.799 131.568 102.851C131.568 103.169 131.531 103.588 131.456 104.111H120.318ZM120.29 101.648H128.518C128.313 100.51 127.837 99.6515 127.09 99.0732C126.363 98.4948 125.505 98.2056 124.516 98.2056C123.396 98.2056 122.463 98.5134 121.717 99.1291C120.971 99.7448 120.495 100.584 120.29 101.648Z" fill="white"/>
<path d="M115.771 98.7369H112.301V105.454C112.301 106.032 112.432 106.452 112.693 106.713C112.954 106.956 113.337 107.096 113.84 107.133C114.363 107.152 115.006 107.142 115.771 107.105V109.82C113.458 110.099 111.797 109.904 110.79 109.232C109.782 108.542 109.278 107.282 109.278 105.454V98.7369H106.704V95.8263H109.278V92.8038L112.301 91.9082V95.8263H115.771V98.7369Z" fill="white"/>
<path d="M98.115 110.184C96.0627 110.184 94.3182 109.475 92.8815 108.057C91.4449 106.639 90.7266 104.894 90.7266 102.823C90.7266 100.752 91.4449 99.0079 92.8815 97.5899C94.3182 96.1719 96.0627 95.4629 98.115 95.4629C100.186 95.4629 101.931 96.1719 103.348 97.5899C104.785 99.0079 105.503 100.752 105.503 102.823C105.503 104.894 104.785 106.639 103.348 108.057C101.931 109.475 100.186 110.184 98.115 110.184ZM95.0085 105.986C95.8481 106.825 96.8836 107.245 98.115 107.245C99.3464 107.245 100.382 106.825 101.222 105.986C102.061 105.146 102.481 104.092 102.481 102.823C102.481 101.555 102.061 100.5 101.222 99.6609C100.382 98.8213 99.3464 98.4015 98.115 98.4015C96.8836 98.4015 95.8481 98.8213 95.0085 99.6609C94.1689 100.5 93.7491 101.555 93.7491 102.823C93.7491 104.092 94.1689 105.146 95.0085 105.986Z" fill="white"/>
<path d="M82.9858 95.4629C84.5717 95.4629 85.8497 95.976 86.8199 97.0021C87.7901 98.0283 88.2752 99.409 88.2752 101.144V109.82H85.2527V101.34C85.2527 100.37 85.0101 99.6236 84.525 99.1011C84.0399 98.5601 83.3776 98.2895 82.538 98.2895C81.6051 98.2895 80.8588 98.5974 80.2991 99.2131C79.758 99.8288 79.4875 100.752 79.4875 101.984V109.82H76.4649V101.34C76.4649 100.37 76.2317 99.6236 75.7653 99.1011C75.3175 98.5601 74.6738 98.2895 73.8342 98.2895C72.92 98.2895 72.1737 98.6067 71.5953 99.2411C71.0169 99.8568 70.7277 100.771 70.7277 101.984V109.82H67.7051V95.8267H70.7277V97.5059C71.6233 96.1439 72.9573 95.4629 74.7298 95.4629C76.5209 95.4629 77.8456 96.1999 78.7038 97.6738C79.6367 96.1999 81.064 95.4629 82.9858 95.4629Z" fill="white"/>
<path d="M57.5838 110.184C55.5315 110.184 53.787 109.475 52.3503 108.057C50.9137 106.639 50.1954 104.894 50.1954 102.823C50.1954 100.752 50.9137 99.0079 52.3503 97.5899C53.787 96.1719 55.5315 95.4629 57.5838 95.4629C59.6548 95.4629 61.3993 96.1719 62.8173 97.5899C64.2539 99.0079 64.9723 100.752 64.9723 102.823C64.9723 104.894 64.2539 106.639 62.8173 108.057C61.3993 109.475 59.6548 110.184 57.5838 110.184ZM54.4773 105.986C55.3169 106.825 56.3524 107.245 57.5838 107.245C58.8152 107.245 59.8507 106.825 60.6903 105.986C61.5299 105.146 61.9497 104.092 61.9497 102.823C61.9497 101.555 61.5299 100.5 60.6903 99.6609C59.8507 98.8213 58.8152 98.4015 57.5838 98.4015C56.3524 98.4015 55.3169 98.8213 54.4773 99.6609C53.6377 100.5 53.2179 101.555 53.2179 102.823C53.2179 104.092 53.6377 105.146 54.4773 105.986Z" fill="white"/>
<path d="M45.0916 98.177C45.8565 96.4418 47.2932 95.5742 49.4015 95.5742V98.8486C48.2447 98.774 47.2372 99.0539 46.379 99.6882C45.5207 100.304 45.0916 101.33 45.0916 102.767V109.819H42.069V95.8261H45.0916V98.177Z" fill="white"/>
<path d="M33.2512 90.2285C35.0983 90.2285 36.6375 90.8442 37.8689 92.0756C39.119 93.307 39.744 94.837 39.744 96.6654C39.744 98.4752 39.119 100.005 37.8689 101.255C36.6375 102.487 35.0983 103.102 33.2512 103.102H29.2491V109.819H26.0306V90.2285H33.2512ZM33.2512 100.08C34.2027 100.08 34.9863 99.7626 35.602 99.1282C36.2177 98.4752 36.5256 97.6543 36.5256 96.6654C36.5256 95.6766 36.2177 94.865 35.602 94.2306C34.9863 93.5776 34.2027 93.2511 33.2512 93.2511H29.2491V100.08H33.2512Z" fill="white"/>
<path d="M519.849 188.692C519.586 188.956 519.265 189.087 518.886 189.087C518.508 189.087 518.187 188.956 517.923 188.692C517.66 188.429 517.528 188.108 517.528 187.729C517.528 187.351 517.66 187.03 517.923 186.766C518.187 186.503 518.508 186.371 518.886 186.371C519.265 186.371 519.586 186.503 519.849 186.766C520.113 187.03 520.244 187.351 520.244 187.729C520.244 188.108 520.113 188.429 519.849 188.692Z" fill="#E5E1FF"/>
<path d="M512.697 176.494H514.327V188.841H512.697V186.915C511.775 188.397 510.393 189.137 508.549 189.137C507.051 189.137 505.865 188.685 504.993 187.779C504.137 186.857 503.709 185.623 503.709 184.075V176.494H505.339V184.075C505.339 185.178 505.627 186.034 506.203 186.643C506.796 187.252 507.627 187.557 508.697 187.557C509.882 187.557 510.845 187.187 511.586 186.446C512.327 185.689 512.697 184.528 512.697 182.964V176.494Z" fill="#E5E1FF"/>
<path d="M499.377 187.283C498.126 188.518 496.595 189.135 494.784 189.135C492.973 189.135 491.434 188.518 490.166 187.283C488.915 186.032 488.289 184.492 488.289 182.665C488.289 180.838 488.915 179.307 490.166 178.072C491.434 176.821 492.973 176.195 494.784 176.195C496.595 176.195 498.126 176.821 499.377 178.072C500.644 179.307 501.278 180.838 501.278 182.665C501.278 184.492 500.644 186.032 499.377 187.283ZM491.327 186.147C492.265 187.085 493.417 187.555 494.784 187.555C496.15 187.555 497.302 187.085 498.241 186.147C499.179 185.192 499.648 184.032 499.648 182.665C499.648 181.299 499.179 180.146 498.241 179.208C497.302 178.253 496.15 177.776 494.784 177.776C493.417 177.776 492.265 178.253 491.327 179.208C490.388 180.146 489.919 181.299 489.919 182.665C489.919 184.032 490.388 185.192 491.327 186.147Z" fill="#E5E1FF"/>
<path d="M485.814 176.494H487.542L482.258 189.977C481.78 191.195 481.097 192.15 480.208 192.842C479.336 193.549 478.356 193.862 477.27 193.78V192.249C478.751 192.414 479.879 191.557 480.653 189.681L480.974 188.915L475.442 176.494H477.171L481.813 186.841L485.814 176.494Z" fill="#E5E1FF"/>
<path d="M462.759 176.195C464.257 176.195 465.434 176.656 466.29 177.578C467.163 178.484 467.599 179.71 467.599 181.258V188.839H465.969V181.258C465.969 180.155 465.673 179.299 465.08 178.689C464.504 178.08 463.681 177.776 462.611 177.776C461.426 177.776 460.463 178.154 459.722 178.912C458.981 179.652 458.611 180.805 458.611 182.369V188.839H456.981V176.492H458.611V178.418C459.533 176.936 460.915 176.195 462.759 176.195Z" fill="#E5E1FF"/>
<path d="M453.547 173.529C453.316 173.759 453.037 173.875 452.707 173.875C452.378 173.875 452.098 173.759 451.868 173.529C451.637 173.298 451.522 173.018 451.522 172.689C451.522 172.36 451.637 172.08 451.868 171.85C452.098 171.619 452.378 171.504 452.707 171.504C453.037 171.504 453.316 171.619 453.547 171.85C453.777 172.08 453.893 172.36 453.893 172.689C453.893 173.018 453.777 173.298 453.547 173.529ZM451.892 188.839V176.492H453.522V188.839H451.892Z" fill="#E5E1FF"/>
<path d="M443.003 178.075H439.447V185.557C439.447 186.232 439.578 186.718 439.842 187.014C440.105 187.294 440.5 187.442 441.027 187.458C441.554 187.458 442.213 187.442 443.003 187.409V188.841C441.274 189.105 439.974 188.981 439.101 188.471C438.245 187.961 437.817 186.989 437.817 185.557V178.075H435.224V176.494H437.817V173.531L439.447 173.037V176.494H443.003V178.075Z" fill="#E5E1FF"/>
<path d="M427.012 179.727C427.012 180.286 427.259 180.731 427.753 181.06C428.246 181.389 428.847 181.644 429.555 181.826C430.263 182.007 430.971 182.212 431.679 182.443C432.387 182.657 432.988 183.027 433.482 183.554C433.975 184.064 434.222 184.739 434.222 185.579C434.222 186.633 433.803 187.489 432.963 188.147C432.14 188.806 431.07 189.135 429.753 189.135C428.567 189.135 427.555 188.872 426.715 188.345C425.892 187.818 425.316 187.135 424.987 186.295L426.37 185.48C426.6 186.122 427.012 186.633 427.604 187.011C428.213 187.373 428.93 187.555 429.753 187.555C430.559 187.555 431.234 187.398 431.778 187.085C432.321 186.756 432.593 186.254 432.593 185.579C432.593 185.019 432.346 184.575 431.852 184.246C431.358 183.916 430.757 183.661 430.049 183.48C429.341 183.299 428.633 183.101 427.925 182.887C427.217 182.657 426.617 182.286 426.123 181.776C425.629 181.249 425.382 180.566 425.382 179.727C425.382 178.722 425.777 177.883 426.567 177.208C427.374 176.533 428.386 176.195 429.605 176.195C430.609 176.195 431.49 176.426 432.247 176.887C433.004 177.331 433.564 177.94 433.926 178.714L432.568 179.504C432.09 178.352 431.103 177.776 429.605 177.776C428.897 177.776 428.288 177.949 427.777 178.294C427.267 178.624 427.012 179.101 427.012 179.727Z" fill="#E5E1FF"/>
<path d="M420.65 176.494H422.279V188.841H420.65V186.915C419.728 188.397 418.345 189.137 416.501 189.137C415.003 189.137 413.818 188.685 412.945 187.779C412.089 186.857 411.661 185.623 411.661 184.075V176.494H413.291V184.075C413.291 185.178 413.579 186.034 414.155 186.643C414.748 187.252 415.579 187.557 416.649 187.557C417.835 187.557 418.798 187.187 419.538 186.446C420.279 185.689 420.65 184.528 420.65 182.964V176.494Z" fill="#E5E1FF"/>
<path d="M405.822 178.544C406.58 177.046 407.88 176.297 409.724 176.297V177.877C408.604 177.877 407.674 178.207 406.934 178.865C406.193 179.524 405.822 180.561 405.822 181.976V188.841H404.193V176.494H405.822V178.544Z" fill="#E5E1FF"/>
<path d="M401.476 178.075H397.92V185.557C397.92 186.232 398.052 186.718 398.315 187.014C398.579 187.294 398.974 187.442 399.501 187.458C400.028 187.458 400.686 187.442 401.476 187.409V188.841C399.748 189.105 398.447 188.981 397.575 188.471C396.719 187.961 396.29 186.989 396.29 185.557V178.075H393.698V176.494H396.29V173.531L397.92 173.037V176.494H401.476V178.075Z" fill="#E5E1FF"/>
<path d="M382.623 178.544C383.381 177.046 384.681 176.297 386.525 176.297V177.877C385.406 177.877 384.475 178.207 383.735 178.865C382.994 179.524 382.623 180.561 382.623 181.976V188.841H380.994V176.494H382.623V178.544Z" fill="#E5E1FF"/>
<path d="M377.56 173.529C377.329 173.759 377.049 173.875 376.72 173.875C376.391 173.875 376.111 173.759 375.881 173.529C375.65 173.298 375.535 173.018 375.535 172.689C375.535 172.36 375.65 172.08 375.881 171.85C376.111 171.619 376.391 171.504 376.72 171.504C377.049 171.504 377.329 171.619 377.56 171.85C377.79 172.08 377.906 172.36 377.906 172.689C377.906 173.018 377.79 173.298 377.56 173.529ZM375.905 188.839V176.492H377.535V188.839H375.905Z" fill="#E5E1FF"/>
<path d="M367.189 176.195C369.016 176.195 370.489 176.846 371.609 178.146C372.745 179.43 373.313 180.953 373.313 182.715C373.313 182.896 373.296 183.151 373.263 183.48H362.423C362.587 184.731 363.114 185.727 364.003 186.468C364.909 187.192 366.02 187.555 367.337 187.555C368.275 187.555 369.082 187.365 369.757 186.987C370.448 186.591 370.967 186.081 371.313 185.456L372.745 186.295C372.202 187.168 371.461 187.859 370.522 188.369C369.584 188.88 368.514 189.135 367.312 189.135C365.37 189.135 363.789 188.526 362.571 187.308C361.353 186.089 360.744 184.542 360.744 182.665C360.744 180.821 361.344 179.282 362.546 178.047C363.748 176.813 365.295 176.195 367.189 176.195ZM367.189 177.776C365.905 177.776 364.826 178.163 363.954 178.936C363.098 179.694 362.587 180.681 362.423 181.9H371.634C371.469 180.599 370.967 179.587 370.127 178.862C369.288 178.138 368.308 177.776 367.189 177.776Z" fill="#E5E1FF"/>
<path d="M353.493 176.197C354.991 176.197 356.168 176.658 357.024 177.58C357.897 178.485 358.333 179.712 358.333 181.259V188.84H356.703V181.259C356.703 180.156 356.407 179.3 355.814 178.691C355.238 178.082 354.415 177.778 353.345 177.778C352.159 177.778 351.196 178.156 350.455 178.913C349.715 179.654 349.344 180.807 349.344 182.371V188.84H347.714V171.555H349.344V178.42C350.266 176.938 351.649 176.197 353.493 176.197Z" fill="#E5E1FF"/>
<path d="M344.998 178.075H341.442V185.557C341.442 186.232 341.574 186.718 341.837 187.014C342.101 187.294 342.496 187.442 343.023 187.458C343.549 187.458 344.208 187.442 344.998 187.409V188.841C343.269 189.105 341.969 188.981 341.096 188.471C340.24 187.961 339.812 186.989 339.812 185.557V178.075H337.219V176.494H339.812V173.531L341.442 173.037V176.494H344.998V178.075Z" fill="#E5E1FF"/>
<path d="M322.351 179.727C322.351 180.286 322.598 180.731 323.092 181.06C323.586 181.389 324.187 181.644 324.895 181.826C325.603 182.007 326.311 182.212 327.018 182.443C327.726 182.657 328.327 183.027 328.821 183.554C329.315 184.064 329.562 184.739 329.562 185.579C329.562 186.633 329.142 187.489 328.303 188.147C327.479 188.806 326.409 189.135 325.092 189.135C323.907 189.135 322.895 188.872 322.055 188.345C321.232 187.818 320.656 187.135 320.326 186.295L321.709 185.48C321.94 186.122 322.351 186.633 322.944 187.011C323.553 187.373 324.269 187.555 325.092 187.555C325.899 187.555 326.574 187.398 327.117 187.085C327.661 186.756 327.932 186.254 327.932 185.579C327.932 185.019 327.685 184.575 327.191 184.246C326.697 183.916 326.097 183.661 325.389 183.48C324.681 183.299 323.973 183.101 323.265 182.887C322.557 182.657 321.956 182.286 321.462 181.776C320.968 181.249 320.722 180.566 320.722 179.727C320.722 178.722 321.117 177.883 321.907 177.208C322.713 176.533 323.726 176.195 324.944 176.195C325.948 176.195 326.829 176.426 327.586 176.887C328.344 177.331 328.903 177.94 329.266 178.714L327.907 179.504C327.43 178.352 326.442 177.776 324.944 177.776C324.236 177.776 323.627 177.949 323.117 178.294C322.606 178.624 322.351 179.101 322.351 179.727Z" fill="#E5E1FF"/>
<path d="M319.098 178.075H315.543V185.557C315.543 186.232 315.674 186.718 315.938 187.014C316.201 187.294 316.596 187.442 317.123 187.458C317.65 187.458 318.308 187.442 319.098 187.409V188.841C317.37 189.105 316.069 188.981 315.197 188.471C314.341 187.961 313.913 186.989 313.913 185.557V178.075H311.32V176.494H313.913V173.531L315.543 173.037V176.494H319.098V178.075Z" fill="#E5E1FF"/>
<path d="M303.107 179.727C303.107 180.286 303.354 180.731 303.848 181.06C304.342 181.389 304.943 181.644 305.651 181.826C306.359 182.007 307.067 182.212 307.775 182.443C308.482 182.657 309.083 183.027 309.577 183.554C310.071 184.064 310.318 184.739 310.318 185.579C310.318 186.633 309.898 187.489 309.059 188.147C308.236 188.806 307.165 189.135 305.848 189.135C304.663 189.135 303.651 188.872 302.811 188.345C301.988 187.818 301.412 187.135 301.083 186.295L302.465 185.48C302.696 186.122 303.107 186.633 303.7 187.011C304.309 187.373 305.025 187.555 305.848 187.555C306.655 187.555 307.33 187.398 307.873 187.085C308.417 186.756 308.688 186.254 308.688 185.579C308.688 185.019 308.441 184.575 307.947 184.246C307.454 183.916 306.853 183.661 306.145 183.48C305.437 183.299 304.729 183.101 304.021 182.887C303.313 182.657 302.712 182.286 302.218 181.776C301.725 181.249 301.478 180.566 301.478 179.727C301.478 178.722 301.873 177.883 302.663 177.208C303.47 176.533 304.482 176.195 305.7 176.195C306.705 176.195 307.585 176.426 308.343 176.887C309.1 177.331 309.66 177.94 310.022 178.714L308.664 179.504C308.186 178.352 307.198 177.776 305.7 177.776C304.992 177.776 304.383 177.949 303.873 178.294C303.363 178.624 303.107 179.101 303.107 179.727Z" fill="#E5E1FF"/>
<path d="M297.436 187.283C296.185 188.518 294.654 189.135 292.843 189.135C291.032 189.135 289.493 188.518 288.225 187.283C286.974 186.032 286.348 184.492 286.348 182.665C286.348 180.838 286.974 179.307 288.225 178.072C289.493 176.821 291.032 176.195 292.843 176.195C294.654 176.195 296.185 176.821 297.436 178.072C298.703 179.307 299.337 180.838 299.337 182.665C299.337 184.492 298.703 186.032 297.436 187.283ZM289.386 186.147C290.324 187.085 291.476 187.555 292.843 187.555C294.209 187.555 295.361 187.085 296.3 186.147C297.238 185.192 297.707 184.032 297.707 182.665C297.707 181.299 297.238 180.146 296.3 179.208C295.361 178.253 294.209 177.776 292.843 177.776C291.476 177.776 290.324 178.253 289.386 179.208C288.447 180.146 287.978 181.299 287.978 182.665C287.978 184.032 288.447 185.192 289.386 186.147Z" fill="#E5E1FF"/>
<path d="M282.46 187.283C281.209 188.518 279.678 189.135 277.867 189.135C276.056 189.135 274.517 188.518 273.249 187.283C271.998 186.032 271.373 184.492 271.373 182.665C271.373 180.838 271.998 179.307 273.249 178.072C274.517 176.821 276.056 176.195 277.867 176.195C279.678 176.195 281.209 176.821 282.46 178.072C283.728 179.307 284.362 180.838 284.362 182.665C284.362 184.492 283.728 186.032 282.46 187.283ZM274.41 186.147C275.348 187.085 276.501 187.555 277.867 187.555C279.233 187.555 280.386 187.085 281.324 186.147C282.263 185.192 282.732 184.032 282.732 182.665C282.732 181.299 282.263 180.146 281.324 179.208C280.386 178.253 279.233 177.776 277.867 177.776C276.501 177.776 275.348 178.253 274.41 179.208C273.472 180.146 273.002 181.299 273.002 182.665C273.002 184.032 273.472 185.192 274.41 186.147Z" fill="#E5E1FF"/>
<path d="M263.032 176.197C264.794 176.197 266.292 176.823 267.527 178.074C268.778 179.325 269.403 180.856 269.403 182.667C269.403 184.478 268.778 186.009 267.527 187.26C266.292 188.511 264.794 189.137 263.032 189.137C260.843 189.137 259.18 188.231 258.044 186.42V188.84H256.414V171.555H258.044V178.913C259.18 177.103 260.843 176.197 263.032 176.197ZM259.452 186.149C260.39 187.087 261.542 187.556 262.909 187.556C264.275 187.556 265.428 187.087 266.366 186.149C267.304 185.194 267.774 184.033 267.774 182.667C267.774 181.301 267.304 180.148 266.366 179.21C265.428 178.255 264.275 177.778 262.909 177.778C261.542 177.778 260.39 178.255 259.452 179.21C258.513 180.148 258.044 181.301 258.044 182.667C258.044 184.033 258.513 185.194 259.452 186.149Z" fill="#E5E1FF"/>
<path d="M240.311 179.727C240.311 180.286 240.558 180.731 241.052 181.06C241.546 181.389 242.147 181.644 242.855 181.826C243.563 182.007 244.271 182.212 244.978 182.443C245.686 182.657 246.287 183.027 246.781 183.554C247.275 184.064 247.522 184.739 247.522 185.579C247.522 186.633 247.102 187.489 246.263 188.147C245.439 188.806 244.369 189.135 243.052 189.135C241.867 189.135 240.855 188.872 240.015 188.345C239.192 187.818 238.616 187.135 238.286 186.295L239.669 185.48C239.9 186.122 240.311 186.633 240.904 187.011C241.513 187.373 242.229 187.555 243.052 187.555C243.859 187.555 244.534 187.398 245.077 187.085C245.62 186.756 245.892 186.254 245.892 185.579C245.892 185.019 245.645 184.575 245.151 184.246C244.657 183.916 244.057 183.661 243.349 183.48C242.641 183.299 241.933 183.101 241.225 182.887C240.517 182.657 239.916 182.286 239.422 181.776C238.928 181.249 238.681 180.566 238.681 179.727C238.681 178.722 239.077 177.883 239.867 177.208C240.673 176.533 241.686 176.195 242.904 176.195C243.908 176.195 244.789 176.426 245.546 176.887C246.304 177.331 246.863 177.94 247.226 178.714L245.867 179.504C245.39 178.352 244.402 177.776 242.904 177.776C242.196 177.776 241.587 177.949 241.077 178.294C240.566 178.624 240.311 179.101 240.311 179.727Z" fill="#E5E1FF"/>
<path d="M234.64 187.283C233.388 188.518 231.857 189.135 230.047 189.135C228.236 189.135 226.696 188.518 225.429 187.283C224.178 186.032 223.552 184.492 223.552 182.665C223.552 180.838 224.178 179.307 225.429 178.072C226.696 176.821 228.236 176.195 230.047 176.195C231.857 176.195 233.388 176.821 234.64 178.072C235.907 179.307 236.541 180.838 236.541 182.665C236.541 184.492 235.907 186.032 234.64 187.283ZM226.589 186.147C227.528 187.085 228.68 187.555 230.047 187.555C231.413 187.555 232.565 187.085 233.504 186.147C234.442 185.192 234.911 184.032 234.911 182.665C234.911 181.299 234.442 180.146 233.504 179.208C232.565 178.253 231.413 177.776 230.047 177.776C228.68 177.776 227.528 178.253 226.589 179.208C225.651 180.146 225.182 181.299 225.182 182.665C225.182 184.032 225.651 185.192 226.589 186.147Z" fill="#E5E1FF"/>
<path d="M215.576 176.195C217.404 176.195 218.877 176.846 219.996 178.146C221.132 179.43 221.7 180.953 221.7 182.715C221.7 182.896 221.684 183.151 221.651 183.48H210.81C210.975 184.731 211.502 185.727 212.391 186.468C213.296 187.192 214.407 187.555 215.724 187.555C216.663 187.555 217.469 187.365 218.144 186.987C218.836 186.591 219.354 186.081 219.7 185.456L221.132 186.295C220.589 187.168 219.848 187.859 218.91 188.369C217.972 188.88 216.901 189.135 215.7 189.135C213.757 189.135 212.177 188.526 210.958 187.308C209.74 186.089 209.131 184.542 209.131 182.665C209.131 180.821 209.732 179.282 210.934 178.047C212.136 176.813 213.683 176.195 215.576 176.195ZM215.576 177.776C214.292 177.776 213.214 178.163 212.341 178.936C211.485 179.694 210.975 180.681 210.81 181.9H220.021C219.857 180.599 219.354 179.587 218.515 178.862C217.675 178.138 216.696 177.776 215.576 177.776Z" fill="#E5E1FF"/>
<path d="M204.791 171.555H206.421V188.84H204.791V186.42C203.655 188.231 201.993 189.137 199.803 189.137C198.042 189.137 196.535 188.511 195.284 187.26C194.049 186.009 193.432 184.478 193.432 182.667C193.432 180.856 194.049 179.325 195.284 178.074C196.535 176.823 198.042 176.197 199.803 176.197C201.993 176.197 203.655 177.103 204.791 178.913V171.555ZM196.469 186.149C197.408 187.087 198.56 187.556 199.927 187.556C201.293 187.556 202.445 187.087 203.384 186.149C204.322 185.194 204.791 184.033 204.791 182.667C204.791 181.301 204.322 180.148 203.384 179.21C202.445 178.255 201.293 177.778 199.927 177.778C198.56 177.778 197.408 178.255 196.469 179.21C195.531 180.148 195.062 181.301 195.062 182.667C195.062 184.033 195.531 185.194 196.469 186.149Z" fill="#E5E1FF"/>
<path d="M190.739 173.529C190.509 173.759 190.229 173.875 189.899 173.875C189.57 173.875 189.29 173.759 189.06 173.529C188.829 173.298 188.714 173.018 188.714 172.689C188.714 172.36 188.829 172.08 189.06 171.85C189.29 171.619 189.57 171.504 189.899 171.504C190.229 171.504 190.509 171.619 190.739 171.85C190.97 172.08 191.085 172.36 191.085 172.689C191.085 173.018 190.97 173.298 190.739 173.529ZM189.085 188.839V176.492H190.714V188.839H189.085Z" fill="#E5E1FF"/>
<path d="M185.386 176.494H187.115L182.053 188.841H180.077L175.015 176.494H176.743L181.065 187.137L185.386 176.494Z" fill="#E5E1FF"/>
<path d="M161.606 176.195C163.434 176.195 164.907 176.846 166.027 178.146C167.163 179.43 167.731 180.953 167.731 182.715C167.731 182.896 167.714 183.151 167.681 183.48H156.84C157.005 184.731 157.532 185.727 158.421 186.468C159.326 187.192 160.438 187.555 161.755 187.555C162.693 187.555 163.5 187.365 164.175 186.987C164.866 186.591 165.385 186.081 165.73 185.456L167.163 186.295C166.619 187.168 165.878 187.859 164.94 188.369C164.002 188.88 162.932 189.135 161.73 189.135C159.787 189.135 158.207 188.526 156.989 187.308C155.77 186.089 155.161 184.542 155.161 182.665C155.161 180.821 155.762 179.282 156.964 178.047C158.166 176.813 159.713 176.195 161.606 176.195ZM161.606 177.776C160.322 177.776 159.244 178.163 158.371 178.936C157.515 179.694 157.005 180.681 156.84 181.9H166.051C165.887 180.599 165.385 179.587 164.545 178.862C163.705 178.138 162.726 177.776 161.606 177.776Z" fill="#E5E1FF"/>
<path d="M150.821 171.555H152.451V188.84H150.821V186.42C149.686 188.231 148.023 189.137 145.833 189.137C144.072 189.137 142.565 188.511 141.314 187.26C140.08 186.009 139.462 184.478 139.462 182.667C139.462 180.856 140.08 179.325 141.314 178.074C142.565 176.823 144.072 176.197 145.833 176.197C148.023 176.197 149.686 177.103 150.821 178.913V171.555ZM142.5 186.149C143.438 187.087 144.59 187.556 145.957 187.556C147.323 187.556 148.476 187.087 149.414 186.149C150.352 185.194 150.821 184.033 150.821 182.667C150.821 181.301 150.352 180.148 149.414 179.21C148.476 178.255 147.323 177.778 145.957 177.778C144.59 177.778 143.438 178.255 142.5 179.21C141.561 180.148 141.092 181.301 141.092 182.667C141.092 184.033 141.561 185.194 142.5 186.149Z" fill="#E5E1FF"/>
<path d="M135.122 176.492H136.752V188.839H135.122V186.419C133.987 188.23 132.324 189.135 130.134 189.135C128.373 189.135 126.866 188.509 125.615 187.258C124.381 186.007 123.763 184.476 123.763 182.665C123.763 180.854 124.381 179.323 125.615 178.072C126.866 176.821 128.373 176.195 130.134 176.195C132.324 176.195 133.987 177.101 135.122 178.912V176.492ZM126.801 186.147C127.739 187.085 128.891 187.555 130.258 187.555C131.624 187.555 132.776 187.085 133.715 186.147C134.653 185.192 135.122 184.032 135.122 182.665C135.122 181.299 134.653 180.146 133.715 179.208C132.776 178.253 131.624 177.776 130.258 177.776C128.891 177.776 127.739 178.253 126.801 179.208C125.862 180.146 125.393 181.299 125.393 182.665C125.393 184.032 125.862 185.192 126.801 186.147Z" fill="#E5E1FF"/>
<path d="M116.734 176.195C118.117 176.195 119.228 176.64 120.067 177.529C120.923 178.418 121.352 179.62 121.352 181.134V188.839H119.722V181.134C119.722 180.064 119.442 179.241 118.882 178.665C118.339 178.072 117.614 177.776 116.709 177.776C115.688 177.776 114.857 178.121 114.215 178.813C113.589 179.488 113.277 180.55 113.277 181.998V188.839H111.647V181.134C111.647 180.048 111.383 179.216 110.857 178.64C110.346 178.064 109.647 177.776 108.758 177.776C107.77 177.776 106.93 178.121 106.239 178.813C105.547 179.504 105.202 180.566 105.202 181.998V188.839H103.572V176.492H105.202V178.294C106.091 176.895 107.35 176.195 108.98 176.195C110.758 176.195 112.009 176.944 112.733 178.442C113.622 176.944 114.956 176.195 116.734 176.195Z" fill="#E5E1FF"/>
<path d="M90.9895 182V180.42H99.8793V182H90.9895Z" fill="#E5E1FF"/>
<path d="M87.5268 176.494H89.2554L83.9709 189.977C83.4935 191.195 82.8103 192.15 81.9213 192.842C81.0488 193.549 80.0692 193.862 78.9827 193.78V192.249C80.4643 192.414 81.592 191.557 82.3658 189.681L82.6868 188.915L77.1553 176.494H78.8839L83.5264 186.841L87.5268 176.494Z" fill="#E5E1FF"/>
<path d="M73.5562 171.555H75.186V188.84H73.5562V186.42C72.4203 188.231 70.7575 189.137 68.568 189.137C66.8065 189.137 65.3002 188.511 64.049 187.26C62.8143 186.009 62.197 184.478 62.197 182.667C62.197 180.856 62.8143 179.325 64.049 178.074C65.3002 176.823 66.8065 176.197 68.568 176.197C70.7575 176.197 72.4203 177.103 73.5562 178.913V171.555ZM65.2343 186.149C66.1727 187.087 67.3251 187.556 68.6915 187.556C70.0579 187.556 71.2103 187.087 72.1486 186.149C73.087 185.194 73.5562 184.033 73.5562 182.667C73.5562 181.301 73.087 180.148 72.1486 179.21C71.2103 178.255 70.0579 177.778 68.6915 177.778C67.3251 177.778 66.1727 178.255 65.2343 179.21C64.2959 180.148 63.8268 181.301 63.8268 182.667C63.8268 184.033 64.2959 185.194 65.2343 186.149Z" fill="#E5E1FF"/>
<path d="M57.8572 176.492H59.487V188.839H57.8572V186.419C56.7212 188.23 55.0585 189.135 52.869 189.135C51.1075 189.135 49.6011 188.509 48.35 187.258C47.1153 186.007 46.4979 184.476 46.4979 182.665C46.4979 180.854 47.1153 179.323 48.35 178.072C49.6011 176.821 51.1075 176.195 52.869 176.195C55.0585 176.195 56.7212 177.101 57.8572 178.912V176.492ZM49.5353 186.147C50.4737 187.085 51.626 187.555 52.9924 187.555C54.3588 187.555 55.5112 187.085 56.4496 186.147C57.388 185.192 57.8572 184.032 57.8572 182.665C57.8572 181.299 57.388 180.146 56.4496 179.208C55.5112 178.253 54.3588 177.776 52.9924 177.776C51.626 177.776 50.4737 178.253 49.5353 179.208C48.5969 180.146 48.1277 181.299 48.1277 182.665C48.1277 184.032 48.5969 185.192 49.5353 186.147Z" fill="#E5E1FF"/>
<path d="M38.5222 176.195C40.3495 176.195 41.8229 176.846 42.9424 178.146C44.0783 179.43 44.6463 180.953 44.6463 182.715C44.6463 182.896 44.6298 183.151 44.5969 183.48H33.7562C33.9208 184.731 34.4476 185.727 35.3366 186.468C36.2421 187.192 37.3533 187.555 38.6703 187.555C39.6087 187.555 40.4154 187.365 41.0903 186.987C41.7818 186.591 42.3003 186.081 42.6461 185.456L44.0783 186.295C43.535 187.168 42.7942 187.859 41.8558 188.369C40.9175 188.88 39.8474 189.135 38.6456 189.135C36.703 189.135 35.1226 188.526 33.9044 187.308C32.6861 186.089 32.077 184.542 32.077 182.665C32.077 180.821 32.6779 179.282 33.8797 178.047C35.0815 176.813 36.629 176.195 38.5222 176.195ZM38.5222 177.776C37.2381 177.776 36.1598 178.163 35.2872 178.936C34.4312 179.694 33.9208 180.681 33.7562 181.9H42.9671C42.8025 180.599 42.3003 179.587 41.4607 178.862C40.6211 178.138 39.6416 177.776 38.5222 177.776Z" fill="#E5E1FF"/>
<path d="M27.4302 178.544C28.1874 177.046 29.488 176.297 31.3318 176.297V177.877C30.2123 177.877 29.2822 178.207 28.5414 178.865C27.8006 179.524 27.4302 180.561 27.4302 181.976V188.841H25.8004V176.494H27.4302V178.544Z" fill="#E5E1FF"/>
<path d="M580.928 143.271C582.311 143.271 583.422 143.716 584.262 144.605C585.118 145.494 585.546 146.696 585.546 148.21V155.915H583.916V148.21C583.916 147.14 583.636 146.317 583.076 145.741C582.533 145.148 581.809 144.852 580.903 144.852C579.883 144.852 579.051 145.198 578.409 145.889C577.784 146.564 577.471 147.626 577.471 149.075V155.915H575.841V148.21C575.841 147.124 575.578 146.292 575.051 145.716C574.541 145.14 573.841 144.852 572.952 144.852C571.964 144.852 571.125 145.198 570.433 145.889C569.742 146.58 569.396 147.642 569.396 149.075V155.915H567.766V143.568H569.396V145.37C570.285 143.971 571.544 143.271 573.174 143.271C574.952 143.271 576.203 144.021 576.928 145.519C577.817 144.021 579.15 143.271 580.928 143.271Z" fill="#E5E1FF"/>
<path d="M559.05 143.271C560.877 143.271 562.35 143.922 563.47 145.222C564.606 146.506 565.174 148.029 565.174 149.791C565.174 149.972 565.157 150.227 565.124 150.556H554.284C554.448 151.807 554.975 152.803 555.864 153.544C556.77 154.269 557.881 154.631 559.198 154.631C560.136 154.631 560.943 154.441 561.618 154.063C562.309 153.668 562.828 153.157 563.173 152.532L564.606 153.371C564.063 154.244 563.322 154.935 562.383 155.446C561.445 155.956 560.375 156.211 559.173 156.211C557.23 156.211 555.65 155.602 554.432 154.384C553.214 153.166 552.604 151.618 552.604 149.741C552.604 147.897 553.205 146.358 554.407 145.124C555.609 143.889 557.156 143.271 559.05 143.271ZM559.05 144.852C557.766 144.852 556.687 145.239 555.815 146.013C554.959 146.77 554.448 147.758 554.284 148.976H563.495C563.33 147.675 562.828 146.663 561.988 145.938C561.149 145.214 560.169 144.852 559.05 144.852Z" fill="#E5E1FF"/>
<path d="M545.354 143.271C546.852 143.271 548.029 143.732 548.885 144.654C549.758 145.56 550.194 146.786 550.194 148.334V155.915H548.564V148.334C548.564 147.231 548.268 146.375 547.675 145.765C547.099 145.156 546.276 144.852 545.206 144.852C544.02 144.852 543.057 145.23 542.316 145.988C541.576 146.729 541.205 147.881 541.205 149.445V155.915H539.575V138.629H541.205V145.494C542.127 144.012 543.51 143.271 545.354 143.271Z" fill="#E5E1FF"/>
<path d="M536.859 145.147H533.303V152.629C533.303 153.304 533.435 153.79 533.698 154.086C533.962 154.366 534.357 154.514 534.884 154.531C535.41 154.531 536.069 154.514 536.859 154.481V155.914C535.13 156.177 533.83 156.053 532.957 155.543C532.101 155.033 531.673 154.061 531.673 152.629V145.147H529.08V143.567H531.673V140.603L533.303 140.109V143.567H536.859V145.147Z" fill="#E5E1FF"/>
<path d="M519.061 143.568H520.691V155.421C520.691 157.199 520.082 158.598 518.864 159.619C517.645 160.64 516.188 161.15 514.493 161.15C511.595 161.15 509.645 160.146 508.64 158.137L510.073 157.322C510.813 158.82 512.287 159.57 514.493 159.57C515.909 159.57 517.02 159.191 517.826 158.434C518.65 157.693 519.061 156.689 519.061 155.421V153.495C517.925 155.306 516.262 156.211 514.073 156.211C512.311 156.211 510.805 155.586 509.554 154.334C508.319 153.083 507.702 151.552 507.702 149.741C507.702 147.93 508.319 146.399 509.554 145.148C510.805 143.897 512.311 143.271 514.073 143.271C516.262 143.271 517.925 144.177 519.061 145.988V143.568ZM510.739 153.223C511.678 154.162 512.83 154.631 514.196 154.631C515.563 154.631 516.715 154.162 517.654 153.223C518.592 152.268 519.061 151.108 519.061 149.741C519.061 148.375 518.592 147.223 517.654 146.284C516.715 145.329 515.563 144.852 514.196 144.852C512.83 144.852 511.678 145.329 510.739 146.284C509.801 147.223 509.332 148.375 509.332 149.741C509.332 151.108 509.801 152.268 510.739 153.223Z" fill="#E5E1FF"/>
<path d="M500.451 143.271C501.949 143.271 503.126 143.732 503.982 144.654C504.855 145.56 505.291 146.786 505.291 148.334V155.915H503.662V148.334C503.662 147.231 503.365 146.375 502.773 145.766C502.196 145.156 501.373 144.852 500.303 144.852C499.118 144.852 498.155 145.231 497.414 145.988C496.673 146.729 496.303 147.881 496.303 149.445V155.915H494.673V143.568H496.303V145.494C497.225 144.012 498.607 143.271 500.451 143.271Z" fill="#E5E1FF"/>
<path d="M491.239 140.605C491.008 140.835 490.729 140.951 490.399 140.951C490.07 140.951 489.79 140.835 489.56 140.605C489.329 140.375 489.214 140.095 489.214 139.765C489.214 139.436 489.329 139.156 489.56 138.926C489.79 138.695 490.07 138.58 490.399 138.58C490.729 138.58 491.008 138.695 491.239 138.926C491.469 139.156 491.585 139.436 491.585 139.765C491.585 140.095 491.469 140.375 491.239 140.605ZM489.584 155.915V143.568H491.214V155.915H489.584Z" fill="#E5E1FF"/>
<path d="M483.449 145.618C484.207 144.12 485.507 143.371 487.351 143.371V144.952C486.231 144.952 485.301 145.281 484.561 145.939C483.82 146.598 483.449 147.635 483.449 149.051V155.916H481.819V143.569H483.449V145.618Z" fill="#E5E1FF"/>
<path d="M473.103 143.271C474.93 143.271 476.404 143.922 477.523 145.222C478.659 146.506 479.227 148.029 479.227 149.791C479.227 149.972 479.21 150.227 479.178 150.556H468.337C468.502 151.807 469.028 152.803 469.917 153.544C470.823 154.269 471.934 154.631 473.251 154.631C474.189 154.631 474.996 154.441 475.671 154.063C476.362 153.668 476.881 153.157 477.227 152.532L478.659 153.371C478.116 154.244 477.375 154.935 476.437 155.446C475.498 155.956 474.428 156.211 473.226 156.211C471.284 156.211 469.703 155.602 468.485 154.384C467.267 153.166 466.658 151.618 466.658 149.741C466.658 147.897 467.259 146.358 468.46 145.124C469.662 143.889 471.21 143.271 473.103 143.271ZM473.103 144.852C471.819 144.852 470.74 145.239 469.868 146.013C469.012 146.77 468.502 147.758 468.337 148.976H477.548C477.383 147.675 476.881 146.663 476.041 145.938C475.202 145.214 474.222 144.852 473.103 144.852Z" fill="#E5E1FF"/>
<path d="M466.421 139.666C465.22 139.567 464.322 139.773 463.73 140.283C463.154 140.793 462.865 141.641 462.865 142.827V143.567H466.421V145.148H462.865V155.914H461.236V145.148H456.198V155.914H454.568V145.148H452.469V143.567H454.568V143.074C454.568 141.46 455.013 140.242 455.902 139.419C456.807 138.579 458.091 138.217 459.754 138.332V139.913C458.552 139.814 457.655 140.02 457.062 140.53C456.486 141.04 456.198 141.888 456.198 143.074V143.567H461.236V142.827C461.236 141.213 461.68 139.995 462.569 139.172C463.475 138.332 464.759 137.97 466.421 138.085V139.666Z" fill="#E5E1FF"/>
<path d="M448.279 153.618C446.55 155.346 444.435 156.21 441.932 156.21C439.43 156.21 437.314 155.346 435.586 153.618C433.857 151.873 432.993 149.757 432.993 147.271C432.993 144.785 433.857 142.678 435.586 140.95C437.314 139.205 439.43 138.332 441.932 138.332C444.435 138.332 446.55 139.205 448.279 140.95C450.007 142.678 450.871 144.785 450.871 147.271C450.871 149.757 450.007 151.873 448.279 153.618ZM436.796 152.432C438.179 153.832 439.891 154.531 441.932 154.531C443.974 154.531 445.686 153.832 447.069 152.432C448.451 151.017 449.143 149.296 449.143 147.271C449.143 145.246 448.451 143.534 447.069 142.135C445.686 140.719 443.974 140.011 441.932 140.011C439.891 140.011 438.179 140.719 436.796 142.135C435.413 143.534 434.722 145.246 434.722 147.271C434.722 149.296 435.413 151.017 436.796 152.432Z" fill="#E5E1FF"/>
<path d="M423.943 155.767C423.68 156.03 423.359 156.162 422.98 156.162C422.601 156.162 422.28 156.03 422.017 155.767C421.754 155.503 421.622 155.182 421.622 154.803C421.622 154.425 421.754 154.104 422.017 153.84C422.28 153.577 422.601 153.445 422.98 153.445C423.359 153.445 423.68 153.577 423.943 153.84C424.206 154.104 424.338 154.425 424.338 154.803C424.338 155.182 424.206 155.503 423.943 155.767Z" fill="#E5E1FF"/>
<path d="M414.141 143.271C415.969 143.271 417.442 143.922 418.561 145.222C419.697 146.506 420.265 148.029 420.265 149.791C420.265 149.972 420.249 150.227 420.216 150.556H409.375C409.54 151.807 410.067 152.803 410.956 153.544C411.861 154.269 412.972 154.631 414.289 154.631C415.228 154.631 416.034 154.441 416.709 154.063C417.401 153.668 417.919 153.157 418.265 152.532L419.697 153.371C419.154 154.244 418.413 154.935 417.475 155.446C416.536 155.956 415.466 156.211 414.265 156.211C412.322 156.211 410.742 155.602 409.523 154.384C408.305 153.166 407.696 151.618 407.696 149.741C407.696 147.897 408.297 146.358 409.499 145.124C410.7 143.889 412.248 143.271 414.141 143.271ZM414.141 144.852C412.857 144.852 411.779 145.239 410.906 146.013C410.05 146.77 409.54 147.758 409.375 148.976H418.586C418.421 147.675 417.919 146.663 417.08 145.938C416.24 145.214 415.261 144.852 414.141 144.852Z" fill="#E5E1FF"/>
<path d="M400.686 156.211C398.826 156.211 397.278 155.594 396.044 154.359C394.809 153.108 394.192 151.569 394.192 149.741C394.192 147.914 394.809 146.383 396.044 145.148C397.278 143.897 398.826 143.271 400.686 143.271C401.904 143.271 402.999 143.568 403.97 144.16C404.942 144.737 405.65 145.519 406.094 146.506L404.761 147.272C404.431 146.531 403.896 145.947 403.155 145.519C402.431 145.074 401.608 144.852 400.686 144.852C399.32 144.852 398.167 145.329 397.229 146.284C396.291 147.223 395.821 148.375 395.821 149.741C395.821 151.108 396.291 152.268 397.229 153.223C398.167 154.162 399.32 154.631 400.686 154.631C401.608 154.631 402.431 154.417 403.155 153.989C403.88 153.544 404.448 152.952 404.859 152.211L406.217 153.001C405.707 153.989 404.958 154.771 403.97 155.347C402.983 155.923 401.888 156.211 400.686 156.211Z" fill="#E5E1FF"/>
<path d="M386.941 143.271C388.439 143.271 389.616 143.732 390.472 144.654C391.345 145.56 391.781 146.786 391.781 148.334V155.915H390.151V148.334C390.151 147.231 389.855 146.375 389.262 145.766C388.686 145.156 387.863 144.852 386.793 144.852C385.608 144.852 384.644 145.231 383.904 145.988C383.163 146.729 382.792 147.881 382.792 149.445V155.915H381.163V143.568H382.792V145.494C383.714 144.012 385.097 143.271 386.941 143.271Z" fill="#E5E1FF"/>
<path d="M372.446 143.271C374.273 143.271 375.747 143.922 376.866 145.222C378.002 146.506 378.57 148.029 378.57 149.791C378.57 149.972 378.554 150.227 378.521 150.556H367.68C367.845 151.807 368.371 152.803 369.26 153.544C370.166 154.269 371.277 154.631 372.594 154.631C373.532 154.631 374.339 154.441 375.014 154.063C375.705 153.668 376.224 153.157 376.57 152.532L378.002 153.371C377.459 154.244 376.718 154.935 375.78 155.446C374.841 155.956 373.771 156.211 372.569 156.211C370.627 156.211 369.046 155.602 367.828 154.384C366.61 153.166 366.001 151.618 366.001 149.741C366.001 147.897 366.602 146.358 367.803 145.124C369.005 143.889 370.553 143.271 372.446 143.271ZM372.446 144.852C371.162 144.852 370.083 145.239 369.211 146.013C368.355 146.77 367.845 147.758 367.68 148.976H376.891C376.726 147.675 376.224 146.663 375.384 145.938C374.545 145.214 373.565 144.852 372.446 144.852Z" fill="#E5E1FF"/>
<path d="M357.174 146.803C357.174 147.362 357.421 147.807 357.915 148.136C358.408 148.465 359.009 148.721 359.717 148.902C360.425 149.083 361.133 149.289 361.841 149.519C362.549 149.733 363.15 150.103 363.644 150.63C364.137 151.141 364.384 151.816 364.384 152.655C364.384 153.709 363.965 154.565 363.125 155.223C362.302 155.882 361.232 156.211 359.915 156.211C358.729 156.211 357.717 155.948 356.877 155.421C356.054 154.894 355.478 154.211 355.149 153.371L356.532 152.556C356.762 153.198 357.174 153.709 357.766 154.087C358.375 154.45 359.092 154.631 359.915 154.631C360.721 154.631 361.396 154.474 361.94 154.162C362.483 153.832 362.755 153.33 362.755 152.655C362.755 152.095 362.508 151.651 362.014 151.322C361.52 150.992 360.919 150.737 360.211 150.556C359.503 150.375 358.795 150.178 358.087 149.964C357.379 149.733 356.779 149.363 356.285 148.852C355.791 148.326 355.544 147.642 355.544 146.803C355.544 145.799 355.939 144.959 356.729 144.284C357.536 143.609 358.548 143.271 359.767 143.271C360.771 143.271 361.652 143.502 362.409 143.963C363.166 144.407 363.726 145.017 364.088 145.79L362.73 146.58C362.252 145.428 361.265 144.852 359.767 144.852C359.059 144.852 358.45 145.025 357.939 145.37C357.429 145.7 357.174 146.177 357.174 146.803Z" fill="#E5E1FF"/>
<path d="M347.655 143.271C349.483 143.271 350.956 143.922 352.076 145.222C353.211 146.506 353.779 148.029 353.779 149.791C353.779 149.972 353.763 150.227 353.73 150.556H342.889C343.054 151.807 343.581 152.803 344.47 153.544C345.375 154.269 346.486 154.631 347.803 154.631C348.742 154.631 349.549 154.441 350.223 154.063C350.915 153.668 351.434 153.157 351.779 152.532L353.211 153.371C352.668 154.244 351.927 154.935 350.989 155.446C350.051 155.956 348.981 156.211 347.779 156.211C345.836 156.211 344.256 155.602 343.038 154.384C341.819 153.166 341.21 151.618 341.21 149.741C341.21 147.897 341.811 146.358 343.013 145.124C344.215 143.889 345.762 143.271 347.655 143.271ZM347.655 144.852C346.371 144.852 345.293 145.239 344.42 146.013C343.564 146.77 343.054 147.758 342.889 148.976H352.1C351.936 147.675 351.434 146.663 350.594 145.938C349.754 145.214 348.775 144.852 347.655 144.852Z" fill="#E5E1FF"/>
<path d="M336.563 145.618C337.321 144.12 338.621 143.371 340.465 143.371V144.952C339.345 144.952 338.415 145.281 337.674 145.939C336.934 146.598 336.563 147.635 336.563 149.051V155.916H334.933V143.569H336.563V145.618Z" fill="#E5E1FF"/>
<path d="M325.852 143.271C327.614 143.271 329.112 143.897 330.347 145.148C331.598 146.399 332.224 147.93 332.224 149.741C332.224 151.552 331.598 153.083 330.347 154.334C329.112 155.586 327.614 156.211 325.852 156.211C323.663 156.211 322 155.306 320.864 153.495V160.854H319.234V143.568H320.864V145.988C322 144.177 323.663 143.271 325.852 143.271ZM322.272 153.223C323.21 154.162 324.363 154.631 325.729 154.631C327.095 154.631 328.248 154.162 329.186 153.223C330.125 152.268 330.594 151.108 330.594 149.741C330.594 148.375 330.125 147.223 329.186 146.284C328.248 145.329 327.095 144.852 325.729 144.852C324.363 144.852 323.21 145.329 322.272 146.284C321.333 147.223 320.864 148.375 320.864 149.741C320.864 151.108 321.333 152.268 322.272 153.223Z" fill="#E5E1FF"/>
<path d="M308.432 154.359C307.181 155.594 305.65 156.211 303.839 156.211C302.028 156.211 300.489 155.594 299.221 154.359C297.97 153.108 297.345 151.569 297.345 149.741C297.345 147.914 297.97 146.383 299.221 145.148C300.489 143.897 302.028 143.271 303.839 143.271C305.65 143.271 307.181 143.897 308.432 145.148C309.7 146.383 310.334 147.914 310.334 149.741C310.334 151.569 309.7 153.108 308.432 154.359ZM300.382 153.223C301.32 154.162 302.473 154.631 303.839 154.631C305.206 154.631 306.358 154.162 307.296 153.223C308.235 152.268 308.704 151.108 308.704 149.741C308.704 148.375 308.235 147.223 307.296 146.284C306.358 145.329 305.206 144.852 303.839 144.852C302.473 144.852 301.32 145.329 300.382 146.284C299.444 147.223 298.974 148.375 298.974 149.741C298.974 151.108 299.444 152.268 300.382 153.223Z" fill="#E5E1FF"/>
<path d="M289.369 143.271C291.196 143.271 292.67 143.922 293.789 145.222C294.925 146.506 295.493 148.029 295.493 149.791C295.493 149.972 295.476 150.227 295.444 150.556H284.603C284.768 151.807 285.294 152.803 286.183 153.544C287.089 154.269 288.2 154.631 289.517 154.631C290.455 154.631 291.262 154.441 291.937 154.063C292.628 153.668 293.147 153.157 293.493 152.532L294.925 153.371C294.382 154.244 293.641 154.935 292.703 155.446C291.764 155.956 290.694 156.211 289.492 156.211C287.55 156.211 285.969 155.602 284.751 154.384C283.533 153.166 282.924 151.618 282.924 149.741C282.924 147.897 283.525 146.358 284.726 145.124C285.928 143.889 287.476 143.271 289.369 143.271ZM289.369 144.852C288.085 144.852 287.006 145.239 286.134 146.013C285.278 146.77 284.768 147.758 284.603 148.976H293.814C293.649 147.675 293.147 146.663 292.307 145.938C291.468 145.214 290.488 144.852 289.369 144.852Z" fill="#E5E1FF"/>
<path d="M278.584 138.629H280.214V155.915H278.584V153.495C277.448 155.306 275.785 156.211 273.596 156.211C271.834 156.211 270.328 155.585 269.077 154.334C267.842 153.083 267.225 151.552 267.225 149.741C267.225 147.93 267.842 146.399 269.077 145.148C270.328 143.897 271.834 143.271 273.596 143.271C275.785 143.271 277.448 144.177 278.584 145.988V138.629ZM270.262 153.223C271.2 154.161 272.353 154.631 273.719 154.631C275.086 154.631 276.238 154.161 277.176 153.223C278.115 152.268 278.584 151.108 278.584 149.741C278.584 148.375 278.115 147.222 277.176 146.284C276.238 145.329 275.086 144.852 273.719 144.852C272.353 144.852 271.2 145.329 270.262 146.284C269.324 147.222 268.854 148.375 268.854 149.741C268.854 151.108 269.324 152.268 270.262 153.223Z" fill="#E5E1FF"/>
<path d="M264.532 140.605C264.301 140.835 264.021 140.951 263.692 140.951C263.363 140.951 263.083 140.835 262.852 140.605C262.622 140.375 262.507 140.095 262.507 139.765C262.507 139.436 262.622 139.156 262.852 138.926C263.083 138.695 263.363 138.58 263.692 138.58C264.021 138.58 264.301 138.695 264.532 138.926C264.762 139.156 264.877 139.436 264.877 139.765C264.877 140.095 264.762 140.375 264.532 140.605ZM262.877 155.915V143.568H264.507V155.915H262.877Z" fill="#E5E1FF"/>
<path d="M259.179 143.568H260.907L255.845 155.915H253.87L248.807 143.568H250.536L254.857 154.211L259.179 143.568Z" fill="#E5E1FF"/>
<path d="M239.035 143.568H240.665V155.421C240.665 157.199 240.056 158.598 238.837 159.619C237.619 160.64 236.162 161.15 234.467 161.15C231.569 161.15 229.618 160.146 228.614 158.137L230.046 157.322C230.787 158.82 232.261 159.57 234.467 159.57C235.882 159.57 236.994 159.191 237.8 158.434C238.623 157.693 239.035 156.689 239.035 155.421V153.495C237.899 155.306 236.236 156.211 234.047 156.211C232.285 156.211 230.779 155.586 229.528 154.334C228.293 153.083 227.676 151.552 227.676 149.741C227.676 147.93 228.293 146.399 229.528 145.148C230.779 143.897 232.285 143.271 234.047 143.271C236.236 143.271 237.899 144.177 239.035 145.988V143.568ZM230.713 153.223C231.651 154.162 232.804 154.631 234.17 154.631C235.537 154.631 236.689 154.162 237.627 153.223C238.566 152.268 239.035 151.108 239.035 149.741C239.035 148.375 238.566 147.223 237.627 146.284C236.689 145.329 235.537 144.852 234.17 144.852C232.804 144.852 231.651 145.329 230.713 146.284C229.775 147.223 229.306 148.375 229.306 149.741C229.306 151.108 229.775 152.268 230.713 153.223Z" fill="#E5E1FF"/>
<path d="M220.425 143.271C221.923 143.271 223.1 143.732 223.956 144.654C224.829 145.56 225.265 146.786 225.265 148.334V155.915H223.635V148.334C223.635 147.231 223.339 146.375 222.746 145.766C222.17 145.156 221.347 144.852 220.277 144.852C219.092 144.852 218.128 145.231 217.388 145.988C216.647 146.729 216.276 147.881 216.276 149.445V155.915H214.647V143.568H216.276V145.494C217.198 144.012 218.581 143.271 220.425 143.271Z" fill="#E5E1FF"/>
<path d="M210.018 154.359C208.767 155.594 207.236 156.211 205.425 156.211C203.614 156.211 202.075 155.594 200.807 154.359C199.556 153.108 198.93 151.569 198.93 149.741C198.93 147.914 199.556 146.383 200.807 145.148C202.075 143.897 203.614 143.271 205.425 143.271C207.236 143.271 208.767 143.897 210.018 145.148C211.286 146.383 211.919 147.914 211.919 149.741C211.919 151.569 211.286 153.108 210.018 154.359ZM201.968 153.223C202.906 154.162 204.059 154.631 205.425 154.631C206.791 154.631 207.944 154.162 208.882 153.223C209.82 152.268 210.29 151.108 210.29 149.741C210.29 148.375 209.82 147.223 208.882 146.284C207.944 145.329 206.791 144.852 205.425 144.852C204.059 144.852 202.906 145.329 201.968 146.284C201.029 147.223 200.56 148.375 200.56 149.741C200.56 151.108 201.029 152.268 201.968 153.223Z" fill="#E5E1FF"/>
<path d="M194.283 145.618C195.041 144.12 196.341 143.371 198.185 143.371V144.952C197.066 144.952 196.135 145.281 195.395 145.939C194.654 146.598 194.283 147.635 194.283 149.051V155.916H192.654V143.569H194.283V145.618Z" fill="#E5E1FF"/>
<path d="M189.937 145.147H186.381V152.629C186.381 153.304 186.513 153.79 186.776 154.086C187.04 154.366 187.435 154.514 187.962 154.531C188.488 154.531 189.147 154.514 189.937 154.481V155.914C188.209 156.177 186.908 156.053 186.036 155.543C185.179 155.033 184.751 154.061 184.751 152.629V145.147H182.159V143.567H184.751V140.603L186.381 140.109V143.567H189.937V145.147Z" fill="#E5E1FF"/>
<path d="M173.946 146.803C173.946 147.362 174.193 147.807 174.687 148.136C175.181 148.465 175.782 148.721 176.49 148.902C177.198 149.083 177.905 149.289 178.613 149.519C179.321 149.733 179.922 150.103 180.416 150.63C180.91 151.141 181.157 151.816 181.157 152.655C181.157 153.709 180.737 154.565 179.897 155.223C179.074 155.882 178.004 156.211 176.687 156.211C175.502 156.211 174.489 155.948 173.65 155.421C172.827 154.894 172.251 154.211 171.921 153.371L173.304 152.556C173.535 153.198 173.946 153.709 174.539 154.087C175.148 154.45 175.864 154.631 176.687 154.631C177.494 154.631 178.169 154.474 178.712 154.162C179.255 153.832 179.527 153.33 179.527 152.655C179.527 152.095 179.28 151.651 178.786 151.322C178.292 150.992 177.691 150.737 176.984 150.556C176.276 150.375 175.568 150.178 174.86 149.964C174.152 149.733 173.551 149.363 173.057 148.852C172.563 148.326 172.316 147.642 172.316 146.803C172.316 145.799 172.711 144.959 173.502 144.284C174.308 143.609 175.321 143.271 176.539 143.271C177.543 143.271 178.424 143.502 179.181 143.963C179.939 144.407 180.498 145.017 180.86 145.79L179.502 146.58C179.025 145.428 178.037 144.852 176.539 144.852C175.831 144.852 175.222 145.025 174.712 145.37C174.201 145.7 173.946 146.177 173.946 146.803Z" fill="#E5E1FF"/>
<path d="M161.408 143.568H163.038V155.915H161.408V153.495C160.272 155.306 158.609 156.211 156.42 156.211C154.658 156.211 153.152 155.586 151.901 154.334C150.666 153.083 150.049 151.552 150.049 149.741C150.049 147.93 150.666 146.399 151.901 145.148C153.152 143.897 154.658 143.271 156.42 143.271C158.609 143.271 160.272 144.177 161.408 145.988V143.568ZM153.086 153.223C154.025 154.162 155.177 154.631 156.543 154.631C157.91 154.631 159.062 154.162 160 153.223C160.939 152.268 161.408 151.108 161.408 149.741C161.408 148.375 160.939 147.223 160 146.284C159.062 145.329 157.91 144.852 156.543 144.852C155.177 144.852 154.025 145.329 153.086 146.284C152.148 147.223 151.679 148.375 151.679 149.741C151.679 151.108 152.148 152.268 153.086 153.223Z" fill="#E5E1FF"/>
<path d="M142.39 155.915H140.217L134.043 149.963V155.915H132.414V138.629H134.043V149.025L139.921 143.568H142.143L135.772 149.494L142.39 155.915Z" fill="#E5E1FF"/>
<path d="M124.542 156.211C122.682 156.211 121.135 155.594 119.9 154.359C118.665 153.108 118.048 151.569 118.048 149.741C118.048 147.914 118.665 146.383 119.9 145.148C121.135 143.897 122.682 143.271 124.542 143.271C125.761 143.271 126.855 143.568 127.827 144.16C128.798 144.737 129.506 145.519 129.95 146.506L128.617 147.272C128.288 146.531 127.753 145.947 127.012 145.519C126.287 145.074 125.464 144.852 124.542 144.852C123.176 144.852 122.024 145.329 121.085 146.284C120.147 147.223 119.678 148.375 119.678 149.741C119.678 151.108 120.147 152.268 121.085 153.223C122.024 154.162 123.176 154.631 124.542 154.631C125.464 154.631 126.287 154.417 127.012 153.989C127.736 153.544 128.304 152.952 128.716 152.211L130.074 153.001C129.563 153.989 128.814 154.771 127.827 155.347C126.839 155.923 125.744 156.211 124.542 156.211Z" fill="#E5E1FF"/>
<path d="M113.708 143.568H115.338V155.915H113.708V153.495C112.572 155.306 110.909 156.211 108.72 156.211C106.958 156.211 105.452 155.586 104.201 154.334C102.966 153.083 102.349 151.552 102.349 149.741C102.349 147.93 102.966 146.399 104.201 145.148C105.452 143.897 106.958 143.271 108.72 143.271C110.909 143.271 112.572 144.177 113.708 145.988V143.568ZM105.386 153.223C106.325 154.162 107.477 154.631 108.843 154.631C110.21 154.631 111.362 154.162 112.3 153.223C113.239 152.268 113.708 151.108 113.708 149.741C113.708 148.375 113.239 147.223 112.3 146.284C111.362 145.329 110.21 144.852 108.843 144.852C107.477 144.852 106.325 145.329 105.386 146.284C104.448 147.223 103.979 148.375 103.979 149.741C103.979 151.108 104.448 152.268 105.386 153.223Z" fill="#E5E1FF"/>
<path d="M98.0013 155.915V137.889H99.6311V155.915H98.0013Z" fill="#E5E1FF"/>
<path d="M89.1115 145.147H85.5556V152.629C85.5556 153.304 85.6873 153.79 85.9507 154.086C86.2141 154.366 86.6092 154.514 87.136 154.531C87.6628 154.531 88.3213 154.514 89.1115 154.481V155.914C87.3829 156.177 86.0824 156.053 85.2098 155.543C84.3538 155.033 83.9258 154.061 83.9258 152.629V145.147H81.3329V143.567H83.9258V140.603L85.5556 140.109V143.567H89.1115V145.147Z" fill="#E5E1FF"/>
<path d="M74.5762 143.271C76.0743 143.271 77.2514 143.732 78.1075 144.654C78.98 145.56 79.4163 146.786 79.4163 148.334V155.915H77.7865V148.334C77.7865 147.231 77.4901 146.375 76.8975 145.766C76.3213 145.156 75.4982 144.852 74.4281 144.852C73.2428 144.852 72.2797 145.231 71.5389 145.988C70.7981 146.729 70.4277 147.881 70.4277 149.445V155.915H68.7979V143.568H70.4277V145.494C71.3496 144.012 72.7324 143.271 74.5762 143.271Z" fill="#E5E1FF"/>
<path d="M60.0812 143.271C61.9086 143.271 63.382 143.922 64.5015 145.222C65.6374 146.506 66.2054 148.029 66.2054 149.791C66.2054 149.972 66.1889 150.227 66.156 150.556H55.3153C55.4799 151.807 56.0067 152.803 56.8957 153.544C57.8012 154.269 58.9124 154.631 60.2294 154.631C61.1678 154.631 61.9744 154.441 62.6494 154.063C63.3408 153.668 63.8594 153.157 64.2051 152.532L65.6374 153.371C65.0941 154.244 64.3533 154.935 63.4149 155.446C62.4766 155.956 61.4065 156.211 60.2047 156.211C58.2621 156.211 56.6817 155.602 55.4635 154.384C54.2452 153.166 53.6361 151.618 53.6361 149.741C53.6361 147.897 54.237 146.358 55.4388 145.124C56.6405 143.889 58.188 143.271 60.0812 143.271ZM60.0812 144.852C58.7972 144.852 57.7188 145.239 56.8463 146.013C55.9903 146.77 55.4799 147.758 55.3153 148.976H64.5262C64.3615 147.675 63.8594 146.663 63.0198 145.938C62.1802 145.214 61.2007 144.852 60.0812 144.852Z" fill="#E5E1FF"/>
<path d="M50.9431 140.605C50.7126 140.835 50.4327 140.951 50.1035 140.951C49.7742 140.951 49.4943 140.835 49.2639 140.605C49.0334 140.375 48.9182 140.095 48.9182 139.765C48.9182 139.436 49.0334 139.156 49.2639 138.926C49.4943 138.695 49.7742 138.58 50.1035 138.58C50.4327 138.58 50.7126 138.695 50.9431 138.926C51.1735 139.156 51.2888 139.436 51.2888 139.765C51.2888 140.095 51.1735 140.375 50.9431 140.605ZM49.2886 155.915V143.568H50.9184V155.915H49.2886Z" fill="#E5E1FF"/>
<path d="M44.2002 155.915V137.889H45.83V155.915H44.2002Z" fill="#E5E1FF"/>
<path d="M34.1223 156.21C31.5047 156.21 29.3399 155.346 27.6277 153.618C25.9156 151.889 25.0596 149.774 25.0596 147.271C25.0596 144.769 25.9156 142.653 27.6277 140.925C29.3399 139.196 31.5047 138.332 34.1223 138.332C35.7191 138.332 37.1843 138.719 38.5178 139.493C39.8513 140.25 40.8802 141.279 41.6045 142.579L40.0735 143.468C39.5303 142.415 38.7236 141.575 37.6535 140.95C36.5834 140.324 35.4064 140.011 34.1223 140.011C31.9657 140.011 30.2042 140.711 28.8378 142.11C27.4714 143.51 26.7882 145.23 26.7882 147.271C26.7882 149.313 27.4714 151.033 28.8378 152.432C30.2042 153.832 31.9657 154.531 34.1223 154.531C35.4064 154.531 36.5834 154.219 37.6535 153.593C38.7236 152.967 39.5303 152.128 40.0735 151.074L41.6045 151.938C40.8967 153.239 39.8677 154.276 38.5178 155.05C37.1843 155.824 35.7191 156.21 34.1223 156.21Z" fill="#E5E1FF"/>
</g>
<defs>
<linearGradient id="paint0_linear_2_7499" x1="500.855" y1="30.659" x2="-98.7888" y2="-64.9404" gradientUnits="userSpaceOnUse">
<stop stop-color="#2A2355"/>
<stop offset="1" stop-color="#1A114E" stop-opacity="0"/>
</linearGradient>
</defs>
</svg>
