<svg width="617" height="67" viewBox="0 0 617 67" fill="none" xmlns="http://www.w3.org/2000/svg">
<mask id="mask0_2_2012" style="mask-type:alpha" maskUnits="userSpaceOnUse" x="0" y="0" width="617" height="67">
<rect width="617" height="67" rx="10" fill="#FF5811"/>
</mask>
<g mask="url(#mask0_2_2012)">
<rect width="617" height="67" rx="10" fill="#6336AC"/>
<rect width="4.00718" height="244.349" transform="matrix(0.970259 -0.24207 0.42096 0.907079 -16.8729 0.193359)" fill="#4F2B89"/>
<rect width="4.00718" height="244.349" transform="matrix(0.970259 -0.24207 0.42096 0.907079 7.42706 -5.86914)" fill="#4F2B89"/>
<rect width="4.00718" height="244.349" transform="matrix(0.970259 -0.24207 0.42096 0.907079 31.7271 -11.9297)" fill="#4F2B89"/>
<rect width="4.00718" height="244.349" transform="matrix(0.970259 -0.24207 0.42096 0.907079 56.0271 -17.9941)" fill="#4F2B89"/>
<rect width="4.00718" height="244.349" transform="matrix(0.970259 -0.24207 0.42096 0.907079 80.3271 -24.0566)" fill="#4F2B89"/>
<rect width="4.00718" height="244.349" transform="matrix(0.970259 -0.24207 0.42096 0.907079 104.627 -30.1191)" fill="#4F2B89"/>
<rect width="4.00718" height="244.349" transform="matrix(0.970259 -0.24207 0.42096 0.907079 128.927 -36.1816)" fill="#4F2B89"/>
<rect width="4.00718" height="244.349" transform="matrix(0.970259 -0.24207 0.42096 0.907079 153.227 -42.2441)" fill="#4F2B89"/>
<rect width="3.00538" height="244.349" transform="matrix(0.970259 -0.24207 0.42096 0.907079 177.527 -48.3066)" fill="#4F2B89"/>
<rect width="3.00538" height="244.349" transform="matrix(0.970259 -0.24207 0.42096 0.907079 200.855 -54.125)" fill="#4F2B89"/>
<rect width="3.00538" height="244.349" transform="matrix(0.970259 -0.24207 0.42096 0.907079 224.183 -59.9473)" fill="#4F2B89"/>
<rect width="3.00538" height="244.349" transform="matrix(0.970259 -0.24207 0.42096 0.907079 247.511 -65.7676)" fill="#4F2B89"/>
<rect width="3.00538" height="244.349" transform="matrix(0.970259 -0.24207 0.42096 0.907079 270.839 -71.5879)" fill="#4F2B89"/>
<rect width="3.00538" height="244.349" transform="matrix(0.970259 -0.24207 0.42096 0.907079 294.167 -77.4062)" fill="#4F2B89"/>
<rect width="3.00538" height="244.349" transform="matrix(0.970259 -0.24207 0.42096 0.907079 317.495 -83.2266)" fill="#4F2B89"/>
<rect width="3.00538" height="244.349" transform="matrix(0.970259 -0.24207 0.42096 0.907079 340.823 -89.0469)" fill="#4F2B89"/>
<rect width="4.00718" height="244.349" transform="matrix(0.970259 -0.24207 0.42096 0.907079 364.151 -94.8691)" fill="#4F2B89"/>
<rect width="4.00718" height="244.349" transform="matrix(0.970259 -0.24207 0.42096 0.907079 388.451 -100.93)" fill="#4F2B89"/>
<rect width="4.00718" height="244.349" transform="matrix(0.970259 -0.24207 0.42096 0.907079 412.751 -106.992)" fill="#4F2B89"/>
<rect width="4.00718" height="244.349" transform="matrix(0.970259 -0.24207 0.42096 0.907079 437.051 -113.055)" fill="#4F2B89"/>
<rect width="4.00718" height="244.349" transform="matrix(0.970259 -0.24207 0.42096 0.907079 461.351 -119.117)" fill="#4F2B89"/>
<rect width="4.00718" height="244.349" transform="matrix(0.970259 -0.24207 0.42096 0.907079 485.651 -125.182)" fill="#4F2B89"/>
<rect width="4.00718" height="244.349" transform="matrix(0.970259 -0.24207 0.42096 0.907079 509.951 -131.242)" fill="#4F2B89"/>
<rect width="4.00718" height="244.349" transform="matrix(0.970259 -0.24207 0.42096 0.907079 534.251 -137.305)" fill="#4F2B89"/>
</g>
</svg>
