<svg width="600" height="736" viewBox="0 0 600 736" fill="none" xmlns="http://www.w3.org/2000/svg">
<mask id="mask0_2_6026" style="mask-type:alpha" maskUnits="userSpaceOnUse" x="0" y="0" width="600" height="736">
<rect x="1" y="1" width="597.572" height="734" rx="12" fill="url(#paint0_linear_2_6026)" stroke="url(#paint1_linear_2_6026)" stroke-width="2"/>
</mask>
<g mask="url(#mask0_2_6026)">
<rect x="2" y="2" width="595.572" height="732" rx="11" fill="url(#paint2_linear_2_6026)" stroke="url(#paint3_linear_2_6026)" stroke-width="4"/>
<line y1="-0.5" x2="1408.44" y2="-0.5" transform="matrix(1 -0.000607018 0.000638251 1 -518.923 50.3213)" stroke="#6D6CC2" stroke-opacity="0.14"/>
<line y1="-0.5" x2="1408.44" y2="-0.5" transform="matrix(1 -0.000607018 0.000638251 1 -518.89 103.153)" stroke="#6D6CC2" stroke-opacity="0.14"/>
<line y1="-0.5" x2="1408.44" y2="-0.5" transform="matrix(1 -0.000607018 0.000638251 1 -518.855 155.979)" stroke="#6D6CC2" stroke-opacity="0.14"/>
<line y1="-0.5" x2="1408.44" y2="-0.5" transform="matrix(1 -0.000607018 0.000638251 1 -518.822 208.81)" stroke="#6D6CC2" stroke-opacity="0.14"/>
<line y1="-0.5" x2="1408.44" y2="-0.5" transform="matrix(1 -0.000607018 0.000638251 1 -518.788 261.634)" stroke="#6D6CC2" stroke-opacity="0.14"/>
<line y1="-0.5" x2="1408.44" y2="-0.5" transform="matrix(1 -0.000607018 0.000638251 1 -518.755 314.466)" stroke="#6D6CC2" stroke-opacity="0.14"/>
<line y1="-0.5" x2="1408.44" y2="-0.5" transform="matrix(1 -0.000607018 0.000638251 1 -518.721 367.292)" stroke="#6D6CC2" stroke-opacity="0.14"/>
<line y1="-0.5" x2="1408.44" y2="-0.5" transform="matrix(1 -0.000607018 0.000638251 1 -518.687 420.122)" stroke="#6D6CC2" stroke-opacity="0.14"/>
<line y1="-0.5" x2="1408.44" y2="-0.5" transform="matrix(1 -0.000607018 0.000638251 1 -518.654 472.946)" stroke="#6D6CC2" stroke-opacity="0.14"/>
<line y1="-0.5" x2="1408.44" y2="-0.5" transform="matrix(1 -0.000607018 0.000638251 1 -518.621 525.778)" stroke="#6D6CC2" stroke-opacity="0.14"/>
<line y1="-0.5" x2="1408.44" y2="-0.5" transform="matrix(1 -0.000607018 0.000638251 1 -518.586 578.608)" stroke="#6D6CC2" stroke-opacity="0.14"/>
<line y1="-0.5" x2="1408.44" y2="-0.5" transform="matrix(1 -0.000607018 0.000638251 1 -518.553 631.439)" stroke="#6D6CC2" stroke-opacity="0.14"/>
<line y1="-0.5" x2="1408.44" y2="-0.5" transform="matrix(1 -0.000607018 0.000638251 1 -518.519 684.27)" stroke="#6D6CC2" stroke-opacity="0.14"/>
<line y1="-0.5" x2="1408.44" y2="-0.5" transform="matrix(1 -0.000607018 0.000638251 1 -518.485 737.096)" stroke="#6D6CC2" stroke-opacity="0.14"/>
<line y1="-0.5" x2="1373.55" y2="-0.5" transform="matrix(0.000638194 1 -1 0.000606964 581.524 -267.314)" stroke="#6D6CC2" stroke-opacity="0.14"/>
<line y1="-0.5" x2="1373.55" y2="-0.5" transform="matrix(0.000638194 1 -1 0.000606964 527.354 -267.287)" stroke="#6D6CC2" stroke-opacity="0.14"/>
<line y1="-0.5" x2="1373.55" y2="-0.5" transform="matrix(0.000638194 1 -1 0.000606964 473.182 -267.247)" stroke="#6D6CC2" stroke-opacity="0.14"/>
<line y1="-0.5" x2="1373.55" y2="-0.5" transform="matrix(0.000638194 1 -1 0.000606964 419.012 -267.216)" stroke="#6D6CC2" stroke-opacity="0.14"/>
<line y1="-0.5" x2="1373.55" y2="-0.5" transform="matrix(0.000638194 1 -1 0.000606964 364.841 -267.18)" stroke="#6D6CC2" stroke-opacity="0.14"/>
<line y1="-0.5" x2="1373.55" y2="-0.5" transform="matrix(0.000638194 1 -1 0.000606964 310.67 -267.146)" stroke="#6D6CC2" stroke-opacity="0.14"/>
<line y1="-0.5" x2="1373.55" y2="-0.5" transform="matrix(0.000638194 1 -1 0.000606964 256.5 -267.117)" stroke="#6D6CC2" stroke-opacity="0.14"/>
<line y1="-0.5" x2="1373.55" y2="-0.5" transform="matrix(0.000638194 1 -1 0.000606964 202.329 -267.079)" stroke="#6D6CC2" stroke-opacity="0.14"/>
<line y1="-0.5" x2="1373.55" y2="-0.5" transform="matrix(0.000638194 1 -1 0.000606964 148.159 -267.054)" stroke="#6D6CC2" stroke-opacity="0.14"/>
<line y1="-0.5" x2="1373.55" y2="-0.5" transform="matrix(0.000638194 1 -1 0.000606964 93.9883 -267.019)" stroke="#6D6CC2" stroke-opacity="0.14"/>
<line y1="-0.5" x2="1373.55" y2="-0.5" transform="matrix(0.000638194 1 -1 0.000606964 39.8174 -266.98)" stroke="#6D6CC2" stroke-opacity="0.14"/>
</g>
<defs>
<linearGradient id="paint0_linear_2_6026" x1="0" y1="0" x2="568.717" y2="749.832" gradientUnits="userSpaceOnUse">
<stop stop-color="#201A5E"/>
<stop offset="1" stop-color="#000104"/>
</linearGradient>
<linearGradient id="paint1_linear_2_6026" x1="-11.1184" y1="356.847" x2="641.575" y2="356.847" gradientUnits="userSpaceOnUse">
<stop stop-color="#247CFF"/>
<stop offset="1" stop-color="#FF5811"/>
</linearGradient>
<linearGradient id="paint2_linear_2_6026" x1="0" y1="0" x2="568.717" y2="749.832" gradientUnits="userSpaceOnUse">
<stop stop-color="#201A5E"/>
<stop offset="1" stop-color="#000104"/>
</linearGradient>
<linearGradient id="paint3_linear_2_6026" x1="-11.1184" y1="356.847" x2="641.575" y2="356.847" gradientUnits="userSpaceOnUse">
<stop stop-color="#247CFF"/>
<stop offset="1" stop-color="#FF5811"/>
</linearGradient>
</defs>
</svg>
