<svg width="254" height="30" viewBox="0 0 254 30" fill="none" xmlns="http://www.w3.org/2000/svg">
<path d="M246.329 2.5625H253.853V28.8963H246.329V2.5625Z" fill="#FF5811"/>
<path d="M236.73 28.8963L235.827 25.5105H228.227L227.325 28.8963H219.236L227.626 2.5625H236.429L244.818 28.8963H236.73ZM229.845 19.4914H234.209L232.027 11.4031L229.845 19.4914Z" fill="#FF5811"/>
<path d="M210.938 16.7082H206.988V20.7711C206.988 21.3981 207.138 21.8621 207.439 22.163C207.74 22.464 208.179 22.6395 208.756 22.6897C209.358 22.7148 210.085 22.7022 210.938 22.6521V28.897C207 29.4487 204.191 29.1101 202.511 27.8812C200.856 26.6523 200.028 24.4077 200.028 21.1473V16.7082H197.395V10.0871H200.028V6.8894L206.988 4.82031V10.0871H210.938V16.7082Z" fill="white"/>
<path d="M188.159 29.4257C185.275 29.4257 182.88 28.4852 180.974 26.6042C179.068 24.6982 178.115 22.3281 178.115 19.4941C178.115 16.6601 179.068 14.3026 180.974 12.4216C182.88 10.5155 185.275 9.5625 188.159 9.5625C190.015 9.5625 191.708 10.0139 193.238 10.9168C194.793 11.7946 195.984 12.9859 196.812 14.4907L190.943 17.8388C190.316 16.7855 189.388 16.2588 188.159 16.2588C187.281 16.2588 186.541 16.5723 185.939 17.1993C185.363 17.8012 185.074 18.5662 185.074 19.4941C185.074 20.4221 185.363 21.1995 185.939 21.8265C186.541 22.4285 187.281 22.7294 188.159 22.7294C189.463 22.7294 190.391 22.1902 190.943 21.1118L196.812 24.4975C195.984 26.0274 194.793 27.2312 193.238 28.109C191.708 28.9868 190.015 29.4257 188.159 29.4257Z" fill="white"/>
<path d="M164.025 21.8642C164.627 23.1181 165.906 23.7451 167.862 23.7451C169.016 23.7451 170.082 23.3439 171.06 22.5413L175.612 26.3785C173.731 28.41 171.072 29.4257 167.637 29.4257C164.426 29.4257 161.843 28.4978 159.887 26.6419C157.956 24.7609 156.99 22.4034 156.99 19.5694C156.99 16.7103 157.931 14.3277 159.812 12.4216C161.718 10.5155 164.113 9.5625 166.997 9.5625C169.856 9.5625 172.201 10.503 174.032 12.384C175.888 14.2399 176.816 16.5849 176.816 19.4189C176.816 20.2465 176.715 21.0616 176.515 21.8642H164.025ZM163.912 17.3874H170.232C169.806 15.8826 168.79 15.1302 167.185 15.1302C165.555 15.1302 164.464 15.8826 163.912 17.3874Z" fill="white"/>
<path d="M156.494 8.20293C155.591 8.12769 154.876 8.26562 154.349 8.61674C153.848 8.96786 153.597 9.45692 153.597 10.0839H156.494V16.705H153.597V28.8938H146.637V16.705H144.455V10.0839H146.637C146.637 7.37529 147.478 5.3062 149.158 3.87665C150.838 2.42202 153.284 1.78249 156.494 1.95805V8.20293Z" fill="white"/>
<path d="M137.885 13.7323C138.236 12.4533 138.926 11.4626 139.954 10.7604C140.983 10.0581 142.174 9.70703 143.528 9.70703V17.231C142.023 17.0303 140.707 17.3313 139.578 18.1339C138.449 18.9113 137.885 20.1653 137.885 21.8958V28.8931H130.926V10.0832H137.885V13.7323Z" fill="white"/>
<path d="M116.082 21.8642C116.684 23.1181 117.963 23.7451 119.919 23.7451C121.073 23.7451 122.139 23.3439 123.117 22.5413L127.669 26.3785C125.788 28.41 123.129 29.4257 119.693 29.4257C116.483 29.4257 113.9 28.4978 111.944 26.6419C110.013 24.7609 109.047 22.4034 109.047 19.5694C109.047 16.7103 109.987 14.3277 111.868 12.4216C113.775 10.5155 116.17 9.5625 119.054 9.5625C121.913 9.5625 124.258 10.503 126.089 12.384C127.945 14.2399 128.873 16.5849 128.873 19.4189C128.873 20.2465 128.772 21.0616 128.572 21.8642H116.082ZM115.969 17.3874H122.289C121.863 15.8826 120.847 15.1302 119.242 15.1302C117.612 15.1302 116.521 15.8826 115.969 17.3874Z" fill="white"/>
<path d="M98.7783 2.5625C101.512 2.5625 103.794 3.42775 105.625 5.15826C107.456 6.86369 108.371 9.14596 108.371 12.0051C108.371 14.8642 107.456 17.159 105.625 18.8895C103.794 20.5949 101.512 21.4476 98.7783 21.4476H95.7687V28.8963H88.2448V2.5625H98.7783ZM98.7783 14.1494C99.3551 14.1494 99.8442 13.9613 100.245 13.5851C100.647 13.1838 100.847 12.6571 100.847 12.0051C100.847 11.353 100.647 10.8388 100.245 10.4626C99.8442 10.0614 99.3551 9.86073 98.7783 9.86073H95.7687V14.1494H98.7783Z" fill="white"/>
<path d="M78.2307 9.55977C80.2872 9.55977 81.93 10.2746 83.1589 11.7041C84.4129 13.1086 85.0399 15.2153 85.0399 18.0242V28.8963H78.0802V18.7766C78.0802 17.0963 77.3027 16.2561 75.7478 16.2561C74.9201 16.2561 74.2806 16.5194 73.8292 17.0461C73.4028 17.5728 73.1896 18.3001 73.1896 19.2281V28.8963H66.23V2.5625H73.1896V11.9298C74.3433 10.3498 76.0237 9.55977 78.2307 9.55977Z" fill="white"/>
<path d="M55.8654 29.4257C52.9812 29.4257 50.5861 28.4852 48.68 26.6042C46.774 24.6982 45.8209 22.3281 45.8209 19.4941C45.8209 16.6601 46.774 14.3026 48.68 12.4216C50.5861 10.5155 52.9812 9.5625 55.8654 9.5625C57.7213 9.5625 59.4142 10.0139 60.9441 10.9168C62.499 11.7946 63.6903 12.9859 64.5179 14.4907L58.6493 17.8388C58.0223 16.7855 57.0943 16.2588 55.8654 16.2588C54.9876 16.2588 54.2477 16.5723 53.6458 17.1993C53.069 17.8012 52.7806 18.5662 52.7806 19.4941C52.7806 20.4221 53.069 21.1995 53.6458 21.8265C54.2477 22.4285 54.9876 22.7294 55.8654 22.7294C57.1695 22.7294 58.0975 22.1902 58.6493 21.1118L64.5179 24.4975C63.6903 26.0274 62.499 27.2312 60.9441 28.109C59.4142 28.9868 57.7213 29.4257 55.8654 29.4257Z" fill="white"/>
<path d="M44.3678 16.7082H40.4177V20.7711C40.4177 21.3981 40.5682 21.8621 40.8692 22.163C41.1701 22.464 41.609 22.6395 42.1859 22.6897C42.7878 22.7148 43.5151 22.7022 44.3678 22.6521V28.897C40.4303 29.4487 37.6213 29.1101 35.941 27.8812C34.2857 26.6523 33.4581 24.4077 33.4581 21.1473V16.7082H30.8247V10.0871H33.4581V6.8894L40.4177 4.82031V10.0871H44.3678V16.7082Z" fill="white"/>
<path d="M25.4958 8.6549C24.4425 8.6549 23.527 8.2787 22.7496 7.52631C21.9972 6.74883 21.621 5.84596 21.621 4.81768C21.621 3.78941 21.9972 2.89908 22.7496 2.14668C23.527 1.36921 24.4425 0.980469 25.4958 0.980469C26.5241 0.980469 27.4144 1.36921 28.1668 2.14668C28.9443 2.89908 29.333 3.78941 29.333 4.81768C29.333 5.84596 28.9443 6.74883 28.1668 7.52631C27.4144 8.2787 26.5241 8.6549 25.4958 8.6549ZM21.9972 28.8943V10.0844H28.9568V28.8943H21.9972Z" fill="white"/>
<path d="M10.5335 2.5625C13.2672 2.5625 15.5495 3.42775 17.3803 5.15826C19.2112 6.86369 20.1266 9.14596 20.1266 12.0051C20.1266 14.8642 19.2112 17.159 17.3803 18.8895C15.5495 20.5949 13.2672 21.4476 10.5335 21.4476H7.52395V28.8963H0V2.5625H10.5335ZM10.5335 14.1494C11.1104 14.1494 11.5994 13.9613 12.0007 13.5851C12.402 13.1838 12.6026 12.6571 12.6026 12.0051C12.6026 11.353 12.402 10.8388 12.0007 10.4626C11.5994 10.0614 11.1104 9.86073 10.5335 9.86073H7.52395V14.1494H10.5335Z" fill="white"/>
</svg>
