<svg width="63" height="124" viewBox="0 0 63 124" fill="none" xmlns="http://www.w3.org/2000/svg">
<path d="M27.4127 104.92C28.1204 102.315 26.3795 99.7041 24.4618 97.843C22.544 95.9818 20.2654 94.2622 19.2676 91.7642C17.6541 87.7234 19.8266 82.4867 17.0738 79.1112C15.4533 77.1227 12.5519 76.4575 11.1153 74.3416C10.4542 73.1676 10.0152 71.8817 9.82031 70.5485C8.29253 63.8164 4.98034 57.6198 0.231525 52.6094C-0.0853636 58.5954 1.21246 64.5566 3.9892 69.8692C5.1073 71.9922 6.47308 74.0656 6.81984 76.4292C7.42135 80.2788 5.27714 84.2134 6.21832 88.0136C7.30104 92.3303 12.1485 95.2175 12.382 99.6616C12.5731 103.419 9.29664 106.738 9.5514 110.475C9.74321 112.073 10.316 113.602 11.2215 114.933C14.13 119.759 18.3971 123.092 24.8652 122.979L32.7909 123.255L27.4127 104.92Z" fill="#FF5811"/>
<g opacity="0.3">
<path d="M27.4127 104.92C28.1204 102.315 26.3795 99.7041 24.4618 97.843C22.544 95.9818 20.2654 94.2622 19.2676 91.7642C17.6541 87.7234 19.8266 82.4867 17.0738 79.1112C15.4533 77.1227 12.5519 76.4575 11.1153 74.3416C10.4542 73.1676 10.0152 71.8817 9.82031 70.5485C8.29253 63.8164 4.98034 57.6198 0.231525 52.6094C-0.0853636 58.5954 1.21246 64.5566 3.9892 69.8692C5.1073 71.9922 6.47308 74.0656 6.81984 76.4292C7.42135 80.2788 5.27714 84.2134 6.21832 88.0136C7.30104 92.3303 12.1485 95.2175 12.382 99.6616C12.5731 103.419 9.29664 106.738 9.5514 110.475C9.74321 112.073 10.316 113.602 11.2215 114.933C14.13 119.759 18.3971 123.092 24.8652 122.979L32.7909 123.255L27.4127 104.92Z" fill="black"/>
</g>
<path d="M34.4186 123.466C35.1447 123.577 35.8848 123.561 36.6052 123.417C37.4835 123.29 38.3466 123.074 39.1811 122.773C40.3302 122.371 41.4041 121.78 42.3585 121.025C42.9345 120.564 43.3848 119.965 43.6677 119.284C43.9023 118.517 44.0285 117.722 44.0427 116.92C44.0565 116.061 44.1179 115.204 44.2267 114.351C44.3815 113.448 44.7082 112.584 45.1891 111.804C46.1303 110.162 47.6801 108.612 48.1825 106.383C48.685 104.154 48.3311 101.819 47.9632 99.434C47.5952 97.0492 47.2555 94.4804 48.1472 91.9894C49.0388 89.4985 50.7372 87.2764 51.6076 84.4811C52.478 81.6859 52.0676 78.6288 52.2516 75.6354C52.3084 74.1152 52.6593 72.6205 53.2848 71.2338C53.9217 69.8184 54.8133 68.5093 55.5068 67.0303C56.9221 64.0439 57.1627 60.6613 57.5449 57.3495C57.7383 55.6794 57.9294 53.9905 58.1181 52.2826C58.2327 50.5677 58.5268 48.8694 58.9956 47.2158C59.5301 45.545 60.1634 43.9074 60.8921 42.3117C61.2656 41.4775 61.5686 40.6135 61.7979 39.7288C61.9312 38.8258 62.0163 37.9163 62.0527 37.0043C62.1409 35.1734 62.0699 33.3384 61.8404 31.5199C61.6281 29.6941 61.2955 27.8755 61.1327 26.0426C61.1327 25.9365 61.1327 25.8303 61.1327 25.7313V25.3633L60.8072 25.526C59.1339 26.3844 57.6809 27.617 56.5612 29.128C55.4638 30.6043 54.5821 32.2294 53.9429 33.9543C52.6125 37.3581 52.1384 40.9318 51.4732 44.3356C50.808 47.7395 49.9588 51.0867 48.2179 53.9173C47.3475 55.3326 46.3002 56.6135 45.3873 57.9935C44.4024 59.3325 43.7302 60.8753 43.42 62.5083C42.9529 65.8626 44.8353 68.8065 44.4107 71.7716C44.2407 73.2281 43.7579 74.6306 42.9954 75.8831C42.2877 77.1498 41.4315 78.3245 40.6247 79.5063C39.8071 80.6586 39.0964 81.8832 38.5018 83.1649C37.8891 84.4116 37.5079 85.7591 37.3766 87.142C37.1855 89.8169 37.5676 92.3503 37.3766 94.7422C37.1557 97.0188 36.4922 99.2304 35.4234 101.253C34.461 103.206 33.3925 104.968 32.5008 106.673C32.055 107.53 31.6375 108.365 31.2978 109.2C30.9763 110.008 30.7392 110.848 30.5901 111.705C30.3534 113.202 30.3343 114.725 30.5335 116.227C30.7432 118.321 31.5268 120.317 32.798 121.994C32.993 122.247 33.2084 122.484 33.442 122.702C33.5983 122.866 33.7714 123.013 33.9586 123.141C34.2558 123.36 34.4115 123.459 34.4115 123.459C33.8486 123.008 33.3361 122.498 32.8829 121.938C31.6644 120.26 30.93 118.279 30.76 116.213C30.5797 114.729 30.613 113.228 30.859 111.754C31.0111 110.916 31.2482 110.096 31.5667 109.306C31.9064 108.492 32.3239 107.664 32.7768 106.815C33.6755 105.124 34.7512 103.369 35.7348 101.401C36.8255 99.3467 37.5058 97.0993 37.7375 94.7847C37.9427 92.3432 37.5747 89.7957 37.7729 87.1844C37.864 85.8598 38.1873 84.5615 38.7282 83.3489C39.3241 82.0925 40.0348 80.8938 40.8512 79.7681C41.6508 78.5934 42.5071 77.4116 43.2431 76.1237C44.0486 74.8215 44.565 73.3614 44.7575 71.8424C45.1396 68.6791 43.3421 65.714 43.7809 62.6003C44.0882 61.0383 44.7383 59.5639 45.6845 58.2836C46.5903 56.932 47.6447 55.6369 48.5151 54.1933C50.3197 51.2848 51.1901 47.8669 51.8482 44.4489C52.5063 41.0309 53.0017 37.4926 54.2967 34.1595C54.9244 32.4793 55.7843 30.8953 56.8514 29.4536C57.9289 28.0057 59.3263 26.8262 60.9346 26.0072L60.5737 25.802C60.5737 25.9011 60.5737 26.0143 60.5737 26.1205C60.7718 27.9745 61.1044 29.7932 61.3167 31.5978C61.54 33.3907 61.6087 35.1995 61.5219 37.0043C61.4896 37.8878 61.4093 38.769 61.2813 39.6438C61.0569 40.4916 60.7586 41.318 60.3897 42.1136C59.6589 43.7262 59.0232 45.3802 58.4861 47.0672C58.0087 48.7486 57.7075 50.4752 57.5873 52.2189C57.4033 53.9244 57.2123 55.6157 57.0283 57.2858C56.6532 60.6189 56.3985 63.9449 55.0468 66.8251C54.3392 68.2404 53.49 69.5849 52.8319 71.0356C52.1866 72.4743 51.8261 74.0243 51.7704 75.6C51.5935 78.6571 51.9897 81.6434 51.1689 84.3538C50.348 87.0641 48.6142 89.3074 47.7438 91.855C46.8734 94.4025 47.1918 97.1129 47.5739 99.4835C47.9561 101.854 48.3382 104.189 47.8287 106.298C47.3192 108.407 45.8614 109.964 44.9131 111.655C44.4162 112.465 44.0821 113.364 43.9295 114.302C43.8228 115.164 43.7661 116.031 43.7597 116.899C43.759 117.678 43.647 118.452 43.4271 119.199C43.1611 119.849 42.738 120.423 42.1957 120.869C41.2827 121.616 40.2552 122.211 39.1528 122.631C38.3301 122.946 37.4795 123.183 36.6123 123.339C36.0816 123.431 35.5446 123.483 35.0059 123.494C34.6096 123.459 34.4186 123.466 34.4186 123.466Z" fill="#874F38"/>
<path d="M59.4556 30.1094C59.4258 30.1876 59.4022 30.2681 59.3848 30.35C59.3353 30.541 59.2786 30.7746 59.2079 31.0576C59.0522 31.6804 58.8682 32.6216 58.5639 33.8034C58.2596 34.9851 57.5378 36.3014 56.9221 37.9432C56.2011 39.7834 55.5728 41.6587 55.0398 43.562C54.4312 45.685 53.9004 48.0202 53.3414 50.5324C52.7823 53.0446 52.1808 55.7337 50.8009 58.2742C50.1498 59.5622 49.421 60.8643 48.8407 62.2867C48.2701 63.7491 47.8872 65.2781 47.7013 66.8369C47.3022 70.0591 46.7306 73.2576 45.9888 76.4186C44.4036 82.9149 42.8893 89.0999 41.5093 94.7328L37.7375 109.672C36.6902 113.917 35.841 117.328 35.2465 119.749C34.9705 120.909 34.7512 121.829 34.5955 122.494C34.5318 122.784 34.4752 123.025 34.4398 123.202C34.4163 123.283 34.402 123.366 34.3973 123.45C34.3973 123.45 34.4398 123.372 34.4893 123.216C34.5389 123.06 34.6096 122.792 34.6946 122.508C34.8715 121.843 35.1262 120.937 35.4022 119.784C36.0391 117.371 36.9378 113.953 38.0489 109.749C39.1599 105.546 40.4549 100.444 41.9056 94.839C43.3563 89.2343 44.8849 83.0352 46.4842 76.5248C47.2294 73.3505 47.7987 70.1376 48.1896 66.9006C48.3721 65.3815 48.743 63.8911 49.2936 62.4636C49.8526 61.0483 50.5744 59.7745 51.2184 58.4794C52.6337 55.8894 53.1928 53.1154 53.7518 50.6174C54.3109 48.1193 54.8062 45.7557 55.3865 43.6469C55.9668 41.5381 56.5754 39.6628 57.184 38.0351C57.7926 36.4075 58.4648 35.0559 58.755 33.8458C59.0451 32.6357 59.1867 31.7228 59.307 31.0718C59.3541 30.7793 59.3966 30.5434 59.4343 30.3641C59.4556 30.2014 59.4697 30.1165 59.4556 30.1094Z" fill="#874F38"/>
<path d="M35.8197 123.487C40.9927 120.416 42.4788 111.075 40.3205 105.456C38.1621 99.837 34.3832 94.6994 33.8029 88.7055C33.3571 84.0987 34.8644 79.3715 33.8029 74.8708C32.3876 68.792 26.422 64.086 26.4928 57.8374C26.4928 54.3345 28.5238 51.0368 28.3681 47.5339C28.1699 43.2384 24.8722 39.8345 22.8342 36.0486C19.7063 30.2599 19.5011 23.4098 18.4325 16.9418C17.364 10.4738 14.8943 3.49623 9.1339 0.304688C8.28471 5.81736 6.83401 9.58919 7.29399 17.0621C7.45675 19.7441 10.5705 24.8463 10.995 30.7553C11.2498 34.2936 11.4196 37.7823 11.639 41.2994C11.8584 44.8165 12.0707 48.2062 13.2949 51.4048C14.2361 53.8604 15.7434 56.0824 16.444 58.6158C17.7532 63.3855 16.0265 68.5231 17.088 73.3705C17.9867 77.4608 20.8174 80.9779 21.3976 85.1248C22.2115 90.9488 18.4396 96.9993 20.3645 102.562C21.3269 105.314 23.5914 107.515 24.2354 110.381C24.7378 112.589 24.1929 114.924 24.6458 117.146C25.3535 120.72 32.1965 123.515 35.8339 123.275" fill="#FF5811"/>
<path d="M10.5492 5.76172C10.5398 5.8653 10.5398 5.96951 10.5492 6.07309C10.5492 6.30662 10.6199 6.60383 10.6695 6.97889C10.7827 7.77855 10.9172 8.94619 11.1861 10.4535C11.455 11.9608 12.2617 13.6875 12.8845 15.7539C13.5072 17.8202 14.2007 20.1838 14.781 22.8305C15.3613 25.4771 15.8708 28.4281 16.3874 31.5913C16.904 34.7545 17.4701 38.2008 19.0411 41.4985C19.7488 43.1544 20.5838 44.8104 21.1641 46.5725C21.7614 48.385 22.1276 50.2657 22.2539 52.17C22.5468 56.2043 23.0547 60.2201 23.7753 64.2002L28.2407 87.2275C29.656 94.3041 30.9935 100.638 32.0974 105.988C33.2014 111.337 34.1072 115.605 34.737 118.626C35.0554 120.084 35.3031 121.238 35.4446 122.051C35.5296 122.426 35.6003 122.717 35.6499 122.943C35.6681 123.045 35.6965 123.144 35.7348 123.24C35.7357 123.138 35.7238 123.036 35.6994 122.936C35.6994 122.702 35.6074 122.405 35.5437 122.037C35.388 121.209 35.1687 120.056 34.8927 118.584C34.3053 115.562 33.4773 111.238 32.4159 105.917C31.3544 100.595 30.1584 94.2192 28.7502 87.1426C27.3419 80.066 25.9195 72.2817 24.3273 64.1224C23.6059 60.1421 23.0957 56.1264 22.7988 52.0922C22.6647 50.1512 22.2867 48.2349 21.6736 46.3885C21.0438 44.5839 20.2158 42.9209 19.494 41.2792C17.9301 38.0381 17.371 34.6484 16.8261 31.4993C16.2812 28.3502 15.8 25.4134 15.156 22.7455C14.5121 20.0777 13.8681 17.707 13.1746 15.669C12.4811 13.6309 11.7097 11.9042 11.4054 10.4181C11.1012 8.93202 10.9384 7.75731 10.7898 6.97181L10.6199 6.07309C10.6092 5.96679 10.5854 5.86221 10.5492 5.76172Z" fill="#874F38"/>
</svg>
