<svg width="228" height="18" viewBox="0 0 228 18" fill="none" xmlns="http://www.w3.org/2000/svg">
<path d="M227.436 7.78378C227.188 8.03141 226.886 8.15522 226.53 8.15522C226.175 8.15522 225.873 8.03141 225.625 7.78378C225.377 7.53615 225.254 7.23436 225.254 6.87839C225.254 6.52243 225.377 6.22063 225.625 5.973C225.873 5.72538 226.175 5.60156 226.53 5.60156C226.886 5.60156 227.188 5.72538 227.436 5.973C227.683 6.22063 227.807 6.52243 227.807 6.87839C227.807 7.23436 227.683 7.53615 227.436 7.78378ZM227.436 17.302C227.188 17.5496 226.886 17.6734 226.53 17.6734C226.175 17.6734 225.873 17.5496 225.625 17.302C225.377 17.0543 225.254 16.7525 225.254 16.3966C225.254 16.0406 225.377 15.7388 225.625 15.4912C225.873 15.2435 226.175 15.1197 226.53 15.1197C226.886 15.1197 227.188 15.2435 227.436 15.4912C227.683 15.7388 227.807 16.0406 227.807 16.3966C227.807 16.7525 227.683 17.0543 227.436 17.302Z" fill="white"/>
<path d="M217.291 5.55469C219.009 5.55469 220.394 6.16602 221.447 7.38868C222.515 8.59586 223.049 10.0275 223.049 11.6835C223.049 11.8537 223.033 12.0936 223.002 12.4031H212.811C212.965 13.5794 213.461 14.5157 214.296 15.2122C215.148 15.8931 216.192 16.2336 217.43 16.2336C218.313 16.2336 219.071 16.0556 219.706 15.6997C220.356 15.3282 220.843 14.8484 221.168 14.2603L222.515 15.0496C222.004 15.8699 221.307 16.5199 220.425 16.9997C219.543 17.4795 218.537 17.7194 217.407 17.7194C215.581 17.7194 214.095 17.1467 212.95 16.0015C211.805 14.8562 211.232 13.4014 211.232 11.637C211.232 9.90364 211.797 8.45657 212.927 7.29582C214.057 6.13506 215.511 5.55469 217.291 5.55469ZM217.291 7.04045C216.084 7.04045 215.07 7.40415 214.25 8.13156C213.445 8.84349 212.965 9.77209 212.811 10.9174H221.47C221.315 9.69471 220.843 8.74289 220.054 8.06191C219.264 7.38094 218.344 7.04045 217.291 7.04045Z" fill="white"/>
<path d="M207.155 5.83398H208.687V17.4415H207.155V15.6307C206.288 17.0236 204.988 17.7201 203.255 17.7201C201.847 17.7201 200.732 17.2945 199.912 16.4433C199.107 15.5766 198.705 14.4158 198.705 12.961V5.83398H200.237V12.961C200.237 13.9979 200.508 14.8027 201.05 15.3754C201.607 15.948 202.388 16.2343 203.394 16.2343C204.509 16.2343 205.414 15.8861 206.11 15.1897C206.807 14.4777 207.155 13.3866 207.155 11.9163V5.83398Z" fill="white"/>
<path d="M194.2 17.4411V0.494141H195.732V17.4411H194.2Z" fill="white"/>
<path d="M189.423 5.83327H190.956V17.4408H189.423V15.1657C188.356 16.8682 186.792 17.7194 184.734 17.7194C183.078 17.7194 181.662 17.1313 180.486 15.955C179.325 14.7788 178.745 13.3395 178.745 11.637C178.745 9.93459 179.325 8.49526 180.486 7.31903C181.662 6.1428 183.078 5.55469 184.734 5.55469C186.792 5.55469 188.356 6.40591 189.423 8.10834V5.83327ZM181.6 14.9104C182.482 15.7925 183.566 16.2336 184.85 16.2336C186.135 16.2336 187.218 15.7925 188.1 14.9104C188.982 14.0127 189.423 12.9216 189.423 11.637C189.423 10.3525 188.982 9.2691 188.1 8.38692C187.218 7.48928 186.135 7.04045 184.85 7.04045C183.566 7.04045 182.482 7.48928 181.6 8.38692C180.718 9.2691 180.277 10.3525 180.277 11.637C180.277 12.9216 180.718 14.0127 181.6 14.9104Z" fill="white"/>
<path d="M176.418 5.83398H178.043L173.284 17.4415H171.426L166.667 5.83398H168.292L172.355 15.8397L176.418 5.83398Z" fill="white"/>
<path d="M159.703 7.31986H156.36V14.354C156.36 14.9886 156.484 15.4451 156.731 15.7237C156.979 15.9868 157.35 16.1261 157.846 16.1416C158.341 16.1416 158.96 16.1261 159.703 16.0951V17.4416C158.078 17.6892 156.855 17.5732 156.035 17.0934C155.23 16.6136 154.828 15.7005 154.828 14.354V7.31986H152.39V5.83409H154.828V3.04829L156.36 2.58398V5.83409H159.703V7.31986Z" fill="white"/>
<path d="M146.038 5.55469C147.446 5.55469 148.553 5.98804 149.358 6.85473C150.178 7.70595 150.588 8.85896 150.588 10.3138V17.4408H149.056V10.3138C149.056 9.27684 148.777 8.47205 148.22 7.89941C147.678 7.32677 146.905 7.04045 145.899 7.04045C144.784 7.04045 143.879 7.39641 143.183 8.10834C142.486 8.80479 142.138 9.88816 142.138 11.3585V17.4408H140.606V5.83327H142.138V7.64404C143.005 6.25114 144.305 5.55469 146.038 5.55469Z" fill="white"/>
<path d="M132.411 5.55469C134.129 5.55469 135.514 6.16602 136.567 7.38868C137.635 8.59586 138.168 10.0275 138.168 11.6835C138.168 11.8537 138.153 12.0936 138.122 12.4031H127.931C128.085 13.5794 128.581 14.5157 129.416 15.2122C130.268 15.8931 131.312 16.2336 132.55 16.2336C133.433 16.2336 134.191 16.0556 134.825 15.6997C135.476 15.3282 135.963 14.8484 136.288 14.2603L137.635 15.0496C137.124 15.8699 136.427 16.5199 135.545 16.9997C134.663 17.4795 133.657 17.7194 132.527 17.7194C130.701 17.7194 129.215 17.1467 128.07 16.0015C126.925 14.8562 126.352 13.4014 126.352 11.637C126.352 9.90364 126.917 8.45657 128.047 7.29582C129.176 6.13506 130.631 5.55469 132.411 5.55469ZM132.411 7.04045C131.204 7.04045 130.19 7.40415 129.37 8.13156C128.565 8.84349 128.085 9.77209 127.931 10.9174H136.59C136.435 9.69471 135.963 8.74289 135.174 8.06191C134.384 7.38094 133.464 7.04045 132.411 7.04045Z" fill="white"/>
<path d="M123.82 3.04817C123.604 3.26484 123.34 3.37318 123.031 3.37318C122.721 3.37318 122.458 3.26484 122.242 3.04817C122.025 2.83149 121.917 2.56839 121.917 2.25885C121.917 1.94932 122.025 1.68622 122.242 1.46954C122.458 1.25287 122.721 1.14453 123.031 1.14453C123.34 1.14453 123.604 1.25287 123.82 1.46954C124.037 1.68622 124.145 1.94932 124.145 2.25885C124.145 2.56839 124.037 2.83149 123.82 3.04817ZM122.265 17.4415V5.83397H123.797V17.4415H122.265Z" fill="white"/>
<path d="M117.481 17.4411V0.494141H119.014V17.4411H117.481Z" fill="white"/>
<path d="M108.007 17.7198C105.546 17.7198 103.511 16.9073 101.901 15.2822C100.292 13.6572 99.4869 11.6684 99.4869 9.31596C99.4869 6.9635 100.292 4.97474 101.901 3.34969C103.511 1.72464 105.546 0.912109 108.007 0.912109C109.508 0.912109 110.885 1.27581 112.139 2.00322C113.393 2.71514 114.36 3.68244 115.041 4.9051L113.602 5.74084C113.091 4.75033 112.333 3.96102 111.327 3.37291C110.321 2.78479 109.214 2.49073 108.007 2.49073C105.979 2.49073 104.323 3.14849 103.039 4.46401C101.754 5.77953 101.112 7.39685 101.112 9.31596C101.112 11.2351 101.754 12.8524 103.039 14.1679C104.323 15.4834 105.979 16.1412 108.007 16.1412C109.214 16.1412 110.321 15.8471 111.327 15.259C112.333 14.6709 113.091 13.8816 113.602 12.8911L115.041 13.7036C114.375 14.9263 113.408 15.9013 112.139 16.6287C110.885 17.3561 109.508 17.7198 108.007 17.7198Z" fill="white"/>
<path d="M89.596 17.4411V0.494141H91.1282V17.4411H89.596Z" fill="white"/>
<path d="M84.8197 5.83327H86.3519V17.4408H84.8197V15.1657C83.7518 16.8682 82.1886 17.7194 80.1302 17.7194C78.4742 17.7194 77.0581 17.1313 75.8819 15.955C74.7211 14.7788 74.1407 13.3395 74.1407 11.637C74.1407 9.93459 74.7211 8.49526 75.8819 7.31903C77.0581 6.1428 78.4742 5.55469 80.1302 5.55469C82.1886 5.55469 83.7518 6.40591 84.8197 8.10834V5.83327ZM76.9962 14.9104C77.8784 15.7925 78.9617 16.2336 80.2463 16.2336C81.5309 16.2336 82.6142 15.7925 83.4964 14.9104C84.3786 14.0127 84.8197 12.9216 84.8197 11.637C84.8197 10.3525 84.3786 9.2691 83.4964 8.38692C82.6142 7.48928 81.5309 7.04045 80.2463 7.04045C78.9617 7.04045 77.8784 7.48928 76.9962 8.38692C76.114 9.2691 75.6729 10.3525 75.6729 11.637C75.6729 12.9216 76.114 14.0127 76.9962 14.9104Z" fill="white"/>
<path d="M71.6091 3.04817C71.3924 3.26484 71.1293 3.37318 70.8198 3.37318C70.5102 3.37318 70.2471 3.26484 70.0305 3.04817C69.8138 2.83149 69.7054 2.56839 69.7054 2.25885C69.7054 1.94932 69.8138 1.68622 70.0305 1.46954C70.2471 1.25287 70.5102 1.14453 70.8198 1.14453C71.1293 1.14453 71.3924 1.25287 71.6091 1.46954C71.8257 1.68622 71.9341 1.94932 71.9341 2.25885C71.9341 2.56839 71.8257 2.83149 71.6091 3.04817ZM70.0537 17.4415V5.83397H71.5859V17.4415H70.0537Z" fill="white"/>
<path d="M67.5001 7.31986H64.1571V14.354C64.1571 14.9886 64.2809 15.4451 64.5285 15.7237C64.7762 15.9868 65.1476 16.1261 65.6429 16.1416C66.1381 16.1416 66.7572 16.1261 67.5001 16.0951V17.4416C65.875 17.6892 64.6523 17.5732 63.8321 17.0934C63.0273 16.6136 62.6249 15.7005 62.6249 14.354V7.31986H60.1873V5.83409H62.6249V3.04829L64.1571 2.58398V5.83409H67.5001V7.31986Z" fill="white"/>
<path d="M53.8352 5.55469C55.2436 5.55469 56.3502 5.98804 57.155 6.85473C57.9752 7.70595 58.3854 8.85896 58.3854 10.3138V17.4408H56.8532V10.3138C56.8532 9.27684 56.5746 8.47205 56.0174 7.89941C55.4757 7.32677 54.7019 7.04045 53.6959 7.04045C52.5816 7.04045 51.6762 7.39641 50.9798 8.10834C50.2833 8.80479 49.9351 9.88816 49.9351 11.3585V17.4408H48.4029V5.83327H49.9351V7.64404C50.8018 6.25114 52.1018 5.55469 53.8352 5.55469Z" fill="white"/>
<path d="M40.2084 5.55469C41.9263 5.55469 43.3114 6.16602 44.3639 7.38868C45.4317 8.59586 45.9657 10.0275 45.9657 11.6835C45.9657 11.8537 45.9502 12.0936 45.9193 12.4031H35.7279C35.8826 13.5794 36.3779 14.5157 37.2136 15.2122C38.0648 15.8931 39.1095 16.2336 40.3476 16.2336C41.2298 16.2336 41.9882 16.0556 42.6227 15.6997C43.2727 15.3282 43.7603 14.8484 44.0853 14.2603L45.4317 15.0496C44.921 15.8699 44.2246 16.5199 43.3424 16.9997C42.4602 17.4795 41.4542 17.7194 40.3244 17.7194C38.4982 17.7194 37.0124 17.1467 35.8671 16.0015C34.7219 14.8562 34.1492 13.4014 34.1492 11.637C34.1492 9.90364 34.7141 8.45657 35.8439 7.29582C36.9737 6.13506 38.4285 5.55469 40.2084 5.55469ZM40.2084 7.04045C39.0012 7.04045 37.9875 7.40415 37.1672 8.13156C36.3624 8.84349 35.8826 9.77209 35.7279 10.9174H44.3871C44.2323 9.69471 43.7603 8.74289 42.971 8.06191C42.1816 7.38094 41.2608 7.04045 40.2084 7.04045Z" fill="white"/>
<path d="M32.9949 7.31986H29.6519V14.354C29.6519 14.9886 29.7757 15.4451 30.0233 15.7237C30.271 15.9868 30.6424 16.1261 31.1377 16.1416C31.6329 16.1416 32.252 16.1261 32.9949 16.0951V17.4416C31.3698 17.6892 30.1472 17.5732 29.3269 17.0934C28.5221 16.6136 28.1197 15.7005 28.1197 14.354V7.31986H25.6821V5.83409H28.1197V3.04829L29.6519 2.58398V5.83409H32.9949V7.31986Z" fill="white"/>
<path d="M22.718 15.9782C21.5418 17.139 20.1024 17.7194 18.4 17.7194C16.6976 17.7194 15.2505 17.139 14.0588 15.9782C12.8825 14.802 12.2944 13.3549 12.2944 11.637C12.2944 9.91912 12.8825 8.47978 14.0588 7.31903C15.2505 6.1428 16.6976 5.55469 18.4 5.55469C20.1024 5.55469 21.5418 6.1428 22.718 7.31903C23.9097 8.47978 24.5056 9.91912 24.5056 11.637C24.5056 13.3549 23.9097 14.802 22.718 15.9782ZM15.1499 14.9104C16.0321 15.7925 17.1154 16.2336 18.4 16.2336C19.6846 16.2336 20.7679 15.7925 21.6501 14.9104C22.5323 14.0127 22.9734 12.9216 22.9734 11.637C22.9734 10.3525 22.5323 9.2691 21.6501 8.38692C20.7679 7.48928 19.6846 7.04045 18.4 7.04045C17.1154 7.04045 16.0321 7.48928 15.1499 8.38692C14.2677 9.2691 13.8266 10.3525 13.8266 11.637C13.8266 12.9216 14.2677 14.0127 15.1499 14.9104Z" fill="white"/>
<path d="M6.26311 1.18945C7.71792 1.18945 8.93285 1.67697 9.90788 2.652C10.8829 3.62703 11.3704 4.84196 11.3704 6.29677C11.3704 7.75158 10.8829 8.9665 9.90788 9.94153C8.93285 10.9166 7.71792 11.4041 6.26311 11.4041H2.0844V17.44H0.459351V1.18945H6.26311ZM6.26311 9.87188C7.2691 9.87188 8.0971 9.53913 8.74712 8.87364C9.41262 8.19266 9.74537 7.3337 9.74537 6.29677C9.74537 5.25983 9.41262 4.40861 8.74712 3.74311C8.0971 3.06213 7.2691 2.72165 6.26311 2.72165H2.0844V9.87188H6.26311Z" fill="white"/>
</svg>
