<svg width="241" height="18" viewBox="0 0 241 18" fill="none" xmlns="http://www.w3.org/2000/svg">
<path d="M230.723 12.361C230.908 13.2431 231.334 13.9241 231.999 14.4039C232.665 14.8682 233.478 15.1003 234.437 15.1003C235.768 15.1003 236.766 14.6206 237.432 13.661L239.498 14.8682C238.353 16.5551 236.658 17.3986 234.414 17.3986C232.526 17.3986 231.001 16.826 229.84 15.6807C228.68 14.52 228.099 13.0574 228.099 11.2931C228.099 9.55967 228.672 8.1126 229.817 6.95184C230.963 5.77562 232.433 5.1875 234.228 5.1875C235.931 5.1875 237.323 5.78335 238.407 6.97506C239.506 8.16677 240.055 9.61384 240.055 11.3163C240.055 11.5794 240.024 11.9276 239.962 12.361H230.723ZM230.699 10.318H237.525C237.354 9.37395 236.96 8.66202 236.341 8.18224C235.737 7.70246 235.025 7.46258 234.205 7.46258C233.276 7.46258 232.502 7.71794 231.883 8.22867C231.264 8.7394 230.87 9.43585 230.699 10.318Z" fill="white"/>
<path d="M221.895 17.3986C220.146 17.3986 218.684 16.8105 217.507 15.6343C216.347 14.458 215.766 13.011 215.766 11.2931C215.766 9.55967 216.347 8.1126 217.507 6.95184C218.684 5.77562 220.146 5.1875 221.895 5.1875C223.025 5.1875 224.054 5.45834 224.983 6.00003C225.911 6.54171 226.608 7.26912 227.072 8.18224L224.913 9.43585C224.65 8.87869 224.248 8.44535 223.706 8.13581C223.18 7.8108 222.568 7.6483 221.872 7.6483C220.85 7.6483 219.991 7.99652 219.295 8.69297C218.614 9.38942 218.274 10.2561 218.274 11.2931C218.274 12.33 218.614 13.1967 219.295 13.8931C219.991 14.5896 220.85 14.9378 221.872 14.9378C222.553 14.9378 223.164 14.7753 223.706 14.4503C224.263 14.1253 224.681 13.6919 224.96 13.1503L227.119 14.3807C226.623 15.3093 225.911 16.0444 224.983 16.5861C224.054 17.1278 223.025 17.3986 221.895 17.3986Z" fill="white"/>
<path d="M213.366 3.2843C213.056 3.59383 212.685 3.7486 212.252 3.7486C211.818 3.7486 211.439 3.59383 211.114 3.2843C210.805 2.95929 210.65 2.58011 210.65 2.14676C210.65 1.71341 210.805 1.34197 211.114 1.03244C211.424 0.707428 211.803 0.544922 212.252 0.544922C212.7 0.544922 213.08 0.707428 213.389 1.03244C213.699 1.34197 213.853 1.71341 213.853 2.14676C213.853 2.58011 213.691 2.95929 213.366 3.2843ZM210.998 17.0973V5.48973H213.505V17.0973H210.998Z" fill="white"/>
<path d="M206.671 5.49023H209.41L204.883 17.0978H201.982L197.455 5.49023H200.194L203.444 14.312L206.671 5.49023Z" fill="white"/>
<path d="M193.373 7.44025C194.008 6.00092 195.2 5.28125 196.949 5.28125V7.99741C195.989 7.9355 195.153 8.16765 194.441 8.69386C193.729 9.20459 193.373 10.0558 193.373 11.2475V17.0977H190.866V5.49019H193.373V7.44025Z" fill="white"/>
<path d="M179.328 12.361C179.513 13.2431 179.939 13.9241 180.604 14.4039C181.27 14.8682 182.083 15.1003 183.042 15.1003C184.373 15.1003 185.371 14.6206 186.037 13.661L188.103 14.8682C186.958 16.5551 185.263 17.3986 183.019 17.3986C181.131 17.3986 179.606 16.826 178.445 15.6807C177.285 14.52 176.704 13.0574 176.704 11.2931C176.704 9.55967 177.277 8.1126 178.422 6.95184C179.568 5.77562 181.038 5.1875 182.833 5.1875C184.536 5.1875 185.928 5.78335 187.012 6.97506C188.111 8.16677 188.66 9.61384 188.66 11.3163C188.66 11.5794 188.629 11.9276 188.567 12.361H179.328ZM179.304 10.318H186.13C185.959 9.37395 185.565 8.66202 184.946 8.18224C184.342 7.70246 183.63 7.46258 182.81 7.46258C181.881 7.46258 181.107 7.71794 180.488 8.22867C179.869 8.7394 179.475 9.43585 179.304 10.318Z" fill="white"/>
<path d="M169.142 17.3991C167.579 17.3991 166.248 17.0431 165.149 16.3312C164.066 15.6192 163.307 14.6442 162.874 13.4061L165.172 12.0596C165.822 13.8858 167.169 14.799 169.212 14.799C170.218 14.799 170.968 14.6055 171.463 14.2186C171.974 13.8162 172.23 13.2977 172.23 12.6632C172.23 11.9977 171.959 11.4947 171.417 11.1542C170.875 10.7982 169.916 10.4113 168.538 9.99345C167.765 9.7613 167.138 9.54463 166.658 9.34343C166.178 9.14223 165.667 8.86365 165.126 8.50769C164.6 8.13625 164.205 7.67968 163.942 7.138C163.679 6.59631 163.547 5.96177 163.547 5.23436C163.547 3.79503 164.058 2.65749 165.079 1.82175C166.101 0.970531 167.331 0.544922 168.771 0.544922C170.071 0.544922 171.208 0.862195 172.183 1.49674C173.158 2.13128 173.909 3.00572 174.435 4.12004L172.183 5.42008C171.502 3.90337 170.365 3.14501 168.771 3.14501C167.997 3.14501 167.378 3.33073 166.913 3.70217C166.449 4.05813 166.217 4.54565 166.217 5.16472C166.217 5.76831 166.449 6.24809 166.913 6.60405C167.393 6.94454 168.252 7.30824 169.49 7.69516C170.109 7.89636 170.558 8.05112 170.837 8.15946C171.131 8.25232 171.533 8.40709 172.044 8.62376C172.57 8.84044 172.965 9.05711 173.228 9.27378C173.491 9.49046 173.77 9.7613 174.064 10.0863C174.373 10.4113 174.59 10.7828 174.714 11.2006C174.837 11.6185 174.899 12.0905 174.899 12.6168C174.899 14.087 174.365 15.2555 173.297 16.1222C172.245 16.9734 170.86 17.3991 169.142 17.3991Z" fill="white"/>
<path d="M149.371 17.3986C147.668 17.3986 146.221 16.8105 145.03 15.6343C143.838 14.458 143.242 13.011 143.242 11.2931C143.242 9.57514 143.838 8.12807 145.03 6.95184C146.221 5.77562 147.668 5.1875 149.371 5.1875C151.089 5.1875 152.536 5.77562 153.712 6.95184C154.904 8.12807 155.5 9.57514 155.5 11.2931C155.5 13.011 154.904 14.458 153.712 15.6343C152.536 16.8105 151.089 17.3986 149.371 17.3986ZM146.794 13.9164C147.49 14.6128 148.349 14.961 149.371 14.961C150.392 14.961 151.251 14.6128 151.948 13.9164C152.644 13.2199 152.992 12.3455 152.992 11.2931C152.992 10.2406 152.644 9.36621 151.948 8.66976C151.251 7.97331 150.392 7.62508 149.371 7.62508C148.349 7.62508 147.49 7.97331 146.794 8.66976C146.097 9.36621 145.749 10.2406 145.749 11.2931C145.749 12.3455 146.097 13.2199 146.794 13.9164Z" fill="white"/>
<path d="M132.421 12.361C132.607 13.2431 133.033 13.9241 133.698 14.4039C134.364 14.8682 135.176 15.1003 136.136 15.1003C137.467 15.1003 138.465 14.6206 139.131 13.661L141.197 14.8682C140.051 16.5551 138.357 17.3986 136.113 17.3986C134.224 17.3986 132.7 16.826 131.539 15.6807C130.378 14.52 129.798 13.0574 129.798 11.2931C129.798 9.55967 130.371 8.1126 131.516 6.95184C132.661 5.77562 134.132 5.1875 135.927 5.1875C137.629 5.1875 139.022 5.78335 140.106 6.97506C141.204 8.16677 141.754 9.61384 141.754 11.3163C141.754 11.5794 141.723 11.9276 141.661 12.361H132.421ZM132.398 10.318H139.223C139.053 9.37395 138.659 8.66202 138.039 8.18224C137.436 7.70246 136.724 7.46258 135.904 7.46258C134.975 7.46258 134.201 7.71794 133.582 8.22867C132.963 8.7394 132.568 9.43585 132.398 10.318Z" fill="white"/>
<path d="M125.019 0.845703H127.526V17.0962H125.019V15.4248C124.074 16.7403 122.72 17.398 120.956 17.398C119.362 17.398 118 16.8099 116.87 15.6337C115.74 14.442 115.175 12.9949 115.175 11.2925C115.175 9.57456 115.74 8.12749 116.87 6.95126C118 5.77503 119.362 5.18692 120.956 5.18692C122.72 5.18692 124.074 5.83694 125.019 7.13698V0.845703ZM118.727 13.9622C119.424 14.6587 120.298 15.0069 121.351 15.0069C122.403 15.0069 123.277 14.6587 123.974 13.9622C124.67 13.2503 125.019 12.3604 125.019 11.2925C125.019 10.2246 124.67 9.34241 123.974 8.64596C123.277 7.93403 122.403 7.57807 121.351 7.57807C120.298 7.57807 119.424 7.93403 118.727 8.64596C118.031 9.34241 117.683 10.2246 117.683 11.2925C117.683 12.3604 118.031 13.2503 118.727 13.9622Z" fill="white"/>
<path d="M112.775 3.2843C112.465 3.59383 112.094 3.7486 111.661 3.7486C111.227 3.7486 110.848 3.59383 110.523 3.2843C110.213 2.95929 110.059 2.58011 110.059 2.14676C110.059 1.71341 110.213 1.34197 110.523 1.03244C110.833 0.707428 111.212 0.544922 111.661 0.544922C112.109 0.544922 112.489 0.707428 112.798 1.03244C113.108 1.34197 113.262 1.71341 113.262 2.14676C113.262 2.58011 113.1 2.95929 112.775 3.2843ZM110.407 17.0973V5.48973H112.914V17.0973H110.407Z" fill="white"/>
<path d="M100.442 17.0962L94.8005 0.845703H97.7256L102.044 13.8693L106.385 0.845703H109.287L103.645 17.0962H100.442Z" fill="white"/>
<path d="M78.8046 12.361C78.9904 13.2431 79.416 13.9241 80.0815 14.4039C80.747 14.8682 81.5595 15.1003 82.519 15.1003C83.85 15.1003 84.8483 14.6206 85.5138 13.661L87.5799 14.8682C86.4347 16.5551 84.74 17.3986 82.4958 17.3986C80.6077 17.3986 79.0832 16.826 77.9225 15.6807C76.7617 14.52 76.1813 13.0574 76.1813 11.2931C76.1813 9.55967 76.754 8.1126 77.8992 6.95184C79.0445 5.77562 80.5148 5.1875 82.3101 5.1875C84.0125 5.1875 85.4054 5.78335 86.4888 6.97506C87.5877 8.16677 88.1371 9.61384 88.1371 11.3163C88.1371 11.5794 88.1061 11.9276 88.0442 12.361H78.8046ZM78.7814 10.318H85.6066C85.4364 9.37395 85.0417 8.66202 84.4227 8.18224C83.8191 7.70246 83.1072 7.46258 82.2869 7.46258C81.3583 7.46258 80.5845 7.71794 79.9654 8.22867C79.3463 8.7394 78.9517 9.43585 78.7814 10.318Z" fill="white"/>
<path d="M75.0334 7.90471H72.1547V13.4763C72.1547 13.9561 72.2631 14.3043 72.4797 14.521C72.6964 14.7222 73.0137 14.8383 73.4316 14.8692C73.8649 14.8847 74.3989 14.877 75.0334 14.846V17.0979C73.1143 17.33 71.7369 17.1675 70.9011 16.6104C70.0654 16.0377 69.6475 14.993 69.6475 13.4763V7.90471H67.5117V5.49034H69.6475V2.98312L72.1547 2.24023V5.49034H75.0334V7.90471Z" fill="white"/>
<path d="M60.3873 17.3986C58.6849 17.3986 57.2378 16.8105 56.0461 15.6343C54.8544 14.458 54.2585 13.011 54.2585 11.2931C54.2585 9.57514 54.8544 8.12807 56.0461 6.95184C57.2378 5.77562 58.6849 5.1875 60.3873 5.1875C62.1052 5.1875 63.5523 5.77562 64.7285 6.95184C65.9202 8.12807 66.5161 9.57514 66.5161 11.2931C66.5161 13.011 65.9202 14.458 64.7285 15.6343C63.5523 16.8105 62.1052 17.3986 60.3873 17.3986ZM57.8104 13.9164C58.5069 14.6128 59.3659 14.961 60.3873 14.961C61.4088 14.961 62.2677 14.6128 62.9642 13.9164C63.6606 13.2199 64.0089 12.3455 64.0089 11.2931C64.0089 10.2406 63.6606 9.36621 62.9642 8.66976C62.2677 7.97331 61.4088 7.62508 60.3873 7.62508C59.3659 7.62508 58.5069 7.97331 57.8104 8.66976C57.114 9.36621 56.7658 10.2406 56.7658 11.2931C56.7658 12.3455 57.114 13.2199 57.8104 13.9164Z" fill="white"/>
<path d="M47.8375 5.1875C49.153 5.1875 50.2131 5.61311 51.0179 6.46433C51.8227 7.31555 52.2251 8.46082 52.2251 9.90016V17.0968H49.7179V10.0627C49.7179 9.25787 49.5167 8.6388 49.1143 8.20546C48.7119 7.75663 48.1625 7.53222 47.466 7.53222C46.6922 7.53222 46.0731 7.78759 45.6088 8.29832C45.16 8.80905 44.9356 9.57514 44.9356 10.5966V17.0968H42.4284V10.0627C42.4284 9.25787 42.2349 8.6388 41.848 8.20546C41.4765 7.75663 40.9426 7.53222 40.2461 7.53222C39.4878 7.53222 38.8687 7.79532 38.3889 8.32153C37.9092 8.83226 37.6693 9.59062 37.6693 10.5966V17.0968H35.162V5.4893H37.6693V6.8822C38.4122 5.7524 39.5187 5.1875 40.989 5.1875C42.4748 5.1875 43.5736 5.79883 44.2856 7.02149C45.0594 5.79883 46.2434 5.1875 47.8375 5.1875Z" fill="white"/>
<path d="M26.7663 17.3986C25.0638 17.3986 23.6168 16.8105 22.4251 15.6343C21.2334 14.458 20.6375 13.011 20.6375 11.2931C20.6375 9.57514 21.2334 8.12807 22.4251 6.95184C23.6168 5.77562 25.0638 5.1875 26.7663 5.1875C28.4842 5.1875 29.9313 5.77562 31.1075 6.95184C32.2992 8.12807 32.8951 9.57514 32.8951 11.2931C32.8951 13.011 32.2992 14.458 31.1075 15.6343C29.9313 16.8105 28.4842 17.3986 26.7663 17.3986ZM24.1894 13.9164C24.8859 14.6128 25.7448 14.961 26.7663 14.961C27.7877 14.961 28.6467 14.6128 29.3432 13.9164C30.0396 13.2199 30.3878 12.3455 30.3878 11.2931C30.3878 10.2406 30.0396 9.36621 29.3432 8.66976C28.6467 7.97331 27.7877 7.62508 26.7663 7.62508C25.7448 7.62508 24.8859 7.97331 24.1894 8.66976C23.493 9.36621 23.1447 10.2406 23.1447 11.2931C23.1447 12.3455 23.493 13.2199 24.1894 13.9164Z" fill="white"/>
<path d="M16.404 7.44025C17.0385 6.00092 18.2302 5.28125 19.9791 5.28125V7.99741C19.0195 7.9355 18.1838 8.16765 17.4718 8.69386C16.7599 9.20459 16.404 10.0558 16.404 11.2475V17.0977H13.8967V5.49019H16.404V7.44025Z" fill="white"/>
<path d="M6.5822 0.845703C8.11439 0.845703 9.39122 1.35643 10.4127 2.3779C11.4496 3.39936 11.9681 4.66845 11.9681 6.18517C11.9681 7.68641 11.4496 8.95549 10.4127 9.99243C9.39122 11.0139 8.11439 11.5246 6.5822 11.5246H3.26244V17.0962H0.592712V0.845703H6.5822ZM6.5822 9.0174C7.37151 9.0174 8.02153 8.7543 8.53226 8.22809C9.04299 7.68641 9.29836 7.00543 9.29836 6.18517C9.29836 5.3649 9.04299 4.69166 8.53226 4.16546C8.02153 3.62377 7.37151 3.35293 6.5822 3.35293H3.26244V9.0174H6.5822Z" fill="white"/>
</svg>
