<svg width="42" height="42" viewBox="0 0 42 42" fill="none" xmlns="http://www.w3.org/2000/svg">
<path d="M26.1195 24.9217H23.2888C23.2908 25.2424 23.2283 25.5602 23.105 25.8563C22.9817 26.1524 22.8001 26.4207 22.571 26.6451C22.3419 26.8696 22.07 27.0457 21.7715 27.163C21.4729 27.2802 21.1539 27.3363 20.8332 27.3277C20.3603 27.3442 19.8939 27.2135 19.4985 26.9536C19.103 26.6938 18.7979 26.3176 18.6253 25.877C18.4761 25.507 18.4169 25.1068 18.4526 24.7094C18.4882 24.312 18.6178 23.9288 18.8306 23.5913C19.3047 22.8058 20.352 22.091 22.2486 22.4236V16.0547H19.4675V19.777C18.3243 20.113 17.3231 20.8149 16.6174 21.775C15.9118 22.7351 15.5407 23.9002 15.5612 25.0915C15.5612 29.2101 19.2552 30.1725 20.8332 30.1725C22.0504 30.1866 26.169 29.8894 26.1195 24.9217Z" fill="#FF5811"/>
<path d="M19.4391 14.7656H22.2627V12.1261H19.4391V14.7656Z" fill="#FF5811"/>
<path d="M41.5464 21.1485C41.5542 21.0307 41.5542 20.9125 41.5464 20.7946C41.5464 20.5328 41.5464 20.1861 41.5111 19.7473C41.5111 19.5138 41.5111 19.259 41.5111 18.976C41.5111 18.6929 41.4261 18.3815 41.3766 18.0489C41.3271 17.7163 41.2775 17.3413 41.2209 16.9733C41.1643 16.6053 41.0299 16.1949 40.9237 15.7703C40.4013 13.6952 39.5406 11.7203 38.3761 9.925C36.8456 7.5349 34.8448 5.48115 32.4955 3.88866C29.6198 1.97946 26.3204 0.803516 22.8855 0.46359C21.9443 0.380313 20.9986 0.361398 20.0548 0.406977C19.5807 0.406977 19.0924 0.406977 18.6395 0.498973L17.1888 0.718347C15.1872 1.08466 13.2508 1.74522 11.4426 2.67856C9.54799 3.67182 7.80781 4.93523 6.27669 6.42916C4.70837 8.02096 3.39764 9.8474 2.39165 11.8428C1.33264 13.9019 0.647375 16.1325 0.36773 18.4311C0.279003 19.0145 0.229363 19.6031 0.219127 20.1931C0.183712 20.7847 0.183712 21.3778 0.219127 21.9694C0.377652 25.7537 1.56419 29.4234 3.65128 32.5843V32.372C2.66999 34.8299 1.70522 37.2359 0.756955 39.5901L0.580041 40.0147L1.02587 39.8944L8.74644 37.7714L8.55536 37.736C11.1508 39.6949 14.1718 41.0139 17.3728 41.5857C18.8609 41.8615 20.3768 41.9565 21.8877 41.8688C22.6161 41.8579 23.3426 41.7893 24.0602 41.6635L25.1146 41.5008C25.4613 41.4371 25.8223 41.3309 26.1407 41.246C30.8842 40.0365 35.0444 37.1827 37.8808 33.1928C38.9395 31.7199 39.7897 30.1077 40.4071 28.402C40.5416 28.0269 40.6689 27.6943 40.7963 27.3193C40.9237 26.9442 40.9732 26.6116 41.0511 26.2932C41.1289 25.9747 41.2138 25.6563 41.2846 25.3591C41.3554 25.0618 41.3766 24.7646 41.4191 24.4957C41.4827 23.9508 41.5818 23.4696 41.6031 23.0804C41.6243 22.6912 41.6031 22.309 41.6384 22.0189C41.6738 21.7288 41.6384 21.5377 41.6384 21.3679C41.646 21.2949 41.646 21.2214 41.6384 21.1485C41.6168 21.2197 41.6049 21.2935 41.6031 21.3679C41.6031 21.5377 41.6031 21.75 41.5535 22.0118C41.504 22.2737 41.5111 22.6558 41.4827 23.0662C41.4544 23.4767 41.3483 23.9579 41.2634 24.4816C40.5836 28.4134 38.7723 32.0618 36.0512 34.9802C33.3301 37.8986 29.8173 39.9604 25.9426 40.9134C25.61 40.9913 25.2773 41.0974 24.9377 41.1611L23.8974 41.3168C23.1951 41.4305 22.4857 41.4943 21.7744 41.5078C20.2912 41.5871 18.8038 41.4873 17.3445 41.2106C14.21 40.6405 11.2544 39.3385 8.71812 37.4105L8.63321 37.3468H8.52706L0.806497 39.4698L1.08247 39.7741C2.02366 37.4246 2.99316 35.0115 3.98388 32.556L4.03342 32.4427L3.96265 32.3437C2.57443 30.2325 1.58616 27.8842 1.0471 25.4157C0.806619 24.2689 0.659889 23.1045 0.608353 21.934C0.584698 21.3559 0.596506 20.7769 0.643727 20.2002C0.651321 19.6244 0.69862 19.0499 0.785268 18.4806C1.05604 16.2316 1.72455 14.0487 2.75962 12.0338C3.74145 10.0828 5.01847 8.29497 6.5456 6.73345C8.0433 5.26735 9.74516 4.02553 11.5983 3.04655C13.3669 2.13013 15.2598 1.47691 17.2171 1.10756L18.6324 0.888186C19.0995 0.81742 19.5807 0.824496 20.0478 0.789113C20.97 0.742894 21.8943 0.757078 22.8147 0.831573C25.8962 1.10552 28.8752 2.07596 31.5269 3.66963C34.1785 5.2633 36.4334 7.43854 38.1214 10.0311C39.2879 11.7949 40.1625 13.7352 40.7114 15.7773L41.0299 16.9662C41.0935 17.3483 41.1502 17.6739 41.2068 18.0348C41.2634 18.3957 41.3129 18.6717 41.3554 18.9477C41.3978 19.2236 41.3908 19.4855 41.412 19.719C41.4474 20.1578 41.4686 20.5045 41.4898 20.7593C41.4977 20.8904 41.5167 21.0206 41.5464 21.1485Z" fill="#874F38"/>
</svg>
