<svg width="112" height="40" viewBox="0 0 112 40" fill="none" xmlns="http://www.w3.org/2000/svg">
<path d="M56.8835 1.59303C32.5761 -3.02006 12.9253 5.03856 4.78295 18.689L4.18767 18.7931C6.48598 13.8281 8.78867 8.85352 10.9518 3.82589C11.0553 3.60223 11.0138 3.32254 10.8364 3.04836C10.6589 2.77417 10.36 2.52796 10.0055 2.36386C9.65105 2.19977 9.26995 2.13123 8.94607 2.17335C8.6222 2.21546 8.38208 2.36478 8.27855 2.58844C5.64689 8.27363 3.10534 14.0005 0.518739 19.7066C0.452561 19.8763 0.463728 20.0754 0.550902 20.2801C0.638076 20.4848 0.797598 20.6867 1.0105 20.8615C1.22341 21.0364 1.48074 21.1771 1.75192 21.2667C2.0231 21.3563 2.29672 21.3912 2.54024 21.3672L4.12768 21.0895C4.23249 21.2387 4.37508 21.3794 4.54478 21.5009C4.71449 21.6225 4.90694 21.7218 5.1078 21.7916C5.30866 21.8613 5.51275 21.8997 5.70485 21.9038C5.89694 21.9078 6.07209 21.8775 6.21723 21.8151C7.71542 21.0904 9.31569 20.4628 11.0076 19.9366L21.7123 18.0459C22.0385 18.0046 22.281 17.8556 22.3865 17.6314C22.4919 17.4073 22.4517 17.1265 22.2746 16.8507C22.0975 16.575 21.7981 16.3269 21.4423 16.1611C21.0864 15.9953 20.7032 15.9253 20.377 15.9666C16.4262 16.1867 12.7267 16.8385 9.3769 17.9046L8.75781 18.0207C17.1822 6.20367 35.0816 -0.51411 57.0059 3.45605C79.5022 7.52993 102.057 22.4692 110.494 39.5025C110.729 39.9795 111.774 39.9683 111.562 39.4793C103.641 21.8446 80.0512 5.98922 56.8835 1.59303Z" fill="#FF480E"/>
</svg>
