<svg width="41" height="36" viewBox="0 0 41 36" fill="none" xmlns="http://www.w3.org/2000/svg">
<path d="M40.7283 0.87132C40.5258 0.888799 40.3222 0.888799 40.1197 0.87132C39.7164 0.87132 39.1361 0.736867 38.3789 0.72979C36.2382 0.625285 34.0925 0.712911 31.9675 0.991621C28.8176 1.39734 25.718 2.12776 22.7184 3.17121C20.9508 3.78656 19.2292 4.52675 17.5666 5.38619C15.7709 6.28928 14.079 7.38556 12.521 8.65557C10.9789 9.93841 9.59403 11.3993 8.39535 13.0077C7.26452 14.5009 6.23154 16.0657 5.30288 17.6924C3.75372 20.4663 2.52624 23.408 1.64429 26.4603C1.04805 28.5166 0.635978 30.622 0.412955 32.7514C0.328036 33.5086 0.3068 34.0959 0.28557 34.4993C0.28604 34.7035 0.267093 34.9073 0.228967 35.1079C0.213554 34.903 0.213554 34.6972 0.228967 34.4922C0.217581 33.909 0.236468 33.3256 0.28557 32.7443C0.448278 30.5892 0.825206 28.4557 1.41076 26.3754C2.26183 23.2906 3.47319 20.3169 5.01981 17.5155C5.95022 15.8686 6.988 14.2847 8.12644 12.7741C9.33513 11.1372 10.737 9.6522 12.3016 8.35128C13.8771 7.06583 15.5907 5.95979 17.4109 5.05359C19.0906 4.189 20.8314 3.44869 22.6193 2.83861C25.6452 1.79706 28.7746 1.08528 31.9533 0.715634C34.092 0.452848 36.2516 0.403069 38.4001 0.567026C38.9835 0.606311 39.5645 0.674804 40.141 0.772248C40.3391 0.789127 40.5356 0.822262 40.7283 0.87132Z" fill="#874F38"/>
</svg>
