<svg width="28" height="25" viewBox="0 0 28 25" fill="none" xmlns="http://www.w3.org/2000/svg">
<path d="M7.38302 24.8865C6.56367 24.8638 5.78392 24.6538 5.04377 24.2567C4.30362 23.8595 3.60398 23.2742 2.94485 22.5007C2.03446 21.41 1.32299 20.1094 0.810433 18.5988C0.297882 17.0883 0.0420608 15.5373 0.0429712 13.9458C0.0429712 12.0599 0.401667 10.2875 1.11906 8.62881C1.83645 6.97009 2.8092 5.52724 4.03733 4.30024C5.26636 3.07324 6.71161 2.1021 8.37308 1.3868C10.0345 0.67151 11.8098 0.313409 13.6989 0.3125C15.588 0.3125 17.3632 0.676054 19.0247 1.40316C20.6862 2.13027 22.1314 3.11869 23.3604 4.36841C24.5895 5.61812 25.5627 7.0837 26.2801 8.76514C26.9975 10.4466 27.3557 12.253 27.3548 14.1844C27.3548 15.934 27.0703 17.57 26.5013 19.0924C25.9323 20.6147 25.1243 21.8986 24.0774 22.9438C23.4401 23.58 22.7687 24.0631 22.0631 24.393C21.3576 24.7229 20.6406 24.8874 19.9123 24.8865C19.5026 24.8865 19.093 24.8356 18.6833 24.7338C18.2736 24.632 17.8639 24.4784 17.4543 24.273L15.5424 23.3187C15.2693 23.1824 14.9789 23.0801 14.6712 23.0119C14.3635 22.9438 14.0394 22.9097 13.6989 22.9097C13.3575 22.9097 13.0329 22.9438 12.7252 23.0119C12.4175 23.0801 12.1275 23.1824 11.8553 23.3187L9.94351 24.273C9.51107 24.5002 9.0841 24.6652 8.66258 24.7679C8.24107 24.8706 7.81455 24.9101 7.38302 24.8865ZM7.4513 22.1599C7.65614 22.1599 7.8669 22.1371 8.08357 22.0917C8.30025 22.0462 8.51055 21.9667 8.71448 21.8531L10.6263 20.8988C11.1043 20.6488 11.5995 20.4671 12.1121 20.3534C12.6246 20.2398 13.1422 20.183 13.6647 20.183C14.1882 20.183 14.7117 20.2398 15.2352 20.3534C15.7586 20.4671 16.2594 20.6488 16.7373 20.8988L18.6833 21.8531C18.8881 21.9667 19.093 22.0462 19.2978 22.0917C19.5026 22.1371 19.7075 22.1599 19.9123 22.1599C20.3448 22.1599 20.7544 22.0462 21.1414 21.819C21.5283 21.5918 21.9152 21.251 22.3021 20.7965C23.0304 19.9331 23.5994 18.8992 24.0091 17.695C24.4188 16.4907 24.6236 15.2523 24.6236 13.9799C24.6236 10.9351 23.5653 8.35069 21.4486 6.22662C19.3319 4.10256 16.7487 3.04007 13.6989 3.03916C10.6491 3.03916 8.06582 4.1071 5.94915 6.24298C3.83249 8.37887 2.77415 10.9692 2.77415 14.014C2.77415 15.3091 2.98445 16.5702 3.40506 17.7972C3.82566 19.0242 4.41195 20.0581 5.16394 20.8988C5.55086 21.3532 5.92639 21.6772 6.29055 21.8708C6.65471 22.0644 7.04163 22.1608 7.4513 22.1599ZM13.6989 16.6725C14.45 16.6725 15.0932 16.4057 15.6285 15.8722C16.1638 15.3387 16.431 14.6965 16.4301 13.9458C16.4301 13.764 16.4128 13.5822 16.3782 13.4005C16.3436 13.2187 16.2926 13.0369 16.2252 12.8551L17.9322 10.5716C18.1826 10.8897 18.3874 11.2132 18.5467 11.5422C18.7061 11.8713 18.8426 12.218 18.9564 12.5825C19.0702 12.946 19.2409 13.2641 19.4685 13.5368C19.6961 13.8095 19.992 13.9458 20.3561 13.9458C20.8113 13.9458 21.17 13.7467 21.4322 13.3487C21.6944 12.9506 21.7682 12.5134 21.6535 12.0371C21.1983 10.1966 20.231 8.69152 18.7516 7.52179C17.2722 6.35205 15.588 5.76673 13.6989 5.76582C11.7871 5.76582 10.0969 6.35114 8.62844 7.52179C7.15998 8.69243 6.1986 10.1975 5.74431 12.0371C5.63052 12.5143 5.70471 12.9519 5.96691 13.35C6.2291 13.7481 6.58734 13.9467 7.04163 13.9458C7.40578 13.9458 7.70166 13.8095 7.92926 13.5368C8.15686 13.2641 8.32756 12.946 8.44136 12.5825C8.75999 11.3782 9.40319 10.3952 10.3709 9.63358C11.3387 8.87194 12.448 8.49157 13.6989 8.49248C14.063 8.49248 14.4217 8.52656 14.775 8.59473C15.1282 8.66289 15.4637 8.76514 15.7814 8.90148L14.0403 11.2532C13.9948 11.2532 13.9379 11.2473 13.8696 11.2355C13.8013 11.2237 13.7444 11.2182 13.6989 11.2191C12.9478 11.2191 12.3046 11.4863 11.7693 12.0208C11.234 12.5552 10.9668 13.1969 10.9677 13.9458C10.9677 14.6956 11.2354 15.3378 11.7707 15.8722C12.306 16.4066 12.9487 16.6734 13.6989 16.6725Z" fill="#FF7446"/>
</svg>
