<svg width="190" height="196" viewBox="0 0 190 196" fill="none" xmlns="http://www.w3.org/2000/svg">
<path d="M1.62592 -0.00144857C-6.00558 30.0575 20.3623 95.8575 50.9845 126.005C84.1285 158.654 109.29 168.569 171.913 173.175C168.633 176.459 165.976 178.923 163.501 181.627C160.766 184.497 158.215 187.566 155.877 190.801C155.166 191.81 155.388 194.428 156.15 195.187C156.723 195.537 157.403 195.7 158.128 195.663C158.852 195.627 159.598 195.39 160.297 194.976C169.211 187.829 178.051 180.536 186.818 173.099C187.49 172.649 188.086 172.05 188.555 171.352C189.024 170.655 189.353 169.881 189.514 169.096C189.674 168.31 189.661 167.537 189.475 166.842C189.29 166.147 188.938 165.55 188.449 165.103C181.007 155.36 173.712 145.47 166.012 135.937C164.211 133.69 161.173 132.67 158.011 130.639C154.797 140.289 160.73 143.096 163.004 147.886C165.278 152.675 168.734 157.346 172.315 163.055C153.94 164.86 136.158 163.087 119.802 157.821C61.1606 139.322 26.0313 95.7941 9.27388 33.0696C7.08996 24.876 5.8717 16.2158 4.08783 7.82852C3.62867 5.54763 2.74159 3.46881 1.62592 -0.00144857Z" fill="#FF5811"/>
</svg>
