<svg width="112" height="65" viewBox="0 0 112 65" fill="none" xmlns="http://www.w3.org/2000/svg">
<path d="M1.47749 62.6263L4.15583 60.9686C4.24519 60.8581 4.37307 60.7504 4.53077 60.6527C4.68848 60.555 4.8723 60.4696 5.06974 60.4024L18.5853 52.0209C20.713 50.7128 23.2098 51.8555 21.1514 53.1447L12.436 58.5384C33.6317 52.9305 54.2405 45.594 73.325 36.8625C94.8629 27.2027 118.659 11.2381 105.491 0.914089C104.923 0.469158 106.69 -0.247009 107.276 0.169737C118.516 8.06737 105.773 21.6584 88.5214 31.2801C66.9371 43.2334 39.191 53.5367 12.9425 60.3992C17.7948 60.5747 22.7738 60.5892 27.857 60.4426C30.0984 60.3733 29.0094 62.3039 26.7411 62.6392C18.1878 63.931 9.84605 64.4947 2.03478 64.3087C1.69549 64.3101 1.39777 64.2601 1.1706 64.1635C0.943413 64.067 0.794521 63.9272 0.738412 63.7578C0.682297 63.5885 0.720891 63.3952 0.850408 63.1969C0.979925 62.9986 1.19596 62.8021 1.47749 62.6263Z" fill="#FF480E"/>
</svg>
