<svg width="70" height="35" viewBox="0 0 70 35" fill="none" xmlns="http://www.w3.org/2000/svg">
<path d="M69.3089 34.5747C69.2581 34.5257 69.213 34.4711 69.1744 34.412L68.8206 33.9237C68.495 33.4637 68.0422 32.8268 67.476 32.013C67.1788 31.6025 66.8745 31.1284 66.4995 30.6401L65.2257 29.0904L63.7608 27.2858C63.2301 26.6702 62.6073 26.0686 61.9917 25.4105C61.376 24.7524 60.725 24.0518 60.0031 23.3725L57.7174 21.3061C57.3211 20.9523 56.9319 20.5984 56.5073 20.2305L55.191 19.1902C54.2923 18.4825 53.4007 17.7749 52.4312 17.0672C48.2072 14.0432 43.7245 11.3981 39.0352 9.16266L35.3058 7.47135L31.6048 6.05603C30.4017 5.56067 29.1704 5.19977 27.9745 4.81055C26.7785 4.42134 25.625 4.0109 24.4362 3.73491L21.0536 2.84326C19.9567 2.55312 18.8669 2.38328 17.8266 2.1356C16.7864 1.88792 15.7815 1.6827 14.7979 1.55532L11.9672 1.15195C10.1768 0.847659 8.53506 0.78397 7.10559 0.635362C6.39793 0.585826 5.69027 0.507982 5.10291 0.479676L3.41869 0.43014L1.08341 0.359375H0.47482C0.406608 0.366689 0.337804 0.366689 0.269592 0.359375H0.47482H3.41869H5.10999C5.73273 0.359375 6.39793 0.444294 7.11974 0.486754C8.53506 0.614133 10.2051 0.656591 11.9955 0.946731L14.8262 1.33595C15.8098 1.44917 16.8147 1.70393 17.8691 1.89499C18.9235 2.08606 19.9921 2.27713 21.1102 2.60265L24.5069 3.48015C25.6816 3.74906 26.8422 4.18781 28.0452 4.54872C29.2482 4.90962 30.4725 5.25638 31.6897 5.78712L35.4049 7.20244L39.1555 8.89375C43.868 11.1398 48.3681 13.8067 52.601 16.862C53.5776 17.5697 54.4692 18.3268 55.368 18.985L56.6842 20.0394C57.1088 20.3932 57.498 20.747 57.8943 21.1292L60.173 23.2168C60.8806 23.9244 61.5175 24.6321 62.1474 25.2761C62.7772 25.92 63.3787 26.5569 63.9094 27.1797L65.3247 28.9913L66.5844 30.5623C66.9453 31.0576 67.2496 31.5389 67.5326 31.9776L68.8206 33.9307L69.1532 34.4403C69.2099 34.4792 69.2621 34.5243 69.3089 34.5747Z" fill="#874F38"/>
</svg>
