<svg width="136" height="64" viewBox="0 0 136 64" fill="none" xmlns="http://www.w3.org/2000/svg">
<path d="M133.676 0.920722L130.242 2.14418C130.077 2.14449 129.886 2.1819 129.684 2.25388C129.482 2.32585 129.272 2.4307 129.07 2.56128L111.726 8.72351C109.006 9.70203 108.279 12.8182 110.932 11.889L122.106 7.90726C101.843 23.1101 80.4078 36.5073 58.7743 47.4896C34.5384 60.0264 2.89044 69.988 2.76864 50.3954C2.7639 49.5504 0.845635 50.6352 0.812204 51.4752C0.0736237 67.5275 21.6625 65.8982 42.8094 57.2415C69.1894 46.348 98.4406 28.6241 123.458 9.7366C120.162 14.2895 116.628 18.8396 112.872 23.3663C111.211 25.3588 113.764 25.7849 115.689 23.9632C122.972 17.1146 129.434 9.92362 134.827 2.66526C135.07 2.35695 135.236 2.04874 135.309 1.77068C135.382 1.49262 135.36 1.25414 135.244 1.0785C135.128 0.902843 134.923 0.796007 134.648 0.76836C134.373 0.740713 134.038 0.793194 133.676 0.920722Z" fill="#FF480E"/>
</svg>
