<svg width="180" height="53" viewBox="0 0 180 53" fill="none" xmlns="http://www.w3.org/2000/svg">
<path d="M2.11264 50.2253L8.28929 50.814C8.67486 51.0819 9.17007 51.2246 9.66626 51.2107C10.6198 51.1975 11.55 51.1982 12.4993 51.2184L26.2914 52.4787C26.7614 52.4996 27.2137 52.3827 27.5613 52.1506C27.9089 51.9186 28.1272 51.5876 28.1741 51.2216C28.221 50.8555 28.0933 50.4803 27.8155 50.168C27.5377 49.8557 27.1295 49.6285 26.6694 49.5301C24.4124 49.1478 22.1391 48.8563 19.8586 48.6569C74.3477 35.1922 127.662 19.3093 179.557 1.08065C180.351 0.793016 179.724 -0.218726 178.996 0.0604416C123.792 18.0765 67.7963 34.6704 10.1381 47.8678L8.00974 47.5949C12.1207 45.5652 16.2488 43.5715 20.3449 41.4891C22.3568 40.4771 19.9421 38.0509 17.9302 39.0629C12.3311 41.7315 6.75315 44.5722 1.16251 47.3435C0.792845 47.4905 0.502993 47.7332 0.338155 48.0336C0.173301 48.3341 0.142704 48.6754 0.251187 49.0044C0.359656 49.3335 0.601085 49.6316 0.93781 49.8525C1.27452 50.0733 1.68761 50.2044 2.11264 50.2253Z" fill="#FF480E"/>
</svg>
