<svg width="102" height="52" viewBox="0 0 102 52" fill="none" xmlns="http://www.w3.org/2000/svg">
<path d="M44.4056 2.04123C22.1162 7.74129 7.17763 26.6555 3.68249 47.0066L3.19337 47.4097C3.88931 40.3157 4.58657 33.2082 5.14892 26.1011C5.18027 25.7815 5.07115 25.4614 4.84557 25.2111C4.61999 24.9608 4.29643 24.8009 3.94606 24.7666C3.59569 24.7322 3.24721 24.8262 2.9773 25.0278C2.70738 25.2295 2.53813 25.5223 2.50679 25.8419C1.70991 33.9648 1.00208 42.0964 0.249735 50.2237C0.236689 50.4604 0.298397 50.6968 0.427518 50.9048C0.556639 51.1127 0.747745 51.2835 0.978122 51.3968C1.2085 51.5101 1.46846 51.5611 1.7271 51.5439C1.98573 51.5266 2.23218 51.4417 2.43712 51.2994L3.74147 50.2245C3.87138 50.3569 4.03181 50.4613 4.21078 50.5299C4.38975 50.5986 4.58264 50.6297 4.77509 50.621C4.96755 50.6123 5.15459 50.564 5.32228 50.4796C5.48996 50.3953 5.63396 50.2771 5.74354 50.1339C6.85362 48.5579 8.07767 47.0525 9.4077 45.6274L18.1986 38.357C18.4707 38.1554 18.6421 37.8617 18.675 37.5407C18.7079 37.2196 18.5996 36.8975 18.374 36.6452C18.1483 36.3929 17.8238 36.231 17.4718 36.1952C17.1198 36.1593 16.7691 36.2525 16.497 36.4542C13.1276 38.5578 10.0892 41.0684 7.46219 43.9193L6.95556 44.348C11.1744 26.0908 24.9444 9.61794 44.9986 4.24535C65.5761 -1.26727 89.0439 6.37935 100.813 23.1297C101.142 23.5993 102.045 23.1002 101.734 22.6049C90.2544 4.88524 65.6497 -3.39232 44.4056 2.04123Z" fill="#FF480E"/>
</svg>
