<svg width="43" height="30" viewBox="0 0 43 30" fill="none" xmlns="http://www.w3.org/2000/svg">
<path d="M42.0488 0.316406C41.9667 0.47088 41.8644 0.613684 41.7445 0.741006L40.7962 1.91572C40.3928 2.42524 39.8833 3.0409 39.2535 3.72733C38.6237 4.41376 37.9514 5.22756 37.1305 6.05553C36.3097 6.88349 35.4322 7.82468 34.4344 8.76586C33.4366 9.70705 32.3538 10.7048 31.2003 11.738C28.6555 13.9317 25.9982 15.9915 23.2392 17.9088C20.4706 19.8015 17.6028 21.5448 14.6482 23.1314C13.2753 23.839 11.9803 24.5467 10.7278 25.0986C9.4752 25.6506 8.31464 26.2026 7.23192 26.6555C6.1492 27.1084 5.16555 27.4835 4.30221 27.8161C3.43886 28.1487 2.68167 28.4105 2.05893 28.6086L0.64361 29.0757C0.476559 29.1324 0.306451 29.1796 0.134094 29.2172C0.287561 29.1317 0.448654 29.0606 0.615298 29.0049L2.03062 28.4742C2.64628 28.2548 3.3964 27.9788 4.24559 27.625C5.09479 27.2712 6.09259 26.9173 7.15408 26.4149C8.21556 25.9125 9.39028 25.4313 10.6145 24.8227C11.8388 24.2141 13.1479 23.5489 14.5137 22.8341C17.2099 21.3551 20.1184 19.6143 23.0552 17.6045C25.992 15.5948 28.6386 13.4789 30.981 11.4833C32.1345 10.4572 33.2455 9.50183 34.222 8.54649C35.1986 7.59115 36.1256 6.70657 36.9395 5.87861C37.7533 5.05065 38.468 4.26515 39.1049 3.59287C39.7418 2.9206 40.2655 2.31909 40.6901 1.82372L41.6879 0.698548C41.7983 0.562222 41.919 0.43447 42.0488 0.316406Z" fill="#874F38"/>
</svg>
