<svg width="77" height="34" viewBox="0 0 77 34" fill="none" xmlns="http://www.w3.org/2000/svg">
<path d="M41.2276 1.35095C57.8665 4.01271 69.8275 16.4547 73.48 30.6112L73.8601 30.8659C72.9697 25.8993 72.0776 20.9232 71.2844 15.9392C71.2442 15.7154 71.307 15.4827 71.4589 15.2922C71.6108 15.1017 71.8393 14.969 72.0942 14.9233C72.3491 14.8776 72.6095 14.9226 72.8181 15.0485C73.0267 15.1744 73.1665 15.3708 73.2066 15.5945C74.2261 21.2815 75.1809 26.9801 76.168 32.6729C76.1903 32.8393 76.1577 33.01 76.0743 33.1647C75.9908 33.3194 75.8599 33.4517 75.6972 33.5458C75.5345 33.6399 75.3467 33.6918 75.1562 33.6954C74.9658 33.6991 74.7807 33.6542 74.6228 33.5662L73.6094 32.887C73.5213 32.9884 73.4093 33.072 73.2819 33.1314C73.1544 33.1908 73.0147 33.2246 72.8732 33.2302C72.7317 33.2358 72.5921 33.2131 72.4647 33.1638C72.3373 33.1145 72.2254 33.0399 72.1375 32.9455C71.2395 31.9005 70.2618 30.9124 69.2108 29.9874L62.3791 25.3914C62.1688 25.2656 62.0275 25.0687 61.9862 24.844C61.9448 24.6194 62.0069 24.3853 62.1587 24.1933C62.3106 24.0014 62.5397 23.8672 62.7957 23.8204C63.0517 23.7736 63.3137 23.8179 63.5239 23.9437C66.1057 25.223 68.4669 26.8099 70.5448 28.6624L70.939 28.9341C66.8684 16.3004 55.8947 5.5108 40.9112 2.94358C25.5368 0.309483 8.75012 7.14408 1.02394 19.6915C0.808345 20.0432 0.119756 19.746 0.321155 19.3773C7.78291 6.1631 25.3689 -1.18655 41.2276 1.35095Z" fill="#FF480E"/>
</svg>
