<svg width="31" height="94" viewBox="0 0 31 94" fill="none" xmlns="http://www.w3.org/2000/svg">
<path d="M1.68411 93.7893C7.96313 93.4144 12.445 86.5652 15.8274 81.9296C23.2028 71.8507 27.6671 59.9385 28.733 47.4932C29.799 35.0479 27.4256 22.5477 21.8719 11.3571C23.7796 12.9586 25.7151 14.56 27.6367 16.1475C29.5582 17.735 31.7993 15.2154 30.1144 13.6697L16.0087 0.900307C15.7582 0.663543 15.4447 0.504069 15.1058 0.440976C14.7669 0.377879 14.4171 0.413857 14.0982 0.544595C13.7793 0.67533 13.505 0.895281 13.308 1.17807C13.1111 1.46085 12.9998 1.79446 12.9877 2.13892C12.5575 10.2279 12.0437 18.3168 11.711 26.4197C11.6139 28.6333 14.9692 28.5921 15.122 26.4063C15.5247 20.2944 15.8578 14.1685 16.2188 8.01478C22.0282 17.6619 25.2813 28.6305 25.6705 39.8835C26.0598 51.1364 23.5723 62.3017 18.4433 72.3235C15.3396 78.4628 8.95125 91.1452 1.44715 92.1046C0.556143 92.3272 0.765236 93.8448 1.68411 93.7893Z" fill="#FF480E"/>
</svg>
