<svg width="112" height="32" viewBox="0 0 112 32" fill="none" xmlns="http://www.w3.org/2000/svg">
<path d="M1.27726 19.8669C-1.46737 12.622 4.78263 9.25803 8.83424 6.57284C17.6324 0.709751 30.2065 -1.24332 45.184 0.926837C60.1615 3.097 76.9669 9.30699 93.7659 18.879C90.7925 16.2068 87.8049 13.5021 84.8418 10.8175C81.8788 8.13289 83.8749 6.2022 86.6648 8.59834L109.808 28.6116C110.231 28.9699 110.591 29.3805 110.843 29.7944C111.095 30.2083 111.229 30.6078 111.229 30.945C111.229 31.2823 111.095 31.543 110.843 31.6958C110.591 31.8486 110.232 31.8872 109.809 31.8067C99.9394 30.089 90.113 28.4689 80.1767 26.6333C77.4653 26.139 75.8002 22.2238 78.4484 22.6453C85.8657 23.8524 93.336 25.1447 100.827 26.4122C85.8222 16.9648 70.4769 10.1459 56.2422 6.60029C42.0075 3.05468 29.3537 2.89957 19.4776 6.14962C13.4079 8.09575 0.857486 12.0888 3.49976 20.6068C3.67791 21.5884 1.67807 20.927 1.27726 19.8669Z" fill="#FF480E"/>
</svg>
