<svg width="164" height="25" viewBox="0 0 164 25" fill="none" xmlns="http://www.w3.org/2000/svg">
<path d="M162.66 21.1873L157.804 18.589C157.579 18.2385 157.223 17.9524 156.812 17.7936C156.027 17.4772 155.265 17.1576 154.495 16.8155L143.633 11.0579C143.255 10.8797 142.845 10.8197 142.482 10.8896C142.119 10.9594 141.827 11.1541 141.665 11.4362C141.502 11.7183 141.479 12.0678 141.6 12.4175C141.721 12.7672 141.978 13.0923 142.321 13.3302C144.039 14.4159 145.801 15.4331 147.6 16.3778C98.4164 8.65568 49.3727 3.30662 0.693249 0.355107C-0.054568 0.317049 0.11513 1.35647 0.806049 1.37879C52.122 5.63845 103.602 11.328 155.289 20.3549L156.938 21.3073C152.883 21.5506 148.826 21.7587 144.765 22.0501C142.774 22.1843 143.926 24.989 145.917 24.8547C151.408 24.6014 156.939 24.2007 162.458 23.8608C162.811 23.8678 163.131 23.7696 163.368 23.5814C163.605 23.3932 163.746 23.1256 163.769 22.8203C163.792 22.5151 163.696 22.1894 163.495 21.894C163.295 21.5986 163.001 21.3501 162.66 21.1873Z" fill="#FF480E"/>
</svg>
